<svg width="24" height="24" viewBox="0 0 24 24" fill="none" xmlns="http://www.w3.org/2000/svg">
<path fill-rule="evenodd" clip-rule="evenodd" d="M2.84691 5.83684C2 6.67369 2 8.02057 2 10.7143C2 13.4081 2 14.755 2.84691 15.5918C3.69381 16.4287 5.05688 16.4287 7.78303 16.4287H12.6022C15.3284 16.4287 16.6914 16.4287 17.5384 15.5918C18.3853 14.755 18.3853 13.4081 18.3853 10.7143C18.3853 8.02057 18.3853 6.67369 17.5384 5.83684C16.6914 5 15.3284 5 12.6022 5H7.78303C5.05688 5 3.69381 5 2.84691 5.83684ZM10.192 7.61914C8.46194 7.61914 7.05948 9.00494 7.05948 10.7144C7.05948 12.4239 8.46194 13.8097 10.192 13.8097C11.922 13.8097 13.3244 12.4239 13.3244 10.7144C13.3244 9.00494 11.922 7.61914 10.192 7.61914ZM4.89085 13.3335C4.49161 13.3335 4.16797 13.0137 4.16797 12.6192V8.80963C4.16797 8.41513 4.49161 8.09534 4.89085 8.09534C5.29008 8.09534 5.61373 8.41513 5.61373 8.80963V12.6192C5.61373 13.0137 5.29008 13.3335 4.89085 13.3335ZM14.7702 12.6192C14.7702 13.0137 15.0938 13.3335 15.4931 13.3335C15.8923 13.3335 16.216 13.0137 16.216 12.6192V8.80963C16.216 8.41513 15.8923 8.09534 15.4931 8.09534C15.0938 8.09534 14.7702 8.41513 14.7702 8.80963V12.6192Z" fill="#4D6472"/>
<path d="M4.22803 17.2776C4.37467 17.8685 4.62375 18.3814 5.05845 18.8109C5.14104 18.8925 5.22668 18.9675 5.31533 19.0365C5.8807 19.5504 6.58113 19.7784 7.40526 19.8879C8.24088 19.9989 9.30334 19.9989 10.6215 19.9989H15.5465C16.8646 19.9989 17.9271 19.9989 18.7627 19.8879C19.6303 19.7726 20.3607 19.5261 20.9409 18.9528C21.521 18.3795 21.7706 17.6578 21.8872 16.8005C21.9995 15.9748 21.9995 14.925 21.9995 13.6225V13.518C21.9995 12.2155 21.9995 11.1657 21.8872 10.34C21.7706 9.48271 21.521 8.76092 20.9409 8.18766C20.8583 8.10605 20.7726 8.03106 20.684 7.96212C20.2722 7.58776 19.7887 7.36512 19.238 7.22949C19.2499 7.30043 19.2606 7.37205 19.2705 7.44432C19.3855 8.28998 19.3855 9.35686 19.3855 10.6434V10.785C19.3855 12.0716 19.3855 13.1385 19.2705 13.9841C19.1492 14.8753 18.8837 15.6683 18.2414 16.303C17.6008 16.9361 16.803 17.1962 15.9069 17.3153C15.0534 17.4286 13.9758 17.4286 12.6719 17.4286H7.71369C6.40981 17.4286 5.33218 17.4286 4.47872 17.3153C4.39427 17.304 4.31069 17.2916 4.22803 17.2776Z" fill="#4D6472"/>
<path d="M12.6024 16.4287C15.3286 16.4287 16.6916 16.4287 17.5386 15.5918C18.3855 14.755 18.3855 13.4081 18.3855 10.7143C18.3855 9.05012 18.3846 7.89981 18.1849 7.06642C18.1846 7.06639 18.1852 7.06644 18.1849 7.06642C18.3846 7.89981 18.3855 9.05012 18.3855 10.7143C18.3855 13.4081 18.3855 14.755 17.5386 15.5918C16.6916 16.4287 15.3286 16.4287 12.6024 16.4287Z" fill="#4D6472"/>
</svg>
