<svg width="24" height="24" viewBox="0 0 24 24" fill="none" xmlns="http://www.w3.org/2000/svg">
<g clip-path="url(#clip0_1019_17283)">
<path d="M9.15723 4.18529C9.15723 3.97761 9.3267 3.80542 9.54234 3.80542H11.1394C11.3499 3.80542 11.5245 3.97761 11.5245 4.18529C11.5245 4.39297 11.3499 4.56516 11.1394 4.56516H9.54234C9.3267 4.56516 9.15723 4.398 9.15723 4.18529Z" fill="#F8043F"/>
<path d="M10.3741 1.77425C10.2252 1.62735 10.2252 1.38422 10.3741 1.23737C10.5231 1.09047 10.7696 1.09047 10.9185 1.23737L12.0481 2.35164C12.1971 2.49855 12.1971 2.74167 12.0481 2.88852C11.9712 2.95946 11.8735 2.99998 11.776 2.99998C11.6784 2.99998 11.5807 2.95946 11.5038 2.88852L10.3741 1.77425Z" fill="#F8043F"/>
<path d="M12.9673 1.95657V0.381335C12.9673 0.168572 13.1366 0.00146484 13.3524 0.00146484C13.5681 0.00146484 13.7375 0.168572 13.7375 0.381335V1.95657C13.7375 2.1642 13.5629 2.33644 13.3524 2.33644C13.1419 2.33644 12.9673 2.1642 12.9673 1.95657Z" fill="#F8043F"/>
<path d="M12.3877 8.56159C12.3877 10.2846 13.2229 11.9122 14.6211 12.946H21.2766C22.6713 11.9144 23.5044 10.287 23.5044 8.56159C23.5044 5.53938 21.0122 3.08105 17.9488 3.08105C14.8854 3.08105 12.3877 5.53938 12.3877 8.56159ZM16.9931 8.94146C16.5668 8.94146 16.2203 8.59916 16.2203 8.17877V6.82745C16.2203 6.40701 16.5668 6.06476 16.9931 6.06476H17.5587V5.61958C17.5587 5.40984 17.7313 5.23972 17.9438 5.23972C18.1564 5.23972 18.3289 5.40989 18.3289 5.61958V6.06476H19.2822C19.4949 6.06476 19.6673 6.23493 19.6673 6.44463C19.6673 6.65432 19.4948 6.8245 19.2822 6.8245H16.9931L16.9906 8.17882L18.8941 8.18178C19.3204 8.18178 19.6673 8.52409 19.6673 8.94448V10.2958C19.6673 10.7162 19.3203 11.0585 18.8941 11.0585H18.3289V11.5032C18.3289 11.7129 18.1564 11.883 17.9438 11.883C17.7313 11.883 17.5587 11.7128 17.5587 11.5032V11.0585H16.6055C16.3928 11.0585 16.2203 10.8883 16.2203 10.6786C16.2203 10.4689 16.3929 10.2987 16.6055 10.2987H18.8941L18.8971 8.94442L16.9931 8.94146Z" fill="#F8043F"/>
<path d="M18.4182 13.7058H15.5083V24.0001H18.4182V13.7058Z" fill="#F8043F" fill-opacity="0.5"/>
<path d="M1.8251 13.5604C2.0623 13.2726 2.37028 13.0482 2.73372 12.9197C3.13479 12.7787 3.55939 12.763 3.96165 12.8667L3.99339 12.8001C3.99588 12.7956 3.99792 12.7907 4.00041 12.7862C4.00041 12.7857 4.00092 12.7852 4.00092 12.7852C4.25413 12.2159 4.01093 11.562 3.44583 11.2944C2.87569 11.0312 2.19069 11.2741 1.92191 11.838L1.67068 12.3648C1.47688 12.7735 1.54982 13.2367 1.82515 13.5604H1.8251Z" fill="#F8043F"/>
<path d="M7.40094 7.69751C7.37486 7.69751 7.3533 7.70343 7.33927 7.70839C7.31318 7.71777 7.26503 7.74155 7.23747 7.79943L5.09277 12.2866L8.29797 13.7772L10.4423 9.29027C10.4704 9.23189 10.4588 9.17998 10.4493 9.15425C10.4398 9.12852 10.4157 9.08153 10.3571 9.05435H10.3565L7.47671 7.71487C7.44961 7.70203 7.42358 7.69757 7.401 7.69757L7.40094 7.69751Z" fill="#F8043F" fill-opacity="0.5"/>
<path d="M2.4814 17.7498L0.336814 22.2365C0.309258 22.2939 0.320745 22.3463 0.330307 22.372C0.339813 22.3978 0.363918 22.4453 0.422596 22.4725L3.30294 23.8119C3.39217 23.853 3.49951 23.8154 3.54263 23.7269L5.68688 19.2404L2.48146 17.7498H2.4814Z" fill="#F8043F" fill-opacity="0.5"/>
<path d="M2.55226 15.8149L3.62436 13.5712C3.56319 13.5628 3.501 13.5583 3.43882 13.5583C3.28887 13.5583 3.13892 13.5841 2.9935 13.635C2.66203 13.7522 2.39728 13.9892 2.24784 14.3018C2.09789 14.6154 2.08086 14.9675 2.2002 15.294C2.27443 15.4968 2.39524 15.6744 2.55221 15.8149H2.55226Z" fill="#F8043F"/>
<path d="M0.659241 17.1271C1.22791 17.3912 1.91337 17.1464 2.18616 16.5835L2.21626 16.5205C1.87868 16.2802 1.62026 15.9472 1.47563 15.5516C1.34453 15.1921 1.32393 14.8137 1.39919 14.449C0.96717 14.4477 0.55937 14.6872 0.366928 15.0941L0.10817 15.6248C-0.0207281 15.8949 -0.0352702 16.202 0.0690705 16.4865C0.172845 16.7714 0.382489 16.9989 0.659297 17.127L0.659241 17.1271Z" fill="#F8043F"/>
<path d="M7.9693 14.4644L4.76411 12.9739L2.80981 17.0625L6.01529 18.5532L7.9693 14.4644Z" fill="#F8043F"/>
<path d="M21.4105 13.7078C21.4076 13.7078 21.405 13.7059 21.4019 13.7058H19.1885V24.0001H23.1876C23.6354 24.0001 24 23.6405 24 23.1988V13.7058H21.4235C21.4191 13.706 21.4148 13.7078 21.4105 13.7078Z" fill="#F8043F" fill-opacity="0.5"/>
<path d="M10.7391 24.0001H14.7382V13.7058H9.92676V23.1988C9.92676 23.6405 10.2913 24.0001 10.7391 24.0001H10.7391Z" fill="#F8043F" fill-opacity="0.5"/>
<path d="M13.3507 2.33464C13.138 2.33464 12.9656 2.16447 12.9656 1.95477V0.37987C12.9656 0.170121 13.1381 0 13.3507 0C13.5633 0 13.7358 0.170177 13.7358 0.37987V1.95477C13.7358 2.16452 13.5633 2.33464 13.3507 2.33464Z" fill="#F8043F" fill-opacity="0.5"/>
<path d="M11.7754 2.99892C11.6766 2.99892 11.5783 2.9618 11.5031 2.88763L10.3743 1.77419C10.2239 1.62578 10.2239 1.38539 10.3743 1.23704C10.5248 1.08863 10.7685 1.08863 10.9189 1.23704L12.0477 2.35047C12.1981 2.49888 12.1981 2.73927 12.0477 2.88763C11.9725 2.9618 11.8742 2.99892 11.7754 2.99892Z" fill="#F8043F" fill-opacity="0.5"/>
<path d="M11.1377 4.56736H9.5416C9.32896 4.56736 9.15649 4.39718 9.15649 4.18749C9.15649 3.97779 9.32902 3.80762 9.5416 3.80762H11.1377C11.3504 3.80762 11.5228 3.97779 11.5228 4.18749C11.5228 4.39718 11.3503 4.56736 11.1377 4.56736Z" fill="#F8043F" fill-opacity="0.5"/>
</g>
<defs>
<clipPath id="clip0_1019_17283">
<rect width="24" height="24" fill="white"/>
</clipPath>
</defs>
</svg>
