<svg width="24" height="24" viewBox="0 0 24 24" fill="none" xmlns="http://www.w3.org/2000/svg">
<path d="M4.09931 6.36179C4.09931 4.49132 5.56414 2.96909 7.36444 2.96909H17.6109C17.3929 2.66797 17.1124 2.42398 16.791 2.25598C16.4697 2.08798 16.1161 2.00048 15.7577 2.00024L5.49737 2.00024C4.2133 2.00024 3.16699 3.08718 3.16699 4.42323V18.962C3.16699 19.7507 3.53666 20.4454 4.09931 20.8885V6.36179Z" fill="#F8043F"/>
<path d="M17.5768 4.2229H7.64551C7.04707 4.2238 6.47343 4.45838 6.05043 4.87516C5.62743 5.29195 5.38962 5.85691 5.38916 6.44611V19.7786C5.39008 20.3675 5.62809 20.932 6.05104 21.3484C6.47399 21.7648 7.04737 21.9992 7.64551 22.0001H17.5768C18.1749 21.9992 18.7483 21.7648 19.1712 21.3484C19.5942 20.932 19.8322 20.3675 19.8331 19.7786V6.44611C19.8326 5.85691 19.5948 5.29195 19.1718 4.87516C18.7488 4.45838 18.1752 4.2238 17.5768 4.2229ZM8.7512 7.73234C8.64414 7.78501 8.52023 7.7937 8.40667 7.75648C8.29312 7.71927 8.19921 7.6392 8.14558 7.53387L7.87219 6.99553L7.59879 7.53387C7.54126 7.63243 7.44763 7.70562 7.33707 7.73843C7.22652 7.77124 7.10741 7.76119 7.00413 7.71035C6.90085 7.65951 6.82122 7.57172 6.78155 7.46495C6.74187 7.35819 6.74516 7.24053 6.79073 7.13607L7.46815 5.803C7.62129 5.50146 8.12222 5.50146 8.27535 5.803L8.95191 7.13607C9.00542 7.24147 9.01424 7.36347 8.97644 7.47527C8.93864 7.58707 8.85818 7.67953 8.7512 7.73234ZM15.4156 13.5953L13.2492 15.7282C13.08 15.8948 12.8505 15.9884 12.6111 15.9884C12.3718 15.9884 12.1423 15.8948 11.9731 15.7282L9.8067 13.5953C9.62253 13.414 9.47644 13.1987 9.37676 12.9618C9.27709 12.7249 9.22579 12.471 9.22579 12.2145C9.22579 11.9581 9.27709 11.7042 9.37676 11.4673C9.47644 11.2303 9.62253 11.0151 9.8067 10.8338C9.99087 10.6524 10.2095 10.5086 10.4501 10.4105C10.6908 10.3123 10.9487 10.2618 11.2091 10.2618C11.4696 10.2618 11.7275 10.3123 11.9681 10.4105C12.2088 10.5086 12.4274 10.6524 12.6116 10.8338C12.7957 10.6525 13.0144 10.5087 13.255 10.4106C13.4956 10.3125 13.7535 10.2621 14.0139 10.2621C14.2743 10.2622 14.5321 10.3127 14.7727 10.4109C15.0133 10.509 15.2319 10.6529 15.416 10.8342C15.6001 11.0155 15.7462 11.2308 15.8458 11.4677C15.9454 11.7045 15.9966 11.9584 15.9966 12.2148C15.9966 12.4712 15.9452 12.7251 15.8455 12.962C15.7458 13.1988 15.5997 13.414 15.4156 13.5953ZM18.4315 19.0877L17.755 20.4217C17.7174 20.4954 17.6598 20.5573 17.5885 20.6006C17.5172 20.6439 17.4351 20.6668 17.3514 20.6668C17.2676 20.6668 17.1855 20.6439 17.1143 20.6006C17.043 20.5573 16.9854 20.4954 16.9478 20.4217L16.2704 19.0877C16.2425 19.0354 16.2255 18.978 16.2204 18.9191C16.2153 18.8602 16.2222 18.8009 16.2407 18.7446C16.2592 18.6884 16.2889 18.6363 16.328 18.5915C16.3672 18.5466 16.415 18.51 16.4688 18.4836C16.5225 18.4572 16.5811 18.4416 16.641 18.4377C16.7009 18.4339 16.761 18.4418 16.8178 18.4611C16.8746 18.4804 16.9269 18.5107 16.9716 18.5501C17.0164 18.5896 17.0527 18.6374 17.0784 18.6908L17.3518 19.2291L17.6252 18.6908C17.6818 18.5909 17.7754 18.5164 17.8864 18.4826C17.9974 18.4489 18.1174 18.4586 18.2213 18.5097C18.3253 18.5608 18.4052 18.6494 18.4445 18.7571C18.4838 18.8647 18.4786 18.9832 18.4315 19.0877Z" fill="#F8043F"/>
</svg>
