<svg width="26" height="26" viewBox="0 0 26 26" fill="none" xmlns="http://www.w3.org/2000/svg">
<path d="M10.6667 6.75H9.33333V3H6.66667V6.75H5.33333C4.97971 6.75 4.64057 6.8817 4.39052 7.11611C4.14048 7.35054 4 7.66848 4 8V16.75C4 17.0815 4.14048 17.3995 4.39052 17.6339C4.64057 17.8682 4.97971 18 5.33333 18H6.66667V23H9.33333V18H10.6667C11.0203 18 11.3594 17.8682 11.6095 17.6339C11.8595 17.3995 12 17.0815 12 16.75V8C12 7.66848 11.8595 7.35054 11.6095 7.11611C11.3594 6.8817 11.0203 6.75 10.6667 6.75Z" fill="white"/>
<path d="M20.6667 9.25H19.3333V3H16.6667V9.25H15.3333C14.9797 9.25 14.6406 9.3817 14.3905 9.61611C14.1405 9.85054 14 10.1685 14 10.5V19.25C14 19.5815 14.1405 19.8995 14.3905 20.1339C14.6406 20.3682 14.9797 20.5 15.3333 20.5H16.6667V23H19.3333V20.5H20.6667C21.0203 20.5 21.3595 20.3682 21.6095 20.1339C21.8595 19.8995 22 19.5815 22 19.25V10.5C22 10.1685 21.8595 9.85054 21.6095 9.61611C21.3595 9.3817 21.0203 9.25 20.6667 9.25Z" fill="#F8043F"/>
</svg>
