<svg width="24" height="24" viewBox="0 0 24 24" fill="none" xmlns="http://www.w3.org/2000/svg">
<path fill-rule="evenodd" clip-rule="evenodd" d="M15.385 14.6325L11.9165 16.5021C9.76315 17.6672 8 16.7188 8 14.3751V10.6225C8 8.29229 9.76315 7.33042 11.9165 8.4955L15.385 10.3651C17.5383 11.5572 17.5383 13.4539 15.385 14.6325Z" fill="#4D6472"/>
<path d="M6.97443 6.75624C6.90889 6.90988 6.81361 7.04882 6.69418 7.16498L6.69499 7.16583C3.77024 10.1116 3.77024 14.9051 6.69499 17.8509C6.92945 18.0871 7.06117 18.4073 7.06117 18.7412C7.06117 19.0751 6.92945 19.3953 6.69499 19.6315C6.45072 19.8774 6.13057 20 5.81039 20C5.49025 20 5.1701 19.8774 4.92581 19.6315C1.02473 15.7035 1.02473 9.31243 4.92581 5.38442C5.04117 5.26416 5.17918 5.16823 5.33176 5.10223C5.48432 5.03624 5.64842 5.0015 5.81449 5.00005C5.98056 4.99859 6.14524 5.03045 6.29891 5.09377C6.45262 5.15709 6.59227 5.25059 6.70966 5.36884C6.82709 5.48704 6.91996 5.62766 6.98283 5.78242C7.04573 5.93715 7.07736 6.10297 7.07594 6.27018C7.07448 6.4374 7.03997 6.60263 6.97443 6.75624Z" fill="#4D6472"/>
<path d="M18.6686 5.10223C18.8211 5.16823 18.9592 5.26416 19.0745 5.38442C22.9747 9.31158 22.9756 15.7026 19.0753 19.6306C18.9592 19.7476 18.8214 19.8404 18.6696 19.9037C18.5179 19.967 18.3553 19.9997 18.191 19.9997C18.0268 19.9997 17.8641 19.9672 17.7124 19.9039C17.5606 19.8407 17.4227 19.748 17.3066 19.6311C17.1904 19.5141 17.0982 19.3753 17.0353 19.2226C16.9724 19.0698 16.94 18.906 16.94 18.7406C16.94 18.5753 16.9723 18.4115 17.0351 18.2587C17.0979 18.1059 17.19 17.967 17.3061 17.8501C20.2309 14.9043 20.2309 10.1108 17.3061 7.16498C17.1867 7.04882 17.0914 6.90988 17.0259 6.75624C16.9603 6.60263 16.9258 6.4374 16.9244 6.27018C16.9229 6.10297 16.9546 5.93715 17.0175 5.78242C17.0803 5.62766 17.1732 5.48704 17.2906 5.36884C17.4081 5.25059 17.5477 5.15709 17.7014 5.09377C17.8551 5.03045 18.0197 4.99859 18.1858 5.00005C18.3519 5.0015 18.516 5.03624 18.6686 5.10223Z" fill="#4D6472"/>
</svg>
