<svg width="24" height="24" viewBox="0 0 24 24" fill="none" xmlns="http://www.w3.org/2000/svg">
<path d="M13 2H11C9.11438 2 8.17157 2 7.58579 2.58579C7 3.17157 7 4.11438 7 6V6.01775L9.84551 4.46616C11.1884 3.73393 12.8112 3.73394 14.1541 4.46616L17 6.01797V6C17 4.11438 17 3.17157 16.4142 2.58579C15.8284 2 14.8856 2 13 2Z" fill="#4D6472"/>
<path fill-rule="evenodd" clip-rule="evenodd" d="M10.5631 5.78311C11.4584 5.29495 12.5403 5.29495 13.4355 5.78311L18.2297 8.39728C19.1937 8.92292 19.7935 9.93319 19.7935 11.0312V15.9688C19.7935 17.0668 19.1937 18.0771 18.2297 18.6027L13.4355 21.2169C12.5403 21.705 11.4584 21.705 10.5631 21.2169L5.76888 18.6027C4.8049 18.0771 4.20508 17.0668 4.20508 15.9688V11.0312C4.20508 9.93319 4.8049 8.92292 5.76889 8.39728L10.5631 5.78311ZM11.1455 11.5225C11.5255 10.8408 11.7155 10.5 11.9995 10.5C12.2836 10.5 12.4736 10.8408 12.8536 11.5225L12.9519 11.6989C13.0599 11.8926 13.1138 11.9894 13.198 12.0533C13.2822 12.1172 13.3871 12.141 13.5967 12.1884L13.7877 12.2316C14.5256 12.3986 14.8945 12.482 14.9823 12.7643C15.0701 13.0466 14.8185 13.3407 14.3155 13.929L14.1853 14.0812C14.0424 14.2483 13.9709 14.3319 13.9388 14.4353C13.9066 14.5387 13.9174 14.6502 13.939 14.8732L13.9587 15.0763C14.0347 15.8612 14.0728 16.2536 13.843 16.4281C13.6132 16.6025 13.2677 16.4435 12.5768 16.1254L12.3981 16.0431C12.2017 15.9527 12.1036 15.9075 11.9995 15.9075C11.8955 15.9075 11.7973 15.9527 11.601 16.0431L11.4222 16.1254C10.7313 16.4435 10.3859 16.6025 10.1561 16.4281C9.92625 16.2536 9.96428 15.8612 10.0403 15.0763L10.06 14.8733C10.0816 14.6502 10.0924 14.5387 10.0603 14.4353C10.0281 14.3319 9.95664 14.2483 9.81369 14.0812L9.68354 13.929C9.18049 13.3407 8.92896 13.0466 9.01674 12.7643C9.10452 12.482 9.47347 12.3986 10.2114 12.2316L10.4023 12.1884C10.612 12.141 10.7168 12.1172 10.801 12.0533C10.8852 11.9894 10.9392 11.8926 11.0472 11.6989L11.1455 11.5225Z" fill="#4D6472"/>
</svg>
