<svg width="24" height="24" viewBox="0 0 24 24" fill="none" xmlns="http://www.w3.org/2000/svg">
<path d="M15.4907 1.99976H8.51053C8.27805 1.99971 8.09981 1.99966 7.94401 2.0149C6.83619 2.12327 5.92943 2.78934 5.54492 3.68653H18.4563C18.0718 2.78934 17.165 2.12327 16.0572 2.0149C15.9014 1.99966 15.7231 1.99971 15.4907 1.99976Z" fill="#4D6472"/>
<path d="M3.39976 6.67669C3.78029 5.56265 4.92055 4.7229 6.31118 4.7229H17.8623C19.2529 4.7229 20.3932 5.56265 20.7737 6.67669C20.7816 6.69991 20.7892 6.72325 20.7965 6.74671C20.3984 6.62614 19.984 6.54737 19.5645 6.4936C18.4841 6.35509 17.1188 6.35516 15.5328 6.35525H8.64068C7.05465 6.35516 5.68931 6.35509 4.60893 6.4936C4.18947 6.54737 3.7751 6.62614 3.37695 6.74671C3.38422 6.72326 3.39183 6.69991 3.39976 6.67669Z" fill="#4D6472"/>
<path fill-rule="evenodd" clip-rule="evenodd" d="M15.3276 7.54199H8.67239C5.29758 7.54199 3.61017 7.54199 2.66232 8.52882C1.71447 9.51565 1.93748 11.0402 2.38351 14.0895L2.80648 16.9811C3.15626 19.3723 3.33115 20.5679 4.22834 21.2839C5.12553 21.9999 6.4488 21.9999 9.09534 21.9999H14.9046C17.5512 21.9999 18.8745 21.9999 19.7717 21.2839C20.6689 20.5679 20.8437 19.3723 21.1935 16.9811L21.6165 14.0895C22.0625 11.0403 22.2855 9.51564 21.3377 8.52882C20.3898 7.54199 18.7024 7.54199 15.3276 7.54199ZM10 12.9098V17.0901C10 17.7828 10.6669 18.2208 11.2096 17.8843L14.5812 15.7942C14.819 15.6468 14.9555 15.3996 14.9908 15.1377C14.9969 15.0921 15 15.046 15 14.9999C15 14.6894 14.8604 14.3788 14.5812 14.2057L11.2096 12.1156C10.7063 11.8036 10.0962 12.1575 10.0102 12.7632C10.0035 12.8106 10 12.8596 10 12.9098Z" fill="#4D6472"/>
</svg>
