<svg width="18" height="17" viewBox="0 0 18 17" fill="none" xmlns="http://www.w3.org/2000/svg">
<path d="M7.24247 1.71574C7.07672 1.34343 7.2538 0.933272 7.66737 0.731616C7.79104 0.671327 7.95135 0.625 8.03643 0.625C8.25927 0.625 8.57599 0.789081 8.72009 0.979184C8.86544 1.171 9.03913 1.56696 9.10398 1.85442C9.12942 1.96728 9.17467 2.10454 9.2045 2.15944C9.30286 2.34032 9.40582 2.35333 10.6132 2.33737C11.0634 2.33143 12.0918 2.3138 12.5262 2.26412C12.9528 2.21536 13.3789 2.16663 13.8188 2.15944C14.8842 2.14204 15.8437 2.31143 16.6563 3.04643C17.1415 3.48527 17.2707 3.65303 17.5221 4.17144C17.694 4.52567 17.7501 4.70306 17.8711 5.27458C18.0366 6.05678 18.0416 6.34321 17.8926 6.48319C17.8164 6.55468 17.7474 6.56995 17.4469 6.58197C16.5572 6.61743 15.379 6.36773 14.5125 5.96006C13.4056 5.43927 12.7078 4.76859 12.161 3.70015C12.0205 3.4257 11.8929 3.16319 11.8773 3.11679C11.8045 2.89956 11.1266 2.92763 10.6373 2.92763C10.0291 2.92763 9.91156 3.04897 10.1983 3.38944C10.8673 4.18399 11.5923 5.31911 11.8773 6.01855C11.9675 6.23987 12.0863 6.53047 12.1415 6.6644C12.2551 6.94055 12.3033 7.37831 12.3023 7.55279C12.302 7.61622 12.2883 7.68707 12.2718 7.71023C12.1663 7.85858 11.716 7.88896 11.4953 7.76264C11.3382 7.67281 11.1838 7.38811 11.1208 7.07236C11.008 6.50651 10.5252 5.56013 10.1689 5.12017C10.0049 4.91772 9.84854 4.85769 9.75642 4.96186C9.72924 4.99267 9.66202 5.22113 9.60715 5.46958C9.50769 5.91962 9.46586 6.01696 8.84808 7.23532C8.69604 7.5351 8.2069 8.15053 7.89897 8.42938C7.63553 8.66795 7.53905 8.81386 7.57801 8.91475C7.6071 8.99014 7.67264 9.05398 7.73844 9.11809C7.80125 9.17927 7.8643 9.24071 7.89616 9.31267C7.44683 9.96989 7.17652 10.7816 7.07434 11.6247C6.97543 12.4409 7.02749 13.3202 7.24037 14.1825C7.07022 14.344 6.57378 14.6853 6.34223 14.7937C5.48758 15.1942 4.81326 15.3103 3.92281 15.2102C1.30579 14.9155 -0.802146 11.717 0.298536 9.4448C0.769053 8.47338 1.60936 7.63977 2.55243 7.20899C3.74254 6.66534 5.05231 6.83325 5.98924 7.75591C6.20051 7.96396 6.40468 8.13037 6.46648 8.14495C6.60621 8.17785 6.77733 8.07062 7.19346 7.68938C8.35868 6.62191 9.02435 4.78082 8.67117 3.2475C8.61488 3.00324 8.54852 2.77282 8.52365 2.73548C8.49884 2.69809 8.29645 2.56622 8.07401 2.44239C7.64862 2.20555 7.34078 1.93656 7.24247 1.71574Z" fill="white"/>
<path d="M9.18334 15.3697C9.67297 15.795 10.0156 15.9595 10.905 16.1961C12.2265 16.5475 13.7816 16.39 14.9277 15.6376C15.6903 15.1369 16.3109 14.2559 16.4944 13.4136C16.7128 12.4118 16.696 11.4984 16.2855 10.5433C15.749 9.29462 14.2927 8.47048 12.8892 8.8494C12.7435 8.88872 12.5139 8.9509 12.379 8.98751C12.1358 9.05353 12.13 9.05326 11.657 8.95204C9.55708 8.5026 8.27086 9.77369 8.03377 11.7301C7.86323 13.1372 8.06492 14.3977 9.18334 15.3697Z" fill="white"/>
</svg>
