<svg width="24" height="24" viewBox="0 0 24 24" fill="none" xmlns="http://www.w3.org/2000/svg">
<path fill-rule="evenodd" clip-rule="evenodd" d="M14.0079 19.0029L14.0137 17C14.0137 16.4477 14.4625 16 15.0162 16V14C14.4625 14 14.0137 13.5523 14.0137 13V11C14.0137 10.4477 14.4625 10 15.0162 10V8C14.4625 8 14.0137 7.55228 14.0137 7L14.0064 4.49855C14.0056 4.22297 13.7814 4 13.5052 4H9.99502C6.21439 4 4.32407 4 3.14958 5.17157C2.34091 5.97823 2.08903 7.12339 2.01058 8.98947C1.99502 9.35954 1.98724 9.54457 2.05634 9.66802C2.12545 9.79147 2.40133 9.94553 2.95308 10.2536C3.56586 10.5958 3.98007 11.2497 3.98007 12C3.98007 12.7503 3.56586 13.4041 2.95308 13.7463C2.40133 14.0544 2.12545 14.2085 2.05634 14.332C1.98724 14.4554 1.99502 14.6404 2.01058 15.0105C2.08903 16.8766 2.34091 18.0217 3.14958 18.8284C4.32407 20 6.21438 20 9.99502 20H13.0054C13.4767 20 13.7124 20 13.8591 19.854C14.0058 19.7081 14.0065 19.473 14.0079 19.0029ZM7.68053 8.65389C6.76312 8.92752 6 9.6515 6 10.6666C6 11.9752 7.268 12.8 8.5 12.8C9.10895 12.8 9.33333 13.1691 9.33333 13.3333C9.33333 13.4975 9.10895 13.8666 8.5 13.8666C8.11463 13.8666 7.84455 13.6951 7.73397 13.534C7.48071 13.1651 6.96387 13.0631 6.57959 13.3063C6.1953 13.5494 6.08909 14.0456 6.34235 14.4145C6.65168 14.865 7.13155 15.1884 7.68128 15.3499C7.75438 15.7201 8.09314 16 8.5 16C8.90826 16 9.24794 15.7181 9.31947 15.3461C10.2369 15.0725 11 14.3485 11 13.3333C11 12.0247 9.732 11.2 8.5 11.2C7.89105 11.2 7.66667 10.8308 7.66667 10.6666C7.66667 10.5025 7.89105 10.1333 8.5 10.1333C8.81333 10.1333 9.05839 10.2488 9.19606 10.3835C9.51842 10.6988 10.046 10.7036 10.3745 10.3942C10.703 10.0847 10.708 9.57821 10.3856 9.26286C10.096 8.97955 9.7276 8.76994 9.31868 8.64983C9.24547 8.27978 8.90677 8 8.5 8C8.09174 8 7.75206 8.28183 7.68053 8.65389Z" fill="#4D6472"/>
<path d="M15.0161 15.9998C15.5697 15.9998 16.018 16.4473 16.018 16.9996V18.9761C16.018 19.4576 16.018 19.6984 16.1724 19.846C16.3268 19.9937 16.5631 19.9836 17.0355 19.9636C18.8985 19.8848 20.043 19.6328 20.8498 18.828C21.6584 18.0214 21.9103 16.8762 21.9888 15.0101C22.0043 14.6401 22.0121 14.455 21.943 14.3316C21.8739 14.2081 21.598 14.0541 21.0463 13.7459C20.4335 13.4037 20.0193 12.7499 20.0193 11.9996C20.0193 11.2493 20.4335 10.5955 21.0463 10.2533C21.598 9.94511 21.8739 9.79105 21.943 9.6676C22.0121 9.54415 22.0043 9.35912 21.9888 8.98905C21.9103 7.12297 21.6584 5.97781 20.8498 5.17115C19.972 4.29562 18.6946 4.07438 16.5271 4.01848C16.2475 4.01127 16.018 4.23676 16.018 4.51576V6.99958C16.018 7.55186 15.5697 7.99976 15.0161 7.99976V9.99976C15.5697 9.99976 16.018 10.4473 16.018 10.9996V12.9996C16.018 13.5519 15.5697 13.9998 15.0161 13.9998V15.9998Z" fill="#4D6472"/>
</svg>
