<svg width="24" height="24" viewBox="0 0 24 24" fill="none" xmlns="http://www.w3.org/2000/svg">
<path fill-rule="evenodd" clip-rule="evenodd" d="M21.8173 11.9335C21.4592 12.2208 21.0515 12.4985 20.5932 12.7629C18.4536 13.9972 15.4183 14.799 12.0004 14.799C8.58264 14.799 5.54726 13.9972 3.40772 12.7629C2.94941 12.4985 2.54167 12.2208 2.18359 11.9335C2.66652 7.81357 4.06524 5.81472 5.90959 5.16059C6.29053 5.02549 6.69882 5 7.10301 5H7.71548C8.59308 5 9.44906 5.27225 10.1654 5.77922L10.6673 6.13442C11.0571 6.41029 11.5229 6.55844 12.0005 6.55844C12.478 6.55844 12.9438 6.41029 13.3336 6.13441L13.8355 5.77922C14.5518 5.27225 15.4078 5 16.2854 5H16.8979C17.3021 5 17.7104 5.02549 18.0913 5.16059C19.9356 5.81472 21.3344 7.81357 21.8173 11.9335ZM16.75 7.99902C17.1642 7.99902 17.5 8.33481 17.5 8.74902C17.5 9.16324 17.1642 9.49902 16.75 9.49902C16.3358 9.49902 16 9.16324 16 8.74902C16 8.33481 16.3358 7.99902 16.75 7.99902ZM7.5 8.24902C7.91421 8.24902 8.25 8.58481 8.25 8.99902V9.74902H9C9.41421 9.74902 9.75 10.0848 9.75 10.499C9.75 10.9132 9.41421 11.249 9 11.249H8.25V11.999C8.25 12.4132 7.91421 12.749 7.5 12.749C7.08579 12.749 6.75 12.4132 6.75 11.999V11.249H6C5.58579 11.249 5.25 10.9132 5.25 10.499C5.25 10.0848 5.58579 9.74902 6 9.74902H6.75V8.99902C6.75 8.58481 7.08579 8.24902 7.5 8.24902ZM19 10.249C19 10.6632 18.6642 10.999 18.25 10.999C17.8358 10.999 17.5 10.6632 17.5 10.249C17.5 9.83481 17.8358 9.49902 18.25 9.49902C18.6642 9.49902 19 9.83481 19 10.249ZM15.25 10.999C15.6642 10.999 16 10.6632 16 10.249C16 9.83481 15.6642 9.49902 15.25 9.49902C14.8358 9.49902 14.5 9.83481 14.5 10.249C14.5 10.6632 14.8358 10.999 15.25 10.999ZM17.5 11.749C17.5 11.3348 17.1642 10.999 16.75 10.999C16.3358 10.999 16 11.3348 16 11.749C16 12.1632 16.3358 12.499 16.75 12.499C17.1642 12.499 17.5 12.1632 17.5 11.749Z" fill="#4D6472"/>
<path d="M2.00604 16.1027C1.98909 15.101 2.00806 14.1794 2.05997 13.333C4.44465 14.9635 8.01269 15.9991 12 15.9991C15.9873 15.9991 19.5554 14.9635 21.94 13.333C21.9919 14.1794 22.0109 15.101 21.994 16.1027C21.9701 17.5146 21.6397 19.0751 20.3658 19.6843C19.9688 19.8742 19.5033 20.0001 18.9733 20.0001C18.3373 20.0001 17.8322 19.8188 17.4424 19.5633C17.0336 19.2953 16.6737 18.9471 16.3139 18.599C15.8693 18.1689 15.4249 17.739 14.8888 17.461C14.3048 17.1581 13.6566 17.0001 12.9989 17.0001H11.0011C10.3434 17.0001 9.69519 17.1581 9.11125 17.461C8.57511 17.739 8.13071 18.1689 7.68612 18.5991C7.32633 18.9471 6.96641 19.2953 6.55763 19.5633C6.1678 19.8188 5.66273 20.0001 5.02671 20.0001C4.49667 20.0001 4.03121 19.8742 3.63423 19.6843C2.3603 19.0751 2.02992 17.5146 2.00604 16.1027Z" fill="#4D6472"/>
</svg>
