<svg width="24" height="24" viewBox="0 0 24 24" fill="none" xmlns="http://www.w3.org/2000/svg">
<path fill-rule="evenodd" clip-rule="evenodd" d="M4 6C2.89543 6 2 6.89543 2 8V20C2 21.1046 2.89543 22 4 22H16C17.1046 22 18 21.1046 18 20V8C18 6.89543 17.1046 6 16 6H4ZM5.5 10.9992C6.32843 10.9992 7 10.3276 7 9.49918C7 8.67075 6.32843 7.99918 5.5 7.99918C4.67157 7.99918 4 8.67075 4 9.49918C4 10.3276 4.67157 10.9992 5.5 10.9992ZM10 15.5C10.8284 15.5 11.5 14.8284 11.5 14C11.5 13.1716 10.8284 12.5 10 12.5C9.17157 12.5 8.5 13.1716 8.5 14C8.5 14.8284 9.17157 15.5 10 15.5ZM16 9.49918C16 10.3276 15.3284 10.9992 14.5 10.9992C13.6716 10.9992 13 10.3276 13 9.49918C13 8.67075 13.6716 7.99918 14.5 7.99918C15.3284 7.99918 16 8.67075 16 9.49918ZM14.5 19.9992C15.3284 19.9992 16 19.3276 16 18.4992C16 17.6707 15.3284 16.9992 14.5 16.9992C13.6716 16.9992 13 17.6707 13 18.4992C13 19.3276 13.6716 19.9992 14.5 19.9992ZM7 18.4992C7 19.3276 6.32843 19.9992 5.5 19.9992C4.67157 19.9992 4 19.3276 4 18.4992C4 17.6707 4.67157 16.9992 5.5 16.9992C6.32843 16.9992 7 17.6707 7 18.4992Z" fill="#4D6472"/>
<path fill-rule="evenodd" clip-rule="evenodd" d="M8.40626 2.28926C8.69215 1.22232 9.78882 0.589158 10.8558 0.875041L21.8666 3.82538C22.9335 4.11126 23.5667 5.20794 23.2808 6.27487L20.3304 17.2857C20.1469 17.9706 19.6293 18.4767 19 18.6758V14.0437C19.0003 14.0292 19.0005 14.0145 19.0005 13.9999C19.0005 13.9852 19.0003 13.9706 19 13.9561V7.99906C19 6.3422 17.6569 4.99906 16 4.99906H13.7324C13.3865 4.40171 12.7404 3.99988 12.0005 3.99988C11.2605 3.99988 10.6144 4.40171 10.2685 4.99906H7.68018L8.40626 2.28926Z" fill="#4D6472"/>
</svg>
