<svg width="24" height="24" viewBox="0 0 24 24" fill="none" xmlns="http://www.w3.org/2000/svg">
<path d="M5.56445 3.69354C7.26857 2.1776 9.46578 1.14179 11.8857 1V3.53313C10.143 3.6668 8.55683 4.35804 7.30389 5.43297L5.56445 3.69354Z" fill="#4D6472"/>
<path d="M13.1152 3.53313V1C15.5352 1.14179 17.7324 2.1776 19.4365 3.69354L17.6971 5.43297C16.4441 4.35804 14.8579 3.6668 13.1152 3.53313Z" fill="#4D6472"/>
<path d="M4.53313 10.8847C4.6668 9.14206 5.35804 7.55586 6.43297 6.30291L4.69354 4.56348C3.1776 6.2676 2.14179 8.46481 2 10.8847H4.53313Z" fill="#4D6472"/>
<path d="M13.1152 19.4672C14.8579 19.3336 16.4441 18.6423 17.6971 17.5674L19.4365 19.3068C17.7324 20.8228 15.5352 21.8586 13.1152 22.0004V19.4672Z" fill="#4D6472"/>
<path d="M18.5664 16.6971L20.3058 18.4365C21.8218 16.7324 22.8576 14.5352 22.9994 12.1152H20.4663C20.3326 13.8579 19.6413 15.4441 18.5664 16.6971Z" fill="#4D6472"/>
<path d="M20.4663 10.8847C20.3326 9.14206 19.6413 7.55582 18.5664 6.30291L20.3058 4.56348C21.8218 6.2676 22.8576 8.46481 22.9994 10.8847H20.4663Z" fill="#4D6472"/>
<path d="M6.43297 16.6971C5.35804 15.4441 4.6668 13.8579 4.53313 12.1152H2C2.14179 14.5352 3.1776 16.7324 4.69354 18.4365L6.43297 16.6971Z" fill="#4D6472"/>
<path d="M11.8838 22.0004C9.46383 21.8586 7.26662 20.8228 5.5625 19.3068L7.30193 17.5674C8.55488 18.6423 10.1411 19.3336 11.8838 19.4672V22.0004Z" fill="#4D6472"/>
<path fill-rule="evenodd" clip-rule="evenodd" d="M5.73242 11.4998C5.73242 7.76812 8.76836 4.73218 12.5 4.73218C16.2317 4.73218 19.2676 7.76812 19.2676 11.4998C19.2676 15.2314 16.2317 18.2674 12.5 18.2674C8.76836 18.2674 5.73242 15.2314 5.73242 11.4998ZM12.702 7.13731C12.6551 6.97614 12.3985 6.95684 12.3 7.07817C12.2859 7.0955 12.2751 7.1157 12.2685 7.13877C12.0296 7.98153 11.5845 9.22784 10.9032 9.91371C10.2219 10.5996 8.97867 11.0531 8.13755 11.2978C7.97638 11.3446 7.95708 11.6013 8.07841 11.6998C8.09574 11.7138 8.11595 11.7247 8.13902 11.7312C8.98177 11.9701 10.2281 12.4153 10.914 13.0966C11.5998 13.7778 12.0534 15.0211 12.298 15.8622C12.3516 16.0464 12.6792 16.0453 12.7315 15.8607C12.9704 15.018 13.4155 13.7717 14.0968 13.0858C14.7781 12.3999 16.0213 11.9464 16.8624 11.7018C17.0466 11.6482 17.0455 11.3206 16.861 11.2683C16.0182 11.0294 14.7719 10.5842 14.086 9.90296C13.4002 9.2217 12.9466 7.97843 12.702 7.13731Z" fill="#4D6472"/>
</svg>
