<svg viewBox="0 0 16 16" fill="none" xmlns="http://www.w3.org/2000/svg">
<path d="M12.8464 3.55366C11.9598 3.14033 10.9998 2.84033 9.99975 2.66699C9.98217 2.66724 9.96539 2.67443 9.95309 2.68699C9.83309 2.90699 9.69309 3.19366 9.59975 3.41366C8.53908 3.25376 7.46043 3.25376 6.39975 3.41366C6.30642 3.18699 6.16642 2.90699 6.03975 2.68699C6.03309 2.67366 6.01309 2.66699 5.99309 2.66699C4.99309 2.84033 4.03975 3.14033 3.14642 3.55366C3.13975 3.55366 3.13309 3.56033 3.12642 3.56699C1.31309 6.28033 0.813086 8.92033 1.05975 11.5337C1.05975 11.547 1.06642 11.5603 1.07975 11.567C2.27975 12.447 3.43309 12.9803 4.57309 13.3337C4.59309 13.3403 4.61309 13.3337 4.61975 13.3203C4.88642 12.9537 5.12642 12.567 5.33309 12.1603C5.34642 12.1337 5.33309 12.107 5.30642 12.1003C4.92642 11.9537 4.56642 11.7803 4.21309 11.5803C4.18642 11.567 4.18642 11.527 4.20642 11.507C4.27975 11.4537 4.35309 11.3937 4.42642 11.3403C4.43975 11.327 4.45975 11.327 4.47309 11.3337C6.76642 12.3803 9.23975 12.3803 11.5064 11.3337C11.5198 11.327 11.5398 11.327 11.5531 11.3403C11.6264 11.4003 11.6998 11.4537 11.7731 11.5137C11.7998 11.5337 11.7998 11.5737 11.7664 11.587C11.4198 11.7937 11.0531 11.9603 10.6731 12.107C10.6464 12.1137 10.6398 12.147 10.6464 12.167C10.8598 12.5737 11.0998 12.9603 11.3598 13.327C11.3798 13.3337 11.3998 13.3403 11.4198 13.3337C12.5664 12.9803 13.7198 12.447 14.9198 11.567C14.9331 11.5603 14.9398 11.547 14.9398 11.5337C15.2331 8.51366 14.4531 5.89366 12.8731 3.56699C12.8664 3.56033 12.8598 3.55366 12.8464 3.55366ZM5.67975 9.94033C4.99309 9.94033 4.41975 9.30699 4.41975 8.52699C4.41975 7.74699 4.97975 7.11366 5.67975 7.11366C6.38642 7.11366 6.94642 7.75366 6.93975 8.52699C6.93975 9.30699 6.37975 9.94033 5.67975 9.94033ZM10.3264 9.94033C9.63975 9.94033 9.06642 9.30699 9.06642 8.52699C9.06642 7.74699 9.62642 7.11366 10.3264 7.11366C11.0331 7.11366 11.5931 7.75366 11.5864 8.52699C11.5864 9.30699 11.0331 9.94033 10.3264 9.94033Z" fill="#5865F2" />
</svg>

