<svg width="9" height="15" viewBox="0 0 9 15" fill="none" xmlns="http://www.w3.org/2000/svg">
<path d="M2.98573 13.7408V8.80312H1.09571C1.04711 8.80312 0.998977 8.79355 0.954077 8.77495C0.90917 8.75634 0.868371 8.72912 0.834 8.6947C0.799629 8.66035 0.772366 8.61955 0.753766 8.57468C0.735165 8.52974 0.725586 8.48161 0.725586 8.433V6.47999C0.725586 6.38182 0.764586 6.28766 0.834 6.21828C0.903414 6.14886 0.997551 6.10987 1.09571 6.10987H2.97786V4.21985C2.93295 3.77152 2.98673 3.31878 3.13542 2.89344C3.28415 2.46811 3.52413 2.08048 3.83857 1.75777C4.15302 1.43506 4.53427 1.1851 4.95564 1.02544C5.37701 0.865778 5.82818 0.800288 6.27752 0.833566H7.85255C7.95146 0.833545 8.04643 0.872288 8.1171 0.941484C8.18777 1.01067 8.2285 1.10481 8.23054 1.20369V2.85746C8.2285 2.95634 8.18777 3.05048 8.1171 3.11967C8.04643 3.18887 7.95146 3.22761 7.85255 3.22759H6.86813C5.80503 3.22759 5.60029 3.73159 5.60029 4.47185V6.10987H8.12817C8.18064 6.10827 8.23285 6.1181 8.28111 6.13869C8.32945 6.15926 8.37269 6.1901 8.40793 6.22905C8.44309 6.26798 8.46943 6.31414 8.48504 6.36424C8.50066 6.41441 8.50514 6.46729 8.49828 6.51936L8.26991 8.48025C8.25837 8.57 8.21431 8.65248 8.14616 8.71195C8.07793 8.77142 7.99029 8.80386 7.8998 8.80312H5.61604V13.7408C5.61706 13.828 5.6007 13.9145 5.56784 13.9952C5.53491 14.076 5.48624 14.1493 5.4246 14.2109C5.36296 14.2726 5.28964 14.3212 5.20892 14.3541C5.12814 14.387 5.04165 14.4034 4.95449 14.4023H3.6394C3.55284 14.4023 3.46724 14.3852 3.3874 14.3518C3.30757 14.3185 3.23518 14.2697 3.17438 14.2081C3.11358 14.1466 3.0656 14.0736 3.03321 13.9934C3.00083 13.9132 2.9847 13.8273 2.98573 13.7408Z" fill="#DBDBDB"/>
</svg>
