<svg width="9" height="15" viewBox="0 0 9 15" fill="none" xmlns="http://www.w3.org/2000/svg">
<path d="M2.98598 13.7399V8.8022H1.09596C1.04735 8.8022 0.999221 8.79263 0.954321 8.77403C0.909415 8.75543 0.868615 8.72821 0.834244 8.69379C0.799873 8.65944 0.772611 8.61864 0.75401 8.57377C0.735409 8.52882 0.72583 8.48069 0.72583 8.43209V6.47907C0.72583 6.38091 0.764831 6.28675 0.834244 6.21736C0.903658 6.14795 0.997796 6.10895 1.09596 6.10895H2.9781V4.21894C2.9332 3.7706 2.98698 3.31787 3.13567 2.89253C3.28439 2.46719 3.52437 2.07956 3.83882 1.75685C4.15327 1.43414 4.53452 1.18419 4.95589 1.02452C5.37725 0.864862 5.82843 0.799372 6.27776 0.83265H7.85279C7.9517 0.83263 8.04668 0.871372 8.11734 0.940569C8.18801 1.00976 8.22875 1.1039 8.23078 1.20278V2.85655C8.22875 2.95542 8.18801 3.04956 8.11734 3.11876C8.04668 3.18795 7.9517 3.2267 7.85279 3.22668H6.86838C5.80528 3.22668 5.60053 3.73068 5.60053 4.47094V6.10895H8.12841C8.18089 6.10736 8.23309 6.11719 8.28136 6.13777C8.32969 6.15835 8.37294 6.18918 8.40817 6.22814C8.44333 6.26706 8.46967 6.31322 8.48529 6.36332C8.5009 6.41349 8.50538 6.46638 8.49853 6.51844L8.27016 8.47934C8.25862 8.56908 8.21456 8.65156 8.1464 8.71103C8.07818 8.7705 7.99053 8.80295 7.90004 8.8022H5.61628V13.7399C5.6173 13.8271 5.60094 13.9136 5.56808 13.9943C5.53516 14.0751 5.48648 14.1484 5.42484 14.21C5.3632 14.2717 5.28989 14.3203 5.20917 14.3532C5.12838 14.386 5.0419 14.4025 4.95473 14.4014H3.63964C3.55309 14.4014 3.46748 14.3843 3.38765 14.3509C3.30781 14.3175 3.23542 14.2687 3.17462 14.2072C3.11382 14.1457 3.06584 14.0727 3.03346 13.9924C3.00108 13.9123 2.98494 13.8264 2.98598 13.7399Z" fill="#F8043F"/>
</svg>
