<svg viewBox="0 0 25 24" fill="none" xmlns="http://www.w3.org/2000/svg">
<g clip-path="url(#clip0_0_4334)">
<path d="M12.4633 9.81799V14.4653H18.9214C18.6378 15.9598 17.7868 17.2253 16.5105 18.0762L20.405 21.0981C22.6741 19.0036 23.9832 15.9272 23.9832 12.2727C23.9832 11.4218 23.9068 10.6035 23.765 9.81812L12.4633 9.81799Z" fill="#4285F4"/>
<path d="M5.73799 14.2839L4.85963 14.9563L1.75049 17.3781C3.72503 21.2944 7.772 23.9999 12.4629 23.9999C15.7028 23.9999 18.4191 22.9308 20.4046 21.0981L16.5101 18.0763C15.441 18.7963 14.0774 19.2327 12.4629 19.2327C9.34289 19.2327 6.69206 17.1273 5.7429 14.2909L5.73799 14.2839Z" fill="#34A853"/>
<path d="M1.75056 6.62183C0.932421 8.23631 0.463379 10.0581 0.463379 11.9999C0.463379 13.9417 0.932421 15.7636 1.75056 17.378C1.75056 17.3889 5.74335 14.2799 5.74335 14.2799C5.50336 13.5599 5.3615 12.7963 5.3615 11.9998C5.3615 11.2033 5.50336 10.4398 5.74335 9.71976L1.75056 6.62183Z" fill="#FBBC05"/>
<path d="M12.4631 4.77818C14.2304 4.77818 15.8013 5.38907 17.0558 6.56727L20.4922 3.13095C18.4085 1.18917 15.7032 0 12.4631 0C7.77225 0 3.72503 2.69454 1.75049 6.62183L5.74316 9.72001C6.69219 6.88362 9.34314 4.77818 12.4631 4.77818Z" fill="#EA4335"/>
</g>
<defs>
<clipPath id="clip0_0_4334">
<rect width="24" height="24" fill="white" transform="translate(0.463379)"/>
</clipPath>
</defs>
</svg>
