<svg viewBox="0 0 36 36" fill="none" xmlns="http://www.w3.org/2000/svg">
<rect width="36" height="36" rx="8" fill="#EB4132"/>
<rect x="0.7" y="0.7" width="34.6" height="34.6" rx="7.3" stroke="white" stroke-opacity="0.18" stroke-width="1.4"/>
<path d="M10.5527 14.2584C11.2463 12.878 12.31 11.7176 13.625 10.9067C14.94 10.0959 16.4545 9.66658 17.9994 9.66669C20.2452 9.66669 22.1319 10.4925 23.5744 11.8375L21.1852 14.2275C20.321 13.4017 19.2227 12.9809 17.9994 12.9809C15.8285 12.9809 13.991 14.4475 13.3369 16.4167C13.1702 16.9167 13.0752 17.45 13.0752 18C13.0752 18.55 13.1702 19.0834 13.3369 19.5834C13.9919 21.5534 15.8285 23.0192 17.9994 23.0192C19.1202 23.0192 20.0744 22.7234 20.821 22.2234C21.2539 21.9384 21.6245 21.5685 21.9104 21.1363C22.1962 20.704 22.3915 20.2182 22.4844 19.7084H17.9994V16.485H25.8477C25.946 17.03 25.9993 17.5984 25.9993 18.1892C25.9993 20.7275 25.091 22.8642 23.5143 24.3142C22.136 25.5875 20.2494 26.3334 17.9994 26.3334C16.9049 26.3338 15.821 26.1185 14.8098 25.6999C13.7986 25.2813 12.8797 24.6675 12.1058 23.8936C11.3319 23.1196 10.7181 22.2008 10.2995 21.1896C9.88083 20.1783 9.66558 19.0945 9.66602 18C9.66602 16.655 9.98768 15.3834 10.5527 14.2584Z" fill="#F7F7FF"/>
</svg>
