<svg width="14" height="14" viewBox="0 0 14 14" fill="none" xmlns="http://www.w3.org/2000/svg">
<path d="M10.3781 -0.00515747H3.75916C2.88144 -0.00515747 2.03966 0.343513 1.41902 0.964155C0.798377 1.5848 0.449707 2.42657 0.449707 3.30429V9.9232C0.449707 10.8009 0.798377 11.6427 1.41902 12.2633C2.03966 12.884 2.88144 13.2326 3.75916 13.2326H10.3781C11.2558 13.2326 12.0975 12.884 12.7182 12.2633C13.3388 11.6427 13.6875 10.8009 13.6875 9.9232V3.30429C13.6875 2.42657 13.3388 1.5848 12.7182 0.964155C12.0975 0.343513 11.2558 -0.00515747 10.3781 -0.00515747ZM11.7813 8.69208C11.7875 9.03925 11.7221 9.38398 11.5894 9.70481C11.3208 10.348 10.8094 10.8593 10.1663 11.1278C9.84542 11.2607 9.5007 11.326 9.15353 11.3198H5.08294C4.73582 11.3255 4.39121 11.2601 4.07025 11.1278C3.7521 10.994 3.46233 10.8008 3.21641 10.5586C2.9728 10.3138 2.77942 10.0238 2.64718 9.70481C2.50753 9.3854 2.43543 9.04061 2.43538 8.69208V4.58836C2.42971 4.24125 2.49503 3.89663 2.62733 3.57567C2.88988 2.92998 3.39646 2.41388 4.03715 2.13937C4.37012 2.00985 4.72586 1.94905 5.08294 1.96066H9.18666C9.5307 1.95762 9.8719 2.02339 10.1902 2.1541C10.5084 2.28483 10.7973 2.47785 11.04 2.72183C11.2822 2.96775 11.4753 3.25752 11.6092 3.57567C11.7415 3.89663 11.8068 4.24125 11.8012 4.58836L11.7813 8.69208Z" fill="#DBDBDB"/>
</svg>
