<svg width="18" height="17" viewBox="0 0 18 17" fill="none" xmlns="http://www.w3.org/2000/svg">
<path d="M10.3068 8.77264C10.2958 9.01011 10.2178 9.23963 10.0818 9.43453C9.94505 9.63595 9.74812 9.7889 9.51914 9.87138C9.29253 9.96377 9.04305 9.98454 8.80429 9.93098C8.56432 9.87966 8.34518 9.75746 8.17553 9.58015C8.00745 9.39516 7.897 9.16509 7.85783 8.91826C7.8135 8.67896 7.8435 8.43178 7.94384 8.21007C8.04166 7.98754 8.20282 7.79881 8.40716 7.66732C8.61591 7.53793 8.85657 7.46916 9.10218 7.46875C9.42586 7.48647 9.73087 7.62597 9.95598 7.85923C10.0725 7.98034 10.1636 8.12351 10.2239 8.2804C10.2841 8.43728 10.3123 8.60469 10.3068 8.77264Z" fill="#F8043F"/>
<path d="M12.6432 5.89995C12.566 5.70917 12.4512 5.53585 12.3056 5.3903C12.1601 5.24476 11.9868 5.12996 11.796 5.05273C11.6039 4.97765 11.4 4.93731 11.1937 4.93359H7.01055C6.5968 4.93534 6.2005 5.10047 5.90793 5.39303C5.61536 5.6856 5.45022 6.08191 5.44849 6.49565V10.7582C5.44878 10.964 5.48988 11.1676 5.56941 11.3573C5.64893 11.5471 5.76532 11.7192 5.91181 11.8636C6.20426 12.1536 6.59868 12.3176 7.01055 12.3203H11.1937C11.6056 12.3176 11.9999 12.1536 12.2924 11.8636C12.4389 11.7192 12.5553 11.5471 12.6348 11.3573C12.7144 11.1676 12.7554 10.964 12.7557 10.7582V6.50227C12.7543 6.29642 12.7162 6.09246 12.6432 5.89995ZM10.9885 9.59329C10.8889 9.84108 10.7403 10.0662 10.5517 10.2552C10.3611 10.447 10.1367 10.6018 9.88977 10.7119C9.64015 10.8167 9.37282 10.8729 9.10209 10.8774C8.79205 10.8835 8.48453 10.8205 8.20178 10.6931C7.91903 10.5657 7.66819 10.377 7.46736 10.1407C7.26653 9.90435 7.12076 9.62635 7.04061 9.32677C6.96046 9.02719 6.94793 8.71356 7.00393 8.40854C7.08549 8.00286 7.28059 7.62874 7.56653 7.32963C7.85841 7.03707 8.22975 6.8366 8.63449 6.75307C9.03922 6.66952 9.45958 6.7066 9.8434 6.85969C10.2287 7.0153 10.5569 7.28564 10.7833 7.6341C11.0123 7.97 11.1366 8.36612 11.1407 8.77255C11.1504 9.05394 11.0984 9.33411 10.9885 9.59329ZM11.7166 6.32356C11.7237 6.37685 11.7193 6.43103 11.7038 6.4825C11.6882 6.53396 11.6619 6.5815 11.6265 6.62195C11.5911 6.66239 11.5474 6.69481 11.4985 6.71701C11.4495 6.73922 11.3964 6.7507 11.3426 6.7507C11.2888 6.7507 11.2357 6.73922 11.1868 6.71701C11.1378 6.69481 11.0941 6.66239 11.0588 6.62195C11.0233 6.5815 10.997 6.53396 10.9814 6.4825C10.9659 6.43103 10.9616 6.37685 10.9686 6.32356C10.9616 6.27028 10.9659 6.21609 10.9814 6.16463C10.997 6.11317 11.0233 6.06562 11.0588 6.02518C11.0941 5.98474 11.1378 5.95232 11.1868 5.93012C11.2357 5.90791 11.2888 5.89642 11.3426 5.89642C11.3964 5.89642 11.4495 5.90791 11.4985 5.93012C11.5474 5.95232 11.5911 5.98474 11.6265 6.02518C11.6619 6.06562 11.6882 6.11317 11.7038 6.16463C11.7193 6.21609 11.7237 6.27028 11.7166 6.32356Z" fill="#F8043F"/>
<path d="M12.3785 1.99414H5.75965C4.88193 1.99414 4.04015 2.34281 3.41951 2.96345C2.79887 3.5841 2.4502 4.42587 2.4502 5.30359V11.9225C2.4502 12.8002 2.79887 13.642 3.41951 14.2626C4.04015 14.8833 4.88193 15.2319 5.75965 15.2319H12.3785C13.2562 15.2319 14.098 14.8833 14.7187 14.2626C15.3393 13.642 15.688 12.8002 15.688 11.9225V5.30359C15.688 4.42587 15.3393 3.5841 14.7187 2.96345C14.098 2.34281 13.2562 1.99414 12.3785 1.99414ZM13.7818 10.6914C13.788 11.0385 13.7226 11.3833 13.5898 11.7041C13.3213 12.3473 12.8099 12.8586 12.1667 13.1271C11.8459 13.26 11.5012 13.3253 11.154 13.3191H7.08343C6.73631 13.3248 6.3917 13.2594 6.07073 13.1271C5.75259 12.9933 5.46282 12.8001 5.2169 12.5579C4.97329 12.3131 4.77991 12.0231 4.64767 11.7041C4.50802 11.3847 4.43591 11.0399 4.43587 10.6914V6.58766C4.4302 6.24054 4.49552 5.89593 4.62781 5.57497C4.89036 4.92928 5.39695 4.41318 6.03764 4.13866C6.37061 4.00914 6.72635 3.94835 7.08343 3.95995H11.1871C11.5312 3.95691 11.8724 4.02269 12.1906 4.1534C12.5089 4.28412 12.7978 4.47715 13.0404 4.72113C13.2827 4.96705 13.4758 5.25682 13.6097 5.57497C13.742 5.89593 13.8073 6.24054 13.8016 6.58766L13.7818 10.6914Z" fill="#F8043F"/>
</svg>
