<svg width="14" height="14" viewBox="0 0 14 14" fill="none" xmlns="http://www.w3.org/2000/svg">
<path d="M10.8966 -0.00585938H3.69662C2.89596 -0.00585938 2.1281 0.312201 1.56195 0.878351C0.995801 1.4445 0.677734 2.21237 0.677734 3.01303V10.213C0.677734 11.0137 0.995801 11.7816 1.56195 12.3477C2.1281 12.9139 2.89596 13.2319 3.69662 13.2319H10.8966C11.6973 13.2319 12.4652 12.9139 13.0313 12.3477C13.5975 11.7816 13.9155 11.0137 13.9155 10.213V3.01303C13.9155 2.21237 13.5975 1.4445 13.0313 0.878351C12.4652 0.312201 11.6973 -0.00585938 10.8966 -0.00585938ZM5.15323 10.681C5.15529 10.7179 5.14978 10.7548 5.13705 10.7896C5.12433 10.8244 5.10463 10.8561 5.0792 10.8829C5.05376 10.9098 5.02311 10.9311 4.98912 10.9457C4.95513 10.9603 4.91852 10.9679 4.88154 10.9678H3.67398C3.60123 10.9658 3.53213 10.9356 3.48138 10.8834C3.43063 10.8312 3.40225 10.7613 3.40228 10.6885V5.66209C3.40127 5.62577 3.40756 5.58966 3.42076 5.55578C3.43396 5.52198 3.4538 5.49109 3.47914 5.46509C3.50447 5.43902 3.53477 5.41838 3.56824 5.40419C3.6017 5.39007 3.63765 5.38281 3.67398 5.38288H4.88154C4.91786 5.38281 4.95381 5.39007 4.98728 5.40419C5.02075 5.41838 5.05104 5.43902 5.07638 5.46509C5.10171 5.49109 5.12156 5.52198 5.13476 5.55578C5.14796 5.58966 5.15424 5.62577 5.15323 5.66209V10.681ZM4.25512 4.32624C4.0584 4.32475 3.86654 4.26506 3.70371 4.15469C3.54088 4.04432 3.41436 3.88821 3.34011 3.70605C3.26587 3.52388 3.24722 3.32381 3.28651 3.13107C3.32579 2.93832 3.42127 2.76151 3.56089 2.62294C3.70051 2.48437 3.87802 2.39023 4.07107 2.3524C4.26411 2.31457 4.46403 2.33473 4.64563 2.41035C4.82722 2.48597 4.98237 2.61366 5.09151 2.77732C5.20064 2.94098 5.25889 3.13329 5.2589 3.33001C5.2589 3.46147 5.23288 3.59164 5.18235 3.713C5.13181 3.83436 5.05775 3.94453 4.96444 4.03713C4.87113 4.12974 4.76042 4.20296 4.63867 4.25258C4.51693 4.3022 4.38657 4.32723 4.25512 4.32624ZM11.5985 10.6734C11.5986 10.7422 11.5718 10.8083 11.5238 10.8576C11.476 10.9069 11.4107 10.9356 11.342 10.9376H10.0665C9.99769 10.9356 9.93245 10.9069 9.88453 10.8576C9.8366 10.8083 9.80985 10.7422 9.80985 10.6734V8.34889C9.80985 8.00172 9.91555 6.83944 8.88911 6.83944C8.08907 6.83944 7.93062 7.65455 7.90042 8.01679V10.7263C7.90042 10.795 7.87367 10.8611 7.82574 10.9104C7.77781 10.9598 7.71257 10.9884 7.64381 10.9904H6.40611C6.37142 10.9904 6.33707 10.9836 6.30496 10.9703C6.27291 10.957 6.24379 10.9376 6.21928 10.9131C6.19478 10.8885 6.17529 10.8594 6.16205 10.8273C6.14875 10.7953 6.14189 10.761 6.14189 10.7263V5.63942C6.14386 5.57072 6.17258 5.50548 6.22193 5.45755C6.27122 5.40962 6.33734 5.38281 6.40611 5.38288H7.64381C7.71257 5.38281 7.77863 5.40962 7.82798 5.45755C7.87733 5.50548 7.90598 5.57072 7.90795 5.63942V6.07722C8.08866 5.8128 8.33808 5.60283 8.62938 5.46984C8.92061 5.33678 9.24266 5.28587 9.56078 5.32246C11.6212 5.32246 11.6137 7.24703 11.6137 8.34136L11.5985 10.6734Z" fill="#F8043F"/>
</svg>
