<svg width="14" height="14" viewBox="0 0 14 14" fill="none" xmlns="http://www.w3.org/2000/svg">
<path d="M10.8966 -0.00515747H3.69662C2.89596 -0.00515747 2.1281 0.312903 1.56195 0.879053C0.995801 1.4452 0.677734 2.21307 0.677734 3.01373V10.2137C0.677734 11.0144 0.995801 11.7823 1.56195 12.3484C2.1281 12.9146 2.89596 13.2326 3.69662 13.2326H10.8966C11.6973 13.2326 12.4652 12.9146 13.0313 12.3484C13.5975 11.7823 13.9155 11.0144 13.9155 10.2137V3.01373C13.9155 2.21307 13.5975 1.4452 13.0313 0.879053C12.4652 0.312903 11.6973 -0.00515747 10.8966 -0.00515747ZM5.15323 10.6817C5.15529 10.7186 5.14978 10.7555 5.13705 10.7903C5.12433 10.8251 5.10463 10.8568 5.0792 10.8836C5.05376 10.9105 5.02311 10.9318 4.98912 10.9464C4.95513 10.961 4.91852 10.9686 4.88154 10.9685H3.67398C3.60123 10.9665 3.53213 10.9363 3.48138 10.8841C3.43063 10.8319 3.40225 10.762 3.40228 10.6892V5.6628C3.40127 5.62648 3.40756 5.59036 3.42076 5.55649C3.43396 5.52268 3.4538 5.49179 3.47914 5.46579C3.50447 5.43972 3.53477 5.41908 3.56824 5.4049C3.6017 5.39078 3.63765 5.38351 3.67398 5.38358H4.88154C4.91786 5.38351 4.95381 5.39078 4.98728 5.4049C5.02075 5.41908 5.05104 5.43972 5.07638 5.46579C5.10171 5.49179 5.12156 5.52268 5.13476 5.55649C5.14796 5.59036 5.15424 5.62648 5.15323 5.6628V10.6817ZM4.25512 4.32694C4.0584 4.32545 3.86654 4.26576 3.70371 4.15539C3.54088 4.04502 3.41436 3.88892 3.34011 3.70675C3.26587 3.52458 3.24722 3.32452 3.28651 3.13177C3.32579 2.93902 3.42127 2.76222 3.56089 2.62364C3.70051 2.48507 3.87802 2.39093 4.07107 2.35311C4.26411 2.31527 4.46403 2.33544 4.64563 2.41105C4.82722 2.48667 4.98237 2.61436 5.09151 2.77803C5.20064 2.94169 5.25889 3.13399 5.2589 3.33071C5.2589 3.46218 5.23288 3.59234 5.18235 3.7137C5.13181 3.83506 5.05775 3.94523 4.96444 4.03783C4.87113 4.13044 4.76042 4.20366 4.63867 4.25328C4.51693 4.30291 4.38657 4.32794 4.25512 4.32694ZM11.5985 10.6742C11.5986 10.7429 11.5718 10.809 11.5238 10.8583C11.476 10.9076 11.4107 10.9363 11.342 10.9383H10.0665C9.99769 10.9363 9.93245 10.9076 9.88453 10.8583C9.8366 10.809 9.80985 10.7429 9.80985 10.6742V8.34959C9.80985 8.00242 9.91555 6.84014 8.88911 6.84014C8.08907 6.84014 7.93062 7.65525 7.90042 8.01749V10.727C7.90042 10.7957 7.87367 10.8618 7.82574 10.9111C7.77781 10.9605 7.71257 10.9891 7.64381 10.9911H6.40611C6.37142 10.9911 6.33707 10.9843 6.30496 10.971C6.27291 10.9577 6.24379 10.9383 6.21928 10.9138C6.19478 10.8892 6.17529 10.8601 6.16205 10.828C6.14875 10.796 6.14189 10.7617 6.14189 10.727V5.64012C6.14386 5.57142 6.17258 5.50618 6.22193 5.45825C6.27122 5.41033 6.33734 5.38351 6.40611 5.38358H7.64381C7.71257 5.38351 7.77863 5.41033 7.82798 5.45825C7.87733 5.50618 7.90598 5.57142 7.90795 5.64012V6.07792C8.08866 5.8135 8.33808 5.60353 8.62938 5.47054C8.92061 5.33748 9.24266 5.28657 9.56078 5.32316C11.6212 5.32316 11.6137 7.24773 11.6137 8.34206L11.5985 10.6742Z" fill="#DBDBDB"/>
</svg>
