<svg viewBox="0 0 25 24" fill="none" xmlns="http://www.w3.org/2000/svg">
<g clip-path="url(#clip0_0_4362)">
<path d="M22.7196 9.82489C22.7196 10.273 22.5416 10.7028 22.2247 11.0196C21.9078 11.3365 21.4781 11.5145 21.03 11.5145C20.5819 11.5145 20.1521 11.3365 19.8352 11.0196C19.5184 10.7028 19.3404 10.273 19.3404 9.82489C19.3406 9.37692 19.5187 8.94738 19.8354 8.63062C20.1522 8.31385 20.5818 8.13579 21.0297 8.13553C21.4778 8.13572 21.9074 8.31375 22.2242 8.63052C22.5411 8.94728 22.7192 9.37686 22.7196 9.82489ZM21.0213 6.67993C19.289 6.67993 17.8821 8.07721 17.8665 9.80593L15.9009 12.6226C15.3972 12.5688 14.8897 12.6805 14.4552 12.9408L5.5526 9.36073C5.3198 8.30473 4.37588 7.50817 3.25196 7.50817C1.95452 7.50817 0.896362 8.56993 0.896362 9.86689C0.896362 11.1653 1.95452 12.2227 3.25196 12.2227C3.69116 12.2227 4.1018 12.1018 4.45412 11.8918L13.3567 15.4651C13.5868 16.524 14.531 17.3211 15.6568 17.3211C16.8768 17.3211 17.8828 16.386 17.9997 15.1951L21.0211 12.9869C22.763 12.9869 24.1761 11.5764 24.1761 9.83449C24.1761 8.09257 22.7632 6.67993 21.0213 6.67993ZM21.0213 7.71961C22.1884 7.71961 23.1364 8.66785 23.1364 9.83449C23.1364 11.0016 22.1882 11.9467 21.0213 11.9467C19.8547 11.9467 18.9062 11.0016 18.9062 9.83449C18.9062 8.66785 19.8547 7.71961 21.0213 7.71961ZM3.25196 8.13217C3.56664 8.13154 3.87551 8.21687 4.14524 8.37895C4.41496 8.54103 4.63529 8.7737 4.78244 9.05185L3.92132 8.70721V8.71105C3.58662 8.59005 3.21801 8.60369 2.89316 8.7491C2.56832 8.89451 2.3126 9.16034 2.17988 9.49057C2.04677 9.82088 2.04686 10.1899 2.18014 10.5202C2.31342 10.8504 2.56951 11.1161 2.8946 11.2615V11.2649L3.62564 11.5565C3.50301 11.5843 3.37771 11.5986 3.25196 11.5992C3.02437 11.5998 2.79892 11.5553 2.58856 11.4685C2.3782 11.3816 2.18707 11.254 2.02617 11.0931C1.86526 10.9321 1.73774 10.741 1.65094 10.5306C1.56414 10.3202 1.51976 10.0947 1.52036 9.86713C1.5197 9.63939 1.56401 9.41376 1.65075 9.20318C1.7375 8.99261 1.86497 8.80123 2.02585 8.64004C2.18673 8.47884 2.37786 8.351 2.58827 8.26385C2.79868 8.1767 3.02422 8.13195 3.25196 8.13217ZM15.6568 13.2331C15.8845 13.2325 16.11 13.2769 16.3204 13.3638C16.5308 13.4506 16.7219 13.5782 16.8829 13.7391C17.0438 13.9001 17.1713 14.0913 17.2582 14.3017C17.345 14.5121 17.3893 14.7376 17.3887 14.9652C17.3893 15.1928 17.3448 15.4182 17.258 15.6286C17.1712 15.839 17.0436 16.0301 16.8827 16.191C16.7218 16.3519 16.5306 16.4794 16.3202 16.5662C16.1099 16.653 15.8844 16.6974 15.6568 16.6968C15.3414 16.6979 15.0316 16.6124 14.7613 16.4498C14.4909 16.2871 14.2703 16.0535 14.1235 15.7743C14.4084 15.8895 14.6935 16.003 14.9779 16.1189C15.6837 16.4026 16.488 16.0608 16.7714 15.3552C17.0553 14.6494 16.7104 13.8492 16.0044 13.5651L15.2834 13.2759C15.406 13.2484 15.5312 13.2341 15.6568 13.2331Z" fill="white"/>
</g>
<defs>
<clipPath id="clip0_0_4362">
<rect width="24" height="24" fill="white" transform="translate(0.536377)"/>
</clipPath>
</defs>
</svg>
