<svg viewBox="0 0 16 16" fill="none" xmlns="http://www.w3.org/2000/svg">
<path d="M13.8064 2.436C13.8064 2.436 15.1015 1.931 14.9936 3.15743C14.9576 3.66244 14.6339 5.42994 14.382 7.34174L13.5186 13.005C13.5186 13.005 13.4467 13.8346 12.7991 13.9789C12.1516 14.1232 11.1803 13.4739 11.0004 13.3296C10.8565 13.2214 8.30227 11.5982 7.40287 10.8046C7.15103 10.5882 6.86323 10.1553 7.43883 9.65031L11.2162 6.04317C11.6479 5.61031 12.0796 4.60031 10.2809 5.82674L5.24437 9.25354C5.24437 9.25354 4.66877 9.61424 3.58953 9.28961L1.25114 8.56817C1.25114 8.56817 0.387737 8.02711 1.86272 7.48601C5.46023 5.79064 9.88517 4.05921 13.8064 2.436Z" fill="#229ED9"/>
</svg>

