<svg width="18" height="19" viewBox="0 0 18 19" fill="none" xmlns="http://www.w3.org/2000/svg">
<path d="M9.29083 6.92095C9.29083 8.21323 9.91722 9.43388 10.9659 10.2093H15.9575C17.0035 9.43559 17.6284 8.21498 17.6284 6.92095C17.6284 4.65429 15.7592 2.81055 13.4617 2.81055C11.1641 2.81055 9.29083 4.65429 9.29083 6.92095ZM12.7449 7.20585C12.4252 7.20585 12.1653 6.94912 12.1653 6.63383V5.62035C12.1653 5.30501 12.4252 5.04832 12.7449 5.04832H13.1691V4.71444C13.1691 4.55713 13.2985 4.42954 13.4579 4.42954C13.6174 4.42954 13.7468 4.55717 13.7468 4.71444V5.04832H14.4617C14.6212 5.04832 14.7506 5.17596 14.7506 5.33323C14.7506 5.4905 14.6212 5.61813 14.4617 5.61813H12.7449L12.743 6.63387L14.1706 6.63609C14.4903 6.63609 14.7506 6.89282 14.7506 7.20811V8.2216C14.7506 8.53693 14.4903 8.79362 14.1706 8.79362H13.7468V9.12712C13.7468 9.28443 13.6174 9.41203 13.4579 9.41203C13.2985 9.41203 13.1691 9.28439 13.1691 9.12712V8.79362H12.4542C12.2947 8.79362 12.1653 8.66599 12.1653 8.50872C12.1653 8.35145 12.2947 8.22382 12.4542 8.22382H14.1706L14.1729 7.20807L12.7449 7.20585Z" fill="white"/>
<path d="M13.8137 10.7793H11.6312V18.5H13.8137V10.7793Z" fill="white" fill-opacity="0.5"/>
<path d="M1.36882 10.6703C1.54672 10.4544 1.77771 10.2861 2.05029 10.1897C2.35109 10.084 2.66954 10.0722 2.97124 10.15L2.99504 10.1C2.99691 10.0966 2.99844 10.093 3.00031 10.0896C3.00031 10.0892 3.00069 10.0889 3.00069 10.0889C3.1906 9.66188 3.0082 9.17144 2.58437 8.97072C2.15677 8.77335 1.64301 8.95553 1.44143 9.37844L1.25301 9.77352C1.10766 10.08 1.16236 10.4274 1.36887 10.6703H1.36882Z" fill="white"/>
<path d="M5.55065 6.27295C5.53108 6.27295 5.51491 6.27739 5.50439 6.28111C5.48483 6.28814 5.44871 6.30598 5.42804 6.34939L3.81952 9.71476L6.22341 10.8327L7.83168 7.46752C7.85273 7.42374 7.84408 7.3848 7.83695 7.36551C7.82982 7.34621 7.81174 7.31096 7.76773 7.29058H7.76735L5.60747 6.28597C5.58714 6.27634 5.56762 6.27299 5.55069 6.27299L5.55065 6.27295Z" fill="white" fill-opacity="0.5"/>
<path d="M1.86105 13.812L0.252611 17.1771C0.231944 17.2201 0.240558 17.2594 0.24773 17.2787C0.25486 17.298 0.272939 17.3336 0.316947 17.354L2.47721 18.3586C2.54413 18.3895 2.62464 18.3612 2.65697 18.2948L4.26516 14.93L1.86109 13.812H1.86105Z" fill="white" fill-opacity="0.5"/>
<path d="M1.9142 12.3608L2.71827 10.6781C2.67239 10.6718 2.62575 10.6685 2.57911 10.6685C2.46665 10.6685 2.35419 10.6878 2.24513 10.726C1.99653 10.8139 1.79796 10.9916 1.68588 11.226C1.57342 11.4613 1.56065 11.7254 1.65015 11.9702C1.70583 12.1223 1.79643 12.2555 1.91415 12.3608H1.9142Z" fill="white"/>
<path d="M0.49443 13.345C0.920931 13.5431 1.43502 13.3595 1.63962 12.9373L1.66219 12.89C1.40901 12.7099 1.2152 12.4601 1.10672 12.1634C1.0084 11.8938 0.992949 11.6099 1.04939 11.3364C0.725378 11.3355 0.419527 11.5151 0.275196 11.8203L0.0811275 12.2183C-0.0155461 12.4209 -0.0264526 12.6512 0.0518029 12.8645C0.129634 13.0782 0.286867 13.2489 0.494473 13.3449L0.49443 13.345Z" fill="white"/>
<path d="M5.97698 11.3479L3.57308 10.23L2.10736 13.2965L4.51147 14.4144L5.97698 11.3479Z" fill="white"/>
<path d="M16.0579 10.7808C16.0557 10.7808 16.0537 10.7793 16.0514 10.7793H14.3914V18.5H17.3907C17.7266 18.5 18 18.2303 18 17.899V10.7793H16.0676C16.0643 10.7794 16.0611 10.7808 16.0579 10.7808Z" fill="white" fill-opacity="0.5"/>
<path d="M8.05425 18.5H11.0536V10.7793H7.44501V17.899C7.44501 18.2303 7.71844 18.5 8.05429 18.5H8.05425Z" fill="white" fill-opacity="0.5"/>
<path d="M10.013 2.25098C9.85347 2.25098 9.72412 2.12335 9.72412 1.96608V0.784902C9.72412 0.627591 9.85351 0.5 10.013 0.5C10.1724 0.5 10.3018 0.627633 10.3018 0.784902V1.96608C10.3018 2.12339 10.1724 2.25098 10.013 2.25098Z" fill="white" fill-opacity="0.5"/>
<path d="M8.8316 2.74913C8.75751 2.74913 8.68379 2.72129 8.62739 2.66566L7.7808 1.83058C7.66796 1.71928 7.66796 1.53898 7.7808 1.42772C7.89364 1.31641 8.07642 1.31641 8.18922 1.42772L9.03582 2.26279C9.14866 2.3741 9.14866 2.55439 9.03582 2.66566C8.97942 2.72129 8.9057 2.74913 8.8316 2.74913Z" fill="white" fill-opacity="0.5"/>
<path d="M8.35329 3.92576H7.1562C6.99672 3.92576 6.86737 3.79813 6.86737 3.64086C6.86737 3.48359 6.99676 3.35596 7.1562 3.35596H8.35329C8.51277 3.35596 8.64212 3.48359 8.64212 3.64086C8.64212 3.79813 8.51273 3.92576 8.35329 3.92576Z" fill="white" fill-opacity="0.5"/>
</svg>
