<svg width="16" height="17" viewBox="0 0 16 17" fill="none" xmlns="http://www.w3.org/2000/svg">
<path d="M14.25 15.5H4.25C4.05109 15.5 3.86032 15.421 3.71967 15.2803C3.57902 15.1397 3.5 14.9489 3.5 14.75V4.5C3.5 4.36739 3.55268 4.24021 3.64645 4.14645C3.74021 4.05268 3.86739 4 4 4H14.25C14.4489 4 14.6397 4.07902 14.7803 4.21967C14.921 4.36032 15 4.55109 15 4.75V14.75C15 14.9489 14.921 15.1397 14.7803 15.2803C14.6397 15.421 14.4489 15.5 14.25 15.5Z" fill="white" fill-opacity="0.65"/>
<path d="M3.5 3H12.5V2.25C12.5 2.05109 12.421 1.86032 12.2803 1.71967C12.1397 1.57902 11.9489 1.5 11.75 1.5H1.875C1.64294 1.5 1.42038 1.59219 1.25628 1.75628C1.09219 1.92038 1 2.14294 1 2.375V12.25C1 12.4489 1.07902 12.6397 1.21967 12.7803C1.36032 12.921 1.55109 13 1.75 13H2.5V4C2.5 3.73478 2.60536 3.48043 2.79289 3.29289C2.98043 3.10536 3.23478 3 3.5 3Z" fill="white" fill-opacity="0.65"/>
</svg>
