<svg width="12" height="13" viewBox="0 0 12 13" fill="none" xmlns="http://www.w3.org/2000/svg">
<path fill-rule="evenodd" clip-rule="evenodd" d="M1.29211 4.83415C1.29211 3.59647 1.78377 2.40949 2.65894 1.53432C3.53411 0.659146 4.7211 0.16748 5.95878 0.16748C7.19645 0.16748 8.38344 0.659146 9.25861 1.53432C10.1338 2.40949 10.6254 3.59647 10.6254 4.83415V7.34348L11.8401 9.77281C11.896 9.88463 11.9224 10.0089 11.9168 10.1338C11.9112 10.2587 11.8737 10.38 11.808 10.4864C11.7423 10.5927 11.6505 10.6805 11.5413 10.7414C11.4321 10.8022 11.3091 10.8342 11.1841 10.8341H8.54144C8.39315 11.4063 8.05906 11.913 7.59162 12.2748C7.12417 12.6365 6.54984 12.8328 5.95878 12.8328C5.36771 12.8328 4.79338 12.6365 4.32593 12.2748C3.85849 11.913 3.5244 11.4063 3.37611 10.8341H0.733442C0.608427 10.8342 0.485483 10.8022 0.376286 10.7414C0.26709 10.6805 0.175267 10.5927 0.109539 10.4864C0.04381 10.38 0.00635847 10.2587 0.000740859 10.1338C-0.00487676 10.0089 0.0215261 9.88463 0.0774419 9.77281L1.29211 7.34348V4.83415ZM4.80411 10.8341C4.92114 11.0368 5.08945 11.2051 5.29214 11.3221C5.49482 11.4392 5.72474 11.5008 5.95878 11.5008C6.19281 11.5008 6.42273 11.4392 6.62541 11.3221C6.8281 11.2051 6.99641 11.0368 7.11344 10.8341H4.80411ZM5.95878 1.50081C5.07472 1.50081 4.22687 1.852 3.60175 2.47712C2.97663 3.10225 2.62544 3.95009 2.62544 4.83415V7.34348C2.62543 7.55037 2.57727 7.75442 2.48478 7.93948L1.70478 9.50081H10.2134L9.43344 7.93948C9.34074 7.75447 9.29235 7.55042 9.29211 7.34348V4.83415C9.29211 3.95009 8.94092 3.10225 8.3158 2.47712C7.69068 1.852 6.84283 1.50081 5.95878 1.50081Z" fill="white"/>
</svg>
