<svg width="16" height="15" viewBox="0 0 16 15" fill="none" xmlns="http://www.w3.org/2000/svg">
<path d="M13.5725 8.23502C13.6025 7.99502 13.625 7.75502 13.625 7.50002C13.625 7.24502 13.6025 7.00502 13.5725 6.76502L15.155 5.52752C15.2975 5.41502 15.335 5.21252 15.245 5.04752L13.745 2.45252C13.7008 2.37514 13.6305 2.31603 13.5466 2.2858C13.4628 2.25556 13.3709 2.25617 13.2875 2.28752L11.42 3.03752C11.03 2.73752 10.61 2.49002 10.1525 2.30252L9.8675 0.315019C9.85479 0.226909 9.81052 0.146408 9.74293 0.0884732C9.67534 0.030538 9.58902 -0.000893083 9.5 1.93205e-05H6.5C6.3125 1.93205e-05 6.155 0.135019 6.1325 0.315019L5.8475 2.30252C5.39 2.49002 4.97 2.74502 4.58 3.03752L2.7125 2.28752C2.66891 2.27318 2.62339 2.26559 2.5775 2.26502C2.45 2.26502 2.3225 2.33252 2.255 2.45252L0.755002 5.04752C0.657502 5.21252 0.702502 5.41502 0.845002 5.52752L2.4275 6.76502C2.3975 7.00502 2.375 7.25252 2.375 7.50002C2.375 7.74752 2.3975 7.99502 2.4275 8.23502L0.845002 9.47252C0.702502 9.58502 0.665002 9.78752 0.755002 9.95252L2.255 12.5475C2.29921 12.6249 2.36954 12.684 2.45338 12.7142C2.53721 12.7445 2.62908 12.7439 2.7125 12.7125L4.58 11.9625C4.97 12.2625 5.39 12.51 5.8475 12.6975L6.1325 14.685C6.155 14.865 6.3125 15 6.5 15H9.5C9.6875 15 9.845 14.865 9.8675 14.685L10.1525 12.6975C10.61 12.51 11.03 12.255 11.42 11.9625L13.2875 12.7125C13.3325 12.7275 13.3775 12.735 13.4225 12.735C13.55 12.735 13.6775 12.6675 13.745 12.5475L15.245 9.95252C15.335 9.78752 15.2975 9.58502 15.155 9.47252L13.5725 8.23502ZM12.0875 6.95252C12.1175 7.18502 12.125 7.34252 12.125 7.50002C12.125 7.65752 12.11 7.82252 12.0875 8.04752L11.9825 8.89502L12.65 9.42002L13.46 10.05L12.935 10.9575L11.9825 10.575L11.2025 10.26L10.5275 10.77C10.205 11.01 9.8975 11.19 9.59 11.3175L8.795 11.64L8.675 12.4875L8.525 13.5H7.475L7.3325 12.4875L7.2125 11.64L6.4175 11.3175C6.095 11.1825 5.795 11.01 5.495 10.785L4.8125 10.26L4.0175 10.5825L3.065 10.965L2.54 10.0575L3.35 9.42752L4.0175 8.90252L3.9125 8.05502C3.89 7.82252 3.875 7.65002 3.875 7.50002C3.875 7.35002 3.89 7.17752 3.9125 6.95252L4.0175 6.10502L3.35 5.58002L2.54 4.95002L3.065 4.04252L4.0175 4.42502L4.7975 4.74002L5.4725 4.23002C5.795 3.99002 6.1025 3.81002 6.41 3.68252L7.205 3.36002L7.325 2.51252L7.475 1.50002H8.5175L8.66 2.51252L8.78 3.36002L9.575 3.68252C9.8975 3.81752 10.1975 3.99002 10.4975 4.21502L11.18 4.74002L11.975 4.41752L12.9275 4.03502L13.4525 4.94252L12.65 5.58002L11.9825 6.10502L12.0875 6.95252ZM8 4.50002C6.3425 4.50002 5 5.84252 5 7.50002C5 9.15752 6.3425 10.5 8 10.5C9.6575 10.5 11 9.15752 11 7.50002C11 5.84252 9.6575 4.50002 8 4.50002ZM8 9.00002C7.175 9.00002 6.5 8.32502 6.5 7.50002C6.5 6.67502 7.175 6.00002 8 6.00002C8.825 6.00002 9.5 6.67502 9.5 7.50002C9.5 8.32502 8.825 9.00002 8 9.00002Z" fill="white"/>
</svg>
