<svg width="18" height="19" viewBox="0 0 18 19" fill="none" xmlns="http://www.w3.org/2000/svg">
<path d="M4.125 7.25C4.74632 7.25 5.25 6.74632 5.25 6.125C5.25 5.50368 4.74632 5 4.125 5C3.50368 5 3 5.50368 3 6.125C3 6.74632 3.50368 7.25 4.125 7.25Z" fill="white"/>
<path fill-rule="evenodd" clip-rule="evenodd" d="M6 5.375C6 5.27554 6.03951 5.18016 6.10983 5.10984C6.18016 5.03951 6.27554 5 6.375 5H14.625C14.7245 5 14.8198 5.03951 14.8902 5.10984C14.9605 5.18016 15 5.27554 15 5.375C15 5.47446 14.9605 5.56984 14.8902 5.64016C14.8198 5.71049 14.7245 5.75 14.625 5.75H6.375C6.27554 5.75 6.18016 5.71049 6.10983 5.64016C6.03951 5.56984 6 5.47446 6 5.375ZM6 6.875C6 6.77554 6.03951 6.68016 6.10983 6.60983C6.18016 6.53951 6.27554 6.5 6.375 6.5H10.875C10.9745 6.5 11.0698 6.53951 11.1402 6.60983C11.2105 6.68016 11.25 6.77554 11.25 6.875C11.25 6.97446 11.2105 7.06984 11.1402 7.14017C11.0698 7.21049 10.9745 7.25 10.875 7.25H6.375C6.27554 7.25 6.18016 7.21049 6.10983 7.14017C6.03951 7.06984 6 6.97446 6 6.875Z" fill="white"/>
<path d="M4.125 10.625C4.74632 10.625 5.25 10.1213 5.25 9.5C5.25 8.87868 4.74632 8.375 4.125 8.375C3.50368 8.375 3 8.87868 3 9.5C3 10.1213 3.50368 10.625 4.125 10.625Z" fill="white"/>
<path fill-rule="evenodd" clip-rule="evenodd" d="M6 8.75C6 8.65054 6.03951 8.55516 6.10983 8.48483C6.18016 8.41451 6.27554 8.375 6.375 8.375H12.375C12.4745 8.375 12.5698 8.41451 12.6402 8.48483C12.7105 8.55516 12.75 8.65054 12.75 8.75C12.75 8.84946 12.7105 8.94484 12.6402 9.01517C12.5698 9.08549 12.4745 9.125 12.375 9.125H6.375C6.27554 9.125 6.18016 9.08549 6.10983 9.01517C6.03951 8.94484 6 8.84946 6 8.75ZM6 10.25C6 10.1505 6.03951 10.0552 6.10983 9.98483C6.18016 9.91451 6.27554 9.875 6.375 9.875H11.625C11.7245 9.875 11.8198 9.91451 11.8902 9.98483C11.9605 10.0552 12 10.1505 12 10.25C12 10.3495 11.9605 10.4448 11.8902 10.5152C11.8198 10.5855 11.7245 10.625 11.625 10.625H6.375C6.27554 10.625 6.18016 10.5855 6.10983 10.5152C6.03951 10.4448 6 10.3495 6 10.25Z" fill="white"/>
<path d="M4.125 14C4.74632 14 5.25 13.4963 5.25 12.875C5.25 12.2537 4.74632 11.75 4.125 11.75C3.50368 11.75 3 12.2537 3 12.875C3 13.4963 3.50368 14 4.125 14Z" fill="white"/>
<path fill-rule="evenodd" clip-rule="evenodd" d="M6 12.125C6 12.0255 6.03951 11.9302 6.10983 11.8598C6.18016 11.7895 6.27554 11.75 6.375 11.75H13.5C13.5995 11.75 13.6948 11.7895 13.7652 11.8598C13.8355 11.9302 13.875 12.0255 13.875 12.125C13.875 12.2245 13.8355 12.3198 13.7652 12.3902C13.6948 12.4605 13.5995 12.5 13.5 12.5H6.375C6.27554 12.5 6.18016 12.4605 6.10983 12.3902C6.03951 12.3198 6 12.2245 6 12.125ZM6 13.625C6 13.5255 6.03951 13.4302 6.10983 13.3598C6.18016 13.2895 6.27554 13.25 6.375 13.25H9.375C9.47446 13.25 9.56984 13.2895 9.64017 13.3598C9.71049 13.4302 9.75 13.5255 9.75 13.625C9.75 13.7245 9.71049 13.8198 9.64017 13.8902C9.56984 13.9605 9.47446 14 9.375 14H6.375C6.27554 14 6.18016 13.9605 6.10983 13.8902C6.03951 13.8198 6 13.7245 6 13.625Z" fill="white"/>
</svg>
