<svg width="17" height="14" viewBox="0 0 17 14" fill="none" xmlns="http://www.w3.org/2000/svg">
<path fill-rule="evenodd" clip-rule="evenodd" d="M14.825 4.50312C14.7825 4.50062 14.7372 4.49963 14.6892 4.50013H12.7955C11.2445 4.50013 9.91772 5.72113 9.91772 7.31262C9.91772 8.90413 11.2452 10.1251 12.7955 10.1251H14.6892C14.7372 10.1256 14.7827 10.1246 14.8257 10.1221C15.1445 10.1029 15.4454 9.96845 15.6724 9.74381C15.8994 9.51918 16.0369 9.21968 16.0595 8.90112C16.0625 8.85613 16.0625 8.80737 16.0625 8.76237V5.86288C16.0625 5.81788 16.0625 5.76912 16.0595 5.72412C16.0369 5.40557 15.8994 5.10608 15.6724 4.88144C15.4454 4.6568 15.1437 4.52235 14.825 4.50312ZM12.6297 8.06263C13.0287 8.06263 13.352 7.72662 13.352 7.31262C13.352 6.89862 13.0287 6.56262 12.6297 6.56262C12.23 6.56262 11.9067 6.89862 11.9067 7.31262C11.9067 7.72662 12.23 8.06263 12.6297 8.06263Z" fill="white" fill-opacity="0.7"/>
<path fill-rule="evenodd" clip-rule="evenodd" d="M14.6885 11.25C14.7144 11.249 14.7402 11.254 14.7638 11.2649C14.7874 11.2757 14.8081 11.2919 14.8243 11.3122C14.8404 11.3325 14.8516 11.3563 14.8568 11.3818C14.862 11.4072 14.8611 11.4335 14.8542 11.4585C14.7043 11.9925 14.465 12.4485 14.0817 12.831C13.52 13.3935 12.8083 13.6418 11.9293 13.7603C11.0743 13.875 9.983 13.875 8.6045 13.875H7.0205C5.642 13.875 4.55 13.875 3.69575 13.7603C2.81675 13.6418 2.105 13.3927 1.54325 12.8317C0.98225 12.27 0.73325 11.5583 0.61475 10.6793C0.5 9.82425 0.5 8.733 0.5 7.3545V7.2705C0.5 5.892 0.5 4.8 0.61475 3.945C0.73325 3.066 0.98225 2.35425 1.54325 1.7925C2.105 1.2315 2.81675 0.9825 3.69575 0.864C4.55075 0.75 5.642 0.75 7.0205 0.75H8.6045C9.983 0.75 11.075 0.75 11.9293 0.86475C12.8083 0.98325 13.52 1.23225 14.0817 1.79325C14.465 2.17725 14.7043 2.6325 14.8542 3.1665C14.8611 3.19153 14.862 3.21782 14.8568 3.24324C14.8516 3.26866 14.8404 3.2925 14.8243 3.31281C14.8081 3.33312 14.7874 3.34934 14.7638 3.36015C14.7402 3.37095 14.7144 3.37604 14.6885 3.375H12.7955C10.6677 3.375 8.79275 5.055 8.79275 7.3125C8.79275 9.57 10.6677 11.25 12.7955 11.25H14.6885ZM3.3125 3.75C3.16332 3.75 3.02024 3.80926 2.91475 3.91475C2.80926 4.02024 2.75 4.16332 2.75 4.3125C2.75 4.46168 2.80926 4.60476 2.91475 4.71025C3.02024 4.81574 3.16332 4.875 3.3125 4.875H6.3125C6.46168 4.875 6.60476 4.81574 6.71025 4.71025C6.81574 4.60476 6.875 4.46168 6.875 4.3125C6.875 4.16332 6.81574 4.02024 6.71025 3.91475C6.60476 3.80926 6.46168 3.75 6.3125 3.75H3.3125Z" fill="white" fill-opacity="0.7"/>
</svg>
