<?xml version="1.0" encoding="utf-8"?>
<!-- Generator: Adobe Illustrator 27.1.1, SVG Export Plug-In . SVG Version: 6.00 Build 0)  -->
<svg version="1.1" id="Layer_1" xmlns="http://www.w3.org/2000/svg" xmlns:xlink="http://www.w3.org/1999/xlink" x="0px" y="0px"
	 viewBox="0 0 1409.1 2219.9" style="enable-background:new 0 0 1409.1 2219.9;" xml:space="preserve">
<style type="text/css">
	.st0{fill:#F8043F;}
</style>
<g>
	<path class="st0" d="M704.6,1028.1c-329.1,0-595.9,266.8-595.9,595.9c0,329.1,266.8,595.9,595.9,595.9
		c329.1,0,595.9-266.8,595.9-595.9C1300.5,1294.9,1033.7,1028.1,704.6,1028.1z M1066.6,1689.1l-296.9,296.9c-36,36-94.3,36-130.3,0
		l-296.9-296.9c-36-36-36-94.3,0-130.3L639.4,1262c36-36,94.3-36,130.3,0l296.9,296.9C1102.6,1594.8,1102.6,1653.2,1066.6,1689.1z"
		/>
	<path class="st0" d="M704.6,1675.2c49.1,0,88.9,39.8,88.9,88.9c0,49.1-39.8,88.9-88.9,88.9c-49.1,0-88.9-39.8-88.9-88.9
		C615.6,1715,655.4,1675.2,704.6,1675.2z"/>
	<path class="st0" d="M704.6,1394.9c49.1,0,88.9,39.8,88.9,88.9c0,49.1-39.8,88.9-88.9,88.9c-49.1,0-88.9-39.8-88.9-88.9
		C615.6,1434.7,655.4,1394.9,704.6,1394.9z"/>
	<g id="crown_00000151531873297296458820000014686968142262971013_">
		<path class="st0" d="M1407.6,397.4l-130.8,577.6c-152.7-134.9-353.1-216.7-572.3-216.7c-221.1,0-423,83.2-576.1,220.2L1.3,397.4
			c-4.4-20.3,3.1-41.3,19.5-54.1c16.3-12.8,38.6-15.2,57.3-5.9l315.9,153.1l261.8-463c14.7-26,47.8-35.2,73.8-20.4
			C738,11.9,745,19,749.8,27.5L1011.6,491l318.1-154.1c26.3-14,59.1-4,73.1,22.5C1409,371,1410.7,384.6,1407.6,397.4z"/>
	</g>
</g>
</svg>
