<svg width="400" height="349" viewBox="0 0 400 349" fill="none" xmlns="http://www.w3.org/2000/svg">
<path d="M200 1.77853e-06C263.729 0.00995558 291.298 42.7395 292.97 88.5723C293.299 97.5858 294.722 100.775 305.082 100.38C355.911 101.457 399.84 136.104 399.996 184.261C400.458 250.563 357.502 284.535 316.226 287.322C282.06 289.629 253.847 280.773 231.721 255.889V348.4H168.863V255.515H231.719V196.381H321.72V143.538H78.5721V196.381H168.859V255.573C146.691 280.699 118.084 289.639 83.7723 287.322C42.497 284.535 -0.45881 250.562 0.00370201 184.261C0.160068 136.104 44.0875 101.457 94.9168 100.38C105.277 100.775 106.7 97.5859 107.029 88.5723C108.701 42.7395 134.418 -0.0100678 200 1.77853e-06Z" fill="#5DFFA4"/>
</svg>
