<svg width="15" height="10" viewBox="0 0 15 10" fill="none" xmlns="http://www.w3.org/2000/svg">
<path d="M14.669 2.02703C14.5711 1.98907 14.4645 1.97926 14.3613 1.9987C14.2581 2.01814 14.1624 2.06605 14.085 2.13703L11.549 4.50703C11.5204 4.53346 11.4866 4.5536 11.4497 4.56618C11.4129 4.57875 11.3738 4.58347 11.335 4.58003C11.2966 4.57745 11.2593 4.56665 11.2255 4.54836C11.1916 4.53007 11.1622 4.50472 11.139 4.47403L7.939 0.200027C7.8849 0.136621 7.81755 0.0858507 7.7417 0.051295C7.66585 0.0167394 7.58335 -0.000761077 7.5 2.6889e-05C7.41641 -0.000785049 7.33366 0.0168001 7.25762 0.0515359C7.18158 0.0862717 7.11411 0.137308 7.06 0.201027L3.858 4.47403C3.83485 4.50472 3.80536 4.53007 3.77154 4.54836C3.73772 4.56665 3.70036 4.57745 3.662 4.58003C3.62328 4.5836 3.58424 4.57904 3.54739 4.56664C3.51054 4.55424 3.47668 4.53428 3.448 4.50803L0.915 2.13703C0.837602 2.06605 0.741896 2.01814 0.638696 1.9987C0.535496 1.97926 0.428916 1.98907 0.331 2.02703C0.235447 2.06163 0.152646 2.12441 0.0935442 2.20709C0.0344424 2.28976 0.00182338 2.38842 0 2.49003L0 9.50003C0 9.77603 0.24 10 0.536 10H14.464C14.76 10 15 9.77603 15 9.50003V2.49003C14.9982 2.38842 14.9656 2.28976 14.9065 2.20709C14.8474 2.12441 14.7646 2.06163 14.669 2.02703Z" fill="url(#paint0_linear_2866_14922)"/>
<defs>
<linearGradient id="paint0_linear_2866_14922" x1="0" y1="0" x2="10.9764" y2="12.0546" gradientUnits="userSpaceOnUse">
<stop stop-color="#B6012D"/>
<stop offset="1" stop-color="#9F0127"/>
</linearGradient>
</defs>
</svg>
