<svg width="19" height="18" viewBox="0 0 19 18" fill="none" xmlns="http://www.w3.org/2000/svg">
<path d="M9.79083 6.42095C9.79083 7.71323 10.4172 8.93388 11.4659 9.70926H16.4575C17.5035 8.93559 18.1284 7.71498 18.1284 6.42095C18.1284 4.15429 16.2592 2.31055 13.9617 2.31055C11.6641 2.31055 9.79083 4.15429 9.79083 6.42095ZM13.2449 6.70585C12.9252 6.70585 12.6653 6.44912 12.6653 6.13383V5.12035C12.6653 4.80501 12.9252 4.54832 13.2449 4.54832H13.6691V4.21444C13.6691 4.05713 13.7985 3.92954 13.9579 3.92954C14.1174 3.92954 14.2468 4.05717 14.2468 4.21444V4.54832H14.9617C15.1212 4.54832 15.2506 4.67596 15.2506 4.83323C15.2506 4.9905 15.1212 5.11813 14.9617 5.11813H13.2449L13.243 6.13387L14.6706 6.13609C14.9903 6.13609 15.2506 6.39282 15.2506 6.70811V7.7216C15.2506 8.03693 14.9903 8.29362 14.6706 8.29362H14.2468V8.62712C14.2468 8.78443 14.1174 8.91203 13.9579 8.91203C13.7985 8.91203 13.6691 8.78439 13.6691 8.62712V8.29362H12.9542C12.7947 8.29362 12.6653 8.16599 12.6653 8.00872C12.6653 7.85145 12.7947 7.72382 12.9542 7.72382H14.6706L14.6729 6.70807L13.2449 6.70585Z" fill="white"/>
<path d="M14.3137 10.2793H12.1313V18H14.3137V10.2793Z" fill="white" fill-opacity="0.5"/>
<path d="M1.86882 10.1703C2.04672 9.95443 2.27771 9.78606 2.55029 9.68974C2.85109 9.58396 3.16954 9.57216 3.47124 9.64998L3.49504 9.59999C3.49691 9.59665 3.49844 9.59296 3.50031 9.58961C3.50031 9.58924 3.50069 9.58886 3.50069 9.58886C3.6906 9.16188 3.5082 8.67144 3.08437 8.47072C2.65677 8.27335 2.14301 8.45553 1.94143 8.87844L1.75301 9.27352C1.60766 9.58003 1.66236 9.92743 1.86887 10.1703H1.86882Z" fill="white"/>
<path d="M6.05062 5.77295C6.03105 5.77295 6.01488 5.77739 6.00436 5.78111C5.98479 5.78814 5.94868 5.80598 5.92801 5.84939L4.31949 9.21476L6.72338 10.3327L8.33165 6.96752C8.3527 6.92374 8.34405 6.8848 8.33692 6.86551C8.32979 6.84621 8.31171 6.81096 8.2677 6.79058H8.26732L6.10744 5.78597C6.08711 5.77634 6.06759 5.77299 6.05066 5.77299L6.05062 5.77295Z" fill="white" fill-opacity="0.5"/>
<path d="M2.36108 13.312L0.752641 16.6771C0.731974 16.7201 0.740589 16.7594 0.747761 16.7787C0.754891 16.798 0.772969 16.8336 0.816977 16.854L2.97724 17.8586C3.04416 17.8895 3.12467 17.8612 3.157 17.7948L4.76519 14.43L2.36112 13.312H2.36108Z" fill="white" fill-opacity="0.5"/>
<path d="M2.4142 11.8608L3.21827 10.1781C3.17239 10.1718 3.12575 10.1685 3.07911 10.1685C2.96665 10.1685 2.85419 10.1878 2.74513 10.226C2.49653 10.3139 2.29796 10.4916 2.18588 10.726C2.07342 10.9613 2.06065 11.2254 2.15015 11.4702C2.20583 11.6223 2.29643 11.7555 2.41415 11.8608H2.4142Z" fill="white"/>
<path d="M0.99443 12.845C1.42093 13.0431 1.93502 12.8595 2.13962 12.4373L2.16219 12.39C1.90901 12.2099 1.7152 11.9601 1.60672 11.6634C1.5084 11.3938 1.49295 11.1099 1.54939 10.8364C1.22538 10.8355 0.919527 11.0151 0.775196 11.3203L0.581127 11.7183C0.484454 11.9209 0.473547 12.1512 0.551803 12.3645C0.629634 12.5782 0.786867 12.7489 0.994473 12.8449L0.99443 12.845Z" fill="white"/>
<path d="M6.47701 10.8479L4.07311 9.72998L2.60739 12.7965L5.0115 13.9144L6.47701 10.8479Z" fill="white"/>
<path d="M16.5578 10.2808C16.5557 10.2808 16.5537 10.2793 16.5514 10.2793H14.8913V18H17.8907C18.2265 18 18.5 17.7303 18.5 17.399V10.2793H16.5676C16.5643 10.2794 16.5611 10.2808 16.5578 10.2808Z" fill="white" fill-opacity="0.5"/>
<path d="M8.55425 18H11.5536V10.2793H7.94501V17.399C7.94501 17.7303 8.21844 18 8.55429 18H8.55425Z" fill="white" fill-opacity="0.5"/>
<path d="M10.5129 1.75098C10.3534 1.75098 10.2241 1.62335 10.2241 1.46608V0.284902C10.2241 0.127591 10.3535 0 10.5129 0C10.6724 0 10.8018 0.127633 10.8018 0.284902V1.46608C10.8018 1.62339 10.6724 1.75098 10.5129 1.75098Z" fill="white" fill-opacity="0.5"/>
<path d="M9.33163 2.24913C9.25754 2.24913 9.18382 2.22129 9.12742 2.16566L8.28083 1.33058C8.16799 1.21928 8.16799 1.03898 8.28083 0.927719C8.39367 0.816412 8.57645 0.816412 8.68925 0.927719L9.53585 1.76279C9.64869 1.8741 9.64869 2.05439 9.53585 2.16566C9.47945 2.22129 9.40573 2.24913 9.33163 2.24913Z" fill="white" fill-opacity="0.5"/>
<path d="M8.85326 3.42576H7.65617C7.49669 3.42576 7.36734 3.29813 7.36734 3.14086C7.36734 2.98359 7.49673 2.85596 7.65617 2.85596H8.85326C9.01274 2.85596 9.14209 2.98359 9.14209 3.14086C9.14209 3.29813 9.0127 3.42576 8.85326 3.42576Z" fill="white" fill-opacity="0.5"/>
</svg>
