<svg width="51" height="53" viewBox="0 0 51 53" fill="none" xmlns="http://www.w3.org/2000/svg">
<g filter="url(#filter0_f_227_1143)">
<path d="M32.4897 20.4988V32.4981C32.4923 33.0254 32.2855 33.5322 31.9145 33.907C31.5436 34.2818 31.039 34.4939 30.5117 34.4968C30.4297 34.4973 30.3478 34.4929 30.2663 34.4834C29.7742 34.4104 29.3257 34.16 29.0052 33.7794C28.6848 33.3988 28.5145 32.9142 28.5263 32.4168V20.5801C28.5146 20.0822 28.6853 19.5972 29.0065 19.2165C29.3276 18.8358 29.7769 18.5857 30.2697 18.5134C30.5493 18.4808 30.8326 18.5078 31.1009 18.5928C31.3692 18.6778 31.6165 18.8188 31.8263 19.0065C32.036 19.1942 32.2036 19.4242 32.3179 19.6815C32.4321 19.9387 32.4911 20.2173 32.4897 20.4988ZM20.0183 30.5368C19.7551 30.5319 19.4934 30.5796 19.2488 30.677C19.0041 30.7745 18.7813 30.9197 18.5934 31.1041C18.4055 31.2886 18.2563 31.5087 18.1544 31.7516C18.0525 31.9944 18 32.2551 18 32.5184C18 32.7818 18.0525 33.0425 18.1544 33.2853C18.2563 33.5281 18.4055 33.7482 18.5934 33.9327C18.7813 34.1172 19.0041 34.2624 19.2488 34.3598C19.4934 34.4572 19.7551 34.5049 20.0183 34.5001C20.5376 34.4906 21.0324 34.2776 21.3963 33.907C21.7601 33.5364 21.964 33.0378 21.964 32.5184C21.964 31.9991 21.7601 31.5004 21.3963 31.1299C21.0324 30.7593 20.5376 30.5463 20.0183 30.5368ZM25.2663 24.5301H25.233C24.7039 24.559 24.2069 24.7927 23.847 25.1817C23.4872 25.5706 23.2928 26.0844 23.305 26.6141V31.9374C23.305 33.3821 23.941 34.2588 24.8717 34.4461C25.1605 34.5047 25.4587 34.4982 25.7447 34.4272C26.0306 34.3562 26.2972 34.2225 26.5251 34.0357C26.753 33.8488 26.9364 33.6136 27.0621 33.3471C27.1877 33.0806 27.2525 32.7894 27.2517 32.4948V26.5221C27.2521 26.2609 27.2011 26.0023 27.1016 25.7608C27.002 25.5194 26.8559 25.2999 26.6716 25.1149C26.4872 24.9299 26.2682 24.7831 26.0271 24.6827C25.786 24.5824 25.5275 24.5305 25.2663 24.5301Z" fill="#00FD40" fill-opacity="0.7"/>
</g>
<g clip-path="url(#clip0_227_1143)">
<path d="M32.2267 20.4988V32.4981C32.2294 33.0254 32.0225 33.5322 31.6516 33.907C31.2807 34.2818 30.7761 34.4939 30.2487 34.4968C30.1668 34.4973 30.0848 34.4929 30.0034 34.4834C29.5112 34.4104 29.0627 34.16 28.7423 33.7794C28.4218 33.3988 28.2515 32.9142 28.2634 32.4168V20.5801C28.2516 20.0822 28.4224 19.5972 28.7435 19.2165C29.0647 18.8358 29.514 18.5857 30.0067 18.5134C30.2863 18.4808 30.5696 18.5078 30.838 18.5928C31.1063 18.6778 31.3535 18.8188 31.5633 19.0065C31.7731 19.1942 31.9407 19.4242 32.0549 19.6815C32.1692 19.9387 32.2282 20.2173 32.2267 20.4988ZM19.7554 30.5368C19.4921 30.5319 19.2305 30.5796 18.9858 30.677C18.7412 30.7745 18.5184 30.9197 18.3305 31.1041C18.1426 31.2886 17.9933 31.5087 17.8914 31.7516C17.7895 31.9944 17.7371 32.2551 17.7371 32.5184C17.7371 32.7818 17.7895 33.0425 17.8914 33.2853C17.9933 33.5281 18.1426 33.7482 18.3305 33.9327C18.5184 34.1172 18.7412 34.2624 18.9858 34.3598C19.2305 34.4572 19.4921 34.5049 19.7554 34.5001C20.2747 34.4906 20.7695 34.2776 21.1333 33.907C21.4972 33.5364 21.7011 33.0378 21.7011 32.5184C21.7011 31.9991 21.4972 31.5004 21.1333 31.1299C20.7695 30.7593 20.2747 30.5463 19.7554 30.5368ZM25.0034 24.5301H24.9701C24.441 24.559 23.9439 24.7927 23.5841 25.1817C23.2242 25.5706 23.0299 26.0844 23.0421 26.6141V31.9374C23.0421 33.3821 23.6781 34.2588 24.6087 34.4461C24.8975 34.5047 25.1957 34.4982 25.4817 34.4272C25.7677 34.3562 26.0343 34.2225 26.2622 34.0357C26.49 33.8488 26.6735 33.6136 26.7991 33.3471C26.9248 33.0806 26.9896 32.7894 26.9887 32.4948V26.5221C26.9892 26.2609 26.9382 26.0023 26.8386 25.7608C26.7391 25.5194 26.593 25.2999 26.4086 25.1149C26.2243 24.9299 26.0053 24.7831 25.7642 24.6827C25.5231 24.5824 25.2646 24.5305 25.0034 24.5301Z" fill="#80EF80"/>
</g>
<defs>
<filter id="filter0_f_227_1143" x="0" y="0.5" width="50.4897" height="52.0005" filterUnits="userSpaceOnUse" color-interpolation-filters="sRGB">
<feFlood flood-opacity="0" result="BackgroundImageFix"/>
<feBlend mode="normal" in="SourceGraphic" in2="BackgroundImageFix" result="shape"/>
<feGaussianBlur stdDeviation="9" result="effect1_foregroundBlur_227_1143"/>
</filter>
<clipPath id="clip0_227_1143">
<rect width="16" height="16" fill="white" transform="translate(17 18.5)"/>
</clipPath>
</defs>
</svg>
