<svg width="18" height="18" viewBox="0 0 18 18" fill="none" xmlns="http://www.w3.org/2000/svg">
<path d="M8.95499 14.4C9.26999 14.4 9.53639 14.2911 9.75419 14.0733C9.97199 13.8555 10.0806 13.5894 10.08 13.275C10.0794 12.9606 9.97079 12.6942 9.75419 12.4758C9.53759 12.2574 9.27119 12.1488 8.95499 12.15C8.63879 12.1512 8.37269 12.2601 8.1567 12.4767C7.9407 12.6933 7.8318 12.9594 7.83 13.275C7.8282 13.5906 7.9371 13.857 8.1567 14.0742C8.3763 14.2914 8.6424 14.4 8.95499 14.4ZM8.99999 18C7.755 18 6.585 17.7636 5.49 17.2908C4.395 16.818 3.4425 16.1769 2.6325 15.3675C1.8225 14.5581 1.1814 13.6056 0.709201 12.51C0.237001 11.4144 0.000601139 10.2444 1.13924e-06 9C-0.00059886 7.7556 0.235801 6.5856 0.709201 5.49C1.1826 4.3944 1.8237 3.4419 2.6325 2.6325C3.4413 1.8231 4.3938 1.182 5.49 0.7092C6.5862 0.2364 7.7562 0 8.99999 0C10.2438 0 11.4138 0.2364 12.51 0.7092C13.6062 1.182 14.5587 1.8231 15.3675 2.6325C16.1763 3.4419 16.8177 4.3944 17.2917 5.49C17.7657 6.5856 18.0018 7.7556 18 9C17.9982 10.2444 17.7618 11.4144 17.2908 12.51C16.8198 13.6056 16.1787 14.5581 15.3675 15.3675C14.5563 16.1769 13.6038 16.8183 12.51 17.2917C11.4162 17.7651 10.2462 18.0012 8.99999 18ZM9.09 5.13C9.46499 5.13 9.79139 5.25 10.0692 5.49C10.347 5.73 10.4856 6.03 10.485 6.39C10.485 6.72 10.3839 7.0125 10.1817 7.2675C9.97949 7.5225 9.75059 7.7625 9.49499 7.9875C9.14999 8.2875 8.84639 8.6175 8.5842 8.9775C8.32199 9.3375 8.1906 9.7425 8.19 10.1925C8.19 10.4025 8.2689 10.5789 8.42669 10.7217C8.58449 10.8645 8.7681 10.9356 8.9775 10.935C9.20249 10.935 9.39389 10.86 9.55169 10.71C9.70949 10.56 9.81059 10.3725 9.85499 10.1475C9.91499 9.8325 10.05 9.5514 10.26 9.3042C10.47 9.057 10.695 8.8206 10.935 8.595C11.28 8.265 11.5764 7.905 11.8242 7.515C12.072 7.125 12.1956 6.69 12.195 6.21C12.195 5.445 11.8839 4.8189 11.2617 4.3317C10.6395 3.8445 9.91559 3.6006 9.09 3.6C8.52 3.6 7.9764 3.72 7.4592 3.96C6.942 4.2 6.5481 4.5675 6.2775 5.0625C6.1725 5.2425 6.1389 5.4339 6.1767 5.6367C6.2145 5.8395 6.3156 5.9931 6.48 6.0975C6.69 6.2175 6.9075 6.255 7.1325 6.21C7.3575 6.165 7.545 6.0375 7.695 5.8275C7.86 5.6025 8.06639 5.43 8.31419 5.31C8.56199 5.19 8.82059 5.13 9.09 5.13Z" fill="#827EAD"/>
</svg>
