<svg width="20" height="16" viewBox="0 0 20 16" fill="none" xmlns="http://www.w3.org/2000/svg">
<path d="M18 1.00268e-07C18.5046 -0.000159579 18.9906 0.190406 19.3605 0.533497C19.7305 0.876588 19.9572 1.34684 19.995 1.85L20 2V14C20.0002 14.5046 19.8096 14.9906 19.4665 15.3605C19.1234 15.7305 18.6532 15.9572 18.15 15.995L18 16H2C1.49542 16.0002 1.00943 15.8096 0.639452 15.4665C0.269471 15.1234 0.0428434 14.6532 0.00500021 14.15L1.00268e-07 14V2C-0.000159579 1.49542 0.190406 1.00943 0.533497 0.639452C0.876588 0.269471 1.34684 0.0428434 1.85 0.00500021L2 1.00268e-07H18ZM15 11H5C4.74512 11.0003 4.49997 11.0979 4.31463 11.2728C4.1293 11.4478 4.01777 11.687 4.00283 11.9414C3.98789 12.1958 4.07067 12.4464 4.23426 12.6418C4.39786 12.8373 4.6299 12.9629 4.883 12.993L5 13H15C15.2549 12.9997 15.5 12.9021 15.6854 12.7272C15.8707 12.5522 15.9822 12.313 15.9972 12.0586C16.0121 11.8042 15.9293 11.5536 15.7657 11.3582C15.6021 11.1627 15.3701 11.0371 15.117 11.007L15 11ZM10.5 7H9.5C9.24512 7.00028 8.99997 7.09788 8.81463 7.27285C8.6293 7.44782 8.51777 7.68695 8.50283 7.94139C8.48789 8.19584 8.57067 8.44638 8.73426 8.64183C8.89785 8.83729 9.1299 8.9629 9.383 8.993L9.5 9H10.5C10.7549 8.99972 11 8.90212 11.1854 8.72715C11.3707 8.55218 11.4822 8.31305 11.4972 8.05861C11.5121 7.80416 11.4293 7.55362 11.2657 7.35817C11.1021 7.16271 10.8701 7.0371 10.617 7.007L10.5 7ZM6 7H5C4.73478 7 4.48043 7.10536 4.29289 7.29289C4.10536 7.48043 4 7.73478 4 8C4 8.26522 4.10536 8.51957 4.29289 8.70711C4.48043 8.89464 4.73478 9 5 9H6C6.26522 9 6.51957 8.89464 6.70711 8.70711C6.89464 8.51957 7 8.26522 7 8C7 7.73478 6.89464 7.48043 6.70711 7.29289C6.51957 7.10536 6.26522 7 6 7ZM15 7H14C13.7348 7 13.4804 7.10536 13.2929 7.29289C13.1054 7.48043 13 7.73478 13 8C13 8.26522 13.1054 8.51957 13.2929 8.70711C13.4804 8.89464 13.7348 9 14 9H15C15.2652 9 15.5196 8.89464 15.7071 8.70711C15.8946 8.51957 16 8.26522 16 8C16 7.73478 15.8946 7.48043 15.7071 7.29289C15.5196 7.10536 15.2652 7 15 7ZM15 3H14C13.7451 3.00028 13.5 3.09788 13.3146 3.27285C13.1293 3.44782 13.0178 3.68695 13.0028 3.94139C12.9879 4.19584 13.0707 4.44638 13.2343 4.64183C13.3979 4.83729 13.6299 4.9629 13.883 4.993L14 5H15C15.2549 4.99972 15.5 4.90212 15.6854 4.72715C15.8707 4.55218 15.9822 4.31305 15.9972 4.05861C16.0121 3.80416 15.9293 3.55362 15.7657 3.35817C15.6021 3.16271 15.3701 3.0371 15.117 3.007L15 3ZM10.5 3H9.5C9.23478 3 8.98043 3.10536 8.79289 3.29289C8.60536 3.48043 8.5 3.73478 8.5 4C8.5 4.26522 8.60536 4.51957 8.79289 4.70711C8.98043 4.89464 9.23478 5 9.5 5H10.5C10.7652 5 11.0196 4.89464 11.2071 4.70711C11.3946 4.51957 11.5 4.26522 11.5 4C11.5 3.73478 11.3946 3.48043 11.2071 3.29289C11.0196 3.10536 10.7652 3 10.5 3ZM6 3H5C4.73478 3 4.48043 3.10536 4.29289 3.29289C4.10536 3.48043 4 3.73478 4 4C4 4.26522 4.10536 4.51957 4.29289 4.70711C4.48043 4.89464 4.73478 5 5 5H6C6.26522 5 6.51957 4.89464 6.70711 4.70711C6.89464 4.51957 7 4.26522 7 4C7 3.73478 6.89464 3.48043 6.70711 3.29289C6.51957 3.10536 6.26522 3 6 3Z" fill="#827EAD"/>
</svg>
