<svg width="18" height="18" viewBox="0 0 18 18" fill="none" xmlns="http://www.w3.org/2000/svg">
<path fill-rule="evenodd" clip-rule="evenodd" d="M1.24615 0C0.915653 0 0.598689 0.131291 0.36499 0.36499C0.131291 0.598689 0 0.915653 0 1.24615V16.7538C0 17.4425 0.557538 18 1.24615 18H16.7538C16.9175 18 17.0795 17.9678 17.2307 17.9051C17.3819 17.8425 17.5193 17.7507 17.635 17.635C17.7507 17.5193 17.8425 17.3819 17.9051 17.2307C17.9678 17.0795 18 16.9175 18 16.7538V1.24615C18 1.08251 17.9678 0.920462 17.9051 0.769271C17.8425 0.618081 17.7507 0.480706 17.635 0.36499C17.5193 0.249274 17.3819 0.157483 17.2307 0.0948579C17.0795 0.0322328 16.9175 0 16.7538 0H1.24615ZM13.3846 5.30769C13.3846 5.12408 13.3117 4.94799 13.1818 4.81816C13.052 4.68832 12.8759 4.61538 12.6923 4.61538C12.5087 4.61538 12.3326 4.68832 12.2028 4.81816C12.0729 4.94799 12 5.12408 12 5.30769V12.6923C12 12.8759 12.0729 13.052 12.2028 13.1818C12.3326 13.3117 12.5087 13.3846 12.6923 13.3846C12.8759 13.3846 13.052 13.3117 13.1818 13.1818C13.3117 13.052 13.3846 12.8759 13.3846 12.6923V5.30769ZM9 7.38462C9.18361 7.38462 9.3597 7.45756 9.48954 7.58739C9.61937 7.71722 9.69231 7.89331 9.69231 8.07692V12.6923C9.69231 12.8759 9.61937 13.052 9.48954 13.1818C9.3597 13.3117 9.18361 13.3846 9 13.3846C8.81639 13.3846 8.6403 13.3117 8.51046 13.1818C8.38063 13.052 8.30769 12.8759 8.30769 12.6923V8.07692C8.30769 7.89331 8.38063 7.71722 8.51046 7.58739C8.6403 7.45756 8.81639 7.38462 9 7.38462ZM6 9.92308C6 9.73947 5.92706 9.56337 5.79723 9.43354C5.66739 9.30371 5.4913 9.23077 5.30769 9.23077C5.12408 9.23077 4.94799 9.30371 4.81816 9.43354C4.68832 9.56337 4.61538 9.73947 4.61538 9.92308V12.6923C4.61538 12.8759 4.68832 13.052 4.81816 13.1818C4.94799 13.3117 5.12408 13.3846 5.30769 13.3846C5.4913 13.3846 5.66739 13.3117 5.79723 13.1818C5.92706 13.052 6 12.8759 6 12.6923V9.92308Z" fill="#827EAD"/>
</svg>
