<svg width="21" height="18" viewBox="0 0 21 18" fill="none" xmlns="http://www.w3.org/2000/svg">
<path fill-rule="evenodd" clip-rule="evenodd" d="M17.97 3.97023C18.1106 3.82978 18.3012 3.75089 18.5 3.75089C18.6988 3.75089 18.8894 3.82978 19.03 3.97023L19.032 3.97223L19.035 3.97423L19.042 3.98123L19.062 4.00123L19.124 4.07023C19.174 4.12723 19.244 4.20823 19.325 4.31123C20.249 5.5122 20.75 6.98495 20.75 8.50023C20.75 10.0155 20.249 11.4883 19.325 12.6892C19.2412 12.7961 19.1532 12.8995 19.061 12.9992L19.041 13.0192L19.035 13.0262L19.032 13.0282L19.031 13.0292L18.521 12.5212L19.031 13.0312C18.8903 13.1719 18.6995 13.251 18.5005 13.251C18.3015 13.251 18.1107 13.1719 17.97 13.0312C17.8293 12.8905 17.7503 12.6997 17.7503 12.5007C17.7503 12.3018 17.8293 12.1109 17.97 11.9702L17.969 11.9712L17.967 11.9722L17.972 11.9672L18.005 11.9312C18.037 11.8966 18.0833 11.8409 18.144 11.7642C18.7766 10.9384 19.1558 9.94651 19.2353 8.90922C19.3148 7.87194 19.0913 6.83389 18.592 5.92123C18.4616 5.68103 18.3118 5.45193 18.144 5.23623C18.0897 5.16605 18.0323 5.09832 17.972 5.03323L17.967 5.02823C17.8276 4.88729 17.7496 4.69687 17.7502 4.49861C17.7507 4.30035 17.8298 4.11037 17.97 3.97023ZM12.037 0.396228C13.2 -0.370772 14.75 0.464228 14.75 1.85723V16.1432C14.75 17.5372 13.2 18.3712 12.037 17.6042L6.037 13.6492C5.99641 13.6222 5.94879 13.6076 5.9 13.6072H3C2.27065 13.6072 1.57118 13.3175 1.05546 12.8018C0.539731 12.286 0.25 11.5866 0.25 10.8572V7.14323C0.25 6.41388 0.539731 5.71441 1.05546 5.19868C1.57118 4.68296 2.27065 4.39323 3 4.39323H5.9C5.94903 4.39339 5.99701 4.37913 6.038 4.35223L12.037 0.396228Z" fill="#827EAD"/>
</svg>
