<svg width="18" height="14" viewBox="0 0 18 14" fill="none" xmlns="http://www.w3.org/2000/svg">
<path d="M2.7 6C3.69281 6 4.5 5.10313 4.5 4C4.5 2.89687 3.69281 2 2.7 2C1.70719 2 0.9 2.89687 0.9 4C0.9 5.10313 1.70719 6 2.7 6ZM15.3 6C16.2928 6 17.1 5.10313 17.1 4C17.1 2.89687 16.2928 2 15.3 2C14.3072 2 13.5 2.89687 13.5 4C13.5 5.10313 14.3072 6 15.3 6ZM16.2 7H14.4C13.905 7 13.4578 7.22188 13.1316 7.58125C14.265 8.27188 15.0694 9.51875 15.2437 11H17.1C17.5978 11 18 10.5531 18 10V9C18 7.89687 17.1928 7 16.2 7ZM9 7C10.7409 7 12.15 5.43437 12.15 3.5C12.15 1.56562 10.7409 0 9 0C7.25906 0 5.85 1.56562 5.85 3.5C5.85 5.43437 7.25906 7 9 7ZM11.16 8H10.9266C10.3416 8.3125 9.69187 8.5 9 8.5C8.30812 8.5 7.66125 8.3125 7.07344 8H6.84C5.05125 8 3.6 9.6125 3.6 11.6V12.5C3.6 13.3281 4.20469 14 4.95 14H13.05C13.7953 14 14.4 13.3281 14.4 12.5V11.6C14.4 9.6125 12.9487 8 11.16 8ZM4.86844 7.58125C4.54219 7.22188 4.095 7 3.6 7H1.8C0.807187 7 0 7.89687 0 9V10C0 10.5531 0.402187 11 0.9 11H2.75344C2.93062 9.51875 3.735 8.27188 4.86844 7.58125Z" fill="#827EAD"/>
</svg>
