<svg width="16" height="17" viewBox="0 0 16 17" fill="none" xmlns="http://www.w3.org/2000/svg">
<g clip-path="url(#clip0_1158_19792)">
<path d="M8 16.5C12.4185 16.5 16 12.9185 16 8.5C16 4.0815 12.4185 0.5 8 0.5C3.5815 0.5 0 4.0815 0 8.5C0 12.9185 3.5815 16.5 8 16.5Z" fill="#0AC18E"/>
<path d="M10.4954 5.81333C10.0934 4.90133 9.16945 4.70633 8.03845 4.89533L7.67495 3.48633L6.81845 3.70733L7.17545 5.11233C6.95045 5.16933 6.71895 5.21833 6.48945 5.28333L6.13195 3.88633L5.27495 4.10733L5.63845 5.51683C5.45345 5.56933 3.90845 5.96533 3.90845 5.96533L4.14395 6.88333C4.14395 6.88333 4.77395 6.70633 4.76745 6.72083C5.11695 6.62933 5.28145 6.80383 5.35845 6.96833L6.35745 10.8303C6.36945 10.9418 6.34945 11.1328 6.10945 11.1978C6.12395 11.2058 5.48645 11.3578 5.48645 11.3578L5.57945 12.4278C5.57945 12.4278 7.11045 12.0363 7.31145 11.9858L7.67945 13.4108L8.53595 13.1898L8.16845 11.7543C8.40411 11.6993 8.63361 11.6425 8.85695 11.5838L9.22195 13.0108L10.0794 12.7898L9.71195 11.3663C11.0314 11.0453 11.9634 10.2128 11.7724 8.93983C11.6509 8.17233 10.8124 7.54283 10.1159 7.47183C10.5439 7.09183 10.7609 6.53833 10.4954 5.81333ZM10.0834 9.17283C10.2534 10.4338 8.50145 10.5878 7.92295 10.7403L7.41945 8.85433C7.99995 8.70183 9.79445 8.06233 10.0834 9.17283ZM9.02745 6.60433C9.20795 7.72533 7.70945 7.85533 7.22645 7.97933L6.76745 6.26733C7.25245 6.14733 8.65995 5.56733 9.02745 6.60433Z" fill="white"/>
</g>
<defs>
<clipPath id="clip0_1158_19792">
<rect width="16" height="16" fill="white" transform="translate(0 0.5)"/>
</clipPath>
</defs>
</svg>
