<svg width="16" height="17" viewBox="0 0 16 17" fill="none" xmlns="http://www.w3.org/2000/svg">
<g clip-path="url(#clip0_1158_19780)">
<mask id="mask0_1158_19780" style="mask-type:luminance" maskUnits="userSpaceOnUse" x="0" y="0" width="16" height="17">
<path d="M0 0.5H16V16.5H0V0.5Z" fill="white"/>
</mask>
<g mask="url(#mask0_1158_19780)">
<path d="M15.7574 10.435C15.5036 11.4545 15.0514 12.4139 14.4268 13.2586C13.8021 14.1034 13.0172 14.8168 12.1169 15.3581C11.2165 15.8995 10.2183 16.2582 9.17934 16.4138C8.14035 16.5694 7.08088 16.5189 6.06143 16.265C5.04197 16.0112 4.0825 15.559 3.2378 14.9344C2.39309 14.3097 1.67968 13.5248 1.13832 12.6245C0.596953 11.7241 0.238227 10.7259 0.0826222 9.68693C-0.0729827 8.64794 -0.0224191 7.58847 0.231426 6.56902C0.74409 4.51014 2.05364 2.73925 3.87199 1.64591C5.69035 0.552574 7.86855 0.226355 9.92743 0.739019C11.9863 1.25168 13.7572 2.56123 14.8505 4.37959C15.9439 6.19794 16.2701 8.37614 15.7574 10.435Z" fill="#F7931A"/>
<path d="M11.525 7.36011C11.685 6.29711 10.875 5.72511 9.77496 5.34211L10.1325 3.89961L9.25496 3.68211L8.90496 5.08461C8.67496 5.02711 8.43746 4.97461 8.20246 4.91961L8.55496 3.50711L7.67746 3.28711L7.31746 4.72961L6.75746 4.59711L5.54496 4.29461L5.31246 5.23211C5.31246 5.23211 5.96246 5.38211 5.94996 5.39211C6.06956 5.40657 6.17896 5.46664 6.25534 5.5598C6.33173 5.65295 6.36921 5.772 6.35996 5.89211L5.94996 7.53461C5.98029 7.54261 6.01029 7.55261 6.03996 7.56461L5.94746 7.54211L5.37496 9.84211C5.3491 9.9231 5.2923 9.9906 5.21692 10.0299C5.14154 10.0693 5.05369 10.0772 4.97246 10.0521C4.97246 10.0646 4.33246 9.89211 4.33246 9.89211L3.89746 10.8921L5.03996 11.1771L5.66496 11.3371L5.30246 12.7971L6.17996 13.0146L6.53996 11.5721C6.77729 11.6368 7.00979 11.6976 7.23746 11.7546L6.87996 13.1896L7.75746 13.4096L8.11996 11.9521C9.61996 12.2371 10.7425 12.1221 11.2175 10.7671C11.5975 9.67961 11.1975 9.04961 10.41 8.63961C10.98 8.51711 11.41 8.14011 11.525 7.36011ZM9.52496 10.1716C9.25496 11.2616 7.41996 10.6716 6.82496 10.5241L7.30496 8.59161C7.89496 8.74161 9.80496 9.03661 9.51996 10.1716H9.52496ZM9.79246 7.33911C9.54246 8.33911 8.01746 7.83911 7.52246 7.70411L7.95746 5.95411C8.45496 6.08911 10.05 6.30911 9.79246 7.33911Z" fill="white"/>
</g>
</g>
<defs>
<clipPath id="clip0_1158_19780">
<rect width="16" height="16" fill="white" transform="translate(0 0.5)"/>
</clipPath>
</defs>
</svg>
