<svg width="16" height="17" viewBox="0 0 16 17" fill="none" xmlns="http://www.w3.org/2000/svg">
<g clip-path="url(#clip0_1158_19858)">
<path d="M8 16.5C12.4183 16.5 16 12.9183 16 8.5C16 4.08172 12.4183 0.5 8 0.5C3.58172 0.5 0 4.08172 0 8.5C0 12.9183 3.58172 16.5 8 16.5Z" fill="#627EEA"/>
<path d="M8.24902 2.5V6.935L11.9975 8.61L8.24902 2.5Z" fill="white" fill-opacity="0.602"/>
<path d="M8.249 2.5L4.5 8.61L8.249 6.935V2.5Z" fill="white"/>
<path d="M8.24902 11.4846V14.4981L12 9.30859L8.24902 11.4846Z" fill="white" fill-opacity="0.602"/>
<path d="M8.249 14.4981V11.4841L4.5 9.30859L8.249 14.4981Z" fill="white"/>
<path d="M8.24902 10.786L11.9975 8.60955L8.24902 6.93555V10.786Z" fill="white" fill-opacity="0.2"/>
<path d="M4.5 8.60955L8.249 10.786V6.93555L4.5 8.60955Z" fill="white" fill-opacity="0.602"/>
</g>
<defs>
<clipPath id="clip0_1158_19858">
<rect width="16" height="16" fill="white" transform="translate(0 0.5)"/>
</clipPath>
</defs>
</svg>
