<svg width="16" height="17" viewBox="0 0 16 17" fill="none" xmlns="http://www.w3.org/2000/svg">
<g clip-path="url(#clip0_1158_20818)">
<path d="M8 16.5C12.4183 16.5 16 12.9183 16 8.5C16 4.08172 12.4183 0.5 8 0.5C3.58172 0.5 0 4.08172 0 8.5C0 12.9183 3.58172 16.5 8 16.5Z" fill="#0F8FF8"/>
<path fill-rule="evenodd" clip-rule="evenodd" d="M4 10.002L4.405 9H4.8335C4.8223 8.82856 4.81664 8.65681 4.8165 8.485C4.8165 8.26133 4.82583 8.053 4.8445 7.86H4L4.405 6.8585H5.042C5.63533 4.95283 6.97183 4 9.0515 4C9.73483 4 10.3843 4.08867 11 4.266V5.528C10.4208 5.26886 9.79297 5.13657 9.1585 5.14C7.91183 5.14 7.11017 5.713 6.7535 6.859H10.465L10.06 7.8605H6.5115C6.49036 8.02546 6.481 8.19171 6.4835 8.358C6.4835 8.59733 6.491 8.8115 6.506 9.0005H9.5975L9.1975 10.002H6.72C6.98667 10.6963 7.3115 11.1797 7.6945 11.452C8.07717 11.724 8.62333 11.86 9.333 11.86C9.83967 11.86 10.3953 11.7365 11 11.4895V12.676C10.4257 12.892 9.74233 13 8.95 13C6.86633 13 5.54867 12.0007 4.997 10.002H4Z" fill="white"/>
</g>
<defs>
<clipPath id="clip0_1158_20818">
<rect width="16" height="16" fill="white" transform="translate(0 0.5)"/>
</clipPath>
</defs>
</svg>
