<svg width="16" height="17" viewBox="0 0 16 17" fill="none" xmlns="http://www.w3.org/2000/svg">
<g clip-path="url(#clip0_1158_19788)">
<path d="M8.0049 0.544922C3.6099 0.544922 0.0458984 4.10842 0.0458984 8.50392C0.0458984 12.8989 3.6094 16.4624 8.0049 16.4624C12.3999 16.4624 15.9634 12.8989 15.9634 8.50392C15.9549 4.10892 12.3999 0.544922 8.0049 0.544922Z" fill="#345D9D"/>
<path d="M8.12349 8.7598L7.30099 11.5558H11.724C11.879 11.5558 11.9795 11.7023 11.943 11.8483L11.5595 13.1733C11.541 13.2366 11.5025 13.2922 11.4498 13.3317C11.397 13.3713 11.3329 13.3927 11.267 13.3928H4.50499L5.64699 9.5278L4.38599 9.9203L4.66049 9.0063L5.93049 8.6138L7.53849 3.1858C7.55706 3.1226 7.59559 3.06712 7.64831 3.02765C7.70104 2.98817 7.76512 2.96682 7.83099 2.9668H9.53999C9.69499 2.9668 9.79549 3.1128 9.75899 3.2588L8.39749 7.8463L9.65849 7.4533L9.38449 8.3763L8.12349 8.7598Z" fill="white"/>
</g>
<defs>
<clipPath id="clip0_1158_19788">
<rect width="16" height="16" fill="white" transform="translate(0 0.5)"/>
</clipPath>
</defs>
</svg>
