<svg width="16" height="17" viewBox="0 0 16 17" fill="none" xmlns="http://www.w3.org/2000/svg">
<g clip-path="url(#clip0_1158_19670)">
<mask id="mask0_1158_19670" style="mask-type:luminance" maskUnits="userSpaceOnUse" x="0" y="0" width="16" height="17">
<path d="M0 0.5H16V16.5H0V0.5Z" fill="white"/>
</mask>
<g mask="url(#mask0_1158_19670)">
<path d="M8 0.5C12.418 0.5 16 4.082 16 8.5C16 12.918 12.418 16.5 8 16.5C3.582 16.5 0 12.9193 0 8.5C0 4.08067 3.58133 0.5 8 0.5Z" fill="#53AE94"/>
<path d="M7.75808 13.8327V3.16602H8.44141V13.8327H7.75808ZM9.57141 6.68668C9.53808 6.35068 9.39475 6.08935 9.14208 5.90335C8.88875 5.71735 8.54608 5.62468 8.11275 5.62468C7.81808 5.62468 7.56941 5.66602 7.36675 5.74935C7.16408 5.82935 7.00808 5.94268 6.90008 6.08668C6.79529 6.22912 6.73982 6.40186 6.74208 6.57868C6.73608 6.73135 6.76875 6.86468 6.83741 6.97868C6.91008 7.09202 7.00808 7.19135 7.13341 7.27468C7.25875 7.35468 7.40275 7.42602 7.56675 7.48668C7.73075 7.54535 7.90541 7.59535 8.09141 7.63668L8.85808 7.82002C9.23075 7.90335 9.57208 8.01468 9.88341 8.15335C10.1947 8.29268 10.4634 8.46335 10.6921 8.66602C10.9194 8.86868 11.0961 9.10735 11.2207 9.38268C11.3487 9.65802 11.4141 9.97268 11.4167 10.3287C11.4141 10.8507 11.2807 11.3033 11.0167 11.6867C10.7554 12.0673 10.3781 12.3633 9.88341 12.5747C9.39208 12.7827 8.79875 12.8867 8.10408 12.8867C7.41541 12.8867 6.81541 12.7813 6.30408 12.57C5.79608 12.3593 5.39875 12.0467 5.11275 11.6327C4.82941 11.216 4.68075 10.7007 4.66675 10.0867H6.41275C6.43208 10.3733 6.51408 10.612 6.65875 10.8033C6.80541 10.9927 7.00141 11.1353 7.24541 11.2327C7.49341 11.3273 7.77208 11.374 8.08341 11.374C8.38875 11.374 8.65408 11.33 8.87942 11.2407C9.10675 11.152 9.28342 11.0287 9.40808 10.87C9.53342 10.712 9.59608 10.53 9.59608 10.3247C9.59608 10.1327 9.53875 9.97135 9.42475 9.84068C9.31408 9.71068 9.15008 9.59935 8.93341 9.50735C8.67832 9.40244 8.41497 9.31882 8.14608 9.25735L7.21675 9.02401C6.49675 8.84935 5.92941 8.57602 5.51275 8.20402C5.09608 7.83068 4.88875 7.33002 4.89208 6.69935C4.88875 6.18268 5.02675 5.73135 5.30408 5.34535C5.58475 4.95868 5.96941 4.65735 6.45808 4.44068C6.94741 4.22468 7.50275 4.11602 8.12475 4.11602C8.75808 4.11602 9.31142 4.22468 9.78341 4.44068C10.2581 4.65735 10.6281 4.95935 10.8914 5.34535C11.1554 5.73135 11.2914 6.17868 11.3001 6.68668H9.57075H9.57141Z" fill="white"/>
</g>
</g>
<defs>
<clipPath id="clip0_1158_19670">
<rect width="16" height="16" fill="white" transform="translate(0 0.5)"/>
</clipPath>
</defs>
</svg>
