<svg width="16" height="17" viewBox="0 0 16 17" fill="none" xmlns="http://www.w3.org/2000/svg">
<path d="M8 16.5C12.4183 16.5 16 12.9183 16 8.5C16 4.08172 12.4183 0.5 8 0.5C3.58172 0.5 0 4.08172 0 8.5C0 12.9183 3.58172 16.5 8 16.5Z" fill="#329C13"/>
<path fill-rule="evenodd" clip-rule="evenodd" d="M11.25 10.077C11.25 11.362 10.207 12.215 8.667 12.3435V13.5H7.612V12.332C6.57037 12.2144 5.5807 11.8143 4.75 11.175L5.526 10.112C6.2175 10.6495 6.872 11 7.6605 11.117V8.827C5.89 8.383 5.0655 7.7405 5.0655 6.4205C5.0655 5.159 6.096 4.2945 7.612 4.1775V3.5H8.667V4.201C9.49151 4.29282 10.2776 4.59897 10.947 5.089L10.2675 6.187C9.734 5.8015 9.1885 5.556 8.6185 5.4395V7.659C10.462 8.103 11.25 8.8155 11.25 10.077ZM7.66 7.4135V5.3575C6.8965 5.416 6.4965 5.825 6.4965 6.339C6.4965 6.829 6.7265 7.145 7.6605 7.414L7.66 7.4135ZM9.819 10.1585C9.819 9.6335 9.564 9.318 8.6185 9.049V11.164C9.3825 11.105 9.819 10.7195 9.819 10.159V10.1585Z" fill="white"/>
</svg>
