<svg viewBox="0 0 18 16" fill="none" xmlns="http://www.w3.org/2000/svg">
<path d="M0 3.91263V14.7126C0 15.2094 0.403 15.6126 0.9 15.6126H3.2626V3.01263H0.9C0.403 3.01263 0 3.41563 0 3.91263Z" fill="currentColor"/>
<path d="M17.1 3.01263H14.7376V15.6126H17.1C17.5968 15.6126 18 15.2094 18 14.7126V3.91263C18 3.41563 17.5968 3.01263 17.1 3.01263Z" fill="currentColor"/>
<path d="M12.6 2.78767C12.6 2.66327 12.4994 2.56267 12.375 2.56267H12.2624V1.66267C12.2624 0.856273 11.6064 0.200073 10.7998 0.200073H7.20001C6.39361 0.200073 5.73741 0.856073 5.73741 1.66267V2.56267H5.62481C5.50041 2.56267 5.39981 2.66327 5.39981 2.78767V3.01267H4.38721V15.6127H13.6122V3.01267H12.6V2.78767ZM11.1378 2.56267H11.0252C10.9008 2.56267 10.8002 2.66327 10.8002 2.78767V3.01267H7.20001V2.78767C7.20001 2.66327 7.09941 2.56267 6.97501 2.56267H6.86241V1.66267C6.86241 1.47967 7.01721 1.32507 7.20021 1.32507H10.8002C10.983 1.32507 11.1378 1.47947 11.1378 1.66267V2.56267Z" fill="currentColor"/>
</svg>
