<svg viewBox="0 0 16 16" fill="none" xmlns="http://www.w3.org/2000/svg">
<path d="M12.2312 9.07385C12.1314 9.20695 11.9983 9.30678 11.8984 9.43988C11.0333 10.305 9.80211 11.2035 8.57093 12.0021L9.70228 13.2332L9.23643 15.4627C9.13661 15.9285 9.76883 16.1947 10.035 15.8287L12.1314 12.967C12.5307 12.4346 12.6638 11.7691 12.5639 11.1369L12.2312 9.07385Z" fill="currentColor"/>
<path d="M0.518408 6.71126L2.74784 6.24541L3.97901 7.37676C4.77761 6.14558 5.67604 4.91441 6.54119 4.04926C6.67429 3.91616 6.77411 3.81633 6.90721 3.71651L4.91071 3.38376C4.27849 3.28393 3.61299 3.45031 3.08059 3.81633L0.218933 5.91266C-0.213642 6.17886 0.0525581 6.81108 0.518408 6.71126Z" fill="currentColor"/>
<path d="M10.2013 6.57816C10.6974 6.57816 11.0997 6.17592 11.0997 5.67974C11.0997 5.18355 10.6974 4.78131 10.2013 4.78131C9.70507 4.78131 9.30283 5.18355 9.30283 5.67974C9.30283 6.17592 9.70507 6.57816 10.2013 6.57816Z" fill="currentColor"/>
<path d="M6.77402 4.28222C5.2101 5.84615 3.51307 8.74108 2.48154 10.305C2.21534 10.7043 2.28189 11.2034 2.61464 11.5362L3.4798 12.4013L4.4115 13.333C4.74425 13.6658 5.24337 13.7323 5.64267 13.4661C7.2066 12.4679 10.1015 10.7709 11.6655 9.20693C12.9299 7.94248 13.8283 6.51165 14.4938 5.14737L10.8336 1.48712C9.43602 2.11935 8.0052 3.05105 6.77402 4.28222ZM11.3993 4.48187C12.0648 5.14737 12.0648 6.21217 11.3993 6.87768C10.7338 7.54318 9.66895 7.54318 9.00345 6.87768C8.33795 6.21217 8.33795 5.14737 9.00345 4.48187C9.66895 3.81637 10.7338 3.81637 11.3993 4.48187Z" fill="currentColor"/>
<path d="M15.0598 0.0229738C14.1281 0.222624 12.6972 0.588649 11.1333 1.3207L14.6272 4.81458C15.326 3.25065 15.7253 1.81983 15.9249 0.888124C16.058 0.355724 15.5922 -0.110126 15.0598 0.0229738Z" fill="currentColor"/>
<path d="M2.01585 11.4031C1.98257 11.4031 1.9493 11.4031 1.91602 11.4031L0.451922 11.6693C0.218996 11.7026 0.152446 12.002 0.318821 12.1351L1.21725 12.8672L0.585022 15.0633C0.518472 15.263 0.718122 15.4626 0.917772 15.3961L3.11392 14.7639L3.84597 15.6623C3.97907 15.8287 4.27855 15.7621 4.31182 15.5292L4.57802 14.0318C4.57802 13.9985 4.57802 13.9653 4.57802 13.932L2.01585 11.4031Z" fill="currentColor"/>
</svg>
