<svg viewBox="0 0 41 37" fill="none" xmlns="http://www.w3.org/2000/svg">
<g filter="url(#filter0_d_73_36297)">
<path fill-rule="evenodd" clip-rule="evenodd" d="M15.9405 12H23.298C25.1097 12 26.6638 13.292 26.9947 15.0733L28.2227 21.6839C28.4643 22.9845 27.4661 24.1852 26.1433 24.1852H25.8347C24.8536 24.1852 24.0013 23.5104 23.7761 22.5555L23.3225 20.6314C23.1724 19.9948 22.6042 19.545 21.9501 19.545H17.2991C16.6531 19.545 16.0897 19.984 15.9319 20.6104L15.4337 22.587C15.1968 23.5267 14.3518 24.1852 13.3828 24.1852H13.1157C11.7954 24.1852 10.7978 22.9889 11.0351 21.6901L12.2417 15.0844C12.568 13.2979 14.1245 12 15.9405 12ZM15.3977 14.4959C15.5924 14.4959 15.7502 14.6537 15.7502 14.8484V15.7817H16.6835C16.8782 15.7817 17.036 15.9395 17.036 16.1342C17.036 16.3289 16.8782 16.4867 16.6835 16.4867H15.7502V17.4199C15.7502 17.6146 15.5924 17.7724 15.3977 17.7724C15.203 17.7724 15.0452 17.6146 15.0452 17.4199V16.4867H14.1119C13.9173 16.4867 13.7594 16.3289 13.7594 16.1342C13.7594 15.9395 13.9173 15.7817 14.1119 15.7817H15.0452V14.8484C15.0452 14.6537 15.203 14.4959 15.3977 14.4959ZM24.1689 14.7998C24.1689 14.4313 23.8701 14.1326 23.5016 14.1326C23.1331 14.1326 22.8343 14.4313 22.8343 14.7998C22.8343 15.1683 23.1331 15.4671 23.5016 15.4671C23.8701 15.4671 24.1689 15.1683 24.1689 14.7998ZM23.5016 16.8012C23.8701 16.8012 24.1689 17.1 24.1689 17.4685C24.1689 17.837 23.8701 18.1358 23.5016 18.1358C23.1331 18.1358 22.8343 17.837 22.8343 17.4685C22.8343 17.1 23.1331 16.8012 23.5016 16.8012ZM22.773 16.134C22.773 15.7655 22.4742 15.4667 22.1057 15.4667C21.7372 15.4667 21.4384 15.7655 21.4384 16.134C21.4384 16.5025 21.7372 16.8012 22.1057 16.8012C22.4742 16.8012 22.773 16.5025 22.773 16.134ZM24.8361 15.4667C25.2047 15.4667 25.5034 15.7655 25.5034 16.134C25.5034 16.5025 25.2047 16.8012 24.8361 16.8012C24.4676 16.8012 24.1688 16.5025 24.1688 16.134C24.1688 15.7655 24.4676 15.4667 24.8361 15.4667Z" fill="#5256FF"/>
</g>
<defs>
<filter id="filter0_d_73_36297" x="-0.999962" y="0" width="41.2589" height="36.1851" filterUnits="userSpaceOnUse" color-interpolation-filters="sRGB">
<feFlood flood-opacity="0" result="BackgroundImageFix"/>
<feColorMatrix in="SourceAlpha" type="matrix" values="0 0 0 0 0 0 0 0 0 0 0 0 0 0 0 0 0 0 127 0" result="hardAlpha"/>
<feOffset/>
<feGaussianBlur stdDeviation="6"/>
<feComposite in2="hardAlpha" operator="out"/>
<feColorMatrix type="matrix" values="0 0 0 0 0.302885 0 0 0 0 0.319003 0 0 0 0 1 0 0 0 0.32 0"/>
<feBlend mode="normal" in2="BackgroundImageFix" result="effect1_dropShadow_73_36297"/>
<feBlend mode="normal" in="SourceGraphic" in2="effect1_dropShadow_73_36297" result="shape"/>
</filter>
</defs>
</svg>
