<svg  viewBox="0 0 18 13" fill="none" xmlns="http://www.w3.org/2000/svg">
<path fill-rule="evenodd" clip-rule="evenodd" d="M4.9405 0H12.298C14.1097 0 15.6638 1.29203 15.9947 3.07331L17.2227 9.68389C17.4643 10.9845 16.4661 12.1852 15.1433 12.1852H14.8347C13.8536 12.1852 13.0013 11.5104 12.7761 10.5555L12.3225 8.63142C12.1724 7.9948 11.6042 7.54499 10.9501 7.54499H6.29908C5.65309 7.54499 5.08973 7.98399 4.93185 8.61041L4.43368 10.587C4.19684 11.5267 3.35181 12.1852 2.38281 12.1852H2.11566C0.795379 12.1852 -0.202173 10.9889 0.0350831 9.69011L1.24169 3.08438C1.56801 1.29793 3.12449 0 4.9405 0ZM4.3977 2.49587C4.59237 2.49587 4.7502 2.65369 4.7502 2.84837V3.78172H5.68348C5.87815 3.78172 6.03598 3.93954 6.03598 4.13422C6.03598 4.32889 5.87815 4.48672 5.68348 4.48672H4.7502V5.4199C4.7502 5.61458 4.59237 5.7724 4.3977 5.7724C4.203 5.7724 4.0452 5.61458 4.0452 5.4199V4.48672H3.11194C2.91727 4.48672 2.75944 4.32889 2.75944 4.13422C2.75944 3.93954 2.91727 3.78172 3.11194 3.78172H4.0452V2.84837C4.0452 2.65369 4.203 2.49587 4.3977 2.49587ZM13.1689 2.79982C13.1689 2.43129 12.8701 2.13256 12.5016 2.13256C12.1331 2.13256 11.8343 2.43129 11.8343 2.79982C11.8343 3.16834 12.1331 3.4671 12.5016 3.4671C12.8701 3.4671 13.1689 3.16834 13.1689 2.79982ZM12.5016 4.80122C12.8701 4.80122 13.1689 5.09997 13.1689 5.4685C13.1689 5.837 12.8701 6.13576 12.5016 6.13576C12.1331 6.13576 11.8343 5.837 11.8343 5.4685C11.8343 5.09997 12.1331 4.80122 12.5016 4.80122ZM11.773 4.13398C11.773 3.76546 11.4742 3.4667 11.1057 3.4667C10.7372 3.4667 10.4384 3.76546 10.4384 4.13398C10.4384 4.50251 10.7372 4.80124 11.1057 4.80124C11.4742 4.80124 11.773 4.50251 11.773 4.13398ZM13.8361 3.4667C14.2047 3.4667 14.5034 3.76546 14.5034 4.13398C14.5034 4.50251 14.2047 4.80124 13.8361 4.80124C13.4676 4.80124 13.1688 4.50251 13.1688 4.13398C13.1688 3.76546 13.4676 3.4667 13.8361 3.4667Z" fill="currentColor"/>
</svg>
