<svg viewBox="0 0 19 16" fill="none" xmlns="http://www.w3.org/2000/svg">
<path d="M18.04 9.42C18.04 7.4 14.54 5.74 10.06 5.56V5.62L10.12 6.02C12.48 6.16 14.5 6.74 15.6 7.56C16.18 8 16.52 8.48 16.52 9.02C16.52 9.24 16.46 9.44 16.36 9.64C16.2 9.94 15.94 10.22 15.58 10.48C14.32 11.4 11.9 12.02 9.11998 12.02C6.33998 12.02 3.91997 11.4 2.65997 10.48C2.29997 10.22 2.03997 9.94 1.87997 9.64C1.77997 9.44 1.71998 9.22 1.71998 9.02C1.71998 8.6 1.93998 8.2 2.31998 7.82C3.31998 6.86 5.49998 6.16 8.11998 6.02L8.17997 5.58C3.85997 5.82 0.499975 7.44 0.499975 9.42C0.499975 9.52 0.519976 9.62 0.519976 9.72C0.559976 9.98 0.659976 10.22 0.819976 10.46C0.819976 10.46 0.819977 10.48 0.839977 10.48C1.87998 12.1 5.25997 13.28 9.25997 13.28C12.32 13.28 15 12.6 16.56 11.54C15.08 12.86 12.12 13.74 8.69998 13.74C4.87997 13.74 1.63997 12.62 0.399975 11.06C0.859975 13.3 4.61997 15.04 9.17997 15.04C14.06 15.04 18.02 13.06 18.02 10.6C18.02 10.56 18.02 10.52 18.02 10.46V9.62H18C18.04 9.58 18.04 9.5 18.04 9.42Z" fill="currentColor"/>
<path d="M10.22 6.56L10.52 8.64C10.52 9.08 9.38002 9.29999 9.14002 9.29999C8.90002 9.29999 7.76002 9.08 7.76002 8.66L8.06002 6.56C5.92002 6.76 4.32002 7.55999 4.32002 8.49999C4.32002 8.91999 4.64002 9.32 5.20002 9.64C6.08002 10.14 7.52002 10.48 9.14002 10.48C10.76 10.48 12.2 10.14 13.08 9.64C13.64 9.32 13.96 8.91999 13.96 8.49999C13.96 7.55999 12.36 6.76 10.22 6.56Z" fill="currentColor"/>
<path d="M6.18001 5.24C6.38001 5.24 6.54001 5.16 6.68001 5.04H8.28001H8.38001H8.48001L8.40001 5.58L8.34001 6.02L8.32001 6.2L8.26001 6.56L7.96001 8.7C7.96001 8.86 8.78001 9.12 9.14001 9.12C9.50001 9.12 10.32 8.86 10.32 8.68L10.02 6.56L9.96001 6.2L9.94001 6.02L9.88001 5.62V5.58L9.80001 5.06H9.90001H10H11.8C11.94 5.18 12.1 5.26 12.3 5.26C12.7 5.26 13.04 4.92 13.04 4.52C13.04 4.12 12.7 3.78 12.3 3.78C12.1 3.78 11.94 3.86 11.8 3.98H9.84001H9.74001H9.64001L9.60001 3.7C9.64001 3.68 9.66001 3.68 9.70001 3.66C9.74001 3.64 9.76001 3.64 9.80001 3.62C10.26 3.38 10.56 2.92 10.56 2.36C10.56 1.58 9.92001 0.940002 9.14001 0.940002C8.36001 0.940002 7.72001 1.58 7.72001 2.36C7.72001 2.9 8.04001 3.38 8.48001 3.62C8.52001 3.64 8.54001 3.66 8.58001 3.66C8.62001 3.68 8.64001 3.68 8.68001 3.7L8.64001 3.98H8.54001H8.44001H6.68001C6.54001 3.86 6.38001 3.78 6.18001 3.78C5.78001 3.78 5.44001 4.12 5.44001 4.52C5.44001 4.9 5.78001 5.24 6.18001 5.24ZM10.06 2.22C10.06 2.22 9.98001 2.04 9.64001 1.74C9.46001 1.56 9.14001 1.38 9.14001 1.38C10.04 1.42 10.06 2.22 10.06 2.22Z" fill="currentColor"/>
</svg>
