<svg viewBox="0 0 16 16" fill="none" xmlns="http://www.w3.org/2000/svg">
<path d="M1.45098 4.91779H3.1554C3.4065 4.91779 3.61009 5.16889 3.61009 5.37248V8.89663C3.61009 9.14773 3.40649 9.35132 3.1554 9.35132H1.45098C1.19988 9.35132 0.996283 9.10022 0.996283 8.89663V5.37248C0.996283 5.12138 1.19988 4.91779 1.45098 4.91779Z" fill="currentColor"/>
<path d="M5.65095 4.91779H7.35537C7.60647 4.91779 7.81007 5.16889 7.81007 5.37248V8.89663C7.81007 9.14773 7.60647 9.35132 7.35537 9.35132H5.65095C5.39985 9.35132 5.19626 9.10022 5.19626 8.89663V5.37248C5.19626 5.12138 5.39985 4.91779 5.65095 4.91779Z" fill="currentColor"/>
<path d="M12.073 2.45146H7.81096V1.48873C7.81096 0.766426 7.22537 0.181824 6.50309 0.181824C5.78178 0.181824 5.19619 0.766451 5.19619 1.48873V2.45146H0.934152C0.518224 2.45146 0.181818 2.78886 0.181818 3.20379C0.181818 3.61972 0.518248 3.95613 0.934152 3.95613H12.073C12.4889 3.95613 12.8253 3.6197 12.8253 3.20379C12.8253 2.78883 12.4889 2.45146 12.073 2.45146Z" fill="currentColor"/>
<path d="M9.85195 4.91779H11.5564C11.8075 4.91779 12.0111 5.16889 12.0111 5.37248V8.89663C12.0111 9.14773 11.8075 9.35132 11.5564 9.35132H9.85195C9.60085 9.35132 9.39725 9.10022 9.39725 8.89663V5.37248C9.39725 5.12138 9.60085 4.91779 9.85195 4.91779Z" fill="currentColor"/>
<path d="M12.3706 10.3131H0.636637C0.385536 10.3131 0.18194 10.5167 0.18194 10.7678V15.3634C0.18194 15.6145 0.385539 15.8181 0.636637 15.8181H12.3706C12.6217 15.8181 12.8253 15.6145 12.8253 15.3634V10.7678C12.8253 10.5167 12.6217 10.3131 12.3706 10.3131ZM7.79736 13.7065H5.02451C4.67063 13.7065 4.38366 13.4195 4.38366 13.0656C4.38366 12.7108 4.67063 12.4238 5.02451 12.4238H7.79736C8.15124 12.4238 8.4382 12.7108 8.4382 13.0656C8.4382 13.4195 8.15124 13.7065 7.79736 13.7065Z" fill="currentColor"/>
<path d="M15.1221 10.3131H15.1212V7.711C14.8536 7.7682 14.5763 7.7682 14.3087 7.711V10.3131C14.1885 10.3131 14.0722 10.3606 13.9868 10.4459C13.9015 10.5312 13.854 10.6476 13.854 10.7678V12.1329C13.854 12.2531 13.9015 12.3694 13.9868 12.4548C14.0722 12.5401 14.1885 12.5876 14.3087 12.5876H15.1221C15.3732 12.5876 15.5768 12.384 15.5768 12.1329V10.7678C15.5768 10.5167 15.3732 10.3131 15.1221 10.3131Z" fill="currentColor"/>
<path d="M15.8183 5.83116C15.8183 7.30096 13.6127 7.30096 13.6127 5.83116C13.6127 4.3604 15.8183 4.3604 15.8183 5.83116Z" fill="currentColor"/>
</svg>
