<svg width="18" height="19" viewBox="0 0 18 19" fill="none" xmlns="http://www.w3.org/2000/svg">
<path d="M3.07445 5.2714C3.07445 3.86855 4.17308 2.72688 5.5233 2.72688H13.2082C13.0446 2.50104 12.8342 2.31805 12.5932 2.19205C12.3522 2.06605 12.0871 2.00042 11.8183 2.00024H4.123C3.15995 2.00024 2.37522 2.81545 2.37522 3.81748V14.7216C2.37522 15.3131 2.65247 15.8341 3.07445 16.1664V5.2714Z" fill="white"/>
<path d="M13.1825 3.66711H5.73409C5.28526 3.66779 4.85503 3.84372 4.53778 4.15631C4.22053 4.4689 4.04217 4.89262 4.04182 5.33452V15.3339C4.04251 15.7755 4.22102 16.1989 4.53824 16.5112C4.85545 16.8236 5.28548 16.9993 5.73409 17H13.1825C13.6311 16.9993 14.0612 16.8236 14.3784 16.5112C14.6956 16.1989 14.8741 15.7755 14.8748 15.3339V5.33452C14.8744 4.89262 14.6961 4.4689 14.3788 4.15631C14.0616 3.84372 13.6314 3.66779 13.1825 3.66711ZM6.56335 6.29919C6.48306 6.3387 6.39013 6.34521 6.30496 6.3173C6.21979 6.28939 6.14936 6.22934 6.10914 6.15034L5.90409 5.74658L5.69905 6.15034C5.6559 6.22426 5.58567 6.27915 5.50276 6.30376C5.41984 6.32837 5.33051 6.32083 5.25305 6.2827C5.17559 6.24457 5.11587 6.17873 5.08611 6.09865C5.05636 6.01858 5.05882 5.93034 5.093 5.85199L5.60107 4.85219C5.71592 4.62603 6.09162 4.62603 6.20647 4.85219L6.71389 5.85199C6.75402 5.93104 6.76063 6.02254 6.73228 6.10639C6.70394 6.19024 6.64359 6.25959 6.56335 6.29919ZM11.5616 10.6964L9.93685 12.2961C9.80993 12.4211 9.63779 12.4913 9.4583 12.4913C9.27882 12.4913 9.10668 12.4211 8.97976 12.2961L7.35498 10.6964C7.21685 10.5604 7.10728 10.399 7.03253 10.2213C6.95777 10.0436 6.9193 9.85316 6.9193 9.66084C6.9193 9.46851 6.95777 9.27807 7.03253 9.10039C7.10728 8.9227 7.21685 8.76125 7.35498 8.62526C7.49311 8.48926 7.65709 8.38139 7.83756 8.30779C8.01803 8.23419 8.21146 8.19631 8.4068 8.19631C8.60215 8.19631 8.79557 8.23419 8.97605 8.30779C9.15652 8.38139 9.3205 8.48926 9.45863 8.62526C9.59676 8.4893 9.76073 8.38147 9.94119 8.30791C10.1216 8.23435 10.315 8.1965 10.5104 8.19653C10.7057 8.19656 10.8991 8.23447 11.0795 8.30808C11.2599 8.3817 11.4239 8.48958 11.562 8.62558C11.7 8.76157 11.8096 8.92301 11.8843 9.10068C11.959 9.27835 11.9974 9.46877 11.9974 9.66107C11.9974 9.85336 11.9589 10.0438 11.8841 10.2214C11.8093 10.3991 11.6998 10.5605 11.5616 10.6964ZM13.8236 14.8158L13.3162 15.8162C13.288 15.8715 13.2448 15.9179 13.1913 15.9504C13.1379 15.9828 13.0763 16 13.0135 16C12.9507 16 12.8891 15.9828 12.8357 15.9504C12.7822 15.9179 12.739 15.8715 12.7108 15.8162L12.2027 14.8158C12.1818 14.7765 12.1691 14.7335 12.1653 14.6893C12.1614 14.6451 12.1666 14.6006 12.1805 14.5584C12.1943 14.5162 12.2166 14.4772 12.246 14.4435C12.2754 14.4099 12.3112 14.3824 12.3515 14.3626C12.3918 14.3428 12.4358 14.3311 12.4807 14.3282C12.5257 14.3254 12.5707 14.3313 12.6133 14.3458C12.6559 14.3603 12.6951 14.383 12.7287 14.4125C12.7622 14.4421 12.7895 14.478 12.8088 14.518L13.0138 14.9218L13.2189 14.518C13.2613 14.4431 13.3315 14.3872 13.4148 14.3619C13.498 14.3366 13.588 14.3439 13.666 14.3822C13.7439 14.4206 13.8039 14.487 13.8334 14.5678C13.8628 14.6485 13.8589 14.7373 13.8236 14.8158Z" fill="url(#paint0_linear_47_895)"/>
<defs>
<linearGradient id="paint0_linear_47_895" x1="4.04182" y1="3.66711" x2="16.9589" y2="11.3511" gradientUnits="userSpaceOnUse">
<stop stop-color="#F8043F"/>
<stop offset="1" stop-color="#6F001B"/>
</linearGradient>
</defs>
</svg>
