<svg width="18" height="19" viewBox="0 0 18 19" fill="none" xmlns="http://www.w3.org/2000/svg">
<circle cx="9.375" cy="9.125" r="3.375" fill="white"/>
<path fill-rule="evenodd" clip-rule="evenodd" d="M9.303 16.1015C10.521 15.4775 15 12.926 15 9.125C15 5.75 12.2003 3.5 9 3.5C5.907 3.5 3 5.75 3 9.125C3 12.926 7.479 15.4775 8.697 16.1015C8.79067 16.1499 8.89457 16.1752 9 16.1752C9.10543 16.1752 9.20933 16.1499 9.303 16.1015ZM8.82675 11.5677L6.7275 9.3575C6.59563 9.21749 6.49508 9.05099 6.43256 8.8691C6.37004 8.6872 6.34698 8.49408 6.36491 8.30257C6.38283 8.11107 6.44134 7.92558 6.53653 7.75845C6.63172 7.59132 6.76142 7.44638 6.91699 7.33327C7.07256 7.22016 7.25043 7.14148 7.43877 7.10247C7.62712 7.06346 7.82161 7.06501 8.0093 7.10701C8.197 7.14901 8.3736 7.23051 8.52735 7.34607C8.6811 7.46164 8.80848 7.60863 8.901 7.77725L8.9535 7.87325C8.95795 7.88173 8.96463 7.88884 8.97283 7.8938C8.98102 7.89876 8.99042 7.90138 9 7.90138C9.00958 7.90138 9.01898 7.89876 9.02717 7.8938C9.03537 7.88884 9.04205 7.88173 9.0465 7.87325L9.099 7.77725C9.5925 6.86825 10.8818 6.82475 11.4345 7.69925C11.7668 8.22425 11.7 8.90675 11.2725 9.35675L9.17325 11.567C9.10425 11.6397 9.069 11.6765 9.027 11.6847C9.00915 11.688 8.99085 11.688 8.973 11.6847C8.931 11.6765 8.89575 11.6397 8.82675 11.567" fill="#F8043F"/>
<path fill-rule="evenodd" clip-rule="evenodd" d="M9.303 16.1015C10.521 15.4775 15 12.926 15 9.125C15 5.75 12.2003 3.5 9 3.5C5.907 3.5 3 5.75 3 9.125C3 12.926 7.479 15.4775 8.697 16.1015C8.79067 16.1499 8.89457 16.1752 9 16.1752C9.10543 16.1752 9.20933 16.1499 9.303 16.1015ZM8.82675 11.5677L6.7275 9.3575C6.59563 9.21749 6.49508 9.05099 6.43256 8.8691C6.37004 8.6872 6.34698 8.49408 6.36491 8.30257C6.38283 8.11107 6.44134 7.92558 6.53653 7.75845C6.63172 7.59132 6.76142 7.44638 6.91699 7.33327C7.07256 7.22016 7.25043 7.14148 7.43877 7.10247C7.62712 7.06346 7.82161 7.06501 8.0093 7.10701C8.197 7.14901 8.3736 7.23051 8.52735 7.34607C8.6811 7.46164 8.80848 7.60863 8.901 7.77725L8.9535 7.87325C8.95795 7.88173 8.96463 7.88884 8.97283 7.8938C8.98102 7.89876 8.99042 7.90138 9 7.90138C9.00958 7.90138 9.01898 7.89876 9.02717 7.8938C9.03537 7.88884 9.04205 7.88173 9.0465 7.87325L9.099 7.77725C9.5925 6.86825 10.8818 6.82475 11.4345 7.69925C11.7668 8.22425 11.7 8.90675 11.2725 9.35675L9.17325 11.567C9.10425 11.6397 9.069 11.6765 9.027 11.6847C9.00915 11.688 8.99085 11.688 8.973 11.6847C8.931 11.6765 8.89575 11.6397 8.82675 11.567" fill="url(#paint0_linear_122_1584)"/>
<defs>
<linearGradient id="paint0_linear_122_1584" x1="3" y1="3.5" x2="16.0852" y2="12.57" gradientUnits="userSpaceOnUse">
<stop stop-color="#F8043F"/>
<stop offset="1" stop-color="#6F001B"/>
</linearGradient>
</defs>
</svg>
