<svg width="18" height="19" viewBox="0 0 18 19" fill="none" xmlns="http://www.w3.org/2000/svg">
<path d="M15.1875 6.125H11.8125C11.3651 6.12545 10.9361 6.30338 10.6198 6.61975C10.3034 6.93612 10.1254 7.36509 10.125 7.8125V11.1875C10.125 11.4859 10.2435 11.772 10.4545 11.983C10.6655 12.194 10.9516 12.3125 11.25 12.3125V16.25C11.25 16.5484 11.3685 16.8345 11.5795 17.0455C11.7905 17.2565 12.0766 17.375 12.375 17.375H14.625C14.9234 17.375 15.2095 17.2565 15.4205 17.0455C15.6315 16.8345 15.75 16.5484 15.75 16.25V12.3125C16.0484 12.3125 16.3345 12.194 16.5455 11.983C16.7565 11.772 16.875 11.4859 16.875 11.1875V7.8125C16.8746 7.36509 16.6966 6.93612 16.3802 6.61975C16.0639 6.30338 15.6349 6.12545 15.1875 6.125ZM15.75 11.1875H14.625V16.25H12.375V11.1875H11.25V7.8125C11.25 7.66332 11.3093 7.52024 11.4148 7.41475C11.5202 7.30926 11.6633 7.25 11.8125 7.25H15.1875C15.3367 7.25 15.4798 7.30926 15.5852 7.41475C15.6907 7.52024 15.75 7.66332 15.75 7.8125V11.1875ZM11.25 3.3125C11.25 2.86749 11.382 2.43248 11.6292 2.06247C11.8764 1.69246 12.2278 1.40407 12.639 1.23377C13.0501 1.06347 13.5025 1.01892 13.939 1.10573C14.3754 1.19255 14.7763 1.40684 15.091 1.72151C15.4057 2.03618 15.62 2.43709 15.7068 2.87355C15.7936 3.31001 15.749 3.7624 15.5787 4.17354C15.4084 4.58467 15.12 4.93607 14.75 5.18331C14.38 5.43054 13.945 5.5625 13.5 5.5625C12.9034 5.56191 12.3315 5.32466 11.9097 4.90283C11.4878 4.48101 11.2506 3.90906 11.25 3.3125ZM12.375 3.3125C12.375 3.53501 12.441 3.75251 12.5646 3.93752C12.6882 4.12252 12.8639 4.26672 13.0695 4.35187C13.275 4.43701 13.5012 4.45929 13.7195 4.41588C13.9377 4.37248 14.1382 4.26533 14.2955 4.108C14.4528 3.95066 14.56 3.75021 14.6034 3.53198C14.6468 3.31375 14.6245 3.08755 14.5394 2.88198C14.4542 2.67642 14.31 2.50071 14.125 2.3771C13.94 2.25348 13.7225 2.1875 13.5 2.1875C13.2016 2.1875 12.9155 2.30603 12.7045 2.51701C12.4935 2.72798 12.375 3.01413 12.375 3.3125Z" fill="#F8043F"/>
<path d="M7.875 9.5V7.8125C7.87455 7.36509 7.69662 6.93612 7.38025 6.61975C7.06388 6.30338 6.63492 6.12545 6.1875 6.125H2.8125C2.36508 6.12545 1.93612 6.30338 1.61975 6.61975C1.30338 6.93612 1.12545 7.36509 1.125 7.8125V9.5H0V10.625H9V9.5H7.875ZM2.25 7.8125C2.25 7.66332 2.30926 7.52024 2.41475 7.41475C2.52024 7.30926 2.66332 7.25 2.8125 7.25H6.1875C6.33668 7.25 6.47976 7.30926 6.58525 7.41475C6.69074 7.52024 6.75 7.66332 6.75 7.8125V9.5H2.25V7.8125ZM2.25 3.3125C2.25 2.86749 2.38196 2.43248 2.62919 2.06247C2.87643 1.69246 3.22783 1.40407 3.63896 1.23377C4.0501 1.06347 4.5025 1.01892 4.93895 1.10573C5.37541 1.19255 5.77632 1.40684 6.09099 1.72151C6.40566 2.03618 6.61995 2.43709 6.70677 2.87355C6.79358 3.31001 6.74903 3.7624 6.57873 4.17354C6.40843 4.58467 6.12004 4.93607 5.75003 5.18331C5.38002 5.43054 4.94501 5.5625 4.5 5.5625C3.90345 5.56191 3.3315 5.32466 2.90967 4.90283C2.48784 4.48101 2.2506 3.90906 2.25 3.3125ZM3.375 3.3125C3.375 3.53501 3.44098 3.75251 3.5646 3.93752C3.68821 4.12252 3.86391 4.26672 4.06948 4.35187C4.27505 4.43701 4.50125 4.45929 4.71948 4.41588C4.93771 4.37248 5.13816 4.26533 5.2955 4.108C5.45283 3.95066 5.55998 3.75021 5.60338 3.53198C5.64679 3.31375 5.62451 3.08755 5.53936 2.88198C5.45422 2.67642 5.31002 2.50071 5.12502 2.3771C4.94001 2.25348 4.7225 2.1875 4.5 2.1875C4.20163 2.1875 3.91548 2.30603 3.7045 2.51701C3.49353 2.72798 3.375 3.01413 3.375 3.3125Z" fill="white"/>
</svg>
