<svg width="18" height="19" viewBox="0 0 18 19" fill="none" xmlns="http://www.w3.org/2000/svg">
<path d="M14.175 12.5L13.1063 11.45C13.4688 11.0875 13.75 10.65 13.95 10.1375C14.15 9.62505 14.25 9.08755 14.25 8.52505C14.25 7.96255 14.15 7.42505 13.95 6.91255C13.75 6.40005 13.4688 5.96255 13.1063 5.60005L14.175 4.55005C14.6875 5.06255 15.0782 5.6593 15.3472 6.3403C15.6162 7.0213 15.7505 7.74955 15.75 8.52505C15.7495 9.30055 15.6152 10.0288 15.3472 10.7098C15.0792 11.3908 14.6885 11.9875 14.175 12.5ZM12.3 10.6438L11.25 9.57505C11.375 9.45005 11.4688 9.30005 11.5312 9.12505C11.5938 8.95005 11.625 8.75005 11.625 8.52505C11.625 8.30005 11.5938 8.09705 11.5312 7.91605C11.4688 7.73505 11.375 7.5818 11.25 7.4563L12.3 6.4063C12.5625 6.6688 12.7657 6.9813 12.9097 7.3438C13.0537 7.7063 13.1255 8.10005 13.125 8.52505C13.1245 8.95005 13.0527 9.3438 12.9097 9.7063C12.7667 10.0688 12.5635 10.3813 12.3 10.6438Z" fill="white"/>
<path d="M9 17C8.5875 17 8.2345 16.8533 7.941 16.5597C7.6475 16.2662 7.5005 15.913 7.5 15.5H10.5C10.5 15.9125 10.3533 16.2657 10.0598 16.5597C9.76625 16.8538 9.413 17.0005 9 17ZM3 14.75V13.25H4.5V8C4.5 6.9625 4.8125 6.04075 5.4375 5.23475C6.0625 4.42875 6.875 3.9005 7.875 3.65V2H10.125V3.65C10.4875 3.7375 10.822 3.86575 11.1285 4.03475C11.435 4.20375 11.7193 4.4005 11.9813 4.625L9.75 6.8375V10.2125L14.2875 14.75H3Z" fill="url(#paint0_linear_123_1612)"/>
<defs>
<linearGradient id="paint0_linear_123_1612" x1="3" y1="2" x2="16.9787" y2="9.7015" gradientUnits="userSpaceOnUse">
<stop stop-color="#F8043F"/>
<stop offset="1" stop-color="#6F001B"/>
</linearGradient>
</defs>
</svg>
