<svg width="18" height="19" viewBox="0 0 18 19" fill="none" xmlns="http://www.w3.org/2000/svg">
<mask id="mask0_47_853" style="mask-type:luminance" maskUnits="userSpaceOnUse" x="0" y="0" width="18" height="19">
<path d="M18 0.5H0V18.5H18V0.5Z" fill="white"/>
</mask>
<g mask="url(#mask0_47_853)">
<path d="M7.24247 2.71574C7.07672 2.34343 7.2538 1.93327 7.66737 1.73162C7.79104 1.67133 7.95135 1.625 8.03643 1.625C8.25927 1.625 8.57599 1.78908 8.72009 1.97918C8.86544 2.171 9.03913 2.56696 9.10398 2.85442C9.12942 2.96728 9.17467 3.10454 9.2045 3.15944C9.30286 3.34032 9.40582 3.35333 10.6132 3.33737C11.0634 3.33143 12.0918 3.3138 12.5262 3.26412C12.9528 3.21536 13.3789 3.16663 13.8188 3.15944C14.8842 3.14204 15.8437 3.31143 16.6563 4.04643C17.1415 4.48527 17.2707 4.65303 17.5221 5.17144C17.694 5.52567 17.7501 5.70306 17.8711 6.27458C18.0366 7.05678 18.0416 7.34321 17.8926 7.48319C17.8164 7.55468 17.7474 7.56995 17.4469 7.58197C16.5572 7.61743 15.379 7.36773 14.5125 6.96006C13.4056 6.43927 12.7078 5.76859 12.161 4.70015C12.0205 4.4257 11.8929 4.16319 11.8773 4.11679C11.8045 3.89956 11.1266 3.92763 10.6373 3.92763C10.0291 3.92763 9.91156 4.04897 10.1983 4.38944C10.8673 5.18399 11.5923 6.31911 11.8773 7.01855C11.9675 7.23987 12.0863 7.53047 12.1415 7.6644C12.2551 7.94055 12.3033 8.37831 12.3023 8.55279C12.302 8.61622 12.2883 8.68707 12.2718 8.71023C12.1663 8.85858 11.716 8.88896 11.4953 8.76264C11.3382 8.67281 11.1838 8.38811 11.1208 8.07236C11.008 7.50651 10.5252 6.56013 10.1689 6.12017C10.0049 5.91772 9.84854 5.85769 9.75642 5.96186C9.72924 5.99267 9.66202 6.22113 9.60715 6.46958C9.50769 6.91962 9.46586 7.01696 8.84808 8.23532C8.69604 8.5351 8.2069 9.15053 7.89897 9.42938C7.63553 9.66795 7.53905 9.81386 7.57801 9.91475C7.6071 9.99014 7.67264 10.054 7.73844 10.1181C7.80125 10.1793 7.8643 10.2407 7.89616 10.3127C7.44683 10.9699 7.17652 11.7816 7.07434 12.6247C6.97543 13.4409 7.02749 14.3202 7.24037 15.1825C7.07022 15.344 6.57378 15.6853 6.34223 15.7937C5.48758 16.1942 4.81326 16.3103 3.92281 16.2102C1.30579 15.9155 -0.802146 12.717 0.298536 10.4448C0.769053 9.47338 1.60936 8.63977 2.55243 8.20899C3.74254 7.66534 5.05231 7.83325 5.98924 8.75591C6.20051 8.96396 6.40468 9.13037 6.46648 9.14495C6.60621 9.17785 6.77733 9.07062 7.19346 8.68938C8.35868 7.62191 9.02435 5.78082 8.67117 4.2475C8.61488 4.00324 8.54852 3.77282 8.52365 3.73548C8.49884 3.69809 8.29645 3.56622 8.07401 3.44239C7.64862 3.20555 7.34078 2.93656 7.24247 2.71574Z" fill="url(#paint0_linear_47_853)"/>
<path d="M9.18334 16.3697C9.67297 16.7951 10.0156 16.9596 10.905 17.1962C12.2265 17.5476 13.7816 17.3901 14.9277 16.6377C15.6903 16.137 16.3109 15.256 16.4944 14.4137C16.7128 13.4119 16.696 12.4985 16.2855 11.5434C15.749 10.2947 14.2927 9.47054 12.8892 9.84946C12.7435 9.88878 12.5139 9.95096 12.379 9.98757C12.1358 10.0536 12.13 10.0533 11.657 9.9521C9.55708 9.50266 8.27086 10.7738 8.03377 12.7301C7.86323 14.1373 8.06492 15.3977 9.18334 16.3697Z" fill="white"/>
</g>
<defs>
<linearGradient id="paint0_linear_47_853" x1="0" y1="1.625" x2="16.0307" y2="16.0762" gradientUnits="userSpaceOnUse">
<stop stop-color="#F8043F"/>
<stop offset="1" stop-color="#6F001B"/>
</linearGradient>
</defs>
</svg>
