<svg width="18" height="19" viewBox="0 0 18 19" fill="none" xmlns="http://www.w3.org/2000/svg">
<path d="M9.75 8H15V5H9.75V8ZM1.5 15.5V3.5H16.5V9.70625C16.0625 9.39375 15.5845 9.15625 15.066 8.99375C14.5475 8.83125 14.0192 8.75 13.4813 8.75C12.0312 8.75 10.797 9.2625 9.7785 10.2875C8.76 11.3125 8.2505 12.55 8.25 14C8.25 14.2625 8.26875 14.5187 8.30625 14.7687C8.34375 15.0188 8.4 15.2625 8.475 15.5H1.5Z" fill="black"/>
<path d="M9.75 8H15V5H9.75V8ZM1.5 15.5V3.5H16.5V9.70625C16.0625 9.39375 15.5845 9.15625 15.066 8.99375C14.5475 8.83125 14.0192 8.75 13.4813 8.75C12.0312 8.75 10.797 9.2625 9.7785 10.2875C8.76 11.3125 8.2505 12.55 8.25 14C8.25 14.2625 8.26875 14.5187 8.30625 14.7687C8.34375 15.0188 8.4 15.2625 8.475 15.5H1.5Z" fill="url(#paint0_linear_122_1598)"/>
<path d="M14.7375 15.7625L15.2625 15.2375L13.875 13.85V11.75H13.125V14.15L14.7375 15.7625ZM13.5 17.75C12.4625 17.75 11.5783 17.3843 10.8473 16.6528C10.1163 15.9213 9.7505 15.037 9.75 14C9.7495 12.963 10.1153 12.0788 10.8473 11.3473C11.5793 10.6158 12.4635 10.25 13.5 10.25C14.5365 10.25 15.421 10.6158 16.1535 11.3473C16.886 12.0788 17.2515 12.963 17.25 14C17.2485 15.037 16.8828 15.9215 16.1528 16.6535C15.4228 17.3855 14.5385 17.751 13.5 17.75Z" fill="white"/>
<defs>
<linearGradient id="paint0_linear_122_1598" x1="1.5" y1="3.5" x2="14.6778" y2="15.5601" gradientUnits="userSpaceOnUse">
<stop stop-color="#F8043F"/>
<stop offset="1" stop-color="#6F001B"/>
</linearGradient>
</defs>
</svg>
