<svg width="18" height="19" viewBox="0 0 18 19" fill="none" xmlns="http://www.w3.org/2000/svg">
<circle cx="9" cy="9.5" r="5.25" fill="white"/>
<path d="M6.75 14H10.875C11.0875 14 11.2845 13.9468 11.466 13.8403C11.6475 13.7338 11.7755 13.587 11.85 13.4L13.425 9.725C13.45 9.6625 13.4688 9.6 13.4813 9.5375C13.4938 9.475 13.5 9.4125 13.5 9.35V8.75C13.5 8.5375 13.428 8.35925 13.284 8.21525C13.14 8.07125 12.962 7.9995 12.75 8H9.3L9.75 5.45C9.775 5.325 9.76875 5.20625 9.73125 5.09375C9.69375 4.98125 9.63125 4.88125 9.54375 4.79375L9 4.25L5.55 8C5.45 8.1 5.375 8.2125 5.325 8.3375C5.275 8.4625 5.25 8.6 5.25 8.75V12.5C5.25 12.9125 5.397 13.2657 5.691 13.5597C5.985 13.8538 6.338 14.0005 6.75 14ZM9 17C7.9625 17 6.9875 16.803 6.075 16.409C5.1625 16.015 4.36875 15.4808 3.69375 14.8063C3.01875 14.1318 2.4845 13.338 2.091 12.425C1.6975 11.512 1.5005 10.537 1.5 9.5C1.4995 8.463 1.6965 7.488 2.091 6.575C2.4855 5.662 3.01975 4.86825 3.69375 4.19375C4.36775 3.51925 5.1615 2.985 6.075 2.591C6.9885 2.197 7.9635 2 9 2C10.0365 2 11.0115 2.197 11.925 2.591C12.8385 2.985 13.6323 3.51925 14.3063 4.19375C14.9803 4.86825 15.5148 5.662 15.9098 6.575C16.3048 7.488 16.5015 8.463 16.5 9.5C16.4985 10.537 16.3015 11.512 15.909 12.425C15.5165 13.338 14.9823 14.1318 14.3063 14.8063C13.6303 15.4808 12.8365 16.0152 11.925 16.4097C11.0135 16.8042 10.0385 17.001 9 17Z" fill="#F8043F"/>
</svg>
