<svg width="18" height="18" viewBox="0 0 18 18" fill="none" xmlns="http://www.w3.org/2000/svg">
<path d="M2.66667 4C1.7474 4 1 4.7474 1 5.66667V12.3333C1 13.2526 1.7474 14 2.66667 14H14.3333C15.2526 14 16 13.2526 16 12.3333V5.66667C16 4.7474 15.2526 4 14.3333 4H2.66667ZM8.08333 7.33333H13.9167C14.1458 7.33333 14.3333 7.52083 14.3333 7.75C14.3333 7.97917 14.1458 8.16667 13.9167 8.16667H8.08333C7.85417 8.16667 7.66667 7.97917 7.66667 7.75C7.66667 7.52083 7.85417 7.33333 8.08333 7.33333ZM7.66667 10.25C7.66667 10.0208 7.85417 9.83333 8.08333 9.83333H13.9167C14.1458 9.83333 14.3333 10.0208 14.3333 10.25C14.3333 10.4792 14.1458 10.6667 13.9167 10.6667H8.08333C7.85417 10.6667 7.66667 10.4792 7.66667 10.25ZM5.27083 6.29167V6.65365C5.46615 6.6849 5.65104 6.72917 5.82031 6.77604C6.09896 6.84896 6.26302 7.13542 6.1901 7.41406C6.11719 7.69271 5.83073 7.85677 5.55208 7.78385C5.26562 7.70833 4.98958 7.65365 4.73958 7.64844C4.53385 7.64583 4.32292 7.69531 4.17969 7.77865C4.05469 7.85156 4.01823 7.92448 4.01823 8.02083C4.01823 8.06771 4.02083 8.11198 4.15625 8.19531C4.32031 8.29427 4.5599 8.36979 4.89323 8.46875L4.91146 8.47396C5.20312 8.5625 5.57812 8.67448 5.8776 8.86458C6.21354 9.07552 6.51042 9.41927 6.51823 9.94792C6.52604 10.4922 6.24479 10.888 5.8724 11.1198C5.6849 11.237 5.47656 11.3099 5.26823 11.3542V11.7135C5.26823 12 5.03385 12.2344 4.7474 12.2344C4.46094 12.2344 4.22656 12 4.22656 11.7135V11.3333C3.95833 11.276 3.70573 11.1901 3.49219 11.1146C3.4375 11.0964 3.38542 11.0781 3.33333 11.0599C3.0599 10.9687 2.91406 10.6745 3.00521 10.401C3.09635 10.1276 3.39063 9.98177 3.66406 10.0729C3.72917 10.0938 3.79167 10.1172 3.85156 10.1354C4.20573 10.2552 4.47656 10.3464 4.76563 10.3568C4.98958 10.3646 5.19531 10.3151 5.32292 10.2344C5.42969 10.1693 5.47917 10.0911 5.47656 9.96094C5.47656 9.88542 5.45573 9.83073 5.32292 9.7474C5.15885 9.64323 4.92187 9.56771 4.59375 9.46875L4.54948 9.45573C4.26563 9.36979 3.90885 9.26302 3.6224 9.09115C3.29167 8.89062 2.98177 8.55729 2.97917 8.03125C2.97656 7.48177 3.28646 7.10156 3.65104 6.88802C3.83073 6.78125 4.02865 6.71094 4.22917 6.66667V6.30208C4.22917 6.01562 4.46354 5.78125 4.75 5.78125C5.03646 5.78125 5.27083 6.01562 5.27083 6.30208V6.29167Z" fill="#F8043F"/>
</svg>
