<svg width="14" height="18" viewBox="0 0 14 18" fill="none" xmlns="http://www.w3.org/2000/svg">
<path d="M4.38 5.99553H8.88C9.07891 5.99553 9.26968 5.91651 9.41033 5.77586C9.55098 5.63521 9.63 5.44444 9.63 5.24553C9.63 5.04662 9.55098 4.85585 9.41033 4.7152C9.26968 4.57455 9.07891 4.49553 8.88 4.49553H4.38C4.18109 4.49553 3.99032 4.57455 3.84967 4.7152C3.70902 4.85585 3.63 5.04662 3.63 5.24553C3.63 5.44444 3.70902 5.63521 3.84967 5.77586C3.99032 5.91651 4.18109 5.99553 4.38 5.99553ZM4.7325 3.37053C4.74355 3.462 4.78789 3.54619 4.85706 3.60706C4.92622 3.66792 5.01537 3.7012 5.1075 3.70053H8.13C8.22168 3.6996 8.30998 3.66577 8.37881 3.6052C8.44764 3.54463 8.49242 3.46135 8.505 3.37053C8.66992 2.57331 8.97462 1.81156 9.405 1.12053C9.44473 1.05349 9.46113 0.975178 9.45164 0.89783C9.44214 0.820482 9.40728 0.748462 9.3525 0.693031C9.30727 0.633447 9.24525 0.588753 9.17441 0.564696C9.10358 0.540639 9.02716 0.538318 8.955 0.558031L7.56 1.15803C7.53661 1.16932 7.51097 1.17519 7.485 1.17519C7.45903 1.17519 7.43339 1.16932 7.41 1.15803C7.36347 1.14071 7.32571 1.10565 7.305 1.06053L6.975 0.228031C6.94618 0.160385 6.89812 0.102703 6.83677 0.0621594C6.77543 0.0216159 6.70353 0 6.63 0C6.55647 0 6.48457 0.0216159 6.42323 0.0621594C6.36189 0.102703 6.31382 0.160385 6.285 0.228031L5.955 1.06053C5.93429 1.10565 5.89653 1.14071 5.85 1.15803C5.82661 1.16932 5.80097 1.17519 5.775 1.17519C5.74903 1.17519 5.72339 1.16932 5.7 1.15803L4.305 0.558031C4.23347 0.529097 4.15475 0.522934 4.07959 0.540382C4.00442 0.557831 3.93647 0.598042 3.885 0.655531C3.83023 0.710962 3.79536 0.782982 3.78586 0.86033C3.77637 0.937678 3.79277 1.01599 3.8325 1.08303C4.267 1.78551 4.57184 2.56031 4.7325 3.37053ZM9.21 6.83553C9.13264 6.7761 9.03755 6.74441 8.94 6.74553H4.32C4.22245 6.74441 4.12736 6.7761 4.05 6.83553C2.1375 8.33553 0 10.8855 0 13.1355C0 16.308 1.77 17.9955 6.63 17.9955C11.49 17.9955 13.26 16.308 13.26 13.1355C13.26 10.8855 11.13 8.29803 9.21 6.83553ZM7.38 15.093C7.33628 15.1016 7.2968 15.1249 7.26815 15.159C7.23949 15.1931 7.22338 15.236 7.2225 15.2805V15.558C7.2225 15.7072 7.16324 15.8503 7.05775 15.9558C6.95226 16.0613 6.80918 16.1205 6.66 16.1205C6.51082 16.1205 6.36774 16.0613 6.26225 15.9558C6.15676 15.8503 6.0975 15.7072 6.0975 15.558V15.318C6.0975 15.2683 6.07775 15.2206 6.04258 15.1854C6.00742 15.1503 5.95973 15.1305 5.91 15.1305H5.4675C5.31832 15.1305 5.17524 15.0713 5.06975 14.9658C4.96426 14.8603 4.905 14.7172 4.905 14.568C4.905 14.4188 4.96426 14.2758 5.06975 14.1703C5.17524 14.0648 5.31832 14.0055 5.4675 14.0055H7.08C7.19971 14.0097 7.31695 13.9709 7.4106 13.8962C7.50425 13.8215 7.56814 13.7158 7.59076 13.5982C7.61338 13.4806 7.59324 13.3588 7.53397 13.2547C7.4747 13.1506 7.3802 13.0711 7.2675 13.0305L5.6325 12.378C5.30297 12.2546 5.02259 12.0272 4.83375 11.7303C4.64492 11.4334 4.55791 11.083 4.58587 10.7322C4.61383 10.3815 4.75524 10.0493 4.98873 9.78606C5.22222 9.52279 5.53508 9.3427 5.88 9.27303C5.92372 9.26447 5.9632 9.2412 5.99185 9.20708C6.02051 9.17297 6.03662 9.13007 6.0375 9.08553V8.80803C6.0375 8.65885 6.09676 8.51577 6.20225 8.41028C6.30774 8.30479 6.45082 8.24553 6.6 8.24553C6.74918 8.24553 6.89226 8.30479 6.99775 8.41028C7.10324 8.51577 7.1625 8.65885 7.1625 8.80803V9.04803C7.1625 9.09776 7.18225 9.14545 7.21742 9.18061C7.25258 9.21578 7.30027 9.23553 7.35 9.23553H7.7925C7.94168 9.23553 8.08476 9.29479 8.19025 9.40028C8.29574 9.50577 8.355 9.64885 8.355 9.79803C8.355 9.94721 8.29574 10.0903 8.19025 10.1958C8.08476 10.3013 7.94168 10.3605 7.7925 10.3605H6.21C6.09029 10.3564 5.97305 10.3952 5.8794 10.4699C5.78575 10.5445 5.72186 10.6502 5.69924 10.7678C5.67662 10.8855 5.69676 11.0073 5.75603 11.1114C5.8153 11.2155 5.9098 11.295 6.0225 11.3355L7.6575 11.988C7.98693 12.114 8.26626 12.344 8.45308 12.6431C8.6399 12.9422 8.724 13.2942 8.69261 13.6454C8.66121 13.9967 8.51604 14.3282 8.27914 14.5894C8.04223 14.8507 7.72654 15.0275 7.38 15.093Z" fill="#F8043F"/>
</svg>
