<svg width="18" height="18" viewBox="0 0 18 18" fill="none" xmlns="http://www.w3.org/2000/svg">
<g clip-path="url(#clip0_2792_15630)">
<path d="M12.163 13.0148C12.163 13.7804 11.8443 14.3997 11.4532 14.3997H5.16541C4.77385 14.3997 4.45557 13.7804 4.45557 13.0148C4.45557 12.2507 4.77385 11.6301 5.16541 11.6301H11.4532C11.8443 11.6301 12.163 12.2507 12.163 13.0148Z" fill="#F8043F"/>
<path d="M12.3328 5.20191C12.3328 7.24569 10.5305 8.90381 8.30842 8.90381C6.08505 8.90381 4.2832 7.24569 4.2832 5.20191C4.2832 3.15812 6.08505 1.5 8.30842 1.5C10.5305 1.5 12.3328 3.15812 12.3328 5.20191Z" fill="#F8043F"/>
<path d="M14.6158 10.9841C14.6158 11.5979 14.2874 12.0965 13.8818 12.0965H2.73391C2.32966 12.0965 2 11.5979 2 10.9841V4.95668C2 4.34243 2.32966 3.84521 2.73391 3.84521H13.8816C14.2872 3.84521 14.6155 4.34243 14.6155 4.95668L14.6158 10.9841Z" fill="white"/>
<path d="M13.503 10.5562C13.503 11.0616 13.2328 11.4704 12.8997 11.4704H3.71654C3.38317 11.4704 3.11279 11.0616 3.11279 10.5562V5.59128C3.11279 5.08531 3.38295 4.67603 3.71654 4.67603H12.8997C13.2326 4.67603 13.503 5.08531 13.503 5.59128V10.5562Z" fill="#F8043F"/>
<path d="M5.34623 10.5562V5.59128C5.34623 5.08531 5.61639 4.67603 5.94998 4.67603H3.71654C3.38317 4.67603 3.11279 5.08531 3.11279 5.59128V10.5562C3.11279 11.0616 3.38295 11.4704 3.71654 11.4704H5.94998C5.61661 11.4704 5.34623 11.0616 5.34623 10.5562Z" fill="#F8043F"/>
<path d="M15.6587 9.98332C15.6587 10.1561 15.5292 10.2961 15.3706 10.2961C15.2101 10.2961 15.0806 10.1561 15.0806 9.98332V2.63288C15.0806 2.46029 15.2101 2.32007 15.3706 2.32007C15.5294 2.32007 15.6587 2.46051 15.6587 2.63288V9.98332Z" fill="#888887"/>
<path d="M15.9771 3.44501C15.9771 3.47935 15.7047 3.50669 15.3705 3.50669C15.0347 3.50669 14.7637 3.47935 14.7637 3.44501V1.9586C14.7637 1.92382 15.0347 1.89429 15.3705 1.89429C15.7047 1.89429 15.9771 1.92382 15.9771 1.9586V3.44501Z" fill="#888887"/>
<path d="M6.03343 5.53442C6.19924 5.53442 6.33355 5.63789 6.33355 5.76542V9.27855C6.33355 9.40433 6.19924 9.50824 6.03343 9.50824H4.40549C4.23902 9.50824 4.10449 9.40433 4.10449 9.27855V5.76542C4.10449 5.63789 4.23902 5.53442 4.40549 5.53442H6.03343Z" fill="white"/>
<path d="M4.82105 6.58779H5.5998C5.6752 6.58764 5.7293 6.60026 5.76212 6.62563C5.7969 6.6521 5.81265 6.69301 5.81265 6.75054C5.81265 6.78663 5.7934 6.83235 5.75293 6.89185C5.71421 6.94916 5.66937 7.01413 5.61905 7.08457C5.56043 7.16784 5.50836 7.25553 5.4633 7.34685C5.40993 7.45083 5.36108 7.57814 5.31674 7.72879C5.29705 7.79573 5.2848 7.85107 5.27671 7.8946C5.26957 7.93791 5.26103 7.99435 5.25112 8.06391C5.24237 8.13523 5.23318 8.18751 5.22662 8.22448C5.21028 8.31096 5.18739 8.37067 5.15793 8.40363C5.14276 8.42039 5.12411 8.43363 5.10329 8.44243C5.08248 8.45124 5.05999 8.45539 5.0374 8.4546C5.01534 8.45531 4.99344 8.45071 4.97353 8.4412C4.95362 8.43168 4.93629 8.41752 4.92299 8.39991C4.89455 8.36426 4.87946 8.3111 4.87946 8.24154C4.87946 8.18729 4.88952 8.11423 4.91074 8.0206C4.93233 7.928 4.96667 7.81709 5.01377 7.68788C5.06168 7.55816 5.12118 7.42604 5.19227 7.28976C5.26446 7.1537 5.34802 7.01916 5.4458 6.8831H4.82105C4.75514 6.88339 4.70643 6.87063 4.67493 6.84482C4.64168 6.81901 4.6252 6.77898 4.62549 6.72473C4.62549 6.66712 4.64248 6.62957 4.67646 6.61207C4.71102 6.59698 4.75937 6.58691 4.82105 6.58691" fill="#EC1C24"/>
<path d="M4.10645 10.2115C4.10645 10.136 4.32738 10.0759 4.59798 10.0759H12.0617C12.3328 10.0759 12.5528 10.136 12.5528 10.2115V10.9502C12.5528 11.025 12.3319 11.0861 12.0617 11.0861H4.59798C4.32651 11.0861 4.10645 11.025 4.10645 10.9502V10.2115ZM9.1226 5.53442C9.28885 5.53442 9.42273 5.63789 9.42273 5.76542V9.27855C9.42273 9.40433 9.28907 9.50824 9.1226 9.50824H7.49466C7.32841 9.50824 7.19366 9.40433 7.19366 9.27855V5.76542C7.19366 5.63789 7.32841 5.53442 7.49466 5.53442H9.1226Z" fill="white"/>
<path d="M7.91051 6.58779H8.68948C8.76516 6.58779 8.81876 6.60004 8.85223 6.62563C8.88526 6.6521 8.90232 6.69301 8.90232 6.75054C8.90232 6.78663 8.88307 6.83235 8.8426 6.89185C8.80388 6.94916 8.75904 7.01413 8.70895 7.08457C8.65032 7.16784 8.59825 7.25553 8.5532 7.34685C8.49982 7.45083 8.45104 7.57814 8.40685 7.72879C8.39082 7.78338 8.37746 7.83871 8.36682 7.8946C8.35982 7.9377 8.35085 7.99457 8.34166 8.06391C8.33248 8.13523 8.32329 8.18751 8.31651 8.22448C8.30003 8.31096 8.27713 8.37067 8.24782 8.40363C8.23265 8.42039 8.214 8.43363 8.19319 8.44243C8.17237 8.45124 8.14988 8.45539 8.12729 8.4546C8.10512 8.45527 8.0831 8.45066 8.06306 8.44115C8.04301 8.43165 8.02552 8.41751 8.01201 8.39991C7.98445 8.36426 7.96935 8.3111 7.96935 8.24154C7.96935 8.18729 7.97941 8.11423 8.00063 8.0206C8.02229 7.92829 8.05532 7.81695 8.10367 7.68788C8.15157 7.55816 8.21107 7.42604 8.28238 7.28976C8.35326 7.1537 8.43813 7.01916 8.53635 6.8831H7.91117C7.84525 6.88339 7.79654 6.87063 7.76504 6.84482C7.73157 6.81879 7.71582 6.7792 7.71582 6.72473C7.71568 6.66712 7.73267 6.62957 7.76679 6.61207C7.80048 6.59698 7.84882 6.58691 7.91051 6.58691" fill="#EC1C24"/>
<path d="M12.1877 5.53442C12.3524 5.53442 12.4874 5.63789 12.4874 5.76542V9.27855C12.4874 9.40433 12.3524 9.50824 12.1877 9.50824H10.5597C10.3924 9.50824 10.2583 9.40433 10.2583 9.27855V5.76542C10.2583 5.63789 10.3924 5.53442 10.5597 5.53442H12.1877Z" fill="white"/>
<path d="M10.9732 6.58779H11.7528C11.8266 6.58764 11.8807 6.60026 11.9151 6.62563C11.9481 6.6521 11.9656 6.69301 11.9656 6.75054C11.9656 6.78663 11.9457 6.83235 11.9059 6.89185C11.8659 6.94916 11.8224 7.01413 11.7723 7.08457C11.7133 7.16758 11.6612 7.25531 11.6165 7.34685C11.5627 7.45083 11.5134 7.57814 11.4686 7.72879C11.4533 7.78347 11.4403 7.8388 11.4297 7.8946C11.4218 7.9377 11.4122 7.99457 11.4035 8.06391C11.3936 8.13523 11.3857 8.18751 11.3779 8.22448C11.362 8.31096 11.3391 8.37067 11.3094 8.40363C11.2944 8.42045 11.2758 8.43374 11.255 8.44255C11.2343 8.45136 11.2118 8.45547 11.1893 8.4546C11.1672 8.45531 11.1453 8.45071 11.1254 8.4412C11.1055 8.43168 11.0882 8.41752 11.0749 8.39991C11.046 8.36404 11.0315 8.31125 11.0314 8.24154C11.0314 8.18729 11.0421 8.11423 11.064 8.0206C11.085 7.92829 11.1184 7.81695 11.1666 7.68788C11.2136 7.55816 11.2724 7.42604 11.3451 7.28976C11.4157 7.1537 11.5008 7.01916 11.5988 6.8831H10.9732C10.9076 6.88339 10.8586 6.87063 10.8262 6.84482C10.7941 6.81901 10.778 6.77898 10.7778 6.72473C10.7777 6.66712 10.7947 6.62957 10.8288 6.61207C10.8631 6.59698 10.9126 6.58691 10.9732 6.58691" fill="#EC1C24"/>
</g>
<defs>
<clipPath id="clip0_2792_15630">
<rect width="14" height="14" fill="white" transform="translate(2 1.5)"/>
</clipPath>
</defs>
</svg>
