<svg width="18" height="18" viewBox="0 0 18 18" fill="none" xmlns="http://www.w3.org/2000/svg">
<g clip-path="url(#clip0_2792_15453)">
<g clip-path="url(#clip1_2792_15453)">
<path d="M4.1092 9.59226C4.1092 7.80142 4.1092 6.01033 4.1092 4.21948C4.1092 3.61974 4.53574 3.18984 5.13405 3.1896C7.30465 3.18888 9.4755 3.18864 11.6461 3.1896C12.2809 3.1896 12.7837 3.70322 12.7832 4.33775C12.7815 7.8398 12.7808 11.3416 12.7832 14.8436C12.7832 15.1291 12.7556 15.4014 12.592 15.6454C12.3768 15.9664 12.077 16.1559 11.6922 16.1571C9.53356 16.1636 7.37471 16.1624 5.21609 16.1583C4.61275 16.1571 4.11016 15.6308 4.10968 15.0135C4.10824 13.2706 4.1092 11.5275 4.1092 9.78466C4.1092 9.72061 4.1092 9.65679 4.1092 9.59274V9.59226ZM8.7071 6.23248C8.59795 6.11756 8.50391 6.01897 8.41107 5.92109C8.49335 5.86711 8.58955 5.81649 8.67088 5.74836C8.94772 5.51662 8.95732 5.0932 8.69055 4.8509C8.46289 4.64411 8.19372 4.63235 7.91592 4.71871C7.58558 4.82139 7.40829 5.13446 7.48938 5.47104C7.51601 5.58163 7.56758 5.68623 7.61269 5.80642C7.5743 5.83041 7.52728 5.85823 7.48194 5.88822C7.25308 6.04032 7.14056 6.25263 7.1612 6.52827C7.18111 6.79624 7.32265 6.98096 7.56567 7.0894C7.86218 7.22182 8.15606 7.20431 8.4437 7.06325C8.53534 7.01839 8.61978 6.95937 8.70782 6.90659C8.75077 6.94594 8.78939 6.98024 8.82705 7.01575C8.86472 7.05125 8.89878 7.09131 8.93885 7.12346C9.03912 7.20383 9.16963 7.19495 9.25264 7.10547C9.33036 7.0215 9.33276 6.89196 9.25479 6.80008C9.21617 6.7545 9.17611 6.70868 9.12981 6.67149C9.03289 6.59376 9.00818 6.52036 9.10294 6.41768C9.15859 6.35746 9.19218 6.27662 9.2332 6.20345C9.30397 6.07702 9.27782 5.95587 9.16771 5.89038C9.05928 5.82585 8.93501 5.86135 8.86016 5.9801C8.80954 6.06023 8.76156 6.14203 8.7071 6.23224V6.23248ZM9.65255 6.04655C9.67486 6.46878 9.9018 6.88116 10.4142 7.08484C10.8856 7.2722 11.3386 7.21678 11.7418 6.89004C11.8188 6.82767 11.8714 6.74778 11.8409 6.6391C11.7912 6.46158 11.6065 6.39153 11.453 6.50116C11.2927 6.61583 11.1248 6.69188 10.9228 6.6914C10.5632 6.69044 10.3017 6.47525 10.2151 6.09957C10.1374 5.76179 10.3046 5.37892 10.591 5.24049C10.8705 5.10519 11.1318 5.15077 11.3841 5.31606C11.5461 5.4221 11.6984 5.40147 11.7848 5.27072C11.8743 5.13518 11.8277 4.98476 11.6629 4.87609C11.4818 4.75686 11.2807 4.70384 11.0668 4.67865C10.2967 4.58845 9.65087 5.15797 9.65255 6.04655ZM8.3902 9.02514C9.26535 9.02514 10.1405 9.02514 11.0157 9.02514C11.0675 9.02514 11.1198 9.02706 11.1713 9.0225C11.2781 9.01315 11.339 8.95029 11.3503 8.84642C11.3594 8.76197 11.275 8.67777 11.1754 8.66601C11.132 8.66097 11.0876 8.66361 11.0437 8.66361C9.25743 8.66361 7.47138 8.66361 5.6851 8.66361C5.65703 8.66361 5.62848 8.66025 5.60137 8.66529C5.50589 8.68256 5.438 8.73054 5.43248 8.83634C5.42721 8.93518 5.49126 9.00763 5.59753 9.02154C5.64096 9.0273 5.68534 9.02538 5.72924 9.02538C6.61638 9.02538 7.50353 9.02538 8.39068 9.02538L8.3902 9.02514ZM8.3854 10.359C9.26079 10.359 10.1359 10.359 11.0113 10.359C11.0672 10.359 11.1231 10.358 11.179 10.3551C11.2793 10.3501 11.3338 10.2868 11.346 10.1966C11.3587 10.1013 11.3059 10.0334 11.2138 10.0099C11.157 9.99529 11.0953 9.99505 11.036 9.99505C9.26151 9.99433 7.48698 9.99457 5.71245 9.99457C5.67262 9.99457 5.63136 9.99073 5.59274 9.99841C5.49654 10.0174 5.43416 10.0728 5.4332 10.1774C5.43224 10.2829 5.49198 10.3391 5.59202 10.3525C5.64311 10.3595 5.69565 10.3587 5.74747 10.3587C6.6267 10.359 7.50593 10.359 8.38516 10.3587L8.3854 10.359ZM8.383 14.3579C9.27015 14.3579 10.1575 14.3579 11.0447 14.3579C11.0886 14.3579 11.133 14.3598 11.1764 14.3557C11.2759 14.3461 11.3508 14.2665 11.3503 14.1746C11.3498 14.0868 11.2687 14.005 11.1728 13.9978C11.137 13.9951 11.1008 13.9961 11.0648 13.9961C9.27423 13.9961 7.48386 13.9961 5.69325 13.9961C5.65343 13.9961 5.61217 13.9942 5.57402 14.0035C5.48094 14.0263 5.43104 14.0896 5.43416 14.1861C5.43728 14.2844 5.49582 14.3389 5.58914 14.3547C5.628 14.3615 5.66878 14.3579 5.70885 14.3579C6.60007 14.3579 7.4913 14.3579 8.38252 14.3579H8.383ZM8.3842 11.6909C9.27519 11.6909 10.1664 11.6909 11.0574 11.6909C11.1013 11.6909 11.1466 11.6955 11.1889 11.6863C11.2841 11.6659 11.3537 11.6069 11.3486 11.5062C11.3438 11.4097 11.2817 11.3462 11.1807 11.3327C11.1493 11.3287 11.1169 11.3303 11.085 11.3303C9.28694 11.3303 7.48866 11.3303 5.69061 11.3303C5.66255 11.3303 5.63448 11.3299 5.60689 11.3327C5.49989 11.344 5.43368 11.4119 5.43272 11.5093C5.43176 11.6122 5.50181 11.6823 5.61529 11.6907C5.64719 11.6931 5.6791 11.6914 5.71125 11.6914C6.60223 11.6914 7.49346 11.6914 8.38444 11.6914L8.3842 11.6909ZM8.37221 13.0262C9.27111 13.0262 10.17 13.0262 11.0687 13.0262C11.2529 13.0262 11.3551 12.958 11.3513 12.8395C11.3477 12.7263 11.2486 12.6637 11.0713 12.6637C9.28166 12.6637 7.49202 12.6637 5.70213 12.6637C5.66231 12.6637 5.62128 12.661 5.58266 12.6692C5.4903 12.6886 5.43368 12.746 5.43296 12.8436C5.432 12.9415 5.48934 12.9991 5.58002 13.0211C5.61792 13.0305 5.65943 13.0262 5.69925 13.0262C6.59 13.0262 7.48098 13.0262 8.37173 13.0262H8.37221ZM6.32323 6.10125C6.32323 5.8496 6.32779 5.5977 6.32107 5.34629C6.31819 5.2381 6.35681 5.20619 6.45997 5.21291C6.57536 5.22058 6.69147 5.21387 6.80734 5.21339C6.98775 5.21243 7.10338 5.11719 7.10194 4.97085C7.1005 4.83243 6.98415 4.73359 6.81406 4.73287C6.31867 4.73119 5.82328 4.73119 5.32789 4.73215C5.16596 4.73263 5.05152 4.83291 5.0508 4.96869C5.04984 5.10687 5.16044 5.20931 5.32069 5.21387C5.43248 5.21698 5.545 5.22154 5.65607 5.21291C5.76858 5.20427 5.81152 5.23738 5.80649 5.35732C5.79713 5.57659 5.80385 5.79658 5.80385 6.01633C5.80385 6.29197 5.80313 6.56762 5.80433 6.84326C5.80481 6.96969 5.83455 7.08292 5.96506 7.13881C6.14546 7.21606 6.31603 7.09131 6.32155 6.86821C6.32803 6.61272 6.32299 6.35698 6.32323 6.10125Z" fill="white"/>
<path d="M6.50635 2.81847C6.63229 2.49172 6.82781 2.24463 7.08546 2.04623C7.4266 1.78354 7.81332 1.66335 8.24562 1.66431C10.0727 1.66815 11.8998 1.66503 13.7271 1.66623C14.4746 1.66671 15.0676 2.26142 15.0676 3.00727C15.0679 6.40975 15.0676 9.812 15.0676 13.2145C15.0676 13.8922 14.6931 14.4209 14.0409 14.5874C13.776 14.6551 13.4862 14.6256 13.2077 14.6352C13.1885 14.6359 13.1549 14.5944 13.1501 14.5685C13.1403 14.514 13.1444 14.4572 13.1444 14.401C13.1444 11.0667 13.1444 7.73232 13.1458 4.39772C13.146 3.64972 12.7169 3.06916 12.0015 2.87484C11.8722 2.83958 11.733 2.82686 11.5984 2.82638C9.94722 2.82326 8.29599 2.8247 6.64477 2.82446C6.60543 2.82446 6.56632 2.82111 6.50635 2.81823V2.81847Z" fill="#F8043F"/>
<path d="M8.38997 6.57872C8.25731 6.7337 8.01213 6.78743 7.84396 6.69963C7.74128 6.64589 7.67843 6.53818 7.69043 6.42519C7.70434 6.29492 7.77943 6.20616 7.89074 6.14762C7.90777 6.13875 7.94712 6.15026 7.96343 6.16586C8.10761 6.30212 8.24867 6.4415 8.38973 6.57872H8.38997Z" fill="white"/>
<path d="M8.21928 5.07031C8.27134 5.10846 8.34787 5.14132 8.38745 5.19938C8.44479 5.28334 8.44023 5.3913 8.36778 5.46591C8.30349 5.53212 8.21569 5.57578 8.13604 5.62616C8.12284 5.63455 8.08638 5.6324 8.08206 5.624C8.03624 5.53428 7.97962 5.44599 7.95635 5.35004C7.93548 5.26391 7.96739 5.17323 8.05615 5.12525C8.0967 5.10342 8.14444 5.09478 8.21904 5.07031H8.21928Z" fill="white"/>
</g>
</g>
<defs>
<clipPath id="clip0_2792_15453">
<rect width="18" height="18" fill="white"/>
</clipPath>
<clipPath id="clip1_2792_15453">
<rect width="15.9293" height="19" fill="white" transform="translate(1.37891 -1)"/>
</clipPath>
</defs>
</svg>
