<svg width="18" height="19" viewBox="0 0 18 19" fill="none" xmlns="http://www.w3.org/2000/svg">
<g clip-path="url(#clip0_50_320)">
<path fill-rule="evenodd" clip-rule="evenodd" d="M15.9687 8.83397H14.9621C14.8943 8.22295 14.734 7.63951 14.4961 7.09756L15.3696 6.59323C15.1835 6.18604 14.9594 5.7998 14.702 5.43903L13.8282 5.94354C13.4703 5.45904 13.0415 5.03033 12.557 4.67234L13.0616 3.7985C12.7008 3.54104 12.3145 3.31697 11.9073 3.1308L11.403 4.00428C10.8611 3.76638 10.2775 3.60627 9.66656 3.53824V2.5317C9.44715 2.51097 9.22479 2.50037 8.99995 2.50037C8.77511 2.50037 8.55275 2.51097 8.33334 2.5317V3.53824C7.72232 3.60606 7.13888 3.76638 6.59672 4.00428L6.09241 3.13091C5.68531 3.31704 5.29916 3.54106 4.93846 3.79844L5.44291 4.67213C4.95862 5.02991 4.52991 5.45862 4.17192 5.94292L3.29829 5.4385C3.0408 5.7993 2.81669 6.18557 2.6305 6.5928L3.50407 7.09714C3.26617 7.6391 3.10585 8.22253 3.03782 8.83376H2.03128C2.01055 9.05317 1.99995 9.27553 1.99995 9.50037C1.99995 9.72521 2.01055 9.94757 2.03128 10.167H3.03782C3.10585 10.7782 3.26596 11.3617 3.50407 11.9038L2.63057 12.4081C2.81673 12.8152 3.04077 13.2014 3.29819 13.5621L4.17192 13.0576C4.52991 13.5419 4.95841 13.9707 5.44291 14.3284L4.93855 15.2024C5.29934 15.4598 5.6856 15.6839 6.09281 15.87L6.59714 14.9965C7.13909 15.2344 7.72253 15.3945 8.33355 15.4625V16.4691C8.55289 16.4898 8.77519 16.5004 8.99995 16.5004C9.22479 16.5004 9.44715 16.4898 9.66656 16.4691V15.4625C10.2775 15.3947 10.861 15.2344 11.4028 14.9965L11.9071 15.8701C12.3144 15.6839 12.7007 15.4598 13.0615 15.2023L12.557 14.3284C13.0413 13.9704 13.47 13.5417 13.828 13.0574L14.7018 13.5619C14.9592 13.2012 15.1833 12.815 15.3695 12.4079L14.4959 11.9036C14.7338 11.3617 14.8941 10.7782 14.9621 10.1672H15.9687C15.9894 9.94771 16 9.72528 16 9.50037C16 9.27561 15.9894 9.05331 15.9687 8.83397ZM7.39711 11.6684L8.48309 10.8135C8.76288 10.5748 9.21337 10.5791 9.48964 10.8235L10.5562 11.7161L11.2157 11.0566L10.3322 9.99918C10.0874 9.72354 10.0874 9.2772 10.3322 9.00176L11.2157 7.9444L10.5562 7.28484L9.48964 8.17732C9.21337 8.42144 8.76309 8.426 8.48309 8.18707L7.39711 7.33213L6.83192 7.89732L7.69515 8.99305C7.93346 9.27305 7.93346 9.72748 7.69515 10.0075L6.83192 11.1032L7.39711 11.6684Z" fill="url(#paint0_linear_50_320)"/>
<path d="M9 17.5C13.4183 17.5 17 13.9183 17 9.5C17 5.08172 13.4183 1.5 9 1.5C4.58172 1.5 1 5.08172 1 9.5C1 13.9183 4.58172 17.5 9 17.5Z" stroke="white" stroke-width="2"/>
</g>
<defs>
<linearGradient id="paint0_linear_50_320" x1="1.99995" y1="2.50037" x2="16.7135" y2="13.2729" gradientUnits="userSpaceOnUse">
<stop stop-color="#F8043F"/>
<stop offset="1" stop-color="#6F001B"/>
</linearGradient>
<clipPath id="clip0_50_320">
<rect width="18" height="18" fill="white" transform="translate(0 0.5)"/>
</clipPath>
</defs>
</svg>
