<svg width="18" height="18" viewBox="0 0 18 18" fill="none" xmlns="http://www.w3.org/2000/svg">
<g clip-path="url(#clip0_2792_15539)">
<g clip-path="url(#clip1_2792_15539)">
<path d="M6.5675 11.7544C6.25273 11.7544 5.93215 11.759 5.61219 11.7501C5.55718 11.7486 5.49361 11.6997 5.45052 11.6563C3.54784 9.73345 3.37976 6.70126 5.05569 4.57487C7.21874 1.83056 11.3493 1.85073 13.5068 4.61613C15.1522 6.72479 14.9679 9.77287 13.0768 11.6581C13.0234 11.7113 12.9298 11.7474 12.8534 11.7501C12.554 11.7605 12.2539 11.7544 11.9602 11.7544C12.0246 11.377 11.9626 11.0194 11.8569 10.6698C11.5947 9.80343 11.084 9.13325 10.2424 8.7653C9.17276 8.29803 7.96808 8.6397 7.22577 9.59379C6.79976 10.1417 6.57942 10.7655 6.5455 11.4558C6.54091 11.549 6.55864 11.6435 6.5675 11.7544ZM9.25406 5.11457C8.39378 5.11915 7.69518 5.82846 7.70098 6.69117C7.70679 7.53892 8.42098 8.2418 9.27239 8.23752C10.1305 8.23325 10.8294 7.5215 10.8233 6.65756C10.8175 5.80493 10.1104 5.10968 9.25375 5.11457H9.25406ZM12.2884 7.94078C12.1674 7.93773 12.0983 8.02666 12.138 8.14279C12.1576 8.19993 12.1839 8.2583 12.2212 8.30537C12.395 8.52662 12.3923 8.73871 12.2218 8.96486C12.1597 9.04707 12.0687 9.15525 12.1567 9.26924C12.2428 9.38109 12.3703 9.32272 12.4693 9.29124C12.7217 9.21117 12.9161 9.25518 13.075 9.4801C13.1364 9.5669 13.2092 9.69953 13.351 9.65369C13.4918 9.60815 13.4732 9.46116 13.476 9.35175C13.4824 9.10238 13.5722 8.92758 13.8256 8.85668C13.8882 8.83926 13.9463 8.80258 14.0031 8.76897C14.1312 8.69287 14.1306 8.56971 13.9995 8.49729C13.8839 8.43342 13.7565 8.3888 13.6468 8.31667C13.5881 8.27817 13.5343 8.20574 13.5154 8.13851C13.4812 8.01718 13.4827 7.88608 13.4527 7.76323C13.439 7.7073 13.3937 7.63243 13.347 7.61837C13.2999 7.60431 13.2229 7.64282 13.178 7.68072C13.0888 7.75528 13.0072 7.84116 12.9317 7.93039C12.8614 8.01352 12.7887 8.04285 12.6786 8.01291C12.5515 7.97837 12.4189 7.96431 12.2887 7.94139L12.2884 7.94078ZM13.296 5.06965C13.2987 4.92693 13.2018 4.84503 13.0949 4.91043C12.7517 5.12007 12.4516 5.08859 12.1524 4.8218C12.0445 4.72584 11.9241 4.80683 11.9238 4.95932C11.9238 5.0507 11.9287 5.1433 11.9452 5.23284C11.9785 5.41161 11.9314 5.54547 11.7679 5.64051C11.6854 5.68849 11.6121 5.75542 11.5427 5.82204C11.4468 5.91433 11.4706 6.0271 11.5962 6.07202C11.6818 6.10289 11.7716 6.12856 11.8618 6.13895C12.0537 6.16126 12.1768 6.24713 12.2163 6.447C12.2337 6.53532 12.2759 6.61997 12.315 6.70248C12.3767 6.83206 12.5161 6.85345 12.5714 6.72662C12.7303 6.36143 12.9806 6.19549 13.3864 6.24408C13.531 6.26119 13.5829 6.12061 13.4915 6.00051C13.4118 5.89538 13.3131 5.8034 13.2416 5.69338C13.2034 5.63471 13.182 5.54669 13.1927 5.47793C13.2153 5.33308 13.2639 5.1925 13.2963 5.06995L13.296 5.06965ZM6.753 5.20717C6.753 5.09715 6.75636 5.02075 6.75239 4.94465C6.74383 4.78605 6.61487 4.71117 6.50669 4.82272C6.22675 5.11121 5.93307 5.14177 5.58468 4.96177C5.45755 4.89606 5.35579 5.00853 5.39307 5.1491C5.40346 5.18822 5.41538 5.22825 5.43463 5.2637C5.58224 5.53263 5.55382 5.77161 5.31942 5.97912C5.29344 6.00204 5.27511 6.03474 5.25616 6.06499C5.16692 6.20649 5.22407 6.311 5.39429 6.31712C5.45022 6.31895 5.50798 6.32628 5.56207 6.31528C5.81602 6.26425 5.98288 6.36326 6.10268 6.5888C6.1531 6.68353 6.19925 6.82747 6.34686 6.80791C6.50424 6.78713 6.50516 6.62883 6.52686 6.52004C6.57453 6.28106 6.6821 6.13406 6.93911 6.09341C7.05066 6.076 7.21935 6.07752 7.24227 5.9128C7.26366 5.75847 7.10842 5.72058 7.01338 5.65793C6.8349 5.54027 6.67263 5.42598 6.753 5.20778V5.20717ZM8.62054 4.55379C8.6184 4.69406 8.73698 4.77168 8.85952 4.68092C9.16818 4.45263 9.45209 4.45416 9.76319 4.6797C9.90621 4.7833 10.0168 4.691 9.99453 4.50825C9.98047 4.39243 9.95969 4.27691 9.93463 4.16292C9.91202 4.05963 9.9276 3.97987 10.0159 3.90866C10.1104 3.83226 10.1975 3.74486 10.276 3.65195C10.3105 3.611 10.3441 3.53369 10.3276 3.49396C10.3075 3.44537 10.2387 3.40197 10.1828 3.38639C10.0859 3.35919 9.98261 3.34727 9.88176 3.3433C9.73355 3.33749 9.6382 3.2782 9.59052 3.13151C9.55935 3.03586 9.51107 2.94326 9.45514 2.85922C9.42244 2.81002 9.35949 2.75043 9.31059 2.75073C9.2617 2.75073 9.18377 2.81155 9.1694 2.86044C9.06091 3.23114 8.82102 3.40136 8.43596 3.38822C8.38706 3.38669 8.3128 3.44751 8.29324 3.49671C8.27765 3.53613 8.31433 3.61284 8.35008 3.65318C8.43687 3.75219 8.54506 3.83318 8.62788 3.93494C8.66883 3.98537 8.69297 4.06727 8.68838 4.13236C8.67861 4.27355 8.6453 4.41291 8.62115 4.55318L8.62054 4.55379ZM5.69042 9.58798C5.84383 9.61243 5.96883 9.64116 6.09504 9.64971C6.17419 9.65521 6.30438 9.6546 6.32424 9.61396C6.35541 9.55009 6.34136 9.42937 6.29674 9.36917C6.10268 9.10696 6.09626 8.86187 6.29429 8.59844C6.33952 8.53824 6.32485 8.43311 6.33769 8.34846C6.25212 8.33562 6.16655 8.32218 6.08068 8.31087C6.06631 8.30903 6.05012 8.31454 6.03606 8.31943C5.77752 8.40927 5.5636 8.36313 5.40774 8.12201C5.38085 8.08014 5.33867 8.04774 5.30108 8.01321C5.18221 7.90472 5.06974 7.93926 5.03827 8.09786C5.01443 8.21735 4.99059 8.33807 4.98479 8.45939C4.97898 8.57858 4.92489 8.64184 4.81854 8.68493C4.70577 8.73046 4.59606 8.78577 4.49032 8.84628C4.35922 8.92146 4.35891 9.04431 4.48879 9.11858C4.58995 9.17634 4.69477 9.23104 4.80356 9.27229C4.92947 9.32027 4.98356 9.40095 4.98784 9.53511C4.99151 9.64605 5.01626 9.75667 5.03827 9.86639C5.06974 10.0232 5.18557 10.0607 5.3017 9.95043C5.40102 9.856 5.49239 9.75301 5.5908 9.65735C5.62441 9.62465 5.66872 9.60235 5.69012 9.58768L5.69042 9.58798Z" fill="white"/>
<path d="M5.14404 13.8581V12.051H13.468V13.8581H5.14404ZM11.0596 13.2597C11.195 13.2484 11.3032 13.2496 11.4068 13.2288C11.6418 13.1818 11.7756 13.0051 11.7582 12.7826C11.7405 12.5583 11.5834 12.4074 11.3435 12.3942C11.2115 12.3869 11.077 12.3789 10.9474 12.3979C10.8903 12.4061 10.7998 12.4792 10.798 12.5256C10.7849 12.8459 10.7858 13.1671 10.7977 13.4874C10.7995 13.5335 10.8839 13.5766 10.93 13.6212C10.9734 13.5732 11.0355 13.532 11.055 13.4757C11.0767 13.4134 11.0599 13.3376 11.0599 13.26L11.0596 13.2597ZM7.3233 13.2536C7.29671 13.1915 7.2799 13.1552 7.26554 13.1182C7.18608 12.9147 7.10754 12.7108 7.02808 12.5076C6.99294 12.4181 6.9364 12.353 6.83158 12.393C6.73226 12.4309 6.73501 12.5137 6.76985 12.5971C6.89851 12.9067 7.02442 13.2175 7.1598 13.524C7.22092 13.6625 7.40031 13.6796 7.46051 13.5485C7.61087 13.2212 7.74747 12.8872 7.87766 12.551C7.89263 12.5125 7.84435 12.415 7.80431 12.3994C7.76275 12.3835 7.68971 12.4257 7.64204 12.459C7.61392 12.4786 7.60781 12.5305 7.59284 12.5684C7.50574 12.7894 7.41895 13.0103 7.3233 13.2539V13.2536ZM9.16302 12.9791C9.16302 13.1368 9.16302 13.2948 9.16302 13.4525C9.16302 13.5442 9.19175 13.62 9.29688 13.6191C9.40109 13.6182 9.43226 13.5405 9.43257 13.451C9.43409 13.1506 9.43348 12.8505 9.43257 12.5501C9.43257 12.4581 9.39773 12.3826 9.29596 12.3832C9.19389 12.3838 9.16211 12.4584 9.16302 12.5516C9.16425 12.694 9.16302 12.8367 9.16302 12.9791Z" fill="white"/>
<path d="M11.7524 11.7471H6.7998C6.82486 11.5228 6.83617 11.2997 6.87621 11.0818C7.03512 10.2209 7.45624 9.53085 8.24072 9.10606C9.18809 8.59296 10.365 8.86189 11.0538 9.72919C11.4667 10.2493 11.676 10.8431 11.7038 11.5038C11.7056 11.5445 11.7026 11.586 11.7102 11.6255C11.7176 11.664 11.7359 11.7003 11.753 11.7471H11.7524Z" fill="#F8043F"/>
<path d="M4.84733 13.1101C4.84733 13.3564 4.84611 13.5994 4.84733 13.8423C4.85009 14.2833 4.82319 14.1987 5.19664 14.3512C5.36808 14.4211 5.53983 14.4908 5.74061 14.5727H2.6748C2.82852 14.3609 2.9526 14.1767 3.09104 14.004C3.18669 13.8845 3.18975 13.7876 3.09226 13.6669C2.95321 13.4946 2.82944 13.31 2.68428 13.1101H4.84733Z" fill="white"/>
<path d="M13.1362 14.6715C13.3049 14.5799 13.4715 14.4836 13.6432 14.398C13.7477 14.3458 13.7902 14.2743 13.7878 14.1569C13.7817 13.8733 13.7856 13.5897 13.7856 13.2942H15.8304C15.74 13.4216 15.6571 13.5381 15.5746 13.6548C15.269 14.0863 15.2687 13.9421 15.5783 14.3834C15.6562 14.4946 15.7375 14.6031 15.824 14.722H13.1475C13.1439 14.7052 13.1402 14.6883 13.1365 14.6715H13.1362Z" fill="white"/>
<path d="M12.6631 14.5976V14.1692H13.4054C13.4085 14.1777 13.4115 14.1863 13.4143 14.1949C13.1719 14.3247 12.9296 14.4546 12.6631 14.5976Z" fill="white"/>
<path d="M5.59083 14.1682H6.41076V14.5261C6.12777 14.4139 5.85701 14.3063 5.58594 14.1991C5.58747 14.1887 5.5893 14.1786 5.59083 14.1682Z" fill="white"/>
<path d="M9.25467 7.9447C8.54811 7.94103 7.98703 7.37231 7.99222 6.66484C7.99742 5.96073 8.57073 5.39414 9.2727 5.39995C9.97284 5.40575 10.5461 5.9864 10.5391 6.68287C10.5321 7.38728 9.96061 7.94837 9.25467 7.9447Z" fill="#F8043F"/>
<path d="M13.2288 8.05908C13.197 8.37508 13.3263 8.55019 13.6212 8.62811C13.3486 8.72377 13.1857 8.88574 13.2291 9.21059C13.1007 9.10119 13.0207 8.99117 12.9155 8.95541C12.815 8.92119 12.6879 8.96367 12.5262 8.9762C12.7154 8.7473 12.7242 8.5291 12.5137 8.29042C12.6787 8.30448 12.8064 8.34879 12.9088 8.31518C13.0152 8.28003 13.0968 8.16971 13.2285 8.05908H13.2288Z" fill="#F8043F"/>
<path d="M12.2264 5.21704C12.4498 5.4001 12.671 5.47314 12.9357 5.28091C12.8034 5.55932 12.8532 5.77538 13.0851 5.97035C12.7734 5.91962 12.5946 6.0605 12.48 6.3328C12.4256 6.03728 12.2667 5.88234 11.9565 5.86675C12.2099 5.71334 12.3251 5.51684 12.2264 5.21704Z" fill="#F8043F"/>
<path d="M6.77446 5.84389C6.46672 5.87781 6.31819 6.04345 6.27908 6.34416C6.15103 6.0734 5.95758 5.9533 5.65137 6.01992C5.86804 5.81364 5.9151 5.59727 5.76322 5.33079C6.02329 5.45761 6.24301 5.45089 6.44746 5.21802C6.3952 5.5172 6.50583 5.71493 6.77385 5.84389H6.77446Z" fill="#F8043F"/>
<path d="M9.65808 4.2977C9.41757 4.10976 9.19539 4.12504 8.95763 4.3032C9.06032 4.02174 8.99797 3.80843 8.74463 3.63821C9.04259 3.6431 9.22565 3.51811 9.30663 3.22412C9.40473 3.49152 9.5612 3.65991 9.8775 3.63332C9.63668 3.80477 9.55295 4.01166 9.65808 4.2977Z" fill="#F8043F"/>
<path d="M5.95152 9.33374C5.67647 9.25 5.45644 9.27659 5.29508 9.55163C5.28958 9.25306 5.17039 9.06481 4.87549 8.98565C5.14992 8.89306 5.30242 8.72864 5.28255 8.41968C5.4595 8.64582 5.65966 8.74851 5.94876 8.62902C5.7709 8.86983 5.7709 9.09598 5.95152 9.33374Z" fill="#F8043F"/>
<path d="M11.0679 13.0015V12.6464C11.2023 12.6314 11.3405 12.5917 11.4376 12.7041C11.4749 12.7472 11.4829 12.8581 11.4535 12.9086C11.3689 13.0543 11.217 12.999 11.0679 13.0018V13.0015Z" fill="white"/>
</g>
</g>
<defs>
<clipPath id="clip0_2792_15539">
<rect width="18" height="18" fill="white"/>
</clipPath>
<clipPath id="clip1_2792_15539">
<rect width="18" height="19.0696" fill="white" transform="translate(0 -0.5)"/>
</clipPath>
</defs>
</svg>
