<svg width="24" height="24" viewBox="0 0 24 24" fill="none" xmlns="http://www.w3.org/2000/svg">
<path d="M1.19995 7.0952V20.0552C1.19995 20.6514 1.68355 21.1352 2.27995 21.1352H5.11507V6.0152H2.27995C1.68355 6.0152 1.19995 6.4988 1.19995 7.0952Z" fill="#5256FF"/>
<path d="M21.7196 6.01501H18.8848V21.135H21.7196C22.3158 21.135 22.7996 20.6512 22.7996 20.055V7.09501C22.7996 6.49861 22.3158 6.01501 21.7196 6.01501Z" fill="#5256FF"/>
<path d="M16.3195 5.74513C16.3195 5.59585 16.1988 5.47513 16.0495 5.47513H15.9144V4.39513C15.9144 3.42745 15.1272 2.64001 14.1592 2.64001H9.83947C8.87179 2.64001 8.08435 3.42721 8.08435 4.39513V5.47513H7.94923C7.79995 5.47513 7.67923 5.59585 7.67923 5.74513V6.01513H6.46411V21.1351H17.5341V6.01513H16.3195V5.74513ZM14.5648 5.47513H14.4297C14.2804 5.47513 14.1597 5.59585 14.1597 5.74513V6.01513H9.83947V5.74513C9.83947 5.59585 9.71875 5.47513 9.56947 5.47513H9.43435V4.39513C9.43435 4.17553 9.62011 3.99001 9.83971 3.99001H14.1597C14.3791 3.99001 14.5648 4.17529 14.5648 4.39513V5.47513Z" fill="#A8ADBD" fill-opacity="0.6"/>
</svg>
