<svg width="24" height="24" viewBox="0 0 24 24" fill="none" xmlns="http://www.w3.org/2000/svg">
<path fill-rule="evenodd" clip-rule="evenodd" d="M20.2662 3.93311H21.0359C21.834 3.93311 22.4899 4.58901 22.4899 5.38704V17.4604C22.4899 18.2585 21.834 18.9153 21.0359 18.9153H19.4499C19.0637 18.9153 18.7503 19.2287 18.7503 19.6149V21.8596L16.5721 19.1748C16.4446 19.0182 16.2487 18.9179 16.031 18.9179L6.07495 18.917L7.51249 17.1442H17.6481C19.0893 17.1442 20.2655 15.9682 20.2655 14.5269L20.2662 3.93311Z" fill="#5256FF"/>
<path fill-rule="evenodd" clip-rule="evenodd" d="M17.6492 2.14038H2.72825C2.05959 2.14038 1.51025 2.68971 1.51025 3.35838V14.5281C1.51025 15.1967 2.05959 15.7461 2.72825 15.7461H4.14028C4.52653 15.7461 4.83992 16.0595 4.83992 16.4457V18.2276L6.60722 16.0494C6.73294 15.8663 6.94428 15.7461 7.18388 15.7461H17.6502C18.3189 15.7461 18.8682 15.1967 18.8682 14.5281L18.8664 3.35838C18.8673 2.68971 18.3169 2.14038 17.6492 2.14038ZM6.34374 11.8306C5.42274 11.8306 5.42274 10.4313 6.34374 10.4313H14.0334C14.9544 10.4313 14.9544 11.8306 14.0334 11.8306H6.34374ZM6.34374 7.45505C5.42274 7.45505 5.42274 6.05578 6.34374 6.05578H10.6362C11.5572 6.05578 11.5572 7.45505 10.6362 7.45505H6.34374Z" fill="#A8ADBD" fill-opacity="0.6"/>
</svg>
