<svg width="24" height="24" viewBox="0 0 24 24" fill="none" xmlns="http://www.w3.org/2000/svg">
<path d="M10.3439 18.0251C10.157 20.2807 7.96237 22.1331 5.70586 21.7093C2.04859 21.2532 0.782836 15.6565 4.36986 14.0855C4.69368 13.9726 5.06377 14.005 5.49122 14.0438C6.31836 14.1808 7.24356 13.9522 8.04664 14.0059C9.76476 14.4407 10.5781 16.4327 10.3439 18.0251Z" fill="#A8ADBD" fill-opacity="0.6"/>
<path d="M21.4871 18.0251C21.3003 20.2807 19.1046 22.1331 16.8472 21.7093C13.1906 21.2532 11.926 15.6565 15.5112 14.0855C15.8359 13.9726 16.2069 14.005 16.6344 14.0438C17.4597 14.1808 18.3886 13.9522 19.1879 14.0059C20.9051 14.4389 21.7202 16.4327 21.4871 18.0251Z" fill="#A8ADBD" fill-opacity="0.6"/>
<path d="M18.3951 3.70176C16.9555 6.03977 16.6492 9.06154 17.4782 12.692C17.0045 12.6994 16.5289 12.6106 16.033 12.6125C15.3576 9.38439 15.5297 6.57553 16.5502 4.23185C16.0321 4.33363 15.5232 4.45761 15.0264 4.60379C15.4825 4.10973 15.3594 3.65637 14.7979 3.2206C15.7407 2.95137 16.7251 2.758 17.7235 2.64512C18.2823 2.56185 18.7051 3.23356 18.3952 3.70078L18.3951 3.70176Z" fill="#A8ADBD" fill-opacity="0.6"/>
<path d="M9.59342 7.78395C8.35085 9.09775 7.50614 10.7262 7.074 12.6366C6.56791 12.7014 6.146 12.7088 5.64453 12.6579C6.01646 10.8019 6.7298 9.17069 7.77437 7.78107C8.3767 7.84583 8.98456 7.85046 9.59242 7.78384L9.59342 7.78395Z" fill="#A8ADBD" fill-opacity="0.6"/>
<path d="M13.6599 4.07383C10.5069 7.93574 5.47377 6.29342 2.59717 4.31068C8.33355 0.449717 12.3655 2.99965 13.6599 4.07383Z" fill="#5256FF"/>
</svg>
