<svg viewBox="0 0 18 18" fill="none" xmlns="http://www.w3.org/2000/svg">
<path d="M9 17.3334C7.84722 17.3334 6.76389 17.1145 5.75 16.6767C4.73611 16.239 3.85417 15.6454 3.10417 14.8959C2.35417 14.1465 1.76056 13.2645 1.32333 12.2501C0.886112 11.2356 0.667223 10.1523 0.666667 9.00008C0.666112 7.84786 0.885 6.76453 1.32333 5.75008C1.76167 4.73564 2.35528 3.85369 3.10417 3.10425C3.85306 2.3548 4.735 1.76119 5.75 1.32341C6.765 0.885637 7.84833 0.666748 9 0.666748C10.1517 0.666748 11.235 0.885637 12.25 1.32341C13.265 1.76119 14.1469 2.3548 14.8958 3.10425C15.6447 3.85369 16.2386 4.73564 16.6775 5.75008C17.1164 6.76453 17.335 7.84786 17.3333 9.00008C17.3317 10.1523 17.1128 11.2356 16.6767 12.2501C16.2406 13.2645 15.6469 14.1465 14.8958 14.8959C14.1447 15.6454 13.2628 16.2392 12.25 16.6776C11.2372 17.1159 10.1539 17.3345 9 17.3334ZM8.16667 15.6042V14.7709C7.68056 14.7015 7.21194 14.5695 6.76083 14.3751C6.30972 14.1806 5.88944 13.9445 5.5 13.6667L4.91667 14.2709C5.375 14.632 5.87861 14.9273 6.4275 15.1567C6.97639 15.3862 7.55611 15.5354 8.16667 15.6042ZM9.83333 15.6042C10.4444 15.5348 11.0244 15.3856 11.5733 15.1567C12.1222 14.9279 12.6256 14.6326 13.0833 14.2709L12.5 13.6667C12.1111 13.9445 11.6911 14.1806 11.24 14.3751C10.7889 14.5695 10.32 14.7015 9.83333 14.7709V15.6042ZM9 13.1667C10.1528 13.1667 11.1356 12.7604 11.9483 11.9476C12.7611 11.1348 13.1672 10.1523 13.1667 9.00008C13.1661 7.84786 12.7597 6.86536 11.9475 6.05258C11.1353 5.2398 10.1528 4.83342 9 4.83342C7.84722 4.83342 6.86472 5.2398 6.0525 6.05258C5.24028 6.86536 4.83389 7.84786 4.83333 9.00008C4.83278 10.1523 5.23917 11.1351 6.0525 11.9484C6.86583 12.7617 7.84833 13.1679 9 13.1667ZM14.2708 13.0834C14.6319 12.6251 14.9272 12.1217 15.1567 11.5734C15.3861 11.0251 15.5353 10.4451 15.6042 9.83342H14.7708C14.7014 10.3195 14.5694 10.7884 14.375 11.2401C14.1806 11.6917 13.9444 12.1117 13.6667 12.5001L14.2708 13.0834ZM3.72917 13.0834L4.33333 12.4792C4.05556 12.0904 3.81944 11.6737 3.625 11.2292C3.43056 10.7848 3.29861 10.3195 3.22917 9.83342H2.39583C2.46528 10.4445 2.61444 11.0242 2.84333 11.5726C3.07222 12.1209 3.3675 12.6245 3.72917 13.0834ZM2.39583 8.16675H3.22917C3.29861 7.68064 3.43056 7.21536 3.625 6.77092C3.81944 6.32647 4.05556 5.9098 4.33333 5.52091L3.72917 4.91675C3.36806 5.37508 3.07306 5.87869 2.84417 6.42758C2.61528 6.97647 2.46583 7.55619 2.39583 8.16675ZM14.7708 8.16675H15.6042C15.5347 7.55564 15.3819 6.97591 15.1458 6.42758C14.9097 5.87925 14.6111 5.37564 14.25 4.91675L13.6667 5.50008C13.9444 5.88897 14.1806 6.30925 14.375 6.76091C14.5694 7.21258 14.7014 7.68119 14.7708 8.16675ZM5.52083 4.33342C5.90972 4.05564 6.32639 3.81953 6.77083 3.62508C7.21528 3.43064 7.68056 3.29869 8.16667 3.22925V2.39591C7.55556 2.46536 6.97583 2.6148 6.4275 2.84425C5.87917 3.07369 5.37556 3.36869 4.91667 3.72925L5.52083 4.33342ZM12.5 4.33342L13.0833 3.75008C12.625 3.38897 12.1217 3.09036 11.5733 2.85425C11.025 2.61814 10.445 2.46536 9.83333 2.39591V3.22925C10.3194 3.29869 10.7883 3.43064 11.24 3.62508C11.6917 3.81953 12.1117 4.05564 12.5 4.33342Z" fill="#A8ADBD" fill-opacity="0.6"/>
</svg>
