<svg viewBox="0 0 18 16" fill="none" xmlns="http://www.w3.org/2000/svg">
<path d="M0 3.9127V14.7127C0 15.2095 0.403 15.6127 0.9 15.6127H3.2626V3.0127H0.9C0.403 3.0127 0 3.4157 0 3.9127Z" fill="#5256FF"/>
<path d="M17.0997 3.01245H14.7373V15.6125H17.0997C17.5965 15.6125 17.9997 15.2093 17.9997 14.7125V3.91245C17.9997 3.41545 17.5965 3.01245 17.0997 3.01245Z" fill="#5256FF"/>
<path d="M12.5995 2.78755C12.5995 2.66315 12.4989 2.56255 12.3745 2.56255H12.2619V1.66255C12.2619 0.856151 11.6059 0.199951 10.7993 0.199951H7.19952C6.39312 0.199951 5.73692 0.855951 5.73692 1.66255V2.56255H5.62432C5.49992 2.56255 5.39932 2.66315 5.39932 2.78755V3.01255H4.38672V15.6126H13.6117V3.01255H12.5995V2.78755ZM11.1373 2.56255H11.0247C10.9003 2.56255 10.7997 2.66315 10.7997 2.78755V3.01255H7.19952V2.78755C7.19952 2.66315 7.09892 2.56255 6.97452 2.56255H6.86192V1.66255C6.86192 1.47955 7.01672 1.32495 7.19972 1.32495H10.7997C10.9825 1.32495 11.1373 1.47935 11.1373 1.66255V2.56255Z" fill="#A8ADBD" fill-opacity="0.6"/>
</svg>
