<svg viewBox="0 0 14 18" fill="none" xmlns="http://www.w3.org/2000/svg">
<path d="M7.00004 0.719971C6.20004 0.719971 3.54004 3.21997 3.54004 6.23997C3.54004 8.17997 3.90004 10.1 4.48004 11.08C4.48004 11.08 4.94004 11.56 7.00004 11.56C9.02004 11.56 9.50004 11.08 9.50004 11.08C9.78004 10.6 10.02 9.91997 10.18 9.09997C10.34 8.23997 10.44 7.25997 10.44 6.23997C10.44 6.05997 10.44 5.89997 10.42 5.73997C10.16 2.93997 7.76004 0.719971 7.00004 0.719971ZM6.96004 9.33997C5.98004 9.33997 5.20004 8.53997 5.20004 7.57997C5.20004 6.61997 6.00004 5.81997 6.96004 5.81997C7.92004 5.81997 8.72004 6.59997 8.72004 7.57997C8.72004 8.55997 7.94004 9.33997 6.96004 9.33997Z" fill="currentColor"/>
<path d="M9.48006 11.76C9.40006 11.42 9.34006 12.06 6.98006 12.06C4.62006 12.06 4.58006 11.42 4.48006 11.76C4.46006 11.82 4.38006 12.52 4.36006 12.78C4.32006 13.1 4.26006 13.5 4.26006 13.94C4.26006 14.94 4.82006 15.36 5.10006 15.36C5.40006 15.36 5.66006 14.42 5.66006 14.42C5.70006 14.36 5.74006 14.36 5.76006 14.42C5.76006 14.42 6.40006 17.26 6.94006 17.26H6.96006H6.98006C7.52006 17.26 8.16006 14.42 8.16006 14.42C8.18006 14.36 8.24006 14.36 8.26006 14.42C8.26006 14.42 8.54006 15.36 8.82006 15.36C9.10006 15.36 9.66006 14.94 9.66006 13.94C9.66006 13.52 9.60006 13.12 9.56006 12.78C9.58006 12.54 9.50006 11.82 9.48006 11.76Z" fill="currentColor"/>
<path d="M13.1001 7.57999L11.0001 6.29999C11.0001 6.45999 11.0001 6.63999 11.0001 6.81999C10.9401 7.83999 10.7801 8.81999 10.5601 9.65999L12.1801 10.64C12.6801 10.96 13.3401 10.62 13.3801 10.02L13.4801 8.31999C13.5001 8.01999 13.3601 7.73999 13.1001 7.57999Z" fill="#5256FF"/>
<path d="M3.00005 6.29999L0.900048 7.57999C0.640049 7.73999 0.500049 8.01999 0.520049 8.29999L0.620049 9.99999C0.660049 10.6 1.32005 10.94 1.82005 10.62L3.44005 9.63999C3.24005 8.79999 3.08005 7.81999 3.00005 6.79999C3.00005 6.63999 3.00005 6.45999 3.00005 6.29999Z" fill="#5256FF"/>
</svg>
