<svg viewBox="0 0 14 18" fill="none" xmlns="http://www.w3.org/2000/svg">
<path d="M9.12338 9.27139C9.28122 9.42781 9.51761 9.42781 9.67545 9.27139C9.79403 9.15388 9.97112 9.09589 10.129 9.09589C10.2868 9.09589 10.4447 9.15464 10.5825 9.27139C10.8189 9.52548 10.8189 9.91615 10.5825 10.1702L9.39981 11.3423L8.21714 10.1702C7.96074 9.91615 7.96074 9.52548 8.21714 9.27139C8.47277 9.03714 8.86698 9.03714 9.12338 9.27139Z" fill="#A8ADBD" fill-opacity="0.6"/>
<path d="M5.7133 3.56812H13.0658C13.2829 3.56812 13.46 3.74361 13.46 3.95879V16.8311C13.46 17.0462 13.2829 17.2217 13.0658 17.2217H5.7133C5.49616 17.2217 5.31907 17.0462 5.31907 16.8311V3.95879C5.31907 3.74361 5.49694 3.56812 5.7133 3.56812ZM11.6073 5.50163L11.923 5.11096L12.2387 5.50163C12.3766 5.67713 12.6129 5.69697 12.7908 5.56038C12.9679 5.4238 12.9879 5.18956 12.8501 5.01329L12.2387 4.23194C12.0809 4.03661 11.766 4.03661 11.6081 4.23194L10.9968 5.01329C10.8589 5.18878 10.8982 5.42381 11.056 5.56038C11.1346 5.61914 11.2139 5.63821 11.2924 5.63821C11.4295 5.65805 11.528 5.5993 11.6073 5.50163ZM9.39909 12.2796C9.49765 12.2796 9.59621 12.2407 9.67474 12.1621L11.133 10.7169C11.6851 10.1698 11.6851 9.27174 11.133 8.72469C10.6603 8.25619 9.95038 8.17759 9.39831 8.5095C8.84623 8.17759 8.1371 8.25541 7.66356 8.72469C7.11149 9.27178 7.11149 10.1699 7.66356 10.7169L9.12188 12.1621C9.20195 12.2407 9.30055 12.2796 9.39909 12.2796ZM5.94963 15.7568L6.561 16.5381C6.63953 16.6358 6.75811 16.6945 6.87669 16.6945C6.99527 16.6945 7.11307 16.6358 7.19239 16.5381L7.80375 15.7568C7.94157 15.5813 7.9023 15.3463 7.74446 15.2097C7.56737 15.0731 7.33021 15.112 7.19239 15.2684L6.8767 15.6591L6.561 15.2684C6.42318 15.0929 6.1868 15.0731 6.00893 15.2097C5.83184 15.3463 5.81181 15.5813 5.94963 15.7568Z" fill="#A8ADBD" fill-opacity="0.6"/>
<path d="M0.805614 3.58709L7.90164 0.833238C7.96093 0.8134 8.03947 0.8134 8.09876 0.833238C8.15804 0.853076 8.21733 0.911068 8.23658 0.969821L8.9465 2.76676H5.71426C5.06363 2.76676 4.53158 3.29401 4.53158 3.93877L4.53082 13.7056L0.647907 3.93877C0.608639 3.80219 0.667789 3.64584 0.805614 3.58709Z" fill="#5256FF"/>
</svg>
