<svg viewBox="0 0 18 20" fill="none" xmlns="http://www.w3.org/2000/svg">
<path fill-rule="evenodd" clip-rule="evenodd" d="M7.31272 19.1328C3.80844 19.1328 0.95388 16.2821 0.95388 12.7719C0.95388 9.27238 3.80844 6.42169 7.31272 6.42169C10.817 6.42169 13.6716 9.27238 13.6716 12.7719C13.6716 16.2821 10.817 19.1328 7.31272 19.1328ZM7.23816 17.165C4.74575 17.165 2.71135 15.1333 2.71135 12.6443C2.71135 12.4741 2.722 12.3039 2.7433 12.1443C2.75395 12.0061 2.87112 11.9103 3.00959 11.921C3.14805 11.9422 3.24392 12.0592 3.23326 12.1975C3.21196 12.3464 3.21196 12.4954 3.21196 12.6443C3.21196 14.8674 5.01204 16.665 7.23816 16.665C7.37663 16.665 7.48314 16.782 7.48314 16.9203C7.48314 17.0586 7.37663 17.165 7.23816 17.165Z" fill="currentColor"/>
<path fill-rule="evenodd" clip-rule="evenodd" d="M7.76007 5.94307C8.13287 5.6346 8.55892 5.36868 8.98498 5.51759L10.7318 6.16644C11.0407 6.27281 11.1578 6.68765 11.2537 7.16631C10.2525 6.46428 9.04889 6.02817 7.76007 5.94307Z" fill="currentColor"/>
<path fill-rule="evenodd" clip-rule="evenodd" d="M9.77319 6.32595C9.71993 6.32595 9.66667 6.30468 9.62407 6.27277C9.51755 6.18767 9.49625 6.03876 9.57081 5.92175C9.62407 5.85793 10.8277 4.30494 13.7035 3.52845C13.8313 3.49654 13.9698 3.571 14.0124 3.70928C14.0444 3.83692 13.9698 3.9752 13.8313 4.01775C11.1259 4.74105 9.98621 6.20895 9.97556 6.23022C9.9223 6.29404 9.84775 6.32595 9.77319 6.32595Z" fill="#5256FF"/>
<path fill-rule="evenodd" clip-rule="evenodd" d="M13.4905 5.48563C13.4372 5.48563 13.384 5.46436 13.3414 5.43245C13.2668 5.37926 13.2242 5.28353 13.2455 5.1878L13.5011 3.85819L12.5106 2.93277C12.4467 2.86895 12.4147 2.77322 12.4467 2.67749C12.4786 2.59239 12.5532 2.51794 12.649 2.5073L13.9911 2.33711L14.5663 1.11387C14.6089 1.02877 14.6941 0.975586 14.79 0.975586C14.8858 0.975586 14.971 1.02877 15.0136 1.11387L15.5888 2.33711L16.9309 2.5073C17.0267 2.51794 17.112 2.59239 17.1333 2.67749C17.1652 2.77322 17.1439 2.86895 17.0693 2.93277L16.0894 3.85819L16.3451 5.1878C16.3557 5.28353 16.3238 5.37926 16.2385 5.43245C16.164 5.48563 16.0575 5.49627 15.9723 5.45372L14.79 4.79423L13.6077 5.45372C13.5651 5.47499 13.5331 5.48563 13.4905 5.48563Z" fill="#5256FF"/>
</svg>
