<svg viewBox="0 0 19 16" fill="none" xmlns="http://www.w3.org/2000/svg">
<path d="M18.0404 9.42054C18.0404 7.40054 14.5404 5.74055 10.0604 5.56055V5.62054L10.1204 6.02054C12.4804 6.16054 14.5004 6.74055 15.6004 7.56055C16.1804 8.00055 16.5204 8.48054 16.5204 9.02054C16.5204 9.24054 16.4604 9.44055 16.3604 9.64055C16.2004 9.94055 15.9404 10.2205 15.5804 10.4805C14.3204 11.4005 11.9004 12.0205 9.12037 12.0205C6.34037 12.0205 3.92036 11.4005 2.66036 10.4805C2.30036 10.2205 2.04036 9.94055 1.88036 9.64055C1.78036 9.44055 1.72037 9.22054 1.72037 9.02054C1.72037 8.60054 1.94037 8.20054 2.32037 7.82054C3.32037 6.86054 5.50037 6.16054 8.12037 6.02054L8.18036 5.58055C3.86036 5.82055 0.500366 7.44054 0.500366 9.42054C0.500366 9.52054 0.520367 9.62054 0.520367 9.72054C0.560367 9.98054 0.660367 10.2205 0.820367 10.4605C0.820367 10.4605 0.820368 10.4805 0.840368 10.4805C1.88037 12.1005 5.26036 13.2805 9.26036 13.2805C12.3204 13.2805 15.0004 12.6005 16.5604 11.5405C15.0804 12.8605 12.1204 13.7405 8.70037 13.7405C4.88037 13.7405 1.64037 12.6205 0.400366 11.0605C0.860366 13.3005 4.62036 15.0405 9.18036 15.0405C14.0604 15.0405 18.0204 13.0605 18.0204 10.6005C18.0204 10.5605 18.0204 10.5205 18.0204 10.4605V9.62054H18.0004C18.0404 9.58054 18.0404 9.50054 18.0404 9.42054Z" fill="#A8ADBD" fill-opacity="0.6"/>
<path d="M10.2204 6.56055L10.5204 8.64055C10.5204 9.08055 9.38041 9.30054 9.14041 9.30054C8.90041 9.30054 7.76041 9.08055 7.76041 8.66055L8.06041 6.56055C5.92041 6.76055 4.32041 7.56054 4.32041 8.50054C4.32041 8.92054 4.64041 9.32055 5.20041 9.64055C6.08041 10.1405 7.52041 10.4805 9.14041 10.4805C10.7604 10.4805 12.2004 10.1405 13.0804 9.64055C13.6404 9.32055 13.9604 8.92054 13.9604 8.50054C13.9604 7.56054 12.3604 6.76055 10.2204 6.56055Z" fill="#A8ADBD" fill-opacity="0.6"/>
<path d="M6.1804 5.24043C6.3804 5.24043 6.5404 5.16043 6.6804 5.04043H8.2804H8.3804H8.4804L8.4004 5.58043L8.34041 6.02043L8.32041 6.20043L8.2604 6.56043L7.9604 8.70043C7.9604 8.86043 8.78041 9.12043 9.14041 9.12043C9.50041 9.12043 10.3204 8.86043 10.3204 8.68043L10.0204 6.56043L9.9604 6.20043L9.94041 6.02043L9.8804 5.62043V5.58043L9.8004 5.06043H9.9004H10.0004H11.8004C11.9404 5.18043 12.1004 5.26043 12.3004 5.26043C12.7004 5.26043 13.0404 4.92043 13.0404 4.52043C13.0404 4.12043 12.7004 3.78043 12.3004 3.78043C12.1004 3.78043 11.9404 3.86043 11.8004 3.98043H9.84041H9.74041H9.64041L9.6004 3.70043C9.6404 3.68043 9.6604 3.68043 9.7004 3.66043C9.7404 3.64043 9.7604 3.64043 9.8004 3.62043C10.2604 3.38043 10.5604 2.92043 10.5604 2.36043C10.5604 1.58043 9.92041 0.94043 9.14041 0.94043C8.36041 0.94043 7.72041 1.58043 7.72041 2.36043C7.72041 2.90043 8.0404 3.38043 8.4804 3.62043C8.5204 3.64043 8.5404 3.66043 8.5804 3.66043C8.6204 3.68043 8.6404 3.68043 8.6804 3.70043L8.64041 3.98043H8.54041H8.44041H6.6804C6.5404 3.86043 6.3804 3.78043 6.1804 3.78043C5.7804 3.78043 5.44041 4.12043 5.44041 4.52043C5.44041 4.90043 5.7804 5.24043 6.1804 5.24043ZM10.0604 2.22043C10.0604 2.22043 9.98041 2.04043 9.64041 1.74043C9.46041 1.56043 9.14041 1.38043 9.14041 1.38043C10.0404 1.42043 10.0604 2.22043 10.0604 2.22043Z" fill="#5256FF"/>
</svg>
