<svg viewBox="0 0 16 16" fill="none" xmlns="http://www.w3.org/2000/svg">
<path d="M1.45097 4.91821H3.15538C3.40649 4.91821 3.61008 5.16931 3.61008 5.37291V8.89705C3.61008 9.14816 3.40648 9.35175 3.15538 9.35175H1.45097C1.19987 9.35175 0.996271 9.10065 0.996271 8.89705V5.37291C0.996271 5.12181 1.19987 4.91821 1.45097 4.91821Z" fill="#A8ADBD" fill-opacity="0.6"/>
<path d="M5.65116 4.91821H7.35558C7.60668 4.91821 7.81027 5.16931 7.81027 5.37291V8.89705C7.81027 9.14816 7.60668 9.35175 7.35558 9.35175H5.65116C5.40006 9.35175 5.19646 9.10065 5.19646 8.89705V5.37291C5.19646 5.12181 5.40006 4.91821 5.65116 4.91821Z" fill="#A8ADBD" fill-opacity="0.6"/>
<path d="M12.073 2.45152H7.81096V1.48879C7.81096 0.766487 7.22537 0.181885 6.50309 0.181885C5.78178 0.181885 5.19619 0.766512 5.19619 1.48879V2.45152H0.934152C0.518224 2.45152 0.181818 2.78892 0.181818 3.20385C0.181818 3.61978 0.518248 3.95619 0.934152 3.95619H12.073C12.4889 3.95619 12.8253 3.61976 12.8253 3.20385C12.8253 2.78889 12.4889 2.45152 12.073 2.45152Z" fill="#5256FF"/>
<path d="M9.85233 4.91821H11.5567C11.8079 4.91821 12.0114 5.16931 12.0114 5.37291V8.89705C12.0114 9.14816 11.8078 9.35175 11.5567 9.35175H9.85233C9.60123 9.35175 9.39764 9.10065 9.39764 8.89705V5.37291C9.39764 5.12181 9.60123 4.91821 9.85233 4.91821Z" fill="#A8ADBD" fill-opacity="0.6"/>
<path d="M12.3705 10.3127H0.636515C0.385414 10.3127 0.181818 10.5163 0.181818 10.7674V15.3631C0.181818 15.6142 0.385416 15.8177 0.636515 15.8177H12.3705C12.6216 15.8177 12.8252 15.6142 12.8252 15.3631V10.7674C12.8252 10.5163 12.6216 10.3127 12.3705 10.3127ZM7.79724 13.7061H5.02438C4.67051 13.7061 4.38354 13.4191 4.38354 13.0652C4.38354 12.7104 4.67051 12.4234 5.02438 12.4234H7.79724C8.15112 12.4234 8.43808 12.7104 8.43808 13.0652C8.43808 13.4191 8.15112 13.7061 7.79724 13.7061Z" fill="#A8ADBD" fill-opacity="0.6"/>
<path d="M15.1218 10.3133H15.1209V7.71118C14.8533 7.76838 14.576 7.76838 14.3084 7.71118V10.3133C14.1882 10.3133 14.0718 10.3608 13.9865 10.4461C13.9012 10.5314 13.8537 10.6478 13.8537 10.768V12.1331C13.8537 12.2533 13.9012 12.3696 13.9865 12.455C14.0718 12.5403 14.1882 12.5878 14.3084 12.5878H15.1218C15.3729 12.5878 15.5765 12.3842 15.5765 12.1331V10.768C15.5765 10.5169 15.3729 10.3133 15.1218 10.3133Z" fill="#A8ADBD" fill-opacity="0.6"/>
<path d="M15.8181 5.83086C15.8181 7.30065 13.6125 7.30065 13.6125 5.83086C13.6125 4.36009 15.8181 4.36009 15.8181 5.83086Z" fill="#A8ADBD" fill-opacity="0.6"/>
</svg>
