<svg width="34" height="34" viewBox="0 0 34 34" fill="none" xmlns="http://www.w3.org/2000/svg">
<g clip-path="url(#clip0_2166_5053)">
<path fill-rule="evenodd" clip-rule="evenodd" d="M11.5924 32.9384C18.8381 32.3957 23.712 29.1627 25.9529 23.7798C27.7896 19.3686 27.7209 14.102 24.151 10.6985C20.5766 7.291 14.9332 7.11124 12.2765 10.933C10.2595 13.834 10.8037 17.9164 13.9353 19.6245C15.7995 20.6409 18.0732 20.1197 18.8798 17.9853C19.4702 16.4229 18.9767 15.1378 18.2182 14.4428C17.8627 14.1173 17.4148 13.9523 16.9745 13.9536C16.4227 13.9549 15.883 14.2169 15.5531 14.7509C15.0956 15.4913 15.3413 16.4897 16.2064 16.8439C16.6588 17.029 17.1574 16.888 17.4616 16.5291C17.5707 17.7961 16.5658 18.4784 15.4902 18.3561C14.8177 18.2793 14.1721 17.897 13.6844 17.3691C12.8951 16.5144 12.657 15.4472 12.836 14.41C13.4656 10.768 17.5072 9.74287 20.411 11.2658C21.6206 11.9 22.5351 12.7527 23.1691 13.7398C24.0291 15.077 24.3833 16.7136 24.3448 18.3595C24.2857 20.9103 23.3803 23.1884 21.8703 24.9613C18.5795 28.8245 13.0093 29.6418 8.43315 28.1536C6.60423 27.5588 5.08655 26.5872 3.86726 25.3536C-2.07641 19.3385 -0.938632 7.08317 5.69619 1.77847C2.16669 7.99134 1.62507 18.8941 8.62824 22.7761C11.1136 24.1534 14.3614 24.5677 17.588 23.2378C14.0374 23.8219 11.1932 22.8369 9.23916 20.8608C6.16721 17.754 5.60827 12.593 6.93921 8.16576C8.40043 3.30813 12.2713 0.71259 16.6145 0.135876C25.4235 -1.03359 32.9382 5.48935 33.9001 14.692C34.3609 19.1019 33.2346 23.6842 30.3462 27.1539C23.9347 34.8556 11.5718 32.939 11.5924 32.939V32.9384Z" fill="url(#paint0_linear_2166_5053)"/>
</g>
<defs>
<linearGradient id="paint0_linear_2166_5053" x1="16.9997" y1="0.000244141" x2="16.9997" y2="33.1507" gradientUnits="userSpaceOnUse">
<stop stop-color="#B8FF45"/>
<stop offset="1" stop-color="#99FFD1"/>
</linearGradient>
<clipPath id="clip0_2166_5053">
<rect width="34" height="33.15" fill="white"/>
</clipPath>
</defs>
</svg>
