<svg viewBox="0 0 20 20" fill="none" xmlns="http://www.w3.org/2000/svg">
<path fill-rule="evenodd" clip-rule="evenodd" d="M5.17333 14.4654L6.90486 13.4654L4.62359 9.51942L2.89419 10.518C2.36933 10.8206 1.99362 11.3128 1.83595 11.9022C1.67757 12.4924 1.75712 13.1061 2.06039 13.6309C2.48226 14.361 3.25002 14.7701 4.03839 14.7701C4.42475 14.7701 4.81537 14.6721 5.17333 14.4654ZM8.78624 16.7289L7.3317 14.2103L5.97446 14.9937L7.4283 17.5123C7.64491 17.8866 8.12502 18.0151 8.49931 17.7992C8.679 17.6955 8.80826 17.5258 8.86295 17.3233C8.91764 17.1202 8.88994 16.9093 8.78624 16.7289ZM14.1939 11.7702L9.73788 4.05288C9.64484 3.89166 9.49284 3.80359 9.30819 3.80359H9.29753C9.10861 3.80714 8.95521 3.90089 8.86642 4.0685C8.71017 4.36395 8.5589 4.6793 8.3991 5.0131C7.72652 6.41723 6.97083 7.99601 5.36001 9.07637L7.65619 13.048C9.39553 12.1943 11.1398 12.3286 12.6916 12.4486C13.0617 12.477 13.4104 12.504 13.7449 12.516C13.9346 12.5231 14.0922 12.4372 14.1895 12.2753C14.2875 12.1126 14.2883 11.9335 14.1939 11.7702Z" fill="currentColor"/>
<path fill-rule="evenodd" clip-rule="evenodd" d="M12.9092 6.34885C13.2323 6.43549 13.5022 6.64147 13.6684 6.9291C13.9887 7.48379 13.8332 8.18477 13.3303 8.55694L12.0896 6.40785C12.3467 6.29634 12.6322 6.27498 12.9092 6.34885ZM13.0738 3.84612C12.9552 4.05137 13.0255 4.31416 13.2308 4.43277C13.2983 4.47184 13.3721 4.4903 13.4453 4.4903C13.5937 4.4903 13.7379 4.4136 13.8175 4.27581L14.7045 2.7403C14.8231 2.53505 14.7528 2.27227 14.5476 2.15365C14.3423 2.03504 14.0795 2.10535 13.9609 2.31061L13.0738 3.84612ZM18.2437 8.55485C18.2437 8.31763 18.0519 8.12587 17.8133 8.12587H16.0405C15.8033 8.12587 15.6116 8.31834 15.6116 8.55556C15.6116 8.79277 15.804 8.98454 16.0405 8.98454H17.8133C18.0519 8.98454 18.2437 8.79207 18.2437 8.55485ZM17.2174 4.87939C17.0981 4.67414 16.8367 4.60383 16.6314 4.72243L15.0583 5.63011C14.853 5.74871 14.7827 6.01151 14.9013 6.21676C14.9809 6.35454 15.1251 6.43125 15.2735 6.43125C15.3467 6.43125 15.4205 6.41279 15.488 6.37372L17.0611 5.46534C17.2664 5.34673 17.3374 5.08394 17.2181 4.87869L17.2174 4.87939Z" fill="currentColor"/>
</svg>
