<svg width="20" height="20" viewBox="0 0 20 20" fill="none" xmlns="http://www.w3.org/2000/svg">
<mask id="mask0_1214_9969" style="mask-type:alpha" maskUnits="userSpaceOnUse" x="0" y="0" width="20" height="20">
<rect width="20" height="20" fill="#D9D9D9"/>
</mask>
<g mask="url(#mask0_1214_9969)">
<path d="M1.13525 16.3958V14.1875C1.13525 13.7291 1.25157 13.3107 1.48421 12.9323C1.71685 12.5538 2.03109 12.2638 2.42692 12.0625C3.27414 11.6458 4.13178 11.3316 4.99984 11.1198C5.86789 10.9079 6.74289 10.802 7.62484 10.802C8.50678 10.802 9.38005 10.9079 10.2446 11.1198C11.1092 11.3316 11.9651 11.6458 12.8123 12.0625C13.2082 12.2638 13.5224 12.5538 13.755 12.9323C13.9877 13.3107 14.104 13.7291 14.104 14.1875V16.3958H1.13525ZM15.7394 16.3958V14.0416C15.7394 13.4375 15.571 12.8663 15.2342 12.3281C14.8974 11.7899 14.4234 11.3298 13.8123 10.9479C14.4859 11.0312 15.1196 11.1684 15.7134 11.3593C16.3071 11.5503 16.8644 11.7882 17.3853 12.0729C17.8644 12.3298 18.2307 12.625 18.4842 12.9583C18.7377 13.2916 18.8644 13.6527 18.8644 14.0416V16.3958H15.7394ZM7.62484 10.0208C6.73595 10.0208 5.979 9.70829 5.354 9.08329C4.729 8.45829 4.4165 7.70135 4.4165 6.81246C4.4165 5.92357 4.729 5.16663 5.354 4.54163C5.979 3.91663 6.73595 3.60413 7.62484 3.60413C8.51373 3.60413 9.27067 3.91663 9.89567 4.54163C10.5207 5.16663 10.8332 5.92357 10.8332 6.81246C10.8332 7.70135 10.5207 8.45829 9.89567 9.08329C9.27067 9.70829 8.51373 10.0208 7.62484 10.0208ZM15.5832 6.80204C15.5832 7.68399 15.2707 8.4392 14.6457 9.06767C14.0207 9.69614 13.2637 10.0104 12.3748 10.0104C12.2429 10.0104 12.0675 9.99475 11.8488 9.9635C11.63 9.93225 11.4512 9.89579 11.3123 9.85413C11.6804 9.43052 11.9634 8.95829 12.1613 8.43746C12.3592 7.91663 12.4582 7.37149 12.4582 6.80204C12.4582 6.23954 12.3592 5.69614 12.1613 5.17183C11.9634 4.64753 11.6804 4.17357 11.3123 3.74996C11.4859 3.68746 11.663 3.64753 11.8436 3.63017C12.0241 3.61281 12.2012 3.60413 12.3748 3.60413C13.2637 3.60413 14.0207 3.91663 14.6457 4.54163C15.2707 5.16663 15.5832 5.9201 15.5832 6.80204Z" fill="#A8ADBE"/>
</g>
</svg>
