<svg viewBox="0 0 20 20" fill="none" xmlns="http://www.w3.org/2000/svg">
<path fill-rule="evenodd" clip-rule="evenodd" d="M5.02324 14.6042L6.80861 13.5731L4.4564 9.50442L2.67322 10.5341C2.13205 10.846 1.74465 11.3535 1.58208 11.9613C1.41877 12.5699 1.50079 13.2026 1.81349 13.7438C2.24849 14.4966 3.04012 14.9184 3.853 14.9184C4.25138 14.9184 4.65415 14.8173 5.02324 14.6042ZM8.7485 16.9381L7.24872 14.3412L5.84928 15.1489L7.34833 17.7458C7.57168 18.1317 8.06672 18.2643 8.45265 18.0417C8.63792 17.9347 8.7712 17.7597 8.82759 17.551C8.88398 17.3416 8.85542 17.1241 8.7485 16.9381ZM14.3243 11.8251L9.72973 3.86788C9.63379 3.70165 9.47707 3.61084 9.28667 3.61084H9.27569C9.08089 3.6145 8.92272 3.71117 8.83117 3.88399C8.67006 4.18863 8.51408 4.51378 8.34931 4.85796C7.65582 6.30575 6.87663 7.93363 5.21572 9.04759L7.5833 13.1427C9.37674 12.2625 11.1753 12.4009 12.7753 12.5246C13.1569 12.5539 13.5164 12.5818 13.8614 12.5942C14.0569 12.6015 14.2195 12.5129 14.3198 12.346C14.4209 12.1783 14.4217 11.9936 14.3243 11.8251Z" fill="#A8ADBD" fill-opacity="0.6"/>
<path fill-rule="evenodd" clip-rule="evenodd" d="M12.9994 6.23518C13.3326 6.32453 13.6109 6.5369 13.7822 6.83348C14.1125 7.40542 13.9521 8.1282 13.4336 8.51194L12.1543 6.29602C12.4194 6.18105 12.7138 6.15902 12.9994 6.23518ZM13.1692 3.65463C13.0469 3.86627 13.1194 4.13722 13.331 4.25953C13.4006 4.29981 13.4768 4.31885 13.5522 4.31885C13.7053 4.31885 13.8539 4.23976 13.9359 4.09769L14.8506 2.51443C14.9729 2.30279 14.9004 2.03184 14.6888 1.90953C14.4771 1.78724 14.2062 1.85973 14.0839 2.07137L13.1692 3.65463ZM18.4998 8.50978C18.4998 8.26519 18.3021 8.06746 18.056 8.06746H16.2281C15.9835 8.06746 15.7858 8.26592 15.7858 8.51051C15.7858 8.75511 15.9843 8.95284 16.2281 8.95284H18.056C18.3021 8.95284 18.4998 8.75438 18.4998 8.50978ZM17.4416 4.72004C17.3186 4.5084 17.0491 4.4359 16.8374 4.55819L15.2154 5.49409C15.0037 5.61639 14.9312 5.88735 15.0535 6.09899C15.1355 6.24106 15.2842 6.32015 15.4373 6.32015C15.5127 6.32015 15.5888 6.30111 15.6584 6.26083L17.2805 5.3242C17.4921 5.20191 17.5653 4.93094 17.4423 4.71931L17.4416 4.72004Z" fill="#5256FF"/>
</svg>
