<svg viewBox="0 0 19 20" fill="none" xmlns="http://www.w3.org/2000/svg">
<path d="M7.03125 18.3344C7.46562 19.3112 8.42883 20 9.56562 20C10.7024 20 11.6656 19.3112 12.1 18.3344C11.2984 18.3736 10.4648 18.4 9.56562 18.4C8.66644 18.4 7.83285 18.3736 7.03125 18.3344Z" fill="currentColor" />
<path d="M18.3897 14.1C17.3353 12.7704 15.5657 10.1568 15.5657 7.6C15.5657 5.0648 13.9369 2.78398 11.5657 1.94559C11.5369 0.867187 10.6505 0 9.56649 0C8.48168 0 7.5961 0.867187 7.56727 1.94559C5.19528 2.78398 3.56649 5.0648 3.56649 7.6C3.56649 10.1576 1.7977 12.7704 0.742504 14.1C0.390512 14.544 0.281684 15.1304 0.452113 15.6688C0.61852 16.1944 1.03289 16.6016 1.5609 16.7568C2.48571 17.0296 4.00168 17.3368 6.31371 17.4936C7.3145 17.5608 8.39051 17.6 9.56653 17.6C10.7417 17.6 11.8177 17.5608 12.8185 17.4936C15.1313 17.3368 16.6465 17.0296 17.5721 16.7568C18.1001 16.6016 18.5137 16.1944 18.6801 15.6688C18.8505 15.1304 18.7409 14.544 18.3897 14.1Z" fill="currentColor" />
</svg>
