<svg viewBox="0 0 48 45" fill="none" xmlns="http://www.w3.org/2000/svg">
<g filter="url(#filter0_d_1215_10079)">
<path d="M31.9288 26.4316C32.1553 26.205 32.4245 26.0918 32.7364 26.0918C33.0482 26.0918 33.317 26.205 33.5428 26.4316L35.3267 28.2438C35.5533 28.4703 35.6665 28.7346 35.6665 29.0367C35.6665 29.3387 35.5533 29.603 35.3267 29.8295C35.1002 30.056 34.8359 30.1693 34.5339 30.1693C34.2318 30.1693 33.9676 30.056 33.741 29.8295L31.9288 28.0456C31.7023 27.8191 31.589 27.5502 31.589 27.2391C31.589 26.928 31.7023 26.6589 31.9288 26.4316ZM33.0614 12.8398C33.288 13.0663 33.4012 13.3355 33.4012 13.6474C33.4012 13.9592 33.288 14.228 33.0614 14.4538L31.2775 16.2377C31.051 16.4643 30.7822 16.5775 30.4711 16.5775C30.16 16.5775 29.8908 16.4643 29.6635 16.2377C29.4362 16.0112 29.323 15.7424 29.3237 15.4313C29.3245 15.1202 29.4377 14.851 29.6635 14.6237L31.4757 12.8398C31.7023 12.6133 31.9666 12.5 32.2686 12.5C32.5706 12.5 32.8349 12.6133 33.0614 12.8398ZM14.9391 12.8398C15.1656 12.6133 15.4348 12.5 15.7467 12.5C16.0585 12.5 16.3273 12.6133 16.5531 12.8398L18.337 14.652C18.5636 14.8786 18.6768 15.1428 18.6768 15.4449C18.6768 15.7469 18.5636 16.0112 18.337 16.2377C18.1105 16.4643 17.8417 16.5775 17.5306 16.5775C17.2195 16.5775 16.9503 16.4643 16.723 16.2377L14.9391 14.4538C14.7125 14.2273 14.5993 13.9585 14.5993 13.6474C14.5993 13.3363 14.7125 13.0671 14.9391 12.8398ZM16.0717 26.4316C16.2983 26.6581 16.4115 26.9273 16.4115 27.2391C16.4115 27.551 16.2983 27.8198 16.0717 28.0456L14.2878 29.8295C14.0613 30.056 13.7925 30.1693 13.4814 30.1693C13.1703 30.1693 12.9011 30.056 12.6738 29.8295C12.4465 29.603 12.3332 29.3342 12.334 29.0231C12.3347 28.712 12.448 28.4428 12.6738 28.2155L14.486 26.4316C14.7125 26.205 14.9768 26.0918 15.2789 26.0918C15.5809 26.0918 15.8452 26.205 16.0717 26.4316ZM24.0003 29.0083L19.2998 31.84C19.0921 31.9721 18.875 32.0287 18.6485 32.0099C18.422 31.991 18.2238 31.9155 18.0539 31.7833C17.884 31.6512 17.7518 31.4862 17.6574 31.2884C17.563 31.0905 17.5442 30.8685 17.6008 30.6224L18.8467 25.2706L14.6842 21.6744C14.4955 21.5046 14.3777 21.3109 14.3308 21.0934C14.284 20.8759 14.298 20.6637 14.3728 20.4569C14.4475 20.25 14.5608 20.0801 14.7125 19.9472C14.8643 19.8143 15.072 19.7293 15.3355 19.6923L20.8288 19.2109L22.9526 14.1707C23.047 13.9441 23.1934 13.7742 23.392 13.661C23.5906 13.5477 23.7934 13.4911 24.0003 13.4911C24.2072 13.4911 24.4099 13.5477 24.6085 13.661C24.8071 13.7742 24.9536 13.9441 25.048 14.1707L27.1717 19.2109L32.665 19.6923C32.9293 19.7301 33.137 19.815 33.288 19.9472C33.439 20.0793 33.5523 20.2492 33.6278 20.4569C33.7033 20.6645 33.7176 20.8771 33.6708 21.0945C33.624 21.312 33.5058 21.5053 33.3163 21.6744L29.1538 25.2706L30.3997 30.6224C30.4564 30.8678 30.4375 31.0898 30.3431 31.2884C30.2487 31.487 30.1166 31.6519 29.9467 31.7833C29.7768 31.9147 29.5786 31.9902 29.352 32.0099C29.1255 32.0295 28.9084 31.9729 28.7008 31.84L24.0003 29.0083Z" fill="currentColor"/>
</g>
<defs>
<filter id="filter0_d_1215_10079" x="0.333984" y="0.5" width="47.3325" height="43.5137" filterUnits="userSpaceOnUse" color-interpolation-filters="sRGB">
<feFlood flood-opacity="0" result="BackgroundImageFix"/>
<feColorMatrix in="SourceAlpha" type="matrix" values="0 0 0 0 0 0 0 0 0 0 0 0 0 0 0 0 0 0 127 0" result="hardAlpha"/>
<feOffset/>
<feGaussianBlur stdDeviation="6"/>
<feComposite in2="hardAlpha" operator="out"/>
<feColorMatrix type="matrix" values="0 0 0 0 0.501961 0 0 0 0 0.937255 0 0 0 0 0.501961 0 0 0 0.32 0"/>
<feBlend mode="normal" in2="BackgroundImageFix" result="effect1_dropShadow_1215_10079"/>
<feBlend mode="normal" in="SourceGraphic" in2="effect1_dropShadow_1215_10079" result="shape"/>
</filter>
</defs>
</svg>
