<svg viewBox="0 0 18 18" fill="none" xmlns="http://www.w3.org/2000/svg">
<path d="M18 8.43866C18 13.0992 13.9703 16.8773 9 16.8773C8.10856 16.8794 7.22076 16.7554 6.35962 16.5084C5.70262 16.8653 4.194 17.55 1.656 17.996C1.431 18.0346 1.26 17.7839 1.34888 17.5596C1.74713 16.5518 2.10713 15.2089 2.21513 13.9841C0.837 12.5013 0 10.5604 0 8.43866C0 3.77811 4.02975 0 9 0C13.9703 0 18 3.77811 18 8.43866ZM5.625 8.43866C5.625 8.11893 5.50647 7.8123 5.2955 7.58623C5.08452 7.36015 4.79837 7.23314 4.5 7.23314C4.20163 7.23314 3.91548 7.36015 3.7045 7.58623C3.49353 7.8123 3.375 8.11893 3.375 8.43866C3.375 8.75838 3.49353 9.06501 3.7045 9.29109C3.91548 9.51717 4.20163 9.64418 4.5 9.64418C4.79837 9.64418 5.08452 9.51717 5.2955 9.29109C5.50647 9.06501 5.625 8.75838 5.625 8.43866ZM10.125 8.43866C10.125 8.11893 10.0065 7.8123 9.7955 7.58623C9.58452 7.36015 9.29837 7.23314 9 7.23314C8.70163 7.23314 8.41548 7.36015 8.2045 7.58623C7.99353 7.8123 7.875 8.11893 7.875 8.43866C7.875 8.75838 7.99353 9.06501 8.2045 9.29109C8.41548 9.51717 8.70163 9.64418 9 9.64418C9.29837 9.64418 9.58452 9.51717 9.7955 9.29109C10.0065 9.06501 10.125 8.75838 10.125 8.43866ZM13.5 9.64418C13.7984 9.64418 14.0845 9.51717 14.2955 9.29109C14.5065 9.06501 14.625 8.75838 14.625 8.43866C14.625 8.11893 14.5065 7.8123 14.2955 7.58623C14.0845 7.36015 13.7984 7.23314 13.5 7.23314C13.2016 7.23314 12.9155 7.36015 12.7045 7.58623C12.4935 7.8123 12.375 8.11893 12.375 8.43866C12.375 8.75838 12.4935 9.06501 12.7045 9.29109C12.9155 9.51717 13.2016 9.64418 13.5 9.64418Z" fill="currentColor"/>
</svg>
