<svg viewBox="0 0 16 16" fill="none" xmlns="http://www.w3.org/2000/svg">
<mask id="mask0_735_829" style="mask-type:alpha" maskUnits="userSpaceOnUse" x="0" y="0" width="16" height="16">
<rect width="16" height="16" fill="currentColor"/>
</mask>
<g mask="url(#mask0_735_829)">
<path d="M4.1 9.29167H9.28333V8.04167H4.1V9.29167ZM4.1 7.325H11.9V6.075H4.1V7.325ZM4.1 5.35833H11.9V4.10833H4.1V5.35833ZM2.75 11.9083C2.40622 11.9083 2.11194 11.7859 1.86717 11.5412C1.62239 11.2964 1.5 11.0021 1.5 10.6583V2.75C1.5 2.40622 1.62239 2.11194 1.86717 1.86717C2.11194 1.62239 2.40622 1.5 2.75 1.5H13.25C13.5938 1.5 13.8881 1.62239 14.1328 1.86717C14.3776 2.11194 14.5 2.40622 14.5 2.75V10.6583C14.5 11.0021 14.3776 11.2964 14.1328 11.5412C13.8881 11.7859 13.5938 11.9083 13.25 11.9083H9.73717L8.51667 13.7167C8.45289 13.8111 8.37583 13.8819 8.2855 13.9292C8.19517 13.9764 8.1 14 8 14C7.9 14 7.80483 13.9764 7.7145 13.9292C7.62417 13.8819 7.54711 13.8111 7.48333 13.7167L6.275 11.9083H2.75Z" fill="currentColor"/>
</g>
</svg>
