<svg viewBox="0 0 24 24" fill="none" xmlns="http://www.w3.org/2000/svg">
<path d="M21 11.4387C21 16.0992 16.9703 19.8773 12 19.8773C11.1086 19.8794 10.2208 19.7554 9.35962 19.5084C8.70262 19.8653 7.194 20.55 4.656 20.996C4.431 21.0346 4.26 20.7839 4.34888 20.5596C4.74713 19.5518 5.10713 18.2089 5.21513 16.9841C3.837 15.5013 3 13.5604 3 11.4387C3 6.77811 7.02975 3 12 3C16.9703 3 21 6.77811 21 11.4387ZM8.625 11.4387C8.625 11.1189 8.50647 10.8123 8.2955 10.5862C8.08452 10.3601 7.79837 10.2331 7.5 10.2331C7.20163 10.2331 6.91548 10.3601 6.7045 10.5862C6.49353 10.8123 6.375 11.1189 6.375 11.4387C6.375 11.7584 6.49353 12.065 6.7045 12.2911C6.91548 12.5172 7.20163 12.6442 7.5 12.6442C7.79837 12.6442 8.08452 12.5172 8.2955 12.2911C8.50647 12.065 8.625 11.7584 8.625 11.4387ZM13.125 11.4387C13.125 11.1189 13.0065 10.8123 12.7955 10.5862C12.5845 10.3601 12.2984 10.2331 12 10.2331C11.7016 10.2331 11.4155 10.3601 11.2045 10.5862C10.9935 10.8123 10.875 11.1189 10.875 11.4387C10.875 11.7584 10.9935 12.065 11.2045 12.2911C11.4155 12.5172 11.7016 12.6442 12 12.6442C12.2984 12.6442 12.5845 12.5172 12.7955 12.2911C13.0065 12.065 13.125 11.7584 13.125 11.4387ZM16.5 12.6442C16.7984 12.6442 17.0845 12.5172 17.2955 12.2911C17.5065 12.065 17.625 11.7584 17.625 11.4387C17.625 11.1189 17.5065 10.8123 17.2955 10.5862C17.0845 10.3601 16.7984 10.2331 16.5 10.2331C16.2016 10.2331 15.9155 10.3601 15.7045 10.5862C15.4935 10.8123 15.375 11.1189 15.375 11.4387C15.375 11.7584 15.4935 12.065 15.7045 12.2911C15.9155 12.5172 16.2016 12.6442 16.5 12.6442Z" fill="currentColor"/>
</svg>
