<svg viewBox="0 0 37 39" fill="none" xmlns="http://www.w3.org/2000/svg">
<g filter="url(#filter0_d_73_35441)">
<path fill-rule="evenodd" clip-rule="evenodd" d="M19.0857 25.1482L18.7243 25.7588C18.4023 26.3028 17.5977 26.3028 17.275 25.7588L16.9137 25.1482C16.6337 24.6748 16.4937 24.4375 16.2683 24.3068C16.043 24.1755 15.7597 24.1708 15.193 24.1608C14.3557 24.1468 13.831 24.0955 13.391 23.9128C12.9866 23.7453 12.6191 23.4998 12.3096 23.1902C12.0001 22.8807 11.7545 22.5133 11.587 22.1088C11.333 21.4968 11.333 20.7202 11.333 19.1668V18.5002C11.333 16.3182 11.333 15.2268 11.8243 14.4255C12.099 13.977 12.476 13.5998 12.9243 13.3248C13.7263 12.8335 14.8183 12.8335 16.9997 12.8335H18.9997C21.1817 12.8335 22.273 12.8335 23.075 13.3248C23.5233 13.5996 23.9002 13.9765 24.175 14.4248C24.6663 15.2268 24.6663 16.3188 24.6663 18.5002V19.1668C24.6663 20.7202 24.6663 21.4968 24.413 22.1088C24.2454 22.5133 23.9998 22.8808 23.6901 23.1904C23.3805 23.4999 23.0129 23.7454 22.6083 23.9128C22.1683 24.0955 21.6437 24.1462 20.8063 24.1608C20.2397 24.1708 19.9563 24.1755 19.731 24.3068C19.5057 24.4375 19.3657 24.6742 19.0857 25.1482ZM15.333 19.3335C15.2004 19.3335 15.0732 19.3862 14.9795 19.4799C14.8857 19.5737 14.833 19.7009 14.833 19.8335C14.833 19.9661 14.8857 20.0933 14.9795 20.187C15.0732 20.2808 15.2004 20.3335 15.333 20.3335H18.9997C19.1323 20.3335 19.2595 20.2808 19.3532 20.187C19.447 20.0933 19.4997 19.9661 19.4997 19.8335C19.4997 19.7009 19.447 19.5737 19.3532 19.4799C19.2595 19.3862 19.1323 19.3335 18.9997 19.3335H15.333ZM14.833 17.5002C14.833 17.3676 14.8857 17.2404 14.9795 17.1466C15.0732 17.0528 15.2004 17.0002 15.333 17.0002H20.6663C20.7989 17.0002 20.9261 17.0528 21.0199 17.1466C21.1137 17.2404 21.1663 17.3676 21.1663 17.5002C21.1663 17.6328 21.1137 17.7599 21.0199 17.8537C20.9261 17.9475 20.7989 18.0002 20.6663 18.0002H15.333C15.2004 18.0002 15.0732 17.9475 14.9795 17.8537C14.8857 17.7599 14.833 17.6328 14.833 17.5002Z" fill="#80EF80"/>
</g>
<defs>
<filter id="filter0_d_73_35441" x="-0.666992" y="0.833496" width="37.3334" height="37.3333" filterUnits="userSpaceOnUse" color-interpolation-filters="sRGB">
<feFlood flood-opacity="0" result="BackgroundImageFix"/>
<feColorMatrix in="SourceAlpha" type="matrix" values="0 0 0 0 0 0 0 0 0 0 0 0 0 0 0 0 0 0 127 0" result="hardAlpha"/>
<feOffset/>
<feGaussianBlur stdDeviation="6"/>
<feComposite in2="hardAlpha" operator="out"/>
<feColorMatrix type="matrix" values="0 0 0 0 0.501961 0 0 0 0 0.937255 0 0 0 0 0.501961 0 0 0 0.32 0"/>
<feBlend mode="normal" in2="BackgroundImageFix" result="effect1_dropShadow_73_35441"/>
<feBlend mode="normal" in="SourceGraphic" in2="effect1_dropShadow_73_35441" result="shape"/>
</filter>
</defs>
</svg>
