<svg viewBox="0 0 34 34" fill="none" xmlns="http://www.w3.org/2000/svg">
<rect width="34" height="34" rx="6" fill="url(#paint0_linear_914_15353)"/>
<rect width="34" height="34" rx="6" fill="currentColor"/>
<rect x="0.7" y="0.7" width="32.6" height="32.6" rx="5.3" stroke="white" stroke-opacity="0.18" stroke-width="1.4"/>
<path d="M19.9917 8H16.4948C14.9107 8 13.6553 8 12.6738 8.13486C11.6626 8.27336 10.8445 8.56495 10.1997 9.22194C9.55407 9.87892 9.26761 10.7127 9.13201 11.7424C9 12.7429 9 14.0213 9 15.6351V20.9547C9 22.3288 9.82617 23.5061 10.9999 24C10.9397 23.1708 10.9397 22.009 10.9397 21.0413V16.4761C10.9397 15.3088 10.9397 14.302 11.0457 13.4964C11.1597 12.6326 11.4165 11.8052 12.0757 11.1337C12.7348 10.4621 13.5475 10.2006 14.3953 10.0839C15.1855 9.97642 16.1733 9.97642 17.3201 9.97642H20.077C21.2228 9.97642 22.2089 9.97642 23 10.0839C22.763 9.47005 22.3492 8.94287 21.8126 8.57113C21.276 8.1994 20.6414 8.00037 19.9917 8Z" fill="#F7F7FF"/>
<path d="M12 16.2938C12 13.7984 12 12.5507 12.7619 11.7754C13.523 11 14.7481 11 17.2 11H19.8C22.251 11 23.477 11 24.239 11.7754C25.0009 12.5507 25 13.7984 25 16.2938V20.7062C25 23.2016 25 24.4493 24.239 25.2246C23.477 26 22.251 26 19.8 26H17.2C14.749 26 13.523 26 12.7619 25.2246C12 24.4493 12 23.2016 12 20.7062V16.2938Z" fill="#F7F7FF"/>
<defs>
<linearGradient id="paint0_linear_914_15353" x1="17" y1="0" x2="17" y2="34" gradientUnits="userSpaceOnUse">
<stop stop-color="#6A6EF9"/>
<stop offset="1" stop-color="#4245C8"/>
</linearGradient>
</defs>
</svg>
