<svg viewBox="0 0 34 34" fill="none" xmlns="http://www.w3.org/2000/svg">
<path fill-rule="evenodd" clip-rule="evenodd" d="M28.8105 5.19079C29.1122 5.49112 29.312 5.87929 29.3828 6.29862C29.7993 8.72254 30.3136 13.6582 28.0993 15.8753C25.5918 18.38 16.0789 23.691 13.0671 25.3429C12.8003 25.4879 12.4936 25.5424 12.1932 25.4982C11.8928 25.454 11.6148 25.3135 11.4011 25.0978L10.1516 23.8511L8.90915 22.5988C8.69313 22.3849 8.55243 22.1067 8.50822 21.806C8.46402 21.5053 8.51871 21.1983 8.66407 20.9314C10.3145 17.9195 15.6242 8.40662 18.1302 5.89912C20.3431 3.68487 25.2787 4.20195 27.7027 4.61845C28.122 4.68929 28.5102 4.88904 28.8105 5.19079ZM7.65965 10.7328L13.3263 10.2497L9.51548 16.5964L5.46807 16.1232C5.20741 16.0872 4.962 15.9791 4.75957 15.811C4.55713 15.6429 4.40574 15.4215 4.32249 15.1719C4.23923 14.9223 4.22744 14.6544 4.28843 14.3984C4.34942 14.1424 4.48078 13.9086 4.66765 13.7234L7.65965 10.7328ZM23.7487 20.6778L23.2671 26.3445L20.2765 29.3379C20.091 29.5231 19.8577 29.653 19.6025 29.713C19.3474 29.7731 19.0806 29.7608 18.832 29.6777C18.5834 29.5946 18.3629 29.4439 18.1951 29.2425C18.0274 29.0411 17.9191 28.797 17.8823 28.5375L17.2845 24.5609L23.7487 20.6778ZM24.9387 11.8803C24.9387 12.628 24.6417 13.345 24.113 13.8737C23.5843 14.4024 22.8673 14.6995 22.1196 14.6995C21.3719 14.6995 20.6548 14.4024 20.1261 13.8737C19.5974 13.345 19.3004 12.628 19.3004 11.8803C19.3004 11.1326 19.5974 10.4155 20.1261 9.88683C20.6548 9.35814 21.3719 9.06112 22.1196 9.06112C22.8673 9.06112 23.5843 9.35814 24.113 9.88683C24.6417 10.4155 24.9387 11.1326 24.9387 11.8803Z" fill="#FFC420"/>
<path fill-rule="evenodd" clip-rule="evenodd" d="M28.8105 5.19079C29.1122 5.49112 29.312 5.87929 29.3828 6.29862C29.7993 8.72254 30.3136 13.6582 28.0993 15.8753C25.5918 18.38 16.0789 23.691 13.0671 25.3429C12.8003 25.4879 12.4936 25.5424 12.1932 25.4982C11.8928 25.454 11.6148 25.3135 11.4011 25.0978L10.1516 23.8511L8.90915 22.5988C8.69313 22.3849 8.55243 22.1067 8.50822 21.806C8.46402 21.5053 8.51871 21.1983 8.66407 20.9314C10.3145 17.9195 15.6242 8.40662 18.1302 5.89912C20.3431 3.68487 25.2787 4.20195 27.7027 4.61845C28.122 4.68929 28.5102 4.88904 28.8105 5.19079ZM7.65965 10.7328L13.3263 10.2497L9.51548 16.5964L5.46807 16.1232C5.20741 16.0872 4.962 15.9791 4.75957 15.811C4.55713 15.6429 4.40574 15.4215 4.32249 15.1719C4.23923 14.9223 4.22744 14.6544 4.28843 14.3984C4.34942 14.1424 4.48078 13.9086 4.66765 13.7234L7.65965 10.7328ZM23.7487 20.6778L23.2671 26.3445L20.2765 29.3379C20.091 29.5231 19.8577 29.653 19.6025 29.713C19.3474 29.7731 19.0806 29.7608 18.832 29.6777C18.5834 29.5946 18.3629 29.4439 18.1951 29.2425C18.0274 29.0411 17.9191 28.797 17.8823 28.5375L17.2845 24.5609L23.7487 20.6778ZM24.9387 11.8803C24.9387 12.628 24.6417 13.345 24.113 13.8737C23.5843 14.4024 22.8673 14.6995 22.1196 14.6995C21.3719 14.6995 20.6548 14.4024 20.1261 13.8737C19.5974 13.345 19.3004 12.628 19.3004 11.8803C19.3004 11.1326 19.5974 10.4155 20.1261 9.88683C20.6548 9.35814 21.3719 9.06112 22.1196 9.06112C22.8673 9.06112 23.5843 9.35814 24.113 9.88683C24.6417 10.4155 24.9387 11.1326 24.9387 11.8803Z" fill="url(#paint0_radial_1215_9784)" style="mix-blend-mode:multiply"/>
<path fill-rule="evenodd" clip-rule="evenodd" d="M28.8105 5.19079C29.1122 5.49112 29.312 5.87929 29.3828 6.29862C29.7993 8.72254 30.3136 13.6582 28.0993 15.8753C25.5918 18.38 16.0789 23.691 13.0671 25.3429C12.8003 25.4879 12.4936 25.5424 12.1932 25.4982C11.8928 25.454 11.6148 25.3135 11.4011 25.0978L10.1516 23.8511L8.90915 22.5988C8.69313 22.3849 8.55243 22.1067 8.50822 21.806C8.46402 21.5053 8.51871 21.1983 8.66407 20.9314C10.3145 17.9195 15.6242 8.40662 18.1302 5.89912C20.3431 3.68487 25.2787 4.20195 27.7027 4.61845C28.122 4.68929 28.5102 4.88904 28.8105 5.19079ZM7.65965 10.7328L13.3263 10.2497L9.51548 16.5964L5.46807 16.1232C5.20741 16.0872 4.962 15.9791 4.75957 15.811C4.55713 15.6429 4.40574 15.4215 4.32249 15.1719C4.23923 14.9223 4.22744 14.6544 4.28843 14.3984C4.34942 14.1424 4.48078 13.9086 4.66765 13.7234L7.65965 10.7328ZM23.7487 20.6778L23.2671 26.3445L20.2765 29.3379C20.091 29.5231 19.8577 29.653 19.6025 29.713C19.3474 29.7731 19.0806 29.7608 18.832 29.6777C18.5834 29.5946 18.3629 29.4439 18.1951 29.2425C18.0274 29.0411 17.9191 28.797 17.8823 28.5375L17.2845 24.5609L23.7487 20.6778ZM24.9387 11.8803C24.9387 12.628 24.6417 13.345 24.113 13.8737C23.5843 14.4024 22.8673 14.6995 22.1196 14.6995C21.3719 14.6995 20.6548 14.4024 20.1261 13.8737C19.5974 13.345 19.3004 12.628 19.3004 11.8803C19.3004 11.1326 19.5974 10.4155 20.1261 9.88683C20.6548 9.35814 21.3719 9.06112 22.1196 9.06112C22.8673 9.06112 23.5843 9.35814 24.113 9.88683C24.6417 10.4155 24.9387 11.1326 24.9387 11.8803Z" fill="url(#paint1_radial_1215_9784)" style="mix-blend-mode:screen"/>
<defs>
<radialGradient id="paint0_radial_1215_9784" cx="0" cy="0" r="1" gradientUnits="userSpaceOnUse" gradientTransform="translate(27.5997 -0.121234) rotate(103.27) scale(17.4511 13.3053)">
<stop stop-color="#F2B03B"/>
<stop offset="1" stop-color="#F2B03B" stop-opacity="0"/>
</radialGradient>
<radialGradient id="paint1_radial_1215_9784" cx="0" cy="0" r="1" gradientUnits="userSpaceOnUse" gradientTransform="translate(7.48986 3.05802) rotate(-71.124) scale(15.5398 6.16354)">
<stop stop-color="#FFBF4A"/>
<stop offset="1" stop-color="#EAA730" stop-opacity="0"/>
</radialGradient>
</defs>
</svg>
