<svg viewBox="0 0 20 20" fill="none" xmlns="http://www.w3.org/2000/svg">
<mask id="mask0_1214_9978" style="mask-type:alpha" maskUnits="userSpaceOnUse" x="0" y="0" width="20" height="20">
<rect width="20" height="20" fill="currentColor"/>
</mask>
<g mask="url(#mask0_1214_9978)">
<path d="M5.02409 16.6309C4.79978 16.6309 4.61176 16.5555 4.46003 16.4046C4.30829 16.2538 4.23242 16.0669 4.23242 15.8439C4.23242 15.6209 4.30829 15.4339 4.46003 15.2831C4.61176 15.1323 4.79978 15.0568 5.02409 15.0568H14.5241C14.7484 15.0568 14.9364 15.1323 15.0882 15.2831C15.2399 15.4339 15.3158 15.6209 15.3158 15.8439C15.3158 16.0669 15.2399 16.2538 15.0882 16.4046C14.9364 16.5555 14.7484 16.6309 14.5241 16.6309H5.02409ZM5.57826 13.8763C5.19562 13.8763 4.85586 13.7517 4.55898 13.5024C4.26211 13.2532 4.08069 12.9384 4.01471 12.558L3.22305 7.5603C3.19666 7.5603 3.16697 7.56358 3.13398 7.57014C3.101 7.5767 3.07131 7.57997 3.04492 7.57997C2.71506 7.57997 2.43468 7.4652 2.20378 7.23565C1.97287 7.00609 1.85742 6.72735 1.85742 6.39942C1.85742 6.07149 1.97287 5.79274 2.20378 5.56319C2.43468 5.33364 2.71506 5.21886 3.04492 5.21886C3.37478 5.21886 3.65516 5.33364 3.88607 5.56319C4.11697 5.79274 4.23242 6.07149 4.23242 6.39942C4.23242 6.49124 4.22253 6.5765 4.20273 6.65521C4.18294 6.73391 4.15985 6.80605 4.13346 6.87164L6.60742 7.97349L9.08138 4.60891C8.93624 4.50397 8.81749 4.36624 8.72513 4.19571C8.63277 4.02519 8.58659 3.84155 8.58659 3.64479C8.58659 3.31686 8.70204 3.03811 8.93294 2.80856C9.16385 2.57901 9.44423 2.46423 9.77409 2.46423C10.1039 2.46423 10.3843 2.57901 10.6152 2.80856C10.8461 3.03811 10.9616 3.31686 10.9616 3.64479C10.9616 3.84155 10.9154 4.02519 10.823 4.19571C10.7307 4.36624 10.6119 4.50397 10.4668 4.60891L12.9408 7.97349L15.4147 6.87164C15.3883 6.80605 15.3652 6.73391 15.3454 6.65521C15.3257 6.5765 15.3158 6.49124 15.3158 6.39942C15.3158 6.07149 15.4312 5.79274 15.6621 5.56319C15.893 5.33364 16.1734 5.21886 16.5033 5.21886C16.8331 5.21886 17.1135 5.33364 17.3444 5.56319C17.5753 5.79274 17.6908 6.07149 17.6908 6.39942C17.6908 6.72735 17.5753 7.00609 17.3444 7.23565C17.1135 7.4652 16.8331 7.57997 16.5033 7.57997C16.4769 7.57997 16.4472 7.5767 16.4142 7.57014C16.3812 7.56358 16.3515 7.5603 16.3251 7.5603L15.5335 12.558C15.4675 12.9384 15.2861 13.2532 14.9892 13.5024C14.6923 13.7517 14.3526 13.8763 13.9699 13.8763H5.57826Z" fill="currentColor"/>
</g>
</svg>
