<svg viewBox="0 0 18 18" fill="none" xmlns="http://www.w3.org/2000/svg">
<path fill-rule="evenodd" clip-rule="evenodd" d="M12.4622 2.25C12.8279 2.24992 13.181 2.38342 13.4552 2.62539C13.7293 2.86737 13.9056 3.20115 13.951 3.564L14.068 4.5H14.569C14.8232 4.49993 15.0742 4.55629 15.304 4.66501C15.5338 4.77373 15.7366 4.9321 15.8977 5.1287C16.0589 5.3253 16.1744 5.55522 16.2359 5.80187C16.2974 6.04852 16.3034 6.30575 16.2535 6.555L16.1027 7.30875C15.9903 7.87039 15.7214 8.38881 15.327 8.80418C14.9326 9.21954 14.4288 9.51493 13.8737 9.65625C13.4931 10.4661 12.9166 11.1684 12.1963 11.6995C11.4761 12.2306 10.6349 12.5739 9.74873 12.6982V14.25H11.9987C12.1976 14.25 12.3884 14.329 12.5291 14.4697C12.6697 14.6103 12.7487 14.8011 12.7487 15C12.7487 15.1989 12.6697 15.3897 12.5291 15.5303C12.3884 15.671 12.1976 15.75 11.9987 15.75H5.99948C5.80056 15.75 5.6098 15.671 5.46915 15.5303C5.3285 15.3897 5.24948 15.1989 5.24948 15C5.24948 14.8011 5.3285 14.6103 5.46915 14.4697C5.6098 14.329 5.80056 14.25 5.99948 14.25H8.24948V12.6982C7.36356 12.5736 6.52264 12.2303 5.80271 11.6991C5.08278 11.168 4.50651 10.4659 4.12598 9.65625C3.5709 9.51493 3.0671 9.21954 2.6727 8.80418C2.2783 8.38881 2.00938 7.87039 1.89698 7.30875L1.74623 6.55425C1.69641 6.30512 1.70249 6.04803 1.76402 5.80153C1.82556 5.55503 1.94101 5.32525 2.10207 5.12875C2.26313 4.93226 2.46577 4.77394 2.6954 4.66521C2.92502 4.55649 3.17591 4.50006 3.42998 4.5H3.93098L4.04798 3.564C4.09332 3.20115 4.26964 2.86737 4.5438 2.62539C4.81796 2.38342 5.17106 2.24992 5.53673 2.25H12.4622ZM14.5697 6H14.2547L14.3425 6.6975C14.38 7.0025 14.3925 7.30325 14.38 7.59975C14.4785 7.46175 14.552 7.30925 14.6005 7.14225L14.632 7.01475L14.782 6.26025C14.7932 6.20494 14.7826 6.14741 14.7522 6.09982C14.7218 6.05224 14.6741 6.01832 14.6192 6.00525L14.5697 6ZM3.74273 6H3.42923C3.397 5.99993 3.36516 6.00702 3.336 6.02076C3.30685 6.0345 3.28111 6.05455 3.26066 6.07945C3.2402 6.10436 3.22554 6.1335 3.21772 6.16477C3.20991 6.19604 3.20914 6.22865 3.21548 6.26025L3.36623 7.014C3.40973 7.23075 3.49673 7.42875 3.61823 7.599C3.60573 7.303 3.61823 7.0025 3.65573 6.6975L3.74273 6Z" fill="#A8ADBD" fill-opacity="0.6"/>
</svg>
