<svg viewBox="0 0 24 24" fill="none" xmlns="http://www.w3.org/2000/svg">
<path fill-rule="evenodd" clip-rule="evenodd" d="M5.92613 3.6001H5.86151C5.56558 3.6001 5.31099 3.6001 5.08613 3.65308C4.73803 3.73625 4.41975 3.91416 4.16656 4.1671C3.91337 4.42005 3.73516 4.73814 3.65167 5.08614C3.59998 5.31098 3.59998 5.56425 3.59998 5.86146V9.09198C3.59998 9.3879 3.59998 9.64246 3.65296 9.86731C3.73614 10.2154 3.91407 10.5336 4.16703 10.7868C4.41999 11.04 4.7381 11.2182 5.08613 11.3017C5.31099 11.3533 5.56428 11.3533 5.86151 11.3533H9.09228C9.38822 11.3533 9.64281 11.3533 9.86767 11.3004C10.2158 11.2172 10.534 11.0393 10.7872 10.7863C11.0404 10.5334 11.2186 10.2153 11.3021 9.86731C11.3538 9.64246 11.3538 9.38919 11.3538 9.09198V5.86146C11.3538 5.56555 11.3538 5.31098 11.3008 5.08614C11.2177 4.73806 11.0397 4.41981 10.7868 4.16664C10.5338 3.91347 10.2157 3.73527 9.86767 3.65179C9.64281 3.6001 9.38951 3.6001 9.09228 3.6001H5.92613ZM14.9723 3.6001H14.9077C14.6117 3.6001 14.3571 3.6001 14.1323 3.65308C13.7842 3.73625 13.4659 3.91416 13.2127 4.1671C12.9595 4.42005 12.7813 4.73814 12.6978 5.08614C12.6461 5.31098 12.6461 5.56425 12.6461 5.86146V9.09198C12.6461 9.3879 12.6461 9.64246 12.6991 9.86731C12.7823 10.2154 12.9602 10.5336 13.2132 10.7868C13.4661 11.04 13.7843 11.2182 14.1323 11.3017C14.3571 11.3533 14.6104 11.3533 14.9077 11.3533H18.1384C18.4344 11.3533 18.689 11.3533 18.9138 11.3004C19.2619 11.2172 19.5802 11.0393 19.8334 10.7863C20.0866 10.5334 20.2648 10.2153 20.3483 9.86731C20.4 9.64246 20.4 9.38919 20.4 9.09198V5.86146C20.4 5.56555 20.4 5.31098 20.347 5.08614C20.2638 4.73806 20.0859 4.41981 19.8329 4.16664C19.58 3.91347 19.2618 3.73527 18.9138 3.65179C18.689 3.6001 18.4357 3.6001 18.1384 3.6001H14.9723ZM5.86151 12.6456H9.09228C9.38822 12.6456 9.64281 12.6456 9.86767 12.6985C10.2158 12.7817 10.534 12.9596 10.7872 13.2126C11.0404 13.4655 11.2186 13.7836 11.3021 14.1316C11.3538 14.3564 11.3538 14.6097 11.3538 14.9069V18.1374C11.3538 18.4334 11.3538 18.6879 11.3008 18.9128C11.2177 19.2608 11.0397 19.5791 10.7868 19.8323C10.5338 20.0854 10.2157 20.2636 9.86767 20.3471C9.64281 20.3988 9.38951 20.3988 9.09228 20.3988H5.86151C5.56558 20.3988 5.31099 20.3988 5.08613 20.3458C4.73803 20.2627 4.41975 20.0847 4.16656 19.8318C3.91337 19.5789 3.73516 19.2608 3.65167 18.9128C3.59998 18.6879 3.59998 18.4346 3.59998 18.1374V14.9069C3.59998 14.611 3.59998 14.3564 3.65296 14.1316C3.73614 13.7835 3.91407 13.4653 4.16703 13.2121C4.41999 12.9589 4.7381 12.7807 5.08613 12.6972C5.31099 12.6456 5.56428 12.6456 5.86151 12.6456ZM14.9723 12.6456H14.9077C14.6117 12.6456 14.3571 12.6456 14.1323 12.6985C13.7842 12.7817 13.4659 12.9596 13.2127 13.2126C12.9595 13.4655 12.7813 13.7836 12.6978 14.1316C12.6461 14.3564 12.6461 14.6097 12.6461 14.9069V18.1374C12.6461 18.4334 12.6461 18.6879 12.6991 18.9128C12.7823 19.2608 12.9602 19.5791 13.2132 19.8323C13.4661 20.0854 13.7843 20.2636 14.1323 20.3471C14.3571 20.4001 14.6117 20.4001 14.9077 20.4001H18.1384C18.4344 20.4001 18.689 20.4001 18.9138 20.3471C19.2617 20.2637 19.5797 20.0857 19.8326 19.8328C20.0856 19.5799 20.2636 19.2619 20.347 18.9141C20.4 18.6892 20.4 18.4346 20.4 18.1387V14.9082C20.4 14.6123 20.4 14.3577 20.347 14.1329C20.264 13.7846 20.0862 13.466 19.8332 13.2126C19.5802 12.9592 19.262 12.7808 18.9138 12.6972C18.689 12.6456 18.4357 12.6456 18.1384 12.6456H14.9723Z" fill="currentColor"/>
<path fill-rule="evenodd" clip-rule="evenodd" d="M5.92613 3.6001H5.86151C5.56558 3.6001 5.31099 3.6001 5.08613 3.65308C4.73803 3.73625 4.41975 3.91416 4.16656 4.1671C3.91337 4.42005 3.73516 4.73814 3.65167 5.08614C3.59998 5.31098 3.59998 5.56425 3.59998 5.86146V9.09198C3.59998 9.3879 3.59998 9.64246 3.65296 9.86731C3.73614 10.2154 3.91407 10.5336 4.16703 10.7868C4.41999 11.04 4.7381 11.2182 5.08613 11.3017C5.31099 11.3533 5.56428 11.3533 5.86151 11.3533H9.09228C9.38822 11.3533 9.64281 11.3533 9.86767 11.3004C10.2158 11.2172 10.534 11.0393 10.7872 10.7863C11.0404 10.5334 11.2186 10.2153 11.3021 9.86731C11.3538 9.64246 11.3538 9.38919 11.3538 9.09198V5.86146C11.3538 5.56555 11.3538 5.31098 11.3008 5.08614C11.2177 4.73806 11.0397 4.41981 10.7868 4.16664C10.5338 3.91347 10.2157 3.73527 9.86767 3.65179C9.64281 3.6001 9.38951 3.6001 9.09228 3.6001H5.92613ZM14.9723 3.6001H14.9077C14.6117 3.6001 14.3571 3.6001 14.1323 3.65308C13.7842 3.73625 13.4659 3.91416 13.2127 4.1671C12.9595 4.42005 12.7813 4.73814 12.6978 5.08614C12.6461 5.31098 12.6461 5.56425 12.6461 5.86146V9.09198C12.6461 9.3879 12.6461 9.64246 12.6991 9.86731C12.7823 10.2154 12.9602 10.5336 13.2132 10.7868C13.4661 11.04 13.7843 11.2182 14.1323 11.3017C14.3571 11.3533 14.6104 11.3533 14.9077 11.3533H18.1384C18.4344 11.3533 18.689 11.3533 18.9138 11.3004C19.2619 11.2172 19.5802 11.0393 19.8334 10.7863C20.0866 10.5334 20.2648 10.2153 20.3483 9.86731C20.4 9.64246 20.4 9.38919 20.4 9.09198V5.86146C20.4 5.56555 20.4 5.31098 20.347 5.08614C20.2638 4.73806 20.0859 4.41981 19.8329 4.16664C19.58 3.91347 19.2618 3.73527 18.9138 3.65179C18.689 3.6001 18.4357 3.6001 18.1384 3.6001H14.9723ZM5.86151 12.6456H9.09228C9.38822 12.6456 9.64281 12.6456 9.86767 12.6985C10.2158 12.7817 10.534 12.9596 10.7872 13.2126C11.0404 13.4655 11.2186 13.7836 11.3021 14.1316C11.3538 14.3564 11.3538 14.6097 11.3538 14.9069V18.1374C11.3538 18.4334 11.3538 18.6879 11.3008 18.9128C11.2177 19.2608 11.0397 19.5791 10.7868 19.8323C10.5338 20.0854 10.2157 20.2636 9.86767 20.3471C9.64281 20.3988 9.38951 20.3988 9.09228 20.3988H5.86151C5.56558 20.3988 5.31099 20.3988 5.08613 20.3458C4.73803 20.2627 4.41975 20.0847 4.16656 19.8318C3.91337 19.5789 3.73516 19.2608 3.65167 18.9128C3.59998 18.6879 3.59998 18.4346 3.59998 18.1374V14.9069C3.59998 14.611 3.59998 14.3564 3.65296 14.1316C3.73614 13.7835 3.91407 13.4653 4.16703 13.2121C4.41999 12.9589 4.7381 12.7807 5.08613 12.6972C5.31099 12.6456 5.56428 12.6456 5.86151 12.6456ZM14.9723 12.6456H14.9077C14.6117 12.6456 14.3571 12.6456 14.1323 12.6985C13.7842 12.7817 13.4659 12.9596 13.2127 13.2126C12.9595 13.4655 12.7813 13.7836 12.6978 14.1316C12.6461 14.3564 12.6461 14.6097 12.6461 14.9069V18.1374C12.6461 18.4334 12.6461 18.6879 12.6991 18.9128C12.7823 19.2608 12.9602 19.5791 13.2132 19.8323C13.4661 20.0854 13.7843 20.2636 14.1323 20.3471C14.3571 20.4001 14.6117 20.4001 14.9077 20.4001H18.1384C18.4344 20.4001 18.689 20.4001 18.9138 20.3471C19.2617 20.2637 19.5797 20.0857 19.8326 19.8328C20.0856 19.5799 20.2636 19.2619 20.347 18.9141C20.4 18.6892 20.4 18.4346 20.4 18.1387V14.9082C20.4 14.6123 20.4 14.3577 20.347 14.1329C20.264 13.7846 20.0862 13.466 19.8332 13.2126C19.5802 12.9592 19.262 12.7808 18.9138 12.6972C18.689 12.6456 18.4357 12.6456 18.1384 12.6456H14.9723Z" fill="currentColor"/>
</svg>
