<svg viewBox="0 0 21 20" fill="none" xmlns="http://www.w3.org/2000/svg">
<path d="M15.5333 11.2917C15.1833 11.6334 14.9833 12.125 15.0333 12.65C15.1083 13.55 15.9333 14.2084 16.8333 14.2084H18.4166V15.2C18.4166 16.925 17.0083 18.3334 15.2833 18.3334H5.71665C3.99165 18.3334 2.58331 16.925 2.58331 15.2V9.59172C2.58331 7.86672 3.99165 6.45837 5.71665 6.45837H15.2833C17.0083 6.45837 18.4166 7.86672 18.4166 9.59172V10.7917H16.7333C16.2666 10.7917 15.8416 10.975 15.5333 11.2917Z" stroke="#F7F7FF" stroke-width="1.5" stroke-linecap="round" stroke-linejoin="round"/>
<path d="M2.58331 10.3417V6.53342C2.58331 5.54175 3.19165 4.65838 4.11665 4.30838L10.7333 1.80838C11.7666 1.41672 12.875 2.18341 12.875 3.29174V6.4584" stroke="#F7F7FF" stroke-width="1.5" stroke-linecap="round" stroke-linejoin="round"/>
<path d="M19.299 11.6418V13.3586C19.299 13.8169 18.9323 14.1919 18.4657 14.2085H16.8323C15.9323 14.2085 15.1073 13.5502 15.0323 12.6502C14.9823 12.1252 15.1823 11.6335 15.5323 11.2918C15.8407 10.9752 16.2657 10.7919 16.7323 10.7919H18.4657C18.9323 10.8085 19.299 11.1835 19.299 11.6418Z" stroke="#F7F7FF" stroke-width="1.5" stroke-linecap="round" stroke-linejoin="round"/>
<path d="M6.33331 10H12.1666" stroke="#F7F7FF" stroke-width="1.5" stroke-linecap="round" stroke-linejoin="round"/>
</svg>
