<svg viewBox="0 0 34 34" fill="none" xmlns="http://www.w3.org/2000/svg">
<path fill-rule="evenodd" clip-rule="evenodd" d="M29.8923 11.3392C29.812 11.3344 29.7265 11.3325 29.6359 11.3335H26.0588C23.1291 11.3335 20.623 13.6398 20.623 16.646C20.623 19.6522 23.1305 21.9585 26.0588 21.9585H29.6359C29.7265 21.9594 29.8125 21.9575 29.8937 21.9528C30.4958 21.9165 31.0642 21.6625 31.493 21.2382C31.9217 20.8139 32.1816 20.2482 32.2241 19.6465C32.2298 19.5615 32.2298 19.4694 32.2298 19.3844V13.9076C32.2298 13.8226 32.2298 13.7305 32.2241 13.6455C32.1816 13.0438 31.9217 12.4781 31.493 12.0537C31.0642 11.6294 30.4944 11.3755 29.8923 11.3392ZM25.7457 18.0627C26.4994 18.0627 27.11 17.428 27.11 16.646C27.11 15.864 26.4994 15.2293 25.7457 15.2293C24.9906 15.2293 24.38 15.864 24.38 16.646C24.38 17.428 24.9906 18.0627 25.7457 18.0627Z" fill="#FFC420"/>
<path fill-rule="evenodd" clip-rule="evenodd" d="M29.8923 11.3392C29.812 11.3344 29.7265 11.3325 29.6359 11.3335H26.0588C23.1291 11.3335 20.623 13.6398 20.623 16.646C20.623 19.6522 23.1305 21.9585 26.0588 21.9585H29.6359C29.7265 21.9594 29.8125 21.9575 29.8937 21.9528C30.4958 21.9165 31.0642 21.6625 31.493 21.2382C31.9217 20.8139 32.1816 20.2482 32.2241 19.6465C32.2298 19.5615 32.2298 19.4694 32.2298 19.3844V13.9076C32.2298 13.8226 32.2298 13.7305 32.2241 13.6455C32.1816 13.0438 31.9217 12.4781 31.493 12.0537C31.0642 11.6294 30.4944 11.3755 29.8923 11.3392ZM25.7457 18.0627C26.4994 18.0627 27.11 17.428 27.11 16.646C27.11 15.864 26.4994 15.2293 25.7457 15.2293C24.9906 15.2293 24.38 15.864 24.38 16.646C24.38 17.428 24.9906 18.0627 25.7457 18.0627Z" fill="url(#paint0_radial_1215_9772)" style="mix-blend-mode:multiply"/>
<path fill-rule="evenodd" clip-rule="evenodd" d="M29.8923 11.3392C29.812 11.3344 29.7265 11.3325 29.6359 11.3335H26.0588C23.1291 11.3335 20.623 13.6398 20.623 16.646C20.623 19.6522 23.1305 21.9585 26.0588 21.9585H29.6359C29.7265 21.9594 29.8125 21.9575 29.8937 21.9528C30.4958 21.9165 31.0642 21.6625 31.493 21.2382C31.9217 20.8139 32.1816 20.2482 32.2241 19.6465C32.2298 19.5615 32.2298 19.4694 32.2298 19.3844V13.9076C32.2298 13.8226 32.2298 13.7305 32.2241 13.6455C32.1816 13.0438 31.9217 12.4781 31.493 12.0537C31.0642 11.6294 30.4944 11.3755 29.8923 11.3392ZM25.7457 18.0627C26.4994 18.0627 27.11 17.428 27.11 16.646C27.11 15.864 26.4994 15.2293 25.7457 15.2293C24.9906 15.2293 24.38 15.864 24.38 16.646C24.38 17.428 24.9906 18.0627 25.7457 18.0627Z" fill="url(#paint1_radial_1215_9772)" style="mix-blend-mode:screen"/>
<path fill-rule="evenodd" clip-rule="evenodd" d="M29.6345 24.0833C29.6835 24.0814 29.7322 24.091 29.7768 24.1114C29.8213 24.1318 29.8605 24.1624 29.891 24.2008C29.9215 24.2392 29.9425 24.2842 29.9523 24.3322C29.9622 24.3802 29.9605 24.4299 29.9476 24.4772C29.6642 25.4858 29.2123 26.3472 28.4884 27.0697C27.4273 28.1322 26.0829 28.6011 24.4226 28.8249C22.8076 29.0417 20.7463 29.0417 18.1425 29.0417H15.1505C12.5467 29.0417 10.484 29.0417 8.8704 28.8249C7.21007 28.6011 5.86565 28.1307 4.80457 27.0711C3.7449 26.01 3.27457 24.6656 3.05073 23.0052C2.83398 21.3902 2.83398 19.329 2.83398 16.7252V16.5665C2.83398 13.9627 2.83398 11.9 3.05073 10.285C3.27457 8.62467 3.7449 7.28025 4.80457 6.21917C5.86565 5.1595 7.21007 4.68917 8.8704 4.46533C10.4854 4.25 12.5467 4.25 15.1505 4.25H18.1425C20.7463 4.25 22.809 4.25 24.4226 4.46675C26.0829 4.69058 27.4273 5.16092 28.4884 6.22058C29.2123 6.94592 29.6642 7.80583 29.9476 8.8145C29.9605 8.86177 29.9622 8.91143 29.9523 8.95945C29.9425 9.00747 29.9215 9.0525 29.891 9.09086C29.8605 9.12923 29.8213 9.15987 29.7768 9.18028C29.7322 9.20069 29.6835 9.2103 29.6345 9.20833H26.0588C22.0397 9.20833 18.4981 12.3817 18.4981 16.6458C18.4981 20.91 22.0397 24.0833 26.0588 24.0833H29.6345ZM8.14648 9.91667C7.86469 9.91667 7.59444 10.0286 7.39518 10.2279C7.19593 10.4271 7.08398 10.6974 7.08398 10.9792C7.08398 11.261 7.19593 11.5312 7.39518 11.7305C7.59444 11.9297 7.86469 12.0417 8.14648 12.0417H13.8132C14.0949 12.0417 14.3652 11.9297 14.5645 11.7305C14.7637 11.5312 14.8757 11.261 14.8757 10.9792C14.8757 10.6974 14.7637 10.4271 14.5645 10.2279C14.3652 10.0286 14.0949 9.91667 13.8132 9.91667H8.14648Z" fill="#FFC420"/>
<path fill-rule="evenodd" clip-rule="evenodd" d="M29.6345 24.0833C29.6835 24.0814 29.7322 24.091 29.7768 24.1114C29.8213 24.1318 29.8605 24.1624 29.891 24.2008C29.9215 24.2392 29.9425 24.2842 29.9523 24.3322C29.9622 24.3802 29.9605 24.4299 29.9476 24.4772C29.6642 25.4858 29.2123 26.3472 28.4884 27.0697C27.4273 28.1322 26.0829 28.6011 24.4226 28.8249C22.8076 29.0417 20.7463 29.0417 18.1425 29.0417H15.1505C12.5467 29.0417 10.484 29.0417 8.8704 28.8249C7.21007 28.6011 5.86565 28.1307 4.80457 27.0711C3.7449 26.01 3.27457 24.6656 3.05073 23.0052C2.83398 21.3902 2.83398 19.329 2.83398 16.7252V16.5665C2.83398 13.9627 2.83398 11.9 3.05073 10.285C3.27457 8.62467 3.7449 7.28025 4.80457 6.21917C5.86565 5.1595 7.21007 4.68917 8.8704 4.46533C10.4854 4.25 12.5467 4.25 15.1505 4.25H18.1425C20.7463 4.25 22.809 4.25 24.4226 4.46675C26.0829 4.69058 27.4273 5.16092 28.4884 6.22058C29.2123 6.94592 29.6642 7.80583 29.9476 8.8145C29.9605 8.86177 29.9622 8.91143 29.9523 8.95945C29.9425 9.00747 29.9215 9.0525 29.891 9.09086C29.8605 9.12923 29.8213 9.15987 29.7768 9.18028C29.7322 9.20069 29.6835 9.2103 29.6345 9.20833H26.0588C22.0397 9.20833 18.4981 12.3817 18.4981 16.6458C18.4981 20.91 22.0397 24.0833 26.0588 24.0833H29.6345ZM8.14648 9.91667C7.86469 9.91667 7.59444 10.0286 7.39518 10.2279C7.19593 10.4271 7.08398 10.6974 7.08398 10.9792C7.08398 11.261 7.19593 11.5312 7.39518 11.7305C7.59444 11.9297 7.86469 12.0417 8.14648 12.0417H13.8132C14.0949 12.0417 14.3652 11.9297 14.5645 11.7305C14.7637 11.5312 14.8757 11.261 14.8757 10.9792C14.8757 10.6974 14.7637 10.4271 14.5645 10.2279C14.3652 10.0286 14.0949 9.91667 13.8132 9.91667H8.14648Z" fill="url(#paint2_radial_1215_9772)" style="mix-blend-mode:multiply"/>
<path fill-rule="evenodd" clip-rule="evenodd" d="M29.6345 24.0833C29.6835 24.0814 29.7322 24.091 29.7768 24.1114C29.8213 24.1318 29.8605 24.1624 29.891 24.2008C29.9215 24.2392 29.9425 24.2842 29.9523 24.3322C29.9622 24.3802 29.9605 24.4299 29.9476 24.4772C29.6642 25.4858 29.2123 26.3472 28.4884 27.0697C27.4273 28.1322 26.0829 28.6011 24.4226 28.8249C22.8076 29.0417 20.7463 29.0417 18.1425 29.0417H15.1505C12.5467 29.0417 10.484 29.0417 8.8704 28.8249C7.21007 28.6011 5.86565 28.1307 4.80457 27.0711C3.7449 26.01 3.27457 24.6656 3.05073 23.0052C2.83398 21.3902 2.83398 19.329 2.83398 16.7252V16.5665C2.83398 13.9627 2.83398 11.9 3.05073 10.285C3.27457 8.62467 3.7449 7.28025 4.80457 6.21917C5.86565 5.1595 7.21007 4.68917 8.8704 4.46533C10.4854 4.25 12.5467 4.25 15.1505 4.25H18.1425C20.7463 4.25 22.809 4.25 24.4226 4.46675C26.0829 4.69058 27.4273 5.16092 28.4884 6.22058C29.2123 6.94592 29.6642 7.80583 29.9476 8.8145C29.9605 8.86177 29.9622 8.91143 29.9523 8.95945C29.9425 9.00747 29.9215 9.0525 29.891 9.09086C29.8605 9.12923 29.8213 9.15987 29.7768 9.18028C29.7322 9.20069 29.6835 9.2103 29.6345 9.20833H26.0588C22.0397 9.20833 18.4981 12.3817 18.4981 16.6458C18.4981 20.91 22.0397 24.0833 26.0588 24.0833H29.6345ZM8.14648 9.91667C7.86469 9.91667 7.59444 10.0286 7.39518 10.2279C7.19593 10.4271 7.08398 10.6974 7.08398 10.9792C7.08398 11.261 7.19593 11.5312 7.39518 11.7305C7.59444 11.9297 7.86469 12.0417 8.14648 12.0417H13.8132C14.0949 12.0417 14.3652 11.9297 14.5645 11.7305C14.7637 11.5312 14.8757 11.261 14.8757 10.9792C14.8757 10.6974 14.7637 10.4271 14.5645 10.2279C14.3652 10.0286 14.0949 9.91667 13.8132 9.91667H8.14648Z" fill="url(#paint3_radial_1215_9772)" style="mix-blend-mode:screen"/>
<defs>
<radialGradient id="paint0_radial_1215_9772" cx="0" cy="0" r="1" gradientUnits="userSpaceOnUse" gradientTransform="translate(31.2511 9.51174) rotate(104.446) scale(7.30846 6.02554)">
<stop stop-color="#F2B03B"/>
<stop offset="1" stop-color="#F2B03B" stop-opacity="0"/>
</radialGradient>
<radialGradient id="paint1_radial_1215_9772" cx="0" cy="0" r="1" gradientUnits="userSpaceOnUse" gradientTransform="translate(22.0977 10.8365) rotate(-69.5198) scale(6.54029 2.7775)">
<stop stop-color="#FFBF4A"/>
<stop offset="1" stop-color="#EAA730" stop-opacity="0"/>
</radialGradient>
<radialGradient id="paint2_radial_1215_9772" cx="0" cy="0" r="1" gradientUnits="userSpaceOnUse" gradientTransform="translate(27.6714) rotate(104.468) scale(17.054 14.0801)">
<stop stop-color="#F2B03B"/>
<stop offset="1" stop-color="#F2B03B" stop-opacity="0"/>
</radialGradient>
<radialGradient id="paint3_radial_1215_9772" cx="0" cy="0" r="1" gradientUnits="userSpaceOnUse" gradientTransform="translate(6.28028 3.09091) rotate(-69.4897) scale(15.263 6.48966)">
<stop stop-color="#FFBF4A"/>
<stop offset="1" stop-color="#EAA730" stop-opacity="0"/>
</radialGradient>
</defs>
</svg>
