<svg viewBox="0 0 48 47" fill="none" xmlns="http://www.w3.org/2000/svg">
<g filter="url(#filter0_d_73_34299)">
<path d="M32.0888 20.4184L32.3553 19.8052C32.8239 18.7205 33.682 17.8508 34.7603 17.3677L35.5825 17.0005C35.6823 16.9546 35.7668 16.881 35.826 16.7886C35.8853 16.6961 35.9168 16.5886 35.9168 16.4788C35.9168 16.369 35.8853 16.2615 35.826 16.1691C35.7668 16.0766 35.6823 16.0031 35.5825 15.9572L34.8058 15.6116C33.7004 15.1148 32.8276 14.2129 32.3672 13.0918L32.0931 12.4299C32.0529 12.3273 31.9827 12.2393 31.8916 12.1773C31.8006 12.1152 31.693 12.082 31.5829 12.082C31.4727 12.082 31.3651 12.1152 31.2741 12.1773C31.1831 12.2393 31.1129 12.3273 31.0726 12.4299L30.7985 13.0907C30.3387 14.212 29.4663 15.1143 28.361 15.6116L27.5832 15.9583C27.4838 16.0043 27.3996 16.0778 27.3405 16.1702C27.2815 16.2625 27.2502 16.3698 27.2502 16.4794C27.2502 16.589 27.2815 16.6962 27.3405 16.7886C27.3996 16.8809 27.4838 16.9544 27.5832 17.0005L28.4065 17.3666C29.4847 17.8502 30.3424 18.7203 30.8105 19.8052L31.077 20.4184C31.272 20.8669 31.8927 20.8669 32.0888 20.4184ZM25.5021 17.8671C25.799 18.3366 26.2049 18.6836 26.7198 18.9082L27.3319 19.1758C27.9494 19.4452 28.391 19.8778 28.6568 20.4736L29.023 21.297C29.8105 23.0704 32.1549 23.3488 33.4343 22.1355L33.5329 22.2665C33.6834 22.4674 33.7596 22.7142 33.7483 22.965C33.7371 23.2157 33.6391 23.4548 33.4711 23.6413L23.7211 34.4746C23.6195 34.5874 23.4954 34.6776 23.3567 34.7393C23.2181 34.801 23.068 34.8329 22.9162 34.8329C22.7644 34.8329 22.6144 34.801 22.4757 34.7393C22.337 34.6776 22.2129 34.5874 22.1113 34.4746L12.3613 23.6413C12.1933 23.4548 12.0954 23.2157 12.0841 22.965C12.0728 22.7142 12.149 22.4674 12.2995 22.2665L15.5495 17.9332C15.6505 17.7987 15.7813 17.6895 15.9317 17.6142C16.0822 17.539 16.248 17.4999 16.4162 17.4999H25.306C25.3617 17.6255 25.4267 17.748 25.501 17.8671" fill="#FBCA37"/>
</g>
<defs>
<filter id="filter0_d_73_34299" x="0.0830078" y="0.0820312" width="47.8338" height="46.751" filterUnits="userSpaceOnUse" color-interpolation-filters="sRGB">
<feFlood flood-opacity="0" result="BackgroundImageFix"/>
<feColorMatrix in="SourceAlpha" type="matrix" values="0 0 0 0 0 0 0 0 0 0 0 0 0 0 0 0 0 0 127 0" result="hardAlpha"/>
<feOffset/>
<feGaussianBlur stdDeviation="6"/>
<feComposite in2="hardAlpha" operator="out"/>
<feColorMatrix type="matrix" values="0 0 0 0 1 0 0 0 0 0.828125 0 0 0 0 0.3125 0 0 0 0.32 0"/>
<feBlend mode="normal" in2="BackgroundImageFix" result="effect1_dropShadow_73_34299"/>
<feBlend mode="normal" in="SourceGraphic" in2="effect1_dropShadow_73_34299" result="shape"/>
</filter>
</defs>
</svg>
