<svg viewBox="0 0 44 44" fill="none" xmlns="http://www.w3.org/2000/svg">
<g filter="url(#filter0_d_115_8701)">
<path d="M17.125 28.5C17.5764 28.5 17.9602 28.3422 18.2766 28.0266C18.5929 27.711 18.7507 27.3271 18.75 26.875C18.7493 26.4229 18.5915 26.0394 18.2766 25.7245C17.9617 25.4096 17.5778 25.2514 17.125 25.25C16.6722 25.2486 16.2887 25.4067 15.9745 25.7245C15.6603 26.0423 15.5022 26.4258 15.5 26.875C15.4978 27.3242 15.656 27.7081 15.9745 28.0266C16.293 28.3451 16.6765 28.5029 17.125 28.5ZM17.125 18.75C17.5764 18.75 17.9602 18.5922 18.2766 18.2766C18.5929 17.961 18.7507 17.5771 18.75 17.125C18.7493 16.6729 18.5915 16.2894 18.2766 15.9745C17.9617 15.6596 17.5778 15.5014 17.125 15.5C16.6722 15.4986 16.2887 15.6567 15.9745 15.9745C15.6603 16.2923 15.5022 16.6758 15.5 17.125C15.4978 17.5742 15.656 17.9581 15.9745 18.2766C16.293 18.5951 16.6765 18.7529 17.125 18.75ZM22 23.625C22.4514 23.625 22.8352 23.4672 23.1516 23.1516C23.4679 22.836 23.6257 22.4521 23.625 22C23.6243 21.5479 23.4665 21.1644 23.1516 20.8495C22.8367 20.5346 22.4528 20.3764 22 20.375C21.5472 20.3736 21.1637 20.5317 20.8495 20.8495C20.5353 21.1673 20.3772 21.5508 20.375 22C20.3728 22.4492 20.531 22.8331 20.8495 23.1516C21.168 23.4701 21.5515 23.6279 22 23.625ZM26.875 28.5C27.3264 28.5 27.7102 28.3422 28.0266 28.0266C28.3429 27.711 28.5007 27.3271 28.5 26.875C28.4993 26.4229 28.3415 26.0394 28.0266 25.7245C27.7117 25.4096 27.3278 25.2514 26.875 25.25C26.4222 25.2486 26.0387 25.4067 25.7245 25.7245C25.4103 26.0423 25.2522 26.4258 25.25 26.875C25.2478 27.3242 25.406 27.7081 25.7245 28.0266C26.043 28.3451 26.4265 28.5029 26.875 28.5ZM26.875 18.75C27.3264 18.75 27.7102 18.5922 28.0266 18.2766C28.3429 17.961 28.5007 17.5771 28.5 17.125C28.4993 16.6729 28.3415 16.2894 28.0266 15.9745C27.7117 15.6596 27.3278 15.5014 26.875 15.5C26.4222 15.4986 26.0387 15.6567 25.7245 15.9745C25.4103 16.2923 25.2522 16.6758 25.25 17.125C25.2478 17.5742 25.406 17.9581 25.7245 18.2766C26.043 18.5951 26.4265 18.7529 26.875 18.75ZM14.4167 31.75C13.8208 31.75 13.3109 31.538 12.887 31.1141C12.4631 30.6901 12.2507 30.1799 12.25 29.5833V14.4167C12.25 13.8208 12.4623 13.3109 12.887 12.887C13.3117 12.4631 13.8216 12.2507 14.4167 12.25H29.5833C30.1792 12.25 30.6894 12.4623 31.1141 12.887C31.5388 13.3117 31.7507 13.8216 31.75 14.4167V29.5833C31.75 30.1792 31.538 30.6894 31.1141 31.1141C30.6901 31.5388 30.1799 31.7507 29.5833 31.75H14.4167Z" fill="#80EF80"/>
</g>
<defs>
<filter id="filter0_d_115_8701" x="0.25" y="0.25" width="43.5" height="43.5" filterUnits="userSpaceOnUse" color-interpolation-filters="sRGB">
<feFlood flood-opacity="0" result="BackgroundImageFix"/>
<feColorMatrix in="SourceAlpha" type="matrix" values="0 0 0 0 0 0 0 0 0 0 0 0 0 0 0 0 0 0 127 0" result="hardAlpha"/>
<feOffset/>
<feGaussianBlur stdDeviation="6"/>
<feComposite in2="hardAlpha" operator="out"/>
<feColorMatrix type="matrix" values="0 0 0 0 0.501961 0 0 0 0 0.937255 0 0 0 0 0.501961 0 0 0 0.32 0"/>
<feBlend mode="normal" in2="BackgroundImageFix" result="effect1_dropShadow_115_8701"/>
<feBlend mode="normal" in="SourceGraphic" in2="effect1_dropShadow_115_8701" result="shape"/>
</filter>
</defs>
</svg>
