<svg viewBox="0 0 24 24" fill="none" xmlns="http://www.w3.org/2000/svg">
<path d="M15 4C16.5823 4 18.129 4.46919 19.4446 5.34824C20.7602 6.22729 21.7855 7.47672 22.391 8.93853C22.9965 10.4003 23.155 12.0089 22.8463 13.5607C22.5376 15.1126 21.7757 16.538 20.6569 17.6569C19.538 18.7757 18.1126 19.5376 16.5607 19.8463C15.0089 20.155 13.4003 19.9965 11.9385 19.391C10.4767 18.7855 9.22729 17.7602 8.34824 16.4446C7.46919 15.129 7 13.5823 7 12C7 9.87827 7.84285 7.84344 9.34315 6.34315C10.8434 4.84285 12.8783 4 15 4Z" fill="currentColor"/>
<path d="M3.00047 12C3.00189 13.2396 3.38721 14.4483 4.10347 15.4601C4.81973 16.4718 5.83177 17.2368 7.00047 17.65V19.74C5.28848 19.2926 3.77314 18.2901 2.69162 16.8896C1.6101 15.4891 1.02344 13.7695 1.02344 12C1.02344 10.2305 1.6101 8.51094 2.69162 7.11042C3.77314 5.7099 5.28848 4.70747 7.00047 4.26001V6.35001C5.83177 6.76321 4.81973 7.52825 4.10347 8.53996C3.38721 9.55168 3.00189 10.7604 3.00047 12Z" fill="#5256FF"/>
</svg>
