<svg viewBox="0 0 14 14" fill="none" xmlns="http://www.w3.org/2000/svg">
<path d="M7.00006 14C8.8566 14 10.6371 13.2625 11.9499 11.9498C13.2626 10.637 14.0001 8.85653 14.0001 7.00001C14.0001 5.14349 13.2626 3.36301 11.9499 2.05025C10.6371 0.737499 8.8566 0 7.00006 0C5.14353 0 3.36304 0.737499 2.05027 2.05025C0.737505 3.36301 0 5.14349 0 7.00001C0 8.85653 0.737505 10.637 2.05027 11.9498C3.36304 13.2625 5.14353 14 7.00006 14Z" fill="#FBCA37"/>
<path d="M6.11666 5.4602C6.11666 6.15572 5.72128 6.7202 5.23411 6.7202C4.74694 6.7202 4.35156 6.15572 4.35156 5.4602C4.35156 4.76468 4.74694 4.2002 5.23411 4.2002C5.72128 4.2002 6.11666 4.76468 6.11666 5.4602ZM9.64686 5.4602C9.64686 6.15572 9.25147 6.7202 8.76431 6.7202C8.27714 6.7202 7.88176 6.15572 7.88176 5.4602C7.88176 4.76468 8.27714 4.2002 8.76431 4.2002C9.25147 4.2002 9.64686 4.76468 9.64686 5.4602Z" fill="#1F2330"/>
<path d="M3.72062 8.4672C3.82198 8.41724 3.94242 8.4037 4.05546 8.42956C4.16851 8.45542 4.26489 8.51856 4.32341 8.60509C4.59445 9.0062 4.98448 9.33926 5.45424 9.57075C5.924 9.80223 6.4569 9.92396 6.99929 9.92369C7.54168 9.92396 8.07459 9.80223 8.54435 9.57075C9.01411 9.33926 9.40414 9.0062 9.67518 8.60509C9.70394 8.56189 9.74243 8.52399 9.78842 8.49354C9.83442 8.4631 9.88701 8.44073 9.94317 8.42771C9.99933 8.41469 10.058 8.41129 10.1157 8.41769C10.1734 8.4241 10.229 8.44018 10.2794 8.46503C10.3298 8.48987 10.374 8.52298 10.4093 8.56245C10.4447 8.60192 10.4705 8.64696 10.4854 8.695C10.5003 8.74303 10.5039 8.7931 10.496 8.84233C10.4881 8.89156 10.4689 8.93897 10.4395 8.98183C10.091 9.49748 9.58953 9.92566 8.98561 10.2233C8.38169 10.5209 7.6966 10.6774 6.99929 10.6772C6.30199 10.6774 5.6169 10.5209 5.01298 10.2233C4.40906 9.92566 3.90762 9.49748 3.55912 8.98183C3.5006 8.8953 3.48475 8.79247 3.51504 8.69596C3.54532 8.59945 3.61928 8.51716 3.72062 8.4672Z" fill="#1F2330"/>
</svg>
