<svg width="24" height="24" viewBox="0 0 24 24" fill="currentColor" xmlns="http://www.w3.org/2000/svg">
<mask id="mask0_1105_20845" style="mask-type:alpha" maskUnits="userSpaceOnUse" x="0" y="0" width="24" height="24">
<rect width="24" height="24" fill="#D9D9D9"/>
</mask>
<g mask="url(#mask0_1105_20845)">
<path d="M15.422 10.975C15.824 10.975 16.1667 10.8343 16.45 10.553C16.7333 10.2717 16.875 9.93 16.875 9.528C16.875 9.126 16.7343 8.78333 16.453 8.5C16.1717 8.21667 15.83 8.075 15.428 8.075C15.026 8.075 14.6833 8.21567 14.4 8.497C14.1167 8.77833 13.975 9.12 13.975 9.522C13.975 9.924 14.1157 10.2667 14.397 10.55C14.6783 10.8333 15.02 10.975 15.422 10.975ZM8.572 10.975C8.974 10.975 9.31667 10.8343 9.6 10.553C9.88333 10.2717 10.025 9.93 10.025 9.528C10.025 9.126 9.88433 8.78333 9.603 8.5C9.32167 8.21667 8.98 8.075 8.578 8.075C8.176 8.075 7.83333 8.21567 7.55 8.497C7.26667 8.77833 7.125 9.12 7.125 9.522C7.125 9.924 7.26567 10.2667 7.547 10.55C7.82833 10.8333 8.17 10.975 8.572 10.975ZM12 17.35C13.0917 17.35 14.0875 17.0417 14.9875 16.425C15.8875 15.8083 16.5417 14.9917 16.95 13.975H7.05C7.45833 14.9917 8.1125 15.8083 9.0125 16.425C9.9125 17.0417 10.9083 17.35 12 17.35ZM12 21.75C10.6515 21.75 9.38425 21.4937 8.19825 20.981C7.01242 20.4682 5.98083 19.7723 5.1035 18.8935C4.22617 18.0145 3.53125 16.9826 3.01875 15.7978C2.50625 14.6131 2.25 13.3472 2.25 12C2.25 10.6515 2.50633 9.38425 3.019 8.19825C3.53183 7.01242 4.22767 5.98083 5.1065 5.1035C5.9855 4.22617 7.01742 3.53125 8.20225 3.01875C9.38692 2.50625 10.6528 2.25 12 2.25C13.3485 2.25 14.6158 2.50633 15.8018 3.019C16.9876 3.53183 18.0192 4.22767 18.8965 5.1065C19.7738 5.9855 20.4688 7.01742 20.9813 8.20225C21.4938 9.38692 21.75 10.6528 21.75 12C21.75 13.3485 21.4937 14.6158 20.981 15.8018C20.4682 16.9876 19.7723 18.0192 18.8935 18.8965C18.0145 19.7738 16.9826 20.4688 15.7977 20.9813C14.6131 21.4938 13.3472 21.75 12 21.75Z" fill="#A8ADBE"/>
</g>
</svg>
