<svg viewBox="0 0 17 16" fill="none" xmlns="http://www.w3.org/2000/svg">
<path d="M8.33405 13.2374L4.11948 15.779C3.96254 15.8707 3.80526 15.9092 3.64764 15.8947C3.48999 15.8801 3.34728 15.8269 3.2195 15.7353C3.09174 15.6436 2.99314 15.5238 2.9237 15.3759C2.85424 15.228 2.84313 15.0645 2.89036 14.8853L4.00909 10.0999L0.288272 6.87909C0.149389 6.75826 0.0608535 6.61834 0.022666 6.45932C-0.0155215 6.30029 -0.00545542 6.14578 0.052864 5.99579C0.111202 5.84579 0.195232 5.72321 0.304956 5.62808C0.414679 5.53295 0.564676 5.4708 0.754945 5.44164L5.66534 5.01248L7.57158 0.49373C7.64102 0.325687 7.74622 0.201383 7.88718 0.120819C8.02816 0.0402729 8.17712 0 8.33405 0C8.49099 0 8.63995 0.0402729 8.78093 0.120819C8.92189 0.201383 9.02709 0.325687 9.09653 0.49373L11.0028 5.01248L15.9132 5.44164C16.1034 5.4708 16.2534 5.53295 16.3632 5.62808C16.4729 5.72321 16.5569 5.84579 16.6152 5.99579C16.6736 6.14578 16.6836 6.30029 16.6454 6.45932C16.6073 6.61834 16.5187 6.75826 16.3798 6.87909L12.659 10.0999L13.7778 14.8853C13.825 15.0645 13.8139 15.228 13.7444 15.3759C13.675 15.5238 13.5764 15.6436 13.4486 15.7353C13.3208 15.8269 13.1781 15.8801 13.0205 15.8947C12.8628 15.9092 12.7056 15.8707 12.5486 15.779L8.33405 13.2374Z" fill="currentColor"></path>
</svg>