<svg viewBox="0 0 18 16" fill="none" xmlns="http://www.w3.org/2000/svg">
<path d="M4.95078 8.90015C3.21642 8.90015 1.80078 10.3158 1.80078 12.0501C1.80078 13.7845 3.21642 15.2001 4.95078 15.2001C6.53228 15.2001 7.8476 14.0226 8.06738 12.5001H9.93418C10.154 14.0226 11.4693 15.2001 13.0508 15.2001C14.7851 15.2001 16.2008 13.7845 16.2008 12.0501C16.2008 10.3158 14.7851 8.90015 13.0508 8.90015C11.4693 8.90015 10.154 10.0777 9.93418 11.6001H8.06738C7.8476 10.0777 6.53228 8.90015 4.95078 8.90015Z" fill="currentColor"/>
<path d="M5.16973 0.800125C4.26848 0.789578 3.42419 1.38877 3.17988 2.30657L1.90547 7.10012H0.45C0.201472 7.10012 0 7.3016 0 7.55013C0 7.79865 0.201472 8.00013 0.45 8.00013C6.15 8.00013 11.85 8.00013 17.55 8.00013C17.7985 8.00013 18 7.79865 18 7.55013C18 7.3016 17.7985 7.10012 17.55 7.10012H16.0945L14.8201 2.30657C14.5194 1.17696 13.3108 0.531285 12.2045 0.909109L9.1459 1.95325C9.05143 1.98551 8.94857 1.98551 8.8541 1.95325L5.79551 0.909109C5.58808 0.838267 5.37771 0.802559 5.16973 0.800125Z" fill="currentColor"/>
</svg>
