<svg width="24" height="24" viewBox="0 0 24 24" fill="currentColor" xmlns="http://www.w3.org/2000/svg">
<mask id="mask0_1105_20848" style="mask-type:alpha" maskUnits="userSpaceOnUse" x="0" y="0" width="24" height="24">
<rect width="24" height="24" fill="#D9D9D9"/>
</mask>
<g mask="url(#mask0_1105_20848)">
<path d="M5.1001 20.7751C4.58443 20.7751 4.14301 20.5915 3.77585 20.2243C3.40868 19.8572 3.2251 19.4158 3.2251 18.9001V5.1001C3.2251 4.58443 3.40868 4.14302 3.77585 3.77585C4.14301 3.40868 4.58443 3.2251 5.1001 3.2251H18.9001C19.4158 3.2251 19.8572 3.40868 20.2243 3.77585C20.5915 4.14302 20.7751 4.58443 20.7751 5.1001V18.9001C20.7751 19.4158 20.5915 19.8572 20.2243 20.2243C19.8572 20.5915 19.4158 20.7751 18.9001 20.7751H5.1001ZM11.2251 14.9251H12.6501V9.0751H11.2251V14.9251ZM7.1751 14.9251H9.1501C9.41926 14.9251 9.64493 14.8341 9.8271 14.6521C10.0091 14.4699 10.1001 14.2443 10.1001 13.9751V12.0251H8.6751V13.5001H7.6501V10.5001H10.1001V10.0251C10.1001 9.75593 10.0091 9.53026 9.8271 9.3481C9.64493 9.1661 9.41926 9.0751 9.1501 9.0751H7.1751C6.90593 9.0751 6.68026 9.1661 6.4981 9.3481C6.3161 9.53026 6.2251 9.75593 6.2251 10.0251V13.9751C6.2251 14.2443 6.3161 14.4699 6.4981 14.6521C6.68026 14.8341 6.90593 14.9251 7.1751 14.9251ZM14.0251 14.9251H15.4501V12.9501H17.0751V11.5251H15.4501V10.5001H18.0251V9.0751H14.0251V14.9251Z" fill="#A8ADBE"/>
</g>
</svg>
