<svg viewBox="0 0 24 24" fill="none" xmlns="http://www.w3.org/2000/svg">
<path fill-rule="evenodd" clip-rule="evenodd" d="M8 2C7.11595 2 6.2681 2.36216 5.64298 3.00682C5.01786 3.65148 4.66667 4.52582 4.66667 5.4375V5.83075C4.66667 6.44675 4.844 7.02012 5.14933 7.5H4C3.46957 7.5 2.96086 7.7173 2.58579 8.10409C2.21071 8.49089 2 9.01549 2 9.5625L2 10.9375C2 11.4845 2.21071 12.0091 2.58579 12.3959C2.96086 12.7827 3.46957 13 4 13H11.3333V7.5H12.6667V13H20C20.5304 13 21.0391 12.7827 21.4142 12.3959C21.7893 12.0091 22 11.4845 22 10.9375V9.5625C22 9.01549 21.7893 8.49089 21.4142 8.10409C21.0391 7.7173 20.5304 7.5 20 7.5H18.8507C19.156 7.02012 19.3333 6.44675 19.3333 5.83075V5.4375C19.3333 4.52582 18.9821 3.65148 18.357 3.00682C17.7319 2.36216 16.8841 2 16 2C14.3027 2 12.816 2.935 12 4.332C11.585 3.62046 10.9985 3.03176 10.2976 2.62312C9.59669 2.21449 8.80517 1.99983 8 2ZM12.6667 7.5H16.3813C17.2747 7.5 18 6.752 18 5.83075V5.4375C18 4.89049 17.7893 4.36589 17.4142 3.97909C17.0391 3.5923 16.5304 3.375 16 3.375C15.1159 3.375 14.2681 3.73716 13.643 4.38182C13.0179 5.02648 12.6667 5.90082 12.6667 6.8125V7.5ZM11.3333 7.5H7.61867C6.72533 7.5 6 6.752 6 5.83075V5.4375C6 4.89049 6.21071 4.36589 6.58579 3.97909C6.96086 3.5923 7.46957 3.375 8 3.375C8.43774 3.375 8.87119 3.46391 9.27561 3.63666C9.68003 3.80941 10.0475 4.06262 10.357 4.38182C10.6666 4.70102 10.9121 5.07997 11.0796 5.49703C11.2471 5.91408 11.3333 6.36108 11.3333 6.8125V7.5Z" fill="currentColor"/>
<path d="M11.3077 14H3V18.6667C3 19.5507 3.3647 20.3986 4.01386 21.0237C4.66303 21.6488 5.54348 22 6.46154 22H11.3077V14ZM12.6923 22H17.5385C18.4565 22 19.337 21.6488 19.9861 21.0237C20.6353 20.3986 21 19.5507 21 18.6667V14H12.6923V22Z" fill="currentColor"/>
</svg>
