<svg viewBox="0 0 20 20" fill="none" xmlns="http://www.w3.org/2000/svg">
<mask id="mask0_694_8304" style="mask-type:alpha" maskUnits="userSpaceOnUse" x="0" y="0" width="20" height="20">
<rect width="20" height="20" fill="currentColor"/>
</mask>
<g mask="url(#mask0_694_8304)">
<path d="M4.25 17.3125C3.82028 17.3125 3.45243 17.1595 3.14646 16.8535C2.84049 16.5476 2.6875 16.1797 2.6875 15.75V4.25C2.6875 3.82028 2.84049 3.45243 3.14646 3.14646C3.45243 2.84049 3.82028 2.6875 4.25 2.6875H7.65625C8.08597 2.6875 8.45382 2.84049 8.75979 3.14646C9.06576 3.45243 9.21875 3.82028 9.21875 4.25V15.75C9.21875 16.1797 9.06576 16.5476 8.75979 16.8535C8.45382 17.1595 8.08597 17.3125 7.65625 17.3125H4.25ZM12.3438 17.3125C11.914 17.3125 11.5462 17.1595 11.2402 16.8535C10.9342 16.5476 10.7812 16.1797 10.7812 15.75V11.5625C10.7812 11.1328 10.9342 10.7649 11.2402 10.459C11.5462 10.153 11.914 10 12.3438 10H15.75C16.1797 10 16.5476 10.153 16.8535 10.459C17.1595 10.7649 17.3125 11.1328 17.3125 11.5625V15.75C17.3125 16.1797 17.1595 16.5476 16.8535 16.8535C16.5476 17.1595 16.1797 17.3125 15.75 17.3125H12.3438ZM12.3438 8.4375C11.914 8.4375 11.5462 8.28451 11.2402 7.97854C10.9342 7.67257 10.7812 7.30472 10.7812 6.875V4.25C10.7812 3.82028 10.9342 3.45243 11.2402 3.14646C11.5462 2.84049 11.914 2.6875 12.3438 2.6875H15.75C16.1797 2.6875 16.5476 2.84049 16.8535 3.14646C17.1595 3.45243 17.3125 3.82028 17.3125 4.25V6.875C17.3125 7.30472 17.1595 7.67257 16.8535 7.97854C16.5476 8.28451 16.1797 8.4375 15.75 8.4375H12.3438Z" fill="currentColor"/>
</g>
</svg>
