<svg viewBox="0 0 38 38" fill="none" xmlns="http://www.w3.org/2000/svg">
<g filter="url(#filter0_d_130_3683)">
<path fill-rule="evenodd" clip-rule="evenodd" d="M13.9385 12H13.8846C13.638 12 13.4258 12 13.2385 12.0442C12.9484 12.1135 12.6831 12.2617 12.4722 12.4725C12.2612 12.6833 12.1127 12.9484 12.0431 13.2384C12 13.4257 12 13.6368 12 13.8845V16.5766C12 16.8232 12 17.0353 12.0442 17.2227C12.1135 17.5127 12.2617 17.7779 12.4725 17.9889C12.6833 18.1999 12.9484 18.3484 13.2385 18.418C13.4258 18.461 13.6369 18.461 13.8846 18.461H16.5769C16.8235 18.461 17.0357 18.461 17.2231 18.4169C17.5132 18.3476 17.7784 18.1993 17.9894 17.9885C18.2004 17.7778 18.3489 17.5127 18.4185 17.2227C18.4615 17.0353 18.4615 16.8242 18.4615 16.5766V13.8845C18.4615 13.6379 18.4615 13.4257 18.4174 13.2384C18.3481 12.9483 18.1998 12.6831 17.989 12.4721C17.7782 12.2611 17.5131 12.1126 17.2231 12.0431C17.0357 12 16.8246 12 16.5769 12H13.9385ZM21.4769 12H21.4231C21.1765 12 20.9643 12 20.7769 12.0442C20.4868 12.1135 20.2216 12.2617 20.0106 12.4725C19.7996 12.6833 19.6511 12.9484 19.5815 13.2384C19.5385 13.4257 19.5385 13.6368 19.5385 13.8845V16.5766C19.5385 16.8232 19.5385 17.0353 19.5826 17.2227C19.6519 17.5127 19.8002 17.7779 20.011 17.9889C20.2218 18.1999 20.4869 18.3484 20.7769 18.418C20.9643 18.461 21.1754 18.461 21.4231 18.461H24.1154C24.362 18.461 24.5742 18.461 24.7615 18.4169C25.0516 18.3476 25.3169 18.1993 25.5278 17.9885C25.7388 17.7778 25.8873 17.5127 25.9569 17.2227C26 17.0353 26 16.8242 26 16.5766V13.8845C26 13.6379 26 13.4257 25.9558 13.2384C25.8865 12.9483 25.7383 12.6831 25.5275 12.4721C25.3167 12.2611 25.0516 12.1126 24.7615 12.0431C24.5742 12 24.3631 12 24.1154 12H21.4769ZM13.8846 19.5379H16.5769C16.8235 19.5379 17.0357 19.5379 17.2231 19.582C17.5132 19.6513 17.7784 19.7996 17.9894 20.0104C18.2004 20.2212 18.3489 20.4862 18.4185 20.7762C18.4615 20.9636 18.4615 21.1747 18.4615 21.4224V24.1145C18.4615 24.361 18.4615 24.5732 18.4174 24.7606C18.3481 25.0506 18.1998 25.3158 17.989 25.5268C17.7782 25.7378 17.5131 25.8863 17.2231 25.9559C17.0357 25.9989 16.8246 25.9989 16.5769 25.9989H13.8846C13.638 25.9989 13.4258 25.9989 13.2385 25.9548C12.9484 25.8855 12.6831 25.7372 12.4722 25.5264C12.2612 25.3156 12.1127 25.0506 12.0431 24.7606C12 24.5732 12 24.3621 12 24.1145V21.4224C12 21.1758 12 20.9636 12.0442 20.7762C12.1135 20.4862 12.2617 20.221 12.4725 20.01C12.6833 19.799 12.9484 19.6505 13.2385 19.581C13.4258 19.5379 13.6369 19.5379 13.8846 19.5379ZM21.4769 19.5379H21.4231C21.1765 19.5379 20.9643 19.5379 20.7769 19.582C20.4868 19.6513 20.2216 19.7996 20.0106 20.0104C19.7996 20.2212 19.6511 20.4862 19.5815 20.7762C19.5385 20.9636 19.5385 21.1747 19.5385 21.4224V24.1145C19.5385 24.361 19.5385 24.5732 19.5826 24.7606C19.6519 25.0506 19.8002 25.3158 20.011 25.5268C20.2218 25.7378 20.4869 25.8863 20.7769 25.9559C20.9643 26 21.1765 26 21.4231 26H24.1154C24.362 26 24.5742 26 24.7615 25.9559C25.0514 25.8864 25.3164 25.738 25.5272 25.5273C25.738 25.3165 25.8864 25.0515 25.9558 24.7616C26 24.5743 26 24.3621 26 24.1155V21.4234C26 21.1768 26 20.9647 25.9558 20.7773C25.8867 20.4871 25.7385 20.2216 25.5277 20.0105C25.3169 19.7993 25.0517 19.6506 24.7615 19.581C24.5742 19.5379 24.3631 19.5379 24.1154 19.5379H21.4769Z" fill="#77778D"/>
<path fill-rule="evenodd" clip-rule="evenodd" d="M13.9385 12H13.8846C13.638 12 13.4258 12 13.2385 12.0442C12.9484 12.1135 12.6831 12.2617 12.4722 12.4725C12.2612 12.6833 12.1127 12.9484 12.0431 13.2384C12 13.4257 12 13.6368 12 13.8845V16.5766C12 16.8232 12 17.0353 12.0442 17.2227C12.1135 17.5127 12.2617 17.7779 12.4725 17.9889C12.6833 18.1999 12.9484 18.3484 13.2385 18.418C13.4258 18.461 13.6369 18.461 13.8846 18.461H16.5769C16.8235 18.461 17.0357 18.461 17.2231 18.4169C17.5132 18.3476 17.7784 18.1993 17.9894 17.9885C18.2004 17.7778 18.3489 17.5127 18.4185 17.2227C18.4615 17.0353 18.4615 16.8242 18.4615 16.5766V13.8845C18.4615 13.6379 18.4615 13.4257 18.4174 13.2384C18.3481 12.9483 18.1998 12.6831 17.989 12.4721C17.7782 12.2611 17.5131 12.1126 17.2231 12.0431C17.0357 12 16.8246 12 16.5769 12H13.9385ZM21.4769 12H21.4231C21.1765 12 20.9643 12 20.7769 12.0442C20.4868 12.1135 20.2216 12.2617 20.0106 12.4725C19.7996 12.6833 19.6511 12.9484 19.5815 13.2384C19.5385 13.4257 19.5385 13.6368 19.5385 13.8845V16.5766C19.5385 16.8232 19.5385 17.0353 19.5826 17.2227C19.6519 17.5127 19.8002 17.7779 20.011 17.9889C20.2218 18.1999 20.4869 18.3484 20.7769 18.418C20.9643 18.461 21.1754 18.461 21.4231 18.461H24.1154C24.362 18.461 24.5742 18.461 24.7615 18.4169C25.0516 18.3476 25.3169 18.1993 25.5278 17.9885C25.7388 17.7778 25.8873 17.5127 25.9569 17.2227C26 17.0353 26 16.8242 26 16.5766V13.8845C26 13.6379 26 13.4257 25.9558 13.2384C25.8865 12.9483 25.7383 12.6831 25.5275 12.4721C25.3167 12.2611 25.0516 12.1126 24.7615 12.0431C24.5742 12 24.3631 12 24.1154 12H21.4769ZM13.8846 19.5379H16.5769C16.8235 19.5379 17.0357 19.5379 17.2231 19.582C17.5132 19.6513 17.7784 19.7996 17.9894 20.0104C18.2004 20.2212 18.3489 20.4862 18.4185 20.7762C18.4615 20.9636 18.4615 21.1747 18.4615 21.4224V24.1145C18.4615 24.361 18.4615 24.5732 18.4174 24.7606C18.3481 25.0506 18.1998 25.3158 17.989 25.5268C17.7782 25.7378 17.5131 25.8863 17.2231 25.9559C17.0357 25.9989 16.8246 25.9989 16.5769 25.9989H13.8846C13.638 25.9989 13.4258 25.9989 13.2385 25.9548C12.9484 25.8855 12.6831 25.7372 12.4722 25.5264C12.2612 25.3156 12.1127 25.0506 12.0431 24.7606C12 24.5732 12 24.3621 12 24.1145V21.4224C12 21.1758 12 20.9636 12.0442 20.7762C12.1135 20.4862 12.2617 20.221 12.4725 20.01C12.6833 19.799 12.9484 19.6505 13.2385 19.581C13.4258 19.5379 13.6369 19.5379 13.8846 19.5379ZM21.4769 19.5379H21.4231C21.1765 19.5379 20.9643 19.5379 20.7769 19.582C20.4868 19.6513 20.2216 19.7996 20.0106 20.0104C19.7996 20.2212 19.6511 20.4862 19.5815 20.7762C19.5385 20.9636 19.5385 21.1747 19.5385 21.4224V24.1145C19.5385 24.361 19.5385 24.5732 19.5826 24.7606C19.6519 25.0506 19.8002 25.3158 20.011 25.5268C20.2218 25.7378 20.4869 25.8863 20.7769 25.9559C20.9643 26 21.1765 26 21.4231 26H24.1154C24.362 26 24.5742 26 24.7615 25.9559C25.0514 25.8864 25.3164 25.738 25.5272 25.5273C25.738 25.3165 25.8864 25.0515 25.9558 24.7616C26 24.5743 26 24.3621 26 24.1155V21.4234C26 21.1768 26 20.9647 25.9558 20.7773C25.8867 20.4871 25.7385 20.2216 25.5277 20.0105C25.3169 19.7993 25.0517 19.6506 24.7615 19.581C24.5742 19.5379 24.3631 19.5379 24.1154 19.5379H21.4769Z" fill="#80EF80"/>
</g>
<defs>
<filter id="filter0_d_130_3683" x="0" y="0" width="38" height="38" filterUnits="userSpaceOnUse" color-interpolation-filters="sRGB">
<feFlood flood-opacity="0" result="BackgroundImageFix"/>
<feColorMatrix in="SourceAlpha" type="matrix" values="0 0 0 0 0 0 0 0 0 0 0 0 0 0 0 0 0 0 127 0" result="hardAlpha"/>
<feOffset/>
<feGaussianBlur stdDeviation="6"/>
<feComposite in2="hardAlpha" operator="out"/>
<feColorMatrix type="matrix" values="0 0 0 0 0.501961 0 0 0 0 0.937255 0 0 0 0 0.501961 0 0 0 0.32 0"/>
<feBlend mode="normal" in2="BackgroundImageFix" result="effect1_dropShadow_130_3683"/>
<feBlend mode="normal" in="SourceGraphic" in2="effect1_dropShadow_130_3683" result="shape"/>
</filter>
</defs>
</svg>
