<svg width="20" height="20" viewBox="0 0 20 20" fill="none" xmlns="http://www.w3.org/2000/svg">
<mask id="mask0_1214_9996" style="mask-type:alpha" maskUnits="userSpaceOnUse" x="0" y="0" width="20" height="20">
<rect width="20" height="20" fill="#D9D9D9"/>
</mask>
<g mask="url(#mask0_1214_9996)">
<path d="M9.98729 17.3125C8.12076 17.3125 6.49479 16.6944 5.10938 15.4583C3.72396 14.2222 2.92708 12.6736 2.71875 10.8125H4.32292C4.51736 12.2361 5.15111 13.4149 6.22417 14.349C7.29708 15.283 8.55118 15.75 9.98646 15.75C11.5858 15.75 12.9444 15.191 14.0625 14.0729C15.1806 12.9549 15.7396 11.5956 15.7396 9.99521C15.7396 8.39479 15.1797 7.03715 14.0598 5.92229C12.9401 4.80743 11.5764 4.25 9.96875 4.25C9.03583 4.25 8.16368 4.46701 7.35229 4.90104C6.54104 5.33507 5.85764 5.92361 5.30208 6.66667H7.53125V8.22917H2.76042V3.45833H4.32292V5.39583C5.01736 4.53472 5.8559 3.86806 6.83854 3.39583C7.82118 2.92361 8.86562 2.6875 9.97188 2.6875C10.9837 2.6875 11.9355 2.8809 12.8273 3.26771C13.719 3.65451 14.495 4.17708 15.1554 4.83542C15.8157 5.49375 16.3385 6.26562 16.724 7.15104C17.1094 8.03646 17.3021 8.98611 17.3021 10C17.3021 11.0139 17.1094 11.9635 16.724 12.849C16.3385 13.7344 15.816 14.5069 15.1563 15.1667C14.4965 15.8264 13.7237 16.349 12.8377 16.7344C11.9519 17.1198 11.0017 17.3125 9.98729 17.3125ZM12.3021 13.3958L9.23958 10.3152V5.9375H10.8021V9.6875L13.4062 12.2917L12.3021 13.3958Z" fill="#A8ADBE"/>
</g>
</svg>
