<svg viewBox="0 0 20 20" fill="none" xmlns="http://www.w3.org/2000/svg">
<path d="M19.7179 6.7685V17.4535C19.7174 18.0226 19.491 18.5682 19.0886 18.9706C18.6862 19.373 18.1406 19.5993 17.5715 19.5999H13.9941C13.6146 19.5999 13.2506 19.4491 12.9823 19.1808C12.7139 18.9124 12.5631 18.5485 12.5631 18.1689V14.2338C12.5631 14.0441 12.4878 13.8621 12.3536 13.7279C12.2194 13.5937 12.0374 13.5183 11.8477 13.5183H8.27027C8.08051 13.5183 7.89853 13.5937 7.76435 13.7279C7.63017 13.8621 7.55479 14.0441 7.55479 14.2338V18.1689C7.55479 18.5485 7.40403 18.9124 7.13567 19.1808C6.86732 19.4491 6.50335 19.5999 6.12383 19.5999H2.54644C1.97734 19.5993 1.43172 19.373 1.02931 18.9706C0.626894 18.5682 0.40057 18.0226 0.400002 17.4535V6.7685C0.400537 6.5214 0.464747 6.27862 0.586437 6.06356C0.708127 5.8485 0.883188 5.66844 1.09473 5.54074L9.32274 0.603935C9.54517 0.470428 9.79972 0.399902 10.0591 0.399902C10.3186 0.399902 10.5731 0.470428 10.7956 0.603935L19.0236 5.54074C19.235 5.66848 19.41 5.84857 19.5317 6.06362C19.6533 6.27867 19.7174 6.52144 19.7179 6.7685Z" fill="currentColor"/>
</svg>
