<svg viewBox="0 0 20 20" fill="none" xmlns="http://www.w3.org/2000/svg">
<path d="M9.99935 14.1666C10.2355 14.1666 10.4335 14.0866 10.5935 13.9266C10.7535 13.7666 10.8332 13.5688 10.8327 13.3333V9.99996C10.8327 9.76385 10.7527 9.56607 10.5927 9.40663C10.4327 9.24718 10.2349 9.16718 9.99935 9.16663C9.76379 9.16607 9.56602 9.24607 9.40602 9.40663C9.24602 9.56718 9.16602 9.76496 9.16602 9.99996V13.3333C9.16602 13.5694 9.24602 13.7675 9.40602 13.9275C9.56602 14.0875 9.76379 14.1672 9.99935 14.1666ZM9.99935 7.49996C10.2355 7.49996 10.4335 7.41996 10.5935 7.25996C10.7535 7.09996 10.8332 6.90218 10.8327 6.66663C10.8321 6.43107 10.7521 6.23329 10.5927 6.07329C10.4332 5.91329 10.2355 5.83329 9.99935 5.83329C9.76324 5.83329 9.56546 5.91329 9.40602 6.07329C9.24657 6.23329 9.16657 6.43107 9.16602 6.66663C9.16546 6.90218 9.24546 7.10024 9.40602 7.26079C9.56657 7.42135 9.76435 7.50107 9.99935 7.49996ZM9.99935 18.3333C8.84657 18.3333 7.76324 18.1144 6.74935 17.6766C5.73546 17.2388 4.85352 16.6452 4.10352 15.8958C3.35352 15.1463 2.75991 14.2644 2.32268 13.25C1.88546 12.2355 1.66657 11.1522 1.66602 9.99996C1.66546 8.84774 1.88435 7.7644 2.32268 6.74996C2.76102 5.73552 3.35463 4.85357 4.10352 4.10413C4.85241 3.35468 5.73435 2.76107 6.74935 2.32329C7.76435 1.88551 8.84768 1.66663 9.99935 1.66663C11.151 1.66663 12.2343 1.88551 13.2493 2.32329C14.2643 2.76107 15.1463 3.35468 15.8952 4.10413C16.6441 4.85357 17.238 5.73552 17.6768 6.74996C18.1157 7.7644 18.3344 8.84774 18.3327 9.99996C18.331 11.1522 18.1121 12.2355 17.676 13.25C17.2399 14.2644 16.6463 15.1463 15.8952 15.8958C15.1441 16.6452 14.2621 17.2391 13.2493 17.6775C12.2366 18.1158 11.1532 18.3344 9.99935 18.3333Z" fill="currentColor"/>
</svg>
