<svg viewBox="0 0 34 36" fill="none" xmlns="http://www.w3.org/2000/svg">
<path d="M16.0403 0.524945C16.6383 0.197847 17.3617 0.197848 17.9597 0.524945L32.4142 8.43102C33.0556 8.78183 33.4545 9.45464 33.4545 10.1857V25.8143C33.4545 26.5454 33.0556 27.2182 32.4142 27.569L17.9597 35.4751C17.3617 35.8022 16.6383 35.8022 16.0403 35.4751L1.58577 27.569C0.94439 27.2182 0.545517 26.5454 0.545517 25.8143V10.1857C0.545517 9.45464 0.94439 8.78183 1.58577 8.43102L16.0403 0.524945Z" fill="url(#paint0_radial_986_7160)"/>
<path d="M16.2803 0.963867C16.6728 0.749185 17.1374 0.721759 17.5479 0.882812L17.7197 0.963867L32.1738 8.87012C32.6548 9.1332 32.954 9.63731 32.9541 10.1855V25.8145C32.9541 26.2942 32.7252 26.7402 32.3457 27.0205L32.1738 27.1299L17.7197 35.0361C17.3272 35.2508 16.8626 35.2782 16.4521 35.1172L16.2803 35.0361L1.82617 27.1299C1.34518 26.8668 1.04595 26.3627 1.0459 25.8145V10.1855C1.04595 9.70583 1.27479 9.2598 1.6543 8.97949L1.82617 8.87012L16.2803 0.963867Z" stroke="white" stroke-opacity="0.18"/>
<defs>
<radialGradient id="paint0_radial_986_7160" cx="0" cy="0" r="1" gradientUnits="userSpaceOnUse" gradientTransform="translate(7.94203 4.09551) scale(44.4078 36.4375)">
<stop stop-color="#FFD024"/>
<stop offset="0.412" stop-color="#F5A000"/>
<stop offset="1" stop-color="#BD5212"/>
</radialGradient>
</defs>
</svg>
