<svg viewBox="0 0 248 228" fill="none" xmlns="http://www.w3.org/2000/svg">
<g style="mix-blend-mode:overlay" opacity="0.32">
<path d="M123.5 55L137.159 228H109.841L123.5 55Z" fill="url(#paint0_radial_986_7227)"/>
<path d="M123.5 55L202.679 209.076L177.504 219.776L123.5 55Z" fill="url(#paint1_radial_986_7227)"/>
<path d="M123.5 55L254.427 167.587L235.11 187.072L123.5 55Z" fill="url(#paint2_radial_986_7227)"/>
<path d="M123.5 55L287.491 107.471L277.191 132.994L123.5 55Z" fill="url(#paint3_radial_986_7227)"/>
<path d="M123.5 55L-48 68.7785L-48 41.2214L123.5 55Z" fill="url(#paint4_radial_986_7227)"/>
<path d="M123.5 55L-29.24 134.871L-39.8474 109.476L123.5 55Z" fill="url(#paint5_radial_986_7227)"/>
<path d="M123.5 55L11.8897 187.072L-7.42722 167.586L123.5 55Z" fill="url(#paint6_radial_986_7227)"/>
<path d="M123.5 55L71.4844 220.426L46.1826 210.035L123.5 55Z" fill="url(#paint7_radial_986_7227)"/>
<path d="M123.5 55L109.841 -118L137.159 -118L123.5 55Z" fill="url(#paint8_radial_986_7227)"/>
<path d="M123.5 55L44.3211 -99.076L69.4959 -109.776L123.5 55Z" fill="url(#paint9_radial_986_7227)"/>
<path d="M123.5 55L-7.42726 -57.5865L11.8896 -77.0724L123.5 55Z" fill="url(#paint10_radial_986_7227)"/>
<path d="M123.5 55L-40.4914 2.52939L-30.1907 -22.9937L123.5 55Z" fill="url(#paint11_radial_986_7227)"/>
<path d="M123.5 55L295 41.2214V68.7786L123.5 55Z" fill="url(#paint12_radial_986_7227)"/>
<path d="M123.5 55L276.24 -24.8713L286.847 0.523613L123.5 55Z" fill="url(#paint13_radial_986_7227)"/>
<path d="M123.5 55L235.11 -77.0723L254.427 -57.5865L123.5 55Z" fill="url(#paint14_radial_986_7227)"/>
<path d="M123.5 55L175.516 -110.426L200.817 -100.035L123.5 55Z" fill="url(#paint15_radial_986_7227)"/>
</g>
<defs>
<radialGradient id="paint0_radial_986_7227" cx="0" cy="0" r="1" gradientUnits="userSpaceOnUse" gradientTransform="translate(123.5 55) rotate(90) scale(173 171.5)">
<stop stop-color="currentColor"/>
<stop offset="1" stop-color="white" stop-opacity="0.02"/>
</radialGradient>
<radialGradient id="paint1_radial_986_7227" cx="0" cy="0" r="1" gradientUnits="userSpaceOnUse" gradientTransform="translate(123.5 55) rotate(90) scale(173 171.5)">
<stop stop-color="currentColor"/>
<stop offset="1" stop-color="white" stop-opacity="0.02"/>
</radialGradient>
<radialGradient id="paint2_radial_986_7227" cx="0" cy="0" r="1" gradientUnits="userSpaceOnUse" gradientTransform="translate(123.5 55) rotate(90) scale(173 171.5)">
<stop stop-color="currentColor"/>
<stop offset="1" stop-color="white" stop-opacity="0.02"/>
</radialGradient>
<radialGradient id="paint3_radial_986_7227" cx="0" cy="0" r="1" gradientUnits="userSpaceOnUse" gradientTransform="translate(123.5 55) rotate(90) scale(173 171.5)">
<stop stop-color="currentColor"/>
<stop offset="1" stop-color="white" stop-opacity="0.02"/>
</radialGradient>
<radialGradient id="paint4_radial_986_7227" cx="0" cy="0" r="1" gradientUnits="userSpaceOnUse" gradientTransform="translate(123.5 55) rotate(90) scale(173 171.5)">
<stop stop-color="currentColor"/>
<stop offset="1" stop-color="white" stop-opacity="0.02"/>
</radialGradient>
<radialGradient id="paint5_radial_986_7227" cx="0" cy="0" r="1" gradientUnits="userSpaceOnUse" gradientTransform="translate(123.5 55) rotate(90) scale(173 171.5)">
<stop stop-color="currentColor"/>
<stop offset="1" stop-color="white" stop-opacity="0.02"/>
</radialGradient>
<radialGradient id="paint6_radial_986_7227" cx="0" cy="0" r="1" gradientUnits="userSpaceOnUse" gradientTransform="translate(123.5 55) rotate(90) scale(173 171.5)">
<stop stop-color="currentColor"/>
<stop offset="1" stop-color="white" stop-opacity="0.02"/>
</radialGradient>
<radialGradient id="paint7_radial_986_7227" cx="0" cy="0" r="1" gradientUnits="userSpaceOnUse" gradientTransform="translate(123.5 55) rotate(90) scale(173 171.5)">
<stop stop-color="currentColor"/>
<stop offset="1" stop-color="white" stop-opacity="0.02"/>
</radialGradient>
<radialGradient id="paint8_radial_986_7227" cx="0" cy="0" r="1" gradientUnits="userSpaceOnUse" gradientTransform="translate(123.5 55) rotate(90) scale(173 171.5)">
<stop stop-color="currentColor"/>
<stop offset="1" stop-color="white" stop-opacity="0.02"/>
</radialGradient>
<radialGradient id="paint9_radial_986_7227" cx="0" cy="0" r="1" gradientUnits="userSpaceOnUse" gradientTransform="translate(123.5 55) rotate(90) scale(173 171.5)">
<stop stop-color="currentColor"/>
<stop offset="1" stop-color="white" stop-opacity="0.02"/>
</radialGradient>
<radialGradient id="paint10_radial_986_7227" cx="0" cy="0" r="1" gradientUnits="userSpaceOnUse" gradientTransform="translate(123.5 55) rotate(90) scale(173 171.5)">
<stop stop-color="currentColor"/>
<stop offset="1" stop-color="white" stop-opacity="0.02"/>
</radialGradient>
<radialGradient id="paint11_radial_986_7227" cx="0" cy="0" r="1" gradientUnits="userSpaceOnUse" gradientTransform="translate(123.5 55) rotate(90) scale(173 171.5)">
<stop stop-color="currentColor"/>
<stop offset="1" stop-color="white" stop-opacity="0.02"/>
</radialGradient>
<radialGradient id="paint12_radial_986_7227" cx="0" cy="0" r="1" gradientUnits="userSpaceOnUse" gradientTransform="translate(123.5 55) rotate(90) scale(173 171.5)">
<stop stop-color="currentColor"/>
<stop offset="1" stop-color="white" stop-opacity="0.02"/>
</radialGradient>
<radialGradient id="paint13_radial_986_7227" cx="0" cy="0" r="1" gradientUnits="userSpaceOnUse" gradientTransform="translate(123.5 55) rotate(90) scale(173 171.5)">
<stop stop-color="currentColor"/>
<stop offset="1" stop-color="white" stop-opacity="0.02"/>
</radialGradient>
<radialGradient id="paint14_radial_986_7227" cx="0" cy="0" r="1" gradientUnits="userSpaceOnUse" gradientTransform="translate(123.5 55) rotate(90) scale(173 171.5)">
<stop stop-color="currentColor"/>
<stop offset="1" stop-color="white" stop-opacity="0.02"/>
</radialGradient>
<radialGradient id="paint15_radial_986_7227" cx="0" cy="0" r="1" gradientUnits="userSpaceOnUse" gradientTransform="translate(123.5 55) rotate(90) scale(173 171.5)">
<stop stop-color="currentColor"/>
<stop offset="1" stop-color="white" stop-opacity="0.02"/>
</radialGradient>
</defs>
</svg>
