<svg viewBox="0 0 30 30" fill="none" xmlns="http://www.w3.org/2000/svg">
<rect width="30" height="30" rx="6" fill="url(#paint0_linear_605_6547)"/>
<rect width="30" height="30" rx="6" fill="#5256FF"/>
<rect x="0.7" y="0.7" width="28.6" height="28.6" rx="5.3" stroke="white" stroke-opacity="0.18" stroke-width="1.4"/>
<path d="M21.6584 9.36127L20.6346 8.33936C20.0863 7.79201 19.3548 7.5 18.5504 7.5C17.746 7.5 17.0148 7.79201 16.4662 8.33936L12.1521 12.6823C11.7499 13.0837 11.4941 13.6311 11.4941 14.2151C11.4941 14.7991 11.7135 15.3465 12.1521 15.748L13.4684 17.0621C13.6145 17.208 13.7974 17.2811 13.9803 17.2811C14.1631 17.2811 14.346 17.208 14.4921 17.0621C14.7847 16.7701 14.7847 16.3323 14.4921 16.0402L13.2123 14.7627C13.0662 14.6168 12.993 14.4343 12.993 14.2518C12.993 14.0692 13.0662 13.8867 13.2123 13.7408L17.5634 9.39766C17.8559 9.10565 18.2214 8.95978 18.5871 8.95978C18.9529 8.95978 19.3551 9.10565 19.6109 9.39766L20.6347 10.4196C20.9272 10.7116 21.0733 11.0764 21.0733 11.4415C21.0733 11.8066 20.9272 12.208 20.6347 12.4634L19.4281 13.6678C19.1355 13.9598 19.1355 14.3976 19.4281 14.6897C19.7206 14.9817 20.1593 14.9817 20.4518 14.6897L21.6584 13.4853C22.2068 12.9379 22.4993 12.2078 22.4993 11.4048C22.4996 10.6022 22.2435 9.90868 21.6584 9.36136L21.6584 9.36127Z" fill="#F7F7FF"/>
<path d="M16.5403 12.9379C16.2477 12.6459 15.8091 12.6459 15.5165 12.9379C15.224 13.2299 15.224 13.6678 15.5165 13.9598L16.2845 14.7264C16.8695 15.3104 16.8695 16.2228 16.2845 16.8068L12.4818 20.6388C12.1893 20.9308 11.8238 21.0767 11.458 21.0767C11.0923 21.0767 10.6901 20.9308 10.4343 20.6388L9.3738 19.6169C8.78874 19.0329 8.78874 18.1205 9.3738 17.5365L10.6536 16.2589C10.9462 15.9669 10.9462 15.5291 10.6536 15.237C10.3611 14.945 9.92244 14.945 9.62987 15.237L8.35004 16.5145C7.21665 17.6459 7.21665 19.5074 8.35004 20.6387L9.3738 21.6606C9.92214 22.208 10.6536 22.5 11.458 22.5C12.2624 22.5 12.9937 22.208 13.5422 21.6606L17.3814 17.8284C18.5148 16.6971 18.5148 14.8356 17.3814 13.7042L16.5403 12.9379Z" fill="#F7F7FF"/>
<defs>
<linearGradient id="paint0_linear_605_6547" x1="15" y1="0" x2="15" y2="30" gradientUnits="userSpaceOnUse">
<stop stop-color="#6A6EF9"/>
<stop offset="1" stop-color="#4245C8"/>
</linearGradient>
</defs>
</svg>
