<svg viewBox="0 0 22 22" fill="none" xmlns="http://www.w3.org/2000/svg">
<path fill-rule="evenodd" clip-rule="evenodd" d="M5.90156 7.6C5.90156 6.2474 6.43888 4.95019 7.39532 3.99376C8.35175 3.03732 9.64896 2.5 11.0016 2.5C12.3542 2.5 13.6514 3.03732 14.6078 3.99376C15.5642 4.95019 16.1016 6.2474 16.1016 7.6H16.9516C17.4024 7.6 17.8348 7.77911 18.1536 8.09792C18.4725 8.41673 18.6516 8.84913 18.6516 9.3V17.8C18.6516 18.2509 18.4725 18.6833 18.1536 19.0021C17.8348 19.3209 17.4024 19.5 16.9516 19.5H5.05156C4.60069 19.5 4.16829 19.3209 3.84948 19.0021C3.53067 18.6833 3.35156 18.2509 3.35156 17.8V9.3C3.35156 8.84913 3.53067 8.41673 3.84948 8.09792C4.16829 7.77911 4.60069 7.6 5.05156 7.6H5.90156ZM11.0016 4.2C11.9033 4.2 12.7681 4.55821 13.4057 5.19584C14.0433 5.83346 14.4016 6.69826 14.4016 7.6H7.60156C7.60156 6.69826 7.95978 5.83346 8.5974 5.19584C9.23502 4.55821 10.0998 4.2 11.0016 4.2ZM12.7016 12.7C12.7016 12.9984 12.623 13.2916 12.4738 13.55C12.3246 13.8084 12.11 14.023 11.8516 14.1722V15.25C11.8516 15.4754 11.762 15.6916 11.6026 15.851C11.4432 16.0104 11.227 16.1 11.0016 16.1C10.7761 16.1 10.5599 16.0104 10.4005 15.851C10.2411 15.6916 10.1516 15.4754 10.1516 15.25V14.1722C9.82749 13.9851 9.57422 13.6963 9.43102 13.3505C9.28783 13.0048 9.26271 12.6215 9.35956 12.26C9.45642 11.8985 9.66984 11.5791 9.96671 11.3513C10.2636 11.1235 10.6273 11 11.0016 11C11.4524 11 11.8848 11.1791 12.2036 11.4979C12.5225 11.8167 12.7016 12.2491 12.7016 12.7Z" fill="currentColor"/>
</svg>
