<svg viewBox="0 0 8 11" fill="none" xmlns="http://www.w3.org/2000/svg">
<path d="M1.05005 10.875C0.792215 10.875 0.571507 10.7832 0.387924 10.5996C0.20434 10.416 0.112549 10.1953 0.112549 9.9375V5.0125C0.112549 4.75467 0.20434 4.53396 0.387924 4.35038C0.571507 4.16679 0.792215 4.075 1.05005 4.075H1.58755V3.10263C1.58755 2.43004 1.82192 1.85938 2.29067 1.39062C2.75942 0.921875 3.32922 0.6875 4.00005 0.6875C4.67088 0.6875 5.24067 0.921875 5.70942 1.39062C6.17817 1.85938 6.41255 2.43004 6.41255 3.10263V4.075H6.95005C7.20788 4.075 7.42859 4.16679 7.61217 4.35038C7.79576 4.53396 7.88755 4.75467 7.88755 5.0125V9.9375C7.88755 10.1953 7.79576 10.416 7.61217 10.5996C7.42859 10.7832 7.20788 10.875 6.95005 10.875H1.05005ZM4.00005 8.4375C4.26472 8.4375 4.4913 8.34325 4.6798 8.15475C4.8683 7.96625 4.96255 7.73967 4.96255 7.475C4.96255 7.21033 4.8683 6.98375 4.6798 6.79525C4.4913 6.60675 4.26472 6.5125 4.00005 6.5125C3.73538 6.5125 3.5088 6.60675 3.3203 6.79525C3.1318 6.98375 3.03755 7.21033 3.03755 7.475C3.03755 7.73967 3.1318 7.96625 3.3203 8.15475C3.5088 8.34325 3.73538 8.4375 4.00005 8.4375ZM2.52505 4.075H5.47505V3.09812C5.47505 2.69104 5.3318 2.34375 5.0453 2.05625C4.7588 1.76875 4.41088 1.625 4.00155 1.625C3.59222 1.625 3.2438 1.76842 2.9563 2.05525C2.6688 2.342 2.52505 2.69025 2.52505 3.1V4.075Z" fill="currentColor"/>
</svg>
