<svg width="20" height="20" viewBox="0 0 20 20" fill="none" xmlns="http://www.w3.org/2000/svg">
<path fill-rule="evenodd" clip-rule="evenodd" d="M5 1.66675C4.33696 1.66675 3.70107 1.93014 3.23223 2.39898C2.76339 2.86782 2.5 3.50371 2.5 4.16675V15.8334C2.5 16.4965 2.76339 17.1323 3.23223 17.6012C3.70107 18.07 4.33696 18.3334 5 18.3334H10C10.663 18.3334 11.2989 18.07 11.7678 17.6012C12.2366 17.1323 12.5 16.4965 12.5 15.8334V4.16675C12.5 3.50371 12.2366 2.86782 11.7678 2.39898C11.2989 1.93014 10.663 1.66675 10 1.66675H5ZM13.5775 6.07758C13.7338 5.92136 13.9457 5.83359 14.1667 5.83359C14.3876 5.83359 14.5996 5.92136 14.7558 6.07758L18.0892 9.41091C18.2454 9.56719 18.3332 9.77911 18.3332 10.0001C18.3332 10.2211 18.2454 10.433 18.0892 10.5892L14.7558 13.9226C14.5987 14.0744 14.3882 14.1584 14.1697 14.1565C13.9512 14.1546 13.7422 14.0669 13.5877 13.9124C13.4331 13.7579 13.3455 13.5489 13.3436 13.3304C13.3417 13.1119 13.4257 12.9014 13.5775 12.7442L15.4883 10.8334H8.33333C8.11232 10.8334 7.90036 10.7456 7.74408 10.5893C7.5878 10.4331 7.5 10.2211 7.5 10.0001C7.5 9.77907 7.5878 9.56711 7.74408 9.41083C7.90036 9.25455 8.11232 9.16675 8.33333 9.16675H15.4883L13.5775 7.25591C13.4213 7.09964 13.3335 6.88772 13.3335 6.66675C13.3335 6.44578 13.4213 6.23385 13.5775 6.07758Z" fill="currentColor"/>
</svg>
