<svg viewBox="0 0 34 34" fill="none" xmlns="http://www.w3.org/2000/svg">
<path fill-rule="evenodd" clip-rule="evenodd" d="M2.31836 17C2.31836 14.9258 4.00074 13.2447 6.07494 13.2447H27.9255C29.9996 13.2447 31.682 14.9258 31.682 17V27.9253C31.682 29.9994 29.9997 31.6818 27.9255 31.6818H6.07494C4.00077 31.6818 2.31836 29.9994 2.31836 27.9253V17ZM13.2449 23.1457C13.2449 21.0715 14.926 19.3904 17.0002 19.3904C19.0744 19.3904 20.7555 21.0715 20.7555 23.1457C20.7555 25.2199 19.0744 26.901 17.0002 26.901C14.926 26.901 13.2449 25.2199 13.2449 23.1457ZM6.4155 17.6824C6.4155 17.1178 6.87513 16.6581 7.43978 16.6581H10.172C10.7367 16.6581 11.1963 17.1178 11.1963 17.6824C11.1963 18.2483 10.7367 18.7067 10.172 18.7067H7.43978C6.87513 18.7067 6.4155 18.2483 6.4155 17.6824ZM23.8283 26.2185C23.2637 26.2185 22.804 26.6769 22.804 27.2428C22.804 27.8088 23.2637 28.2671 23.8283 28.2671H26.5606C27.1252 28.2671 27.5849 27.8088 27.5849 27.2428C27.5849 26.6769 27.1252 26.2185 26.5606 26.2185H23.8283Z" fill="black"/>
<path fill-rule="evenodd" clip-rule="evenodd" d="M2.31836 17C2.31836 14.9258 4.00074 13.2447 6.07494 13.2447H27.9255C29.9996 13.2447 31.682 14.9258 31.682 17V27.9253C31.682 29.9994 29.9997 31.6818 27.9255 31.6818H6.07494C4.00077 31.6818 2.31836 29.9994 2.31836 27.9253V17ZM13.2449 23.1457C13.2449 21.0715 14.926 19.3904 17.0002 19.3904C19.0744 19.3904 20.7555 21.0715 20.7555 23.1457C20.7555 25.2199 19.0744 26.901 17.0002 26.901C14.926 26.901 13.2449 25.2199 13.2449 23.1457ZM6.4155 17.6824C6.4155 17.1178 6.87513 16.6581 7.43978 16.6581H10.172C10.7367 16.6581 11.1963 17.1178 11.1963 17.6824C11.1963 18.2483 10.7367 18.7067 10.172 18.7067H7.43978C6.87513 18.7067 6.4155 18.2483 6.4155 17.6824ZM23.8283 26.2185C23.2637 26.2185 22.804 26.6769 22.804 27.2428C22.804 27.8088 23.2637 28.2671 23.8283 28.2671H26.5606C27.1252 28.2671 27.5849 27.8088 27.5849 27.2428C27.5849 26.6769 27.1252 26.2185 26.5606 26.2185H23.8283Z" fill="#FFC420"/>
<path fill-rule="evenodd" clip-rule="evenodd" d="M2.31836 17C2.31836 14.9258 4.00074 13.2447 6.07494 13.2447H27.9255C29.9996 13.2447 31.682 14.9258 31.682 17V27.9253C31.682 29.9994 29.9997 31.6818 27.9255 31.6818H6.07494C4.00077 31.6818 2.31836 29.9994 2.31836 27.9253V17ZM13.2449 23.1457C13.2449 21.0715 14.926 19.3904 17.0002 19.3904C19.0744 19.3904 20.7555 21.0715 20.7555 23.1457C20.7555 25.2199 19.0744 26.901 17.0002 26.901C14.926 26.901 13.2449 25.2199 13.2449 23.1457ZM6.4155 17.6824C6.4155 17.1178 6.87513 16.6581 7.43978 16.6581H10.172C10.7367 16.6581 11.1963 17.1178 11.1963 17.6824C11.1963 18.2483 10.7367 18.7067 10.172 18.7067H7.43978C6.87513 18.7067 6.4155 18.2483 6.4155 17.6824ZM23.8283 26.2185C23.2637 26.2185 22.804 26.6769 22.804 27.2428C22.804 27.8088 23.2637 28.2671 23.8283 28.2671H26.5606C27.1252 28.2671 27.5849 27.8088 27.5849 27.2428C27.5849 26.6769 27.1252 26.2185 26.5606 26.2185H23.8283Z" fill="url(#paint0_radial_1215_9819)" style="mix-blend-mode:multiply"/>
<path fill-rule="evenodd" clip-rule="evenodd" d="M2.31836 17C2.31836 14.9258 4.00074 13.2447 6.07494 13.2447H27.9255C29.9996 13.2447 31.682 14.9258 31.682 17V27.9253C31.682 29.9994 29.9997 31.6818 27.9255 31.6818H6.07494C4.00077 31.6818 2.31836 29.9994 2.31836 27.9253V17ZM13.2449 23.1457C13.2449 21.0715 14.926 19.3904 17.0002 19.3904C19.0744 19.3904 20.7555 21.0715 20.7555 23.1457C20.7555 25.2199 19.0744 26.901 17.0002 26.901C14.926 26.901 13.2449 25.2199 13.2449 23.1457ZM6.4155 17.6824C6.4155 17.1178 6.87513 16.6581 7.43978 16.6581H10.172C10.7367 16.6581 11.1963 17.1178 11.1963 17.6824C11.1963 18.2483 10.7367 18.7067 10.172 18.7067H7.43978C6.87513 18.7067 6.4155 18.2483 6.4155 17.6824ZM23.8283 26.2185C23.2637 26.2185 22.804 26.6769 22.804 27.2428C22.804 27.8088 23.2637 28.2671 23.8283 28.2671H26.5606C27.1252 28.2671 27.5849 27.8088 27.5849 27.2428C27.5849 26.6769 27.1252 26.2185 26.5606 26.2185H23.8283Z" fill="url(#paint1_radial_1215_9819)" style="mix-blend-mode:screen"/>
<path fill-rule="evenodd" clip-rule="evenodd" d="M8.08142 10.8953C8.48218 11.296 9.13002 11.296 9.53079 10.8953L12.2618 8.16428C12.6613 7.7648 12.6613 7.11568 12.2618 6.71619C11.8623 6.31543 11.2132 6.31543 10.8137 6.71619L8.80609 8.72251L6.79849 6.71619C6.399 6.31543 5.74988 6.31543 5.3504 6.71619C4.95091 7.11568 4.95091 7.7648 5.3504 8.16428L8.08142 10.8953Z" fill="black"/>
<path fill-rule="evenodd" clip-rule="evenodd" d="M8.08142 10.8953C8.48218 11.296 9.13002 11.296 9.53079 10.8953L12.2618 8.16428C12.6613 7.7648 12.6613 7.11568 12.2618 6.71619C11.8623 6.31543 11.2132 6.31543 10.8137 6.71619L8.80609 8.72251L6.79849 6.71619C6.399 6.31543 5.74988 6.31543 5.3504 6.71619C4.95091 7.11568 4.95091 7.7648 5.3504 8.16428L8.08142 10.8953Z" fill="#FFC420"/>
<path fill-rule="evenodd" clip-rule="evenodd" d="M8.08142 10.8953C8.48218 11.296 9.13002 11.296 9.53079 10.8953L12.2618 8.16428C12.6613 7.7648 12.6613 7.11568 12.2618 6.71619C11.8623 6.31543 11.2132 6.31543 10.8137 6.71619L8.80609 8.72251L6.79849 6.71619C6.399 6.31543 5.74988 6.31543 5.3504 6.71619C4.95091 7.11568 4.95091 7.7648 5.3504 8.16428L8.08142 10.8953Z" fill="url(#paint2_radial_1215_9819)" style="mix-blend-mode:multiply"/>
<path fill-rule="evenodd" clip-rule="evenodd" d="M8.08142 10.8953C8.48218 11.296 9.13002 11.296 9.53079 10.8953L12.2618 8.16428C12.6613 7.7648 12.6613 7.11568 12.2618 6.71619C11.8623 6.31543 11.2132 6.31543 10.8137 6.71619L8.80609 8.72251L6.79849 6.71619C6.399 6.31543 5.74988 6.31543 5.3504 6.71619C4.95091 7.11568 4.95091 7.7648 5.3504 8.16428L8.08142 10.8953Z" fill="url(#paint3_radial_1215_9819)" style="mix-blend-mode:screen"/>
<path fill-rule="evenodd" clip-rule="evenodd" d="M8.80553 11.1962C9.37146 11.1962 9.82982 10.7366 9.82982 10.1719V3.34249C9.82982 2.77784 9.37146 2.31821 8.80553 2.31821C8.2396 2.31821 7.78125 2.77784 7.78125 3.34249V10.1719C7.78125 10.7366 8.2396 11.1962 8.80553 11.1962Z" fill="black"/>
<path fill-rule="evenodd" clip-rule="evenodd" d="M8.80553 11.1962C9.37146 11.1962 9.82982 10.7366 9.82982 10.1719V3.34249C9.82982 2.77784 9.37146 2.31821 8.80553 2.31821C8.2396 2.31821 7.78125 2.77784 7.78125 3.34249V10.1719C7.78125 10.7366 8.2396 11.1962 8.80553 11.1962Z" fill="#FFC420"/>
<path fill-rule="evenodd" clip-rule="evenodd" d="M8.80553 11.1962C9.37146 11.1962 9.82982 10.7366 9.82982 10.1719V3.34249C9.82982 2.77784 9.37146 2.31821 8.80553 2.31821C8.2396 2.31821 7.78125 2.77784 7.78125 3.34249V10.1719C7.78125 10.7366 8.2396 11.1962 8.80553 11.1962Z" fill="url(#paint4_radial_1215_9819)" style="mix-blend-mode:multiply"/>
<path fill-rule="evenodd" clip-rule="evenodd" d="M8.80553 11.1962C9.37146 11.1962 9.82982 10.7366 9.82982 10.1719V3.34249C9.82982 2.77784 9.37146 2.31821 8.80553 2.31821C8.2396 2.31821 7.78125 2.77784 7.78125 3.34249V10.1719C7.78125 10.7366 8.2396 11.1962 8.80553 11.1962Z" fill="url(#paint5_radial_1215_9819)" style="mix-blend-mode:screen"/>
<defs>
<radialGradient id="paint0_radial_1215_9819" cx="0" cy="0" r="1" gradientUnits="userSpaceOnUse" gradientTransform="translate(29.206 10.0841) rotate(110.586) scale(13.1182 14.7364)">
<stop stop-color="#F2B03B"/>
<stop offset="1" stop-color="#F2B03B" stop-opacity="0"/>
</radialGradient>
<radialGradient id="paint1_radial_1215_9819" cx="0" cy="0" r="1" gradientUnits="userSpaceOnUse" gradientTransform="translate(6.04912 12.3827) rotate(-61.4297) scale(12.1053 6.58746)">
<stop stop-color="#FFBF4A"/>
<stop offset="1" stop-color="#EAA730" stop-opacity="0"/>
</radialGradient>
<radialGradient id="paint2_radial_1215_9819" cx="0" cy="0" r="1" gradientUnits="userSpaceOnUse" gradientTransform="translate(11.9281 5.59615) rotate(110.332) scale(3.39556 3.77551)">
<stop stop-color="#F2B03B"/>
<stop offset="1" stop-color="#F2B03B" stop-opacity="0"/>
</radialGradient>
<radialGradient id="paint3_radial_1215_9819" cx="0" cy="0" r="1" gradientUnits="userSpaceOnUse" gradientTransform="translate(6.00503 6.19213) rotate(-61.7549) scale(3.12895 1.69011)">
<stop stop-color="#FFBF4A"/>
<stop offset="1" stop-color="#EAA730" stop-opacity="0"/>
</radialGradient>
<radialGradient id="paint4_radial_1215_9819" cx="0" cy="0" r="1" gradientUnits="userSpaceOnUse" gradientTransform="translate(9.65708 0.796263) rotate(93.1149) scale(5.92219 1.0966)">
<stop stop-color="#F2B03B"/>
<stop offset="1" stop-color="#F2B03B" stop-opacity="0"/>
</radialGradient>
<radialGradient id="paint5_radial_1215_9819" cx="0" cy="0" r="1" gradientUnits="userSpaceOnUse" gradientTransform="translate(8.04153 1.90313) rotate(-85.489) scale(5.13517 0.521677)">
<stop stop-color="#FFBF4A"/>
<stop offset="1" stop-color="#EAA730" stop-opacity="0"/>
</radialGradient>
</defs>
</svg>
