<svg width="16" height="16" viewBox="0 0 16 16" fill="none" xmlns="http://www.w3.org/2000/svg">
<path d="M13.8328 0.5H2.16618C1.72415 0.5 1.30023 0.675595 0.987667 0.988155C0.675106 1.30072 0.499512 1.72464 0.499512 2.16667V13.8333C0.499512 14.2754 0.675106 14.6993 0.987667 15.0118C1.30023 15.3244 1.72415 15.5 2.16618 15.5H13.8328C14.2749 15.5 14.6988 15.3244 15.0114 15.0118C15.3239 14.6993 15.4995 14.2754 15.4995 13.8333V2.16667C15.4995 1.72464 15.3239 1.30072 15.0114 0.988155C14.6988 0.675595 14.2749 0.5 13.8328 0.5ZM10.9995 12.1667L7.99951 9.16667L4.99951 12.1667L3.83284 11L6.83285 8L3.83284 5L4.99951 3.83333L7.99951 6.83333L10.9995 3.83333L12.1662 5L9.16618 8L12.1662 11L10.9995 12.1667Z" fill="url(#paint0_linear_1268_7012)"/>
<defs>
<linearGradient id="paint0_linear_1268_7012" x1="7.99951" y1="0.5" x2="7.99951" y2="15.5" gradientUnits="userSpaceOnUse">
<stop stop-color="#6A6EF9"/>
<stop offset="1" stop-color="#4245C8"/>
</linearGradient>
</defs>
</svg>
