<svg width="17" height="17" viewBox="0 0 17 17" fill="none" xmlns="http://www.w3.org/2000/svg">
<path d="M8.66658 13.7499C8.66658 12.0833 9.58325 10.5833 10.9166 9.83325C9.83325 9.41658 8.49992 9.16658 6.99992 9.16658C3.33325 9.16658 0.333252 10.6666 0.333252 12.4999V14.1666H8.66658V13.7499ZM13.2499 10.8333C11.6666 10.8333 10.3333 12.1666 10.3333 13.7499C10.3333 15.3333 11.6666 16.6666 13.2499 16.6666C14.8333 16.6666 16.1666 15.3333 16.1666 13.7499C16.1666 12.1666 14.8333 10.8333 13.2499 10.8333ZM10.3333 4.16659C10.3333 5.99992 8.83325 7.49992 6.99992 7.49992C5.16658 7.49992 3.66659 5.99992 3.66659 4.16659C3.66659 2.33325 5.16658 0.833252 6.99992 0.833252C8.83325 0.833252 10.3333 2.33325 10.3333 4.16659Z" fill="#329C13"/>
</svg>
