<svg width="20" height="20" viewBox="0 0 20 20" fill="none" xmlns="http://www.w3.org/2000/svg">
<mask id="mask0_1214_9960" style="mask-type:alpha" maskUnits="userSpaceOnUse" x="0" y="0" width="20" height="20">
<rect width="20" height="20" fill="#D9D9D9"/>
</mask>
<g mask="url(#mask0_1214_9960)">
<path d="M4.98958 14.2396C5.71181 13.7049 6.49132 13.2882 7.32812 12.9896C8.16493 12.691 9.05556 12.5417 10 12.5417C10.9444 12.5417 11.8351 12.691 12.6719 12.9896C13.5087 13.2882 14.2882 13.7049 15.0104 14.2396C15.5174 13.6493 15.9028 12.9973 16.1667 12.2835C16.4306 11.5699 16.5625 10.8083 16.5625 9.99854C16.5625 8.17312 15.9253 6.62326 14.651 5.34896C13.3767 4.07465 11.8264 3.4375 10 3.4375C8.17361 3.4375 6.62326 4.07465 5.34896 5.34896C4.07465 6.62326 3.4375 8.17312 3.4375 9.99854C3.4375 10.8083 3.56944 11.5699 3.83333 12.2835C4.09722 12.9973 4.48264 13.6493 4.98958 14.2396ZM10.0023 10.7917C9.19521 10.7917 8.51389 10.5147 7.95833 9.96062C7.40278 9.4066 7.125 8.72604 7.125 7.91896C7.125 7.11187 7.40201 6.43056 7.95604 5.875C8.51007 5.31944 9.19063 5.04167 9.99771 5.04167C10.8048 5.04167 11.4861 5.31868 12.0417 5.87271C12.5972 6.42674 12.875 7.10729 12.875 7.91438C12.875 8.72146 12.598 9.40278 12.044 9.95833C11.4899 10.5139 10.8094 10.7917 10.0023 10.7917ZM10 18.125C8.87625 18.125 7.82021 17.9114 6.83187 17.4842C5.84368 17.0568 4.98403 16.4769 4.25292 15.7446C3.52181 15.0121 2.94271 14.1522 2.51562 13.1648C2.08854 12.1776 1.875 11.1226 1.875 10C1.875 8.87625 2.08861 7.82021 2.51583 6.83187C2.94319 5.84368 3.52306 4.98403 4.25542 4.25292C4.98792 3.52181 5.84785 2.94271 6.83521 2.51562C7.82243 2.08854 8.87736 1.875 10 1.875C11.1237 1.875 12.1798 2.08861 13.1681 2.51583C14.1563 2.94319 15.016 3.52306 15.7471 4.25542C16.4782 4.98792 17.0573 5.84785 17.4844 6.83521C17.9115 7.82243 18.125 8.87736 18.125 10C18.125 11.1237 17.9114 12.1798 17.4842 13.1681C17.0568 14.1563 16.4769 15.016 15.7446 15.7471C15.0121 16.4782 14.1522 17.0573 13.1648 17.4844C12.1776 17.9115 11.1226 18.125 10 18.125Z" fill="#A8ADBE"/>
</g>
</svg>
