<svg xmlns="http://www.w3.org/2000/svg" width="20" height="20" viewBox="0 0 20 20" fill="none"><path d="M10.0003 13.1249L10.8753 13.9999L9.25031 15.6249H14.3753V16.8749H9.25031L10.8753 18.4999L10.0003 19.3749L6.87531 16.2499L10.0003 13.1249ZM4.53906 14.5768L9.53281 9.58301L10.4172 10.4668L5.42344 15.4605L4.53906 14.5768Z" fill="currentColor"></path><path d="M14.375 13.75H13.125V10.625C13.125 10.4375 13.1875 10.3125 13.3125 10.1875L15.875 7.625C16.9375 6.5625 17.5 5.125 17.5 3.625V2.5H16.3125C14.8125 2.5 13.375 3.0625 12.3125 4.125L9.75004 6.6875C9.68754 6.8125 9.56254 6.875 9.37504 6.875H4.68754L3.06254 8.9375L6.37504 9.4375L6.18754 10.6875L1.81254 10.0625C1.56254 10 1.37504 9.875 1.31254 9.6875C1.25004 9.5 1.25004 9.25 1.37504 9.0625L3.87504 5.9375C4.00004 5.6875 4.18754 5.625 4.37504 5.625H9.12504L11.5 3.25C12.75 1.9375 14.5 1.25 16.3125 1.25H17.5C18.1875 1.25 18.75 1.8125 18.75 2.5V3.6875C18.75 5.5 18.0625 7.25 16.75 8.5625L14.375 10.875V13.75Z" fill="currentColor"></path></svg>