<svg viewBox="0 0 20 20" fill="none" xmlns="http://www.w3.org/2000/svg">
<path d="M17.9479 5.68709H13.2379C13.4741 5.59361 13.724 5.48982 13.9923 5.37316C14.555 5.12842 15.3036 4.72138 15.3091 4.01219C15.3169 3.09728 14.1311 2.55812 12.4897 1.81213L12.4367 1.7882C12.1849 1.67375 11.9362 1.61597 11.6962 1.61597C10.8564 1.61597 10.3301 2.26259 9.99996 3.06011C9.66984 2.26259 9.14356 1.61597 8.30372 1.61597C8.06377 1.61597 7.81461 1.67375 7.56325 1.7882L7.51026 1.81213C5.86885 2.55812 4.68307 3.09691 4.69043 4.01219C4.69632 4.72138 5.44489 5.12879 6.00723 5.37316C6.27552 5.48982 6.52578 5.59361 6.76169 5.68709H2.05204C1.74695 5.68709 1.5 5.93403 1.5 6.23913V9.46709H9.44792V6.23913C9.44792 5.93403 9.69487 5.68709 9.99996 5.68709C10.3047 5.68709 10.552 5.93403 10.552 6.23913V9.46709H18.4999V6.23913C18.4999 5.9344 18.2526 5.68709 17.9479 5.68709Z" fill="#A8ADBD" fill-opacity="0.6"/>
<path d="M10.5519 18.384H16.564C16.8688 18.384 17.1161 18.1367 17.1161 17.832V10.5715H10.5519V18.384Z" fill="#5256FF"/>
<path d="M2.88379 17.8322C2.88379 18.1369 3.13074 18.3843 3.43583 18.3843H9.44829V10.5718H2.88379V17.8322Z" fill="#5256FF"/>
</svg>
