<svg viewBox="0 0 22 22" fill="none" xmlns="http://www.w3.org/2000/svg">
<path fill-rule="evenodd" clip-rule="evenodd" d="M10.9993 0.166687C16.9824 0.166687 21.8327 5.01691 21.8327 11C21.8327 16.9831 16.9824 21.8334 10.9993 21.8334C5.01629 21.8334 0.166016 16.9831 0.166016 11C0.166016 5.01691 5.01629 0.166687 10.9993 0.166687ZM10.9993 14.5209C10.2514 14.5209 9.6451 15.1271 9.6451 15.875C9.6451 16.6229 10.2514 17.2292 10.9993 17.2292C11.7471 17.2292 12.3535 16.6229 12.3535 15.875C12.3535 15.1271 11.7471 14.5209 10.9993 14.5209M10.8185 4.90635C9.76403 4.90635 8.87774 5.19362 8.16071 5.76659C7.31104 6.45295 6.88656 7.46654 6.88656 8.80828H9.1901V8.79285C9.1901 8.28092 9.29791 7.86101 9.51307 7.53347C9.80988 7.0932 10.2914 6.87281 10.957 6.87281C11.3667 6.87281 11.7153 6.98036 12.0016 7.19507C12.3598 7.49254 12.5395 7.94282 12.5395 8.54707C12.5395 8.92605 12.4469 9.26379 12.2628 9.56096C12.1092 9.82716 11.8634 10.0881 11.525 10.3443C10.8083 10.8358 10.3422 11.3223 10.1275 11.8039C9.94313 12.2032 9.85051 12.8381 9.85051 13.7084H12.0171C12.0171 13.1347 12.0933 12.7049 12.2476 12.418C12.3703 12.1825 12.6266 11.9318 13.0158 11.6653C13.692 11.1634 14.1729 10.6972 14.4598 10.2671C14.8078 9.75525 14.9823 9.15598 14.9823 8.46962C14.9823 7.04724 14.4038 6.03832 13.2458 5.44408C12.5498 5.08571 11.7407 4.90625 10.8186 4.90625" fill="currentColor"/>
</svg>
