<svg viewBox="0 0 20 20" fill="none" xmlns="http://www.w3.org/2000/svg">
<path d="M19.3336 12.3328L18.0519 10.9117L16.6312 12.1933C16.4711 12.3379 16.4582 12.5847 16.6027 12.7449C16.7472 12.9054 16.9941 12.9179 17.1546 12.7734L17.6125 12.3605C17.0902 15.9816 13.7804 18.5781 10.1125 18.1883C9.89801 18.1648 9.70582 18.3207 9.68278 18.5351C9.66012 18.75 9.81559 18.9422 10.03 18.9648C10.3027 18.9941 10.5738 19.0082 10.8425 19.0082C14.6019 19.0082 17.8547 16.2273 18.3886 12.4515L18.7535 12.8558C18.8304 12.9414 18.9371 12.9851 19.0437 12.9851C19.1371 12.9851 19.2304 12.9519 19.305 12.8843C19.4652 12.7398 19.4781 12.4929 19.3336 12.3328Z" fill="currentColor"/>
<path d="M10.4879 10.0195V10.4102H18.691V10.0195C18.691 8.12539 17.4004 6.52695 15.6523 6.05782C16.4339 5.6668 16.9722 4.85781 16.9722 3.92578C16.9722 2.61171 15.9031 1.54297 14.5894 1.54297C13.2754 1.54297 12.2066 2.61171 12.2066 3.92578C12.2066 4.85781 12.7445 5.66641 13.5261 6.05782C11.7781 6.52735 10.4879 8.12539 10.4879 10.0195Z" fill="currentColor"/>
<path d="M11.3117 2.46284L10.0613 1.0144C9.92027 0.85112 9.67379 0.832761 9.51051 0.973772C9.34723 1.11479 9.32887 1.36166 9.46988 1.52495L9.80582 1.91401C5.68473 1.60932 2.04528 4.66557 1.65192 8.79838C1.63161 9.01323 1.78903 9.20386 2.00387 9.22455C2.01637 9.22573 2.02887 9.22612 2.04137 9.22612C2.24059 9.22612 2.41051 9.07456 2.43004 8.87261C2.78551 5.13197 6.10387 2.37378 9.84059 2.70073L9.3527 3.12182C9.18942 3.26284 9.17145 3.50932 9.31246 3.6726C9.38981 3.76206 9.49879 3.80815 9.60817 3.80815C9.69879 3.80815 9.78981 3.7769 9.86325 3.71323L11.3117 2.46284Z" fill="currentColor"/>
<path d="M5.73043 14.7688C6.51207 14.3777 7.05035 13.5687 7.05035 12.6367C7.05035 11.3227 5.98121 10.2539 4.66754 10.2539C3.35348 10.2539 2.28473 11.3227 2.28473 12.6367C2.28473 13.5687 2.82262 14.3773 3.60426 14.7688C1.85621 15.2383 0.565979 16.8363 0.565979 18.7305V19.1211H8.7691V18.7305C8.7691 16.8363 7.47848 15.2379 5.73043 14.7688Z" fill="currentColor"/>
</svg>
