<svg viewBox="0 0 34 34" fill="none" xmlns="http://www.w3.org/2000/svg">
<path d="M32.3689 19.4147C32.3689 15.9807 26.4189 13.1588 18.8029 12.8528V12.9547L18.9049 13.6347C22.9169 13.8727 26.3509 14.8588 28.2209 16.2528C29.2069 17.0008 29.7849 17.8167 29.7849 18.7347C29.7849 19.1087 29.6829 19.4488 29.5129 19.7888C29.2409 20.2987 28.7989 20.7748 28.1869 21.2168C26.0449 22.7808 21.9309 23.8347 17.2049 23.8347C12.4789 23.8347 8.36486 22.7808 6.22286 21.2168C5.61086 20.7748 5.16886 20.2987 4.89686 19.7888C4.72686 19.4488 4.62486 19.0747 4.62486 18.7347C4.62486 18.0207 4.99886 17.3407 5.64486 16.6947C7.34486 15.0627 11.0509 13.8727 15.5049 13.6347L15.6069 12.8868C8.26286 13.2948 2.55086 16.0487 2.55086 19.4147C2.55086 19.5847 2.58486 19.7547 2.58486 19.9247C2.65286 20.3667 2.82286 20.7748 3.09486 21.1828C3.09486 21.1828 3.09486 21.2168 3.12886 21.2168C4.89686 23.9708 10.6429 25.9768 17.4429 25.9768C22.6449 25.9768 27.2009 24.8207 29.8529 23.0188C27.3369 25.2627 22.3049 26.7587 16.4909 26.7587C9.99686 26.7587 4.48886 24.8548 2.38086 22.2028C3.16286 26.0108 9.55486 28.9688 17.3069 28.9688C25.6029 28.9688 32.3349 25.6027 32.3349 21.4207C32.3349 21.3527 32.3349 21.2848 32.3349 21.1828V19.7547H32.3009C32.3689 19.6867 32.3689 19.5507 32.3689 19.4147Z" fill="#FFC420"/>
<path d="M32.3689 19.4147C32.3689 15.9807 26.4189 13.1588 18.8029 12.8528V12.9547L18.9049 13.6347C22.9169 13.8727 26.3509 14.8588 28.2209 16.2528C29.2069 17.0008 29.7849 17.8167 29.7849 18.7347C29.7849 19.1087 29.6829 19.4488 29.5129 19.7888C29.2409 20.2987 28.7989 20.7748 28.1869 21.2168C26.0449 22.7808 21.9309 23.8347 17.2049 23.8347C12.4789 23.8347 8.36486 22.7808 6.22286 21.2168C5.61086 20.7748 5.16886 20.2987 4.89686 19.7888C4.72686 19.4488 4.62486 19.0747 4.62486 18.7347C4.62486 18.0207 4.99886 17.3407 5.64486 16.6947C7.34486 15.0627 11.0509 13.8727 15.5049 13.6347L15.6069 12.8868C8.26286 13.2948 2.55086 16.0487 2.55086 19.4147C2.55086 19.5847 2.58486 19.7547 2.58486 19.9247C2.65286 20.3667 2.82286 20.7748 3.09486 21.1828C3.09486 21.1828 3.09486 21.2168 3.12886 21.2168C4.89686 23.9708 10.6429 25.9768 17.4429 25.9768C22.6449 25.9768 27.2009 24.8207 29.8529 23.0188C27.3369 25.2627 22.3049 26.7587 16.4909 26.7587C9.99686 26.7587 4.48886 24.8548 2.38086 22.2028C3.16286 26.0108 9.55486 28.9688 17.3069 28.9688C25.6029 28.9688 32.3349 25.6027 32.3349 21.4207C32.3349 21.3527 32.3349 21.2848 32.3349 21.1828V19.7547H32.3009C32.3689 19.6867 32.3689 19.5507 32.3689 19.4147Z" fill="url(#paint0_radial_1215_9791)" style="mix-blend-mode:multiply"/>
<path d="M32.3689 19.4147C32.3689 15.9807 26.4189 13.1588 18.8029 12.8528V12.9547L18.9049 13.6347C22.9169 13.8727 26.3509 14.8588 28.2209 16.2528C29.2069 17.0008 29.7849 17.8167 29.7849 18.7347C29.7849 19.1087 29.6829 19.4488 29.5129 19.7888C29.2409 20.2987 28.7989 20.7748 28.1869 21.2168C26.0449 22.7808 21.9309 23.8347 17.2049 23.8347C12.4789 23.8347 8.36486 22.7808 6.22286 21.2168C5.61086 20.7748 5.16886 20.2987 4.89686 19.7888C4.72686 19.4488 4.62486 19.0747 4.62486 18.7347C4.62486 18.0207 4.99886 17.3407 5.64486 16.6947C7.34486 15.0627 11.0509 13.8727 15.5049 13.6347L15.6069 12.8868C8.26286 13.2948 2.55086 16.0487 2.55086 19.4147C2.55086 19.5847 2.58486 19.7547 2.58486 19.9247C2.65286 20.3667 2.82286 20.7748 3.09486 21.1828C3.09486 21.1828 3.09486 21.2168 3.12886 21.2168C4.89686 23.9708 10.6429 25.9768 17.4429 25.9768C22.6449 25.9768 27.2009 24.8207 29.8529 23.0188C27.3369 25.2627 22.3049 26.7587 16.4909 26.7587C9.99686 26.7587 4.48886 24.8548 2.38086 22.2028C3.16286 26.0108 9.55486 28.9688 17.3069 28.9688C25.6029 28.9688 32.3349 25.6027 32.3349 21.4207C32.3349 21.3527 32.3349 21.2848 32.3349 21.1828V19.7547H32.3009C32.3689 19.6867 32.3689 19.5507 32.3689 19.4147Z" fill="url(#paint1_radial_1215_9791)" style="mix-blend-mode:screen"/>
<path d="M19.0749 14.5527L19.5849 18.0887C19.5849 18.8367 17.6469 19.2107 17.2389 19.2107C16.8309 19.2107 14.8929 18.8367 14.8929 18.1227L15.4029 14.5527C11.7649 14.8927 9.04492 16.2527 9.04492 17.8507C9.04492 18.5647 9.58892 19.2447 10.5409 19.7887C12.0369 20.6387 14.4849 21.2168 17.2389 21.2168C19.9929 21.2168 22.4409 20.6387 23.9369 19.7887C24.8889 19.2447 25.4329 18.5647 25.4329 17.8507C25.4329 16.2527 22.7129 14.8927 19.0749 14.5527Z" fill="#FFC420"/>
<path d="M19.0749 14.5527L19.5849 18.0887C19.5849 18.8367 17.6469 19.2107 17.2389 19.2107C16.8309 19.2107 14.8929 18.8367 14.8929 18.1227L15.4029 14.5527C11.7649 14.8927 9.04492 16.2527 9.04492 17.8507C9.04492 18.5647 9.58892 19.2447 10.5409 19.7887C12.0369 20.6387 14.4849 21.2168 17.2389 21.2168C19.9929 21.2168 22.4409 20.6387 23.9369 19.7887C24.8889 19.2447 25.4329 18.5647 25.4329 17.8507C25.4329 16.2527 22.7129 14.8927 19.0749 14.5527Z" fill="url(#paint2_radial_1215_9791)" style="mix-blend-mode:multiply"/>
<path d="M19.0749 14.5527L19.5849 18.0887C19.5849 18.8367 17.6469 19.2107 17.2389 19.2107C16.8309 19.2107 14.8929 18.8367 14.8929 18.1227L15.4029 14.5527C11.7649 14.8927 9.04492 16.2527 9.04492 17.8507C9.04492 18.5647 9.58892 19.2447 10.5409 19.7887C12.0369 20.6387 14.4849 21.2168 17.2389 21.2168C19.9929 21.2168 22.4409 20.6387 23.9369 19.7887C24.8889 19.2447 25.4329 18.5647 25.4329 17.8507C25.4329 16.2527 22.7129 14.8927 19.0749 14.5527Z" fill="url(#paint3_radial_1215_9791)" style="mix-blend-mode:screen"/>
<path d="M12.2072 12.3087C12.5472 12.3087 12.8192 12.1727 13.0572 11.9687H15.7772H15.9472H16.1172L15.9812 12.8867L15.8792 13.6347L15.8452 13.9407L15.7432 14.5527L15.2332 18.1907C15.2332 18.4627 16.6272 18.9047 17.2392 18.9047C17.8512 18.9047 19.2452 18.4627 19.2452 18.1567L18.7352 14.5527L18.6332 13.9407L18.5992 13.6347L18.4972 12.9547V12.8867L18.3612 12.0027H18.5312H18.7012H21.7612C21.9992 12.2067 22.2712 12.3427 22.6112 12.3427C23.2912 12.3427 23.8692 11.7647 23.8692 11.0847C23.8692 10.4047 23.2912 9.82674 22.6112 9.82674C22.2712 9.82674 21.9992 9.96274 21.7612 10.1667H18.4292H18.2592H18.0892L18.0212 9.69073C18.0892 9.65673 18.1232 9.65674 18.1912 9.62274C18.2592 9.58874 18.2932 9.58873 18.3612 9.55473C19.1432 9.14673 19.6532 8.36474 19.6532 7.41274C19.6532 6.08674 18.5652 4.99873 17.2392 4.99873C15.9132 4.99873 14.8252 6.08674 14.8252 7.41274C14.8252 8.33074 15.3692 9.14673 16.1172 9.55473C16.1852 9.58873 16.2192 9.62274 16.2872 9.62274C16.3552 9.65674 16.3892 9.65673 16.4572 9.69073L16.3892 10.1667H16.2192H16.0492H13.0572C12.8192 9.96274 12.5472 9.82674 12.2072 9.82674C11.5272 9.82674 10.9492 10.4047 10.9492 11.0847C10.9492 11.7307 11.5272 12.3087 12.2072 12.3087ZM18.8032 7.17473C18.8032 7.17473 18.6672 6.86873 18.0892 6.35873C17.7832 6.05273 17.2392 5.74674 17.2392 5.74674C18.7692 5.81474 18.8032 7.17473 18.8032 7.17473Z" fill="#FFC420"/>
<path d="M12.2072 12.3087C12.5472 12.3087 12.8192 12.1727 13.0572 11.9687H15.7772H15.9472H16.1172L15.9812 12.8867L15.8792 13.6347L15.8452 13.9407L15.7432 14.5527L15.2332 18.1907C15.2332 18.4627 16.6272 18.9047 17.2392 18.9047C17.8512 18.9047 19.2452 18.4627 19.2452 18.1567L18.7352 14.5527L18.6332 13.9407L18.5992 13.6347L18.4972 12.9547V12.8867L18.3612 12.0027H18.5312H18.7012H21.7612C21.9992 12.2067 22.2712 12.3427 22.6112 12.3427C23.2912 12.3427 23.8692 11.7647 23.8692 11.0847C23.8692 10.4047 23.2912 9.82674 22.6112 9.82674C22.2712 9.82674 21.9992 9.96274 21.7612 10.1667H18.4292H18.2592H18.0892L18.0212 9.69073C18.0892 9.65673 18.1232 9.65674 18.1912 9.62274C18.2592 9.58874 18.2932 9.58873 18.3612 9.55473C19.1432 9.14673 19.6532 8.36474 19.6532 7.41274C19.6532 6.08674 18.5652 4.99873 17.2392 4.99873C15.9132 4.99873 14.8252 6.08674 14.8252 7.41274C14.8252 8.33074 15.3692 9.14673 16.1172 9.55473C16.1852 9.58873 16.2192 9.62274 16.2872 9.62274C16.3552 9.65674 16.3892 9.65673 16.4572 9.69073L16.3892 10.1667H16.2192H16.0492H13.0572C12.8192 9.96274 12.5472 9.82674 12.2072 9.82674C11.5272 9.82674 10.9492 10.4047 10.9492 11.0847C10.9492 11.7307 11.5272 12.3087 12.2072 12.3087ZM18.8032 7.17473C18.8032 7.17473 18.6672 6.86873 18.0892 6.35873C17.7832 6.05273 17.2392 5.74674 17.2392 5.74674C18.7692 5.81474 18.8032 7.17473 18.8032 7.17473Z" fill="url(#paint4_radial_1215_9791)" style="mix-blend-mode:multiply"/>
<path d="M12.2072 12.3087C12.5472 12.3087 12.8192 12.1727 13.0572 11.9687H15.7772H15.9472H16.1172L15.9812 12.8867L15.8792 13.6347L15.8452 13.9407L15.7432 14.5527L15.2332 18.1907C15.2332 18.4627 16.6272 18.9047 17.2392 18.9047C17.8512 18.9047 19.2452 18.4627 19.2452 18.1567L18.7352 14.5527L18.6332 13.9407L18.5992 13.6347L18.4972 12.9547V12.8867L18.3612 12.0027H18.5312H18.7012H21.7612C21.9992 12.2067 22.2712 12.3427 22.6112 12.3427C23.2912 12.3427 23.8692 11.7647 23.8692 11.0847C23.8692 10.4047 23.2912 9.82674 22.6112 9.82674C22.2712 9.82674 21.9992 9.96274 21.7612 10.1667H18.4292H18.2592H18.0892L18.0212 9.69073C18.0892 9.65673 18.1232 9.65674 18.1912 9.62274C18.2592 9.58874 18.2932 9.58873 18.3612 9.55473C19.1432 9.14673 19.6532 8.36474 19.6532 7.41274C19.6532 6.08674 18.5652 4.99873 17.2392 4.99873C15.9132 4.99873 14.8252 6.08674 14.8252 7.41274C14.8252 8.33074 15.3692 9.14673 16.1172 9.55473C16.1852 9.58873 16.2192 9.62274 16.2872 9.62274C16.3552 9.65674 16.3892 9.65673 16.4572 9.69073L16.3892 10.1667H16.2192H16.0492H13.0572C12.8192 9.96274 12.5472 9.82674 12.2072 9.82674C11.5272 9.82674 10.9492 10.4047 10.9492 11.0847C10.9492 11.7307 11.5272 12.3087 12.2072 12.3087ZM18.8032 7.17473C18.8032 7.17473 18.6672 6.86873 18.0892 6.35873C17.7832 6.05273 17.2392 5.74674 17.2392 5.74674C18.7692 5.81474 18.8032 7.17473 18.8032 7.17473Z" fill="url(#paint5_radial_1215_9791)" style="mix-blend-mode:screen"/>
<defs>
<radialGradient id="paint0_radial_1215_9791" cx="0" cy="0" r="1" gradientUnits="userSpaceOnUse" gradientTransform="translate(29.8402 10.09) rotate(113.693) scale(11.7226 14.7212)">
<stop stop-color="#F2B03B"/>
<stop offset="1" stop-color="#F2B03B" stop-opacity="0"/>
</radialGradient>
<radialGradient id="paint1_radial_1215_9791" cx="0" cy="0" r="1" gradientUnits="userSpaceOnUse" gradientTransform="translate(6.19095 12.0993) rotate(-57.5347) scale(11.0142 6.46313)">
<stop stop-color="#FFBF4A"/>
<stop offset="1" stop-color="#EAA730" stop-opacity="0"/>
</radialGradient>
<radialGradient id="paint2_radial_1215_9791" cx="0" cy="0" r="1" gradientUnits="userSpaceOnUse" gradientTransform="translate(24.051 13.4103) rotate(120.112) scale(5.13122 7.59982)">
<stop stop-color="#F2B03B"/>
<stop offset="1" stop-color="#F2B03B" stop-opacity="0"/>
</radialGradient>
<radialGradient id="paint3_radial_1215_9791" cx="0" cy="0" r="1" gradientUnits="userSpaceOnUse" gradientTransform="translate(11.1271 14.2412) rotate(-49.9419) scale(5.02046 3.20412)">
<stop stop-color="#FFBF4A"/>
<stop offset="1" stop-color="#EAA730" stop-opacity="0"/>
</radialGradient>
<radialGradient id="paint4_radial_1215_9791" cx="0" cy="0" r="1" gradientUnits="userSpaceOnUse" gradientTransform="translate(22.7798 2.61485) rotate(102.359) scale(9.48221 6.76578)">
<stop stop-color="#F2B03B"/>
<stop offset="1" stop-color="#F2B03B" stop-opacity="0"/>
</radialGradient>
<radialGradient id="paint5_radial_1215_9791" cx="0" cy="0" r="1" gradientUnits="userSpaceOnUse" gradientTransform="translate(12.5908 4.34858) rotate(-72.3765) scale(8.41339 3.14546)">
<stop stop-color="#FFBF4A"/>
<stop offset="1" stop-color="#EAA730" stop-opacity="0"/>
</radialGradient>
</defs>
</svg>
