<svg viewBox="0 0 34 34" fill="none" xmlns="http://www.w3.org/2000/svg">
<g filter="url(#filter0_d_197_795)">
<path d="M17 17.8333C15.8949 17.8333 14.8351 17.3943 14.0537 16.6129C13.2723 15.8315 12.8333 14.7717 12.8333 13.6666H14.5C14.5 14.3296 14.7634 14.9655 15.2322 15.4344C15.7011 15.9032 16.337 16.1666 17 16.1666C17.663 16.1666 18.2989 15.9032 18.7678 15.4344C19.2366 14.9655 19.5 14.3296 19.5 13.6666H21.1667C21.1667 14.7717 20.7277 15.8315 19.9463 16.6129C19.1649 17.3943 18.1051 17.8333 17 17.8333ZM17 9.49992C17.663 9.49992 18.2989 9.76331 18.7678 10.2322C19.2366 10.701 19.5 11.3369 19.5 11.9999H14.5C14.5 11.3369 14.7634 10.701 15.2322 10.2322C15.7011 9.76331 16.337 9.49992 17 9.49992ZM22.8333 11.9999H21.1667C21.1667 11.4527 21.0589 10.9109 20.8495 10.4054C20.6401 9.89988 20.3332 9.44055 19.9463 9.05364C19.5594 8.66673 19.1 8.35982 18.5945 8.15042C18.089 7.94103 17.5472 7.83325 17 7.83325C15.8949 7.83325 14.8351 8.27224 14.0537 9.05364C13.2723 9.83504 12.8333 10.8948 12.8333 11.9999H11.1667C10.2417 11.9999 9.5 12.7416 9.5 13.6666V23.6666C9.5 24.1086 9.67559 24.5325 9.98816 24.8451C10.3007 25.1577 10.7246 25.3333 11.1667 25.3333H22.8333C23.2754 25.3333 23.6993 25.1577 24.0118 24.8451C24.3244 24.5325 24.5 24.1086 24.5 23.6666V13.6666C24.5 13.2246 24.3244 12.8006 24.0118 12.4881C23.6993 12.1755 23.2754 11.9999 22.8333 11.9999Z" fill="#80EF80"/>
</g>
<defs>
<filter id="filter0_d_197_795" x="-2.5" y="-4.16675" width="39" height="41.5" filterUnits="userSpaceOnUse" color-interpolation-filters="sRGB">
<feFlood flood-opacity="0" result="BackgroundImageFix"/>
<feColorMatrix in="SourceAlpha" type="matrix" values="0 0 0 0 0 0 0 0 0 0 0 0 0 0 0 0 0 0 127 0" result="hardAlpha"/>
<feOffset/>
<feGaussianBlur stdDeviation="6"/>
<feComposite in2="hardAlpha" operator="out"/>
<feColorMatrix type="matrix" values="0 0 0 0 0.501961 0 0 0 0 0.937255 0 0 0 0 0.501961 0 0 0 0.32 0"/>
<feBlend mode="normal" in2="BackgroundImageFix" result="effect1_dropShadow_197_795"/>
<feBlend mode="normal" in="SourceGraphic" in2="effect1_dropShadow_197_795" result="shape"/>
</filter>
</defs>
</svg>
