<svg viewBox="0 0 34 34" fill="none" xmlns="http://www.w3.org/2000/svg">
<path d="M5.86673 11.761H8.76424C9.19111 11.761 9.53723 12.1879 9.53723 12.534V18.525C9.53723 18.9519 9.19111 19.298 8.76424 19.298H5.86673C5.43986 19.298 5.09375 18.8711 5.09375 18.525V12.534C5.09375 12.1071 5.43987 11.761 5.86673 11.761Z" fill="#FFC420"/>
<path d="M5.86673 11.761H8.76424C9.19111 11.761 9.53723 12.1879 9.53723 12.534V18.525C9.53723 18.9519 9.19111 19.298 8.76424 19.298H5.86673C5.43986 19.298 5.09375 18.8711 5.09375 18.525V12.534C5.09375 12.1071 5.43987 11.761 5.86673 11.761Z" fill="url(#paint0_radial_1215_9807)" style="mix-blend-mode:multiply"/>
<path d="M5.86673 11.761H8.76424C9.19111 11.761 9.53723 12.1879 9.53723 12.534V18.525C9.53723 18.9519 9.19111 19.298 8.76424 19.298H5.86673C5.43986 19.298 5.09375 18.8711 5.09375 18.525V12.534C5.09375 12.1071 5.43987 11.761 5.86673 11.761Z" fill="url(#paint1_radial_1215_9807)" style="mix-blend-mode:screen"/>
<path d="M13.0074 11.761H15.9049C16.3317 11.761 16.6779 12.1879 16.6779 12.534V18.525C16.6779 18.9519 16.3317 19.298 15.9049 19.298H13.0074C12.5805 19.298 12.2344 18.8711 12.2344 18.525V12.534C12.2344 12.1071 12.5805 11.761 13.0074 11.761Z" fill="#FFC420"/>
<path d="M13.0074 11.761H15.9049C16.3317 11.761 16.6779 12.1879 16.6779 12.534V18.525C16.6779 18.9519 16.3317 19.298 15.9049 19.298H13.0074C12.5805 19.298 12.2344 18.8711 12.2344 18.525V12.534C12.2344 12.1071 12.5805 11.761 13.0074 11.761Z" fill="url(#paint2_radial_1215_9807)" style="mix-blend-mode:multiply"/>
<path d="M13.0074 11.761H15.9049C16.3317 11.761 16.6779 12.1879 16.6779 12.534V18.525C16.6779 18.9519 16.3317 19.298 15.9049 19.298H13.0074C12.5805 19.298 12.2344 18.8711 12.2344 18.525V12.534C12.2344 12.1071 12.5805 11.761 13.0074 11.761Z" fill="url(#paint3_radial_1215_9807)" style="mix-blend-mode:screen"/>
<path d="M23.924 7.56761H16.6785V5.93097C16.6785 4.70305 15.683 3.70923 14.4551 3.70923C13.2289 3.70923 12.2334 4.7031 12.2334 5.93097V7.56761H4.98795C4.28087 7.56761 3.70898 8.14119 3.70898 8.84658C3.70898 9.55365 4.28092 10.1255 4.98795 10.1255H23.9239C24.631 10.1255 25.2029 9.55361 25.2029 8.84658C25.2029 8.14114 24.631 7.56761 23.924 7.56761Z" fill="#FFC420"/>
<path d="M23.924 7.56761H16.6785V5.93097C16.6785 4.70305 15.683 3.70923 14.4551 3.70923C13.2289 3.70923 12.2334 4.7031 12.2334 5.93097V7.56761H4.98795C4.28087 7.56761 3.70898 8.14119 3.70898 8.84658C3.70898 9.55365 4.28092 10.1255 4.98795 10.1255H23.9239C24.631 10.1255 25.2029 9.55361 25.2029 8.84658C25.2029 8.14114 24.631 7.56761 23.924 7.56761Z" fill="url(#paint4_radial_1215_9807)" style="mix-blend-mode:multiply"/>
<path d="M23.924 7.56761H16.6785V5.93097C16.6785 4.70305 15.683 3.70923 14.4551 3.70923C13.2289 3.70923 12.2334 4.7031 12.2334 5.93097V7.56761H4.98795C4.28087 7.56761 3.70898 8.14119 3.70898 8.84658C3.70898 9.55365 4.28092 10.1255 4.98795 10.1255H23.9239C24.631 10.1255 25.2029 9.55361 25.2029 8.84658C25.2029 8.14114 24.631 7.56761 23.924 7.56761Z" fill="url(#paint5_radial_1215_9807)" style="mix-blend-mode:screen"/>
<path d="M20.1499 11.7609H23.0474C23.4743 11.7609 23.8204 12.1878 23.8204 12.5339V18.5249C23.8204 18.9518 23.4743 19.2979 23.0474 19.2979H20.1499C19.7231 19.2979 19.377 18.871 19.377 18.5249V12.5339C19.377 12.107 19.7231 11.7609 20.1499 11.7609Z" fill="#FFC420"/>
<path d="M20.1499 11.7609H23.0474C23.4743 11.7609 23.8204 12.1878 23.8204 12.5339V18.5249C23.8204 18.9518 23.4743 19.2979 23.0474 19.2979H20.1499C19.7231 19.2979 19.377 18.871 19.377 18.5249V12.5339C19.377 12.107 19.7231 11.7609 20.1499 11.7609Z" fill="url(#paint6_radial_1215_9807)" style="mix-blend-mode:multiply"/>
<path d="M20.1499 11.7609H23.0474C23.4743 11.7609 23.8204 12.1878 23.8204 12.5339V18.5249C23.8204 18.9518 23.4743 19.2979 23.0474 19.2979H20.1499C19.7231 19.2979 19.377 18.871 19.377 18.5249V12.5339C19.377 12.107 19.7231 11.7609 20.1499 11.7609Z" fill="url(#paint7_radial_1215_9807)" style="mix-blend-mode:screen"/>
<path d="M24.4298 20.9316H4.48197C4.0551 20.9316 3.70898 21.2778 3.70898 21.7046V29.5172C3.70898 29.944 4.0551 30.2901 4.48197 30.2901H24.4298C24.8566 30.2901 25.2027 29.944 25.2027 29.5172V21.7046C25.2027 21.2778 24.8566 20.9316 24.4298 20.9316ZM16.6552 26.7003H11.9413C11.3398 26.7003 10.8519 26.2125 10.8519 25.6109C10.8519 25.0077 11.3398 24.5198 11.9413 24.5198H16.6552C17.2568 24.5198 17.7446 25.0077 17.7446 25.6109C17.7446 26.2125 17.2568 26.7003 16.6552 26.7003Z" fill="#FFC420"/>
<path d="M24.4298 20.9316H4.48197C4.0551 20.9316 3.70898 21.2778 3.70898 21.7046V29.5172C3.70898 29.944 4.0551 30.2901 4.48197 30.2901H24.4298C24.8566 30.2901 25.2027 29.944 25.2027 29.5172V21.7046C25.2027 21.2778 24.8566 20.9316 24.4298 20.9316ZM16.6552 26.7003H11.9413C11.3398 26.7003 10.8519 26.2125 10.8519 25.6109C10.8519 25.0077 11.3398 24.5198 11.9413 24.5198H16.6552C17.2568 24.5198 17.7446 25.0077 17.7446 25.6109C17.7446 26.2125 17.2568 26.7003 16.6552 26.7003Z" fill="url(#paint8_radial_1215_9807)" style="mix-blend-mode:multiply"/>
<path d="M24.4298 20.9316H4.48197C4.0551 20.9316 3.70898 21.2778 3.70898 21.7046V29.5172C3.70898 29.944 4.0551 30.2901 4.48197 30.2901H24.4298C24.8566 30.2901 25.2027 29.944 25.2027 29.5172V21.7046C25.2027 21.2778 24.8566 20.9316 24.4298 20.9316ZM16.6552 26.7003H11.9413C11.3398 26.7003 10.8519 26.2125 10.8519 25.6109C10.8519 25.0077 11.3398 24.5198 11.9413 24.5198H16.6552C17.2568 24.5198 17.7446 25.0077 17.7446 25.6109C17.7446 26.2125 17.2568 26.7003 16.6552 26.7003Z" fill="url(#paint9_radial_1215_9807)" style="mix-blend-mode:screen"/>
<path d="M29.107 20.9326H29.1053V16.509C28.6505 16.6063 28.1791 16.6063 27.7242 16.509V20.9326C27.5198 20.9326 27.322 21.0134 27.177 21.1584C27.0319 21.3034 26.9512 21.5012 26.9512 21.7056V24.0262C26.9512 24.2306 27.0319 24.4284 27.177 24.5735C27.322 24.7185 27.5198 24.7993 27.7242 24.7993H29.107C29.5339 24.7993 29.88 24.4531 29.88 24.0263V21.7056C29.88 21.2788 29.5339 20.9326 29.107 20.9326Z" fill="#FFC420"/>
<path d="M29.107 20.9326H29.1053V16.509C28.6505 16.6063 28.1791 16.6063 27.7242 16.509V20.9326C27.5198 20.9326 27.322 21.0134 27.177 21.1584C27.0319 21.3034 26.9512 21.5012 26.9512 21.7056V24.0262C26.9512 24.2306 27.0319 24.4284 27.177 24.5735C27.322 24.7185 27.5198 24.7993 27.7242 24.7993H29.107C29.5339 24.7993 29.88 24.4531 29.88 24.0263V21.7056C29.88 21.2788 29.5339 20.9326 29.107 20.9326Z" fill="url(#paint10_radial_1215_9807)" style="mix-blend-mode:multiply"/>
<path d="M29.107 20.9326H29.1053V16.509C28.6505 16.6063 28.1791 16.6063 27.7242 16.509V20.9326C27.5198 20.9326 27.322 21.0134 27.177 21.1584C27.0319 21.3034 26.9512 21.5012 26.9512 21.7056V24.0262C26.9512 24.2306 27.0319 24.4284 27.177 24.5735C27.322 24.7185 27.5198 24.7993 27.7242 24.7993H29.107C29.5339 24.7993 29.88 24.4531 29.88 24.0263V21.7056C29.88 21.2788 29.5339 20.9326 29.107 20.9326Z" fill="url(#paint11_radial_1215_9807)" style="mix-blend-mode:screen"/>
<path d="M30.2926 13.3125C30.2926 15.8111 26.543 15.8111 26.543 13.3125C26.543 10.8122 30.2926 10.8122 30.2926 13.3125Z" fill="#FFC420"/>
<path d="M30.2926 13.3125C30.2926 15.8111 26.543 15.8111 26.543 13.3125C26.543 10.8122 30.2926 10.8122 30.2926 13.3125Z" fill="url(#paint12_radial_1215_9807)" style="mix-blend-mode:multiply"/>
<path d="M30.2926 13.3125C30.2926 15.8111 26.543 15.8111 26.543 13.3125C26.543 10.8122 30.2926 10.8122 30.2926 13.3125Z" fill="url(#paint13_radial_1215_9807)" style="mix-blend-mode:screen"/>
<defs>
<radialGradient id="paint0_radial_1215_9807" cx="0" cy="0" r="1" gradientUnits="userSpaceOnUse" gradientTransform="translate(9.16254 10.4689) rotate(97.9155) scale(5.06853 2.35941)">
<stop stop-color="#F2B03B"/>
<stop offset="1" stop-color="#F2B03B" stop-opacity="0"/>
</radialGradient>
<radialGradient id="paint1_radial_1215_9807" cx="0" cy="0" r="1" gradientUnits="userSpaceOnUse" gradientTransform="translate(5.65831 11.4086) rotate(-78.6032) scale(4.43344 1.11269)">
<stop stop-color="#FFBF4A"/>
<stop offset="1" stop-color="#EAA730" stop-opacity="0"/>
</radialGradient>
<radialGradient id="paint2_radial_1215_9807" cx="0" cy="0" r="1" gradientUnits="userSpaceOnUse" gradientTransform="translate(16.3032 10.4689) rotate(97.9155) scale(5.06853 2.35941)">
<stop stop-color="#F2B03B"/>
<stop offset="1" stop-color="#F2B03B" stop-opacity="0"/>
</radialGradient>
<radialGradient id="paint3_radial_1215_9807" cx="0" cy="0" r="1" gradientUnits="userSpaceOnUse" gradientTransform="translate(12.7989 11.4086) rotate(-78.6032) scale(4.43344 1.11269)">
<stop stop-color="#FFBF4A"/>
<stop offset="1" stop-color="#EAA730" stop-opacity="0"/>
</radialGradient>
<radialGradient id="paint4_radial_1215_9807" cx="0" cy="0" r="1" gradientUnits="userSpaceOnUse" gradientTransform="translate(23.3905 2.60929) rotate(128.309) scale(5.44655 9.04156)">
<stop stop-color="#F2B03B"/>
<stop offset="1" stop-color="#F2B03B" stop-opacity="0"/>
</radialGradient>
<radialGradient id="paint5_radial_1215_9807" cx="0" cy="0" r="1" gradientUnits="userSpaceOnUse" gradientTransform="translate(6.43987 3.40924) rotate(-41.1235) scale(5.62549 3.61104)">
<stop stop-color="#FFBF4A"/>
<stop offset="1" stop-color="#EAA730" stop-opacity="0"/>
</radialGradient>
<radialGradient id="paint6_radial_1215_9807" cx="0" cy="0" r="1" gradientUnits="userSpaceOnUse" gradientTransform="translate(23.4457 10.4688) rotate(97.9155) scale(5.06853 2.35941)">
<stop stop-color="#F2B03B"/>
<stop offset="1" stop-color="#F2B03B" stop-opacity="0"/>
</radialGradient>
<radialGradient id="paint7_radial_1215_9807" cx="0" cy="0" r="1" gradientUnits="userSpaceOnUse" gradientTransform="translate(19.9415 11.4085) rotate(-78.6032) scale(4.43344 1.11269)">
<stop stop-color="#FFBF4A"/>
<stop offset="1" stop-color="#EAA730" stop-opacity="0"/>
</radialGradient>
<radialGradient id="paint8_radial_1215_9807" cx="0" cy="0" r="1" gradientUnits="userSpaceOnUse" gradientTransform="translate(23.3903 19.3273) rotate(118.442) scale(7.08915 10.1318)">
<stop stop-color="#F2B03B"/>
<stop offset="1" stop-color="#F2B03B" stop-opacity="0"/>
</radialGradient>
<radialGradient id="paint9_radial_1215_9807" cx="0" cy="0" r="1" gradientUnits="userSpaceOnUse" gradientTransform="translate(6.43985 20.4941) rotate(-51.8583) scale(6.86133 4.31819)">
<stop stop-color="#FFBF4A"/>
<stop offset="1" stop-color="#EAA730" stop-opacity="0"/>
</radialGradient>
<radialGradient id="paint10_radial_1215_9807" cx="0" cy="0" r="1" gradientUnits="userSpaceOnUse" gradientTransform="translate(29.633 15.0879) rotate(94.7627) scale(5.54106 1.56468)">
<stop stop-color="#F2B03B"/>
<stop offset="1" stop-color="#F2B03B" stop-opacity="0"/>
</radialGradient>
<radialGradient id="paint11_radial_1215_9807" cx="0" cy="0" r="1" gradientUnits="userSpaceOnUse" gradientTransform="translate(27.3233 16.1214) rotate(-83.1125) scale(4.81508 0.742751)">
<stop stop-color="#FFBF4A"/>
<stop offset="1" stop-color="#EAA730" stop-opacity="0"/>
</radialGradient>
<radialGradient id="paint12_radial_1215_9807" cx="0" cy="0" r="1" gradientUnits="userSpaceOnUse" gradientTransform="translate(29.9764 10.7945) rotate(103.271) scale(2.56579 1.95645)">
<stop stop-color="#F2B03B"/>
<stop offset="1" stop-color="#F2B03B" stop-opacity="0"/>
</radialGradient>
<radialGradient id="paint13_radial_1215_9807" cx="0" cy="0" r="1" gradientUnits="userSpaceOnUse" gradientTransform="translate(27.0194 11.262) rotate(-71.1219) scale(2.28479 0.906299)">
<stop stop-color="#FFBF4A"/>
<stop offset="1" stop-color="#EAA730" stop-opacity="0"/>
</radialGradient>
</defs>
</svg>
