<svg viewBox="0 0 14 10" fill="none" xmlns="http://www.w3.org/2000/svg">
<path d="M8.7494 9.62992C7.45664 9.62992 6.36182 9.18134 5.46494 8.28417C4.56807 7.38701 4.11963 6.29204 4.11963 4.99928C4.11963 3.71624 4.56821 2.62385 5.46538 1.72211C6.36255 0.820375 7.45751 0.369507 8.75027 0.369507C10.0333 0.369507 11.1257 0.820521 12.0274 1.72255C12.9292 2.62458 13.38 3.71711 13.38 5.00015C13.38 6.29292 12.929 7.38774 12.027 8.28461C11.125 9.18149 10.0324 9.62992 8.7494 9.62992ZM8.74984 8.53617C9.72692 8.53617 10.5606 8.19347 11.2509 7.50805C11.9412 6.82263 12.2863 5.98652 12.2863 4.99971C12.2863 4.02263 11.9412 3.18895 11.2509 2.49867C10.5606 1.8084 9.72692 1.46326 8.74984 1.46326C7.76303 1.46326 6.92692 1.8084 6.2415 2.49867C5.55609 3.18895 5.21338 4.02263 5.21338 4.99971C5.21338 5.98652 5.55609 6.82263 6.2415 7.50805C6.92692 8.19347 7.76303 8.53617 8.74984 8.53617ZM10.0769 7.12159L10.8498 6.34138L9.29671 4.78826V2.70284H8.20296V5.23392L10.0769 7.12159ZM1.20296 3.21326V2.11951H3.46338V3.21326H1.20296ZM0.619629 5.54659V4.45284H3.46338V5.54659H0.619629ZM1.20296 7.87992V6.78617H3.46338V7.87992H1.20296Z" fill="currentColor"/>
</svg>
