<svg viewBox="0 0 44 47" fill="none" xmlns="http://www.w3.org/2000/svg">
<g filter="url(#filter0_d_1072_5309)">
<path fill-rule="evenodd" clip-rule="evenodd" d="M22 34.8333C23.2804 34.8333 24.5482 34.5811 25.7312 34.0911C26.9141 33.6011 27.9889 32.883 28.8943 31.9776C29.7997 31.0722 30.5178 29.9974 31.0078 28.8145C31.4978 27.6315 31.75 26.3637 31.75 25.0833C31.75 23.8029 31.4978 22.5351 31.0078 21.3521C30.5178 20.1692 29.7997 19.0944 28.8943 18.189C27.9889 17.2836 26.9141 16.5655 25.7312 16.0755C24.5482 15.5855 23.2804 15.3333 22 15.3333C19.4141 15.3333 16.9342 16.3605 15.1057 18.189C13.2772 20.0175 12.25 22.4974 12.25 25.0833C12.25 27.6692 13.2772 30.1491 15.1057 31.9776C16.9342 33.8061 19.4141 34.8333 22 34.8333ZM22 19.9375C22.2155 19.9375 22.4222 20.0231 22.5745 20.1754C22.7269 20.3278 22.8125 20.5345 22.8125 20.75V25.0833C22.8125 25.2988 22.7269 25.5054 22.5745 25.6578C22.4222 25.8102 22.2155 25.8958 22 25.8958C21.7845 25.8958 21.5778 25.8102 21.4255 25.6578C21.2731 25.5054 21.1875 25.2988 21.1875 25.0833V20.75C21.1875 20.5345 21.2731 20.3278 21.4255 20.1754C21.5778 20.0231 21.7845 19.9375 22 19.9375ZM19.0208 13.1666C19.0208 12.9511 19.1064 12.7445 19.2588 12.5921C19.4112 12.4397 19.6178 12.3541 19.8333 12.3541H24.1667C24.3822 12.3541 24.5888 12.4397 24.7412 12.5921C24.8936 12.7445 24.9792 12.9511 24.9792 13.1666C24.9792 13.3821 24.8936 13.5888 24.7412 13.7412C24.5888 13.8935 24.3822 13.9791 24.1667 13.9791H19.8333C19.6178 13.9791 19.4112 13.8935 19.2588 13.7412C19.1064 13.5888 19.0208 13.3821 19.0208 13.1666Z" fill="currentColor"/>
</g>
<defs>
<filter id="filter0_d_1072_5309" x="0.25" y="0.354126" width="43.5" height="46.4791" filterUnits="userSpaceOnUse" color-interpolation-filters="sRGB">
<feFlood flood-opacity="0" result="BackgroundImageFix"/>
<feColorMatrix in="SourceAlpha" type="matrix" values="0 0 0 0 0 0 0 0 0 0 0 0 0 0 0 0 0 0 127 0" result="hardAlpha"/>
<feOffset/>
<feGaussianBlur stdDeviation="6"/>
<feComposite in2="hardAlpha" operator="out"/>
<feColorMatrix type="matrix" values="0 0 0 0 0.302885 0 0 0 0 0.319003 0 0 0 0 1 0 0 0 0.32 0"/>
<feBlend mode="normal" in2="BackgroundImageFix" result="effect1_dropShadow_1072_5309"/>
<feBlend mode="normal" in="SourceGraphic" in2="effect1_dropShadow_1072_5309" result="shape"/>
</filter>
</defs>
</svg>
