<?xml version="1.0" encoding="UTF-8"?>
<svg version="1.1" xmlns="http://www.w3.org/2000/svg" width="752" height="752">
<path d="M0 0 C1.3962913 -0.00346647 2.79257985 -0.00823761 4.1888628 -0.01418173 C7.98401153 -0.02658578 11.77893095 -0.02057034 15.57407999 -0.01122308 C19.68322122 -0.00438896 23.79232512 -0.01493527 27.90145874 -0.02316284 C35.93477881 -0.03645615 43.96801448 -0.03364215 52.00133777 -0.02492492 C58.53407146 -0.01813138 65.06678161 -0.01723886 71.59951782 -0.02049637 C72.53165094 -0.02095607 73.46378406 -0.02141577 74.42416364 -0.0218894 C76.31816793 -0.02284864 78.21217222 -0.02382128 80.1061765 -0.02480717 C97.83851633 -0.03334817 115.57080953 -0.02354722 133.30314171 -0.00740607 C148.49630727 0.00599593 163.68940404 0.00366748 178.88256836 -0.01016235 C196.55434519 -0.026241 214.22608122 -0.03252431 231.89786434 -0.02332556 C233.7846419 -0.02236998 235.67141946 -0.02142687 237.55819702 -0.02049637 C238.48636649 -0.02003354 239.41453597 -0.01957072 240.37083179 -0.01909386 C246.890674 -0.01651082 253.41049019 -0.02086013 259.93032837 -0.02793503 C267.88305597 -0.03637566 275.83569481 -0.03401624 283.78841233 -0.0180928 C287.84082689 -0.01024443 291.89309381 -0.00705936 295.94550705 -0.01704025 C299.66390016 -0.02605951 303.3820105 -0.02093709 307.10037839 -0.0051076 C309.06374461 -0.00023329 311.02713087 -0.00989115 312.99047565 -0.02027929 C324.36969207 0.05411503 335.6707774 1.61917211 345.82885742 7.00595093 C346.82925049 7.52209961 346.82925049 7.52209961 347.84985352 8.04867554 C353.91307574 11.3120769 358.82216769 15.40472167 363.57885742 20.38095093 C364.39870117 21.15438843 364.39870117 21.15438843 365.23510742 21.94345093 C368.95959753 25.7471855 371.33206376 30.32073894 373.76635742 35.00595093 C374.09974121 35.63251587 374.433125 36.25908081 374.77661133 36.90463257 C381.47767695 50.39276138 381.01603904 64.49953327 380.98291016 79.17514038 C380.98862071 81.46634248 380.99558761 83.75754174 381.00370789 86.04873657 C381.02157977 92.2410337 381.02048198 98.43318865 381.0147655 104.62550378 C381.01166463 109.80905294 381.01777617 114.99257515 381.02380425 120.17612046 C381.03862889 133.11086848 381.03505267 146.04552796 381.02294094 158.9802744 C381.01301473 170.17842612 381.02594443 181.37641246 381.04987513 192.57453869 C381.07433887 204.11021683 381.08345763 215.64579939 381.07722241 227.18150491 C381.07386325 233.64291407 381.07619841 240.10418668 381.09347343 246.56557655 C381.10902026 252.64539395 381.10490138 258.72489742 381.08616829 264.80470276 C381.08250361 267.02493419 381.08552829 269.24518928 381.09605408 271.46539879 C381.1940709 293.86528937 377.94624779 313.65327209 361.57885742 330.38095093 C342.92770335 346.35986363 322.93980506 347.98184328 299.39135742 347.99032593 C296.99282734 348.00533509 294.59430749 348.02206788 292.19580078 348.04043579 C285.93570435 348.08381417 279.67574726 348.10404258 273.41552734 348.11917114 C267.00634623 348.13884935 260.5973133 348.18080682 254.18823242 348.22079468 C241.65182013 348.29577666 229.11544151 348.34626124 216.57885742 348.38095093 C216.1330835 349.28804306 215.68730957 350.19513519 215.22802734 351.12971497 C211.00718593 359.71383904 206.77124867 368.29036653 202.52075195 376.85984707 C200.33645936 381.26482686 198.15740683 385.6722339 195.99047852 390.08578491 C193.89565753 394.35197239 191.78688089 398.61099761 189.66860962 402.86558723 C188.86638639 404.48288051 188.0690619 406.10261406 187.27694702 407.72488213 C175.8824159 431.03851852 175.8824159 431.03851852 163.57885742 435.38095093 C154.79298225 438.01671348 146.58023237 436.5416659 138.57885742 432.38095093 C128.91117972 426.66823229 124.18613716 411.86037069 119.33666992 402.09188843 C118.56088874 400.53658787 117.78474935 398.98146593 117.00827026 397.42651367 C114.98268276 393.36776567 112.96191501 389.30663722 110.94219971 385.2449646 C108.87351512 381.08699933 106.80020092 376.93134405 104.72729492 372.77548218 C100.67332497 364.64620435 96.62445169 356.51439985 92.57885742 348.38095093 C92.01969824 348.37948437 91.46053905 348.37801781 90.88443565 348.37650681 C77.21828154 348.33929958 63.5523757 348.27985463 49.8864193 348.19704819 C43.27737865 348.15766115 36.6684695 348.12542956 30.05932617 348.10995483 C23.67249017 348.09473062 17.28601589 348.06018255 10.89934158 348.01264191 C8.47153506 347.9978875 6.04367687 347.98991335 3.61582565 347.98906708 C-18.38992114 347.97369227 -36.82700208 345.30380742 -53.42114258 329.38095093 C-64.89564968 316.4396379 -70.74701031 302.33375039 -70.68856812 285.16764832 C-70.69309923 284.17753319 -70.69763034 283.18741806 -70.70229876 282.16729945 C-70.71489734 278.86973461 -70.71332531 275.5723359 -70.71166992 272.27474976 C-70.71765804 269.90207712 -70.72446424 267.52940643 -70.73202515 265.15673828 C-70.74966436 258.72470771 -70.75437968 252.29273038 -70.75565672 245.86067796 C-70.75664718 241.83777008 -70.761226 237.81487145 -70.76665115 233.79196739 C-70.78425001 220.4690338 -70.79349225 207.14613233 -70.79199021 193.82318703 C-70.79191029 193.10611386 -70.79183038 192.38904069 -70.79174805 191.65023804 C-70.79166629 190.93228051 -70.79158452 190.21432298 -70.79150029 189.47460916 C-70.79068797 177.84806915 -70.80981535 166.22165886 -70.83802478 154.59515635 C-70.8668188 142.63248334 -70.88056147 130.66987346 -70.87883723 118.70716494 C-70.87817553 112.00094608 -70.88396486 105.29488357 -70.90519333 98.58869362 C-70.92462661 92.27749341 -70.92466514 85.96657939 -70.91016006 79.6553688 C-70.90807714 77.34721773 -70.9127418 75.03904851 -70.92488098 72.73092842 C-71.03089077 51.16708265 -67.9163402 34.09979156 -52.28051758 18.11141968 C-37.57740887 4.07115604 -19.89531178 -0.10526688 0 0 Z M13.74291992 92.82235718 C7.62037693 100.06110386 3.45469114 107.72483812 0.57885742 116.69345093 C0.37099609 117.33870728 0.16313477 117.98396362 -0.05102539 118.64877319 C-1.45215148 123.44290646 -1.98404659 127.45051492 -1.42114258 132.38095093 C0.26534115 135.55805023 0.26534115 135.55805023 3.57885742 137.38095093 C7.10147747 138.08816624 10.4965024 138.07986472 14.07885742 138.00595093 C15.48458008 138.03495483 15.48458008 138.03495483 16.91870117 138.06454468 C21.44303233 138.03245722 23.85757825 137.89747988 27.60620117 135.21298218 C29.65506367 132.27154592 30.68849113 129.8870654 31.64135742 126.44345093 C33.88546679 119.14786032 36.95651823 113.53206082 43.57885742 109.38095093 C52.93758816 104.43580405 63.60467696 103.81719584 73.83666992 106.11141968 C81.23221426 108.57995968 86.44188677 112.00924519 90.45385742 118.81845093 C93.64995605 125.7381596 93.99651717 133.56241593 91.84448242 140.87704468 C89.86099269 145.17731545 87.12022472 148.23306888 83.57885742 151.38095093 C82.92916992 151.97520874 82.27948242 152.56946655 81.61010742 153.18173218 C77.67454732 156.75006572 73.65334125 160.12746954 69.45385742 163.38095093 C56.92839216 173.36248448 51.17688731 185.14848395 49.25854492 201.03329468 C49.05978352 205.01514804 49.28752791 206.89875036 51.39135742 210.38095093 C55.64140293 214.26670682 60.51150835 213.63216321 65.95385742 213.69345093 C66.80463867 213.72245483 67.65541992 213.75145874 68.53198242 213.78134155 C72.49134554 213.82142856 74.99679459 213.6853675 78.55151367 211.82626343 C81.10126598 208.75083965 81.88169155 205.77171788 82.64135742 201.94345093 C84.53245293 192.74132591 88.90892292 188.88406522 96.26635742 183.63095093 C110.531037 173.1449093 122.77503234 160.02029122 126.26245117 142.01766968 C128.35867319 124.54915289 124.46202727 109.17962382 113.82885742 95.13095093 C102.62295616 81.88761308 86.87889852 73.84705611 69.57885742 72.38095093 C47.79583896 71.2225803 28.94363558 76.89651904 13.74291992 92.82235718 Z M176.93432617 80.88095093 C173.06893513 85.84519895 172.15295889 89.09894751 172.57885742 95.38095093 C174.62203581 101.05644646 178.17633183 104.67968813 183.57885742 107.38095093 C185.00967014 107.47909673 186.44492471 107.51597061 187.87908936 107.52139282 C189.23329987 107.52995804 189.23329987 107.52995804 190.61486816 107.53869629 C191.6081311 107.53981415 192.60139404 107.54093201 193.62475586 107.54208374 C194.66879578 107.54704865 195.71283569 107.55201355 196.78851318 107.55712891 C200.25509289 107.57177741 203.72162681 107.57855751 207.18823242 107.58407593 C209.5923869 107.58982579 211.99654136 107.59558354 214.4006958 107.60134888 C219.44804092 107.61186695 224.49537007 107.61770413 229.54272461 107.6211853 C236.01035511 107.62666738 242.47777479 107.6506861 248.9453392 107.67915726 C253.91417048 107.69778275 258.88295103 107.70298923 263.85181427 107.70452118 C266.2360372 107.70754914 268.62025921 107.71558246 271.00444794 107.72870636 C274.34158841 107.74576227 277.67821447 107.74388729 281.01538086 107.73739624 C282.00054687 107.74661102 282.98571289 107.75582581 284.00073242 107.76531982 C290.01945977 107.72865019 294.62336433 107.13987915 299.22338867 102.84579468 C303.35021014 97.44918199 304.39913993 94.13688877 303.57885742 87.38095093 C300.87706279 82.07742813 297.28388847 78.28262794 291.57885742 76.38095093 C290.12034004 76.28621648 288.65791494 76.24609378 287.19633484 76.24050903 C286.30056732 76.23479889 285.4047998 76.22908875 284.48188782 76.22320557 C283.50157089 76.22208771 282.52125397 76.22096985 281.51123047 76.21981812 C280.4767981 76.21485321 279.44236572 76.20988831 278.37658691 76.20477295 C274.94790994 76.19014496 271.51927924 76.18334822 268.09057617 76.17782593 C265.71027118 76.17207497 263.32996621 76.16631723 260.94966125 76.16055298 C255.95537093 76.15004116 250.96109671 76.14419968 245.96679688 76.14071655 C239.56757543 76.13523168 233.16856675 76.11120434 226.76941204 76.0827446 C221.85119505 76.06411997 216.93302932 76.0589127 212.01478004 76.05738068 C209.65567677 76.0543532 207.29657442 76.04632152 204.93750572 76.0331955 C201.6363952 76.01613921 198.33580469 76.01801449 195.03466797 76.02450562 C193.57330162 76.01068344 193.57330162 76.01068344 192.08241272 75.99658203 C186.08854901 76.03349836 181.55366813 76.66758439 176.93432617 80.88095093 Z M175.26635742 164.94345093 C172.39802841 169.08659284 172.24331909 172.43176051 172.57885742 177.38095093 C174.47213238 182.64004803 177.17668957 185.17103687 181.57885742 188.38095093 C184.374855 189.31295012 186.07130272 189.51034973 188.96138 189.52139282 C189.85714752 189.52710297 190.75291504 189.53281311 191.67582703 189.53869629 C192.65614395 189.53981415 193.63646088 189.54093201 194.64648438 189.54208374 C195.68091675 189.54704865 196.71534912 189.55201355 197.78112793 189.55712891 C201.2098049 189.5717569 204.6384356 189.57855364 208.06713867 189.58407593 C210.44744366 189.58982688 212.82774863 189.59558462 215.20805359 189.60134888 C220.20234391 189.6118607 225.19661813 189.61770218 230.19091797 189.6211853 C236.59013941 189.62667018 242.98914809 189.65069751 249.3883028 189.67915726 C254.30651979 189.69778188 259.22468552 189.70298915 264.1429348 189.70452118 C266.50203807 189.70754865 268.86114042 189.71558034 271.22020912 189.72870636 C274.52131964 189.74576265 277.82191016 189.74388737 281.12304688 189.73739624 C282.09729111 189.74661102 283.07153534 189.75582581 284.07530212 189.76531982 C290.06487713 189.72842991 294.64703878 189.11777926 299.22338867 184.84579468 C303.35021014 179.44918199 304.39913993 176.13688877 303.57885742 169.38095093 C301.0464536 164.40993603 297.59024608 160.88664526 292.57885742 158.38095093 C291.1354407 158.28065375 289.68753782 158.24156567 288.24066162 158.23377991 C287.32944046 158.2266246 286.4182193 158.2194693 285.47938538 158.21209717 C284.4767717 158.20940826 283.47415802 158.20671936 282.44116211 158.20394897 C281.38736862 158.19737778 280.33357513 158.19080658 279.24784851 158.18403625 C275.74880915 158.16427153 272.24981278 158.15263344 268.75073242 158.14266968 C267.55750618 158.13859415 266.36427994 158.13451862 265.13489532 158.1303196 C258.81918001 158.1094451 252.50348651 158.09514946 246.18774414 158.08578491 C239.65951805 158.07471892 233.13163268 158.04032031 226.60352707 158.00061321 C221.5883724 157.97448399 216.57329934 157.96609632 211.55808258 157.96250343 C209.15151926 157.95762778 206.74495982 157.94598612 204.33846283 157.92746544 C200.97007668 157.90315395 197.60257763 157.90402489 194.23413086 157.91098022 C193.23961411 157.89817017 192.24509735 157.88536011 191.22044373 157.87216187 C184.06659192 157.92601012 180.1746144 159.50457157 175.26635742 164.94345093 Z M49.86791992 242.38876343 C46.39281776 247.83242057 44.7614092 252.85304295 45.57885742 259.38095093 C47.5077365 265.59751903 51.22764757 269.79387619 56.57885742 273.38095093 C61.81338034 276.05637375 66.96468965 275.63566705 72.57885742 274.38095093 C78.23858221 271.4976949 82.11418262 267.31030053 84.95385742 261.63095093 C86.09135237 255.71597718 85.63472634 250.45358251 82.89135742 245.06845093 C78.01590399 239.40238343 73.47724361 235.84347132 65.89135742 234.94345093 C59.78861488 235.13994074 53.84685078 237.71942447 49.86791992 242.38876343 Z M175.26635742 246.94345093 C172.39802841 251.08659284 172.24331909 254.43176051 172.57885742 259.38095093 C174.47213238 264.64004803 177.17668957 267.17103687 181.57885742 270.38095093 C184.36979393 271.3112631 186.06977259 271.51225922 188.95465088 271.52812195 C189.84897324 271.53527725 190.74329559 271.54243256 191.66471863 271.54980469 C192.64346451 271.55249359 193.62221039 271.5551825 194.63061523 271.55795288 C195.66344131 271.56452408 196.6962674 271.57109528 197.76039124 271.5778656 C201.18425568 271.59760399 204.60807625 271.60926239 208.03198242 271.61923218 C209.20097832 271.6233077 210.36997421 271.62738323 211.57439423 271.63158226 C217.7615898 271.6524452 223.94876318 271.66674603 230.13598633 271.67611694 C236.52620509 271.68718235 242.91607573 271.72158356 249.30617142 271.76128864 C254.22014005 271.78743487 259.13402548 271.79580703 264.04805756 271.79939842 C266.40355531 271.80426942 268.75904923 271.81589794 271.11447906 271.83443642 C274.41310712 271.85878473 277.71083107 271.85787028 281.00952148 271.85092163 C282.46549492 271.87013672 282.46549492 271.87013672 283.95088196 271.88973999 C290.03538759 271.84308626 293.59702012 270.93373986 298.57885742 267.38095093 C302.65184571 262.98641093 303.9635234 259.55677994 303.85229492 253.50595093 C303.38868146 249.90301203 302.08005981 247.01379555 299.57885742 244.38095093 C293.64006965 240.18250887 289.0373384 239.80446302 281.87353516 239.8633728 C280.81901154 239.85636353 279.76448792 239.84935425 278.67800903 239.84213257 C275.20588548 239.82458344 271.73458245 239.8361642 268.26245117 239.84970093 C265.84302108 239.84700535 263.42359204 239.84312238 261.00416565 239.83810425 C255.93952089 239.83221352 250.87515874 239.84075963 245.81054688 239.85946655 C239.3216248 239.88226756 232.83336409 239.86912233 226.34446621 239.8451767 C221.35072349 239.83071795 216.35713742 239.83532497 211.36338997 239.84568787 C208.97080469 239.84835428 206.57820514 239.84508843 204.18563652 239.83576965 C200.84163641 239.82560196 197.49870569 239.84110921 194.15478516 239.8633728 C193.16812363 239.85527588 192.1814621 239.84717896 191.16490173 239.83883667 C184.04791669 239.92654213 180.14829399 241.53373743 175.26635742 246.94345093 Z " fill="#ffffff" transform="translate(221.421142578125,157.61904907226563)"/>
</svg>
