<svg viewBox="0 0 21 20" fill="none" xmlns="http://www.w3.org/2000/svg">
<path fill-rule="evenodd" clip-rule="evenodd" d="M9 0C7.67392 0 6.40215 0.526784 5.46447 1.46447C4.52678 2.40215 4 3.67392 4 5C4 6.32608 4.52678 7.59785 5.46447 8.53553C6.40215 9.47322 7.67392 10 9 10C10.3261 10 11.5979 9.47322 12.5355 8.53553C13.4732 7.59785 14 6.32608 14 5C14 3.67392 13.4732 2.40215 12.5355 1.46447C11.5979 0.526784 10.3261 0 9 0ZM9 11C6.605 11 4.425 11.694 2.822 12.672C2.022 13.16 1.338 13.736 0.844 14.362C0.358 14.976 0 15.713 0 16.5C0 17.345 0.411 18.011 1.003 18.486C1.563 18.936 2.302 19.234 3.087 19.442C4.665 19.859 6.771 20 9 20C9.23067 20 9.459 19.9983 9.685 19.995C9.85248 19.9927 10.0167 19.9484 10.1626 19.8661C10.3085 19.7838 10.4313 19.6662 10.5199 19.524C10.6085 19.3819 10.66 19.2198 10.6696 19.0525C10.6792 18.8853 10.6467 18.7184 10.575 18.567C10.1958 17.7644 9.99942 16.8877 10 16C10 14.748 10.383 13.588 11.037 12.627C11.1342 12.4842 11.1928 12.3186 11.207 12.1465C11.2212 11.9743 11.1905 11.8014 11.118 11.6446C11.0455 11.4878 10.9336 11.3524 10.7932 11.2517C10.6528 11.151 10.4888 11.0884 10.317 11.07C9.88633 11.0233 9.44733 11 9 11Z" fill="currentColor" />
<path fill-rule="evenodd" clip-rule="evenodd" d="M16.8645 11.997C16.7764 11.8459 16.6503 11.7206 16.4987 11.6335C16.3471 11.5463 16.1753 11.5005 16.0005 11.5005C15.8256 11.5005 15.6538 11.5463 15.5022 11.6335C15.3506 11.7206 15.2245 11.8459 15.1365 11.997L14.2265 13.559L12.4605 13.941C12.2895 13.978 12.1312 14.0592 12.0014 14.1765C11.8716 14.2938 11.7748 14.4431 11.7208 14.6095C11.6667 14.7759 11.6573 14.9535 11.6934 15.1247C11.7295 15.2959 11.8098 15.4546 11.9265 15.585L13.1305 16.933L12.9485 18.731C12.9308 18.905 12.9591 19.0806 13.0305 19.2402C13.102 19.3998 13.214 19.538 13.3555 19.6408C13.4969 19.7436 13.6629 19.8075 13.8368 19.8261C14.0107 19.8448 14.1864 19.8175 14.3465 19.747L16.0005 19.017L17.6545 19.747C17.8145 19.8175 17.9902 19.8448 18.1641 19.8261C18.338 19.8075 18.504 19.7436 18.6455 19.6408C18.7869 19.538 18.899 19.3998 18.9704 19.2402C19.0418 19.0806 19.0701 18.905 19.0525 18.731L18.8705 16.932L20.0745 15.585C20.1911 15.4546 20.2714 15.2959 20.3075 15.1247C20.3436 14.9535 20.3342 14.7759 20.2801 14.6095C20.2261 14.4431 20.1293 14.2938 19.9995 14.1765C19.8697 14.0592 19.7115 13.978 19.5405 13.941L17.7745 13.559L16.8645 11.997Z" fill="#5256FF"/>
</svg>
