<svg viewBox="0 0 24 24" fill="none" xmlns="http://www.w3.org/2000/svg">
<path fill-rule="evenodd" clip-rule="evenodd" d="M8.00055 4.00001C6.93968 4.00001 5.92227 4.42144 5.17212 5.17159C4.42198 5.92173 4.00055 6.93915 4.00055 8.00001C4.00055 9.06088 4.42198 10.0783 5.17212 10.8284C5.92227 11.5786 6.93968 12 8.00055 12C9.06142 12 10.0788 11.5786 10.829 10.8284C11.5791 10.0783 12.0005 9.06088 12.0005 8.00001C12.0005 6.93915 11.5791 5.92173 10.829 5.17159C10.0788 4.42144 9.06142 4.00001 8.00055 4.00001ZM6.00055 13C4.93968 13 3.92227 13.4214 3.17212 14.1716C2.42198 14.9217 2.00055 15.9391 2.00055 17V18C2.00055 18.5304 2.21126 19.0392 2.58634 19.4142C2.96141 19.7893 3.47012 20 4.00055 20H12.0005C12.531 20 13.0397 19.7893 13.4148 19.4142C13.7898 19.0392 14.0005 18.5304 14.0005 18V17C14.0005 15.9391 13.5791 14.9217 12.829 14.1716C12.0788 13.4214 11.0614 13 10.0005 13H6.00055ZM13.2505 10.905C13.7285 10.045 14.0005 9.05501 14.0005 8.00001C14.0008 6.98345 13.7427 5.9835 13.2505 5.09401C13.8184 4.55674 14.5312 4.19763 15.3009 4.06104C16.0705 3.92446 16.8634 4.0164 17.5814 4.3255C18.2994 4.6346 18.9111 5.14731 19.3409 5.80026C19.7707 6.45322 19.9997 7.2178 19.9997 7.99951C19.9997 8.78123 19.7707 9.54581 19.3409 10.1988C18.9111 10.8517 18.2994 11.3644 17.5814 11.6735C16.8634 11.9826 16.0705 12.0746 15.3009 11.938C14.5312 11.8014 13.8184 11.4423 13.2505 10.905ZM15.4665 20C15.8065 19.412 16.0015 18.729 16.0015 18V17C16.0034 15.5238 15.4591 14.099 14.4735 13H18.0005C19.0614 13 20.0788 13.4214 20.829 14.1716C21.5791 14.9217 22.0005 15.9391 22.0005 17V18C22.0005 18.5304 21.7898 19.0392 21.4148 19.4142C21.0397 19.7893 20.531 20 20.0005 20H15.4665Z" fill="currentColor"/>
</svg>
