<svg viewBox="0 0 20 20" fill="none" xmlns="http://www.w3.org/2000/svg">
<g clip-path="url(#clip0_73_37994)">
<path d="M19.3336 12.3327L18.052 10.9116L16.6313 12.1933C16.4711 12.3378 16.4583 12.5847 16.6028 12.7448C16.7473 12.9054 16.9942 12.9179 17.1547 12.7733L17.6125 12.3605C17.0903 15.9815 13.7805 18.578 10.1125 18.1882C9.89809 18.1648 9.7059 18.3206 9.68286 18.5351C9.6602 18.7499 9.81567 18.9421 10.0301 18.9648C10.3028 18.994 10.5739 19.0081 10.8426 19.0081C14.602 19.0081 17.8547 16.2272 18.3887 12.4515L18.7536 12.8558C18.8305 12.9413 18.9372 12.9851 19.0438 12.9851C19.1371 12.9851 19.2305 12.9519 19.3051 12.8843C19.4653 12.7398 19.4782 12.4929 19.3336 12.3327Z" fill="currentColor"/>
<path d="M10.4883 10.0195V10.4102H18.6914V10.0195C18.6914 8.12539 17.4008 6.52695 15.6528 6.05782C16.4344 5.6668 16.9727 4.85781 16.9727 3.92578C16.9727 2.61171 15.9035 1.54297 14.5899 1.54297C13.2758 1.54297 12.2071 2.61171 12.2071 3.92578C12.2071 4.85781 12.745 5.66641 13.5266 6.05782C11.7785 6.52735 10.4883 8.12539 10.4883 10.0195Z" fill="currentColor"/>
<path d="M11.3121 2.46284L10.0617 1.0144C9.92072 0.85112 9.67424 0.832761 9.51096 0.973772C9.34768 1.11479 9.32932 1.36166 9.47033 1.52495L9.80627 1.91401C5.68518 1.60932 2.04573 4.66557 1.65237 8.79838C1.63206 9.01323 1.78948 9.20386 2.00432 9.22455C2.01682 9.22573 2.02932 9.22612 2.04182 9.22612C2.24104 9.22612 2.41096 9.07456 2.43049 8.87261C2.78596 5.13197 6.10432 2.37378 9.84104 2.70073L9.35315 3.12182C9.18987 3.26284 9.1719 3.50932 9.31291 3.6726C9.39026 3.76206 9.49924 3.80815 9.60862 3.80815C9.69924 3.80815 9.79026 3.7769 9.8637 3.71323L11.3121 2.46284Z" fill="currentColor"/>
<path d="M5.73089 14.7688C6.51253 14.3777 7.05081 13.5687 7.05081 12.6367C7.05081 11.3227 5.98167 10.2539 4.668 10.2539C3.35394 10.2539 2.28519 11.3227 2.28519 12.6367C2.28519 13.5687 2.82308 14.3773 3.60472 14.7688C1.85667 15.2383 0.566437 16.8363 0.566437 18.7305V19.1211H8.76956V18.7305C8.76956 16.8363 7.47894 15.2379 5.73089 14.7688Z" fill="currentColor"/>
</g>
<defs>
<clipPath id="clip0_73_37994">
<rect width="20" height="20" fill="white"/>
</clipPath>
</defs>
</svg>
