<svg viewBox="0 0 20 20" fill="none" xmlns="http://www.w3.org/2000/svg">
<path d="M2.33291 4.33337L5.83291 6.6667L9.32124 1.78337C9.39833 1.67534 9.50008 1.58728 9.61808 1.52653C9.73608 1.46578 9.86683 1.43408 9.99958 1.43408C10.1323 1.43408 10.2631 1.46578 10.3811 1.52653C10.4991 1.58728 10.6008 1.67534 10.6779 1.78337L14.1662 6.6667L17.6662 4.33337C17.7987 4.24523 17.9537 4.19687 18.1127 4.19397C18.2717 4.19108 18.4283 4.23379 18.5639 4.31705C18.6995 4.4003 18.8084 4.52063 18.8777 4.66381C18.9472 4.80698 18.9741 4.96703 18.9554 5.12503L17.5862 16.7642C17.5623 16.9669 17.4649 17.1538 17.3124 17.2894C17.1598 17.425 16.9628 17.5 16.7587 17.5H3.24041C3.0363 17.5 2.8393 17.425 2.68677 17.2894C2.53424 17.1538 2.4368 16.9669 2.41291 16.7642L1.04375 5.1242C1.02525 4.96627 1.05232 4.80634 1.12176 4.66329C1.19121 4.52025 1.30013 4.40006 1.43567 4.31692C1.57121 4.23377 1.72771 4.19113 1.8867 4.19405C2.04568 4.19697 2.20051 4.24531 2.33291 4.33337ZM9.99958 12.5C10.4416 12.5 10.8655 12.3244 11.1781 12.0119C11.4907 11.6993 11.6662 11.2754 11.6662 10.8334C11.6662 10.3914 11.4907 9.96744 11.1781 9.65486C10.8655 9.34227 10.4416 9.16669 9.99958 9.16669C9.55758 9.16669 9.13366 9.34227 8.82108 9.65486C8.50849 9.96744 8.33291 10.3914 8.33291 10.8334C8.33291 11.2754 8.50849 11.6993 8.82108 12.0119C9.13366 12.3244 9.55758 12.5 9.99958 12.5Z" fill="#A8ADBD" fill-opacity="0.6"/>
<path d="M9.09403 1.67467C9.4838 1.07244 10.3622 1.06437 10.7629 1.65934L14.1601 6.70269H5.83982L9.09403 1.67467Z" fill="#5256FF"/>
</svg>
