<svg viewBox="0 0 48 46" fill="none" xmlns="http://www.w3.org/2000/svg">
<g filter="url(#filter0_d_1215_9834)">
<path d="M14.0401 16.6333L18.589 19.6666L23.1238 13.3172C23.224 13.1768 23.3563 13.0623 23.5097 12.9833C23.6631 12.9044 23.8331 12.8632 24.0056 12.8632C24.1782 12.8632 24.3482 12.9044 24.5016 12.9833C24.655 13.0623 24.7873 13.1768 24.8875 13.3172L29.4223 19.6656L33.9723 16.6333C34.1444 16.5188 34.3457 16.456 34.5524 16.4522C34.7591 16.4484 34.9625 16.5038 35.1387 16.6119C35.3149 16.72 35.4565 16.8763 35.5468 17.0622C35.6371 17.2482 35.6723 17.4561 35.6482 17.6614L33.8694 32.7923C33.8386 33.056 33.712 33.2992 33.5137 33.4758C33.3154 33.6523 33.0592 33.7499 32.7936 33.75H15.2187C14.9532 33.7499 14.697 33.6523 14.4987 33.4758C14.3003 33.2992 14.1738 33.056 14.143 32.7923L12.3631 17.6625C12.3386 17.4569 12.3735 17.2486 12.4638 17.0623C12.554 16.876 12.6957 16.7194 12.8722 16.6111C13.0486 16.5029 13.2524 16.4474 13.4594 16.4513C13.6663 16.4553 13.8679 16.5184 14.0401 16.6333ZM24.0067 27.25C24.5814 27.25 25.1325 27.0217 25.5388 26.6154C25.9451 26.209 26.1734 25.6579 26.1734 25.0833C26.1734 24.5087 25.9451 23.9576 25.5388 23.5512C25.1325 23.1449 24.5814 22.9166 24.0067 22.9166C23.4321 22.9166 22.881 23.1449 22.4747 23.5512C22.0683 23.9576 21.8401 24.5087 21.8401 25.0833C21.8401 25.6579 22.0683 26.209 22.4747 26.6154C22.881 27.0217 23.4321 27.25 24.0067 27.25Z" fill="currentColor"/>
</g>
<defs>
<filter id="filter0_d_1215_9834" x="0.355469" y="0.863159" width="47.3003" height="44.8868" filterUnits="userSpaceOnUse" color-interpolation-filters="sRGB">
<feFlood flood-opacity="0" result="BackgroundImageFix"/>
<feColorMatrix in="SourceAlpha" type="matrix" values="0 0 0 0 0 0 0 0 0 0 0 0 0 0 0 0 0 0 127 0" result="hardAlpha"/>
<feOffset/>
<feGaussianBlur stdDeviation="6"/>
<feComposite in2="hardAlpha" operator="out"/>
<feColorMatrix type="matrix" values="0 0 0 0 0.984314 0 0 0 0 0.792157 0 0 0 0 0.215686 0 0 0 0.32 0"/>
<feBlend mode="normal" in2="BackgroundImageFix" result="effect1_dropShadow_1215_9834"/>
<feBlend mode="normal" in="SourceGraphic" in2="effect1_dropShadow_1215_9834" result="shape"/>
</filter>
</defs>
</svg>
