<svg viewBox="0 0 20 20" fill="none" xmlns="http://www.w3.org/2000/svg">
<path d="M2.33334 4.33337L5.83334 6.6667L9.32167 1.78337C9.39876 1.67534 9.50051 1.58728 9.61851 1.52653C9.73651 1.46578 9.86726 1.43408 10 1.43408C10.1328 1.43408 10.2635 1.46578 10.3815 1.52653C10.4995 1.58728 10.6013 1.67534 10.6783 1.78337L14.1667 6.6667L17.6667 4.33337C17.7992 4.24523 17.9541 4.19687 18.1131 4.19397C18.2722 4.19108 18.4288 4.23379 18.5643 4.31705C18.6999 4.4003 18.8088 4.52063 18.8782 4.66381C18.9476 4.80698 18.9745 4.96703 18.9558 5.12503L17.5867 16.7642C17.5628 16.9669 17.4653 17.1538 17.3128 17.2894C17.1603 17.425 16.9633 17.5 16.7592 17.5H3.24084C3.03673 17.5 2.83972 17.425 2.6872 17.2894C2.53466 17.1538 2.43722 16.9669 2.41334 16.7642L1.04417 5.1242C1.02567 4.96627 1.05275 4.80634 1.12219 4.66329C1.19164 4.52025 1.30056 4.40006 1.4361 4.31692C1.57164 4.23377 1.72814 4.19113 1.88712 4.19405C2.04611 4.19697 2.20094 4.24531 2.33334 4.33337ZM10 12.5C10.442 12.5 10.8659 12.3244 11.1785 12.0119C11.4911 11.6993 11.6667 11.2754 11.6667 10.8334C11.6667 10.3914 11.4911 9.96744 11.1785 9.65486C10.8659 9.34227 10.442 9.16669 10 9.16669C9.55801 9.16669 9.13409 9.34227 8.82151 9.65486C8.50892 9.96744 8.33334 10.3914 8.33334 10.8334C8.33334 11.2754 8.50892 11.6993 8.82151 12.0119C9.13409 12.3244 9.55801 12.5 10 12.5Z" fill="currentColor"/>
<path d="M9.09403 1.67461C9.4838 1.07238 10.3622 1.06431 10.7629 1.65928L14.1601 6.70263H5.83983L9.09403 1.67461Z" fill="currentColor"/>
</svg>
