<svg width="15" height="20" viewBox="0 0 15 20" fill="none" xmlns="http://www.w3.org/2000/svg">
<path fill-rule="evenodd" clip-rule="evenodd" d="M9.46247 9.80493C8.21003 9.80493 7.0688 10.2966 6.21446 11.0985L6.98286 11.881C7.64005 11.2787 8.50955 10.9106 9.4612 10.9106C10.4129 10.9106 11.2609 11.2529 11.9421 11.8785L12.713 11.0933C11.8574 10.294 10.7149 9.80493 9.46247 9.80493ZM9.46247 16.7849C9.37274 16.7849 9.29312 16.7244 9.26658 16.6382L8.86342 15.2983L7.56043 14.8877C7.47449 14.8607 7.41635 14.7796 7.41635 14.6869C7.41635 14.5943 7.47701 14.5145 7.56169 14.4874L8.86342 14.0897L9.26658 12.7511C9.29312 12.6636 9.37274 12.6044 9.46247 12.6044C9.5522 12.6044 9.63182 12.6649 9.65836 12.7511L10.0615 14.0897L11.3759 14.4887C11.4631 14.5145 11.5212 14.5955 11.5212 14.6882C11.5212 14.7809 11.4618 14.862 11.3771 14.889L10.0615 15.2996L9.65836 16.6395C9.63056 16.7244 9.5522 16.7849 9.46247 16.7849ZM8.32251 14.6908L9.08711 14.9315C9.15283 14.9521 9.20212 15.0036 9.22234 15.0692L9.4612 15.8646L9.70006 15.0692C9.72029 15.0023 9.77084 14.9508 9.83529 14.9315L10.6062 14.6908L9.83656 14.4578C9.77084 14.4385 9.71902 14.3857 9.70006 14.3188L9.4612 13.5234L9.22234 14.3188C9.20212 14.3857 9.15031 14.4372 9.08585 14.4565L8.32251 14.6908ZM5.92631 11.3945C5.18824 12.2157 4.7219 13.2943 4.67261 14.4797H5.76075C5.80751 13.598 6.1538 12.7962 6.69598 12.1771L5.92631 11.3945ZM4.67261 14.8967C4.7219 16.0873 5.18951 17.1698 5.92884 17.9935L6.6985 17.2097C6.15506 16.588 5.80878 15.7823 5.76075 14.8967H4.67261ZM6.21699 18.2883C7.02457 19.0477 8.08744 19.529 9.25773 19.5792V18.471C8.38696 18.4221 7.59455 18.0656 6.98539 17.5044L6.21699 18.2883ZM9.66721 19.5792C10.8388 19.529 11.9029 19.0502 12.713 18.2921L11.9433 17.5083C11.314 18.0875 10.5178 18.4247 9.66721 18.471V19.5792ZM13.0012 17.9974C13.7455 17.1723 14.2157 16.0886 14.265 14.8967H13.1642C13.1187 15.7604 12.7926 16.57 12.2302 17.2135L13.0012 17.9974ZM14.265 14.4797C14.2157 13.2904 13.7455 12.2105 13.0024 11.3894L12.2302 12.1758C12.7914 12.8155 13.1187 13.6212 13.1642 14.4797H14.265ZM9.46247 11.3289C8.56137 11.3289 7.74368 11.6983 7.14842 12.2968C7.1421 12.3058 7.13452 12.3148 7.12694 12.3225C7.11935 12.3302 7.11177 12.338 7.10292 12.3431C6.52283 12.9493 6.16391 13.7769 6.16391 14.6882C6.16391 15.5995 6.53168 16.4567 7.12567 17.0668L7.12694 17.0681L7.13073 17.0732C7.72851 17.6833 8.55252 18.0617 9.46247 18.0617C10.3724 18.0617 11.1977 17.6833 11.7942 17.0719L11.798 17.0681C12.392 16.458 12.7598 15.6175 12.761 14.6895V14.6882C12.761 13.7769 12.4021 12.9493 11.822 12.3444C11.8132 12.338 11.8056 12.3315 11.798 12.3238C11.7904 12.3161 11.7828 12.3071 11.7765 12.2981C11.1813 11.6983 10.3636 11.3289 9.46247 11.3289Z" fill="#F8043F"/>
<path fill-rule="evenodd" clip-rule="evenodd" d="M8.72012 20H1.95618C1.44054 20 1.02222 19.574 1.02222 19.0489V18.5803C1.02222 18.3255 1.11448 18.09 1.28256 17.9162C1.44559 17.7334 1.69204 17.6292 1.95491 17.6292C3.01778 17.5146 4.13626 17.5532 5.17006 17.691C5.30655 17.8943 5.45821 18.0887 5.62377 18.2727L5.63641 18.2856L5.62503 18.2972L5.7729 18.4362L5.91445 18.5932L5.92708 18.5803L5.93846 18.5906C6.77258 19.3758 7.82786 19.8597 8.95266 19.9717C8.94255 19.973 8.9337 19.9756 8.92486 19.9769C8.85661 19.9884 8.79215 20 8.72012 20Z" fill="white"/>
<path fill-rule="evenodd" clip-rule="evenodd" d="M1.11574 17.5111C1.05634 17.3862 1.02222 17.2459 1.02222 17.0966V16.6152C1.02222 16.0901 1.44054 15.6641 1.95618 15.6641H4.34605C4.45348 16.251 4.65695 16.8122 4.94763 17.3283C4.38776 17.2601 3.82789 17.2189 3.28697 17.2022C2.83579 17.188 2.38461 17.1906 1.93469 17.215C1.63896 17.2305 1.34828 17.3257 1.11574 17.5111Z" fill="white" fill-opacity="0.5"/>
<path fill-rule="evenodd" clip-rule="evenodd" d="M0.730687 16.0593C0.313627 15.964 0.00146484 15.5856 0.00146484 15.1313V14.6628C0.00146484 14.1376 0.419787 13.7129 0.935424 13.7129H4.34773C4.30223 13.9587 4.27443 14.2097 4.26431 14.4633L4.26305 14.4813H4.24536L4.2542 14.6924L4.24536 14.8983H4.26179L4.26305 14.9163C4.26811 15.0283 4.27569 15.1403 4.28706 15.251H1.95659C1.41062 15.2484 0.94048 15.5818 0.730687 16.0593Z" fill="white"/>
<path fill-rule="evenodd" clip-rule="evenodd" d="M1.0298 13.2943C1.02474 13.2557 1.02222 13.2171 1.02222 13.1772V12.6958C1.02222 12.1707 1.44054 11.7446 1.95618 11.7446H5.13594C4.82251 12.2209 4.5887 12.7434 4.44084 13.2943H1.0298Z" fill="white" fill-opacity="0.5"/>
<path fill-rule="evenodd" clip-rule="evenodd" d="M2.04103 11.3285C2.03597 11.2899 2.03345 11.2513 2.03345 11.2114V10.7429C2.03345 10.703 2.03597 10.6643 2.04103 10.6257H6.12442C6.06123 10.6798 5.99804 10.7351 5.93737 10.7931L5.926 10.8046L5.91336 10.7918L5.7756 10.9449L5.62521 11.0865L5.63785 11.0994L5.62647 11.1123C5.5557 11.1908 5.48745 11.2719 5.42174 11.3542C5.36613 11.3375 5.30673 11.3285 5.2448 11.3285H2.04103Z" fill="white"/>
<path fill-rule="evenodd" clip-rule="evenodd" d="M6.68285 10.2089H1.95618C1.44054 10.2089 1.02222 9.78289 1.02222 9.25904V8.79053C1.02222 8.25767 1.43296 7.83936 1.95618 7.83936H8.72012C9.23575 7.83936 9.65281 8.26539 9.65281 8.79053V9.25904C9.65281 9.3028 9.64902 9.34656 9.64144 9.39289C9.58078 9.39032 9.52137 9.39032 9.46071 9.39032C8.46862 9.38775 7.50812 9.67477 6.68285 10.2089Z" fill="white"/>
<path fill-rule="evenodd" clip-rule="evenodd" d="M0.727958 8.23232C0.55987 8.19241 0.403157 8.10489 0.276776 7.97489C0.0985775 7.79341 0 7.55658 0 7.3056V6.82422C0 6.57323 0.0985775 6.33641 0.276776 6.15492C0.454973 5.97344 0.687515 5.87305 0.93396 5.87305H7.6979C8.21354 5.87305 8.63186 6.29908 8.63186 6.82293V7.30431C8.63186 7.34421 8.62933 7.38282 8.62428 7.42144H1.95765C1.4041 7.42272 0.935224 7.75222 0.727958 8.23232Z" fill="white" fill-opacity="0.5"/>
<path fill-rule="evenodd" clip-rule="evenodd" d="M1.02976 5.45624C1.0247 5.41763 1.02344 5.37901 1.02344 5.33911V4.87061C1.02344 4.33774 1.43418 3.91943 1.9574 3.91943H8.72007C9.23571 3.91943 9.65277 4.34547 9.65277 4.87061V5.33911C9.65277 5.79218 9.34061 6.17187 8.92355 6.26712C8.71376 5.7896 8.24362 5.45624 7.69765 5.45624H1.02976Z" fill="white"/>
<path fill-rule="evenodd" clip-rule="evenodd" d="M2.04103 3.50329C2.03597 3.46468 2.03345 3.42606 2.03345 3.38616V2.90479C2.03345 2.6538 2.13203 2.41697 2.31022 2.23549C2.48842 2.05401 2.72096 1.95361 2.96741 1.95361H9.73135C9.97779 1.95361 10.2103 2.05401 10.3885 2.23549C10.5667 2.41697 10.6653 2.65509 10.6653 2.90479V3.38616C10.6653 3.63715 10.5667 3.87398 10.3885 4.05546C10.2634 4.18288 10.1118 4.27041 9.9462 4.31031C9.7364 3.83408 9.26626 3.50329 8.72156 3.50329H2.04103Z" fill="white" fill-opacity="0.5"/>
<path fill-rule="evenodd" clip-rule="evenodd" d="M1.74255 2.3464C1.32549 2.24986 1.02344 1.87789 1.02344 1.41968V0.951173C1.02344 0.426033 1.44176 0 1.9574 0H8.72007C8.96652 0 9.19906 0.100394 9.37726 0.281877C9.55546 0.463359 9.65403 0.701474 9.65403 0.951173V1.41968C9.65403 1.45958 9.65151 1.49819 9.64645 1.53681H2.96719C2.60953 1.53681 2.27335 1.68225 2.02059 1.93967C1.90305 2.05937 1.80953 2.19709 1.74255 2.3464Z" fill="white"/>
</svg>
