<svg width="41" height="42" viewBox="0 0 41 42" fill="none" xmlns="http://www.w3.org/2000/svg">
<g filter="url(#filter0_f_694_8116)">
<path d="M17.683 7L16.4802 9.33419H24.3884L23.5018 7L20.3654 7.47936L17.683 7Z" fill="url(#paint0_linear_694_8116)"/>
<path d="M30.0454 31.0037C35.3172 25.6751 35.3172 17.0358 30.0454 11.7073C24.7736 6.3787 16.2263 6.3787 10.9544 11.7073C5.6826 17.0358 5.6826 25.6751 10.9544 31.0037C16.2263 36.3322 24.7736 36.3322 30.0454 31.0037Z" fill="url(#paint1_linear_694_8116)"/>
<path d="M29.101 30.0492C33.8513 25.2478 33.8513 17.4632 29.101 12.6618C24.3507 7.86038 16.649 7.86038 11.8987 12.6618C7.14847 17.4632 7.14847 25.2478 11.8987 30.0492C16.649 34.8506 24.3507 34.8506 29.101 30.0492Z" fill="url(#paint2_linear_694_8116)"/>
<path d="M32.3989 21.3557C32.3989 27.9978 27.0707 33.382 20.5006 33.382C13.9305 33.382 8.60107 27.9978 8.60107 21.3557C8.60107 14.7136 13.928 9.32812 20.5006 9.32812C27.0732 9.32812 32.3989 14.7123 32.3989 21.3557Z" fill="url(#paint3_radial_694_8116)"/>
<path d="M11.8412 29.6044L20.5006 21.3555L9.10059 24.812C9.63808 26.6272 10.5879 28.2609 11.8412 29.6044Z" fill="url(#paint4_linear_694_8116)"/>
<path d="M20.5005 33.3811C21.4427 33.3811 22.3596 33.2699 23.2386 33.0602L20.5005 21.3535L17.7625 33.0602C18.6414 33.2699 19.5583 33.3811 20.5018 33.3811H20.5005Z" fill="url(#paint5_linear_694_8116)"/>
<path d="M31.8992 24.8101L20.4993 21.3535L29.1574 29.6024C30.4107 28.2589 31.3605 26.6252 31.898 24.8101H31.8992Z" fill="url(#paint6_linear_694_8116)"/>
<path d="M29.1586 13.1074L20.5005 21.3563L31.9005 17.8998C31.363 16.0846 30.4132 14.4509 29.1599 13.1074H29.1586Z" fill="url(#paint7_linear_694_8116)"/>
<path d="M9.10059 17.8998L20.5006 21.3563L11.8412 13.1074C10.5879 14.4509 9.63808 16.0846 9.10059 17.8998Z" fill="url(#paint8_linear_694_8116)"/>
<path d="M20.5006 9.32812C19.5584 9.32812 18.6415 9.43934 17.7612 9.64898L20.4993 21.3557L23.2374 9.64898C22.3584 9.43934 21.4415 9.32812 20.4993 9.32812H20.5006Z" fill="url(#paint9_linear_694_8116)"/>
<path d="M20.1816 12.625H21.01V12.8615H20.3625V13.0174H20.1816V12.625Z" fill="white"/>
<path d="M20.9759 12.3216C20.9418 12.3779 20.8924 12.4213 20.8279 12.452C20.7634 12.484 20.6863 12.4993 20.5965 12.4993C20.5067 12.4993 20.4308 12.484 20.3651 12.452C20.3006 12.42 20.25 12.3766 20.2171 12.3216C20.1829 12.2654 20.1665 12.2015 20.1665 12.1299C20.1665 12.0583 20.1829 11.9956 20.2171 11.9394C20.2512 11.8832 20.3006 11.8397 20.3651 11.809C20.4296 11.7771 20.5067 11.7617 20.5965 11.7617C20.6863 11.7617 20.7634 11.7771 20.8279 11.809C20.8924 11.841 20.943 11.8844 20.9759 11.9394C21.0101 11.9956 21.0265 12.0583 21.0265 12.1299C21.0265 12.2015 21.0101 12.2654 20.9759 12.3216ZM20.7774 12.0353C20.7394 12.0123 20.6787 11.9995 20.5952 11.9995C20.5118 11.9995 20.4523 12.011 20.4131 12.0353C20.3752 12.0583 20.3562 12.0902 20.3562 12.1299C20.3562 12.1695 20.3752 12.2027 20.4131 12.2257C20.4511 12.2488 20.5118 12.2615 20.5952 12.2615C20.6787 12.2615 20.7381 12.25 20.7774 12.2257C20.8153 12.2027 20.8343 12.1695 20.8343 12.1299C20.8343 12.0902 20.8153 12.0583 20.7774 12.0353Z" fill="white"/>
<path d="M20.9292 11.043C20.9772 11.0903 21.0076 11.1593 21.0202 11.2488H21.1518V11.3919H21.0253C21.0215 11.452 21.0114 11.5083 20.9949 11.562C20.9785 11.6156 20.9583 11.6591 20.9355 11.6949L20.7622 11.6169C20.7863 11.5799 20.8065 11.5364 20.8217 11.4865C20.8368 11.4367 20.8444 11.3881 20.8444 11.3408C20.8444 11.25 20.8217 11.204 20.7774 11.204C20.7534 11.204 20.7357 11.2168 20.7243 11.2424C20.7129 11.2679 20.7003 11.3101 20.6876 11.3677C20.6737 11.4303 20.6598 11.4827 20.6446 11.5262C20.6294 11.5683 20.6041 11.6041 20.57 11.6348C20.5358 11.6655 20.4903 11.6808 20.4334 11.6808C20.3651 11.6808 20.3069 11.6565 20.2589 11.6067C20.2108 11.5568 20.1805 11.4853 20.1691 11.3932H20.0388V11.25H20.1666C20.1703 11.204 20.1779 11.1606 20.1906 11.1184C20.202 11.0762 20.2184 11.0391 20.2374 11.0072L20.4119 11.08C20.3689 11.1593 20.3474 11.2373 20.3474 11.3127C20.3474 11.36 20.3537 11.3945 20.3676 11.415C20.3816 11.4367 20.3993 11.4469 20.422 11.4469C20.4448 11.4469 20.4612 11.4341 20.4713 11.4086C20.4827 11.383 20.4941 11.3421 20.5055 11.2858C20.5194 11.2219 20.5333 11.1695 20.5485 11.1273C20.5637 11.0851 20.589 11.0494 20.6218 11.0187C20.656 10.988 20.7015 10.9727 20.7584 10.9727C20.8242 10.9727 20.8798 10.9969 20.9279 11.0442L20.9292 11.043Z" fill="white"/>
<path d="M20.1703 30.129H19.9844V29.4771H20.1311L20.4207 29.7902C20.4485 29.8209 20.4738 29.8414 20.494 29.8516C20.5143 29.8618 20.5345 29.8669 20.5548 29.8669C20.5813 29.8669 20.6028 29.858 20.618 29.8401C20.6332 29.8222 20.6408 29.7954 20.6408 29.7596C20.6408 29.7289 20.6344 29.6995 20.6205 29.6739C20.6066 29.6483 20.5864 29.6266 20.5611 29.61L20.6585 29.4336C20.7116 29.4668 20.7546 29.5116 20.7849 29.5717C20.8153 29.6305 20.8317 29.7008 20.8317 29.7813C20.8317 29.8452 20.8216 29.9015 20.8014 29.95C20.7811 29.9986 20.7508 30.037 20.7128 30.0651C20.6749 30.0919 20.6306 30.106 20.58 30.106C20.5345 30.106 20.4928 30.0958 20.4523 30.0766C20.4131 30.0574 20.3676 30.0191 20.317 29.9641L20.1728 29.8056V30.129H20.1703Z" fill="white"/>
<path d="M20.0186 30.3749C20.0528 30.3187 20.1021 30.2752 20.1666 30.2446C20.2311 30.2126 20.3082 30.1973 20.398 30.1973C20.4878 30.1973 20.5637 30.2126 20.6295 30.2446C20.694 30.2765 20.7445 30.32 20.7774 30.3749C20.8116 30.4312 20.828 30.4951 20.828 30.5667C20.828 30.6383 20.8116 30.7009 20.7774 30.7572C20.7433 30.8134 20.694 30.8569 20.6295 30.8876C20.565 30.9195 20.4878 30.9348 20.398 30.9348C20.3082 30.9348 20.2311 30.9195 20.1666 30.8876C20.1021 30.8556 20.0515 30.8121 20.0186 30.7572C19.9845 30.7009 19.968 30.6383 19.968 30.5667C19.968 30.4951 19.9845 30.4312 20.0186 30.3749ZM20.2172 30.6613C20.2551 30.6843 20.3158 30.6971 20.3993 30.6971C20.4827 30.6971 20.5422 30.6856 20.5814 30.6613C20.6193 30.6383 20.6383 30.6063 20.6383 30.5667C20.6383 30.5271 20.6193 30.4938 20.5814 30.4708C20.5435 30.4478 20.4827 30.435 20.3993 30.435C20.3158 30.435 20.2564 30.4465 20.2172 30.4708C20.1792 30.4938 20.1603 30.5258 20.1603 30.5667C20.1603 30.6076 20.1792 30.6383 20.2172 30.6613Z" fill="white"/>
<path d="M20.0654 31.6539C20.0173 31.6066 19.9869 31.5376 19.9743 31.4481H19.8428V31.3049H19.9692C19.973 31.2448 19.9832 31.1886 19.9996 31.1349C20.016 31.0812 20.0363 31.0377 20.059 31.002L20.2323 31.0799C20.2083 31.117 20.188 31.1605 20.1729 31.2103C20.1577 31.2602 20.1501 31.3087 20.1501 31.356C20.1501 31.4468 20.1729 31.4928 20.2171 31.4928C20.2412 31.4928 20.2589 31.48 20.2702 31.4545C20.2816 31.4289 20.2943 31.3867 20.3069 31.3292C20.3208 31.2666 20.3347 31.2129 20.3499 31.1707C20.3651 31.1285 20.3904 31.0914 20.4245 31.062C20.4587 31.0314 20.5042 31.016 20.5611 31.016C20.6294 31.016 20.6876 31.0403 20.7356 31.0902C20.7837 31.14 20.8141 31.2103 20.8254 31.3036H20.9557V31.4468H20.828C20.8242 31.4928 20.8166 31.5363 20.8039 31.5772C20.7926 31.6194 20.7761 31.6564 20.7571 31.6884L20.5826 31.6155C20.6256 31.5363 20.6471 31.4583 20.6471 31.3829C20.6471 31.3356 20.6408 31.3011 20.6269 31.2806C20.613 31.2589 20.5953 31.2487 20.5725 31.2487C20.5497 31.2487 20.5333 31.2614 20.5232 31.287C20.5118 31.3126 20.5004 31.3535 20.489 31.4097C20.4751 31.4736 20.4612 31.5261 20.446 31.5682C20.4309 31.6104 20.4056 31.6462 20.3727 31.6769C20.3385 31.7076 20.293 31.7229 20.2361 31.7229C20.1703 31.7229 20.1147 31.6986 20.0666 31.6513L20.0654 31.6539Z" fill="white"/>
<path d="M28.9044 16.8616L28.9967 17.024L28.4377 17.3486L28.3643 17.2195L28.4895 16.8092C28.5009 16.7696 28.5073 16.7376 28.506 16.7146C28.5047 16.6916 28.4997 16.6711 28.4895 16.6532C28.4756 16.6302 28.4579 16.6162 28.4352 16.6123C28.4124 16.6085 28.3858 16.6149 28.3555 16.6328C28.3289 16.6481 28.3074 16.6686 28.2923 16.6929C28.2771 16.7184 28.2682 16.7453 28.267 16.7772L28.0671 16.7798C28.0684 16.7159 28.0874 16.6571 28.1228 16.6008C28.1582 16.5446 28.21 16.496 28.2796 16.4564C28.334 16.4244 28.3884 16.4053 28.4402 16.3989C28.4921 16.3925 28.5401 16.3989 28.5831 16.4193C28.6261 16.4398 28.659 16.4717 28.6843 16.5152C28.7071 16.5548 28.7197 16.597 28.7223 16.6417C28.7248 16.6865 28.7159 16.7453 28.6919 16.8169L28.6287 17.0227L28.9056 16.8616H28.9044Z" fill="white"/>
<path d="M29.562 16.6013C29.5455 16.6665 29.5013 16.7279 29.4304 16.7841L29.4962 16.8992L29.3735 16.9708L29.3103 16.8595C29.2572 16.8864 29.2028 16.9056 29.1497 16.9171C29.0953 16.9299 29.0485 16.9337 29.0055 16.9311L28.9865 16.7407C29.0308 16.7432 29.0776 16.7394 29.1282 16.7279C29.1775 16.7164 29.223 16.6985 29.2648 16.6755C29.3432 16.6307 29.371 16.5885 29.3482 16.5489C29.3369 16.5285 29.3166 16.5195 29.2888 16.5221C29.261 16.5246 29.2192 16.5349 29.1636 16.5528C29.1029 16.5719 29.051 16.586 29.0068 16.5937C28.9625 16.6013 28.9195 16.5975 28.8765 16.5834C28.8335 16.5681 28.7981 16.5361 28.769 16.485C28.7349 16.4262 28.7273 16.3623 28.7462 16.2945C28.764 16.2268 28.8107 16.1654 28.8854 16.1092L28.8209 15.9954L28.9435 15.9238L29.0068 16.0363C29.0472 16.0171 29.089 16.0031 29.1307 15.9916C29.1725 15.9814 29.2117 15.9762 29.2496 15.9762L29.2736 16.1654C29.1838 16.168 29.1067 16.1872 29.0422 16.2242C29.0017 16.2472 28.9752 16.2702 28.9638 16.2933C28.9524 16.3163 28.9524 16.3367 28.9638 16.3572C28.9752 16.3776 28.9941 16.3853 29.022 16.3815C29.0498 16.3789 29.0902 16.3687 29.1446 16.3508C29.2066 16.3303 29.2584 16.3175 29.3027 16.3099C29.3457 16.3022 29.39 16.306 29.433 16.3201C29.476 16.3342 29.5114 16.3661 29.5405 16.4173C29.5734 16.4748 29.5809 16.5361 29.5632 16.6013H29.562Z" fill="white"/>
<path d="M13.0893 26.0077L12.677 25.2817L12.8806 25.1641L13.2019 25.7316L13.3359 25.6549L13.4257 25.8134L13.0893 26.009V26.0077Z" fill="white"/>
<path d="M12.304 26.0283C12.2319 26.0142 12.1763 25.9733 12.137 25.9043C12.1118 25.8596 12.0991 25.811 12.1016 25.7599C12.1029 25.7087 12.1206 25.6589 12.1548 25.609C12.1889 25.5592 12.2408 25.5144 12.3103 25.4748C12.3609 25.4454 12.4153 25.4224 12.4709 25.4058C12.5278 25.3891 12.581 25.3828 12.629 25.3853L12.6442 25.5822C12.605 25.5796 12.5645 25.5822 12.524 25.5924C12.4836 25.6026 12.4456 25.6167 12.4115 25.6371C12.3761 25.6576 12.352 25.6806 12.3394 25.7062C12.3268 25.7317 12.3268 25.756 12.3394 25.7803C12.3533 25.8046 12.3735 25.8174 12.4014 25.8174C12.4292 25.8174 12.4684 25.8033 12.5203 25.7726L12.715 25.6601L12.9199 26.105L12.4621 26.3709L12.3723 26.2124L12.6619 26.0449L12.6113 25.9337L12.5633 25.9618C12.4621 26.0206 12.3761 26.0424 12.3053 26.0283H12.304Z" fill="white"/>
<path d="M11.4402 26.0921C11.4567 26.0269 11.501 25.9655 11.5718 25.9093L11.506 25.7942L11.6287 25.7227L11.6919 25.8339C11.745 25.807 11.7994 25.7878 11.8525 25.7763C11.9069 25.7636 11.9537 25.7597 11.9967 25.7623L12.0157 25.9527C11.9714 25.9502 11.9246 25.954 11.874 25.9655C11.8235 25.977 11.7792 25.9949 11.7375 26.0179C11.659 26.0627 11.6312 26.1049 11.654 26.1445C11.6654 26.1649 11.6856 26.1739 11.7134 26.1713C11.7412 26.1688 11.783 26.1586 11.8386 26.1407C11.8993 26.1215 11.9512 26.1074 11.9954 26.0998C12.0397 26.0921 12.0827 26.0959 12.1257 26.11C12.1687 26.1253 12.2041 26.1573 12.2332 26.2084C12.2674 26.2685 12.2749 26.3311 12.256 26.3989C12.2383 26.4666 12.1915 26.528 12.1169 26.5842L12.1814 26.698L12.0587 26.7696L11.9954 26.6571C11.955 26.6763 11.9132 26.6916 11.8715 26.7018C11.8298 26.7121 11.7906 26.7172 11.7526 26.7172L11.7286 26.528C11.8184 26.5254 11.8955 26.5063 11.96 26.4692C12.0005 26.4462 12.0258 26.4232 12.0384 26.4002C12.0498 26.3771 12.0498 26.3567 12.0384 26.3375C12.0271 26.3183 12.0081 26.3094 11.9803 26.3132C11.9524 26.3158 11.912 26.3273 11.8576 26.3439C11.7956 26.3644 11.7438 26.3771 11.6995 26.3848C11.6565 26.3925 11.6122 26.3887 11.5692 26.3746C11.5262 26.3605 11.4908 26.3286 11.4617 26.2774C11.4289 26.2199 11.4213 26.1586 11.439 26.0934L11.4402 26.0921Z" fill="white"/>
<path d="M28.807 25.898L28.3884 26.6202L28.186 26.5L28.5136 25.935L28.3808 25.8558L28.4719 25.6973L28.807 25.8954V25.898Z" fill="white"/>
<path d="M29.0801 26.9348C29.0156 26.9527 28.941 26.9437 28.8575 26.9105L28.7905 27.0255L28.6678 26.9527L28.7323 26.8427C28.683 26.8095 28.64 26.7711 28.602 26.7302C28.5641 26.6893 28.5375 26.6497 28.5186 26.6113L28.6728 26.5001C28.6931 26.541 28.7196 26.5794 28.7538 26.6177C28.7879 26.6561 28.8259 26.6868 28.8676 26.7111C28.9448 26.7571 28.9953 26.7609 29.0181 26.7213C29.0295 26.7008 29.0282 26.6791 29.0118 26.6561C28.9953 26.6331 28.9663 26.6011 28.9233 26.5615C28.8765 26.518 28.8385 26.4784 28.8107 26.4439C28.7829 26.4094 28.7639 26.3697 28.7551 26.3237C28.7462 26.279 28.7563 26.2317 28.7854 26.1806C28.8196 26.1218 28.8701 26.0834 28.9372 26.0655C29.0042 26.0489 29.0801 26.0578 29.1648 26.0962L29.2306 25.9824L29.3533 26.0553L29.2888 26.1665C29.3254 26.1933 29.3583 26.2215 29.3887 26.2534C29.419 26.2854 29.443 26.3173 29.4608 26.3506L29.3103 26.4656C29.2635 26.3876 29.2091 26.3301 29.1446 26.293C29.1041 26.2688 29.0712 26.2585 29.0459 26.2585C29.0206 26.2585 29.0017 26.27 28.9916 26.2892C28.9802 26.3084 28.9827 26.3301 28.9991 26.3519C29.0156 26.3749 29.0447 26.4055 29.0864 26.4439C29.1345 26.4874 29.1724 26.527 29.2002 26.5615C29.228 26.596 29.247 26.6356 29.2559 26.6804C29.2647 26.7251 29.2559 26.7724 29.2255 26.8235C29.1926 26.8811 29.1433 26.9181 29.0788 26.936L29.0801 26.9348Z" fill="white"/>
<path d="M12.1965 16.7984L12.6151 16.0762L12.8175 16.1963L12.4899 16.7613L12.6227 16.8406L12.5317 16.9991L12.1965 16.801V16.7984Z" fill="white"/>
<path d="M11.9246 15.7607C11.9891 15.7428 12.0637 15.7517 12.1472 15.785L12.2142 15.6699L12.3369 15.7428L12.2724 15.8527C12.3217 15.886 12.3647 15.9243 12.4026 15.9652C12.4406 16.0061 12.4684 16.0457 12.4861 16.0841L12.3318 16.1953C12.3116 16.1544 12.285 16.1161 12.2509 16.0777C12.2167 16.0394 12.1788 16.0087 12.1383 15.9844C12.0612 15.9384 12.0106 15.9345 11.9878 15.9742C11.9764 15.9946 11.9777 16.0163 11.9941 16.0394C12.0106 16.0624 12.0397 16.0943 12.0827 16.1339C12.1295 16.1774 12.1674 16.217 12.1952 16.2516C12.223 16.2861 12.242 16.3257 12.2509 16.3717C12.2597 16.4165 12.2496 16.4637 12.2205 16.5149C12.1864 16.5737 12.1358 16.612 12.0688 16.6299C12.0017 16.6478 11.9258 16.6376 11.8411 16.5992L11.7753 16.713L11.6527 16.6402L11.7172 16.5289C11.6805 16.5021 11.6476 16.474 11.6173 16.442C11.5869 16.4101 11.5629 16.3781 11.5452 16.3449L11.6957 16.2298C11.7425 16.3078 11.7968 16.3653 11.8613 16.4024C11.9018 16.4267 11.9347 16.4369 11.96 16.4369C11.9853 16.4369 12.0043 16.4254 12.0144 16.4062C12.0258 16.3871 12.0232 16.3653 12.0068 16.3436C11.9903 16.3219 11.9613 16.2899 11.9195 16.2516C11.8715 16.2081 11.8335 16.1685 11.8057 16.1339C11.7779 16.0994 11.7589 16.0598 11.75 16.0151C11.7412 15.9703 11.75 15.923 11.7804 15.8732C11.8133 15.8156 11.8626 15.7786 11.9271 15.7607H11.9246Z" fill="white"/>
<path d="M24.5855 14.8686L24.7462 14.9632L24.3743 15.6126L24.2479 15.5385L24.0278 14.9223L23.8242 15.279L23.6636 15.1844L24.0215 14.5605L24.148 14.6347L24.368 15.2508L24.5868 14.8699L24.5855 14.8686Z" fill="url(#paint10_linear_694_8116)"/>
<path d="M24.975 14.1992L25.1318 14.2913L24.7979 14.8729L24.0808 14.4536L24.4071 13.8848L24.5639 13.9768L24.354 14.3424L24.4741 14.4127L24.6588 14.0906L24.8105 14.1788L24.6259 14.5009L24.7574 14.5776L24.975 14.1992Z" fill="url(#paint11_linear_694_8116)"/>
<path d="M25.1875 13.7475L25.123 13.8587L25.3139 13.9699L25.1963 14.1745L24.4792 13.7539L24.669 13.4228C24.7069 13.3576 24.7499 13.3065 24.7992 13.2707C24.8485 13.2349 24.9004 13.2157 24.956 13.2132C25.0104 13.2106 25.0661 13.2247 25.1192 13.2566C25.171 13.2873 25.209 13.3257 25.2343 13.373C25.2583 13.4203 25.2684 13.4727 25.2646 13.5315L25.5795 13.5072L25.4543 13.7271L25.1887 13.7475H25.1875ZM24.9042 13.4522C24.8738 13.4625 24.846 13.4893 24.822 13.5315L24.7562 13.6453L24.9662 13.768L25.0319 13.6542C25.0559 13.612 25.0648 13.5749 25.0597 13.543C25.0534 13.511 25.0344 13.4855 25.0003 13.465C24.9674 13.4458 24.9345 13.4407 24.9042 13.4509V13.4522Z" fill="url(#paint12_linear_694_8116)"/>
<path d="M25.6935 13.2327C25.6264 13.2749 25.5544 13.2966 25.4785 13.2979C25.4013 13.2992 25.328 13.28 25.2572 13.2378C25.1863 13.1957 25.132 13.142 25.0953 13.0729C25.0586 13.0052 25.0422 12.9311 25.0447 12.8505C25.0472 12.7713 25.0712 12.692 25.1155 12.6153C25.1598 12.5386 25.2154 12.4798 25.2824 12.4376C25.3495 12.3954 25.4216 12.3737 25.4987 12.3712C25.5759 12.3699 25.6492 12.3891 25.72 12.4312C25.7909 12.4734 25.8452 12.5271 25.8819 12.5961C25.9186 12.6639 25.935 12.738 25.9325 12.8186C25.93 12.8978 25.9059 12.9771 25.8617 13.0525C25.8174 13.1292 25.7618 13.188 25.6947 13.2315L25.6935 13.2327ZM25.7238 12.8416C25.7238 12.8019 25.7137 12.7649 25.6922 12.7291C25.6707 12.6933 25.6404 12.6639 25.5999 12.6409C25.5594 12.6179 25.5189 12.6051 25.4785 12.6038C25.438 12.6038 25.4001 12.6128 25.3659 12.6319C25.3318 12.6511 25.304 12.6792 25.2837 12.7163C25.2635 12.7534 25.2521 12.7904 25.2521 12.8301C25.2521 12.8697 25.2622 12.9068 25.2837 12.9426C25.3052 12.9783 25.3356 13.0077 25.376 13.0308C25.4165 13.0538 25.457 13.0666 25.4974 13.0678C25.5379 13.0678 25.5759 13.0589 25.61 13.0397C25.6442 13.0205 25.672 12.9924 25.6922 12.9553C25.7137 12.9183 25.7238 12.8812 25.7238 12.8403V12.8416Z" fill="url(#paint13_linear_694_8116)"/>
<path d="M17.8294 24.9898C17.8724 24.9565 17.9192 24.9374 17.9685 24.9297L18.0355 25.1176C17.9634 25.1265 17.9141 25.1547 17.8888 25.1994C17.8724 25.2288 17.8673 25.2569 17.8762 25.2825C17.885 25.3081 17.9065 25.3311 17.9407 25.3515L18.2493 25.5318L18.3922 25.2812L18.549 25.3733L18.2885 25.8271L17.8357 25.5625C17.7434 25.5075 17.6865 25.4436 17.6675 25.3694C17.6485 25.2953 17.665 25.2122 17.7181 25.1202C17.7485 25.0665 17.7851 25.0243 17.8281 24.991L17.8294 24.9898Z" fill="url(#paint14_linear_694_8116)"/>
<path d="M17.364 26.0966L17.5398 25.7898L17.4335 25.6517L17.5537 25.4434L18.0874 26.1835L17.971 26.3855L17.0706 26.2858L17.1932 26.0723L17.3652 26.0966H17.364ZM17.5473 26.1247L17.8306 26.1656L17.6548 25.9381L17.5486 26.1247H17.5473Z" fill="url(#paint15_linear_694_8116)"/>
<path d="M16.986 26.5105C17.0517 26.4683 17.1238 26.4466 17.1997 26.4453C17.2756 26.4453 17.3502 26.4645 17.4223 26.5067C17.4944 26.5489 17.5488 26.6038 17.5854 26.6716C17.6221 26.7393 17.6398 26.8122 17.636 26.8914C17.6335 26.9707 17.6095 27.0474 17.5665 27.1241C17.5285 27.1906 17.483 27.243 17.4286 27.2826C17.3755 27.3222 17.3161 27.3465 17.2528 27.3567L17.2111 27.1586C17.2933 27.1445 17.354 27.1036 17.3932 27.0372C17.416 26.9975 17.4274 26.9579 17.4274 26.917C17.4274 26.8761 17.4172 26.8378 17.3957 26.8032C17.3742 26.7687 17.3439 26.7393 17.3034 26.715C17.2629 26.692 17.2225 26.6792 17.182 26.678C17.1415 26.678 17.1036 26.6869 17.0694 26.7074C17.0353 26.7278 17.0062 26.7585 16.9834 26.7968C16.9455 26.8633 16.9404 26.9375 16.9695 27.0167L16.7786 27.0794C16.7545 27.018 16.7469 26.9554 16.7545 26.8876C16.7621 26.8211 16.7849 26.7547 16.8228 26.6882C16.8658 26.6128 16.9215 26.554 16.9872 26.5118L16.986 26.5105Z" fill="url(#paint16_linear_694_8116)"/>
<path d="M16.704 27.5278L16.6673 27.4038L16.4877 27.299L16.6041 27.0957L17.3212 27.5163L17.2048 27.7195L16.9063 27.5444L17.0429 27.9995L16.9139 28.2257L16.766 27.7438L16.188 27.8218L16.3246 27.584L16.704 27.529V27.5278Z" fill="url(#paint17_linear_694_8116)"/>
<path d="M16.5548 28.7775C16.5054 28.8133 16.4536 28.8325 16.3979 28.835C16.3436 28.8376 16.2879 28.8235 16.2348 28.7915C16.1804 28.7596 16.1412 28.72 16.1172 28.6701C16.0932 28.6203 16.083 28.5653 16.0894 28.5052C16.0957 28.4438 16.1172 28.3812 16.1551 28.316L16.2272 28.1895L16.04 28.0795L16.1577 27.875L16.8747 28.2943L16.685 28.6254C16.6471 28.6906 16.6041 28.7417 16.5548 28.7775ZM16.2955 28.5078C16.3018 28.5397 16.3208 28.5653 16.3549 28.5857C16.3878 28.6049 16.4207 28.61 16.4511 28.5998C16.4814 28.5896 16.5092 28.5627 16.5333 28.5205L16.599 28.4068L16.3891 28.2841L16.3233 28.3978C16.2993 28.44 16.2904 28.4771 16.2955 28.509V28.5078Z" fill="url(#paint18_linear_694_8116)"/>
<path d="M15.663 28.8153C15.73 28.7731 15.8021 28.7513 15.8793 28.7501C15.9564 28.7488 16.0298 28.768 16.1006 28.8101C16.1714 28.8523 16.2258 28.906 16.2625 28.975C16.2992 29.0428 16.3156 29.1169 16.3131 29.1975C16.3105 29.2767 16.2865 29.356 16.2423 29.4327C16.198 29.5094 16.1423 29.5682 16.0753 29.6104C16.0083 29.6525 15.9362 29.6743 15.8603 29.6768C15.7832 29.6781 15.7098 29.6589 15.639 29.6168C15.5682 29.5746 15.5138 29.5209 15.4771 29.4519C15.4404 29.3841 15.424 29.31 15.4265 29.2294C15.4291 29.1502 15.4531 29.0709 15.4973 28.9955C15.5416 28.9188 15.5973 28.86 15.6643 28.8165L15.663 28.8153ZM15.6327 29.2064C15.6327 29.246 15.6441 29.2831 15.6643 29.3189C15.6858 29.3547 15.7161 29.3841 15.7566 29.4071C15.7971 29.4301 15.8375 29.4429 15.878 29.4442C15.9185 29.4442 15.9564 29.4352 15.9906 29.4161C16.0247 29.3969 16.0525 29.3688 16.0728 29.3317C16.0943 29.2946 16.1044 29.2575 16.1044 29.2179C16.1044 29.1783 16.0943 29.1412 16.0728 29.1054C16.0513 29.0696 16.0209 29.0402 15.9805 29.0172C15.94 28.9942 15.8995 28.9814 15.859 28.9802C15.8186 28.9802 15.7806 28.9891 15.7465 29.0083C15.7123 29.0275 15.6845 29.0556 15.6643 29.0926C15.6428 29.1297 15.6327 29.1668 15.6327 29.2077V29.2064Z" fill="url(#paint19_linear_694_8116)"/>
<path d="M15.6921 29.9829L15.8199 29.7605L15.9805 29.8551L15.6087 30.5044L15.4481 30.4098L15.5745 30.1887L15.0181 29.8627L15.1357 29.6582L15.6921 29.9842V29.9829Z" fill="url(#paint20_linear_694_8116)"/>
<path d="M29.1029 21.45C29.1586 21.4986 29.1864 21.5625 29.1851 21.6418C29.1851 21.6942 29.1712 21.7415 29.1447 21.785C29.1181 21.8284 29.0776 21.8629 29.0233 21.8885C28.9689 21.9141 28.9018 21.9268 28.8222 21.9268C28.764 21.9268 28.7058 21.9192 28.6489 21.9051C28.592 21.8911 28.5427 21.8693 28.5022 21.8438L28.5869 21.6661C28.6198 21.6891 28.6565 21.7057 28.6957 21.7185C28.7349 21.7313 28.7754 21.7364 28.8158 21.7377C28.8563 21.7377 28.8879 21.73 28.912 21.7146C28.936 21.6993 28.9486 21.6776 28.9486 21.6495C28.9486 21.6213 28.9373 21.6009 28.9132 21.5855C28.8892 21.5715 28.8475 21.5638 28.788 21.5638H28.5629L28.6072 21.0742L29.1345 21.0768V21.2596L28.7994 21.2583L28.788 21.3797H28.8437C28.96 21.3797 29.0448 21.4053 29.1004 21.4526L29.1029 21.45Z" fill="url(#paint21_linear_694_8116)"/>
<path d="M29.4279 21.8768C29.3736 21.8423 29.3306 21.7924 29.2989 21.7259C29.2686 21.6595 29.2534 21.5815 29.2534 21.492C29.2534 21.4025 29.2699 21.3245 29.3015 21.2581C29.3331 21.1929 29.3761 21.143 29.4317 21.1085C29.4874 21.074 29.5506 21.0574 29.6214 21.0587C29.6923 21.0587 29.7542 21.0766 29.8099 21.1111C29.8643 21.1456 29.9073 21.1954 29.9389 21.2619C29.9692 21.3284 29.9844 21.4064 29.9844 21.4958C29.9844 21.5853 29.968 21.6633 29.9364 21.7298C29.9047 21.795 29.8617 21.8448 29.8061 21.8793C29.7504 21.9138 29.6885 21.9305 29.6176 21.9305C29.5468 21.9305 29.4836 21.9126 29.4279 21.8781V21.8768ZM29.7125 21.6774C29.7365 21.639 29.7479 21.5777 29.7479 21.4933C29.7479 21.4089 29.7365 21.3488 29.7138 21.3092C29.691 21.2709 29.6594 21.2504 29.6202 21.2504C29.5797 21.2504 29.5481 21.2696 29.5253 21.3079C29.5013 21.3463 29.4899 21.4076 29.4899 21.492C29.4899 21.5764 29.5013 21.6365 29.5241 21.6761C29.5468 21.7144 29.5784 21.7349 29.6189 21.7349C29.6581 21.7349 29.6897 21.7157 29.7138 21.6774H29.7125Z" fill="url(#paint22_linear_694_8116)"/>
<path d="M30.6939 21.8361C30.6471 21.8847 30.5788 21.9153 30.489 21.9281V22.0611H30.3461V21.9332C30.2879 21.9294 30.231 21.9179 30.1791 21.9013C30.126 21.8847 30.083 21.8642 30.0476 21.8399L30.126 21.6661C30.1627 21.6904 30.2057 21.7108 30.255 21.7261C30.3043 21.7415 30.3524 21.7492 30.3992 21.7492C30.489 21.7492 30.5345 21.7274 30.5345 21.6814C30.5345 21.6571 30.5219 21.6392 30.4966 21.6277C30.4713 21.6162 30.4295 21.6034 30.3726 21.5906C30.3107 21.5766 30.2588 21.5625 30.2171 21.5459C30.1753 21.5306 30.1399 21.505 30.1096 21.4705C30.0792 21.436 30.0653 21.3899 30.0653 21.3311C30.0653 21.2621 30.0906 21.2033 30.1399 21.1547C30.1893 21.1062 30.2601 21.0768 30.3524 21.0653V20.9336H30.4953V21.0627C30.5396 21.0665 30.5826 21.0755 30.6243 21.087C30.666 21.0985 30.7027 21.1151 30.7343 21.1343L30.661 21.3094C30.5826 21.266 30.5054 21.2442 30.4321 21.2442C30.3853 21.2442 30.3511 21.2506 30.3296 21.2647C30.3081 21.2787 30.298 21.2966 30.298 21.3184C30.298 21.3401 30.3107 21.358 30.336 21.3682C30.3613 21.3797 30.4017 21.3912 30.4574 21.404C30.5206 21.4181 30.5725 21.4321 30.6142 21.4488C30.6559 21.4641 30.6913 21.4897 30.7217 21.5229C30.752 21.5574 30.7672 21.6034 30.7672 21.6609C30.7672 21.7274 30.7432 21.7837 30.6964 21.8322L30.6939 21.8361Z" fill="url(#paint23_linear_694_8116)"/>
<path d="M12.6782 21.6283L12.682 20.791H12.916L12.9122 21.4468H13.0665V21.6309H12.6782V21.6283Z" fill="url(#paint24_linear_694_8116)"/>
<path d="M12.3812 20.8252C12.4368 20.8597 12.4798 20.9095 12.5102 20.976C12.5405 21.0425 12.5557 21.1205 12.5557 21.2099C12.5557 21.3007 12.5393 21.3774 12.5076 21.4439C12.476 21.5091 12.433 21.5589 12.3774 21.5934C12.3217 21.6279 12.2585 21.6446 12.1877 21.6433C12.1181 21.6433 12.0549 21.6254 11.9992 21.5909C11.9436 21.5564 11.9006 21.5065 11.8702 21.44C11.8399 21.3736 11.8247 21.2956 11.8247 21.2061C11.8247 21.1153 11.8411 21.0387 11.8728 20.9722C11.9044 20.907 11.9474 20.8571 12.003 20.8226C12.0587 20.7881 12.1206 20.7715 12.1915 20.7715C12.2623 20.7715 12.3255 20.7894 12.3812 20.8239V20.8252ZM12.0966 21.0246C12.0726 21.0629 12.0612 21.1243 12.0612 21.2074C12.0612 21.2918 12.0726 21.3518 12.0954 21.3915C12.1181 21.4298 12.1497 21.4503 12.1889 21.4503C12.2294 21.4503 12.261 21.4311 12.2838 21.3927C12.3078 21.3544 12.3192 21.293 12.3192 21.2099C12.3192 21.1256 12.3078 21.0655 12.2851 21.0259C12.2623 20.9862 12.2307 20.9671 12.1902 20.9671C12.151 20.9671 12.1194 20.9862 12.0954 21.0246H12.0966Z" fill="url(#paint25_linear_694_8116)"/>
<path d="M11.5704 20.8213C11.626 20.8558 11.669 20.9056 11.6994 20.9721C11.7297 21.0386 11.7449 21.1166 11.7449 21.206C11.7449 21.2955 11.7285 21.3735 11.6969 21.44C11.6652 21.5052 11.6222 21.555 11.5666 21.5895C11.5109 21.624 11.4477 21.6407 11.3769 21.6394C11.3073 21.6394 11.2441 21.6215 11.1884 21.587C11.1328 21.5525 11.0898 21.5026 11.0594 21.4361C11.0291 21.3697 11.0139 21.2917 11.0139 21.2022C11.0139 21.1114 11.0304 21.0347 11.062 20.9683C11.0936 20.9031 11.1366 20.8532 11.1922 20.8187C11.2479 20.7842 11.3099 20.7676 11.3807 20.7676C11.4515 20.7676 11.5147 20.7855 11.5704 20.82V20.8213ZM11.2858 21.0207C11.2618 21.059 11.2504 21.1204 11.2504 21.2048C11.2504 21.2891 11.2618 21.3492 11.2846 21.3888C11.3073 21.4272 11.3389 21.4476 11.3781 21.4476C11.4186 21.4476 11.4502 21.4285 11.473 21.3901C11.497 21.3518 11.5084 21.2904 11.5084 21.206C11.5084 21.1217 11.497 21.0616 11.4743 21.022C11.4515 20.9836 11.4199 20.9632 11.3794 20.9632C11.3402 20.9632 11.3086 20.9823 11.2846 21.0207H11.2858Z" fill="url(#paint26_linear_694_8116)"/>
<path d="M10.3058 20.8617C10.3526 20.8131 10.4209 20.7824 10.5107 20.7697V20.6367H10.6536V20.7645C10.7117 20.7684 10.7687 20.7799 10.8205 20.7965C10.8736 20.8131 10.9166 20.8336 10.952 20.8579L10.8736 21.0317C10.8369 21.0061 10.7939 20.987 10.7446 20.9716C10.6953 20.9563 10.6472 20.9486 10.6004 20.9486C10.5107 20.9486 10.4651 20.9704 10.4651 21.0164C10.4651 21.0407 10.4778 21.0586 10.5031 21.0701C10.5284 21.0816 10.5701 21.0944 10.627 21.1071C10.689 21.1212 10.7408 21.1353 10.7826 21.1519C10.8243 21.1672 10.8597 21.1928 10.8901 21.2273C10.9204 21.2618 10.9343 21.3078 10.9343 21.3666C10.9343 21.4357 10.909 21.4945 10.8597 21.543C10.8104 21.5916 10.7396 21.621 10.6472 21.6325V21.7642H10.5043V21.6351C10.4601 21.6312 10.4171 21.6223 10.3753 21.6108C10.3336 21.5993 10.2969 21.5827 10.2653 21.5635L10.3387 21.3884C10.4171 21.4318 10.4942 21.4536 10.5676 21.4536C10.6144 21.4536 10.6485 21.4472 10.67 21.4331C10.6915 21.419 10.7016 21.4011 10.7016 21.3794C10.7016 21.3577 10.689 21.3398 10.6637 21.3296C10.6384 21.3181 10.5979 21.3066 10.5423 21.2938C10.479 21.2797 10.4272 21.2656 10.3855 21.249C10.3437 21.2337 10.3083 21.2081 10.278 21.1749C10.2476 21.1404 10.2324 21.0944 10.2324 21.0368C10.2324 20.9704 10.2565 20.9141 10.3032 20.8655L10.3058 20.8617Z" fill="url(#paint27_linear_694_8116)"/>
<path d="M25.0888 29.659C25.0749 29.7318 25.0344 29.7868 24.9648 29.8264C24.9206 29.852 24.8725 29.8635 24.8219 29.8622C24.7713 29.8609 24.722 29.8418 24.6727 29.8073C24.6234 29.7727 24.5791 29.7203 24.5399 29.65C24.5108 29.5989 24.4893 29.5439 24.4729 29.4864C24.4577 29.4289 24.4501 29.3752 24.4526 29.3266L24.6474 29.3125C24.6449 29.3522 24.6474 29.3931 24.6575 29.434C24.6664 29.4749 24.6815 29.5132 24.7018 29.549C24.722 29.5848 24.7435 29.6091 24.7688 29.6219C24.7941 29.636 24.8181 29.6347 24.8422 29.6219C24.8662 29.6078 24.8788 29.5874 24.8788 29.5593C24.8788 29.5311 24.8649 29.4915 24.8358 29.4378L24.7245 29.2397L25.1659 29.0352L25.4264 29.4992L25.2684 29.5899L25.1039 29.2959L24.9939 29.3471L25.0217 29.3956C25.0787 29.4979 25.1002 29.5848 25.0862 29.6577L25.0888 29.659Z" fill="url(#paint28_linear_694_8116)"/>
<path d="M25.1469 30.5312C25.0824 30.5133 25.0217 30.4685 24.9661 30.3969L24.8523 30.4621L24.7827 30.3369L24.8927 30.2742C24.8674 30.2205 24.8485 30.1656 24.8358 30.1119C24.8244 30.0569 24.8194 30.0083 24.8232 29.9662L25.0116 29.9483C25.0091 29.993 25.0116 30.0403 25.0243 30.0914C25.0357 30.1426 25.0521 30.1873 25.0761 30.2295C25.1204 30.3087 25.1621 30.3369 25.2013 30.3139C25.2216 30.3024 25.2304 30.2819 25.2279 30.2538C25.2254 30.2257 25.2152 30.1835 25.1988 30.1272C25.1798 30.0659 25.1672 30.0135 25.1596 29.9687C25.152 29.924 25.1558 29.8805 25.171 29.837C25.1862 29.7936 25.2178 29.7578 25.2684 29.7297C25.3278 29.6964 25.3898 29.6888 25.4568 29.7067C25.5226 29.7258 25.5833 29.7731 25.6389 29.8486L25.7527 29.7834L25.8223 29.9086L25.711 29.9725C25.73 30.0135 25.7439 30.0556 25.754 30.0978C25.7641 30.14 25.7692 30.1796 25.7679 30.218L25.5807 30.241C25.5795 30.1502 25.5592 30.0723 25.5238 30.0071C25.5011 29.9662 25.4783 29.9393 25.4555 29.9278C25.4328 29.9163 25.4125 29.915 25.3923 29.9278C25.3733 29.9393 25.3645 29.9585 25.3683 29.9853C25.3708 30.0135 25.3809 30.0544 25.3986 30.1093C25.4176 30.172 25.4315 30.2244 25.4378 30.2691C25.4442 30.3126 25.4416 30.3573 25.4264 30.4008C25.4125 30.4442 25.3797 30.48 25.3303 30.5094C25.2734 30.5427 25.2127 30.5491 25.1482 30.5324L25.1469 30.5312Z" fill="url(#paint29_linear_694_8116)"/>
<path d="M15.9073 13.0432C15.9212 12.9703 15.9629 12.9154 16.0312 12.8757C16.0755 12.8502 16.1235 12.8387 16.1741 12.8399C16.2247 12.8412 16.274 12.8604 16.3233 12.8949C16.3727 12.9294 16.4169 12.9818 16.4561 13.0521C16.4852 13.1033 16.5067 13.1582 16.5232 13.2158C16.5396 13.2733 16.5459 13.327 16.5434 13.3755L16.3486 13.3896C16.3512 13.35 16.3486 13.3091 16.3385 13.2682C16.3297 13.2273 16.3145 13.1889 16.2943 13.1531C16.274 13.1173 16.2525 13.093 16.2272 13.0803C16.2019 13.0662 16.1779 13.0675 16.1539 13.0803C16.1298 13.0943 16.1172 13.1148 16.1172 13.1429C16.1172 13.171 16.1311 13.2106 16.1602 13.2643L16.2715 13.4625L15.8301 13.667L15.5696 13.203L15.7277 13.1122L15.8921 13.4062L16.0021 13.3551L15.9743 13.3065C15.9174 13.2043 15.8959 13.1173 15.9085 13.0445L15.9073 13.0432Z" fill="url(#paint30_linear_694_8116)"/>
<path d="M15.8477 12.17C15.9122 12.1879 15.9729 12.2326 16.0286 12.3042L16.1424 12.239L16.2119 12.3643L16.1019 12.4269C16.1272 12.4806 16.1462 12.5356 16.1588 12.5892C16.1702 12.6442 16.1753 12.6928 16.1715 12.735L15.983 12.7529C15.9856 12.7081 15.983 12.6608 15.9704 12.6097C15.959 12.5598 15.9426 12.5138 15.9185 12.4716C15.8743 12.3924 15.8325 12.3643 15.7933 12.3873C15.7731 12.3988 15.7642 12.4192 15.7668 12.4474C15.7693 12.4755 15.7794 12.5177 15.7959 12.5739C15.8148 12.6353 15.8275 12.689 15.8351 12.7324C15.8427 12.7772 15.8389 12.8206 15.8237 12.8641C15.8085 12.9075 15.7769 12.9433 15.7263 12.9715C15.6669 13.0047 15.6049 13.0124 15.5379 12.9945C15.4721 12.9753 15.4114 12.928 15.3557 12.8526L15.2419 12.9178L15.1724 12.7925L15.2837 12.7286C15.2647 12.6864 15.2508 12.6455 15.2407 12.6033C15.2305 12.5611 15.2255 12.5202 15.2267 12.4831L15.4139 12.4601C15.4152 12.5509 15.4354 12.6289 15.4721 12.6941C15.4949 12.735 15.5176 12.7618 15.5404 12.7733C15.5632 12.7848 15.5834 12.7861 15.6024 12.7746C15.6213 12.7631 15.6302 12.7439 15.6277 12.7158C15.6251 12.6877 15.615 12.6468 15.5973 12.5918C15.5783 12.5292 15.5644 12.4768 15.5581 12.432C15.5518 12.3886 15.5543 12.3438 15.5682 12.3003C15.5821 12.2569 15.615 12.2211 15.6643 12.1917C15.7212 12.1597 15.7819 12.1521 15.8464 12.1687L15.8477 12.17Z" fill="url(#paint31_linear_694_8116)"/>
<path style="mix-blend-mode:multiply" opacity="0.7" d="M21.6617 21.6274C21.6617 22.3663 21.0686 22.9658 20.3376 22.9658C19.6066 22.9658 19.0134 22.3663 19.0134 21.6274C19.0134 20.8886 19.6066 20.2891 20.3376 20.2891C21.0686 20.2891 21.6617 20.8886 21.6617 21.6274Z" fill="url(#paint32_radial_694_8116)"/>
<path d="M21.3025 21.3547C21.3025 21.8034 20.9433 22.1664 20.4994 22.1664C20.0555 22.1664 19.6963 21.8034 19.6963 21.3547C19.6963 20.906 20.0555 20.543 20.4994 20.543C20.9433 20.543 21.3025 20.906 21.3025 21.3547Z" fill="url(#paint33_linear_694_8116)"/>
<path d="M20.5917 10.2673L23.5017 7H17.6829L20.5917 10.2673Z" fill="url(#paint34_linear_694_8116)"/>
</g>
<path d="M17.6839 7.00195L16.4812 9.33614H24.3893L23.5028 7.00195L20.3663 7.48132L17.6839 7.00195Z" fill="url(#paint35_linear_694_8116)"/>
<path d="M30.0464 31.0056C35.3182 25.6771 35.3182 17.0378 30.0464 11.7092C24.7746 6.38065 16.2272 6.38065 10.9554 11.7092C5.68357 17.0378 5.68358 25.6771 10.9554 31.0056C16.2272 36.3342 24.7746 36.3342 30.0464 31.0056Z" fill="url(#paint36_linear_694_8116)"/>
<path d="M29.102 30.0511C33.8523 25.2497 33.8523 17.4651 29.102 12.6637C24.3517 7.86233 16.65 7.86233 11.8997 12.6637C7.14944 17.4651 7.14944 25.2497 11.8997 30.0511C16.65 34.8525 24.3517 34.8525 29.102 30.0511Z" fill="url(#paint37_linear_694_8116)"/>
<path d="M32.3998 21.3577C32.3998 27.9997 27.0717 33.384 20.5016 33.384C13.9315 33.384 8.60205 27.9997 8.60205 21.3577C8.60205 14.7156 13.929 9.33008 20.5016 9.33008C27.0742 9.33008 32.3998 14.7143 32.3998 21.3577Z" fill="url(#paint38_radial_694_8116)"/>
<path d="M11.8422 29.6063L20.5015 21.3574L9.10156 24.814C9.63906 26.6292 10.5888 28.2628 11.8422 29.6063Z" fill="url(#paint39_linear_694_8116)"/>
<path d="M20.5015 33.383C21.4437 33.383 22.3606 33.2718 23.2396 33.0622L20.5015 21.3555L17.7634 33.0622C18.6424 33.2718 19.5593 33.383 20.5028 33.383H20.5015Z" fill="url(#paint40_linear_694_8116)"/>
<path d="M31.9002 24.812L20.5002 21.3555L29.1584 29.6044C30.4117 28.2609 31.3615 26.6272 31.899 24.812H31.9002Z" fill="url(#paint41_linear_694_8116)"/>
<path d="M29.1596 13.1094L20.5015 21.3583L31.9014 17.9017C31.3639 16.0865 30.4142 14.4529 29.1608 13.1094H29.1596Z" fill="url(#paint42_linear_694_8116)"/>
<path d="M9.10156 17.9017L20.5015 21.3583L11.8422 13.1094C10.5888 14.4529 9.63906 16.0865 9.10156 17.9017Z" fill="url(#paint43_linear_694_8116)"/>
<path d="M20.5015 9.33008C19.5593 9.33008 18.6424 9.44129 17.7622 9.65093L20.5003 21.3577L23.2383 9.65093C22.3594 9.44129 21.4425 9.33008 20.5003 9.33008H20.5015Z" fill="url(#paint44_linear_694_8116)"/>
<path d="M20.1826 12.625H21.011V12.8615H20.3635V13.0174H20.1826V12.625Z" fill="white"/>
<path d="M20.9769 12.3236C20.9427 12.3798 20.8934 12.4233 20.8289 12.454C20.7644 12.4859 20.6873 12.5013 20.5975 12.5013C20.5077 12.5013 20.4318 12.4859 20.366 12.454C20.3015 12.422 20.251 12.3785 20.2181 12.3236C20.1839 12.2673 20.1675 12.2034 20.1675 12.1318C20.1675 12.0602 20.1839 11.9976 20.2181 11.9414C20.2522 11.8851 20.3015 11.8416 20.366 11.811C20.4305 11.779 20.5077 11.7637 20.5975 11.7637C20.6873 11.7637 20.7644 11.779 20.8289 11.811C20.8934 11.8429 20.944 11.8864 20.9769 11.9414C21.011 11.9976 21.0275 12.0602 21.0275 12.1318C21.0275 12.2034 21.011 12.2673 20.9769 12.3236ZM20.7783 12.0372C20.7404 12.0142 20.6797 12.0014 20.5962 12.0014C20.5127 12.0014 20.4533 12.0129 20.4141 12.0372C20.3762 12.0602 20.3572 12.0922 20.3572 12.1318C20.3572 12.1715 20.3762 12.2047 20.4141 12.2277C20.452 12.2507 20.5127 12.2635 20.5962 12.2635C20.6797 12.2635 20.7391 12.252 20.7783 12.2277C20.8163 12.2047 20.8352 12.1715 20.8352 12.1318C20.8352 12.0922 20.8163 12.0602 20.7783 12.0372Z" fill="white"/>
<path d="M20.9301 11.0449C20.9782 11.0922 21.0086 11.1612 21.0212 11.2507H21.1527V11.3939H21.0263C21.0225 11.454 21.0123 11.5102 20.9959 11.5639C20.9795 11.6176 20.9592 11.6611 20.9365 11.6969L20.7632 11.6189C20.7872 11.5818 20.8075 11.5383 20.8226 11.4885C20.8378 11.4386 20.8454 11.3901 20.8454 11.3428C20.8454 11.252 20.8226 11.206 20.7784 11.206C20.7543 11.206 20.7366 11.2188 20.7253 11.2443C20.7139 11.2699 20.7012 11.3121 20.6886 11.3696C20.6747 11.4322 20.6608 11.4847 20.6456 11.5281C20.6304 11.5703 20.6051 11.6061 20.571 11.6368C20.5368 11.6675 20.4913 11.6828 20.4344 11.6828C20.3661 11.6828 20.3079 11.6585 20.2599 11.6086C20.2118 11.5588 20.1814 11.4872 20.1701 11.3952H20.0398V11.252H20.1675C20.1713 11.206 20.1789 11.1625 20.1916 11.1203C20.2029 11.0782 20.2194 11.0411 20.2384 11.0091L20.4129 11.082C20.3699 11.1612 20.3484 11.2392 20.3484 11.3146C20.3484 11.3619 20.3547 11.3965 20.3686 11.4169C20.3825 11.4386 20.4002 11.4489 20.423 11.4489C20.4458 11.4489 20.4622 11.4361 20.4723 11.4105C20.4837 11.3849 20.4951 11.344 20.5065 11.2878C20.5204 11.2239 20.5343 11.1715 20.5495 11.1293C20.5646 11.0871 20.5899 11.0513 20.6228 11.0206C20.657 10.9899 20.7025 10.9746 20.7594 10.9746C20.8252 10.9746 20.8808 10.9989 20.9289 11.0462L20.9301 11.0449Z" fill="white"/>
<path d="M20.1713 30.1309H19.9854V29.479H20.1321L20.4217 29.7922C20.4495 29.8229 20.4748 29.8433 20.495 29.8536C20.5153 29.8638 20.5355 29.8689 20.5557 29.8689C20.5823 29.8689 20.6038 29.8599 20.619 29.842C20.6341 29.8242 20.6417 29.7973 20.6417 29.7615C20.6417 29.7308 20.6354 29.7014 20.6215 29.6759C20.6076 29.6503 20.5873 29.6286 20.5621 29.612L20.6594 29.4355C20.7126 29.4688 20.7556 29.5135 20.7859 29.5736C20.8163 29.6324 20.8327 29.7027 20.8327 29.7832C20.8327 29.8472 20.8226 29.9034 20.8023 29.952C20.7821 30.0006 20.7518 30.0389 20.7138 30.067C20.6759 30.0939 20.6316 30.1079 20.581 30.1079C20.5355 30.1079 20.4938 30.0977 20.4533 30.0785C20.4141 30.0594 20.3686 30.021 20.318 29.966L20.1738 29.8075V30.1309H20.1713Z" fill="white"/>
<path d="M20.0196 30.3769C20.0537 30.3207 20.1031 30.2772 20.1676 30.2465C20.2321 30.2146 20.3092 30.1992 20.399 30.1992C20.4888 30.1992 20.5647 30.2146 20.6304 30.2465C20.6949 30.2785 20.7455 30.3219 20.7784 30.3769C20.8125 30.4331 20.829 30.4971 20.829 30.5686C20.829 30.6402 20.8125 30.7029 20.7784 30.7591C20.7443 30.8154 20.6949 30.8588 20.6304 30.8895C20.5659 30.9215 20.4888 30.9368 20.399 30.9368C20.3092 30.9368 20.2321 30.9215 20.1676 30.8895C20.1031 30.8575 20.0525 30.8141 20.0196 30.7591C19.9854 30.7029 19.969 30.6402 19.969 30.5686C19.969 30.4971 19.9854 30.4331 20.0196 30.3769ZM20.2181 30.6632C20.2561 30.6863 20.3168 30.699 20.4003 30.699C20.4837 30.699 20.5432 30.6875 20.5824 30.6632C20.6203 30.6402 20.6393 30.6083 20.6393 30.5686C20.6393 30.529 20.6203 30.4958 20.5824 30.4728C20.5444 30.4498 20.4837 30.437 20.4003 30.437C20.3168 30.437 20.2573 30.4485 20.2181 30.4728C20.1802 30.4958 20.1612 30.5277 20.1612 30.5686C20.1612 30.6096 20.1802 30.6402 20.2181 30.6632Z" fill="white"/>
<path d="M20.0663 31.6558C20.0183 31.6085 19.9879 31.5395 19.9753 31.45H19.8438V31.3069H19.9702C19.974 31.2468 19.9841 31.1905 20.0006 31.1368C20.017 31.0832 20.0372 31.0397 20.06 31.0039L20.2333 31.0819C20.2092 31.119 20.189 31.1624 20.1738 31.2123C20.1587 31.2621 20.1511 31.3107 20.1511 31.358C20.1511 31.4488 20.1738 31.4948 20.2181 31.4948C20.2421 31.4948 20.2598 31.482 20.2712 31.4564C20.2826 31.4309 20.2952 31.3887 20.3079 31.3312C20.3218 31.2685 20.3357 31.2148 20.3509 31.1726C20.3661 31.1305 20.3914 31.0934 20.4255 31.064C20.4597 31.0333 20.5052 31.018 20.5621 31.018C20.6304 31.018 20.6886 31.0423 20.7366 31.0921C20.7847 31.142 20.815 31.2123 20.8264 31.3056H20.9567V31.4488H20.8289C20.8252 31.4948 20.8176 31.5382 20.8049 31.5791C20.7935 31.6213 20.7771 31.6584 20.7581 31.6904L20.5836 31.6175C20.6266 31.5382 20.6481 31.4603 20.6481 31.3848C20.6481 31.3375 20.6418 31.303 20.6279 31.2826C20.6139 31.2608 20.5962 31.2506 20.5735 31.2506C20.5507 31.2506 20.5343 31.2634 20.5242 31.289C20.5128 31.3145 20.5014 31.3554 20.49 31.4117C20.4761 31.4756 20.4622 31.528 20.447 31.5702C20.4318 31.6124 20.4065 31.6482 20.3737 31.6789C20.3395 31.7095 20.294 31.7249 20.2371 31.7249C20.1713 31.7249 20.1157 31.7006 20.0676 31.6533L20.0663 31.6558Z" fill="white"/>
<path d="M28.9053 16.8616L28.9977 17.024L28.4387 17.3486L28.3653 17.2195L28.4905 16.8092C28.5019 16.7696 28.5082 16.7376 28.507 16.7146C28.5057 16.6916 28.5006 16.6711 28.4905 16.6532C28.4766 16.6302 28.4589 16.6162 28.4361 16.6123C28.4134 16.6085 28.3868 16.6149 28.3565 16.6328C28.3299 16.6481 28.3084 16.6686 28.2932 16.6929C28.2781 16.7184 28.2692 16.7453 28.2679 16.7772L28.0681 16.7798C28.0694 16.7159 28.0884 16.6571 28.1238 16.6008C28.1592 16.5446 28.211 16.496 28.2806 16.4564C28.335 16.4244 28.3893 16.4053 28.4412 16.3989C28.4931 16.3925 28.5411 16.3989 28.5841 16.4193C28.6271 16.4398 28.66 16.4717 28.6853 16.5152C28.7081 16.5548 28.7207 16.597 28.7232 16.6417C28.7258 16.6865 28.7169 16.7453 28.6929 16.8169L28.6296 17.0227L28.9066 16.8616H28.9053Z" fill="white"/>
<path d="M29.563 16.6033C29.5465 16.6685 29.5022 16.7298 29.4314 16.7861L29.4972 16.9011L29.3745 16.9727L29.3113 16.8615C29.2582 16.8883 29.2038 16.9075 29.1507 16.919C29.0963 16.9318 29.0495 16.9356 29.0065 16.9331L28.9875 16.7426C29.0318 16.7452 29.0786 16.7413 29.1292 16.7298C29.1785 16.7183 29.224 16.7004 29.2657 16.6774C29.3442 16.6327 29.372 16.5905 29.3492 16.5509C29.3378 16.5304 29.3176 16.5215 29.2898 16.524C29.262 16.5266 29.2202 16.5368 29.1646 16.5547C29.1039 16.5739 29.052 16.5879 29.0078 16.5956C28.9635 16.6033 28.9205 16.5994 28.8775 16.5854C28.8345 16.57 28.7991 16.5381 28.77 16.487C28.7358 16.4282 28.7283 16.3642 28.7472 16.2965C28.7649 16.2287 28.8117 16.1674 28.8863 16.1111L28.8218 15.9974L28.9445 15.9258L29.0078 16.0383C29.0482 16.0191 29.09 16.005 29.1317 15.9935C29.1734 15.9833 29.2126 15.9782 29.2506 15.9782L29.2746 16.1674C29.1848 16.1699 29.1077 16.1891 29.0432 16.2262C29.0027 16.2492 28.9761 16.2722 28.9648 16.2952C28.9534 16.3182 28.9534 16.3387 28.9648 16.3591C28.9761 16.3796 28.9951 16.3872 29.0229 16.3834C29.0508 16.3809 29.0912 16.3706 29.1456 16.3527C29.2076 16.3323 29.2594 16.3195 29.3037 16.3118C29.3467 16.3042 29.391 16.308 29.434 16.3221C29.477 16.3361 29.5124 16.3681 29.5415 16.4192C29.5743 16.4767 29.5819 16.5381 29.5642 16.6033H29.563Z" fill="white"/>
<path d="M13.0903 26.0097L12.678 25.2836L12.8816 25.166L13.2028 25.7336L13.3369 25.6569L13.4267 25.8154L13.0903 26.011V26.0097Z" fill="white"/>
<path d="M12.305 26.0303C12.2329 26.0162 12.1772 25.9753 12.138 25.9063C12.1127 25.8615 12.1001 25.8129 12.1026 25.7618C12.1039 25.7107 12.1216 25.6608 12.1557 25.611C12.1899 25.5611 12.2417 25.5164 12.3113 25.4767C12.3619 25.4473 12.4163 25.4243 12.4719 25.4077C12.5288 25.3911 12.5819 25.3847 12.63 25.3873L12.6452 25.5841C12.606 25.5816 12.5655 25.5841 12.525 25.5943C12.4846 25.6046 12.4466 25.6186 12.4125 25.6391C12.3771 25.6595 12.353 25.6826 12.3404 25.7081C12.3277 25.7337 12.3277 25.758 12.3404 25.7823C12.3543 25.8065 12.3745 25.8193 12.4023 25.8193C12.4302 25.8193 12.4694 25.8053 12.5212 25.7746L12.716 25.6621L12.9209 26.1069L12.4631 26.3728L12.3733 26.2143L12.6629 26.0469L12.6123 25.9357L12.5642 25.9638C12.4631 26.0226 12.3771 26.0443 12.3062 26.0303H12.305Z" fill="white"/>
<path d="M11.4412 26.094C11.4577 26.0288 11.5019 25.9675 11.5728 25.9112L11.507 25.7962L11.6297 25.7246L11.6929 25.8358C11.746 25.809 11.8004 25.7898 11.8535 25.7783C11.9079 25.7655 11.9547 25.7617 11.9977 25.7642L12.0167 25.9547C11.9724 25.9521 11.9256 25.956 11.875 25.9675C11.8244 25.979 11.7802 25.9969 11.7384 26.0199C11.66 26.0646 11.6322 26.1068 11.655 26.1464C11.6663 26.1669 11.6866 26.1759 11.7144 26.1733C11.7422 26.1707 11.784 26.1605 11.8396 26.1426C11.9003 26.1234 11.9522 26.1094 11.9964 26.1017C12.0407 26.094 12.0837 26.0979 12.1267 26.1119C12.1697 26.1273 12.2051 26.1592 12.2342 26.2104C12.2683 26.2704 12.2759 26.3331 12.257 26.4008C12.2392 26.4686 12.1925 26.5299 12.1178 26.5862L12.1823 26.7L12.0597 26.7715L11.9964 26.6591C11.956 26.6782 11.9142 26.6936 11.8725 26.7038C11.8308 26.714 11.7915 26.7191 11.7536 26.7191L11.7296 26.5299C11.8194 26.5274 11.8965 26.5082 11.961 26.4711C12.0015 26.4481 12.0268 26.4251 12.0394 26.4021C12.0508 26.3791 12.0508 26.3586 12.0394 26.3395C12.028 26.3203 12.0091 26.3114 11.9812 26.3152C11.9534 26.3177 11.913 26.3292 11.8586 26.3459C11.7966 26.3663 11.7448 26.3791 11.7005 26.3868C11.6575 26.3944 11.6132 26.3906 11.5702 26.3765C11.5272 26.3625 11.4918 26.3305 11.4627 26.2794C11.4298 26.2219 11.4223 26.1605 11.44 26.0953L11.4412 26.094Z" fill="white"/>
<path d="M28.808 25.8999L28.3894 26.6222L28.187 26.502L28.5146 25.937L28.3818 25.8577L28.4728 25.6992L28.808 25.8974V25.8999Z" fill="white"/>
<path d="M29.0811 26.9367C29.0166 26.9546 28.9419 26.9457 28.8585 26.9124L28.7914 27.0275L28.6688 26.9546L28.7333 26.8447C28.6839 26.8114 28.6409 26.7731 28.603 26.7322C28.5651 26.6913 28.5385 26.6517 28.5195 26.6133L28.6738 26.5021C28.6941 26.543 28.7206 26.5813 28.7548 26.6197C28.7889 26.658 28.8269 26.6887 28.8686 26.713C28.9457 26.759 28.9963 26.7629 29.0191 26.7232C29.0305 26.7028 29.0292 26.6811 29.0128 26.658C28.9963 26.635 28.9672 26.6031 28.9242 26.5634C28.8774 26.52 28.8395 26.4804 28.8117 26.4458C28.7839 26.4113 28.7649 26.3717 28.756 26.3257C28.7472 26.2809 28.7573 26.2336 28.7864 26.1825C28.8205 26.1237 28.8711 26.0854 28.9381 26.0675C29.0052 26.0508 29.0811 26.0598 29.1658 26.0981L29.2316 25.9844L29.3542 26.0572L29.2897 26.1685C29.3264 26.1953 29.3593 26.2234 29.3896 26.2554C29.42 26.2873 29.444 26.3193 29.4617 26.3525L29.3112 26.4676C29.2644 26.3896 29.2101 26.3321 29.1456 26.295C29.1051 26.2707 29.0722 26.2605 29.0469 26.2605C29.0216 26.2605 29.0026 26.272 28.9925 26.2912C28.9811 26.3103 28.9837 26.3321 29.0001 26.3538C29.0166 26.3768 29.0456 26.4075 29.0874 26.4458C29.1354 26.4893 29.1734 26.5289 29.2012 26.5634C29.229 26.598 29.248 26.6376 29.2568 26.6823C29.2657 26.7271 29.2569 26.7744 29.2265 26.8255C29.1936 26.883 29.1443 26.9201 29.0798 26.938L29.0811 26.9367Z" fill="white"/>
<path d="M12.1975 16.7984L12.6161 16.0762L12.8185 16.1963L12.4909 16.7613L12.6237 16.8406L12.5327 16.9991L12.1975 16.801V16.7984Z" fill="white"/>
<path d="M11.9256 15.7607C11.9901 15.7428 12.0647 15.7517 12.1481 15.785L12.2152 15.6699L12.3378 15.7428L12.2733 15.8527C12.3227 15.886 12.3657 15.9243 12.4036 15.9652C12.4415 16.0061 12.4694 16.0457 12.4871 16.0841L12.3328 16.1953C12.3125 16.1544 12.286 16.1161 12.2518 16.0777C12.2177 16.0394 12.1798 16.0087 12.1393 15.9844C12.0621 15.9384 12.0116 15.9345 11.9888 15.9742C11.9774 15.9946 11.9787 16.0163 11.9951 16.0394C12.0116 16.0624 12.0406 16.0943 12.0836 16.1339C12.1304 16.1774 12.1684 16.217 12.1962 16.2516C12.224 16.2861 12.243 16.3257 12.2518 16.3717C12.2607 16.4165 12.2506 16.4637 12.2215 16.5149C12.1873 16.5737 12.1368 16.612 12.0697 16.6299C12.0027 16.6478 11.9268 16.6376 11.8421 16.5992L11.7763 16.713L11.6536 16.6402L11.7181 16.5289C11.6815 16.5021 11.6486 16.474 11.6182 16.442C11.5879 16.4101 11.5638 16.3781 11.5461 16.3449L11.6966 16.2298C11.7434 16.3078 11.7978 16.3653 11.8623 16.4024C11.9028 16.4267 11.9357 16.4369 11.961 16.4369C11.9863 16.4369 12.0052 16.4254 12.0153 16.4062C12.0267 16.3871 12.0242 16.3653 12.0078 16.3436C11.9913 16.3219 11.9622 16.2899 11.9205 16.2516C11.8724 16.2081 11.8345 16.1685 11.8067 16.1339C11.7788 16.0994 11.7599 16.0598 11.751 16.0151C11.7422 15.9703 11.751 15.923 11.7814 15.8732C11.8143 15.8156 11.8636 15.7786 11.9281 15.7607H11.9256Z" fill="white"/>
<path d="M24.5865 14.8706L24.7471 14.9652L24.3753 15.6145L24.2488 15.5404L24.0288 14.9243L23.8252 15.2809L23.6646 15.1863L24.0225 14.5625L24.1489 14.6366L24.369 15.2528L24.5878 14.8719L24.5865 14.8706Z" fill="url(#paint45_linear_694_8116)"/>
<path d="M24.9759 14.2012L25.1327 14.2932L24.7989 14.8748L24.0818 14.4556L24.4081 13.8867L24.5649 13.9788L24.355 14.3444L24.4751 14.4147L24.6598 14.0925L24.8115 14.1807L24.6269 14.5029L24.7584 14.5796L24.9759 14.2012Z" fill="url(#paint46_linear_694_8116)"/>
<path d="M25.1885 13.7495L25.124 13.8607L25.3149 13.9719L25.1973 14.1764L24.4802 13.7559L24.6699 13.4248C24.7079 13.3596 24.7509 13.3085 24.8002 13.2727C24.8495 13.2369 24.9014 13.2177 24.957 13.2151C25.0114 13.2126 25.067 13.2266 25.1202 13.2586C25.172 13.2893 25.21 13.3276 25.2352 13.3749C25.2593 13.4222 25.2694 13.4746 25.2656 13.5334L25.5805 13.5091L25.4553 13.729L25.1897 13.7495H25.1885ZM24.9052 13.4542C24.8748 13.4644 24.847 13.4913 24.823 13.5334L24.7572 13.6472L24.9671 13.7699L25.0329 13.6562C25.0569 13.614 25.0658 13.5769 25.0607 13.5449C25.0544 13.513 25.0354 13.4874 25.0013 13.467C24.9684 13.4478 24.9355 13.4427 24.9052 13.4529V13.4542Z" fill="url(#paint47_linear_694_8116)"/>
<path d="M25.6945 13.2347C25.6274 13.2769 25.5553 13.2986 25.4795 13.2999C25.4023 13.3012 25.329 13.282 25.2581 13.2398C25.1873 13.1976 25.1329 13.1439 25.0963 13.0749C25.0596 13.0071 25.0431 12.933 25.0457 12.8525C25.0482 12.7732 25.0722 12.694 25.1165 12.6173C25.1608 12.5406 25.2164 12.4818 25.2834 12.4396C25.3505 12.3974 25.4225 12.3757 25.4997 12.3731C25.5768 12.3718 25.6502 12.391 25.721 12.4332C25.7918 12.4754 25.8462 12.5291 25.8829 12.5981C25.9196 12.6658 25.936 12.74 25.9335 12.8205C25.931 12.8998 25.9069 12.979 25.8627 13.0544C25.8184 13.1311 25.7627 13.1899 25.6957 13.2334L25.6945 13.2347ZM25.7248 12.8435C25.7248 12.8039 25.7147 12.7668 25.6932 12.731C25.6717 12.6952 25.6413 12.6658 25.6009 12.6428C25.5604 12.6198 25.5199 12.607 25.4795 12.6058C25.439 12.6058 25.401 12.6147 25.3669 12.6339C25.3327 12.6531 25.3049 12.6812 25.2847 12.7182C25.2645 12.7553 25.2531 12.7924 25.2531 12.832C25.2531 12.8716 25.2632 12.9087 25.2847 12.9445C25.3062 12.9803 25.3365 13.0097 25.377 13.0327C25.4175 13.0557 25.458 13.0685 25.4984 13.0698C25.5389 13.0698 25.5768 13.0608 25.611 13.0417C25.6451 13.0225 25.673 12.9944 25.6932 12.9573C25.7147 12.9202 25.7248 12.8832 25.7248 12.8422V12.8435Z" fill="url(#paint48_linear_694_8116)"/>
<path d="M17.8304 24.9917C17.8734 24.9585 17.9202 24.9393 17.9695 24.9316L18.0365 25.1196C17.9644 25.1285 17.9151 25.1566 17.8898 25.2014C17.8734 25.2308 17.8683 25.2589 17.8772 25.2845C17.886 25.31 17.9075 25.333 17.9417 25.3535L18.2502 25.5337L18.3932 25.2832L18.55 25.3752L18.2895 25.829L17.8367 25.5644C17.7444 25.5094 17.6875 25.4455 17.6685 25.3714C17.6495 25.2972 17.666 25.2141 17.7191 25.1221C17.7494 25.0684 17.7861 25.0262 17.8291 24.993L17.8304 24.9917Z" fill="url(#paint49_linear_694_8116)"/>
<path d="M17.3652 26.0985L17.541 25.7917L17.4347 25.6537L17.5549 25.4453L18.0886 26.1855L17.9722 26.3874L17.0718 26.2877L17.1945 26.0742L17.3665 26.0985H17.3652ZM17.5486 26.1266L17.8319 26.1676L17.6561 25.94L17.5498 26.1266H17.5486Z" fill="url(#paint50_linear_694_8116)"/>
<path d="M16.987 26.5125C17.0527 26.4703 17.1248 26.4485 17.2007 26.4473C17.2766 26.4473 17.3512 26.4664 17.4233 26.5086C17.4954 26.5508 17.5497 26.6058 17.5864 26.6735C17.6231 26.7413 17.6408 26.8141 17.637 26.8934C17.6345 26.9726 17.6104 27.0493 17.5674 27.126C17.5295 27.1925 17.484 27.2449 17.4296 27.2846C17.3765 27.3242 17.317 27.3485 17.2538 27.3587L17.2121 27.1606C17.2943 27.1465 17.355 27.1056 17.3942 27.0391C17.4169 26.9995 17.4283 26.9599 17.4283 26.919C17.4283 26.8781 17.4182 26.8397 17.3967 26.8052C17.3752 26.7707 17.3449 26.7413 17.3044 26.717C17.2639 26.694 17.2234 26.6812 17.183 26.6799C17.1425 26.6799 17.1046 26.6889 17.0704 26.7093C17.0363 26.7298 17.0072 26.7605 16.9844 26.7988C16.9465 26.8653 16.9414 26.9394 16.9705 27.0187L16.7795 27.0813C16.7555 27.0199 16.7479 26.9573 16.7555 26.8896C16.7631 26.8231 16.7859 26.7566 16.8238 26.6901C16.8668 26.6147 16.9225 26.5559 16.9882 26.5137L16.987 26.5125Z" fill="url(#paint51_linear_694_8116)"/>
<path d="M16.705 27.5297L16.6683 27.4057L16.4887 27.3009L16.605 27.0977L17.3221 27.5182L17.2058 27.7215L16.9073 27.5463L17.0439 28.0014L16.9149 28.2277L16.7669 27.7458L16.189 27.8237L16.3256 27.586L16.705 27.531V27.5297Z" fill="url(#paint52_linear_694_8116)"/>
<path d="M16.5557 28.7794C16.5064 28.8152 16.4546 28.8344 16.3989 28.837C16.3445 28.8395 16.2889 28.8255 16.2358 28.7935C16.1814 28.7615 16.1422 28.7219 16.1182 28.6721C16.0941 28.6222 16.084 28.5672 16.0903 28.5072C16.0967 28.4458 16.1182 28.3832 16.1561 28.318L16.2282 28.1914L16.041 28.0815L16.1586 27.877L16.8757 28.2962L16.686 28.6273C16.6481 28.6925 16.6051 28.7436 16.5557 28.7794ZM16.2965 28.5097C16.3028 28.5417 16.3218 28.5672 16.3559 28.5877C16.3888 28.6069 16.4217 28.612 16.452 28.6018C16.4824 28.5915 16.5102 28.5647 16.5342 28.5225L16.6 28.4087L16.3901 28.286L16.3243 28.3998C16.3003 28.442 16.2914 28.479 16.2965 28.511V28.5097Z" fill="url(#paint53_linear_694_8116)"/>
<path d="M15.664 28.8172C15.731 28.775 15.8031 28.7533 15.8803 28.752C15.9574 28.7507 16.0308 28.7699 16.1016 28.8121C16.1724 28.8543 16.2268 28.908 16.2635 28.977C16.3001 29.0447 16.3166 29.1189 16.3141 29.1994C16.3115 29.2787 16.2875 29.3579 16.2432 29.4346C16.199 29.5113 16.1433 29.5701 16.0763 29.6123C16.0093 29.6545 15.9372 29.6762 15.8613 29.6788C15.7841 29.6801 15.7108 29.6609 15.64 29.6187C15.5691 29.5765 15.5148 29.5228 15.4781 29.4538C15.4414 29.3861 15.425 29.3119 15.4275 29.2314C15.43 29.1521 15.4541 29.0729 15.4983 28.9974C15.5426 28.9208 15.5982 28.8619 15.6653 28.8185L15.664 28.8172ZM15.6336 29.2084C15.6336 29.248 15.645 29.2851 15.6653 29.3209C15.6868 29.3567 15.7171 29.3861 15.7576 29.4091C15.7981 29.4321 15.8385 29.4449 15.879 29.4461C15.9195 29.4461 15.9574 29.4372 15.9916 29.418C16.0257 29.3988 16.0535 29.3707 16.0738 29.3336C16.0953 29.2966 16.1054 29.2595 16.1054 29.2199C16.1054 29.1802 16.0953 29.1432 16.0738 29.1074C16.0523 29.0716 16.0219 29.0422 15.9814 29.0192C15.941 28.9962 15.9005 28.9834 15.86 28.9821C15.8196 28.9821 15.7816 28.9911 15.7475 29.0102C15.7133 29.0294 15.6855 29.0575 15.6653 29.0946C15.6438 29.1317 15.6336 29.1687 15.6336 29.2096V29.2084Z" fill="url(#paint54_linear_694_8116)"/>
<path d="M15.6931 29.9848L15.8209 29.7624L15.9815 29.857L15.6097 30.5064L15.449 30.4118L15.5755 30.1907L15.019 29.8647L15.1367 29.6602L15.6931 29.9861V29.9848Z" fill="url(#paint55_linear_694_8116)"/>
<path d="M29.1039 21.452C29.1596 21.5006 29.1874 21.5645 29.1861 21.6437C29.1861 21.6962 29.1722 21.7434 29.1456 21.7869C29.1191 21.8304 29.0786 21.8649 29.0242 21.8905C28.9698 21.916 28.9028 21.9288 28.8231 21.9288C28.765 21.9288 28.7068 21.9211 28.6499 21.9071C28.593 21.893 28.5436 21.8713 28.5032 21.8457L28.5879 21.668C28.6208 21.691 28.6575 21.7077 28.6967 21.7204C28.7359 21.7332 28.7763 21.7383 28.8168 21.7396C28.8573 21.7396 28.8889 21.7319 28.9129 21.7166C28.937 21.7013 28.9496 21.6795 28.9496 21.6514C28.9496 21.6233 28.9382 21.6028 28.9142 21.5875C28.8902 21.5734 28.8484 21.5658 28.789 21.5658H28.5639L28.6081 21.0762L29.1355 21.0787V21.2615L28.8004 21.2602L28.789 21.3817H28.8446C28.961 21.3817 29.0457 21.4073 29.1014 21.4546L29.1039 21.452Z" fill="url(#paint56_linear_694_8116)"/>
<path d="M29.4289 21.8787C29.3745 21.8442 29.3315 21.7944 29.2999 21.7279C29.2696 21.6614 29.2544 21.5834 29.2544 21.494C29.2544 21.4045 29.2708 21.3265 29.3025 21.26C29.3341 21.1948 29.3771 21.145 29.4327 21.1105C29.4884 21.076 29.5516 21.0593 29.6224 21.0606C29.6932 21.0606 29.7552 21.0785 29.8109 21.113C29.8652 21.1475 29.9082 21.1974 29.9399 21.2639C29.9702 21.3303 29.9854 21.4083 29.9854 21.4978C29.9854 21.5873 29.9689 21.6653 29.9373 21.7317C29.9057 21.7969 29.8627 21.8468 29.8071 21.8813C29.7514 21.9158 29.6894 21.9324 29.6186 21.9324C29.5478 21.9324 29.4846 21.9145 29.4289 21.88V21.8787ZM29.7135 21.6793C29.7375 21.641 29.7489 21.5796 29.7489 21.4952C29.7489 21.4109 29.7375 21.3508 29.7147 21.3112C29.692 21.2728 29.6604 21.2524 29.6212 21.2524C29.5807 21.2524 29.5491 21.2715 29.5263 21.3099C29.5023 21.3482 29.4909 21.4096 29.4909 21.494C29.4909 21.5783 29.5023 21.6384 29.525 21.678C29.5478 21.7164 29.5794 21.7368 29.6199 21.7368C29.6591 21.7368 29.6907 21.7177 29.7147 21.6793H29.7135Z" fill="url(#paint57_linear_694_8116)"/>
<path d="M30.6948 21.838C30.6481 21.8866 30.5798 21.9173 30.49 21.9301V22.063H30.3471V21.9352C30.2889 21.9313 30.232 21.9198 30.1801 21.9032C30.127 21.8866 30.084 21.8662 30.0486 21.8419L30.127 21.668C30.1637 21.6923 30.2067 21.7128 30.256 21.7281C30.3053 21.7434 30.3534 21.7511 30.4002 21.7511C30.49 21.7511 30.5355 21.7294 30.5355 21.6834C30.5355 21.6591 30.5228 21.6412 30.4975 21.6297C30.4723 21.6182 30.4305 21.6054 30.3736 21.5926C30.3116 21.5785 30.2598 21.5645 30.2181 21.5479C30.1763 21.5325 30.1409 21.5069 30.1106 21.4724C30.0802 21.4379 30.0663 21.3919 30.0663 21.3331C30.0663 21.2641 30.0916 21.2053 30.1409 21.1567C30.1902 21.1081 30.2611 21.0787 30.3534 21.0672V20.9355H30.4963V21.0647C30.5405 21.0685 30.5836 21.0774 30.6253 21.0889C30.667 21.1004 30.7037 21.1171 30.7353 21.1362L30.662 21.3114C30.5835 21.2679 30.5064 21.2462 30.4331 21.2462C30.3863 21.2462 30.3521 21.2526 30.3306 21.2666C30.3091 21.2807 30.299 21.2986 30.299 21.3203C30.299 21.342 30.3116 21.3599 30.3369 21.3702C30.3622 21.3817 30.4027 21.3932 30.4583 21.406C30.5216 21.42 30.5734 21.4341 30.6152 21.4507C30.6569 21.466 30.6923 21.4916 30.7227 21.5248C30.753 21.5594 30.7682 21.6054 30.7682 21.6629C30.7682 21.7294 30.7442 21.7856 30.6974 21.8342L30.6948 21.838Z" fill="url(#paint58_linear_694_8116)"/>
<path d="M12.6792 21.6303L12.683 20.793H12.917L12.9132 21.4487H13.0675V21.6328H12.6792V21.6303Z" fill="url(#paint59_linear_694_8116)"/>
<path d="M12.3821 20.8271C12.4378 20.8616 12.4808 20.9115 12.5111 20.978C12.5415 21.0444 12.5567 21.1224 12.5567 21.2119C12.5567 21.3027 12.5402 21.3794 12.5086 21.4458C12.477 21.511 12.434 21.5609 12.3784 21.5954C12.3227 21.6299 12.2595 21.6465 12.1887 21.6452C12.1191 21.6452 12.0559 21.6273 12.0002 21.5928C11.9446 21.5583 11.9016 21.5085 11.8712 21.442C11.8409 21.3755 11.8257 21.2975 11.8257 21.2081C11.8257 21.1173 11.8421 21.0406 11.8737 20.9741C11.9054 20.9089 11.9484 20.8591 12.004 20.8246C12.0597 20.7901 12.1216 20.7734 12.1924 20.7734C12.2633 20.7734 12.3265 20.7913 12.3821 20.8258V20.8271ZM12.0976 21.0265C12.0736 21.0649 12.0622 21.1263 12.0622 21.2093C12.0622 21.2937 12.0736 21.3538 12.0963 21.3934C12.1191 21.4318 12.1507 21.4522 12.1899 21.4522C12.2304 21.4522 12.262 21.433 12.2848 21.3947C12.3088 21.3563 12.3202 21.295 12.3202 21.2119C12.3202 21.1275 12.3088 21.0674 12.286 21.0278C12.2633 20.9882 12.2317 20.969 12.1912 20.969C12.152 20.969 12.1204 20.9882 12.0963 21.0265H12.0976Z" fill="url(#paint60_linear_694_8116)"/>
<path d="M11.5714 20.8232C11.627 20.8577 11.67 20.9076 11.7004 20.9741C11.7307 21.0405 11.7459 21.1185 11.7459 21.208C11.7459 21.2975 11.7294 21.3754 11.6978 21.4419C11.6662 21.5071 11.6232 21.557 11.5676 21.5915C11.5119 21.626 11.4487 21.6426 11.3779 21.6413C11.3083 21.6413 11.2451 21.6234 11.1894 21.5889C11.1338 21.5544 11.0908 21.5046 11.0604 21.4381C11.0301 21.3716 11.0149 21.2936 11.0149 21.2042C11.0149 21.1134 11.0313 21.0367 11.063 20.9702C11.0946 20.905 11.1376 20.8552 11.1932 20.8207C11.2489 20.7861 11.3108 20.7695 11.3817 20.7695C11.4525 20.7695 11.5157 20.7874 11.5714 20.8219V20.8232ZM11.2868 21.0226C11.2628 21.061 11.2514 21.1223 11.2514 21.2067C11.2514 21.2911 11.2628 21.3512 11.2855 21.3908C11.3083 21.4291 11.3399 21.4496 11.3791 21.4496C11.4196 21.4496 11.4512 21.4304 11.474 21.3921C11.498 21.3537 11.5094 21.2924 11.5094 21.208C11.5094 21.1236 11.498 21.0635 11.4752 21.0239C11.4525 20.9856 11.4209 20.9651 11.3804 20.9651C11.3412 20.9651 11.3096 20.9843 11.2855 21.0226H11.2868Z" fill="url(#paint61_linear_694_8116)"/>
<path d="M10.3068 20.8637C10.3535 20.8151 10.4218 20.7844 10.5116 20.7716V20.6387H10.6545V20.7665C10.7127 20.7703 10.7696 20.7818 10.8215 20.7985C10.8746 20.8151 10.9176 20.8355 10.953 20.8598L10.8746 21.0337C10.8379 21.0081 10.7949 20.9889 10.7456 20.9736C10.6963 20.9582 10.6482 20.9506 10.6014 20.9506C10.5116 20.9506 10.4661 20.9723 10.4661 21.0183C10.4661 21.0426 10.4787 21.0605 10.504 21.072C10.5293 21.0835 10.5711 21.0963 10.628 21.1091C10.69 21.1231 10.7418 21.1372 10.7835 21.1538C10.8253 21.1692 10.8607 21.1947 10.891 21.2292C10.9214 21.2638 10.9353 21.3098 10.9353 21.3686C10.9353 21.4376 10.91 21.4964 10.8607 21.545C10.8114 21.5936 10.7405 21.623 10.6482 21.6345V21.7661H10.5053V21.637C10.461 21.6332 10.418 21.6242 10.3763 21.6127C10.3346 21.6012 10.2979 21.5846 10.2663 21.5654L10.3396 21.3903C10.418 21.4338 10.4952 21.4555 10.5685 21.4555C10.6153 21.4555 10.6495 21.4491 10.671 21.4351C10.6925 21.421 10.7026 21.4031 10.7026 21.3814C10.7026 21.3596 10.69 21.3417 10.6647 21.3315C10.6394 21.32 10.5989 21.3085 10.5432 21.2957C10.48 21.2817 10.4282 21.2676 10.3864 21.251C10.3447 21.2356 10.3093 21.2101 10.2789 21.1768C10.2486 21.1423 10.2334 21.0963 10.2334 21.0388C10.2334 20.9723 10.2574 20.9161 10.3042 20.8675L10.3068 20.8637Z" fill="url(#paint62_linear_694_8116)"/>
<path d="M25.0897 29.6609C25.0758 29.7338 25.0354 29.7888 24.9658 29.8284C24.9215 29.8539 24.8735 29.8655 24.8229 29.8642C24.7723 29.8629 24.723 29.8437 24.6737 29.8092C24.6243 29.7747 24.5801 29.7223 24.5409 29.652C24.5118 29.6008 24.4903 29.5459 24.4738 29.4884C24.4587 29.4308 24.4511 29.3771 24.4536 29.3286L24.6484 29.3145C24.6458 29.3541 24.6484 29.395 24.6585 29.4359C24.6673 29.4768 24.6825 29.5152 24.7027 29.551C24.723 29.5868 24.7445 29.6111 24.7698 29.6239C24.7951 29.6379 24.8191 29.6366 24.8431 29.6239C24.8672 29.6098 24.8798 29.5893 24.8798 29.5612C24.8798 29.5331 24.8659 29.4935 24.8368 29.4398L24.7255 29.2416L25.1669 29.0371L25.4274 29.5011L25.2693 29.5919L25.1049 29.2979L24.9949 29.349L25.0227 29.3976C25.0796 29.4999 25.1011 29.5868 25.0872 29.6596L25.0897 29.6609Z" fill="url(#paint63_linear_694_8116)"/>
<path d="M25.1479 30.5331C25.0834 30.5152 25.0227 30.4705 24.9671 30.3989L24.8533 30.4641L24.7837 30.3388L24.8937 30.2762C24.8684 30.2225 24.8495 30.1675 24.8368 30.1138C24.8254 30.0589 24.8204 30.0103 24.8242 29.9681L25.0126 29.9502C25.0101 29.995 25.0126 30.0423 25.0252 30.0934C25.0366 30.1445 25.0531 30.1893 25.0771 30.2314C25.1214 30.3107 25.1631 30.3388 25.2023 30.3158C25.2225 30.3043 25.2314 30.2839 25.2289 30.2557C25.2263 30.2276 25.2162 30.1854 25.1998 30.1292C25.1808 30.0678 25.1682 30.0154 25.1606 29.9707C25.153 29.9259 25.1568 29.8825 25.172 29.839C25.1871 29.7955 25.2187 29.7597 25.2693 29.7316C25.3288 29.6984 25.3907 29.6907 25.4578 29.7086C25.5235 29.7278 25.5842 29.7751 25.6399 29.8505L25.7537 29.7853L25.8233 29.9106L25.712 29.9745C25.7309 30.0154 25.7449 30.0576 25.755 30.0998C25.7651 30.142 25.7702 30.1816 25.7689 30.2199L25.5817 30.2429C25.5804 30.1522 25.5602 30.0742 25.5248 30.009C25.502 29.9681 25.4793 29.9413 25.4565 29.9298C25.4337 29.9183 25.4135 29.917 25.3933 29.9298C25.3743 29.9413 25.3655 29.9604 25.3692 29.9873C25.3718 30.0154 25.3819 30.0563 25.3996 30.1113C25.4186 30.1739 25.4325 30.2263 25.4388 30.2711C25.4451 30.3145 25.4426 30.3593 25.4274 30.4027C25.4135 30.4462 25.3806 30.482 25.3313 30.5114C25.2744 30.5446 25.2137 30.551 25.1492 30.5344L25.1479 30.5331Z" fill="url(#paint64_linear_694_8116)"/>
<path d="M15.9082 13.0451C15.9221 12.9723 15.9639 12.9173 16.0322 12.8777C16.0764 12.8521 16.1245 12.8406 16.1751 12.8419C16.2257 12.8432 16.275 12.8623 16.3243 12.8969C16.3736 12.9314 16.4179 12.9838 16.4571 13.0541C16.4862 13.1052 16.5077 13.1602 16.5241 13.2177C16.5406 13.2752 16.5469 13.3289 16.5444 13.3775L16.3496 13.3916C16.3521 13.3519 16.3496 13.311 16.3395 13.2701C16.3306 13.2292 16.3155 13.1909 16.2952 13.1551C16.275 13.1193 16.2535 13.095 16.2282 13.0822C16.2029 13.0682 16.1789 13.0694 16.1548 13.0822C16.1308 13.0963 16.1182 13.1167 16.1182 13.1449C16.1182 13.173 16.1321 13.2126 16.1612 13.2663L16.2725 13.4644L15.8311 13.669L15.5706 13.2049L15.7286 13.1142L15.8931 13.4082L16.0031 13.357L15.9753 13.3085C15.9183 13.2062 15.8968 13.1193 15.9095 13.0464L15.9082 13.0451Z" fill="url(#paint65_linear_694_8116)"/>
<path d="M15.8487 12.1719C15.9132 12.1898 15.9739 12.2346 16.0295 12.3061L16.1434 12.2409L16.2129 12.3662L16.1029 12.4289C16.1282 12.4825 16.1472 12.5375 16.1598 12.5912C16.1712 12.6462 16.1762 12.6947 16.1724 12.7369L15.984 12.7548C15.9865 12.7101 15.984 12.6628 15.9714 12.6117C15.96 12.5618 15.9435 12.5158 15.9195 12.4736C15.8752 12.3943 15.8335 12.3662 15.7943 12.3892C15.7741 12.4007 15.7652 12.4212 15.7677 12.4493C15.7703 12.4774 15.7804 12.5196 15.7968 12.5759C15.8158 12.6372 15.8285 12.6909 15.836 12.7344C15.8436 12.7791 15.8398 12.8226 15.8247 12.866C15.8095 12.9095 15.7779 12.9453 15.7273 12.9734C15.6678 13.0066 15.6059 13.0143 15.5388 12.9964C15.4731 12.9772 15.4124 12.93 15.3567 12.8545L15.2429 12.9197L15.1733 12.7945L15.2846 12.7305C15.2657 12.6884 15.2518 12.6474 15.2416 12.6053C15.2315 12.5631 15.2265 12.5222 15.2277 12.4851L15.4149 12.4621C15.4162 12.5529 15.4364 12.6308 15.4731 12.696C15.4958 12.7369 15.5186 12.7638 15.5414 12.7753C15.5641 12.7868 15.5844 12.7881 15.6033 12.7766C15.6223 12.765 15.6312 12.7459 15.6286 12.7178C15.6261 12.6896 15.616 12.6487 15.5983 12.5938C15.5793 12.5311 15.5654 12.4787 15.5591 12.434C15.5527 12.3905 15.5553 12.3458 15.5692 12.3023C15.5831 12.2588 15.616 12.223 15.6653 12.1936C15.7222 12.1617 15.7829 12.154 15.8474 12.1706L15.8487 12.1719Z" fill="url(#paint66_linear_694_8116)"/>
<path style="mix-blend-mode:multiply" opacity="0.7" d="M21.6627 21.6294C21.6627 22.3683 21.0695 22.9678 20.3385 22.9678C19.6075 22.9678 19.0144 22.3683 19.0144 21.6294C19.0144 20.8905 19.6075 20.291 20.3385 20.291C21.0695 20.291 21.6627 20.8905 21.6627 21.6294Z" fill="url(#paint67_radial_694_8116)"/>
<path d="M21.3034 21.3566C21.3034 21.8053 20.9443 22.1684 20.5003 22.1684C20.0564 22.1684 19.6973 21.8053 19.6973 21.3566C19.6973 20.908 20.0564 20.5449 20.5003 20.5449C20.9443 20.5449 21.3034 20.908 21.3034 21.3566Z" fill="url(#paint68_linear_694_8116)"/>
<path d="M20.5926 10.2693L23.5027 7.00195H17.6838L20.5926 10.2693Z" fill="url(#paint69_linear_694_8116)"/>
<defs>
<filter id="filter0_f_694_8116" x="0.000488281" y="0" width="40.9988" height="42" filterUnits="userSpaceOnUse" color-interpolation-filters="sRGB">
<feFlood flood-opacity="0" result="BackgroundImageFix"/>
<feBlend mode="normal" in="SourceGraphic" in2="BackgroundImageFix" result="shape"/>
<feGaussianBlur stdDeviation="3.5" result="effect1_foregroundBlur_694_8116"/>
</filter>
<linearGradient id="paint0_linear_694_8116" x1="20.4349" y1="9.39682" x2="20.4349" y2="5.21293" gradientUnits="userSpaceOnUse">
<stop stop-color="#FFFB90"/>
<stop offset="0.14" stop-color="#FBE978"/>
<stop offset="0.24" stop-color="#F8DC65"/>
<stop offset="0.27" stop-color="#E6C758"/>
<stop offset="0.34" stop-color="#C49F40"/>
<stop offset="0.4" stop-color="#AC832F"/>
<stop offset="0.45" stop-color="#9E7225"/>
<stop offset="0.49" stop-color="#996C22"/>
<stop offset="0.52" stop-color="#9D7125"/>
<stop offset="0.56" stop-color="#A98030"/>
<stop offset="0.6" stop-color="#BD9A42"/>
<stop offset="0.64" stop-color="#D9BE5A"/>
<stop offset="0.69" stop-color="#FBE878"/>
<stop offset="0.77" stop-color="#FFFFAA"/>
<stop offset="0.83" stop-color="#FBE878"/>
<stop offset="1" stop-color="#A4631B"/>
</linearGradient>
<linearGradient id="paint1_linear_694_8116" x1="30.7889" y1="10.9548" x2="10.6733" y2="30.8562" gradientUnits="userSpaceOnUse">
<stop stop-color="#0E5DF8"/>
<stop offset="0.31" stop-color="#0E4DE0"/>
<stop offset="0.96" stop-color="#0F26A2"/>
<stop offset="1" stop-color="#10249F"/>
</linearGradient>
<linearGradient id="paint2_linear_694_8116" x1="11.8209" y1="12.5834" x2="30.4473" y2="31.0115" gradientUnits="userSpaceOnUse">
<stop stop-color="#FFFB90"/>
<stop offset="0.14" stop-color="#FBE978"/>
<stop offset="0.24" stop-color="#F8DC65"/>
<stop offset="0.27" stop-color="#E6C758"/>
<stop offset="0.34" stop-color="#C49F40"/>
<stop offset="0.4" stop-color="#AC832F"/>
<stop offset="0.45" stop-color="#9E7225"/>
<stop offset="0.49" stop-color="#996C22"/>
<stop offset="0.52" stop-color="#9D7125"/>
<stop offset="0.56" stop-color="#A98030"/>
<stop offset="0.6" stop-color="#BD9A42"/>
<stop offset="0.64" stop-color="#D9BE5A"/>
<stop offset="0.69" stop-color="#FBE878"/>
<stop offset="0.77" stop-color="#FFFFAA"/>
<stop offset="0.83" stop-color="#FBE878"/>
<stop offset="1" stop-color="#A4631B"/>
</linearGradient>
<radialGradient id="paint3_radial_694_8116" cx="0" cy="0" r="1" gradientUnits="userSpaceOnUse" gradientTransform="translate(20.4993 21.3557) scale(12.6773 12.8137)">
<stop offset="0.37" stop-color="#FDFDFD"/>
<stop offset="0.65" stop-color="#FAFAFA"/>
<stop offset="0.81" stop-color="#F2F2F2"/>
<stop offset="0.94" stop-color="#E4E4E4"/>
<stop offset="1" stop-color="#DBDBDB"/>
</radialGradient>
<linearGradient id="paint4_linear_694_8116" x1="27.3615" y1="10.3863" x2="11.7019" y2="25.8792" gradientUnits="userSpaceOnUse">
<stop stop-color="#50DBFF"/>
<stop offset="0.52" stop-color="#2069FF"/>
<stop offset="0.76" stop-color="#915CBF"/>
<stop offset="1" stop-color="#FF5183"/>
</linearGradient>
<linearGradient id="paint5_linear_694_8116" x1="32.9363" y1="16.0217" x2="17.2779" y2="31.5133" gradientUnits="userSpaceOnUse">
<stop stop-color="#50DBFF"/>
<stop offset="0.52" stop-color="#2069FF"/>
<stop offset="0.76" stop-color="#915CBF"/>
<stop offset="1" stop-color="#FF5183"/>
</linearGradient>
<linearGradient id="paint6_linear_694_8116" x1="33.5611" y1="16.6532" x2="17.9027" y2="32.1448" gradientUnits="userSpaceOnUse">
<stop stop-color="#50DBFF"/>
<stop offset="0.52" stop-color="#2069FF"/>
<stop offset="0.76" stop-color="#915CBF"/>
<stop offset="1" stop-color="#FF5183"/>
</linearGradient>
<linearGradient id="paint7_linear_694_8116" x1="31.3516" y1="14.4202" x2="15.692" y2="29.9131" gradientUnits="userSpaceOnUse">
<stop stop-color="#50DBFF"/>
<stop offset="0.52" stop-color="#2069FF"/>
<stop offset="0.76" stop-color="#915CBF"/>
<stop offset="1" stop-color="#FF5183"/>
</linearGradient>
<linearGradient id="paint8_linear_694_8116" x1="25.1521" y1="8.15399" x2="9.49249" y2="23.6469" gradientUnits="userSpaceOnUse">
<stop stop-color="#50DBFF"/>
<stop offset="0.52" stop-color="#2069FF"/>
<stop offset="0.76" stop-color="#915CBF"/>
<stop offset="1" stop-color="#FF5183"/>
</linearGradient>
<linearGradient id="paint9_linear_694_8116" x1="25.7769" y1="8.78484" x2="10.1173" y2="24.2778" gradientUnits="userSpaceOnUse">
<stop stop-color="#50DBFF"/>
<stop offset="0.52" stop-color="#2069FF"/>
<stop offset="0.76" stop-color="#915CBF"/>
<stop offset="1" stop-color="#FF5183"/>
</linearGradient>
<linearGradient id="paint10_linear_694_8116" x1="25.9527" y1="13.3116" x2="12.0519" y2="27.0644" gradientUnits="userSpaceOnUse">
<stop stop-color="#50DBFF"/>
<stop offset="0.52" stop-color="#2069FF"/>
<stop offset="0.76" stop-color="#915CBF"/>
<stop offset="1" stop-color="#FF5183"/>
</linearGradient>
<linearGradient id="paint11_linear_694_8116" x1="25.8059" y1="13.1625" x2="11.9051" y2="26.9153" gradientUnits="userSpaceOnUse">
<stop stop-color="#50DBFF"/>
<stop offset="0.52" stop-color="#2069FF"/>
<stop offset="0.76" stop-color="#915CBF"/>
<stop offset="1" stop-color="#FF5183"/>
</linearGradient>
<linearGradient id="paint12_linear_694_8116" x1="25.6782" y1="13.0342" x2="11.7774" y2="26.787" gradientUnits="userSpaceOnUse">
<stop stop-color="#50DBFF"/>
<stop offset="0.52" stop-color="#2069FF"/>
<stop offset="0.76" stop-color="#915CBF"/>
<stop offset="1" stop-color="#FF5183"/>
</linearGradient>
<linearGradient id="paint13_linear_694_8116" x1="25.4848" y1="12.8377" x2="11.584" y2="26.5905" gradientUnits="userSpaceOnUse">
<stop stop-color="#50DBFF"/>
<stop offset="0.52" stop-color="#2069FF"/>
<stop offset="0.76" stop-color="#915CBF"/>
<stop offset="1" stop-color="#FF5183"/>
</linearGradient>
<linearGradient id="paint14_linear_694_8116" x1="27.9887" y1="15.3692" x2="14.0879" y2="29.122" gradientUnits="userSpaceOnUse">
<stop stop-color="#50DBFF"/>
<stop offset="0.52" stop-color="#2069FF"/>
<stop offset="0.76" stop-color="#915CBF"/>
<stop offset="1" stop-color="#FF5183"/>
</linearGradient>
<linearGradient id="paint15_linear_694_8116" x1="28.0911" y1="15.4726" x2="14.1904" y2="29.2254" gradientUnits="userSpaceOnUse">
<stop stop-color="#50DBFF"/>
<stop offset="0.52" stop-color="#2069FF"/>
<stop offset="0.76" stop-color="#915CBF"/>
<stop offset="1" stop-color="#FF5183"/>
</linearGradient>
<linearGradient id="paint16_linear_694_8116" x1="28.2974" y1="15.682" x2="14.3966" y2="29.4348" gradientUnits="userSpaceOnUse">
<stop stop-color="#50DBFF"/>
<stop offset="0.52" stop-color="#2069FF"/>
<stop offset="0.76" stop-color="#915CBF"/>
<stop offset="1" stop-color="#FF5183"/>
</linearGradient>
<linearGradient id="paint17_linear_694_8116" x1="28.4543" y1="15.839" x2="14.5535" y2="29.5917" gradientUnits="userSpaceOnUse">
<stop stop-color="#50DBFF"/>
<stop offset="0.52" stop-color="#2069FF"/>
<stop offset="0.76" stop-color="#915CBF"/>
<stop offset="1" stop-color="#FF5183"/>
</linearGradient>
<linearGradient id="paint18_linear_694_8116" x1="28.5833" y1="15.9714" x2="14.6825" y2="29.7242" gradientUnits="userSpaceOnUse">
<stop stop-color="#50DBFF"/>
<stop offset="0.52" stop-color="#2069FF"/>
<stop offset="0.76" stop-color="#915CBF"/>
<stop offset="1" stop-color="#FF5183"/>
</linearGradient>
<linearGradient id="paint19_linear_694_8116" x1="28.7767" y1="16.1664" x2="14.8759" y2="29.9192" gradientUnits="userSpaceOnUse">
<stop stop-color="#50DBFF"/>
<stop offset="0.52" stop-color="#2069FF"/>
<stop offset="0.76" stop-color="#915CBF"/>
<stop offset="1" stop-color="#FF5183"/>
</linearGradient>
<linearGradient id="paint20_linear_694_8116" x1="28.9575" y1="16.3485" x2="15.0568" y2="30.1013" gradientUnits="userSpaceOnUse">
<stop stop-color="#50DBFF"/>
<stop offset="0.52" stop-color="#2069FF"/>
<stop offset="0.76" stop-color="#915CBF"/>
<stop offset="1" stop-color="#FF5183"/>
</linearGradient>
<linearGradient id="paint21_linear_694_8116" x1="31.4325" y1="18.85" x2="17.5317" y2="32.6027" gradientUnits="userSpaceOnUse">
<stop stop-color="#50DBFF"/>
<stop offset="0.52" stop-color="#2069FF"/>
<stop offset="0.76" stop-color="#915CBF"/>
<stop offset="1" stop-color="#FF5183"/>
</linearGradient>
<linearGradient id="paint22_linear_694_8116" x1="31.8334" y1="19.2563" x2="17.9326" y2="33.009" gradientUnits="userSpaceOnUse">
<stop stop-color="#50DBFF"/>
<stop offset="0.52" stop-color="#2069FF"/>
<stop offset="0.76" stop-color="#915CBF"/>
<stop offset="1" stop-color="#FF5183"/>
</linearGradient>
<linearGradient id="paint23_linear_694_8116" x1="32.2368" y1="19.663" x2="18.3348" y2="33.4157" gradientUnits="userSpaceOnUse">
<stop stop-color="#50DBFF"/>
<stop offset="0.52" stop-color="#2069FF"/>
<stop offset="0.76" stop-color="#915CBF"/>
<stop offset="1" stop-color="#FF5183"/>
</linearGradient>
<linearGradient id="paint24_linear_694_8116" x1="23.3219" y1="10.6502" x2="9.42113" y2="24.403" gradientUnits="userSpaceOnUse">
<stop stop-color="#50DBFF"/>
<stop offset="0.52" stop-color="#2069FF"/>
<stop offset="0.76" stop-color="#915CBF"/>
<stop offset="1" stop-color="#FF5183"/>
</linearGradient>
<linearGradient id="paint25_linear_694_8116" x1="22.9793" y1="10.3047" x2="9.07729" y2="24.0575" gradientUnits="userSpaceOnUse">
<stop stop-color="#50DBFF"/>
<stop offset="0.52" stop-color="#2069FF"/>
<stop offset="0.76" stop-color="#915CBF"/>
<stop offset="1" stop-color="#FF5183"/>
</linearGradient>
<linearGradient id="paint26_linear_694_8116" x1="22.5707" y1="9.89303" x2="8.66994" y2="23.6458" gradientUnits="userSpaceOnUse">
<stop stop-color="#50DBFF"/>
<stop offset="0.52" stop-color="#2069FF"/>
<stop offset="0.76" stop-color="#915CBF"/>
<stop offset="1" stop-color="#FF5183"/>
</linearGradient>
<linearGradient id="paint27_linear_694_8116" x1="22.1686" y1="9.48478" x2="8.26784" y2="23.2388" gradientUnits="userSpaceOnUse">
<stop stop-color="#50DBFF"/>
<stop offset="0.52" stop-color="#2069FF"/>
<stop offset="0.76" stop-color="#915CBF"/>
<stop offset="1" stop-color="#FF5183"/>
</linearGradient>
<linearGradient id="paint28_linear_694_8116" x1="33.413" y1="20.8502" x2="19.5122" y2="34.6042" gradientUnits="userSpaceOnUse">
<stop stop-color="#50DBFF"/>
<stop offset="0.52" stop-color="#2069FF"/>
<stop offset="0.76" stop-color="#915CBF"/>
<stop offset="1" stop-color="#FF5183"/>
</linearGradient>
<linearGradient id="paint29_linear_694_8116" x1="33.9265" y1="21.3683" x2="20.0257" y2="35.1211" gradientUnits="userSpaceOnUse">
<stop stop-color="#50DBFF"/>
<stop offset="0.52" stop-color="#2069FF"/>
<stop offset="0.76" stop-color="#915CBF"/>
<stop offset="1" stop-color="#FF5183"/>
</linearGradient>
<linearGradient id="paint30_linear_694_8116" x1="20.9926" y1="8.29684" x2="7.09182" y2="22.0496" gradientUnits="userSpaceOnUse">
<stop stop-color="#50DBFF"/>
<stop offset="0.52" stop-color="#2069FF"/>
<stop offset="0.76" stop-color="#915CBF"/>
<stop offset="1" stop-color="#FF5183"/>
</linearGradient>
<linearGradient id="paint31_linear_694_8116" x1="20.479" y1="7.7777" x2="6.57825" y2="21.5305" gradientUnits="userSpaceOnUse">
<stop stop-color="#50DBFF"/>
<stop offset="0.52" stop-color="#2069FF"/>
<stop offset="0.76" stop-color="#915CBF"/>
<stop offset="1" stop-color="#FF5183"/>
</linearGradient>
<radialGradient id="paint32_radial_694_8116" cx="0" cy="0" r="1" gradientUnits="userSpaceOnUse" gradientTransform="translate(20.3376 21.6274) scale(1.32414 1.33839)">
<stop offset="0.34" stop-color="#400500"/>
<stop offset="0.37" stop-color="#4E1813"/>
<stop offset="0.47" stop-color="#7C5451"/>
<stop offset="0.57" stop-color="#A48886"/>
<stop offset="0.67" stop-color="#C4B3B1"/>
<stop offset="0.76" stop-color="#DED4D3"/>
<stop offset="0.85" stop-color="#F0EBEB"/>
<stop offset="0.93" stop-color="#FBFAF9"/>
<stop offset="1" stop-color="white"/>
</radialGradient>
<linearGradient id="paint33_linear_694_8116" x1="22.2067" y1="19.6303" x2="17.1181" y2="24.6634" gradientUnits="userSpaceOnUse">
<stop stop-color="#0E5DF8"/>
<stop offset="0.31" stop-color="#0E4DE0"/>
<stop offset="0.96" stop-color="#0F26A2"/>
<stop offset="1" stop-color="#10249F"/>
</linearGradient>
<linearGradient id="paint34_linear_694_8116" x1="20.5917" y1="11.0164" x2="20.5917" y2="7.21603" gradientUnits="userSpaceOnUse">
<stop stop-color="#FFFB90"/>
<stop offset="0.14" stop-color="#FBE978"/>
<stop offset="0.24" stop-color="#F8DC65"/>
<stop offset="0.27" stop-color="#E6C758"/>
<stop offset="0.34" stop-color="#C49F40"/>
<stop offset="0.4" stop-color="#AC832F"/>
<stop offset="0.45" stop-color="#9E7225"/>
<stop offset="0.49" stop-color="#996C22"/>
<stop offset="0.52" stop-color="#9D7125"/>
<stop offset="0.56" stop-color="#A98030"/>
<stop offset="0.6" stop-color="#BD9A42"/>
<stop offset="0.64" stop-color="#D9BE5A"/>
<stop offset="0.69" stop-color="#FBE878"/>
<stop offset="0.77" stop-color="#FFFFAA"/>
<stop offset="0.83" stop-color="#FBE878"/>
<stop offset="1" stop-color="#A4631B"/>
</linearGradient>
<linearGradient id="paint35_linear_694_8116" x1="20.4359" y1="9.39878" x2="20.4359" y2="5.21488" gradientUnits="userSpaceOnUse">
<stop stop-color="#FFFB90"/>
<stop offset="0.14" stop-color="#FBE978"/>
<stop offset="0.24" stop-color="#F8DC65"/>
<stop offset="0.27" stop-color="#E6C758"/>
<stop offset="0.34" stop-color="#C49F40"/>
<stop offset="0.4" stop-color="#AC832F"/>
<stop offset="0.45" stop-color="#9E7225"/>
<stop offset="0.49" stop-color="#996C22"/>
<stop offset="0.52" stop-color="#9D7125"/>
<stop offset="0.56" stop-color="#A98030"/>
<stop offset="0.6" stop-color="#BD9A42"/>
<stop offset="0.64" stop-color="#D9BE5A"/>
<stop offset="0.69" stop-color="#FBE878"/>
<stop offset="0.77" stop-color="#FFFFAA"/>
<stop offset="0.83" stop-color="#FBE878"/>
<stop offset="1" stop-color="#A4631B"/>
</linearGradient>
<linearGradient id="paint36_linear_694_8116" x1="30.7899" y1="10.9568" x2="10.6743" y2="30.8582" gradientUnits="userSpaceOnUse">
<stop stop-color="#0E5DF8"/>
<stop offset="0.31" stop-color="#0E4DE0"/>
<stop offset="0.96" stop-color="#0F26A2"/>
<stop offset="1" stop-color="#10249F"/>
</linearGradient>
<linearGradient id="paint37_linear_694_8116" x1="11.8219" y1="12.5853" x2="30.4483" y2="31.0134" gradientUnits="userSpaceOnUse">
<stop stop-color="#FFFB90"/>
<stop offset="0.14" stop-color="#FBE978"/>
<stop offset="0.24" stop-color="#F8DC65"/>
<stop offset="0.27" stop-color="#E6C758"/>
<stop offset="0.34" stop-color="#C49F40"/>
<stop offset="0.4" stop-color="#AC832F"/>
<stop offset="0.45" stop-color="#9E7225"/>
<stop offset="0.49" stop-color="#996C22"/>
<stop offset="0.52" stop-color="#9D7125"/>
<stop offset="0.56" stop-color="#A98030"/>
<stop offset="0.6" stop-color="#BD9A42"/>
<stop offset="0.64" stop-color="#D9BE5A"/>
<stop offset="0.69" stop-color="#FBE878"/>
<stop offset="0.77" stop-color="#FFFFAA"/>
<stop offset="0.83" stop-color="#FBE878"/>
<stop offset="1" stop-color="#A4631B"/>
</linearGradient>
<radialGradient id="paint38_radial_694_8116" cx="0" cy="0" r="1" gradientUnits="userSpaceOnUse" gradientTransform="translate(20.5003 21.3577) scale(12.6773 12.8137)">
<stop offset="0.37" stop-color="#FDFDFD"/>
<stop offset="0.65" stop-color="#FAFAFA"/>
<stop offset="0.81" stop-color="#F2F2F2"/>
<stop offset="0.94" stop-color="#E4E4E4"/>
<stop offset="1" stop-color="#DBDBDB"/>
</radialGradient>
<linearGradient id="paint39_linear_694_8116" x1="27.3625" y1="10.3883" x2="11.7029" y2="25.8812" gradientUnits="userSpaceOnUse">
<stop stop-color="#50DBFF"/>
<stop offset="0.52" stop-color="#2069FF"/>
<stop offset="0.76" stop-color="#915CBF"/>
<stop offset="1" stop-color="#FF5183"/>
</linearGradient>
<linearGradient id="paint40_linear_694_8116" x1="32.9373" y1="16.0237" x2="17.2789" y2="31.5153" gradientUnits="userSpaceOnUse">
<stop stop-color="#50DBFF"/>
<stop offset="0.52" stop-color="#2069FF"/>
<stop offset="0.76" stop-color="#915CBF"/>
<stop offset="1" stop-color="#FF5183"/>
</linearGradient>
<linearGradient id="paint41_linear_694_8116" x1="33.562" y1="16.6551" x2="17.9037" y2="32.1468" gradientUnits="userSpaceOnUse">
<stop stop-color="#50DBFF"/>
<stop offset="0.52" stop-color="#2069FF"/>
<stop offset="0.76" stop-color="#915CBF"/>
<stop offset="1" stop-color="#FF5183"/>
</linearGradient>
<linearGradient id="paint42_linear_694_8116" x1="31.3526" y1="14.4222" x2="15.6929" y2="29.9151" gradientUnits="userSpaceOnUse">
<stop stop-color="#50DBFF"/>
<stop offset="0.52" stop-color="#2069FF"/>
<stop offset="0.76" stop-color="#915CBF"/>
<stop offset="1" stop-color="#FF5183"/>
</linearGradient>
<linearGradient id="paint43_linear_694_8116" x1="25.1531" y1="8.15594" x2="9.49346" y2="23.6488" gradientUnits="userSpaceOnUse">
<stop stop-color="#50DBFF"/>
<stop offset="0.52" stop-color="#2069FF"/>
<stop offset="0.76" stop-color="#915CBF"/>
<stop offset="1" stop-color="#FF5183"/>
</linearGradient>
<linearGradient id="paint44_linear_694_8116" x1="25.7779" y1="8.7868" x2="10.1182" y2="24.2797" gradientUnits="userSpaceOnUse">
<stop stop-color="#50DBFF"/>
<stop offset="0.52" stop-color="#2069FF"/>
<stop offset="0.76" stop-color="#915CBF"/>
<stop offset="1" stop-color="#FF5183"/>
</linearGradient>
<linearGradient id="paint45_linear_694_8116" x1="25.9537" y1="13.3136" x2="12.0529" y2="27.0664" gradientUnits="userSpaceOnUse">
<stop stop-color="#50DBFF"/>
<stop offset="0.52" stop-color="#2069FF"/>
<stop offset="0.76" stop-color="#915CBF"/>
<stop offset="1" stop-color="#FF5183"/>
</linearGradient>
<linearGradient id="paint46_linear_694_8116" x1="25.8068" y1="13.1645" x2="11.9061" y2="26.9173" gradientUnits="userSpaceOnUse">
<stop stop-color="#50DBFF"/>
<stop offset="0.52" stop-color="#2069FF"/>
<stop offset="0.76" stop-color="#915CBF"/>
<stop offset="1" stop-color="#FF5183"/>
</linearGradient>
<linearGradient id="paint47_linear_694_8116" x1="25.6792" y1="13.0362" x2="11.7784" y2="26.789" gradientUnits="userSpaceOnUse">
<stop stop-color="#50DBFF"/>
<stop offset="0.52" stop-color="#2069FF"/>
<stop offset="0.76" stop-color="#915CBF"/>
<stop offset="1" stop-color="#FF5183"/>
</linearGradient>
<linearGradient id="paint48_linear_694_8116" x1="25.4858" y1="12.8397" x2="11.585" y2="26.5925" gradientUnits="userSpaceOnUse">
<stop stop-color="#50DBFF"/>
<stop offset="0.52" stop-color="#2069FF"/>
<stop offset="0.76" stop-color="#915CBF"/>
<stop offset="1" stop-color="#FF5183"/>
</linearGradient>
<linearGradient id="paint49_linear_694_8116" x1="27.9897" y1="15.3712" x2="14.0889" y2="29.124" gradientUnits="userSpaceOnUse">
<stop stop-color="#50DBFF"/>
<stop offset="0.52" stop-color="#2069FF"/>
<stop offset="0.76" stop-color="#915CBF"/>
<stop offset="1" stop-color="#FF5183"/>
</linearGradient>
<linearGradient id="paint50_linear_694_8116" x1="28.0923" y1="15.4745" x2="14.1916" y2="29.2273" gradientUnits="userSpaceOnUse">
<stop stop-color="#50DBFF"/>
<stop offset="0.52" stop-color="#2069FF"/>
<stop offset="0.76" stop-color="#915CBF"/>
<stop offset="1" stop-color="#FF5183"/>
</linearGradient>
<linearGradient id="paint51_linear_694_8116" x1="28.2984" y1="15.6839" x2="14.3976" y2="29.4367" gradientUnits="userSpaceOnUse">
<stop stop-color="#50DBFF"/>
<stop offset="0.52" stop-color="#2069FF"/>
<stop offset="0.76" stop-color="#915CBF"/>
<stop offset="1" stop-color="#FF5183"/>
</linearGradient>
<linearGradient id="paint52_linear_694_8116" x1="28.4553" y1="15.8409" x2="14.5545" y2="29.5937" gradientUnits="userSpaceOnUse">
<stop stop-color="#50DBFF"/>
<stop offset="0.52" stop-color="#2069FF"/>
<stop offset="0.76" stop-color="#915CBF"/>
<stop offset="1" stop-color="#FF5183"/>
</linearGradient>
<linearGradient id="paint53_linear_694_8116" x1="28.5843" y1="15.9734" x2="14.6835" y2="29.7262" gradientUnits="userSpaceOnUse">
<stop stop-color="#50DBFF"/>
<stop offset="0.52" stop-color="#2069FF"/>
<stop offset="0.76" stop-color="#915CBF"/>
<stop offset="1" stop-color="#FF5183"/>
</linearGradient>
<linearGradient id="paint54_linear_694_8116" x1="28.7776" y1="16.1684" x2="14.8769" y2="29.9212" gradientUnits="userSpaceOnUse">
<stop stop-color="#50DBFF"/>
<stop offset="0.52" stop-color="#2069FF"/>
<stop offset="0.76" stop-color="#915CBF"/>
<stop offset="1" stop-color="#FF5183"/>
</linearGradient>
<linearGradient id="paint55_linear_694_8116" x1="28.9585" y1="16.3504" x2="15.0578" y2="30.1032" gradientUnits="userSpaceOnUse">
<stop stop-color="#50DBFF"/>
<stop offset="0.52" stop-color="#2069FF"/>
<stop offset="0.76" stop-color="#915CBF"/>
<stop offset="1" stop-color="#FF5183"/>
</linearGradient>
<linearGradient id="paint56_linear_694_8116" x1="31.4335" y1="18.8519" x2="17.5327" y2="32.6047" gradientUnits="userSpaceOnUse">
<stop stop-color="#50DBFF"/>
<stop offset="0.52" stop-color="#2069FF"/>
<stop offset="0.76" stop-color="#915CBF"/>
<stop offset="1" stop-color="#FF5183"/>
</linearGradient>
<linearGradient id="paint57_linear_694_8116" x1="31.8344" y1="19.2582" x2="17.9336" y2="33.011" gradientUnits="userSpaceOnUse">
<stop stop-color="#50DBFF"/>
<stop offset="0.52" stop-color="#2069FF"/>
<stop offset="0.76" stop-color="#915CBF"/>
<stop offset="1" stop-color="#FF5183"/>
</linearGradient>
<linearGradient id="paint58_linear_694_8116" x1="32.2378" y1="19.6649" x2="18.3357" y2="33.4177" gradientUnits="userSpaceOnUse">
<stop stop-color="#50DBFF"/>
<stop offset="0.52" stop-color="#2069FF"/>
<stop offset="0.76" stop-color="#915CBF"/>
<stop offset="1" stop-color="#FF5183"/>
</linearGradient>
<linearGradient id="paint59_linear_694_8116" x1="23.3229" y1="10.6522" x2="9.42211" y2="24.405" gradientUnits="userSpaceOnUse">
<stop stop-color="#50DBFF"/>
<stop offset="0.52" stop-color="#2069FF"/>
<stop offset="0.76" stop-color="#915CBF"/>
<stop offset="1" stop-color="#FF5183"/>
</linearGradient>
<linearGradient id="paint60_linear_694_8116" x1="22.9803" y1="10.3067" x2="9.07826" y2="24.0594" gradientUnits="userSpaceOnUse">
<stop stop-color="#50DBFF"/>
<stop offset="0.52" stop-color="#2069FF"/>
<stop offset="0.76" stop-color="#915CBF"/>
<stop offset="1" stop-color="#FF5183"/>
</linearGradient>
<linearGradient id="paint61_linear_694_8116" x1="22.5717" y1="9.89499" x2="8.67091" y2="23.6478" gradientUnits="userSpaceOnUse">
<stop stop-color="#50DBFF"/>
<stop offset="0.52" stop-color="#2069FF"/>
<stop offset="0.76" stop-color="#915CBF"/>
<stop offset="1" stop-color="#FF5183"/>
</linearGradient>
<linearGradient id="paint62_linear_694_8116" x1="22.1696" y1="9.48674" x2="8.26881" y2="23.2408" gradientUnits="userSpaceOnUse">
<stop stop-color="#50DBFF"/>
<stop offset="0.52" stop-color="#2069FF"/>
<stop offset="0.76" stop-color="#915CBF"/>
<stop offset="1" stop-color="#FF5183"/>
</linearGradient>
<linearGradient id="paint63_linear_694_8116" x1="33.414" y1="20.8521" x2="19.5132" y2="34.6062" gradientUnits="userSpaceOnUse">
<stop stop-color="#50DBFF"/>
<stop offset="0.52" stop-color="#2069FF"/>
<stop offset="0.76" stop-color="#915CBF"/>
<stop offset="1" stop-color="#FF5183"/>
</linearGradient>
<linearGradient id="paint64_linear_694_8116" x1="33.9274" y1="21.3702" x2="20.0267" y2="35.123" gradientUnits="userSpaceOnUse">
<stop stop-color="#50DBFF"/>
<stop offset="0.52" stop-color="#2069FF"/>
<stop offset="0.76" stop-color="#915CBF"/>
<stop offset="1" stop-color="#FF5183"/>
</linearGradient>
<linearGradient id="paint65_linear_694_8116" x1="20.9936" y1="8.29879" x2="7.09279" y2="22.0516" gradientUnits="userSpaceOnUse">
<stop stop-color="#50DBFF"/>
<stop offset="0.52" stop-color="#2069FF"/>
<stop offset="0.76" stop-color="#915CBF"/>
<stop offset="1" stop-color="#FF5183"/>
</linearGradient>
<linearGradient id="paint66_linear_694_8116" x1="20.48" y1="7.77966" x2="6.57922" y2="21.5324" gradientUnits="userSpaceOnUse">
<stop stop-color="#50DBFF"/>
<stop offset="0.52" stop-color="#2069FF"/>
<stop offset="0.76" stop-color="#915CBF"/>
<stop offset="1" stop-color="#FF5183"/>
</linearGradient>
<radialGradient id="paint67_radial_694_8116" cx="0" cy="0" r="1" gradientUnits="userSpaceOnUse" gradientTransform="translate(20.3385 21.6294) scale(1.32414 1.33839)">
<stop offset="0.34" stop-color="#400500"/>
<stop offset="0.37" stop-color="#4E1813"/>
<stop offset="0.47" stop-color="#7C5451"/>
<stop offset="0.57" stop-color="#A48886"/>
<stop offset="0.67" stop-color="#C4B3B1"/>
<stop offset="0.76" stop-color="#DED4D3"/>
<stop offset="0.85" stop-color="#F0EBEB"/>
<stop offset="0.93" stop-color="#FBFAF9"/>
<stop offset="1" stop-color="white"/>
</radialGradient>
<linearGradient id="paint68_linear_694_8116" x1="22.2077" y1="19.6322" x2="17.1191" y2="24.6654" gradientUnits="userSpaceOnUse">
<stop stop-color="#0E5DF8"/>
<stop offset="0.31" stop-color="#0E4DE0"/>
<stop offset="0.96" stop-color="#0F26A2"/>
<stop offset="1" stop-color="#10249F"/>
</linearGradient>
<linearGradient id="paint69_linear_694_8116" x1="20.5926" y1="11.0184" x2="20.5926" y2="7.21799" gradientUnits="userSpaceOnUse">
<stop stop-color="#FFFB90"/>
<stop offset="0.14" stop-color="#FBE978"/>
<stop offset="0.24" stop-color="#F8DC65"/>
<stop offset="0.27" stop-color="#E6C758"/>
<stop offset="0.34" stop-color="#C49F40"/>
<stop offset="0.4" stop-color="#AC832F"/>
<stop offset="0.45" stop-color="#9E7225"/>
<stop offset="0.49" stop-color="#996C22"/>
<stop offset="0.52" stop-color="#9D7125"/>
<stop offset="0.56" stop-color="#A98030"/>
<stop offset="0.6" stop-color="#BD9A42"/>
<stop offset="0.64" stop-color="#D9BE5A"/>
<stop offset="0.69" stop-color="#FBE878"/>
<stop offset="0.77" stop-color="#FFFFAA"/>
<stop offset="0.83" stop-color="#FBE878"/>
<stop offset="1" stop-color="#A4631B"/>
</linearGradient>
</defs>
</svg>
