<svg viewBox="0 0 25 24" fill="none" xmlns="http://www.w3.org/2000/svg">
<path d="M13.0719 22.0004C8.56891 22.0004 4.62691 18.9604 3.46191 14.5874C2.29691 10.2144 4.19891 5.59936 8.09991 3.33736C9.99617 2.23754 12.2037 1.79778 14.3766 2.08695C16.5496 2.37612 18.5653 3.3779 20.1079 4.93536L16.7729 8.30236C16.2902 7.81854 15.7166 7.43493 15.0851 7.17358C14.4536 6.91223 13.7767 6.77831 13.0932 6.77952C12.4098 6.78073 11.7333 6.91704 11.1027 7.18062C10.4722 7.4442 9.89992 7.82984 9.41891 8.31536C8.44398 9.29861 7.89697 10.6272 7.89697 12.0119C7.89697 13.3965 8.44398 14.7251 9.41891 15.7084C9.89992 16.1939 10.4722 16.5795 11.1027 16.8431C11.7333 17.1067 12.4098 17.243 13.0932 17.2442C13.7767 17.2454 14.4536 17.1115 15.0851 16.8501C15.7166 16.5888 16.2902 16.2052 16.7729 15.7214L20.1219 19.0884C19.1977 20.0158 18.0988 20.7508 16.8886 21.2506C15.6785 21.7504 14.3812 22.0053 13.0719 22.0004Z" fill="white"/>
</svg>
