<svg viewBox="0 0 25 24" fill="none" xmlns="http://www.w3.org/2000/svg">
<path d="M10.6203 16.9783C10.0872 22.3106 14.9245 19.401 16.7285 16.7725C17.1014 21.7763 21.4945 16.7332 22.4842 14.3055C25.2685 7.47344 21.3708 -1.42918 10.7372 5.5232C-2.45221 14.1475 2.39978 27.9471 10.6203 16.9783Z" fill="white" stroke="white" stroke-width="1.06098" stroke-linecap="round" stroke-linejoin="round"/>
<path d="M19.4075 9.98431C19.975 9.98431 20.435 9.32718 20.435 8.51657C20.435 7.70596 19.975 7.04883 19.4075 7.04883C18.8401 7.04883 18.3801 7.70596 18.3801 8.51657C18.3801 9.32718 18.8401 9.98431 19.4075 9.98431Z" fill="#584FFF" stroke="#584FFF" stroke-width="1.06098" stroke-linecap="round" stroke-linejoin="round"/>
<path d="M15.9533 9.87286C16.5208 9.87286 16.9807 9.21573 16.9807 8.40512C16.9807 7.59451 16.5208 6.93738 15.9533 6.93738C15.3859 6.93738 14.9259 7.59451 14.9259 8.40512C14.9259 9.21573 15.3859 9.87286 15.9533 9.87286Z" fill="#584FFF" stroke="#584FFF" stroke-width="1.06098" stroke-linecap="round" stroke-linejoin="round"/>
</svg>
