<svg viewBox="0 0 25 24" fill="none" xmlns="http://www.w3.org/2000/svg">
<g clip-path="url(#clip0_0_4336)">
<path d="M5.7912 7.51925C9.7062 3.68825 16.0512 3.68825 19.9652 7.51925L20.4362 7.98025C20.4827 8.02528 20.5197 8.0792 20.545 8.13881C20.5702 8.19843 20.5832 8.26251 20.5832 8.32725C20.5832 8.39199 20.5702 8.45607 20.545 8.51568C20.5197 8.57529 20.4827 8.62921 20.4362 8.67425L18.8252 10.2512C18.802 10.2745 18.7744 10.293 18.744 10.3056C18.7136 10.3182 18.6811 10.3247 18.6482 10.3247C18.6153 10.3247 18.5828 10.3182 18.5524 10.3056C18.522 10.293 18.4944 10.2745 18.4712 10.2512L17.8222 9.61725C15.0922 6.94425 10.6652 6.94425 7.9352 9.61725L7.2412 10.2972C7.19362 10.3434 7.12996 10.3692 7.0637 10.3692C6.99744 10.3692 6.93377 10.3434 6.8862 10.2972L5.2752 8.71925C5.22846 8.67444 5.19128 8.62065 5.16587 8.5611C5.14047 8.50156 5.12737 8.43749 5.12737 8.37275C5.12737 8.30801 5.14047 8.24393 5.16587 8.18439C5.19128 8.12484 5.22846 8.07105 5.2752 8.02625L5.7912 7.51925ZM23.2972 10.7822L24.7312 12.1862C24.7777 12.2313 24.8147 12.2852 24.84 12.3448C24.8652 12.4044 24.8782 12.4685 24.8782 12.5332C24.8782 12.598 24.8652 12.6621 24.84 12.7217C24.8147 12.7813 24.7777 12.8352 24.7312 12.8802L18.2652 19.2112C18.1701 19.3032 18.043 19.3546 17.9107 19.3546C17.7784 19.3546 17.6513 19.3032 17.5562 19.2112L12.9682 14.7182C12.9446 14.6947 12.9126 14.6814 12.8792 14.6814C12.8458 14.6814 12.8138 14.6947 12.7902 14.7182L8.2012 19.2112C8.1061 19.3032 7.97899 19.3546 7.8467 19.3546C7.71441 19.3546 7.5873 19.3032 7.4922 19.2112L1.0252 12.8802C0.978686 12.8352 0.941703 12.7813 0.916446 12.7217C0.891189 12.6621 0.878174 12.598 0.878174 12.5332C0.878174 12.4685 0.891189 12.4044 0.916446 12.3448C0.941703 12.2852 0.978686 12.2313 1.0252 12.1862L2.4592 10.7822C2.5543 10.6903 2.68141 10.6389 2.8137 10.6389C2.94598 10.6389 3.0731 10.6903 3.1682 10.7822L7.7572 15.2752C7.8072 15.3232 7.8862 15.3232 7.9352 15.2752L12.5242 10.7822C12.6193 10.6903 12.7464 10.6389 12.8787 10.6389C13.011 10.6389 13.1381 10.6903 13.2332 10.7822L17.8222 15.2752C17.8722 15.3232 17.9502 15.3232 18.0002 15.2752L22.5892 10.7822C22.6839 10.6899 22.8109 10.6382 22.9432 10.6382C23.0755 10.6382 23.2025 10.6899 23.2972 10.7822Z" fill="white"/>
</g>
<defs>
<clipPath id="clip0_0_4336">
<rect width="24" height="24" fill="white" transform="translate(0.878174)"/>
</clipPath>
</defs>
</svg>
