<svg width="18" height="19" viewBox="0 0 18 19" fill="none" xmlns="http://www.w3.org/2000/svg">
<g clip-path="url(#clip0_50_456)">
<path d="M5.625 0.5H2.25C1.00736 0.5 0 1.50736 0 2.75V6.125C0 7.36764 1.00736 8.375 2.25 8.375H5.625C6.86764 8.375 7.875 7.36764 7.875 6.125V2.75C7.875 1.50736 6.86764 0.5 5.625 0.5Z" fill="white"/>
<path d="M5.625 10.625H2.25C1.00736 10.625 0 11.6324 0 12.875V16.25C0 17.4927 1.00736 18.5 2.25 18.5H5.625C6.86764 18.5 7.875 17.4927 7.875 16.25V12.875C7.875 11.6324 6.86764 10.625 5.625 10.625Z" fill="white"/>
<path d="M15.75 10.625H12.375C11.1324 10.625 10.125 11.6324 10.125 12.875V16.25C10.125 17.4927 11.1324 18.5 12.375 18.5H15.75C16.9927 18.5 18 17.4927 18 16.25V12.875C18 11.6324 16.9927 10.625 15.75 10.625Z" fill="white"/>
<path d="M11.25 4.4375H16.875" stroke="white" stroke-width="2" stroke-linecap="round" stroke-linejoin="round"/>
<path d="M14.0625 1.625V7.25" stroke="white" stroke-width="2" stroke-linecap="round" stroke-linejoin="round"/>
</g>
<defs>
<clipPath id="clip0_50_456">
<rect width="18" height="18" fill="white" transform="translate(0 0.5)"/>
</clipPath>
</defs>
</svg>
