<svg width="18" height="19" viewBox="0 0 18 19" fill="none" xmlns="http://www.w3.org/2000/svg">
<g clip-path="url(#clip0_119_1338)">
<path d="M8.49129 0.5C8.81895 0.5 9.14625 0.5 9.47391 0.5C9.70488 0.530234 9.93621 0.555898 10.1665 0.591406C11.6842 0.82625 13.0247 1.44746 14.1711 2.4677C15.7089 3.83598 16.5895 5.55301 16.7994 7.5998C16.9436 9.00676 16.6968 10.3546 16.1128 11.6459C14.7593 14.6381 11.4912 16.5211 8.22902 16.1755C6.69797 16.013 5.30227 15.4903 4.1168 14.5052C1.6875 12.4865 0.728087 9.89727 1.29621 6.78734C1.62492 4.98734 2.55481 3.50656 3.95262 2.32988C5.00098 1.44746 6.20473 0.878281 7.55754 0.636758C7.86692 0.581563 8.17981 0.545 8.49129 0.5ZM3.66328 8.34828C3.65309 11.2666 6.02895 13.6523 8.96274 13.6695C11.8927 13.6864 14.2784 11.3179 14.3012 8.36937C14.3237 5.45387 11.9254 3.04355 8.99297 3.03477C6.06656 3.02598 3.67383 5.41133 3.66363 8.34828H3.66328Z" fill="white" fill-opacity="0.5"/>
<path d="M3.66328 8.34833C3.67348 5.41138 6.06621 3.02603 8.99262 3.03481C11.925 3.0436 14.3234 5.45392 14.3009 8.36942C14.278 11.318 11.8923 13.6865 8.96238 13.6696C6.02859 13.6527 3.65273 11.267 3.66293 8.34833H3.66328ZM13.2483 8.35009C13.2402 5.99778 11.3277 4.08739 8.98207 4.08774C6.63117 4.08774 4.69898 6.02696 4.71621 8.36837C4.73379 10.7281 6.64102 12.6233 8.99156 12.6167C11.3449 12.61 13.2564 10.694 13.2483 8.35009Z" fill="white"/>
<path d="M14.1877 15.6217C14.4274 15.865 14.6802 16.1241 14.9351 16.3804C15.3102 16.7576 15.6857 17.1341 16.0636 17.5082C16.2454 17.6882 16.3357 17.8928 16.2292 18.1403C16.1241 18.3843 15.9202 18.4662 15.6618 18.4662C11.2078 18.4637 6.75387 18.4637 2.29992 18.4662C2.04082 18.4662 1.83867 18.3818 1.73391 18.1382C1.62738 17.89 1.72125 17.6878 1.90266 17.5075C2.50383 16.9102 3.10184 16.3094 3.70125 15.7103C3.73395 15.6776 3.76945 15.6477 3.78984 15.6294C7.25203 17.8165 10.6966 17.8232 14.1873 15.6217H14.1877Z" fill="white" fill-opacity="0.5"/>
<path d="M13.2483 8.34999C13.2564 10.6935 11.3449 12.6095 8.99156 12.6166C6.64101 12.6232 4.73379 10.7283 4.71621 8.36827C4.69863 6.02687 6.63082 4.088 8.98207 4.08765C11.328 4.08765 13.2402 5.99804 13.2483 8.34999ZM6.3109 7.7112C6.32848 7.76112 6.35168 7.8578 6.39457 7.94499C6.54152 8.24347 6.70113 8.53561 6.84316 8.8362C6.90434 8.96558 6.94934 9.1069 6.97535 9.24788C7.03477 9.56921 7.0759 9.89335 7.12758 10.2161C7.18383 10.5662 7.44434 10.7483 7.7959 10.6889C7.96289 10.6608 8.12988 10.633 8.29723 10.6091C8.54508 10.574 8.79574 10.5026 9.04078 10.5188C9.41766 10.5434 9.79066 10.6271 10.1651 10.6886C10.5212 10.7473 10.7736 10.5747 10.8362 10.2221C10.8657 10.0554 10.8939 9.88843 10.9121 9.72038C10.9603 9.28163 11.0595 8.86222 11.2961 8.48007C11.4093 8.29726 11.4982 8.09862 11.5907 7.90351C11.725 7.61979 11.6321 7.34101 11.3576 7.18667C11.2968 7.15222 11.2349 7.11882 11.1702 7.09175C10.5307 6.82386 9.97734 6.43749 9.52945 5.90452C9.47707 5.84229 9.4159 5.78675 9.35578 5.7312C9.13254 5.52483 8.81473 5.5055 8.61715 5.7312C8.05359 6.37456 7.38633 6.86394 6.59812 7.19546C6.40441 7.27702 6.32039 7.45315 6.3109 7.7119V7.7112Z" fill="white" fill-opacity="0.5"/>
<path d="M6.3109 7.71128C6.32039 7.45218 6.40441 7.27604 6.59812 7.19483C7.38633 6.86331 8.05359 6.37394 8.61715 5.73058C8.81437 5.50522 9.13254 5.52421 9.35578 5.73058C9.4159 5.78612 9.47672 5.84167 9.52945 5.9039C9.97769 6.43687 10.5307 6.82323 11.1702 7.09112C11.2345 7.11819 11.2964 7.15194 11.3576 7.18604C11.6321 7.34038 11.725 7.61952 11.5907 7.90288C11.4982 8.098 11.4096 8.29663 11.2961 8.47944C11.0595 8.86159 10.96 9.28101 10.9121 9.71976C10.8939 9.8878 10.8657 10.0551 10.8362 10.2214C10.774 10.5744 10.5212 10.7467 10.1651 10.688C9.79102 10.6264 9.41766 10.5424 9.04078 10.5182C8.79609 10.5023 8.54508 10.5733 8.29723 10.6085C8.12988 10.6324 7.96289 10.6602 7.7959 10.6883C7.44469 10.7477 7.18418 10.5653 7.12758 10.2155C7.0759 9.89272 7.03441 9.56858 6.97535 9.24726C6.94934 9.10663 6.90434 8.96495 6.84316 8.83558C6.70113 8.53499 6.54117 8.24284 6.39457 7.94437C6.35168 7.85718 6.32848 7.7605 6.3109 7.71058V7.71128ZM9.86238 9.59038C9.91828 9.2687 9.93691 8.97233 10.0262 8.69952C10.1173 8.42073 10.2779 8.16444 10.4207 7.87229C9.8434 7.66065 9.3716 7.3119 8.9775 6.81937C8.59078 7.33054 8.10809 7.65573 7.5252 7.88706C7.88027 8.40913 8.05465 8.96354 8.08312 9.59741C8.69027 9.4262 9.26648 9.42128 9.86273 9.59038H9.86238Z" fill="white"/>
<path d="M9.86238 9.59035C9.26613 9.4216 8.68992 9.42652 8.08277 9.59738C8.0543 8.96352 7.87992 8.4091 7.52484 7.88703C8.10773 7.6557 8.59043 7.33051 8.97715 6.81934C9.3716 7.31188 9.84305 7.66062 10.4203 7.87227C10.2776 8.16406 10.1169 8.42035 10.0259 8.69949C9.93656 8.97266 9.91793 9.26867 9.86203 9.59035H9.86238Z" fill="white" fill-opacity="0.5"/>
</g>
<defs>
<clipPath id="clip0_119_1338">
<rect width="18" height="18" fill="white" transform="translate(0 0.5)"/>
</clipPath>
</defs>
</svg>
