<svg width="17" height="15" viewBox="0 0 17 15" fill="none" xmlns="http://www.w3.org/2000/svg">
<path fill-rule="evenodd" clip-rule="evenodd" d="M8.21059 0.641968H6.10536C5.73575 0.641968 5.41827 0.821025 5.22706 1.13736L5.16282 1.24355C4.94942 1.5965 4.59515 1.79618 4.18267 1.79618H3.37914C1.9386 1.79618 0.767729 2.7416 0.767729 4.55648L0.0300145 12.4382C-0.328696 14.3318 2.62916 15.1784 3.50003 13.3184L5.43764 9.75049C5.67622 9.31131 6.02278 8.97235 6.52246 8.97235H9.89872C10.3984 8.97235 10.745 9.31148 10.9835 9.75049L12.9211 13.3184C13.792 15.1784 16.7499 14.3319 16.3912 12.4382L15.6534 4.55648C15.6534 2.7416 14.4825 1.79618 13.042 1.79618H12.2385C11.826 1.79618 11.4718 1.59656 11.2584 1.24355L11.1941 1.13736C11.0029 0.821025 10.6854 0.641968 10.3158 0.641968H8.21053H8.21059ZM9.07223 2.79429V3.31621C9.07223 3.78615 8.36165 3.78615 8.36165 3.31621V2.79429C8.36165 2.32434 9.07223 2.32434 9.07223 2.79429ZM7.912 2.79429V3.31621C7.912 3.78615 7.20147 3.78615 7.20147 3.31621V2.79429C7.20147 2.32434 7.912 2.32434 7.912 2.79429ZM10.2324 2.79429V3.31621C10.2324 3.78615 9.52183 3.78615 9.52183 3.31621V2.79429C9.52183 2.32434 10.2324 2.32434 10.2324 2.79429ZM11.2962 5.6828C11.2962 6.14944 10.9178 6.52774 10.4512 6.52774C9.98455 6.52774 9.60625 6.14944 9.60625 5.6828C9.60625 5.21617 9.98461 4.83787 10.4512 4.83787C10.9178 4.83787 11.2962 5.21617 11.2962 5.6828ZM11.9547 6.3413C12.4213 6.3413 12.7996 6.71965 12.7996 7.18629C12.7996 7.65292 12.4213 8.03122 11.9547 8.03122C11.488 8.03122 11.1097 7.65286 11.1097 7.18629C11.1097 6.71971 11.488 6.3413 11.9547 6.3413ZM14.3032 5.6828C14.3032 6.14944 13.9248 6.52774 13.4583 6.52774C12.9917 6.52774 12.6133 6.14944 12.6133 5.6828C12.6133 5.21617 12.9916 4.83787 13.4583 4.83787C13.9249 4.83787 14.3032 5.21617 14.3032 5.6828ZM11.9547 3.33428C12.4213 3.33428 12.7996 3.71263 12.7996 4.17921C12.7996 4.64579 12.4213 5.0242 11.9547 5.0242C11.488 5.0242 11.1097 4.64585 11.1097 4.17921C11.1097 3.71258 11.488 3.33428 11.9547 3.33428ZM4.41393 3.39766C5.67595 3.39766 6.69907 4.42078 6.69907 5.6828C6.69907 6.94483 5.67595 7.96795 4.41393 7.96795C3.1519 7.96795 2.12878 6.94483 2.12878 5.6828C2.12878 4.42078 3.1519 3.39766 4.41393 3.39766Z" fill="white" fill-opacity="0.5"/>
<path fill-rule="evenodd" clip-rule="evenodd" d="M4.41399 3.00751C5.89152 3.00751 7.08925 4.20532 7.08925 5.68277C7.08925 7.16022 5.89144 8.35803 4.41399 8.35803C2.93654 8.35803 1.73873 7.16022 1.73873 5.68277C1.73873 4.20532 2.93654 3.00751 4.41399 3.00751ZM4.41399 5.09025C4.74126 5.09025 5.0065 5.35558 5.0065 5.68277C5.0065 6.00995 4.74117 6.27528 4.41399 6.27528C4.0868 6.27528 3.82147 6.00995 3.82147 5.68277C3.82147 5.35558 4.0868 5.09025 4.41399 5.09025ZM4.12736 4.12514H4.70045C4.81718 4.12514 4.91261 4.22057 4.91261 4.3373V5.18406H5.75937C5.8761 5.18406 5.97153 5.27949 5.97153 5.39622V5.9694C5.97153 6.08613 5.8761 6.18155 5.75937 6.18155H4.91261V7.02824C4.91261 7.14497 4.81718 7.24039 4.70045 7.24039H4.12736C4.01054 7.24039 3.91511 7.14497 3.91511 7.02824V6.18155H3.06843C2.9517 6.18155 2.85627 6.08613 2.85627 5.9694V5.39622C2.85627 5.27949 2.9517 5.18406 3.06843 5.18406H3.91511V4.3373C3.91511 4.22057 4.01054 4.12514 4.12736 4.12514Z" fill="white"/>
<path fill-rule="evenodd" clip-rule="evenodd" d="M11.9547 3.75684C12.1881 3.75684 12.3771 3.94593 12.3771 4.17925C12.3771 4.41256 12.1881 4.60166 11.9547 4.60166C11.7214 4.60166 11.5323 4.41256 11.5323 4.17925C11.5323 3.94593 11.7214 3.75684 11.9547 3.75684Z" fill="white"/>
<path fill-rule="evenodd" clip-rule="evenodd" d="M13.8807 5.68279C13.8807 5.91611 13.6916 6.1052 13.4583 6.1052C13.225 6.1052 13.0359 5.91611 13.0359 5.68279C13.0359 5.44947 13.225 5.26038 13.4583 5.26038C13.6916 5.26038 13.8807 5.44947 13.8807 5.68279Z" fill="white"/>
<path fill-rule="evenodd" clip-rule="evenodd" d="M11.9547 6.76385C12.1881 6.76385 12.3771 6.95295 12.3771 7.18627C12.3771 7.41958 12.1881 7.60868 11.9547 7.60868C11.7214 7.60868 11.5323 7.41953 11.5323 7.18627C11.5323 6.953 11.7214 6.76385 11.9547 6.76385Z" fill="white"/>
<path fill-rule="evenodd" clip-rule="evenodd" d="M10.8737 5.68279C10.8737 5.91611 10.6846 6.1052 10.4513 6.1052C10.218 6.1052 10.0289 5.91611 10.0289 5.68279C10.0289 5.44947 10.218 5.26038 10.4513 5.26038C10.6846 5.26038 10.8737 5.44947 10.8737 5.68279Z" fill="white"/>
</svg>
