<svg width="18" height="19" viewBox="0 0 18 19" fill="none" xmlns="http://www.w3.org/2000/svg">
<g clip-path="url(#clip0_123_1638)">
<path d="M6.86798 3.63897C6.86798 3.4832 6.99508 3.35406 7.15681 3.35406H8.35458C8.51245 3.35406 8.64341 3.4832 8.64341 3.63897C8.64341 3.79473 8.51245 3.92387 8.35458 3.92387H7.15681C6.99508 3.92387 6.86798 3.7985 6.86798 3.63897Z" fill="black"/>
<path d="M7.78073 1.83075C7.66904 1.72057 7.66904 1.53823 7.78073 1.42809C7.89243 1.31791 8.07729 1.31791 8.18899 1.42809L9.03622 2.26379C9.14791 2.37397 9.14791 2.55631 9.03622 2.66645C8.9785 2.71965 8.90525 2.75004 8.83209 2.75004C8.75893 2.75004 8.68568 2.71965 8.62796 2.66645L7.78073 1.83075Z" fill="black"/>
<path d="M9.72559 1.96749V0.786062C9.72559 0.62649 9.8526 0.50116 10.0144 0.50116C10.1762 0.50116 10.3033 0.62649 10.3033 0.786062V1.96749C10.3033 2.12321 10.1723 2.25239 10.0144 2.25239C9.85655 2.25239 9.72559 2.12321 9.72559 1.96749Z" fill="black"/>
<path d="M9.29083 6.9212C9.29083 8.21347 9.91722 9.43412 10.9659 10.2095H15.9575C17.0035 9.43584 17.6284 8.21523 17.6284 6.9212C17.6284 4.65453 15.7592 2.81079 13.4617 2.81079C11.1641 2.81079 9.29083 4.65453 9.29083 6.9212ZM12.7449 7.2061C12.4252 7.2061 12.1653 6.94937 12.1653 6.63407V5.62059C12.1653 5.30526 12.4252 5.04857 12.7449 5.04857H13.1691V4.71469C13.1691 4.55738 13.2985 4.42979 13.4579 4.42979C13.6174 4.42979 13.7468 4.55742 13.7468 4.71469V5.04857H14.4617C14.6212 5.04857 14.7506 5.1762 14.7506 5.33347C14.7506 5.49074 14.6212 5.61837 14.4617 5.61837H12.7449L12.743 6.63412L14.1706 6.63634C14.4903 6.63634 14.7506 6.89307 14.7506 7.20836V8.22184C14.7506 8.53718 14.4903 8.79387 14.1706 8.79387H13.7468V9.12737C13.7468 9.28468 13.6174 9.41227 13.4579 9.41227C13.2985 9.41227 13.1691 9.28464 13.1691 9.12737V8.79387H12.4542C12.2947 8.79387 12.1653 8.66623 12.1653 8.50896C12.1653 8.35169 12.2947 8.22406 12.4542 8.22406H14.1706L14.1729 7.20832L12.7449 7.2061Z" fill="white"/>
<path d="M13.8137 10.7793H11.6312V18.5H13.8137V10.7793Z" fill="white" fill-opacity="0.5"/>
<path d="M1.36882 10.6703C1.54672 10.4545 1.77771 10.2861 2.05029 10.1898C2.35109 10.084 2.66954 10.0722 2.97124 10.15L2.99504 10.1001C2.99691 10.0967 2.99844 10.093 3.00031 10.0897C3.00031 10.0893 3.00069 10.0889 3.00069 10.0889C3.1906 9.66194 3.0082 9.17151 2.58437 8.97078C2.15677 8.77341 1.64301 8.95559 1.44143 9.37851L1.25301 9.77359C1.10766 10.0801 1.16236 10.4275 1.36887 10.6703H1.36882Z" fill="white"/>
<path d="M5.55065 6.27307C5.53108 6.27307 5.51491 6.27751 5.50439 6.28123C5.48483 6.28827 5.44871 6.3061 5.42804 6.34951L3.81952 9.71488L6.22341 10.8328L7.83168 7.46764C7.85273 7.42386 7.84408 7.38493 7.83695 7.36563C7.82982 7.34633 7.81174 7.31109 7.76773 7.2907H7.76735L5.60747 6.28609C5.58714 6.27646 5.56762 6.27311 5.55069 6.27311L5.55065 6.27307Z" fill="white" fill-opacity="0.5"/>
<path d="M1.86105 13.8124L0.252611 17.1775C0.231944 17.2205 0.240558 17.2598 0.24773 17.2791C0.25486 17.2984 0.272939 17.334 0.316947 17.3544L2.47721 18.359C2.54413 18.3898 2.62464 18.3616 2.65697 18.2952L4.26516 14.9304L1.86109 13.8124H1.86105Z" fill="white" fill-opacity="0.5"/>
<path d="M1.9142 12.3611L2.71827 10.6784C2.67239 10.6721 2.62575 10.6688 2.57911 10.6688C2.46665 10.6688 2.35419 10.6881 2.24513 10.7263C1.99653 10.8142 1.79796 10.9919 1.68588 11.2263C1.57342 11.4616 1.56065 11.7257 1.65015 11.9705C1.70583 12.1226 1.79643 12.2558 1.91415 12.3611H1.9142Z" fill="white"/>
<path d="M0.49443 13.3453C0.920931 13.5434 1.43502 13.3598 1.63962 12.9376L1.66219 12.8903C1.40901 12.7102 1.2152 12.4604 1.10672 12.1637C1.0084 11.8941 0.992949 11.6103 1.04939 11.3367C0.725378 11.3358 0.419527 11.5154 0.275196 11.8206L0.0811275 12.2186C-0.0155461 12.4212 -0.0264526 12.6515 0.0518029 12.8649C0.129634 13.0785 0.286867 13.2492 0.494473 13.3452L0.49443 13.3453Z" fill="white"/>
<path d="M5.97698 11.3483L3.57308 10.2304L2.10736 13.2969L4.51147 14.4149L5.97698 11.3483Z" fill="white"/>
<path d="M16.0579 10.7808C16.0557 10.7808 16.0537 10.7793 16.0514 10.7793H14.3914V18.5H17.3907C17.7266 18.5 18 18.2303 18 17.899V10.7793H16.0676C16.0643 10.7794 16.0611 10.7808 16.0579 10.7808Z" fill="white" fill-opacity="0.5"/>
<path d="M8.05425 18.5H11.0536V10.7793H7.44501V17.899C7.44501 18.2303 7.71844 18.5 8.05429 18.5H8.05425Z" fill="white" fill-opacity="0.5"/>
<path d="M10.013 2.25098C9.85347 2.25098 9.72412 2.12335 9.72412 1.96608V0.784902C9.72412 0.627591 9.85351 0.5 10.013 0.5C10.1724 0.5 10.3018 0.627633 10.3018 0.784902V1.96608C10.3018 2.12339 10.1724 2.25098 10.013 2.25098Z" fill="white" fill-opacity="0.5"/>
<path d="M8.8316 2.74919C8.75751 2.74919 8.68379 2.72135 8.62739 2.66572L7.7808 1.83064C7.66796 1.71934 7.66796 1.53904 7.7808 1.42778C7.89364 1.31647 8.07642 1.31647 8.18922 1.42778L9.03582 2.26285C9.14866 2.37416 9.14866 2.55445 9.03582 2.66572C8.97942 2.72135 8.9057 2.74919 8.8316 2.74919Z" fill="white" fill-opacity="0.5"/>
<path d="M8.35329 3.92558H7.1562C6.99672 3.92558 6.86737 3.79795 6.86737 3.64068C6.86737 3.48341 6.99676 3.35577 7.1562 3.35577H8.35329C8.51277 3.35577 8.64212 3.48341 8.64212 3.64068C8.64212 3.79795 8.51273 3.92558 8.35329 3.92558Z" fill="white" fill-opacity="0.5"/>
</g>
<defs>
<clipPath id="clip0_123_1638">
<rect width="18" height="18" fill="white" transform="translate(0 0.5)"/>
</clipPath>
</defs>
</svg>
