<svg width="18" height="19" viewBox="0 0 18 19" fill="none" xmlns="http://www.w3.org/2000/svg">
<path fill-rule="evenodd" clip-rule="evenodd" d="M11.9777 5.76282C12.3088 5.85144 12.5847 6.06228 12.7545 6.3565C13.0823 6.92424 12.9234 7.6415 12.4086 8.02262L11.1384 5.82297C11.4014 5.70889 11.6943 5.68691 11.9777 5.76282ZM7.75746 16.3873L6.26891 13.8093L4.87953 14.6115L6.36773 17.1896C6.58925 17.5726 7.08074 17.7043 7.46394 17.4831C7.64816 17.3767 7.78035 17.2035 7.83628 16.9957C7.89186 16.7878 7.86391 16.5718 7.75746 16.3873ZM12.1463 3.20119C12.0251 3.41136 12.0971 3.68012 12.3073 3.80148C12.3738 3.84016 12.4494 3.86052 12.5264 3.86048C12.6782 3.86048 12.8262 3.78166 12.9074 3.64068L13.8153 2.06877C13.9365 1.85861 13.8645 1.58984 13.6543 1.46848C13.4439 1.34716 13.1754 1.41916 13.0542 1.62932L12.1463 3.20119ZM17.438 8.02115C17.438 7.77864 17.2415 7.5817 16.9974 7.5817L15.1828 7.58187C14.9403 7.58187 14.7434 7.77864 14.7434 8.02132C14.7434 8.26401 14.9403 8.46078 15.1828 8.46078L16.9974 8.4606C17.2415 8.4606 17.438 8.26401 17.438 8.02115ZM16.3873 4.25908C16.2652 4.04891 15.9975 3.97691 15.7873 4.09824L14.177 5.02766C13.9666 5.1492 13.8946 5.41779 14.0159 5.62813C14.0448 5.67813 14.0832 5.72195 14.129 5.7571C14.1748 5.79224 14.2271 5.81802 14.2829 5.83296C14.3386 5.84789 14.3968 5.8517 14.454 5.84415C14.5112 5.8366 14.5664 5.81785 14.6164 5.78897L16.2263 4.85937C16.4364 4.73801 16.5093 4.46924 16.3873 4.25908Z" fill="white"/>
<path d="M13.2928 11.3119L8.73199 3.41269C8.63707 3.24795 8.48098 3.15763 8.29219 3.15763L8.28136 3.15781C8.08765 3.16136 7.93089 3.25762 7.84004 3.42897C7.67973 3.73149 7.52515 4.05433 7.3616 4.39619C6.67335 5.83369 5.89952 7.44968 4.25066 8.55517L6.60047 12.6205C8.3805 11.7466 10.1665 11.8843 11.7547 12.007C12.1331 12.0363 12.4902 12.0637 12.8327 12.0763C13.0268 12.0837 13.1881 11.9959 13.288 11.8299C13.3881 11.6638 13.3895 11.4797 13.2928 11.3119Z" fill="white" fill-opacity="0.55"/>
<path d="M4.05944 14.0702L5.83202 13.0468L3.49677 9.00767L1.72672 10.0298C1.18982 10.3398 0.804925 10.8431 0.643242 11.447C0.481207 12.051 0.562734 12.6794 0.872707 13.2162C1.30453 13.9637 2.09024 14.3822 2.89711 14.3822C3.29251 14.3822 3.69301 14.2817 4.05944 14.0702Z" fill="white" fill-opacity="0.55"/>
</svg>
