<svg width="18" height="19" viewBox="0 0 18 19" fill="none" xmlns="http://www.w3.org/2000/svg">
<g clip-path="url(#clip0_117_1027)">
<path d="M8.99831 0.5C4.03595 0.5 0 4.53665 0 9.5C0 14.4633 4.03595 18.5 8.99831 18.5C13.9607 18.5 18 14.4633 18 9.5C18 4.53665 13.9607 0.5 8.99831 0.5ZM8.99831 18.1667C4.22249 18.1667 0.33328 14.28 0.33328 9.50005C0.33328 4.72006 4.22254 0.833343 8.99831 0.833343C13.7741 0.833343 17.6667 4.72001 17.6667 9.5C17.6667 14.28 13.7775 18.1667 8.99831 18.1667V18.1667Z" fill="white"/>
<path d="M16.6336 7.21002C16.6303 7.2 16.6303 7.19003 16.6237 7.18002V7.1767C16.4036 6.45339 16.0837 5.77337 15.6738 5.15339C15.6738 5.15007 15.6705 5.14669 15.6705 5.14669C15.6671 5.13336 15.6638 5.12002 15.6538 5.10668C15.6471 5.09667 15.6371 5.08333 15.6271 5.07668C15.1639 4.38337 14.6007 3.77336 13.9541 3.26336L13.9508 3.26003V3.25671C13.9441 3.2467 13.9342 3.23673 13.9241 3.23004C13.9175 3.22334 13.9075 3.2167 13.8975 3.2167L13.8942 3.21338C13.2276 2.69336 12.4811 2.27339 11.6679 1.98671C11.6612 1.98339 11.6579 1.98339 11.6546 1.98339C11.6513 1.98339 11.6479 1.98007 11.6446 1.98007C10.8181 1.68674 9.92494 1.52673 8.99842 1.52673C8.07189 1.52673 7.15206 1.69006 6.31225 1.9934C5.52245 2.27677 4.78916 2.68007 4.13599 3.18675C4.12929 3.19007 4.11938 3.19345 4.11274 3.20009C4.10272 3.21011 4.09271 3.21675 4.0827 3.22677C4.08048 3.22677 4.07937 3.22787 4.07937 3.23009C3.43284 3.74009 2.86622 4.34673 2.40301 5.03008C2.393 5.03677 2.38635 5.04674 2.38308 5.06008C1.94971 5.70008 1.60989 6.40341 1.37987 7.15672C1.3766 7.16004 1.3766 7.16341 1.3766 7.17005C1.15991 7.86669 1.0399 8.6067 1.02998 9.37002C1.02777 9.37224 1.02777 9.37447 1.02998 9.37672C1.02666 9.41673 1.02666 9.46007 1.02666 9.50003C1.02666 10.3034 1.14658 11.0767 1.36996 11.8067C1.58986 12.5467 1.91982 13.2434 2.33976 13.8767C2.34308 13.8867 2.34977 13.8967 2.35978 13.9067C2.3631 13.9134 2.3698 13.9167 2.37307 13.9234C2.83301 14.6167 3.39626 15.2267 4.04284 15.7367L4.04611 15.74V15.7433C4.05613 15.7534 4.06614 15.7633 4.07615 15.77C4.07948 15.7733 4.08285 15.7767 4.08949 15.7767C4.08949 15.78 4.09281 15.78 4.09281 15.78C4.76269 16.3067 5.51923 16.7267 6.33907 17.0167C7.16892 17.3134 8.0654 17.4734 8.99857 17.4734C9.93173 17.4734 10.8449 17.3101 11.6847 17.0067C12.4812 16.7233 13.2177 16.3167 13.8709 15.8067C13.8776 15.8034 13.8842 15.8001 13.8876 15.7967C13.8976 15.7901 13.9076 15.7801 13.9176 15.7701C13.9209 15.7701 13.9209 15.7668 13.9209 15.7668C14.5641 15.2601 15.1273 14.6567 15.5906 13.9767C15.5973 13.9734 15.6039 13.9668 15.6106 13.9567C15.6173 13.9467 15.6205 13.9401 15.6205 13.9301C16.0538 13.2901 16.3904 12.5867 16.6203 11.8334V11.8301C16.8337 11.1434 16.9536 10.4168 16.9669 9.66678V9.66346C16.9703 9.64347 16.9703 9.62344 16.9669 9.60346C16.9692 9.60125 16.9692 9.59901 16.9669 9.59677C16.9703 9.56345 16.9703 9.53345 16.9703 9.50013C16.9703 8.70344 16.8537 7.9368 16.6337 7.21012L16.6336 7.21002ZM14.594 11.3867C14.4407 11.84 14.2374 12.2667 13.9841 12.66C13.9241 12.7534 13.8641 12.8433 13.7975 12.9334C13.5008 13.3534 13.1475 13.7301 12.7476 14.0567C12.6643 14.13 12.5743 14.1967 12.4843 14.26C12.0744 14.5634 11.6246 14.8134 11.1446 15.0001C11.0413 15.0401 10.9346 15.08 10.828 15.1101C10.3014 15.2867 9.74489 15.3834 9.16498 15.4001C9.10837 15.4034 9.05498 15.4034 8.99837 15.4034C8.94175 15.4034 8.88836 15.4034 8.83175 15.4001C8.25854 15.3868 7.70867 15.2867 7.18875 15.1167C7.08207 15.0867 6.97876 15.0501 6.8755 15.0068C6.3756 14.8168 5.90897 14.5567 5.48571 14.2434C5.39574 14.1767 5.30908 14.1101 5.22575 14.0367C4.82252 13.7034 4.46595 13.3167 4.16598 12.8867C4.10267 12.7967 4.04269 12.7034 3.98266 12.61C3.74272 12.2233 3.54607 11.8067 3.39943 11.3667C3.36279 11.2634 3.32943 11.1534 3.30276 11.0467C3.17283 10.5733 3.10283 10.08 3.09619 9.56672V9.50003C3.09619 9.41004 3.09951 9.32005 3.10288 9.23338C3.12281 8.78337 3.19286 8.34669 3.30945 7.93005C3.3395 7.8234 3.36949 7.71338 3.40944 7.61005C3.5594 7.16004 3.76275 6.73338 4.01602 6.34004C4.076 6.24668 4.13594 6.15337 4.20266 6.06337C4.50258 5.64336 4.85584 5.26668 5.25242 4.94004C5.33908 4.87002 5.42573 4.80006 5.51571 4.7367C5.92563 4.43335 6.37555 4.18668 6.85547 4C6.95878 3.95667 7.06204 3.92003 7.16872 3.88666C7.69534 3.71332 8.25184 3.61331 8.83175 3.59665C8.88836 3.59333 8.94175 3.59333 8.99837 3.59333C9.05498 3.59333 9.10837 3.59333 9.16498 3.59665C9.73819 3.61331 10.2915 3.70999 10.8113 3.88001C10.918 3.91333 11.0213 3.95002 11.1247 3.99336C11.6211 4.18336 12.0878 4.44337 12.511 4.75673C12.601 4.82337 12.691 4.89338 12.7743 4.96339C13.1742 5.29673 13.5307 5.68337 13.8308 6.11008C13.8941 6.20007 13.9575 6.29339 14.0141 6.39007C14.2574 6.77677 14.4539 7.19009 14.5973 7.63008V7.6334C14.6339 7.73673 14.6673 7.84338 14.6972 7.95003C14.8273 8.4234 14.8972 8.91669 14.9039 9.43002V9.50003C14.9039 9.59002 14.9006 9.67669 14.8972 9.76336C14.8772 10.2134 14.8072 10.65 14.6906 11.0701C14.664 11.1767 14.6307 11.2834 14.594 11.3867ZM15.2372 9.43334C15.2305 8.88665 15.1539 8.35666 15.0173 7.85335L16.357 7.45C16.537 8.09 16.6336 8.76001 16.6369 9.4567L15.2372 9.43334ZM15.2772 5.15334L14.1075 5.92667C13.7875 5.47002 13.4109 5.0567 12.981 4.70001L13.8442 3.60002C14.3907 4.04671 14.874 4.57005 15.2772 5.15339V5.15334ZM10.9247 3.56665C10.3682 3.38335 9.7783 3.27997 9.16503 3.26331V1.8633C9.94159 1.87996 10.6881 2.00996 11.3913 2.24662L10.9247 3.56665ZM6.26892 2.36666L6.74214 3.68332C6.22891 3.88333 5.74568 4.14999 5.30908 4.46999L4.45266 3.36664C5.00585 2.95332 5.61569 2.61665 6.26897 2.36666H6.26892ZM2.57617 5.37001L3.7393 6.15337C3.46933 6.57333 3.24942 7.03003 3.08945 7.51336L1.74636 7.10336C1.94961 6.48671 2.2296 5.90669 2.57622 5.37001H2.57617ZM2.76281 9.56335C2.7695 10.11 2.84614 10.64 2.98272 11.1433L1.63963 11.5467C1.45973 10.9067 1.36306 10.2334 1.35974 9.53999L2.76281 9.56335ZM2.71943 13.8433L3.88921 13.07C4.2092 13.5267 4.58913 13.94 5.01903 14.3L4.15249 15.4C3.60595 14.95 3.12266 14.4266 2.71943 13.8433V13.8433ZM7.07532 15.4334C7.63193 15.6133 8.21843 15.7167 8.83165 15.7334V17.1367C8.05509 17.1201 7.31194 16.99 6.60874 16.7567L7.07527 15.4334H7.07532ZM11.7278 16.6334L11.2545 15.3133C11.7711 15.1133 12.2543 14.8466 12.691 14.5233L13.5508 15.6333C12.9942 16.0466 12.3843 16.3833 11.7278 16.6333V16.6334ZM15.4204 13.6267L14.2606 12.8466C14.5305 12.4233 14.7505 11.9667 14.9138 11.4833L16.2503 11.8933C16.0503 12.51 15.7704 13.09 15.4204 13.6267Z" fill="white" fill-opacity="0.5"/>
<path d="M11.4045 7.71001C11.5212 7.78999 11.6645 7.8367 11.8178 7.8367H11.8245C12.1277 7.83337 12.3877 7.65339 12.5011 7.39001C12.5411 7.30002 12.5644 7.19669 12.5644 7.09003C12.5644 7.04338 12.561 6.99667 12.551 6.95334C12.4877 6.60666 12.1845 6.34332 11.8178 6.34332C11.7712 6.34332 11.7212 6.34664 11.6779 6.35666C11.3313 6.42335 11.0713 6.72332 11.0713 7.08998V7.13C11.0847 7.37335 11.2113 7.58333 11.4046 7.71001H11.4045ZM11.8178 6.67667C12.0444 6.67667 12.231 6.86334 12.231 7.09003C12.231 7.11671 12.2277 7.14671 12.221 7.17338C12.1844 7.36006 12.0178 7.5034 11.8178 7.5034C11.7912 7.5034 11.7612 7.50008 11.7345 7.49339C11.5479 7.45675 11.4045 7.29005 11.4045 7.09008C11.4045 6.86339 11.5911 6.67672 11.8177 6.67672L11.8178 6.67667Z" fill="white" fill-opacity="0.5"/>
<path d="M13.3641 8.75333C13.0109 8.75333 12.7143 9 12.6376 9.33335H10.0115C9.99816 9.24335 9.97144 9.16001 9.93485 9.08003C9.93153 9.07006 9.92484 9.05668 9.91819 9.04671C9.87814 8.96004 9.82153 8.87669 9.7549 8.80668C9.7549 8.80447 9.75379 8.80336 9.75158 8.80336C9.67826 8.72338 9.59161 8.65337 9.49494 8.60002C9.39827 8.55004 9.29496 8.51003 9.18169 8.49C9.17837 8.49 9.17167 8.48668 9.16503 8.48668V5.86C9.49831 5.78329 9.74494 5.48664 9.74494 5.13332C9.74494 4.78 9.49831 4.47997 9.16503 4.40664C9.11174 4.3933 9.05503 4.38666 8.99842 4.38666C8.9418 4.38666 8.88509 4.39335 8.8318 4.40664C8.50184 4.47997 8.25189 4.77667 8.25189 5.13332C8.25189 5.48997 8.50184 5.78329 8.8318 5.86V8.49H8.81514C8.70514 8.50998 8.6052 8.54667 8.51191 8.59665C8.50858 8.59997 8.50521 8.59997 8.50189 8.60334C8.40855 8.65337 8.32526 8.72001 8.25527 8.79667C8.25194 8.79667 8.24857 8.79999 8.24857 8.80331C8.18195 8.87332 8.12529 8.95667 8.08196 9.04334C8.07864 9.0533 8.07194 9.06332 8.06862 9.07334C8.03194 9.15004 8.00864 9.23002 7.99198 9.31669C7.99198 9.32001 7.98866 9.32665 7.98866 9.33335H5.36253C5.35921 9.30999 5.35251 9.29001 5.34587 9.27003C5.2492 8.97001 4.96599 8.75338 4.63598 8.75338C4.30597 8.75338 4.03615 8.96004 3.92947 9.24673C3.9028 9.3267 3.88609 9.41005 3.88609 9.50004C3.88609 9.52672 3.88609 9.55334 3.88941 9.58002C3.92947 9.95337 4.24936 10.2467 4.63593 10.2467C4.98924 10.2467 5.28589 9.99671 5.36253 9.66669H7.98866C8.00532 9.75668 8.02872 9.84003 8.0653 9.91668C8.07199 9.93002 8.07532 9.94004 8.08196 9.95C8.12534 10.04 8.17863 10.12 8.24525 10.19C8.24525 10.1922 8.24636 10.1934 8.24857 10.1934C8.32189 10.2733 8.40855 10.3433 8.50521 10.3967C8.60188 10.45 8.70514 10.4867 8.81847 10.5067C8.82179 10.5067 8.82516 10.51 8.8318 10.5067V13.14C8.50184 13.2134 8.25189 13.51 8.25189 13.8667C8.25189 14.2234 8.50184 14.5167 8.8318 14.5934C8.88509 14.6067 8.9418 14.6134 8.99842 14.6134C9.05503 14.6134 9.11174 14.6067 9.16503 14.5934C9.49831 14.5167 9.74494 14.22 9.74494 13.8667C9.74494 13.5134 9.49831 13.2134 9.16503 13.14V10.51C9.17172 10.51 9.17837 10.5067 9.18169 10.5067C9.29169 10.4867 9.39495 10.45 9.48825 10.4001C9.49157 10.4001 9.49157 10.3967 9.49494 10.3967C9.58829 10.3434 9.67157 10.2801 9.74489 10.2034C9.74821 10.2001 9.75158 10.1967 9.75158 10.1935C9.81821 10.1234 9.87492 10.0435 9.91819 9.95342C9.92152 9.94673 9.92821 9.93676 9.93153 9.92675C9.96816 9.85009 9.99483 9.76675 10.0082 9.68008C10.0115 9.67675 10.0115 9.67343 10.0115 9.66674H12.6376C12.6409 9.68672 12.6476 9.70675 12.6543 9.72673C12.751 10.0268 13.0343 10.2468 13.3641 10.2468C13.694 10.2468 13.9641 10.0401 14.0674 9.75009C14.094 9.67011 14.1107 9.58676 14.1107 9.50009C14.1107 9.47342 14.1107 9.44342 14.1074 9.41674C14.064 9.04339 13.7508 8.75343 13.3642 8.75343L13.3641 8.75333Z" fill="white"/>
</g>
<defs>
<clipPath id="clip0_117_1027">
<rect width="18" height="18" fill="white" transform="translate(0 0.5)"/>
</clipPath>
</defs>
</svg>
