<svg width="18" height="19" viewBox="0 0 18 19" fill="none" xmlns="http://www.w3.org/2000/svg">
<path d="M12.163 13.5148C12.163 14.2804 11.8443 14.8997 11.4532 14.8997H5.16541C4.77385 14.8997 4.45557 14.2804 4.45557 13.5148C4.45557 12.7507 4.77385 12.1301 5.16541 12.1301H11.4532C11.8443 12.1301 12.163 12.7507 12.163 13.5148Z" fill="#404040"/>
<path d="M12.3328 5.70191C12.3328 7.74569 10.5305 9.40381 8.30842 9.40381C6.08505 9.40381 4.2832 7.74569 4.2832 5.70191C4.2832 3.65812 6.08505 2 8.30842 2C10.5305 2 12.3328 3.65812 12.3328 5.70191Z" fill="#454545"/>
<path d="M14.6158 11.4841C14.6158 12.0979 14.2874 12.5965 13.8818 12.5965H2.73391C2.32966 12.5965 2 12.0979 2 11.4841V5.45668C2 4.84243 2.32966 4.34521 2.73391 4.34521H13.8816C14.2872 4.34521 14.6155 4.84243 14.6155 5.45668L14.6158 11.4841Z" fill="#888887"/>
<path d="M13.503 11.0562C13.503 11.5616 13.2328 11.9704 12.8997 11.9704H3.71654C3.38317 11.9704 3.11279 11.5616 3.11279 11.0562V6.09128C3.11279 5.58531 3.38295 5.17603 3.71654 5.17603H12.8997C13.2326 5.17603 13.503 5.58531 13.503 6.09128V11.0562Z" fill="#454545"/>
<path d="M5.34623 11.0562V6.09128C5.34623 5.58531 5.61639 5.17603 5.94998 5.17603H3.71654C3.38317 5.17603 3.11279 5.58531 3.11279 6.09128V11.0562C3.11279 11.5616 3.38295 11.9704 3.71654 11.9704H5.94998C5.61661 11.9704 5.34623 11.5616 5.34623 11.0562Z" fill="#404040"/>
<path d="M15.6587 10.4833C15.6587 10.6561 15.5292 10.7961 15.3706 10.7961C15.2101 10.7961 15.0806 10.6561 15.0806 10.4833V3.13288C15.0806 2.96029 15.2101 2.82007 15.3706 2.82007C15.5294 2.82007 15.6587 2.96051 15.6587 3.13288V10.4833Z" fill="#888887"/>
<path d="M15.9771 3.94501C15.9771 3.97935 15.7047 4.00669 15.3705 4.00669C15.0347 4.00669 14.7637 3.97935 14.7637 3.94501V2.4586C14.7637 2.42382 15.0347 2.39429 15.3705 2.39429C15.7047 2.39429 15.9771 2.42382 15.9771 2.4586V3.94501Z" fill="#888887"/>
<path d="M6.03343 6.03442C6.19924 6.03442 6.33355 6.13789 6.33355 6.26542V9.77855C6.33355 9.90433 6.19924 10.0082 6.03343 10.0082H4.40549C4.23902 10.0082 4.10449 9.90433 4.10449 9.77855V6.26542C4.10449 6.13789 4.23902 6.03442 4.40549 6.03442H6.03343Z" fill="white"/>
<path d="M4.82105 7.08779H5.5998C5.6752 7.08764 5.7293 7.10026 5.76212 7.12563C5.7969 7.1521 5.81265 7.19301 5.81265 7.25054C5.81265 7.28663 5.7934 7.33235 5.75293 7.39185C5.71421 7.44916 5.66937 7.51413 5.61905 7.58457C5.56043 7.66784 5.50836 7.75553 5.4633 7.84685C5.40993 7.95083 5.36108 8.07814 5.31674 8.22879C5.29705 8.29573 5.2848 8.35107 5.27671 8.3946C5.26957 8.43791 5.26103 8.49435 5.25112 8.56391C5.24237 8.63523 5.23318 8.68751 5.22662 8.72448C5.21028 8.81096 5.18739 8.87067 5.15793 8.90363C5.14276 8.92039 5.12411 8.93363 5.10329 8.94243C5.08248 8.95124 5.05999 8.95539 5.0374 8.9546C5.01534 8.95531 4.99344 8.95071 4.97353 8.9412C4.95362 8.93168 4.93629 8.91752 4.92299 8.89991C4.89455 8.86426 4.87946 8.8111 4.87946 8.74154C4.87946 8.68729 4.88952 8.61423 4.91074 8.5206C4.93233 8.428 4.96667 8.31709 5.01377 8.18788C5.06168 8.05816 5.12118 7.92604 5.19227 7.78976C5.26446 7.6537 5.34802 7.51916 5.4458 7.3831H4.82105C4.75514 7.38339 4.70643 7.37063 4.67493 7.34482C4.64168 7.31901 4.6252 7.27898 4.62549 7.22473C4.62549 7.16712 4.64248 7.12957 4.67646 7.11207C4.71102 7.09698 4.75937 7.08691 4.82105 7.08691" fill="#EC1C24"/>
<path d="M4.10645 10.7115C4.10645 10.636 4.32738 10.5759 4.59798 10.5759H12.0617C12.3328 10.5759 12.5528 10.636 12.5528 10.7115V11.4502C12.5528 11.525 12.3319 11.5861 12.0617 11.5861H4.59798C4.32651 11.5861 4.10645 11.525 4.10645 11.4502V10.7115ZM9.1226 6.03442C9.28885 6.03442 9.42273 6.13789 9.42273 6.26542V9.77855C9.42273 9.90433 9.28907 10.0082 9.1226 10.0082H7.49466C7.32841 10.0082 7.19366 9.90433 7.19366 9.77855V6.26542C7.19366 6.13789 7.32841 6.03442 7.49466 6.03442H9.1226Z" fill="white"/>
<path d="M7.91051 7.08779H8.68948C8.76516 7.08779 8.81876 7.10004 8.85223 7.12563C8.88526 7.1521 8.90232 7.19301 8.90232 7.25054C8.90232 7.28663 8.88307 7.33235 8.8426 7.39185C8.80388 7.44916 8.75904 7.51413 8.70895 7.58457C8.65032 7.66784 8.59825 7.75553 8.5532 7.84685C8.49982 7.95083 8.45104 8.07814 8.40685 8.22879C8.39082 8.28338 8.37746 8.33871 8.36682 8.3946C8.35982 8.4377 8.35085 8.49457 8.34166 8.56391C8.33248 8.63523 8.32329 8.68751 8.31651 8.72448C8.30003 8.81096 8.27713 8.87067 8.24782 8.90363C8.23265 8.92039 8.214 8.93363 8.19319 8.94243C8.17237 8.95124 8.14988 8.95539 8.12729 8.9546C8.10512 8.95527 8.0831 8.95066 8.06306 8.94115C8.04301 8.93165 8.02552 8.91751 8.01201 8.89991C7.98445 8.86426 7.96935 8.8111 7.96935 8.74154C7.96935 8.68729 7.97941 8.61423 8.00063 8.5206C8.02229 8.42829 8.05532 8.31695 8.10367 8.18788C8.15157 8.05816 8.21107 7.92604 8.28238 7.78976C8.35326 7.6537 8.43813 7.51916 8.53635 7.3831H7.91117C7.84525 7.38339 7.79654 7.37063 7.76504 7.34482C7.73157 7.31879 7.71582 7.2792 7.71582 7.22473C7.71568 7.16712 7.73267 7.12957 7.76679 7.11207C7.80048 7.09698 7.84882 7.08691 7.91051 7.08691" fill="#EC1C24"/>
<path d="M12.1877 6.03442C12.3524 6.03442 12.4874 6.13789 12.4874 6.26542V9.77855C12.4874 9.90433 12.3524 10.0082 12.1877 10.0082H10.5597C10.3924 10.0082 10.2583 9.90433 10.2583 9.77855V6.26542C10.2583 6.13789 10.3924 6.03442 10.5597 6.03442H12.1877Z" fill="white"/>
<path d="M10.9732 7.08779H11.7528C11.8266 7.08764 11.8807 7.10026 11.9151 7.12563C11.9481 7.1521 11.9656 7.19301 11.9656 7.25054C11.9656 7.28663 11.9457 7.33235 11.9059 7.39185C11.8659 7.44916 11.8224 7.51413 11.7723 7.58457C11.7133 7.66758 11.6612 7.75531 11.6165 7.84685C11.5627 7.95083 11.5134 8.07814 11.4686 8.22879C11.4533 8.28347 11.4403 8.3388 11.4297 8.3946C11.4218 8.4377 11.4122 8.49457 11.4035 8.56391C11.3936 8.63523 11.3857 8.68751 11.3779 8.72448C11.362 8.81096 11.3391 8.87067 11.3094 8.90363C11.2944 8.92045 11.2758 8.93374 11.255 8.94255C11.2343 8.95136 11.2118 8.95547 11.1893 8.9546C11.1672 8.95531 11.1453 8.95071 11.1254 8.9412C11.1055 8.93168 11.0882 8.91752 11.0749 8.89991C11.046 8.86404 11.0315 8.81125 11.0314 8.74154C11.0314 8.68729 11.0421 8.61423 11.064 8.5206C11.085 8.42829 11.1184 8.31695 11.1666 8.18788C11.2136 8.05816 11.2724 7.92604 11.3451 7.78976C11.4157 7.6537 11.5008 7.51916 11.5988 7.3831H10.9732C10.9076 7.38339 10.8586 7.37063 10.8262 7.34482C10.7941 7.31901 10.778 7.27898 10.7778 7.22473C10.7777 7.16712 10.7947 7.12957 10.8288 7.11207C10.8631 7.09698 10.9126 7.08691 10.9732 7.08691" fill="#EC1C24"/>
</svg>
