<svg width="18" height="19" viewBox="0 0 18 19" fill="none" xmlns="http://www.w3.org/2000/svg">
<g clip-path="url(#clip0_2792_15433)">
<g clip-path="url(#clip1_2792_15433)">
<path d="M3.83334 10.1497C3.83334 8.26464 3.83334 6.37928 3.83334 4.49418C3.83334 3.86287 4.28233 3.41034 4.91213 3.41009C7.19697 3.40933 9.48208 3.40908 11.7669 3.41009C12.4351 3.41009 12.9644 3.95075 12.9639 4.61868C12.9621 8.30504 12.9614 11.9912 12.9639 15.6775C12.9639 15.978 12.9349 16.2646 12.7626 16.5215C12.5361 16.8593 12.2205 17.0588 11.8154 17.0601C9.54319 17.0669 7.27071 17.0656 4.99849 17.0614C4.36339 17.0601 3.83435 16.506 3.83384 15.8563C3.83233 14.0217 3.83334 12.1869 3.83334 10.3523C3.83334 10.2848 3.83334 10.2177 3.83334 10.1502V10.1497ZM8.67324 6.61312C8.55834 6.49216 8.45935 6.38837 8.36162 6.28534C8.44824 6.22852 8.5495 6.17524 8.63511 6.10352C8.92652 5.85958 8.93662 5.41388 8.65581 5.15883C8.41617 4.94115 8.13283 4.92878 7.84041 5.01969C7.49268 5.12777 7.30606 5.45731 7.39142 5.8116C7.41945 5.92802 7.47374 6.03812 7.52122 6.16464C7.48081 6.18989 7.43132 6.21918 7.38359 6.25075C7.14268 6.41085 7.02425 6.63433 7.04596 6.92448C7.06692 7.20655 7.21591 7.401 7.47172 7.51514C7.78384 7.65453 8.09319 7.6361 8.39596 7.48761C8.49243 7.44039 8.58132 7.37827 8.67399 7.32272C8.7192 7.36413 8.75985 7.40024 8.7995 7.43762C8.83915 7.47499 8.875 7.51716 8.91718 7.551C9.02273 7.63559 9.16011 7.62625 9.24748 7.53206C9.3293 7.44368 9.33182 7.30731 9.24975 7.2106C9.2091 7.16262 9.16692 7.11438 9.11819 7.07524C9.01617 6.99342 8.99016 6.91615 9.0899 6.80807C9.14849 6.74469 9.18384 6.65958 9.22703 6.58256C9.30152 6.44948 9.27399 6.32196 9.15809 6.25302C9.04394 6.18509 8.91314 6.22246 8.83435 6.34746C8.78107 6.43181 8.73056 6.51792 8.67324 6.61287V6.61312ZM9.66844 6.41741C9.69192 6.86186 9.93081 7.29595 10.4702 7.51034C10.9664 7.70756 11.4432 7.64923 11.8677 7.30529C11.9487 7.23964 12.004 7.15554 11.972 7.04115C11.9197 6.85428 11.7253 6.78054 11.5636 6.89595C11.395 7.01666 11.2182 7.09671 11.0056 7.0962C10.627 7.09519 10.3518 6.86868 10.2606 6.47322C10.1788 6.11767 10.3548 5.71464 10.6563 5.56893C10.9505 5.4265 11.2255 5.47448 11.4912 5.64847C11.6616 5.76009 11.822 5.73837 11.9129 5.60075C12.0071 5.45807 11.9581 5.29974 11.7846 5.18534C11.5939 5.05984 11.3823 5.00403 11.1571 4.97751C10.3465 4.88256 9.66667 5.48206 9.66844 6.41741ZM8.33965 9.55277C9.26086 9.55277 10.1821 9.55277 11.1033 9.55277C11.1578 9.55277 11.2129 9.55479 11.2672 9.54999C11.3796 9.54014 11.4437 9.47398 11.4556 9.36464C11.4652 9.27575 11.3763 9.18711 11.2715 9.17474C11.2258 9.16943 11.179 9.17221 11.1328 9.17221C9.25253 9.17221 7.37248 9.17221 5.49218 9.17221C5.46263 9.17221 5.43258 9.16868 5.40404 9.17398C5.30354 9.19216 5.23208 9.24267 5.22627 9.35403C5.22071 9.45807 5.28814 9.53433 5.4 9.54898C5.44571 9.55504 5.49243 9.55302 5.53864 9.55302C6.47248 9.55302 7.40632 9.55302 8.34016 9.55302L8.33965 9.55277ZM8.3346 10.9568C9.25606 10.9568 10.1773 10.9568 11.0987 10.9568C11.1576 10.9568 11.2164 10.9558 11.2753 10.9528C11.3808 10.9475 11.4381 10.8808 11.451 10.7858C11.4644 10.6856 11.4088 10.6141 11.3119 10.5894C11.252 10.574 11.1871 10.5737 11.1248 10.5737C9.25682 10.573 7.38889 10.5732 5.52096 10.5732C5.47904 10.5732 5.43561 10.5692 5.39495 10.5773C5.29369 10.5972 5.22803 10.6555 5.22702 10.7656C5.22601 10.8768 5.28889 10.9358 5.3942 10.95C5.44798 10.9573 5.50329 10.9566 5.55783 10.9566C6.48334 10.9568 7.40884 10.9568 8.33435 10.9566L8.3346 10.9568ZM8.33208 15.1662C9.26591 15.1662 10.2 15.1662 11.1338 15.1662C11.1801 15.1662 11.2268 15.1682 11.2725 15.1639C11.3773 15.1538 11.4561 15.0699 11.4556 14.9732C11.4551 14.8808 11.3697 14.7947 11.2687 14.7871C11.2311 14.7843 11.1929 14.7853 11.1551 14.7853C9.27021 14.7853 7.38561 14.7853 5.50076 14.7853C5.45884 14.7853 5.41541 14.7833 5.37526 14.7932C5.27728 14.8172 5.22475 14.8838 5.22803 14.9853C5.23132 15.0889 5.29293 15.1462 5.39117 15.1629C5.43208 15.1699 5.475 15.1662 5.51718 15.1662C6.45531 15.1662 7.39344 15.1662 8.33157 15.1662H8.33208ZM8.33334 12.3588C9.27122 12.3588 10.2093 12.3588 11.1472 12.3588C11.1934 12.3588 11.2412 12.3636 11.2856 12.354C11.3859 12.3326 11.4591 12.2704 11.4538 12.1644C11.4487 12.0629 11.3833 11.9959 11.277 11.9818C11.2439 11.9775 11.2099 11.9793 11.1763 11.9793C9.28359 11.9793 7.39066 11.9793 5.49798 11.9793C5.46844 11.9793 5.43889 11.9788 5.40985 11.9818C5.29723 11.9937 5.22753 12.0651 5.22652 12.1677C5.22551 12.276 5.29925 12.3497 5.41869 12.3586C5.45228 12.3611 5.48586 12.3593 5.5197 12.3593C6.45758 12.3593 7.39571 12.3593 8.33359 12.3593L8.33334 12.3588ZM8.32071 13.7644C9.26692 13.7644 10.2131 13.7644 11.1591 13.7644C11.353 13.7644 11.4606 13.6927 11.4566 13.5679C11.4528 13.4487 11.3485 13.3828 11.1619 13.3828C9.27804 13.3828 7.3942 13.3828 5.51011 13.3828C5.46819 13.3828 5.425 13.38 5.38435 13.3886C5.28713 13.4091 5.22753 13.4694 5.22677 13.5722C5.22576 13.6752 5.28612 13.7358 5.38157 13.7591C5.42147 13.7689 5.46516 13.7644 5.50708 13.7644C6.4447 13.7644 7.38258 13.7644 8.32021 13.7644H8.32071ZM6.16389 6.47499C6.16389 6.21009 6.16869 5.94494 6.16162 5.68029C6.15859 5.5664 6.19925 5.53282 6.30783 5.53989C6.4293 5.54797 6.55152 5.5409 6.67349 5.54039C6.86339 5.53938 6.98511 5.43913 6.98359 5.28509C6.98208 5.13938 6.8596 5.03534 6.68056 5.03459C6.1591 5.03282 5.63763 5.03282 5.11617 5.03383C4.94571 5.03433 4.82526 5.13989 4.8245 5.28282C4.82349 5.42827 4.9399 5.5361 5.10859 5.5409C5.22627 5.54418 5.3447 5.54898 5.46162 5.53989C5.58005 5.5308 5.62526 5.56565 5.61995 5.69191C5.61011 5.92272 5.61718 6.15428 5.61718 6.3856C5.61718 6.67575 5.61642 6.9659 5.61768 7.25605C5.61819 7.38913 5.6495 7.50832 5.78687 7.56716C5.97677 7.64847 6.15632 7.51716 6.16213 7.28231C6.16894 7.01337 6.16364 6.74418 6.16389 6.47499Z" fill="white"/>
<path d="M6.35742 3.01935C6.49 2.67541 6.69581 2.41531 6.96702 2.20647C7.32611 1.92995 7.73318 1.80344 8.18823 1.80445C10.1115 1.80849 12.0347 1.80521 13.9582 1.80647C14.745 1.80697 15.3693 2.43298 15.3693 3.21809C15.3695 6.79965 15.3693 10.381 15.3693 13.9625C15.3693 14.6759 14.9751 15.2325 14.2885 15.4077C14.0097 15.4789 13.7046 15.4479 13.4115 15.458C13.3913 15.4587 13.3559 15.4151 13.3509 15.3878C13.3405 15.3305 13.3448 15.2706 13.3448 15.2115C13.3448 11.7017 13.3448 8.19182 13.3463 4.68172C13.3466 3.89435 12.8948 3.28324 12.1418 3.07869C12.0057 3.04157 11.8592 3.02819 11.7175 3.02768C9.97939 3.0244 8.24126 3.02591 6.50313 3.02566C6.46171 3.02566 6.42055 3.02213 6.35742 3.0191V3.01935Z" fill="white"/>
<path d="M8.33995 6.9778C8.20031 7.14093 7.94222 7.19749 7.7652 7.10507C7.65712 7.0485 7.59096 6.93512 7.60359 6.81618C7.61823 6.67906 7.69727 6.58562 7.81445 6.52401C7.83238 6.51466 7.87379 6.52678 7.89096 6.5432C8.04273 6.68663 8.19121 6.83335 8.3397 6.9778H8.33995Z" fill="white"/>
<path d="M8.15972 5.38989C8.21451 5.43004 8.29507 5.46464 8.33674 5.52575C8.39709 5.61414 8.39229 5.72777 8.31603 5.80631C8.24835 5.876 8.15593 5.92196 8.07209 5.97499C8.0582 5.98383 8.01982 5.98156 8.01527 5.97272C7.96704 5.87828 7.90744 5.78535 7.88295 5.68434C7.86098 5.59368 7.89456 5.49823 7.988 5.44772C8.03068 5.42474 8.08093 5.41565 8.15946 5.38989H8.15972Z" fill="white"/>
</g>
</g>
<defs>
<clipPath id="clip0_2792_15433">
<rect width="18" height="18" fill="white" transform="translate(0 0.5)"/>
</clipPath>
<clipPath id="clip1_2792_15433">
<rect width="16.7677" height="20" fill="white" transform="translate(0.959473 -1)"/>
</clipPath>
</defs>
</svg>
