<svg width="18" height="19" viewBox="0 0 18 19" fill="none" xmlns="http://www.w3.org/2000/svg">
<g clip-path="url(#clip0_2792_15496)">
<g clip-path="url(#clip1_2792_15496)">
<path d="M6.5675 12.2544C6.25273 12.2544 5.93215 12.259 5.61219 12.2501C5.55718 12.2486 5.49361 12.1997 5.45052 12.1563C3.54784 10.2334 3.37976 7.20126 5.05569 5.07487C7.21874 2.33056 11.3493 2.35073 13.5068 5.11613C15.1522 7.22479 14.9679 10.2729 13.0768 12.1581C13.0234 12.2113 12.9298 12.2474 12.8534 12.2501C12.554 12.2605 12.2539 12.2544 11.9602 12.2544C12.0246 11.877 11.9626 11.5194 11.8569 11.1698C11.5947 10.3034 11.084 9.63325 10.2424 9.2653C9.17276 8.79803 7.96808 9.1397 7.22577 10.0938C6.79976 10.6417 6.57942 11.2655 6.5455 11.9558C6.54091 12.049 6.55864 12.1435 6.5675 12.2544ZM9.25406 5.61457C8.39378 5.61915 7.69518 6.32846 7.70098 7.19117C7.70679 8.03892 8.42098 8.7418 9.27239 8.73752C10.1305 8.73325 10.8294 8.0215 10.8233 7.15756C10.8175 6.30493 10.1104 5.60968 9.25375 5.61457H9.25406ZM12.2884 8.44078C12.1674 8.43773 12.0983 8.52666 12.138 8.64279C12.1576 8.69993 12.1839 8.7583 12.2212 8.80537C12.395 9.02662 12.3923 9.23871 12.2218 9.46486C12.1597 9.54707 12.0687 9.65525 12.1567 9.76924C12.2428 9.88109 12.3703 9.82272 12.4693 9.79124C12.7217 9.71117 12.9161 9.75518 13.075 9.9801C13.1364 10.0669 13.2092 10.1995 13.351 10.1537C13.4918 10.1082 13.4732 9.96116 13.476 9.85175C13.4824 9.60238 13.5722 9.42758 13.8256 9.35668C13.8882 9.33926 13.9463 9.30258 14.0031 9.26897C14.1312 9.19287 14.1306 9.06971 13.9995 8.99729C13.8839 8.93342 13.7565 8.8888 13.6468 8.81667C13.5881 8.77817 13.5343 8.70574 13.5154 8.63851C13.4812 8.51718 13.4827 8.38608 13.4527 8.26323C13.439 8.2073 13.3937 8.13243 13.347 8.11837C13.2999 8.10431 13.2229 8.14282 13.178 8.18072C13.0888 8.25528 13.0072 8.34116 12.9317 8.43039C12.8614 8.51352 12.7887 8.54285 12.6786 8.51291C12.5515 8.47837 12.4189 8.46431 12.2887 8.44139L12.2884 8.44078ZM13.296 5.56965C13.2987 5.42693 13.2018 5.34503 13.0949 5.41043C12.7517 5.62007 12.4516 5.58859 12.1524 5.3218C12.0445 5.22584 11.9241 5.30683 11.9238 5.45932C11.9238 5.5507 11.9287 5.6433 11.9452 5.73284C11.9785 5.91161 11.9314 6.04547 11.7679 6.14051C11.6854 6.18849 11.6121 6.25542 11.5427 6.32204C11.4468 6.41433 11.4706 6.5271 11.5962 6.57202C11.6818 6.60289 11.7716 6.62856 11.8618 6.63895C12.0537 6.66126 12.1768 6.74713 12.2163 6.947C12.2337 7.03532 12.2759 7.11997 12.315 7.20248C12.3767 7.33206 12.5161 7.35345 12.5714 7.22662C12.7303 6.86143 12.9806 6.69549 13.3864 6.74408C13.531 6.76119 13.5829 6.62061 13.4915 6.50051C13.4118 6.39538 13.3131 6.3034 13.2416 6.19338C13.2034 6.13471 13.182 6.04669 13.1927 5.97793C13.2153 5.83308 13.2639 5.6925 13.2963 5.56995L13.296 5.56965ZM6.753 5.70717C6.753 5.59715 6.75636 5.52075 6.75239 5.44465C6.74383 5.28605 6.61487 5.21117 6.50669 5.32272C6.22675 5.61121 5.93307 5.64177 5.58468 5.46177C5.45755 5.39606 5.35579 5.50853 5.39307 5.6491C5.40346 5.68822 5.41538 5.72825 5.43463 5.7637C5.58224 6.03263 5.55382 6.27161 5.31942 6.47912C5.29344 6.50204 5.27511 6.53474 5.25616 6.56499C5.16692 6.70649 5.22407 6.811 5.39429 6.81712C5.45022 6.81895 5.50798 6.82628 5.56207 6.81528C5.81602 6.76425 5.98288 6.86326 6.10268 7.0888C6.1531 7.18353 6.19925 7.32747 6.34686 7.30791C6.50424 7.28713 6.50516 7.12883 6.52686 7.02004C6.57453 6.78106 6.6821 6.63406 6.93911 6.59341C7.05066 6.576 7.21935 6.57752 7.24227 6.4128C7.26366 6.25847 7.10842 6.22058 7.01338 6.15793C6.8349 6.04027 6.67263 5.92598 6.753 5.70778V5.70717ZM8.62054 5.05379C8.6184 5.19406 8.73698 5.27168 8.85952 5.18092C9.16818 4.95263 9.45209 4.95416 9.76319 5.1797C9.90621 5.2833 10.0168 5.191 9.99453 5.00825C9.98047 4.89243 9.95969 4.77691 9.93463 4.66292C9.91202 4.55963 9.9276 4.47987 10.0159 4.40866C10.1104 4.33226 10.1975 4.24486 10.276 4.15195C10.3105 4.111 10.3441 4.03369 10.3276 3.99396C10.3075 3.94537 10.2387 3.90197 10.1828 3.88639C10.0859 3.85919 9.98261 3.84727 9.88176 3.8433C9.73355 3.83749 9.6382 3.7782 9.59052 3.63151C9.55935 3.53586 9.51107 3.44326 9.45514 3.35922C9.42244 3.31002 9.35949 3.25043 9.31059 3.25073C9.2617 3.25073 9.18377 3.31155 9.1694 3.36044C9.06091 3.73114 8.82102 3.90136 8.43596 3.88822C8.38706 3.88669 8.3128 3.94751 8.29324 3.99671C8.27765 4.03613 8.31433 4.11284 8.35008 4.15318C8.43687 4.25219 8.54506 4.33318 8.62788 4.43494C8.66883 4.48537 8.69297 4.56727 8.68838 4.63236C8.67861 4.77355 8.6453 4.91291 8.62115 5.05318L8.62054 5.05379ZM5.69042 10.088C5.84383 10.1124 5.96883 10.1412 6.09504 10.1497C6.17419 10.1552 6.30438 10.1546 6.32424 10.114C6.35541 10.0501 6.34136 9.92937 6.29674 9.86917C6.10268 9.60696 6.09626 9.36187 6.29429 9.09844C6.33952 9.03824 6.32485 8.93311 6.33769 8.84846C6.25212 8.83562 6.16655 8.82218 6.08068 8.81087C6.06631 8.80903 6.05012 8.81454 6.03606 8.81943C5.77752 8.90927 5.5636 8.86313 5.40774 8.62201C5.38085 8.58014 5.33867 8.54774 5.30108 8.51321C5.18221 8.40472 5.06974 8.43926 5.03827 8.59786C5.01443 8.71735 4.99059 8.83807 4.98479 8.95939C4.97898 9.07858 4.92489 9.14184 4.81854 9.18493C4.70577 9.23046 4.59606 9.28577 4.49032 9.34628C4.35922 9.42146 4.35891 9.54431 4.48879 9.61858C4.58995 9.67634 4.69477 9.73104 4.80356 9.77229C4.92947 9.82027 4.98356 9.90095 4.98784 10.0351C4.99151 10.146 5.01626 10.2567 5.03827 10.3664C5.06974 10.5232 5.18557 10.5607 5.3017 10.4504C5.40102 10.356 5.49239 10.253 5.5908 10.1574C5.62441 10.1247 5.66872 10.1023 5.69012 10.0877L5.69042 10.088Z" fill="white"/>
<path d="M5.14404 14.3581V12.551H13.468V14.3581H5.14404ZM11.0596 13.7597C11.195 13.7484 11.3032 13.7496 11.4068 13.7288C11.6418 13.6818 11.7756 13.5051 11.7582 13.2826C11.7405 13.0583 11.5834 12.9074 11.3435 12.8942C11.2115 12.8869 11.077 12.8789 10.9474 12.8979C10.8903 12.9061 10.7998 12.9792 10.798 13.0256C10.7849 13.3459 10.7858 13.6671 10.7977 13.9874C10.7995 14.0335 10.8839 14.0766 10.93 14.1212C10.9734 14.0732 11.0355 14.032 11.055 13.9757C11.0767 13.9134 11.0599 13.8376 11.0599 13.76L11.0596 13.7597ZM7.3233 13.7536C7.29671 13.6915 7.2799 13.6552 7.26554 13.6182C7.18608 13.4147 7.10754 13.2108 7.02808 13.0076C6.99294 12.9181 6.9364 12.853 6.83158 12.893C6.73226 12.9309 6.73501 13.0137 6.76985 13.0971C6.89851 13.4067 7.02442 13.7175 7.1598 14.024C7.22092 14.1625 7.40031 14.1796 7.46051 14.0485C7.61087 13.7212 7.74747 13.3872 7.87766 13.051C7.89263 13.0125 7.84435 12.915 7.80431 12.8994C7.76275 12.8835 7.68971 12.9257 7.64204 12.959C7.61392 12.9786 7.60781 13.0305 7.59284 13.0684C7.50574 13.2894 7.41895 13.5103 7.3233 13.7539V13.7536ZM9.16302 13.4791C9.16302 13.6368 9.16302 13.7948 9.16302 13.9525C9.16302 14.0442 9.19175 14.12 9.29688 14.1191C9.40109 14.1182 9.43226 14.0405 9.43257 13.951C9.43409 13.6506 9.43348 13.3505 9.43257 13.0501C9.43257 12.9581 9.39773 12.8826 9.29596 12.8832C9.19389 12.8838 9.16211 12.9584 9.16302 13.0516C9.16425 13.194 9.16302 13.3367 9.16302 13.4791Z" fill="white"/>
<path d="M11.7524 12.2471H6.7998C6.82486 12.0228 6.83617 11.7997 6.87621 11.5818C7.03512 10.7209 7.45624 10.0309 8.24072 9.60606C9.18809 9.09296 10.365 9.36189 11.0538 10.2292C11.4667 10.7493 11.676 11.3431 11.7038 12.0038C11.7056 12.0445 11.7026 12.086 11.7102 12.1255C11.7176 12.164 11.7359 12.2003 11.753 12.2471H11.7524Z" fill="white"/>
<path d="M4.84733 13.6101C4.84733 13.8564 4.84611 14.0994 4.84733 14.3423C4.85009 14.7833 4.82319 14.6987 5.19664 14.8512C5.36808 14.9211 5.53983 14.9908 5.74061 15.0727H2.6748C2.82852 14.8609 2.9526 14.6767 3.09104 14.504C3.18669 14.3845 3.18975 14.2876 3.09226 14.1669C2.95321 13.9946 2.82944 13.81 2.68428 13.6101H4.84733Z" fill="white"/>
<path d="M13.1362 15.1715C13.3049 15.0799 13.4715 14.9836 13.6432 14.898C13.7477 14.8458 13.7902 14.7743 13.7878 14.6569C13.7817 14.3733 13.7856 14.0897 13.7856 13.7942H15.8304C15.74 13.9216 15.6571 14.0381 15.5746 14.1548C15.269 14.5863 15.2687 14.4421 15.5783 14.8834C15.6562 14.9946 15.7375 15.1031 15.824 15.222H13.1475C13.1439 15.2052 13.1402 15.1883 13.1365 15.1715H13.1362Z" fill="white"/>
<path d="M12.6631 15.0976V14.6692H13.4054C13.4085 14.6777 13.4115 14.6863 13.4143 14.6949C13.1719 14.8247 12.9296 14.9546 12.6631 15.0976Z" fill="white"/>
<path d="M5.59083 14.6682H6.41076V15.0261C6.12777 14.9139 5.85701 14.8063 5.58594 14.6991C5.58747 14.6887 5.5893 14.6786 5.59083 14.6682Z" fill="white"/>
<path d="M9.25467 8.4447C8.54811 8.44103 7.98703 7.87231 7.99222 7.16484C7.99742 6.46073 8.57073 5.89414 9.2727 5.89995C9.97284 5.90575 10.5461 6.4864 10.5391 7.18287C10.5321 7.88728 9.96061 8.44837 9.25467 8.4447Z" fill="white"/>
<path d="M13.2288 8.55908C13.197 8.87508 13.3263 9.05019 13.6212 9.12811C13.3486 9.22377 13.1857 9.38574 13.2291 9.71059C13.1007 9.60119 13.0207 9.49117 12.9155 9.45541C12.815 9.42119 12.6879 9.46367 12.5262 9.4762C12.7154 9.2473 12.7242 9.0291 12.5137 8.79042C12.6787 8.80448 12.8064 8.84879 12.9088 8.81518C13.0152 8.78003 13.0968 8.66971 13.2285 8.55908H13.2288Z" fill="white"/>
<path d="M12.2264 5.71704C12.4498 5.9001 12.671 5.97314 12.9357 5.78091C12.8034 6.05932 12.8532 6.27538 13.0851 6.47035C12.7734 6.41962 12.5946 6.5605 12.48 6.8328C12.4256 6.53728 12.2667 6.38234 11.9565 6.36675C12.2099 6.21334 12.3251 6.01684 12.2264 5.71704Z" fill="white"/>
<path d="M6.77446 6.34389C6.46672 6.37781 6.31819 6.54345 6.27908 6.84416C6.15103 6.5734 5.95758 6.4533 5.65137 6.51992C5.86804 6.31364 5.9151 6.09727 5.76322 5.83079C6.02329 5.95761 6.24301 5.95089 6.44746 5.71802C6.3952 6.0172 6.50583 6.21493 6.77385 6.34389H6.77446Z" fill="white"/>
<path d="M9.65808 4.7977C9.41757 4.60976 9.19539 4.62504 8.95763 4.8032C9.06032 4.52174 8.99797 4.30843 8.74463 4.13821C9.04259 4.1431 9.22565 4.01811 9.30663 3.72412C9.40473 3.99152 9.5612 4.15991 9.8775 4.13332C9.63668 4.30477 9.55295 4.51166 9.65808 4.7977Z" fill="white"/>
<path d="M5.95152 9.83374C5.67647 9.75 5.45644 9.77659 5.29508 10.0516C5.28958 9.75306 5.17039 9.56481 4.87549 9.48565C5.14992 9.39306 5.30242 9.22864 5.28255 8.91968C5.4595 9.14582 5.65966 9.24851 5.94876 9.12902C5.7709 9.36983 5.7709 9.59598 5.95152 9.83374Z" fill="white"/>
<path d="M11.0679 13.5015V13.1464C11.2023 13.1314 11.3405 13.0917 11.4376 13.2041C11.4749 13.2472 11.4829 13.3581 11.4535 13.4086C11.3689 13.5543 11.217 13.499 11.0679 13.5018V13.5015Z" fill="white"/>
</g>
</g>
<defs>
<clipPath id="clip0_2792_15496">
<rect width="18" height="18" fill="white" transform="translate(0 0.5)"/>
</clipPath>
<clipPath id="clip1_2792_15496">
<rect width="18" height="19.0696" fill="white"/>
</clipPath>
</defs>
</svg>
