<svg viewBox="0 0 30 24"
     fill="none"
     xmlns="http://www.w3.org/2000/svg">
    <path d="M17.6129 1.2832H12.3024V10.7162H17.6129V1.2832Z"
          fill="#FF5A00" />
    <path d="M12.6556 6C12.6556 4.0835 13.5669 2.38252 14.9652 1.2835C13.9361 0.483495 12.6379 0 11.222 0C7.86758 0 5.15344 2.6835 5.15344 6C5.15344 9.31651 7.86758 12 11.222 12C12.6379 12 13.9361 11.5165 14.9652 10.7165C13.5649 9.63301 12.6556 7.9165 12.6556 6Z"
          fill="#EB001B" />
    <path d="M24.7771 6C24.7771 9.31651 22.063 12 18.7086 12C17.2926 12 15.9944 11.5165 14.9653 10.7165C16.3813 9.61553 17.2749 7.9165 17.2749 6C17.2749 4.0835 16.3637 2.38252 14.9653 1.2835C15.9925 0.483495 17.2906 0 18.7066 0C22.063 0 24.7771 2.70097 24.7771 6Z"
          fill="#F79E1B" />
    <path d="M19.3889 14C17.3299 14 15.4897 15.0553 15.4897 17.0047C15.4897 19.2406 18.7532 19.395 18.7532 20.5184C18.7532 20.9913 18.2051 21.4147 17.2686 21.4147C15.94 21.4147 14.9469 20.8232 14.9469 20.8232L14.5219 22.7906C14.5219 22.7906 15.6659 23.2903 17.1847 23.2903C19.4359 23.2903 21.2076 22.1833 21.2076 20.2003C21.2076 17.8377 17.9305 17.6878 17.9305 16.6454C17.9305 16.2749 18.3804 15.869 19.314 15.869C20.3675 15.869 21.2267 16.2993 21.2267 16.2993L21.6427 14.3992C21.6427 14.3992 20.7074 14 19.3886 14H19.3889ZM0.54993 14.1435L0.5 14.4302C0.5 14.4302 1.36623 14.5869 2.14653 14.8998C3.15122 15.2583 3.22263 15.4672 3.39187 16.1153L5.23551 23.1422H7.70704L11.5145 14.1435H9.04876L6.60219 20.2618L5.60388 15.0754C5.51244 14.4819 5.04856 14.1432 4.48104 14.1432H0.55022L0.54993 14.1435ZM12.5061 14.1435L10.5719 23.1422H12.9233L14.8505 14.1435H12.5061ZM25.6203 14.1435C25.0533 14.1435 24.7529 14.4437 24.5326 14.9681L21.0877 23.1422H23.5534L24.0303 21.7798H27.0343L27.3243 23.1422H29.5L27.6021 14.1435H25.6203ZM25.941 16.5748L26.672 19.9515H24.714L25.9413 16.5748H25.941Z"
          fill="white" />
</svg>