<svg viewBox="0 0 64 36"
     fill="none"
     xmlns="http://www.w3.org/2000/svg">
    <g clip-path="url(#clip0_960_9673)">
        <path d="M47 31C51.9706 31 56 26.9706 56 22C56 17.0294 51.9706 13 47 13C42.0294 13 38 17.0294 38 22C38 26.9706 42.0294 31 47 31Z"
              fill="#627EEA" />
        <path d="M47.2801 15.25V20.2394L51.4972 22.1237L47.2801 15.25Z"
              fill="white"
              fill-opacity="0.602" />
        <path d="M47.2801 15.25L43.0625 22.1237L47.2801 20.2394V15.25Z"
              fill="white" />
        <path d="M47.2801 25.3572V28.7474L51.5 22.9092L47.2801 25.3572Z"
              fill="white"
              fill-opacity="0.602" />
        <path d="M47.2801 28.7474V25.3566L43.0625 22.9092L47.2801 28.7474Z"
              fill="white" />
        <path d="M47.2801 24.572L51.4972 22.1235L47.2801 20.2402V24.572Z"
              fill="white"
              fill-opacity="0.2" />
        <path d="M43.0625 22.1235L47.2801 24.572V20.2402L43.0625 22.1235Z"
              fill="white"
              fill-opacity="0.602" />
    </g>
    <path d="M17 31C22.5228 31 27 26.5228 27 21C27 15.4772 22.5228 11 17 11C11.4772 11 7 15.4772 7 21C7 26.5228 11.4772 31 17 31Z"
          fill="#26A17B" />
    <path fill-rule="evenodd"
          clip-rule="evenodd"
          d="M18.2015 21.8647V21.8635C18.1327 21.8685 17.7783 21.8897 16.9877 21.8897C16.3565 21.8897 15.9121 21.871 15.7558 21.8635V21.8653C13.3258 21.7585 11.5121 21.3353 11.5121 20.8291C11.5121 20.3235 13.3258 19.9003 15.7558 19.7916V21.4441C15.9146 21.4553 16.3696 21.4822 16.9983 21.4822C17.7527 21.4822 18.1308 21.451 18.2015 21.4447V19.7928C20.6265 19.901 22.4358 20.3241 22.4358 20.8291C22.4358 21.3353 20.6265 21.7572 18.2015 21.8647ZM18.2015 19.621V18.1422H21.5852V15.8872H12.3721V18.1422H15.7558V19.6203C13.0058 19.7466 10.9377 20.2916 10.9377 20.9441C10.9377 21.5966 13.0058 22.141 15.7558 22.2678V27.0066H18.2015V22.2666C20.9471 22.1403 23.0102 21.596 23.0102 20.9441C23.0102 20.2922 20.9471 19.7478 18.2015 19.621Z"
          fill="white" />
    <g clip-path="url(#clip1_960_9673)">
        <path d="M45.596 20.7657C43.7928 27.9979 36.4669 32.3993 29.2331 30.5958C22.0022 28.7928 17.6003 21.4673 19.4044 14.2357C21.2068 7.00266 28.5327 2.60094 35.7643 4.40397C42.9976 6.20699 47.3993 13.5333 45.5958 20.7658L45.596 20.7657H45.596Z"
              fill="#F7931A" />
        <path d="M38.4535 15.5765C38.7222 13.7799 37.3543 12.8142 35.4838 12.17L36.0906 9.73641L34.609 9.36728L34.0183 11.7368C33.6288 11.6397 33.2288 11.5481 32.8313 11.4574L33.4263 9.07225L31.9456 8.70312L31.3385 11.1359C31.0162 11.0625 30.6996 10.99 30.3924 10.9136L30.3942 10.906L28.351 10.3958L27.9569 11.978C27.9569 11.978 29.0561 12.23 29.033 12.2455C29.6329 12.3952 29.7414 12.7923 29.7234 13.1071L29.0322 15.8795C29.0735 15.89 29.1271 15.9052 29.1862 15.9289C29.1368 15.9167 29.0842 15.9033 29.0296 15.8902L28.0607 19.774C27.9874 19.9562 27.8013 20.2298 27.3819 20.1259C27.3967 20.1474 26.305 19.8572 26.305 19.8572L25.5695 21.5529L27.4975 22.0335C27.8562 22.1234 28.2076 22.2175 28.5538 22.306L27.9407 24.7675L29.4205 25.1367L30.0277 22.7013C30.432 22.811 30.8243 22.9123 31.2084 23.0077L30.6033 25.4316L32.0849 25.8007L32.6979 23.3438C35.2243 23.8219 37.124 23.6291 37.9236 21.3443C38.5679 19.5047 37.8915 18.4436 36.5624 17.7517C37.5304 17.5285 38.2596 16.8918 38.454 15.5767L38.4536 15.5764L38.4535 15.5765ZM35.0685 20.3227C34.6106 22.1622 31.513 21.1678 30.5087 20.9185L31.3222 17.6574C32.3265 17.9081 35.547 18.4042 35.0685 20.3227H35.0685ZM35.5267 15.5498C35.109 17.2231 32.5308 16.373 31.6944 16.1646L32.4321 13.207C33.2684 13.4154 35.9618 13.8045 35.5268 15.5498H35.5267Z"
              fill="white" />
    </g>
    <defs>
        <clipPath id="clip0_960_9673">
            <rect width="18"
                  height="18"
                  fill="white"
                  transform="translate(38 13)" />
        </clipPath>
        <clipPath id="clip1_960_9673">
            <rect width="27"
                  height="27"
                  fill="white"
                  transform="translate(19 4)" />
        </clipPath>
    </defs>
</svg>