<svg viewBox="0 0 64 36"
     fill="none"
     xmlns="http://www.w3.org/2000/svg">
    <path d="M9.8323 16.5998L8.00557 15.7368H21.853C22.4204 15.7368 22.933 15.3986 23.1559 14.8774L24.3229 12.1465L10.8738 12.145C8.61059 12.145 6.5646 13.4897 5.66924 15.566L1.997 24.183C1.20164 26.0499 2.57258 28.1221 4.60386 28.1221H16.56C17.1276 28.1221 17.6402 27.7838 17.8631 27.2627L19.0517 24.4816H6.46765L9.8323 16.6003V16.5998Z"
          fill="#EF9F2E" />
    <path d="M48.4034 12.1455C46.1285 12.1455 44.0744 13.5043 43.1867 15.5969L42.5939 16.9948L42.1705 17.9911C41.3772 19.8575 42.7487 21.9271 44.7784 21.9271H45.82H54.3217L53.2299 24.4821H40.3392C39.7727 24.4821 39.2611 24.8188 39.0378 25.3385L37.8399 28.1226H52.3965C54.6664 28.1226 56.7168 26.7698 57.6076 24.6844L58.6746 22.1873C59.4724 20.3204 58.101 18.2462 56.0692 18.2462H46.5351L47.235 16.6013L45.4535 15.7378H60.4936C61.0621 15.7378 61.5753 15.3986 61.7976 14.8764L62.9594 12.146H48.4039L48.4034 12.1455Z"
          fill="#EF9F2E" />
    <path d="M44.1755 8.50437C44.1628 8.50437 44.1522 8.49372 44.1522 8.48105C44.1532 8.39282 44.1557 8.08049 44.1562 8.02168C44.1562 7.94055 44.0994 7.87515 44.0283 7.87515C43.9872 7.87515 43.9506 7.89746 43.9268 7.93194C43.9146 7.94918 43.769 8.16162 43.6792 8.29193C43.674 8.29902 43.6664 8.30308 43.6578 8.30308H36.561C36.5331 8.30308 36.5103 8.28077 36.5097 8.25288L36.4956 8.06123C36.495 8.02878 36.5245 8.00343 36.5564 8.00951L36.9193 8.04399C36.9508 8.04652 36.9792 8.02625 36.9868 7.99582L37.2513 6.92447C37.2569 6.89962 37.2431 6.87427 37.2194 6.86565L36.9737 6.77388C36.9595 6.7683 36.9487 6.75664 36.9452 6.74193C36.9005 6.55535 36.5372 5.30805 34.7855 5.02918C33.9333 4.8938 33.375 5.25734 33.0771 5.54736C32.9446 5.67615 32.8355 5.82674 32.7501 5.99102L32.6456 6.22121C32.6365 6.23896 32.5958 6.45495 32.5958 6.47472L32.6512 7.53798C32.6512 7.57448 32.6685 7.60845 32.6969 7.63076L33.0812 7.79656L32.869 8.14794C32.8619 8.17379 32.8385 8.19153 32.8116 8.19153C32.8116 8.19153 32.3599 8.20319 32.137 8.21232C31.7193 8.22906 30.789 8.73862 30.1033 10.2039C29.4296 11.6429 29.3191 11.8827 29.3191 11.8827C29.3049 11.9101 29.2759 11.9273 29.2449 11.9258L28.6192 11.9279C28.5806 11.9279 28.5395 11.9588 28.5232 11.9938L27.5501 14.7485C27.534 14.7835 27.5436 14.8362 27.5689 14.8656L28.2481 15.29C28.2668 15.3057 28.275 15.3305 28.2693 15.3539L27.9147 16.4009C27.9101 16.4242 27.9014 16.447 27.8892 16.4678L27.4187 16.8821C27.4065 16.8927 27.3953 16.9059 27.3888 16.9206C27.3852 16.9287 27.3822 16.9373 27.3796 16.9459L26.7319 18.6044C26.7234 18.6338 26.6965 18.6536 26.666 18.6536L26.3025 18.6556C26.2111 18.6556 26.1351 18.7261 26.127 18.8169L25.9096 21.2958C25.9057 21.3394 25.9001 21.383 25.8924 21.4266L25.721 22.4102C25.7143 22.4331 25.7017 22.4533 25.6848 22.4701L25.0799 22.9319C24.8027 23.1967 24.4312 23.6798 24.2495 24.017L22.2345 28.2675C22.1857 28.3577 22.1466 28.5134 22.1491 28.6164L22.2922 28.8714C22.2943 28.9626 22.2577 29.3652 22.2157 29.4462L21.5406 30.6257C21.5254 30.6546 21.5243 30.6886 21.5376 30.7184L21.5711 30.795L21.6721 30.9963L23.7211 30.9994C23.848 31.011 23.9885 30.8483 23.9926 30.6739L24.1038 29.2694L24.0748 29.058L27.9816 24.4733C28.0837 24.3491 28.2222 24.13 28.2917 23.9851L30.1534 19.8801C30.1753 19.8351 30.2143 19.8005 30.2621 19.7848L30.3798 19.7468C30.4514 19.7235 30.5296 19.7463 30.5778 19.8041C30.7408 19.9999 31.124 20.6503 31.3107 20.9215C31.465 21.1468 32.2309 22.2545 32.5654 22.6197C32.6578 22.72 32.9425 22.8341 33.07 22.9117C33.1116 22.9371 33.1253 22.9908 33.1014 23.0329L31.9858 24.992L31.4929 27.3056C31.4757 27.3594 31.4625 27.4151 31.4543 27.4709L31.0083 29.0777C31.0113 29.2805 30.8554 29.387 30.8428 29.6263L30.6804 30.8006C30.6783 30.8366 30.7072 30.8671 30.7433 30.8671L33.4998 30.8823H33.5019C33.5054 30.8823 33.6962 30.8797 33.8089 30.8751C33.8303 30.8741 33.8668 30.8706 33.8907 30.8676C34.2581 30.8208 34.5095 30.7707 34.6804 30.7129C34.688 30.7104 34.6957 30.7078 34.7033 30.7048C34.8221 30.6627 34.8992 30.616 34.949 30.5644C35.0428 30.4664 35.1514 30.3463 35.1677 30.1917C35.1683 30.1855 35.1688 30.18 35.1693 30.1739C35.1693 30.1703 35.1693 30.1662 35.1697 30.1627C35.1697 30.1542 35.1697 30.146 35.1697 30.1373C35.1697 30.1364 35.1697 30.1349 35.1697 30.1338C35.1697 30.1262 35.1688 30.1186 35.1677 30.1115C35.1642 30.0806 35.1571 30.0572 35.149 30.0385C35.149 30.0385 35.149 30.0385 35.149 30.0381C35.149 30.0375 35.1484 30.037 35.1479 30.0365C35.1454 30.0305 35.1424 30.0253 35.1392 30.0202C35.1373 30.0172 35.1357 30.0142 35.1332 30.0112C35.1174 29.9894 35.1022 29.9812 35.1002 29.9802C35.0926 29.9757 35.0845 29.9716 35.0758 29.9686L33.7958 29.5827C33.7136 29.5573 33.642 29.5067 33.5912 29.4377L33.2475 28.9297C33.2309 28.8942 33.2385 28.8515 33.2663 28.8242L33.9359 28.1645C33.9587 28.1427 33.9765 28.1159 33.9881 28.0865L36.0504 23.2245C36.1468 22.9158 36.1149 22.5685 36.0504 22.2013C36.0026 21.93 35.3078 20.7644 35.1261 20.4424C34.9662 20.1585 33.9694 18.4158 33.7329 18.0031C33.706 17.9565 33.6709 17.9149 33.6268 17.8845C33.5953 17.8627 33.5643 17.8348 33.5389 17.8054C33.5136 17.776 33.4953 17.7415 33.4851 17.704L33.4064 16.4937C33.3993 16.4673 33.4176 16.4409 33.445 16.4389L33.8039 16.409C33.8379 16.406 33.8684 16.3862 33.8841 16.3563L35.1266 14.0224C35.1438 13.9905 35.1429 13.9514 35.1241 13.9205L34.8698 13.6056C34.8526 13.5767 34.8521 13.5402 34.8687 13.5108L35.2494 13.0996C35.2652 13.0712 35.3007 13.0616 35.3291 13.0773L36.3413 13.6477C36.4026 13.6822 36.4722 13.7025 36.5427 13.7025C36.8235 13.7004 37.2858 13.5346 37.5264 13.3876C37.5898 13.3486 37.6421 13.2933 37.6766 13.2274L38.1731 12.0678C38.1797 12.0531 38.2014 12.0551 38.2045 12.0708L38.343 12.7158C38.3522 12.7563 38.3878 12.7792 38.4284 12.77L39.8901 12.445C39.9287 12.4364 39.9525 12.3984 39.9444 12.3598L39.5998 10.9042C39.5952 10.8844 39.5987 10.8636 39.6099 10.8463L39.7521 10.6258C39.7698 10.5984 39.783 10.5685 39.7911 10.5376L39.9633 9.75219C39.9677 9.7319 39.9856 9.71719 40.0063 9.71719L44.0501 9.72226C44.107 9.72226 44.1511 9.67866 44.1511 9.62137V8.93484C44.1511 8.92217 44.1617 8.91152 44.1745 8.91152H45.7337C45.7611 8.91152 45.784 8.88921 45.784 8.86132V8.55204C45.784 8.52466 45.7617 8.50184 45.7337 8.50184H44.174L44.1755 8.50437Z"
          fill="#EF9F2E" />
</svg>