<svg viewBox="0 0 64 44"
     fill="none"
     xmlns="http://www.w3.org/2000/svg">
    <g clip-path="url(#clip0_1061_17201)">
        <mask id="mask0_1061_17201"
              style="mask-type:luminance"
              maskUnits="userSpaceOnUse"
              x="20"
              y="10"
              width="25"
              height="25">
            <path d="M20 22.0007C20 28.628 25.372 34.0014 32.0007 34.0014C38.6294 34.0014 44.0014 28.6294 44.0014 22.0007C44.0014 15.372 38.628 10 32.0007 10C25.3734 10 20 15.3734 20 22.0007Z"
                  fill="white" />
        </mask>
        <g mask="url(#mask0_1061_17201)">
            <path d="M44 10H20V34H44V10Z"
                  fill="url(#paint0_linear_1061_17201)" />
        </g>
        <mask id="mask1_1061_17201"
              style="mask-type:luminance"
              maskUnits="userSpaceOnUse"
              x="22"
              y="14"
              width="20"
              height="17">
            <path d="M25.3943 22.3395V20.644C25.3943 20.0672 25.868 19.5963 26.4462 19.5963C27.0243 19.5963 27.498 20.0686 27.498 20.644V22.3395C27.498 22.9162 27.0243 23.3871 26.4462 23.3871C25.868 23.3871 25.3943 22.9148 25.3943 22.3395ZM29.0472 22.3395V20.644C29.0472 20.0672 29.5209 19.5963 30.099 19.5963C30.6772 19.5963 31.1509 20.0686 31.1509 20.644V22.3395C31.1509 22.9162 30.6772 23.3871 30.099 23.3871C29.5209 23.3871 29.0472 22.9148 29.0472 22.3395ZM22.81 21.9884C22.7222 26.3685 26.846 30.1718 31.2428 30.1718H31.7959C35.6717 30.1718 40.8668 27.1486 41.6776 23.4651C41.8267 22.7867 41.2889 22.1472 40.5909 22.1472H38.4761C38.4761 17.8354 34.9695 14.3413 30.6424 14.3413C26.3152 14.3413 22.895 17.7504 22.81 21.9884Z"
                  fill="white" />
        </mask>
        <g mask="url(#mask1_1061_17201)">
            <path d="M41.828 14.3413H22.7222V30.1718H41.828V14.3413Z"
                  fill="url(#paint1_linear_1061_17201)" />
        </g>
    </g>
    <defs>
        <linearGradient id="paint0_linear_1061_17201"
                        x1="32.2423"
                        y1="9.99305"
                        x2="32.2423"
                        y2="33.993"
                        gradientUnits="userSpaceOnUse">
            <stop stop-color="#534BB1" />
            <stop offset="1"
                  stop-color="#551BF9" />
        </linearGradient>
        <linearGradient id="paint1_linear_1061_17201"
                        x1="32.0065"
                        y1="14.2663"
                        x2="32.0065"
                        y2="30.0968"
                        gradientUnits="userSpaceOnUse">
            <stop stop-color="white" />
            <stop offset="1"
                  stop-color="white" />
        </linearGradient>
        <clipPath id="clip0_1061_17201">
            <rect width="24"
                  height="24"
                  fill="white"
                  transform="translate(20 10)" />
        </clipPath>
    </defs>
</svg>