<svg viewBox="0 0 64 36"
     fill="none"
     xmlns="http://www.w3.org/2000/svg">
    <path d="M19.8331 14.1311H24.136V18.4589H19.8331V14.1311ZM16.6772 11V25.9272H19.8443V21.5891H21.065V25.9272H27.304V22.7961H24.2312V21.5891H27.304V11H16.6772Z"
          fill="white" />
    <path d="M36.3421 11V22.7961H32.0384V11H28.8824V25.9272H39.4981V11H36.3421Z"
          fill="white" />
    <path d="M41.0765 11V20.0296H48.5363V22.7961H41.0765V25.9272H51.7034V16.8985H44.2437V14.1311H51.7034V11H41.0765Z"
          fill="white" />
    <path d="M53.2818 11V14.1311H57.0168V25.9272H60.1736V14.1311H63.9086V11H53.2818Z"
          fill="white" />
    <path d="M15.0987 11H0V25.9272H15.0987V11Z"
          fill="#CD412B" />
    <path d="M4.94539 17.7307L1.73624 17.21V20.3728L4.94539 19.8529V17.7307Z"
          fill="#191B24" />
    <path d="M6.55472 17.731H5.48157V19.8429H6.55472V17.731Z"
          fill="#191B24" />
    <path d="M8.95408 15.8891L9.47993 12.7168H6.28107L6.80778 15.8891H8.95408Z"
          fill="#191B24" />
    <path d="M8.94381 16.4199H6.8078V17.4811H8.94381V16.4199Z"
          fill="#191B24" />
    <path d="M7.88092 18.0415L7.12173 18.7921L7.88092 19.5427L8.63924 18.7921L7.88092 18.0415Z"
          fill="#191B24" />
    <path d="M9.20627 21.59L11.0901 24.2116L13.3625 21.964L10.7109 20.1025L9.20627 21.59Z"
          fill="#191B24" />
    <path d="M9.57943 18.9805L8.06964 20.474L8.82797 21.2237L10.3386 19.7311L9.57943 18.9805Z"
          fill="#191B24" />
</svg>