<svg viewBox="0 0 64 44"
     fill="none"
     xmlns="http://www.w3.org/2000/svg">
    <g clip-path="url(#clip0_1061_17209)">
        <path fill-rule="evenodd"
              clip-rule="evenodd"
              d="M32 10C38.6281 10 44 15.3719 44 22C44 28.6281 38.6281 34 32 34C25.3719 34 20 28.6281 20 22C20 15.3719 25.3719 10 32 10Z"
              fill="url(#paint0_radial_1061_17209)" />
        <path d="M27.6265 19.2669C30.0406 16.9091 33.9593 16.9091 36.3734 19.2669L36.664 19.5528C36.7859 19.67 36.7859 19.8622 36.664 19.9794L35.6702 20.9497C35.6093 21.0106 35.5109 21.0106 35.4499 20.9497L35.0515 20.5606C33.364 18.9153 30.6359 18.9153 28.9484 20.5606L28.5218 20.9778C28.4609 21.0388 28.3624 21.0388 28.3015 20.9778L27.3077 20.0075C27.1859 19.8903 27.1859 19.6981 27.3077 19.581L27.6265 19.2669ZM38.4312 21.2731L39.3171 22.1356C39.439 22.2528 39.439 22.445 39.3171 22.5622L35.3281 26.4575C35.2062 26.5747 35.0093 26.5747 34.8921 26.4575L32.0609 23.6919C32.0327 23.6638 31.9812 23.6638 31.9531 23.6919L29.1218 26.4575C28.9999 26.5747 28.8031 26.5747 28.6859 26.4575L24.6827 22.5622C24.5609 22.445 24.5609 22.2528 24.6827 22.1356L25.5687 21.2731C25.6906 21.156 25.8874 21.156 26.0046 21.2731L28.8359 24.0388C28.864 24.0669 28.9156 24.0669 28.9437 24.0388L31.7749 21.2731C31.8968 21.156 32.0937 21.156 32.2109 21.2731L35.0421 24.0388C35.0702 24.0669 35.1218 24.0669 35.1499 24.0388L37.9812 21.2731C38.1124 21.156 38.3093 21.156 38.4312 21.2731Z"
              fill="white" />
    </g>
    <defs>
        <radialGradient id="paint0_radial_1061_17209"
                        cx="0"
                        cy="0"
                        r="1"
                        gradientUnits="userSpaceOnUse"
                        gradientTransform="translate(20.0001 22.0004) scale(24)">
            <stop stop-color="#5D9DF6" />
            <stop offset="1"
                  stop-color="#006FFF" />
        </radialGradient>
        <clipPath id="clip0_1061_17209">
            <rect width="24"
                  height="24"
                  fill="white"
                  transform="translate(20 10)" />
        </clipPath>
    </defs>
</svg>