<svg viewBox="0 0 16 16" fill="none" xmlns="http://www.w3.org/2000/svg">
<path d="M9.46634 1.91699C8.64859 1.91699 7.86433 2.24184 7.2861 2.82008C6.70786 3.39832 6.38301 4.18257 6.38301 5.00033V6.71699H4.73301C4.65034 6.71699 4.58301 6.78366 4.58301 6.86699V9.13366C4.58301 9.21633 4.64967 9.28366 4.73301 9.28366H6.38301V13.9337C6.38301 14.0163 6.44967 14.0837 6.53301 14.0837H8.79967C8.88234 14.0837 8.94967 14.017 8.94967 13.9337V9.28366H10.6143C10.683 9.28366 10.743 9.23699 10.7597 9.17033L11.3263 6.90366C11.3319 6.88154 11.3324 6.85844 11.3277 6.83612C11.323 6.8138 11.3133 6.79284 11.2992 6.77484C11.2852 6.75684 11.2673 6.74228 11.2468 6.73225C11.2263 6.72223 11.2038 6.71701 11.181 6.71699H8.94967V5.00033C8.94967 4.93248 8.96304 4.86529 8.989 4.80261C9.01497 4.73992 9.05303 4.68296 9.101 4.63499C9.14898 4.58701 9.20594 4.54895 9.26862 4.52299C9.33131 4.49702 9.39849 4.48366 9.46634 4.48366H11.1997C11.2823 4.48366 11.3497 4.41699 11.3497 4.33366V2.06699C11.3497 1.98433 11.283 1.91699 11.1997 1.91699H9.46634Z" fill="currentColor"/>
</svg>
