<svg viewBox="0 0 16 16" fill="none" xmlns="http://www.w3.org/2000/svg">
<path d="M14.1666 5.45297C13.8367 4.64151 13.347 3.90469 12.7266 3.2863C12.1075 2.66646 11.3722 2.17473 10.5629 1.83923C9.75356 1.50374 8.88605 1.33105 8.00994 1.33105C7.13384 1.33105 6.26633 1.50374 5.45701 1.83923C4.64769 2.17473 3.91243 2.66646 3.29328 3.2863C2.67049 3.90408 2.17848 4.64095 1.84661 5.45297C1.51244 6.26044 1.34029 7.12574 1.33994 7.99963C1.33517 8.86192 1.50291 9.71646 1.83328 10.513L1.49994 12.9463C1.43264 13.2593 1.48317 13.5861 1.64186 13.8641C1.80055 14.1421 2.05624 14.3518 2.35994 14.453C2.55794 14.5183 2.76861 14.5343 2.97328 14.4996L5.40661 14.1396C6.22401 14.4894 7.1042 14.6686 7.99328 14.6663C9.08911 14.6661 10.168 14.3958 11.1345 13.8793C12.1009 13.3628 12.9252 12.616 13.5343 11.705C14.1433 10.7941 14.5185 9.74699 14.6264 8.65649C14.7344 7.56599 14.5719 6.46569 14.1533 5.45297H14.1666ZM5.15328 9.07297C5.01232 9.07292 4.87276 9.04512 4.74255 8.99114C4.61235 8.93716 4.49405 8.85806 4.39441 8.75836C4.29478 8.65866 4.21575 8.54031 4.16185 8.41007C4.10795 8.27983 4.08023 8.14025 4.08028 7.9993C4.08032 7.85835 4.10813 7.71878 4.16211 7.58858C4.21609 7.45837 4.29518 7.34007 4.39488 7.24044C4.49458 7.1408 4.61293 7.06177 4.74317 7.00787C4.87341 6.95397 5.01299 6.92626 5.15394 6.9263C5.43861 6.9263 5.71162 7.03938 5.9129 7.24067C6.11419 7.44196 6.22728 7.71497 6.22728 7.99963C6.22728 8.2843 6.11419 8.5573 5.9129 8.75859C5.71162 8.95988 5.43794 9.07297 5.15328 9.07297ZM8.00728 9.07297C7.86632 9.07292 7.72676 9.04512 7.59655 8.99114C7.46635 8.93716 7.34805 8.85806 7.24841 8.75836C7.14878 8.65866 7.06975 8.54031 7.01585 8.41007C6.96195 8.27983 6.93423 8.14025 6.93428 7.9993C6.93432 7.85835 6.96213 7.71878 7.01611 7.58858C7.07009 7.45837 7.14918 7.34007 7.24888 7.24044C7.34858 7.1408 7.46693 7.06177 7.59717 7.00787C7.72741 6.95397 7.86699 6.92626 8.00794 6.9263C8.29261 6.9263 8.56562 7.03938 8.7669 7.24067C8.96819 7.44196 9.08128 7.71497 9.08128 7.99963C9.08128 8.2843 8.96819 8.5573 8.7669 8.75859C8.56562 8.95988 8.29261 9.07297 8.00794 9.07297M10.8613 9.07297C10.7203 9.07292 10.5808 9.04512 10.4506 8.99114C10.3203 8.93716 10.2021 8.85806 10.1024 8.75836C10.0028 8.65866 9.92375 8.54031 9.86985 8.41007C9.81595 8.27983 9.78823 8.14025 9.78828 7.9993C9.78832 7.85835 9.81613 7.71878 9.87011 7.58858C9.92409 7.45837 10.0032 7.34007 10.1029 7.24044C10.2026 7.1408 10.3209 7.06177 10.4512 7.00787C10.5814 6.95397 10.721 6.92626 10.8619 6.9263C11.1466 6.9263 11.4196 7.03938 11.6209 7.24067C11.8222 7.44196 11.9353 7.71497 11.9353 7.99963C11.9353 8.2843 11.8222 8.5573 11.6209 8.75859C11.4196 8.95988 11.1459 9.07297 10.8613 9.07297Z" fill="currentColor"/>
</svg>
