<svg width="18" height="18" viewBox="0 0 18 18" fill="none" xmlns="http://www.w3.org/2000/svg">
<path d="M5.35294 7.35332L8.7517 3.95587L12.1519 7.35604L14.1285 5.3781L8.7517 0L3.375 5.37679L5.35294 7.35332Z" fill="#F5F7F8"/>
<path d="M0 8.75043L1.97724 6.77319L3.95439 8.75043L1.97724 10.7276L0 8.75043Z" fill="#F5F7F8"/>
<path d="M5.35183 10.1467L8.75059 13.5455L12.1508 10.1453L14.1288 12.1205L14.1274 12.1218L8.75059 17.5L3.37389 12.1246L3.37109 12.1218L5.35183 10.1467Z" fill="#F5F7F8"/>
<path d="M13.5449 8.75092L15.5222 6.77368L17.4993 8.75092L15.5222 10.7281L13.5449 8.75092Z" fill="#F5F7F8"/>
<path d="M10.7561 8.74933L8.75049 6.74243L7.26736 8.22547L7.09595 8.39548L6.7449 8.74662L6.74219 8.74933L6.7449 8.75353L8.75049 10.7577L10.7561 8.75073L10.7575 8.74933H10.7561Z" fill="#F5F7F8"/>
</svg>
