<svg width="13" height="18" viewBox="0 0 13 18" fill="none" xmlns="http://www.w3.org/2000/svg">
<path d="M11.623 5.32306C11.39 3.4118 9.74242 2.81943 7.69956 2.66193L7.6377 0L6.01256 0.0125128L6.05097 2.58676C5.63675 2.60383 5.22261 2.6208 4.76499 2.64941L4.72658 0.0751628L3.14493 0.0760373L3.20679 2.73796C2.87945 2.73175 2.52035 2.78092 2.19301 2.77462L0 2.75135L0.044013 4.47834C0.044013 4.47834 1.24311 4.43896 1.19971 4.4506C1.84275 4.41927 2.04706 4.83446 2.12922 5.14132L2.15486 8.18895L2.21375 12.4024C2.17394 12.6011 2.08259 12.9545 1.61324 12.9393C1.62496 12.9832 0.45745 12.9671 0.45745 12.9671L0.232837 14.9069L2.31551 14.8658C2.68625 14.8604 3.10048 14.8434 3.47121 14.8381L3.53316 17.5L5.11481 17.4991L5.05295 14.8372C5.4789 14.864 5.93644 14.8354 6.30726 14.83L6.3574 17.4481L7.93905 17.4472L7.87719 14.7853C10.5676 14.5813 12.4307 13.8941 12.6329 11.3494C12.7789 9.28961 11.8024 8.42345 10.2569 8.03871C11.1966 7.55195 11.7583 6.69655 11.623 5.32306ZM9.48579 11.0648C9.51344 13.0781 6.11774 12.9071 5.04875 12.9116L4.98076 9.35847C6.04966 9.35401 9.44641 9.00769 9.48579 11.0648ZM8.65926 6.07014C8.68341 7.89644 5.84377 7.71741 4.96029 7.71925L4.88758 4.49619C5.78288 4.53828 8.62348 4.20009 8.65926 6.07014Z" fill="#F5F7F8"/>
</svg>
