<svg width="18" height="17" viewBox="0 0 18 17" fill="none" xmlns="http://www.w3.org/2000/svg">
<path d="M17.262 4.85375C16.3989 4.15646 15.205 3.09159 14.2325 2.33637L14.175 2.30111C14.0792 2.23383 13.9713 2.18106 13.8556 2.14501C11.5109 1.76238 0.598413 -0.0223627 0.385525 0.000212275C0.32585 0.00756228 0.2688 0.0264624 0.218662 0.0555999L0.163975 0.0933995C0.0966874 0.153249 0.0455878 0.225437 0.0143503 0.304887L0 0.337612V0.516287V0.544025C1.2285 3.53714 6.07906 13.3423 7.0343 15.6432C7.09179 15.7993 7.20116 16.0964 7.40539 16.1114H7.45141C7.56079 16.1114 8.02681 15.5727 8.02681 15.5727C8.02681 15.5727 16.3586 6.73167 17.2015 5.79017C17.3107 5.67424 17.407 5.54946 17.4892 5.4176C17.5102 5.31444 17.5003 5.2083 17.4605 5.10951C17.4207 5.01064 17.3523 4.92252 17.262 4.85375ZM10.1644 5.88336L13.7204 3.30308L15.8062 4.98465L10.1644 5.88336ZM8.78351 5.71466L2.66123 1.32435L12.5667 2.92289L8.78351 5.71466ZM9.33581 6.86511L15.6019 5.98154L8.43824 13.5337L9.33581 6.86511ZM1.8298 1.76237L8.27137 6.54539L7.33924 13.5386L1.8298 1.76237Z" fill="#F5F7F8"/>
</svg>
