<svg width="18" height="15" viewBox="0 0 18 15" fill="none" xmlns="http://www.w3.org/2000/svg">
<path d="M10.5184 4.76647V2.86799H15.4331V0H2.06692V2.86799H6.98163V4.76647C2.98559 4.92809 0 5.61479 0 6.4631C0 7.31133 2.98559 7.99803 6.98163 8.15964V14.2188H10.5184V8.15964C14.5144 7.99803 17.5 7.31133 17.5 6.4631C17.5 5.61479 14.5144 4.92809 10.5184 4.76647ZM10.5184 7.63446C10.4265 7.63446 9.92127 7.67489 8.77292 7.67489C7.85435 7.67489 7.21131 7.63446 6.98163 7.63446C3.44488 7.51327 0.826787 6.94776 0.826787 6.30149C0.826787 5.65521 3.44488 5.13004 6.98163 4.96851V7.06895C7.21131 7.06895 7.85435 7.10938 8.77292 7.10938C9.87534 7.10938 10.4265 7.06895 10.5184 7.06895V4.96851C14.0551 5.0897 16.6732 5.65521 16.6732 6.30149C16.6732 6.94776 14.0551 7.47294 10.5184 7.63446Z" fill="#F5F7F8"/>
</svg>
