<svg width="13" height="14" viewBox="0 0 13 14" fill="none" xmlns="http://www.w3.org/2000/svg">
<path d="M6.33337 0.166992L12.3334 3.16699V4.50033H0.333374V3.16699L6.33337 0.166992ZM9.00004 5.16699H11.6667V10.5003H9.00004V5.16699ZM0.333374 13.167V11.167H12.3334V13.167H0.333374ZM5.00004 5.16699H7.66671V10.5003H5.00004V5.16699ZM1.00004 5.16699H3.66671V10.5003H1.00004V5.16699ZM1.00004 11.8337V12.5003H11.6667V11.8337H1.00004ZM1.66671 5.83366V9.83366H3.00004V5.83366H1.66671ZM5.66671 5.83366V9.83366H7.00004V5.83366H5.66671ZM9.66671 5.83366V9.83366H11V5.83366H9.66671ZM1.00004 3.83366H11.6667V3.56699L6.33337 0.886992L1.00004 3.56699V3.83366Z" fill="white"/>
</svg>
