<svg width="16" height="17" viewBox="0 0 16 17" fill="none" xmlns="http://www.w3.org/2000/svg">
<g clip-path="url(#clip0_2106_10114)">
<path d="M15.7607 10.4346C14.6918 14.7226 10.3474 17.3292 6.06549 16.2603C1.77737 15.1914 -0.829259 10.8472 0.239679 6.56537C1.30855 2.27737 5.64668 -0.329258 9.9348 0.739679C14.2167 1.8023 16.8296 6.14655 15.7607 10.4346Z" fill="url(#paint0_linear_2106_10114)"/>
<path d="M11.4213 6.55104C11.2972 5.4843 10.3696 5.13757 9.19636 5.05724L9.17284 3.56887L8.27104 3.58404L8.29693 5.03296C8.059 5.03847 7.81503 5.04561 7.57268 5.05878L7.54518 3.60383L6.64337 3.619L6.67131 5.09972C6.47284 5.10761 6.28041 5.11388 6.09401 5.11853L6.09239 5.11249L4.84356 5.13653L4.86284 6.10194C4.86284 6.10194 5.52951 6.07859 5.51905 6.08787C5.88581 6.08018 6.00765 6.29341 6.04411 6.47776L6.0711 8.17226C6.09686 8.17183 6.12866 8.16978 6.16974 8.17818C6.13794 8.18023 6.10613 8.18229 6.07271 8.1783L6.11259 10.5487C6.09783 10.6627 6.03122 10.8488 5.7796 10.8515C5.78887 10.862 5.12338 10.8656 5.12338 10.8656L4.96123 11.9508L6.14041 11.9324C6.36023 11.9318 6.5724 11.9267 6.78618 11.9276L6.81293 13.4281L7.71474 13.4129L7.69121 11.9246C7.9368 11.9235 8.18238 11.9224 8.41427 11.9185L8.44221 13.3992L9.34402 13.384L9.31726 11.8836C10.8389 11.767 11.8965 11.3672 11.9982 9.93579C12.085 8.78667 11.5353 8.28046 10.6679 8.08584C11.1953 7.80862 11.5132 7.32875 11.4213 6.55104ZM10.2113 9.78696C10.2332 10.907 8.30626 10.8151 7.69392 10.8238L7.65893 8.83384C8.27127 8.82506 10.1946 8.61381 10.2113 9.78696ZM9.74418 6.98101C9.7599 8.0056 8.15584 7.9113 7.64656 7.91835L7.61622 6.11475C8.1255 6.10769 9.72479 5.91857 9.74418 6.98101Z" fill="white"/>
</g>
<defs>
<linearGradient id="paint0_linear_2106_10114" x1="799.567" y1="0.116" x2="799.567" y2="1600.34" gradientUnits="userSpaceOnUse">
<stop stop-color="#F9AA4B"/>
<stop offset="1" stop-color="#F7931A"/>
</linearGradient>
<clipPath id="clip0_2106_10114">
<rect width="16" height="16" fill="white" transform="translate(0 0.5)"/>
</clipPath>
</defs>
</svg>
