<svg width="34" height="34" viewBox="0 0 34 34" fill="none" xmlns="http://www.w3.org/2000/svg">
<path d="M32.3691 19.4155C32.3691 15.9815 26.4191 13.1595 18.8031 12.8535V12.9555L18.9051 13.6355C22.9171 13.8735 26.3511 14.8595 28.2211 16.2535C29.2071 17.0015 29.7851 17.8175 29.7851 18.7355C29.7851 19.1095 29.6831 19.4495 29.5131 19.7895C29.2411 20.2995 28.7991 20.7755 28.1871 21.2175C26.0451 22.7815 21.9311 23.8355 17.2051 23.8355C12.4791 23.8355 8.3651 22.7815 6.2231 21.2175C5.6111 20.7755 5.1691 20.2995 4.8971 19.7895C4.72691 19.4637 4.63385 19.103 4.6251 18.7355C4.6251 18.0215 4.9991 17.3415 5.6451 16.6955C7.3451 15.0635 11.0511 13.8735 15.5051 13.6355L15.6071 12.8875C8.2631 13.2955 2.5511 16.0495 2.5511 19.4155C2.5511 19.5855 2.5851 19.7555 2.5851 19.9255C2.6531 20.3675 2.8231 20.7755 3.0951 21.1835C3.0951 21.1835 3.0951 21.2175 3.1291 21.2175C4.8971 23.9715 10.6431 25.9775 17.4431 25.9775C22.6451 25.9775 27.2011 24.8215 29.8531 23.0195C27.3371 25.2635 22.3051 26.7595 16.4911 26.7595C9.9971 26.7595 4.4891 24.8555 2.3811 22.2035C3.1631 26.0115 9.5551 28.9695 17.3071 28.9695C25.6031 28.9695 32.3351 25.6035 32.3351 21.4215V19.7555H32.3001C32.3681 19.6875 32.3691 19.5515 32.3691 19.4155Z" fill="#F8043F"/>
<path style="mix-blend-mode:multiply" d="M32.3691 19.4155C32.3691 15.9815 26.4191 13.1595 18.8031 12.8535V12.9555L18.9051 13.6355C22.9171 13.8735 26.3511 14.8595 28.2211 16.2535C29.2071 17.0015 29.7851 17.8175 29.7851 18.7355C29.7851 19.1095 29.6831 19.4495 29.5131 19.7895C29.2411 20.2995 28.7991 20.7755 28.1871 21.2175C26.0451 22.7815 21.9311 23.8355 17.2051 23.8355C12.4791 23.8355 8.3651 22.7815 6.2231 21.2175C5.6111 20.7755 5.1691 20.2995 4.8971 19.7895C4.72691 19.4637 4.63385 19.103 4.6251 18.7355C4.6251 18.0215 4.9991 17.3415 5.6451 16.6955C7.3451 15.0635 11.0511 13.8735 15.5051 13.6355L15.6071 12.8875C8.2631 13.2955 2.5511 16.0495 2.5511 19.4155C2.5511 19.5855 2.5851 19.7555 2.5851 19.9255C2.6531 20.3675 2.8231 20.7755 3.0951 21.1835C3.0951 21.1835 3.0951 21.2175 3.1291 21.2175C4.8971 23.9715 10.6431 25.9775 17.4431 25.9775C22.6451 25.9775 27.2011 24.8215 29.8531 23.0195C27.3371 25.2635 22.3051 26.7595 16.4911 26.7595C9.9971 26.7595 4.4891 24.8555 2.3811 22.2035C3.1631 26.0115 9.5551 28.9695 17.3071 28.9695C25.6031 28.9695 32.3351 25.6035 32.3351 21.4215V19.7555H32.3001C32.3681 19.6875 32.3691 19.5515 32.3691 19.4155Z" fill="url(#paint0_radial_1169_20204)"/>
<path style="mix-blend-mode:screen" d="M32.3691 19.4155C32.3691 15.9815 26.4191 13.1595 18.8031 12.8535V12.9555L18.9051 13.6355C22.9171 13.8735 26.3511 14.8595 28.2211 16.2535C29.2071 17.0015 29.7851 17.8175 29.7851 18.7355C29.7851 19.1095 29.6831 19.4495 29.5131 19.7895C29.2411 20.2995 28.7991 20.7755 28.1871 21.2175C26.0451 22.7815 21.9311 23.8355 17.2051 23.8355C12.4791 23.8355 8.3651 22.7815 6.2231 21.2175C5.6111 20.7755 5.1691 20.2995 4.8971 19.7895C4.72691 19.4637 4.63385 19.103 4.6251 18.7355C4.6251 18.0215 4.9991 17.3415 5.6451 16.6955C7.3451 15.0635 11.0511 13.8735 15.5051 13.6355L15.6071 12.8875C8.2631 13.2955 2.5511 16.0495 2.5511 19.4155C2.5511 19.5855 2.5851 19.7555 2.5851 19.9255C2.6531 20.3675 2.8231 20.7755 3.0951 21.1835C3.0951 21.1835 3.0951 21.2175 3.1291 21.2175C4.8971 23.9715 10.6431 25.9775 17.4431 25.9775C22.6451 25.9775 27.2011 24.8215 29.8531 23.0195C27.3371 25.2635 22.3051 26.7595 16.4911 26.7595C9.9971 26.7595 4.4891 24.8555 2.3811 22.2035C3.1631 26.0115 9.5551 28.9695 17.3071 28.9695C25.6031 28.9695 32.3351 25.6035 32.3351 21.4215V19.7555H32.3001C32.3681 19.6875 32.3691 19.5515 32.3691 19.4155Z" fill="url(#paint1_radial_1169_20204)"/>
<path d="M19.0749 14.5527L19.5849 18.0887C19.5849 18.8367 17.6469 19.2107 17.2389 19.2107C16.8309 19.2107 14.8929 18.8367 14.8929 18.1227L15.4029 14.5527C11.7649 14.8927 9.04492 16.2527 9.04492 17.8507C9.04492 18.5647 9.58892 19.2447 10.5409 19.7887C12.0369 20.6387 14.4849 21.2167 17.2389 21.2167C19.9929 21.2167 22.4409 20.6387 23.9369 19.7887C24.8889 19.2447 25.4329 18.5647 25.4329 17.8507C25.4329 16.2527 22.7129 14.8927 19.0749 14.5527Z" fill="#F8043F"/>
<path style="mix-blend-mode:multiply" d="M19.0749 14.5527L19.5849 18.0887C19.5849 18.8367 17.6469 19.2107 17.2389 19.2107C16.8309 19.2107 14.8929 18.8367 14.8929 18.1227L15.4029 14.5527C11.7649 14.8927 9.04492 16.2527 9.04492 17.8507C9.04492 18.5647 9.58892 19.2447 10.5409 19.7887C12.0369 20.6387 14.4849 21.2167 17.2389 21.2167C19.9929 21.2167 22.4409 20.6387 23.9369 19.7887C24.8889 19.2447 25.4329 18.5647 25.4329 17.8507C25.4329 16.2527 22.7129 14.8927 19.0749 14.5527Z" fill="url(#paint2_radial_1169_20204)"/>
<path style="mix-blend-mode:screen" d="M19.0749 14.5527L19.5849 18.0887C19.5849 18.8367 17.6469 19.2107 17.2389 19.2107C16.8309 19.2107 14.8929 18.8367 14.8929 18.1227L15.4029 14.5527C11.7649 14.8927 9.04492 16.2527 9.04492 17.8507C9.04492 18.5647 9.58892 19.2447 10.5409 19.7887C12.0369 20.6387 14.4849 21.2167 17.2389 21.2167C19.9929 21.2167 22.4409 20.6387 23.9369 19.7887C24.8889 19.2447 25.4329 18.5647 25.4329 17.8507C25.4329 16.2527 22.7129 14.8927 19.0749 14.5527Z" fill="url(#paint3_radial_1169_20204)"/>
<path d="M12.207 12.308C12.547 12.308 12.819 12.172 13.057 11.968H16.117L15.981 12.886L15.879 13.634L15.845 13.94L15.743 14.552L15.233 18.19C15.233 18.462 16.627 18.904 17.239 18.904C17.851 18.904 19.245 18.462 19.245 18.156L18.735 14.552L18.633 13.94L18.599 13.634L18.497 12.954V12.886L18.361 12.002H21.761C21.999 12.206 22.271 12.342 22.611 12.342C23.291 12.342 23.869 11.764 23.869 11.084C23.869 10.404 23.291 9.82605 22.611 9.82605C22.271 9.82605 21.999 9.96205 21.761 10.166H18.09L18.022 9.69005C18.09 9.65605 18.124 9.65605 18.192 9.62205C18.26 9.58805 18.294 9.58805 18.362 9.55405C18.7556 9.35302 19.0853 9.0459 19.3136 8.66739C19.5419 8.28887 19.6598 7.85405 19.654 7.41205C19.6516 6.77254 19.3965 6.15991 18.9443 5.70771C18.4921 5.25551 17.8795 5.00042 17.24 4.99805C16.6004 5.00042 15.9878 5.25551 15.5356 5.70771C15.0834 6.15991 14.8283 6.77254 14.826 7.41205C14.826 8.33005 15.37 9.14605 16.118 9.55405C16.186 9.58805 16.22 9.62205 16.288 9.62205C16.356 9.65605 16.39 9.65605 16.458 9.69005L16.39 10.166H13.058C12.82 9.96205 12.548 9.82605 12.208 9.82605C11.528 9.82605 10.95 10.404 10.95 11.084C10.95 11.73 11.528 12.308 12.208 12.308M18.804 7.17405C18.804 7.17405 18.668 6.86805 18.09 6.35805C17.784 6.05205 17.24 5.74605 17.24 5.74605C17.6359 5.73131 18.0217 5.87276 18.3143 6.13989C18.6068 6.40702 18.7827 6.77844 18.804 7.17405Z" fill="#F8043F"/>
<path style="mix-blend-mode:multiply" d="M12.207 12.308C12.547 12.308 12.819 12.172 13.057 11.968H16.117L15.981 12.886L15.879 13.634L15.845 13.94L15.743 14.552L15.233 18.19C15.233 18.462 16.627 18.904 17.239 18.904C17.851 18.904 19.245 18.462 19.245 18.156L18.735 14.552L18.633 13.94L18.599 13.634L18.497 12.954V12.886L18.361 12.002H21.761C21.999 12.206 22.271 12.342 22.611 12.342C23.291 12.342 23.869 11.764 23.869 11.084C23.869 10.404 23.291 9.82605 22.611 9.82605C22.271 9.82605 21.999 9.96205 21.761 10.166H18.09L18.022 9.69005C18.09 9.65605 18.124 9.65605 18.192 9.62205C18.26 9.58805 18.294 9.58805 18.362 9.55405C18.7556 9.35302 19.0853 9.0459 19.3136 8.66739C19.5419 8.28887 19.6598 7.85405 19.654 7.41205C19.6516 6.77254 19.3965 6.15991 18.9443 5.70771C18.4921 5.25551 17.8795 5.00042 17.24 4.99805C16.6004 5.00042 15.9878 5.25551 15.5356 5.70771C15.0834 6.15991 14.8283 6.77254 14.826 7.41205C14.826 8.33005 15.37 9.14605 16.118 9.55405C16.186 9.58805 16.22 9.62205 16.288 9.62205C16.356 9.65605 16.39 9.65605 16.458 9.69005L16.39 10.166H13.058C12.82 9.96205 12.548 9.82605 12.208 9.82605C11.528 9.82605 10.95 10.404 10.95 11.084C10.95 11.73 11.528 12.308 12.208 12.308M18.804 7.17405C18.804 7.17405 18.668 6.86805 18.09 6.35805C17.784 6.05205 17.24 5.74605 17.24 5.74605C17.6359 5.73131 18.0217 5.87276 18.3143 6.13989C18.6068 6.40702 18.7827 6.77844 18.804 7.17405Z" fill="url(#paint4_radial_1169_20204)"/>
<path style="mix-blend-mode:screen" d="M12.207 12.308C12.547 12.308 12.819 12.172 13.057 11.968H16.117L15.981 12.886L15.879 13.634L15.845 13.94L15.743 14.552L15.233 18.19C15.233 18.462 16.627 18.904 17.239 18.904C17.851 18.904 19.245 18.462 19.245 18.156L18.735 14.552L18.633 13.94L18.599 13.634L18.497 12.954V12.886L18.361 12.002H21.761C21.999 12.206 22.271 12.342 22.611 12.342C23.291 12.342 23.869 11.764 23.869 11.084C23.869 10.404 23.291 9.82605 22.611 9.82605C22.271 9.82605 21.999 9.96205 21.761 10.166H18.09L18.022 9.69005C18.09 9.65605 18.124 9.65605 18.192 9.62205C18.26 9.58805 18.294 9.58805 18.362 9.55405C18.7556 9.35302 19.0853 9.0459 19.3136 8.66739C19.5419 8.28887 19.6598 7.85405 19.654 7.41205C19.6516 6.77254 19.3965 6.15991 18.9443 5.70771C18.4921 5.25551 17.8795 5.00042 17.24 4.99805C16.6004 5.00042 15.9878 5.25551 15.5356 5.70771C15.0834 6.15991 14.8283 6.77254 14.826 7.41205C14.826 8.33005 15.37 9.14605 16.118 9.55405C16.186 9.58805 16.22 9.62205 16.288 9.62205C16.356 9.65605 16.39 9.65605 16.458 9.69005L16.39 10.166H13.058C12.82 9.96205 12.548 9.82605 12.208 9.82605C11.528 9.82605 10.95 10.404 10.95 11.084C10.95 11.73 11.528 12.308 12.208 12.308M18.804 7.17405C18.804 7.17405 18.668 6.86805 18.09 6.35805C17.784 6.05205 17.24 5.74605 17.24 5.74605C17.6359 5.73131 18.0217 5.87276 18.3143 6.13989C18.6068 6.40702 18.7827 6.77844 18.804 7.17405Z" fill="url(#paint5_radial_1169_20204)"/>
<defs>
<radialGradient id="paint0_radial_1169_20204" cx="0" cy="0" r="1" gradientUnits="userSpaceOnUse" gradientTransform="translate(29.8401 10.0905) rotate(113.693) scale(11.7226 14.7212)">
<stop stop-color="#F2B03B"/>
<stop offset="1" stop-color="#F2B03B" stop-opacity="0"/>
</radialGradient>
<radialGradient id="paint1_radial_1169_20204" cx="0" cy="0" r="1" gradientUnits="userSpaceOnUse" gradientTransform="translate(6.19162 12.1) rotate(-57.535) scale(11.0142 6.46313)">
<stop stop-color="#FFBF4A"/>
<stop offset="1" stop-color="#EAA730" stop-opacity="0"/>
</radialGradient>
<radialGradient id="paint2_radial_1169_20204" cx="0" cy="0" r="1" gradientUnits="userSpaceOnUse" gradientTransform="translate(24.0509 13.4097) rotate(120.112) scale(5.13122 7.59982)">
<stop stop-color="#F2B03B"/>
<stop offset="1" stop-color="#F2B03B" stop-opacity="0"/>
</radialGradient>
<radialGradient id="paint3_radial_1169_20204" cx="0" cy="0" r="1" gradientUnits="userSpaceOnUse" gradientTransform="translate(11.1269 14.2407) rotate(-49.9419) scale(5.02046 3.20412)">
<stop stop-color="#FFBF4A"/>
<stop offset="1" stop-color="#EAA730" stop-opacity="0"/>
</radialGradient>
<radialGradient id="paint4_radial_1169_20204" cx="0" cy="0" r="1" gradientUnits="userSpaceOnUse" gradientTransform="translate(22.78 2.61401) rotate(102.359) scale(9.48221 6.76578)">
<stop stop-color="#F2B03B"/>
<stop offset="1" stop-color="#F2B03B" stop-opacity="0"/>
</radialGradient>
<radialGradient id="paint5_radial_1169_20204" cx="0" cy="0" r="1" gradientUnits="userSpaceOnUse" gradientTransform="translate(12.59 4.34805) rotate(-72.3765) scale(8.41339 3.14546)">
<stop stop-color="#FFBF4A"/>
<stop offset="1" stop-color="#EAA730" stop-opacity="0"/>
</radialGradient>
</defs>
</svg>
