<svg width="16" height="21" viewBox="0 0 16 21" fill="none" xmlns="http://www.w3.org/2000/svg">
<path d="M6.151 13.7747L6.142 13.7537C6.0068 13.7168 5.87274 13.6758 5.74 13.6307L5.73 13.6267C4.34856 13.1541 3.14948 12.2613 2.30062 11.0734C1.45176 9.88545 0.9956 8.46181 0.996 7.00175C0.995554 5.20986 1.6823 3.48602 2.91479 2.18531C4.14728 0.884601 5.83165 0.106065 7.62097 0.0100618C9.41028 -0.085941 11.1683 0.5079 12.5329 1.66927C13.8975 2.83064 14.7647 4.4711 14.956 6.25275C15 6.66475 14.66 7.00175 14.246 7.00175C13.832 7.00175 13.501 6.66375 13.446 6.25375C13.313 5.28602 12.9247 4.37116 12.321 3.60319C11.7173 2.83523 10.9201 2.24186 10.0111 1.88407C9.10217 1.52629 8.11435 1.41698 7.14917 1.5674C6.18399 1.71782 5.27627 2.12253 4.5193 2.73993C3.76234 3.35734 3.18342 4.16518 2.84206 5.08042C2.5007 5.99566 2.40921 6.98529 2.57698 7.94761C2.74475 8.90992 3.16574 9.8102 3.79669 10.5559C4.42763 11.3017 5.24576 11.8659 6.167 12.1907C6.35258 11.7713 6.67671 11.4283 7.08506 11.2194C7.49341 11.0105 7.96117 10.9483 8.40993 11.0432C8.85869 11.1382 9.26118 11.3845 9.54994 11.7408C9.83871 12.0972 9.99619 12.5421 9.996 13.0007C9.99646 13.463 9.83678 13.9112 9.54411 14.269C9.25144 14.6268 8.84386 14.8722 8.39068 14.9634C7.93751 15.0547 7.46672 14.9861 7.0584 14.7694C6.65008 14.5527 6.32943 14.2012 6.151 13.7747ZM5.126 15.0047C3.94694 14.5813 2.87606 13.9024 1.99 13.0167C1.44214 13.0805 0.936774 13.3432 0.569906 13.7551C0.203038 14.1669 0.000227318 14.6992 0 15.2507V16.1707C0 16.7428 0.178 17.3007 0.51 17.7667C2.052 19.9307 4.576 21.0017 7.996 21.0017C11.416 21.0017 13.941 19.9297 15.486 17.7667C15.8195 17.3003 15.9989 16.7412 15.999 16.1677V15.2497C15.999 14.6534 15.7622 14.0814 15.3407 13.6595C14.9192 13.2376 14.3474 13.0003 13.751 12.9997H11.496C11.4962 13.7446 11.2587 14.4701 10.8181 15.0707C10.3775 15.6713 9.75687 16.1156 9.04635 16.3392C8.33583 16.5627 7.57252 16.5537 6.86746 16.3135C6.16239 16.0734 5.55233 15.6155 5.126 15.0047ZM11.996 7.00175C11.996 6.41718 11.8679 5.83971 11.6206 5.30999C11.3734 4.78028 11.0131 4.31119 10.565 3.93575C10.1491 3.58782 9.66674 3.32809 9.14732 3.17235C8.6279 3.01661 8.08223 2.96811 7.54349 3.0298C7.00474 3.09148 6.48416 3.26207 6.01339 3.53118C5.54261 3.8003 5.13147 4.16233 4.80495 4.59527C4.47843 5.02821 4.24335 5.52302 4.11399 6.04963C3.98463 6.57624 3.9637 7.12366 4.05247 7.65861C4.14123 8.19356 4.33784 8.70488 4.63035 9.16149C4.92286 9.6181 5.30515 10.0105 5.754 10.3147C6.38311 9.78964 7.17654 9.50193 7.996 9.50175C8.849 9.50175 9.631 9.80675 10.239 10.3147C10.7803 9.94815 11.2235 9.45447 11.5298 8.87691C11.8361 8.29934 11.9962 7.65551 11.996 7.00175Z" fill="#726D7E"/>
</svg>
