<svg width="18" height="18" viewBox="0 0 18 18" fill="none" xmlns="http://www.w3.org/2000/svg">
<path d="M10.0604 9.00016L14.0302 5.03039C14.3234 4.73789 14.3234 4.26244 14.0302 3.96994C13.7369 3.67669 13.2629 3.67669 12.9697 3.96994L8.99994 7.93966L5.03019 3.96994C4.73694 3.67669 4.26294 3.67669 3.96969 3.96994C3.67644 4.26244 3.67644 4.73789 3.96969 5.03039L7.93944 9.00016L3.96969 12.9699C3.67644 13.2624 3.67644 13.7379 3.96969 14.0304C4.11594 14.1766 4.30794 14.2502 4.49994 14.2502C4.69194 14.2502 4.88394 14.1766 5.03019 14.0304L8.99994 10.0607L12.9697 14.0304C13.1159 14.1766 13.3079 14.2502 13.4999 14.2502C13.6919 14.2502 13.8839 14.1766 14.0302 14.0304C14.3234 13.7379 14.3234 13.2624 14.0302 12.9699L10.0604 9.00016Z" fill="#7A97A7"/>
</svg>
