<svg width="34" height="34" viewBox="0 0 34 34" fill="none" xmlns="http://www.w3.org/2000/svg">
<path fill-rule="evenodd" clip-rule="evenodd" d="M29.892 11.3401C29.8068 11.3354 29.7214 11.3334 29.636 11.3341H26.059C23.129 11.3341 20.623 13.6401 20.623 16.6461C20.623 19.6521 23.131 21.9591 26.059 21.9591H29.636C29.7267 21.9591 29.8127 21.9571 29.894 21.9531C30.4958 21.916 31.0636 21.6617 31.4921 21.2377C31.9206 20.8136 32.1806 20.2484 32.224 19.6471C32.23 19.5621 32.23 19.4691 32.23 19.3841V13.9081C32.23 13.8231 32.23 13.7301 32.224 13.6461C32.1817 13.044 31.9217 12.4779 31.4926 12.0534C31.0635 11.6289 30.4946 11.375 29.892 11.3391M25.746 18.0621C26.499 18.0621 27.11 17.4271 27.11 16.6451C27.11 15.8631 26.5 15.2281 25.746 15.2281C24.992 15.2281 24.38 15.8631 24.38 16.6451C24.38 17.4271 24.99 18.0621 25.746 18.0621Z" fill="#F8043F"/>
<path style="mix-blend-mode:multiply" fill-rule="evenodd" clip-rule="evenodd" d="M29.892 11.3401C29.8068 11.3354 29.7214 11.3334 29.636 11.3341H26.059C23.129 11.3341 20.623 13.6401 20.623 16.6461C20.623 19.6521 23.131 21.9591 26.059 21.9591H29.636C29.7267 21.9591 29.8127 21.9571 29.894 21.9531C30.4958 21.916 31.0636 21.6617 31.4921 21.2377C31.9206 20.8136 32.1806 20.2484 32.224 19.6471C32.23 19.5621 32.23 19.4691 32.23 19.3841V13.9081C32.23 13.8231 32.23 13.7301 32.224 13.6461C32.1817 13.044 31.9217 12.4779 31.4926 12.0534C31.0635 11.6289 30.4946 11.375 29.892 11.3391M25.746 18.0621C26.499 18.0621 27.11 17.4271 27.11 16.6451C27.11 15.8631 26.5 15.2281 25.746 15.2281C24.992 15.2281 24.38 15.8631 24.38 16.6451C24.38 17.4271 24.99 18.0621 25.746 18.0621Z" fill="url(#paint0_radial_1169_20173)"/>
<path style="mix-blend-mode:screen" fill-rule="evenodd" clip-rule="evenodd" d="M29.892 11.3401C29.8068 11.3354 29.7214 11.3334 29.636 11.3341H26.059C23.129 11.3341 20.623 13.6401 20.623 16.6461C20.623 19.6521 23.131 21.9591 26.059 21.9591H29.636C29.7267 21.9591 29.8127 21.9571 29.894 21.9531C30.4958 21.916 31.0636 21.6617 31.4921 21.2377C31.9206 20.8136 32.1806 20.2484 32.224 19.6471C32.23 19.5621 32.23 19.4691 32.23 19.3841V13.9081C32.23 13.8231 32.23 13.7301 32.224 13.6461C32.1817 13.044 31.9217 12.4779 31.4926 12.0534C31.0635 11.6289 30.4946 11.375 29.892 11.3391M25.746 18.0621C26.499 18.0621 27.11 17.4271 27.11 16.6451C27.11 15.8631 26.5 15.2281 25.746 15.2281C24.992 15.2281 24.38 15.8631 24.38 16.6451C24.38 17.4271 24.99 18.0621 25.746 18.0621Z" fill="url(#paint1_radial_1169_20173)"/>
<path fill-rule="evenodd" clip-rule="evenodd" d="M29.635 24.083C29.6839 24.0813 29.7325 24.0911 29.7769 24.1117C29.8213 24.1322 29.8603 24.1628 29.8908 24.2011C29.9212 24.2394 29.9422 24.2843 29.9522 24.3323C29.9621 24.3802 29.9607 24.4297 29.948 24.477C29.664 25.486 29.212 26.347 28.488 27.07C27.428 28.132 26.083 28.601 24.423 28.825C22.808 29.042 20.746 29.042 18.143 29.042H15.15C12.547 29.042 10.484 29.042 8.86998 28.825C7.20998 28.601 5.86598 28.131 4.80498 27.071C3.74498 26.01 3.27498 24.666 3.05098 23.005C2.83398 21.39 2.83398 19.329 2.83398 16.725V16.566C2.83398 13.963 2.83398 11.9 3.05098 10.285C3.27498 8.625 3.74498 7.28 4.80498 6.219C5.86498 5.158 7.20998 4.69 8.86998 4.465C10.485 4.25 12.547 4.25 15.15 4.25H18.142C20.746 4.25 22.809 4.25 24.422 4.467C26.082 4.691 27.427 5.161 28.488 6.221C29.212 6.946 29.664 7.806 29.948 8.815C29.9607 8.86229 29.9622 8.91192 29.9522 8.95987C29.9422 9.00782 29.9211 9.05275 29.8905 9.09101C29.8599 9.12928 29.8208 9.15981 29.7762 9.18013C29.7316 9.20046 29.6829 9.21 29.634 9.208H26.06C22.04 9.208 18.5 12.382 18.5 16.646C18.5 20.91 22.04 24.083 26.06 24.083H29.635ZM8.14498 9.917C7.86319 9.917 7.59294 10.0289 7.39368 10.2282C7.19443 10.4275 7.08248 10.6977 7.08248 10.9795C7.08248 11.2613 7.19443 11.5315 7.39368 11.7308C7.59294 11.9301 7.86319 12.042 8.14498 12.042H13.812C14.0881 12.0335 14.3501 11.9179 14.5425 11.7195C14.7348 11.5212 14.8424 11.2558 14.8424 10.9795C14.8424 10.7032 14.7348 10.4378 14.5425 10.2395C14.3501 10.0411 14.0881 9.92547 13.812 9.917H8.14498Z" fill="#F8043F"/>
<path style="mix-blend-mode:multiply" fill-rule="evenodd" clip-rule="evenodd" d="M29.635 24.083C29.6839 24.0813 29.7325 24.0911 29.7769 24.1117C29.8213 24.1322 29.8603 24.1628 29.8908 24.2011C29.9212 24.2394 29.9422 24.2843 29.9522 24.3323C29.9621 24.3802 29.9607 24.4297 29.948 24.477C29.664 25.486 29.212 26.347 28.488 27.07C27.428 28.132 26.083 28.601 24.423 28.825C22.808 29.042 20.746 29.042 18.143 29.042H15.15C12.547 29.042 10.484 29.042 8.86998 28.825C7.20998 28.601 5.86598 28.131 4.80498 27.071C3.74498 26.01 3.27498 24.666 3.05098 23.005C2.83398 21.39 2.83398 19.329 2.83398 16.725V16.566C2.83398 13.963 2.83398 11.9 3.05098 10.285C3.27498 8.625 3.74498 7.28 4.80498 6.219C5.86498 5.158 7.20998 4.69 8.86998 4.465C10.485 4.25 12.547 4.25 15.15 4.25H18.142C20.746 4.25 22.809 4.25 24.422 4.467C26.082 4.691 27.427 5.161 28.488 6.221C29.212 6.946 29.664 7.806 29.948 8.815C29.9607 8.86229 29.9622 8.91192 29.9522 8.95987C29.9422 9.00782 29.9211 9.05275 29.8905 9.09101C29.8599 9.12928 29.8208 9.15981 29.7762 9.18013C29.7316 9.20046 29.6829 9.21 29.634 9.208H26.06C22.04 9.208 18.5 12.382 18.5 16.646C18.5 20.91 22.04 24.083 26.06 24.083H29.635ZM8.14498 9.917C7.86319 9.917 7.59294 10.0289 7.39368 10.2282C7.19443 10.4275 7.08248 10.6977 7.08248 10.9795C7.08248 11.2613 7.19443 11.5315 7.39368 11.7308C7.59294 11.9301 7.86319 12.042 8.14498 12.042H13.812C14.0881 12.0335 14.3501 11.9179 14.5425 11.7195C14.7348 11.5212 14.8424 11.2558 14.8424 10.9795C14.8424 10.7032 14.7348 10.4378 14.5425 10.2395C14.3501 10.0411 14.0881 9.92547 13.812 9.917H8.14498Z" fill="url(#paint2_radial_1169_20173)"/>
<path style="mix-blend-mode:screen" fill-rule="evenodd" clip-rule="evenodd" d="M29.635 24.083C29.6839 24.0813 29.7325 24.0911 29.7769 24.1117C29.8213 24.1322 29.8603 24.1628 29.8908 24.2011C29.9212 24.2394 29.9422 24.2843 29.9522 24.3323C29.9621 24.3802 29.9607 24.4297 29.948 24.477C29.664 25.486 29.212 26.347 28.488 27.07C27.428 28.132 26.083 28.601 24.423 28.825C22.808 29.042 20.746 29.042 18.143 29.042H15.15C12.547 29.042 10.484 29.042 8.86998 28.825C7.20998 28.601 5.86598 28.131 4.80498 27.071C3.74498 26.01 3.27498 24.666 3.05098 23.005C2.83398 21.39 2.83398 19.329 2.83398 16.725V16.566C2.83398 13.963 2.83398 11.9 3.05098 10.285C3.27498 8.625 3.74498 7.28 4.80498 6.219C5.86498 5.158 7.20998 4.69 8.86998 4.465C10.485 4.25 12.547 4.25 15.15 4.25H18.142C20.746 4.25 22.809 4.25 24.422 4.467C26.082 4.691 27.427 5.161 28.488 6.221C29.212 6.946 29.664 7.806 29.948 8.815C29.9607 8.86229 29.9622 8.91192 29.9522 8.95987C29.9422 9.00782 29.9211 9.05275 29.8905 9.09101C29.8599 9.12928 29.8208 9.15981 29.7762 9.18013C29.7316 9.20046 29.6829 9.21 29.634 9.208H26.06C22.04 9.208 18.5 12.382 18.5 16.646C18.5 20.91 22.04 24.083 26.06 24.083H29.635ZM8.14498 9.917C7.86319 9.917 7.59294 10.0289 7.39368 10.2282C7.19443 10.4275 7.08248 10.6977 7.08248 10.9795C7.08248 11.2613 7.19443 11.5315 7.39368 11.7308C7.59294 11.9301 7.86319 12.042 8.14498 12.042H13.812C14.0881 12.0335 14.3501 11.9179 14.5425 11.7195C14.7348 11.5212 14.8424 11.2558 14.8424 10.9795C14.8424 10.7032 14.7348 10.4378 14.5425 10.2395C14.3501 10.0411 14.0881 9.92547 13.812 9.917H8.14498Z" fill="url(#paint3_radial_1169_20173)"/>
<defs>
<radialGradient id="paint0_radial_1169_20173" cx="0" cy="0" r="1" gradientUnits="userSpaceOnUse" gradientTransform="translate(31.2514 9.51115) rotate(104.446) scale(7.30846 6.02554)">
<stop stop-color="#F2B03B"/>
<stop offset="1" stop-color="#F2B03B" stop-opacity="0"/>
</radialGradient>
<radialGradient id="paint1_radial_1169_20173" cx="0" cy="0" r="1" gradientUnits="userSpaceOnUse" gradientTransform="translate(22.098 10.8361) rotate(-69.5198) scale(6.54029 2.7775)">
<stop stop-color="#FFBF4A"/>
<stop offset="1" stop-color="#EAA730" stop-opacity="0"/>
</radialGradient>
<radialGradient id="paint2_radial_1169_20173" cx="0" cy="0" r="1" gradientUnits="userSpaceOnUse" gradientTransform="translate(27.6718 -0.0001965) rotate(104.468) scale(17.054 14.0801)">
<stop stop-color="#F2B03B"/>
<stop offset="1" stop-color="#F2B03B" stop-opacity="0"/>
</radialGradient>
<radialGradient id="paint3_radial_1169_20173" cx="0" cy="0" r="1" gradientUnits="userSpaceOnUse" gradientTransform="translate(6.28017 3.09053) rotate(-69.49) scale(15.263 6.48966)">
<stop stop-color="#FF4A4A"/>
<stop offset="1" stop-color="#EA3030" stop-opacity="0"/>
</radialGradient>
</defs>
</svg>
