<svg width="23" height="24" viewBox="0 0 23 24" fill="none" xmlns="http://www.w3.org/2000/svg">
<path fill-rule="evenodd" clip-rule="evenodd" d="M11.5 23.25C17.7375 23.25 22.75 18.2375 22.75 12C22.75 5.7625 17.7375 0.75 11.5 0.75C5.2625 0.75 0.25 5.7625 0.25 12C0.25 18.2375 5.2625 23.25 11.5 23.25ZM14.5938 13.7775C14.5938 12.14 13.61 11.5775 11.6412 11.345C10.235 11.155 9.95375 10.7825 9.95375 10.1225C9.95375 9.46875 10.425 9.0475 11.36 9.0475C12.2037 9.0475 12.675 9.3275 12.9062 10.0312C12.9563 10.1713 13.0963 10.2625 13.2375 10.2625H13.9825C14.0257 10.2639 14.0687 10.2565 14.1089 10.2407C14.1491 10.225 14.1858 10.2013 14.2166 10.1711C14.2475 10.1408 14.2718 10.1047 14.2883 10.0647C14.3048 10.0248 14.313 9.98194 14.3125 9.93875V9.89C14.1225 8.85625 13.2787 7.8725 12.2037 7.78125V6.7475C12.2037 6.5575 12.0625 6.41625 11.8313 6.375H11.2125C11.0225 6.375 10.8462 6.515 10.7975 6.7475V7.78125C9.39125 7.97 8.45625 9.04625 8.45625 10.22C8.45625 11.7675 9.39125 12.3725 11.36 12.6112C12.675 12.8425 13.0975 13.1238 13.0975 13.8763C13.0975 14.6225 12.435 15.1425 11.55 15.1425C10.325 15.1425 9.905 14.6225 9.76375 13.9187C9.72125 13.7362 9.58125 13.6375 9.44 13.6375H8.63875C8.59556 13.637 8.55271 13.6452 8.51278 13.6617C8.47285 13.6782 8.43667 13.7025 8.40642 13.7334C8.37617 13.7642 8.35247 13.8008 8.33676 13.8411C8.32105 13.8813 8.31365 13.9243 8.315 13.9675V14.0175C8.4975 15.185 9.25 15.9862 10.7975 16.2175V17.2588C10.7975 17.4488 10.9375 17.575 11.17 17.625H11.845C12.0275 17.625 12.155 17.4975 12.2037 17.2588V16.2175C13.61 15.9862 14.5938 15.0437 14.5938 13.7775ZM6.76625 17.2812C7.44642 17.9039 8.24293 18.3861 9.11 18.7C9.25 18.7987 9.39125 18.9813 9.39125 19.1225V19.7825C9.39125 19.8738 9.39125 19.9237 9.34125 19.965C9.3 20.155 9.11 20.2463 8.92 20.155C7.21454 19.6112 5.72616 18.5393 4.67 17.094C3.61384 15.6487 3.04463 13.905 3.04463 12.115C3.04463 10.325 3.61384 8.58127 4.67 7.136C5.72616 5.69073 7.21454 4.61875 8.92 4.075C8.97 4.0325 9.06 4.0325 9.11 4.0325C9.3 4.075 9.39125 4.21625 9.39125 4.405V5.06C9.39125 5.2975 9.3 5.43875 9.11 5.53C8.15128 5.87606 7.28059 6.42912 6.55985 7.14986C5.83912 7.87059 5.28606 8.74128 4.94 9.7C4.45629 11.002 4.37155 12.4185 4.69661 13.7689C5.02167 15.1192 5.74178 16.342 6.765 17.2812M13.6575 4.265C13.7 4.075 13.89 3.98375 14.08 4.075C15.369 4.49343 16.5393 5.21401 17.4932 6.17663C18.4471 7.13925 19.157 8.31601 19.5638 9.60875C20.97 14.0588 18.53 18.7987 14.08 20.205C14.03 20.2462 13.9387 20.2463 13.89 20.2463C13.7 20.205 13.6088 20.0637 13.6088 19.8737V19.22C13.6088 18.9812 13.7 18.8412 13.89 18.7488C14.8484 18.4027 15.7187 17.8497 16.4392 17.1292C17.1597 16.4087 17.7127 15.5384 18.0588 14.58C18.3804 13.7157 18.5276 12.7962 18.4919 11.8747C18.4561 10.9531 18.2382 10.0478 17.8506 9.21096C17.4629 8.37414 16.9134 7.62241 16.2336 6.9992C15.5538 6.37598 14.7573 5.89363 13.89 5.58C13.7487 5.48125 13.6088 5.29875 13.6088 5.10875V4.455C13.6088 4.35625 13.6088 4.31375 13.6588 4.265" fill="#53AE94"/>
</svg>
