<svg width="30" height="30" viewBox="0 0 30 30" fill="none" xmlns="http://www.w3.org/2000/svg">
<circle cx="13" cy="15" r="9.375" fill="#D9D9D9"/>
<path fill-rule="evenodd" clip-rule="evenodd" d="M13 26.25C19.2375 26.25 24.25 21.2375 24.25 15C24.25 8.7625 19.2375 3.75 13 3.75C6.7625 3.75 1.75 8.7625 1.75 15C1.75 21.2375 6.7625 26.25 13 26.25ZM16.0938 16.7775C16.0938 15.14 15.11 14.5775 13.1412 14.345C11.735 14.155 11.4537 13.7825 11.4537 13.1225C11.4537 12.4688 11.925 12.0475 12.86 12.0475C13.7037 12.0475 14.175 12.3275 14.4062 13.0312C14.4563 13.1713 14.5963 13.2625 14.7375 13.2625H15.4825C15.5257 13.2639 15.5687 13.2565 15.6089 13.2407C15.6491 13.225 15.6858 13.2013 15.7166 13.1711C15.7475 13.1408 15.7718 13.1047 15.7883 13.0647C15.8048 13.0248 15.813 12.9819 15.8125 12.9387V12.89C15.6225 11.8563 14.7787 10.8725 13.7037 10.7812V9.7475C13.7037 9.5575 13.5625 9.41625 13.3313 9.375H12.7125C12.5225 9.375 12.3462 9.515 12.2975 9.7475V10.7812C10.8912 10.97 9.95625 12.0463 9.95625 13.22C9.95625 14.7675 10.8912 15.3725 12.86 15.6112C14.175 15.8425 14.5975 16.1238 14.5975 16.8763C14.5975 17.6225 13.935 18.1425 13.05 18.1425C11.825 18.1425 11.405 17.6225 11.2638 16.9187C11.2213 16.7362 11.0813 16.6375 10.94 16.6375H10.1388C10.0956 16.637 10.0527 16.6452 10.0128 16.6617C9.97285 16.6782 9.93667 16.7025 9.90642 16.7334C9.87617 16.7642 9.85247 16.8008 9.83676 16.8411C9.82105 16.8813 9.81365 16.9243 9.815 16.9675V17.0175C9.9975 18.185 10.75 18.9862 12.2975 19.2175V20.2588C12.2975 20.4488 12.4375 20.575 12.67 20.625H13.345C13.5275 20.625 13.655 20.4975 13.7037 20.2588V19.2175C15.11 18.9862 16.0938 18.0437 16.0938 16.7775ZM8.26625 20.2812C8.94642 20.9039 9.74293 21.3861 10.61 21.7C10.75 21.7987 10.8912 21.9813 10.8912 22.1225V22.7825C10.8912 22.8738 10.8912 22.9237 10.8412 22.965C10.8 23.155 10.61 23.2463 10.42 23.155C8.71454 22.6112 7.22616 21.5393 6.17 20.094C5.11384 18.6487 4.54463 16.905 4.54463 15.115C4.54463 13.325 5.11384 11.5813 6.17 10.136C7.22616 8.69073 8.71454 7.61875 10.42 7.075C10.47 7.0325 10.56 7.0325 10.61 7.0325C10.8 7.075 10.8912 7.21625 10.8912 7.405V8.06C10.8912 8.2975 10.8 8.43875 10.61 8.53C9.65128 8.87606 8.78059 9.42912 8.05985 10.1499C7.33912 10.8706 6.78606 11.7413 6.44 12.7C5.95629 14.002 5.87155 15.4185 6.19661 16.7689C6.52167 18.1192 7.24178 19.342 8.265 20.2812M15.1575 7.265C15.2 7.075 15.39 6.98375 15.58 7.075C16.869 7.49343 18.0393 8.21401 18.9932 9.17663C19.9471 10.1392 20.657 11.316 21.0638 12.6087C22.47 17.0588 20.03 21.7987 15.58 23.205C15.53 23.2462 15.4387 23.2463 15.39 23.2463C15.2 23.205 15.1088 23.0637 15.1088 22.8737V22.22C15.1088 21.9812 15.2 21.8412 15.39 21.7488C16.3484 21.4027 17.2187 20.8497 17.9392 20.1292C18.6597 19.4087 19.2127 18.5384 19.5588 17.58C19.8804 16.7157 20.0276 15.7962 19.9919 14.8747C19.9561 13.9531 19.7382 13.0478 19.3506 12.211C18.9629 11.3741 18.4134 10.6224 17.7336 9.9992C17.0538 9.37598 16.2573 8.89363 15.39 8.58C15.2487 8.48125 15.1088 8.29875 15.1088 8.10875V7.455C15.1088 7.35625 15.1088 7.31375 15.1588 7.265" fill="#53AE94"/>
</svg>
