<svg width="24" height="24" viewBox="0 0 24 24" fill="none" xmlns="http://www.w3.org/2000/svg">
<path fill-rule="evenodd" clip-rule="evenodd" d="M8 2C7.116 2 6.268 2.362 5.643 3.007C5.01549 3.66019 4.66565 4.53122 4.667 5.437V5.831C4.66532 6.4219 4.83255 7.00097 5.149 7.5H4C3.47 7.5 2.96 7.717 2.586 8.104C2.20911 8.4961 1.99904 9.01913 2 9.563V10.937C2 11.485 2.21 12.009 2.586 12.396C2.76916 12.5863 2.98873 12.7379 3.23164 12.8417C3.47456 12.9454 3.73586 12.9993 4 13H11.333V7.5H12.667V13H20C20.53 13 21.04 12.783 21.414 12.396C21.789 12.009 22 11.484 22 10.937V9.564C22 9.016 21.79 8.492 21.414 8.105C21.2309 7.91449 21.0114 7.76275 20.7685 7.65881C20.5256 7.55487 20.2642 7.50087 20 7.5H18.85C19.167 7.00079 19.3346 6.42134 19.333 5.83V5.437C19.333 4.526 18.983 3.651 18.357 3.007C18.0518 2.68953 17.6859 2.43675 17.2809 2.26374C16.876 2.09073 16.4404 2.00104 16 2C14.303 2 12.816 2.935 12 4.332C11.5895 3.6251 11.0032 3.03638 10.298 2.623C9.60069 2.21549 8.80766 2.00049 8 2ZM12.667 7.5H16.381C17.275 7.5 18 6.752 18 5.83V5.437C18 4.89 17.79 4.366 17.414 3.979C17.2308 3.78867 17.0113 3.63711 16.7684 3.53335C16.5254 3.42959 16.2641 3.37574 16 3.375C15.116 3.375 14.268 3.737 13.643 4.382C13.0155 5.03519 12.6656 5.90622 12.667 6.812V7.5ZM11.333 7.5H7.62C6.725 7.5 6 6.752 6 5.83V5.437C6 4.89 6.21 4.366 6.586 3.979C6.76916 3.78867 6.98873 3.63711 7.23164 3.53335C7.47456 3.42959 7.73586 3.37574 8 3.375C8.438 3.375 8.871 3.464 9.276 3.637C9.68 3.809 10.047 4.063 10.357 4.382C10.667 4.701 10.912 5.08 11.08 5.497C11.248 5.914 11.333 6.361 11.333 6.813V7.5Z" fill="#F8043F"/>
<path d="M11.308 14H3V18.667C3 19.551 3.365 20.399 4.014 21.024C4.67341 21.6532 5.5506 22.0029 6.462 22H11.308V14ZM12.692 22H17.538C18.4494 22.0029 19.3266 21.6532 19.986 21.024C20.3052 20.7198 20.5596 20.3542 20.7338 19.9491C20.9081 19.5441 20.9986 19.1079 21 18.667V14H12.692V22Z" fill="#F8043F"/>
</svg>
