<svg width="24" height="25" viewBox="0 0 24 25" fill="none" xmlns="http://www.w3.org/2000/svg">
<path d="M21.9999 8.66223V8.73476C21.9999 9.5955 21.9999 10.0259 21.7927 10.378C21.5855 10.7301 21.2093 10.9391 20.4569 11.3571L19.6636 11.7979C20.2102 9.94973 20.3926 7.96403 20.4601 6.26586C20.4629 6.19305 20.4662 6.11934 20.4695 6.04486L20.4718 5.99268C21.1231 6.21885 21.4887 6.38747 21.7168 6.70397C22 7.09681 22 7.61862 21.9999 8.66223Z" fill="#36FF8E"/>
<path d="M2 8.66236V8.73489C2.00003 9.59563 2.00004 10.026 2.20723 10.3781C2.41442 10.7302 2.79063 10.9392 3.54305 11.3572L4.33681 11.7982C3.79007 9.95003 3.60767 7.96424 3.54025 6.26599C3.53736 6.19318 3.5341 6.11947 3.53081 6.04499L3.5285 5.99268C2.87701 6.21892 2.51126 6.38754 2.2831 6.7041C1.99996 7.09694 1.99997 7.61875 2 8.66236Z" fill="#36FF8E"/>
<path fill-rule="evenodd" clip-rule="evenodd" d="M12.0002 2.5C13.7837 2.5 15.2531 2.65709 16.3771 2.84674C17.5159 3.03887 18.0852 3.13494 18.5609 3.72083C19.0367 4.30673 19.0115 4.93998 18.9612 6.20647C18.7886 10.5545 17.8503 15.9853 12.75 16.4657V20H14.1802C14.6569 20 15.0673 20.3365 15.1608 20.8039L15.35 21.75H18C18.4142 21.75 18.75 22.0858 18.75 22.5C18.75 22.9142 18.4142 23.25 18 23.25H6C5.58579 23.25 5.25 22.9142 5.25 22.5C5.25 22.0858 5.58579 21.75 6 21.75H8.65L8.83922 20.8039C8.93271 20.3365 9.34312 20 9.8198 20H11.25V16.4657C6.14996 15.9851 5.21169 10.5544 5.03907 6.20647C4.98879 4.93998 4.96365 4.30673 5.43937 3.72083C5.91508 3.13494 6.48445 3.03887 7.62318 2.84674C8.74724 2.65709 10.2166 2.5 12.0002 2.5ZM12.9524 6.69887L12.8541 6.52251C12.4741 5.84084 12.2841 5.5 12 5.5C11.7159 5.5 11.5259 5.84084 11.1459 6.52251L11.0476 6.69887C10.9397 6.89258 10.8857 6.98944 10.8015 7.05334C10.7173 7.11725 10.6125 7.14097 10.4028 7.18841L10.2119 7.23161C9.47396 7.39857 9.10501 7.48205 9.01723 7.76432C8.92945 8.04659 9.18097 8.34072 9.68403 8.92898L9.81418 9.08117C9.95713 9.24833 10.0286 9.33191 10.0608 9.43532C10.0929 9.53872 10.0821 9.65023 10.0605 9.87327L10.0408 10.0763C9.96476 10.8612 9.92674 11.2536 10.1565 11.4281C10.3864 11.6025 10.7318 11.4435 11.4227 11.1254L11.6014 11.0431C11.7978 10.9527 11.8959 10.9075 12 10.9075C12.1041 10.9075 12.2022 10.9527 12.3986 11.0431L12.5773 11.1254C13.2682 11.4435 13.6136 11.6025 13.8435 11.4281C14.0733 11.2536 14.0352 10.8612 13.9592 10.0763L13.9395 9.87327C13.9179 9.65023 13.9071 9.53872 13.9392 9.43532C13.9714 9.33191 14.0429 9.24833 14.1858 9.08117L14.316 8.92898C14.819 8.34072 15.0706 8.04659 14.9828 7.76432C14.895 7.48205 14.526 7.39857 13.7881 7.23161L13.5972 7.18841C13.3875 7.14097 13.2827 7.11725 13.1985 7.05334C13.1143 6.98944 13.0603 6.89258 12.9524 6.69887Z" fill="#36FF8E"/>
</svg>
