<svg width="24" height="24" viewBox="0 0 24 24" fill="none" xmlns="http://www.w3.org/2000/svg">
<path fill-rule="evenodd" clip-rule="evenodd" d="M7 9.39927C7 6.85368 7 5.58089 7.73223 4.79008C8.46447 3.99927 9.64298 3.99927 12 3.99927C14.357 3.99927 15.5355 3.99927 16.2678 4.79008C17 5.58089 17 6.85369 17 9.39927V16.5993C17 19.1448 17 20.4176 16.2678 21.2084C15.5355 21.9992 14.357 21.9992 12 21.9992C9.64298 21.9992 8.46447 21.9992 7.73223 21.2084C7 20.4176 7 19.1448 7 16.5992V9.39927ZM15 9.10643C15 9.59225 14.944 10.0263 14.8321 10.4085C14.7202 10.7871 14.5811 11.1515 14.4149 11.5016C14.2486 11.8517 14.0663 12.2053 13.8681 12.5625C13.6731 12.9162 13.4924 13.3056 13.3261 13.7307C13.1599 14.1522 13.0208 14.6291 12.9089 15.1613C12.797 15.69 12.741 16.3027 12.741 16.9992H10.0791C10.0791 16.4205 10.1191 15.9186 10.199 15.4936C10.2822 15.0649 10.3957 14.6844 10.5396 14.3522C10.6835 14.0164 10.8545 13.7182 11.0528 13.4574C11.2542 13.193 11.4716 12.9394 11.705 12.6965C11.9384 12.45 12.1831 12.1982 12.4388 11.941C12.6978 11.6838 12.9584 11.398 13.2206 11.0836L13.1823 11.0408C13.0448 11.1801 12.9041 11.2908 12.7602 11.373C12.6163 11.4516 12.466 11.4909 12.3094 11.4909C12.2038 11.4909 12.0871 11.4766 11.9592 11.448C11.8313 11.4194 11.705 11.3855 11.5803 11.3462C11.4556 11.3033 11.3437 11.2676 11.2446 11.239C11.1487 11.2105 11.0815 11.1962 11.0432 11.1962C10.976 11.1962 10.9089 11.2051 10.8417 11.223C10.7778 11.2408 10.717 11.2873 10.6595 11.3623C10.6051 11.4337 10.562 11.5391 10.53 11.6784C10.498 11.8177 10.482 12.0071 10.482 12.2464H9V9.10643H10.482V9.60476C10.562 9.45115 10.6835 9.31184 10.8465 9.18681C11.0096 9.06178 11.2478 8.99927 11.5612 8.99927C11.7466 8.99927 11.9241 9.02427 12.0935 9.07428C12.263 9.12072 12.4261 9.17073 12.5827 9.22432C12.7394 9.2779 12.8897 9.32791 13.0336 9.37435C13.1807 9.41722 13.3118 9.43865 13.4269 9.43865C13.5324 9.43865 13.6363 9.40829 13.7386 9.34756C13.8409 9.28326 13.9081 9.20288 13.94 9.10643H15Z" fill="#36FF8E"/>
<path d="M6 8.99951C6 7.462 6 6.34238 6.14114 5.49951H6C4.59987 5.49951 3.8998 5.49951 3.36502 5.77199C2.89462 6.01168 2.51217 6.39413 2.27248 6.86453C2 7.39931 2 8.09938 2 9.49951V16.4995C2 17.8996 2 18.5997 2.27248 19.1345C2.51217 19.6049 2.89462 19.9873 3.36502 20.227C3.8998 20.4995 4.59987 20.4995 6 20.4995H6.14114C6 19.6566 6 18.537 6 16.9995V8.99951Z" fill="#36FF8E"/>
<path d="M18 8.99949C18 7.46199 18 6.34238 17.8589 5.49951H18C19.4001 5.49951 20.1002 5.49951 20.635 5.77199C21.1054 6.01168 21.4878 6.39413 21.7275 6.86453C22 7.39931 22 8.09938 22 9.49951V16.4995C22 17.8996 22 18.5997 21.7275 19.1345C21.4878 19.6049 21.1054 19.9873 20.635 20.227C20.1002 20.4995 19.4001 20.4995 18 20.4995H17.8589C18 19.6566 18 18.537 18 16.9995V8.99949Z" fill="#36FF8E"/>
</svg>
