<svg width="14" height="16" viewBox="0 0 14 16" fill="none" xmlns="http://www.w3.org/2000/svg">
<path fill-rule="evenodd" clip-rule="evenodd" d="M0.25 8C0.25 7.40326 0.487053 6.83097 0.90901 6.40901C1.33097 5.98705 1.90326 5.75 2.5 5.75H11.5C12.0967 5.75 12.669 5.98705 13.091 6.40901C13.5129 6.83097 13.75 7.40326 13.75 8V13.25C13.75 13.8467 13.5129 14.419 13.091 14.841C12.669 15.2629 12.0967 15.5 11.5 15.5H2.5C1.90326 15.5 1.33097 15.2629 0.90901 14.841C0.487053 14.419 0.25 13.8467 0.25 13.25V8ZM7.75 9.5C7.75 9.30109 7.67098 9.11032 7.53033 8.96967C7.38968 8.82902 7.19891 8.75 7 8.75C6.80109 8.75 6.61032 8.82902 6.46967 8.96967C6.32902 9.11032 6.25 9.30109 6.25 9.5V11.75C6.25 11.9489 6.32902 12.1397 6.46967 12.2803C6.61032 12.421 6.80109 12.5 7 12.5C7.19891 12.5 7.38968 12.421 7.53033 12.2803C7.67098 12.1397 7.75 11.9489 7.75 11.75V9.5Z" fill="white"/>
<path d="M4 6.5V4.25C4 3.45435 4.31607 2.69129 4.87868 2.12868C5.44129 1.56607 6.20435 1.25 7 1.25C7.79565 1.25 8.55871 1.56607 9.12132 2.12868C9.68393 2.69129 10 3.45435 10 4.25V6.5" stroke="white" stroke-width="2" stroke-linecap="round" stroke-linejoin="round"/>
</svg>
