<svg width="34" height="34" viewBox="0 0 34 34" fill="none" xmlns="http://www.w3.org/2000/svg">
<path d="M5.86699 11.7617H8.76399C9.19099 11.7617 9.53699 12.1887 9.53699 12.5347V18.5257C9.53699 18.7307 9.45555 18.9273 9.31059 19.0723C9.16562 19.2173 8.96901 19.2987 8.76399 19.2987H5.86699C5.43999 19.2987 5.09399 18.8717 5.09399 18.5257V12.5347C5.09399 12.1077 5.43999 11.7617 5.86699 11.7617Z" fill="#F8043F"/>
<path style="mix-blend-mode:multiply" d="M5.86699 11.7617H8.76399C9.19099 11.7617 9.53699 12.1887 9.53699 12.5347V18.5257C9.53699 18.7307 9.45555 18.9273 9.31059 19.0723C9.16562 19.2173 8.96901 19.2987 8.76399 19.2987H5.86699C5.43999 19.2987 5.09399 18.8717 5.09399 18.5257V12.5347C5.09399 12.1077 5.43999 11.7617 5.86699 11.7617Z" fill="url(#paint0_radial_1169_20181)"/>
<path style="mix-blend-mode:screen" d="M5.86699 11.7617H8.76399C9.19099 11.7617 9.53699 12.1887 9.53699 12.5347V18.5257C9.53699 18.7307 9.45555 18.9273 9.31059 19.0723C9.16562 19.2173 8.96901 19.2987 8.76399 19.2987H5.86699C5.43999 19.2987 5.09399 18.8717 5.09399 18.5257V12.5347C5.09399 12.1077 5.43999 11.7617 5.86699 11.7617Z" fill="url(#paint1_radial_1169_20181)"/>
<path d="M13.0069 11.7617H15.9049C16.3319 11.7617 16.6779 12.1887 16.6779 12.5347V18.5257C16.6779 18.7307 16.5964 18.9273 16.4515 19.0723C16.3065 19.2173 16.1099 19.2987 15.9049 19.2987H13.0069C12.5809 19.2987 12.2339 18.8717 12.2339 18.5257V12.5347C12.2339 12.1077 12.5809 11.7617 13.0069 11.7617Z" fill="#F8043F"/>
<path style="mix-blend-mode:multiply" d="M13.0069 11.7617H15.9049C16.3319 11.7617 16.6779 12.1887 16.6779 12.5347V18.5257C16.6779 18.7307 16.5964 18.9273 16.4515 19.0723C16.3065 19.2173 16.1099 19.2987 15.9049 19.2987H13.0069C12.5809 19.2987 12.2339 18.8717 12.2339 18.5257V12.5347C12.2339 12.1077 12.5809 11.7617 13.0069 11.7617Z" fill="url(#paint2_radial_1169_20181)"/>
<path style="mix-blend-mode:screen" d="M13.0069 11.7617H15.9049C16.3319 11.7617 16.6779 12.1887 16.6779 12.5347V18.5257C16.6779 18.7307 16.5964 18.9273 16.4515 19.0723C16.3065 19.2173 16.1099 19.2987 15.9049 19.2987H13.0069C12.5809 19.2987 12.2339 18.8717 12.2339 18.5257V12.5347C12.2339 12.1077 12.5809 11.7617 13.0069 11.7617Z" fill="url(#paint3_radial_1169_20181)"/>
<path d="M23.924 7.56803H16.679V5.93003C16.679 5.34045 16.4447 4.77503 16.0279 4.35813C15.611 3.94124 15.0455 3.70703 14.456 3.70703C13.8664 3.70703 13.301 3.94124 12.8841 4.35813C12.4672 4.77503 12.233 5.34045 12.233 5.93003V7.56703H4.98796C4.6575 7.5801 4.34492 7.72057 4.11574 7.959C3.88655 8.19743 3.75854 8.51531 3.75854 8.84603C3.75854 9.17675 3.88655 9.49463 4.11574 9.73306C4.34492 9.97149 4.6575 10.112 4.98796 10.125H23.924C24.2632 10.125 24.5885 9.99028 24.8283 9.75042C25.0682 9.51056 25.203 9.18524 25.203 8.84603C25.203 8.50682 25.0682 8.1815 24.8283 7.94164C24.5885 7.70178 24.2632 7.56803 23.924 7.56803Z" fill="#F8043F"/>
<path style="mix-blend-mode:multiply" d="M23.924 7.56803H16.679V5.93003C16.679 5.34045 16.4447 4.77503 16.0279 4.35813C15.611 3.94124 15.0455 3.70703 14.456 3.70703C13.8664 3.70703 13.301 3.94124 12.8841 4.35813C12.4672 4.77503 12.233 5.34045 12.233 5.93003V7.56703H4.98796C4.6575 7.5801 4.34492 7.72057 4.11574 7.959C3.88655 8.19743 3.75854 8.51531 3.75854 8.84603C3.75854 9.17675 3.88655 9.49463 4.11574 9.73306C4.34492 9.97149 4.6575 10.112 4.98796 10.125H23.924C24.2632 10.125 24.5885 9.99028 24.8283 9.75042C25.0682 9.51056 25.203 9.18524 25.203 8.84603C25.203 8.50682 25.0682 8.1815 24.8283 7.94164C24.5885 7.70178 24.2632 7.56803 23.924 7.56803Z" fill="url(#paint4_radial_1169_20181)"/>
<path style="mix-blend-mode:screen" d="M23.924 7.56803H16.679V5.93003C16.679 5.34045 16.4447 4.77503 16.0279 4.35813C15.611 3.94124 15.0455 3.70703 14.456 3.70703C13.8664 3.70703 13.301 3.94124 12.8841 4.35813C12.4672 4.77503 12.233 5.34045 12.233 5.93003V7.56703H4.98796C4.6575 7.5801 4.34492 7.72057 4.11574 7.959C3.88655 8.19743 3.75854 8.51531 3.75854 8.84603C3.75854 9.17675 3.88655 9.49463 4.11574 9.73306C4.34492 9.97149 4.6575 10.112 4.98796 10.125H23.924C24.2632 10.125 24.5885 9.99028 24.8283 9.75042C25.0682 9.51056 25.203 9.18524 25.203 8.84603C25.203 8.50682 25.0682 8.1815 24.8283 7.94164C24.5885 7.70178 24.2632 7.56803 23.924 7.56803Z" fill="url(#paint5_radial_1169_20181)"/>
<path d="M20.15 11.7598H23.047C23.474 11.7598 23.82 12.1878 23.82 12.5338V18.5238C23.8201 18.6254 23.8002 18.726 23.7614 18.8199C23.7226 18.9138 23.6657 18.9991 23.5939 19.071C23.5221 19.1429 23.4368 19.1999 23.343 19.2388C23.2491 19.2777 23.1485 19.2978 23.047 19.2978H20.15C19.723 19.2978 19.377 18.8708 19.377 18.5248V12.5338C19.377 12.1068 19.723 11.7598 20.15 11.7598Z" fill="#F8043F"/>
<path style="mix-blend-mode:multiply" d="M20.15 11.7598H23.047C23.474 11.7598 23.82 12.1878 23.82 12.5338V18.5238C23.8201 18.6254 23.8002 18.726 23.7614 18.8199C23.7226 18.9138 23.6657 18.9991 23.5939 19.071C23.5221 19.1429 23.4368 19.1999 23.343 19.2388C23.2491 19.2777 23.1485 19.2978 23.047 19.2978H20.15C19.723 19.2978 19.377 18.8708 19.377 18.5248V12.5338C19.377 12.1068 19.723 11.7598 20.15 11.7598Z" fill="url(#paint6_radial_1169_20181)"/>
<path style="mix-blend-mode:screen" d="M20.15 11.7598H23.047C23.474 11.7598 23.82 12.1878 23.82 12.5338V18.5238C23.8201 18.6254 23.8002 18.726 23.7614 18.8199C23.7226 18.9138 23.6657 18.9991 23.5939 19.071C23.5221 19.1429 23.4368 19.1999 23.343 19.2388C23.2491 19.2777 23.1485 19.2978 23.047 19.2978H20.15C19.723 19.2978 19.377 18.8708 19.377 18.5248V12.5338C19.377 12.1068 19.723 11.7598 20.15 11.7598Z" fill="url(#paint7_radial_1169_20181)"/>
<path d="M24.43 20.9316H4.48198C4.27697 20.9316 4.08036 21.0131 3.93539 21.158C3.79043 21.303 3.70898 21.4996 3.70898 21.7046V29.5166C3.70898 29.9436 4.05498 30.2896 4.48198 30.2896H24.43C24.5315 30.2896 24.632 30.2696 24.7258 30.2308C24.8196 30.192 24.9048 30.135 24.9766 30.0632C25.0484 29.9915 25.1053 29.9062 25.1441 29.8125C25.183 29.7187 25.203 29.6182 25.203 29.5166V21.7046C25.203 21.6031 25.183 21.5026 25.1441 21.4088C25.1053 21.315 25.0484 21.2298 24.9766 21.158C24.9048 21.0863 24.8196 21.0293 24.7258 20.9905C24.632 20.9516 24.5315 20.9316 24.43 20.9316ZM16.655 26.6996H11.941C11.6519 26.6996 11.3747 26.5848 11.1702 26.3804C10.9658 26.176 10.851 25.8987 10.851 25.6096C10.851 25.3206 10.9658 25.0433 11.1702 24.8389C11.3747 24.6345 11.6519 24.5196 11.941 24.5196H16.655C16.9441 24.5196 17.2213 24.6345 17.4257 24.8389C17.6301 25.0433 17.745 25.3206 17.745 25.6096C17.745 25.8987 17.6301 26.176 17.4257 26.3804C17.2213 26.5848 16.9441 26.6996 16.655 26.6996Z" fill="#F8043F"/>
<path style="mix-blend-mode:multiply" d="M24.43 20.9316H4.48198C4.27697 20.9316 4.08036 21.0131 3.93539 21.158C3.79043 21.303 3.70898 21.4996 3.70898 21.7046V29.5166C3.70898 29.9436 4.05498 30.2896 4.48198 30.2896H24.43C24.5315 30.2896 24.632 30.2696 24.7258 30.2308C24.8196 30.192 24.9048 30.135 24.9766 30.0632C25.0484 29.9915 25.1053 29.9062 25.1441 29.8125C25.183 29.7187 25.203 29.6182 25.203 29.5166V21.7046C25.203 21.6031 25.183 21.5026 25.1441 21.4088C25.1053 21.315 25.0484 21.2298 24.9766 21.158C24.9048 21.0863 24.8196 21.0293 24.7258 20.9905C24.632 20.9516 24.5315 20.9316 24.43 20.9316ZM16.655 26.6996H11.941C11.6519 26.6996 11.3747 26.5848 11.1702 26.3804C10.9658 26.176 10.851 25.8987 10.851 25.6096C10.851 25.3206 10.9658 25.0433 11.1702 24.8389C11.3747 24.6345 11.6519 24.5196 11.941 24.5196H16.655C16.9441 24.5196 17.2213 24.6345 17.4257 24.8389C17.6301 25.0433 17.745 25.3206 17.745 25.6096C17.745 25.8987 17.6301 26.176 17.4257 26.3804C17.2213 26.5848 16.9441 26.6996 16.655 26.6996Z" fill="url(#paint8_radial_1169_20181)"/>
<path style="mix-blend-mode:screen" d="M24.43 20.9316H4.48198C4.27697 20.9316 4.08036 21.0131 3.93539 21.158C3.79043 21.303 3.70898 21.4996 3.70898 21.7046V29.5166C3.70898 29.9436 4.05498 30.2896 4.48198 30.2896H24.43C24.5315 30.2896 24.632 30.2696 24.7258 30.2308C24.8196 30.192 24.9048 30.135 24.9766 30.0632C25.0484 29.9915 25.1053 29.9062 25.1441 29.8125C25.183 29.7187 25.203 29.6182 25.203 29.5166V21.7046C25.203 21.6031 25.183 21.5026 25.1441 21.4088C25.1053 21.315 25.0484 21.2298 24.9766 21.158C24.9048 21.0863 24.8196 21.0293 24.7258 20.9905C24.632 20.9516 24.5315 20.9316 24.43 20.9316ZM16.655 26.6996H11.941C11.6519 26.6996 11.3747 26.5848 11.1702 26.3804C10.9658 26.176 10.851 25.8987 10.851 25.6096C10.851 25.3206 10.9658 25.0433 11.1702 24.8389C11.3747 24.6345 11.6519 24.5196 11.941 24.5196H16.655C16.9441 24.5196 17.2213 24.6345 17.4257 24.8389C17.6301 25.0433 17.745 25.3206 17.745 25.6096C17.745 25.8987 17.6301 26.176 17.4257 26.3804C17.2213 26.5848 16.9441 26.6996 16.655 26.6996Z" fill="url(#paint9_radial_1169_20181)"/>
<path d="M29.1069 20.9338H29.1049V16.5098C28.6501 16.607 28.1798 16.607 27.7249 16.5098V20.9338C27.5199 20.934 27.3233 21.0155 27.1783 21.1604C27.0332 21.3053 26.9515 21.5017 26.9509 21.7068V24.0268C26.9515 24.2316 27.0331 24.4279 27.1779 24.5728C27.3228 24.7176 27.5191 24.7992 27.7239 24.7998H29.1069C29.3119 24.7998 29.5086 24.7183 29.6535 24.5734C29.7985 24.4284 29.8799 24.2318 29.8799 24.0268V21.7068C29.8799 21.5018 29.7985 21.3051 29.6535 21.1602C29.5086 21.0152 29.3119 20.9338 29.1069 20.9338Z" fill="#F8043F"/>
<path style="mix-blend-mode:multiply" d="M29.1069 20.9338H29.1049V16.5098C28.6501 16.607 28.1798 16.607 27.7249 16.5098V20.9338C27.5199 20.934 27.3233 21.0155 27.1783 21.1604C27.0332 21.3053 26.9515 21.5017 26.9509 21.7068V24.0268C26.9515 24.2316 27.0331 24.4279 27.1779 24.5728C27.3228 24.7176 27.5191 24.7992 27.7239 24.7998H29.1069C29.3119 24.7998 29.5086 24.7183 29.6535 24.5734C29.7985 24.4284 29.8799 24.2318 29.8799 24.0268V21.7068C29.8799 21.5018 29.7985 21.3051 29.6535 21.1602C29.5086 21.0152 29.3119 20.9338 29.1069 20.9338Z" fill="url(#paint10_radial_1169_20181)"/>
<path style="mix-blend-mode:screen" d="M29.1069 20.9338H29.1049V16.5098C28.6501 16.607 28.1798 16.607 27.7249 16.5098V20.9338C27.5199 20.934 27.3233 21.0155 27.1783 21.1604C27.0332 21.3053 26.9515 21.5017 26.9509 21.7068V24.0268C26.9515 24.2316 27.0331 24.4279 27.1779 24.5728C27.3228 24.7176 27.5191 24.7992 27.7239 24.7998H29.1069C29.3119 24.7998 29.5086 24.7183 29.6535 24.5734C29.7985 24.4284 29.8799 24.2318 29.8799 24.0268V21.7068C29.8799 21.5018 29.7985 21.3051 29.6535 21.1602C29.5086 21.0152 29.3119 20.9338 29.1069 20.9338Z" fill="url(#paint11_radial_1169_20181)"/>
<path d="M30.293 13.3125C30.293 15.8105 26.543 15.8105 26.543 13.3125C26.543 10.8125 30.293 10.8125 30.293 13.3125Z" fill="#F8043F"/>
<path style="mix-blend-mode:multiply" d="M30.293 13.3125C30.293 15.8105 26.543 15.8105 26.543 13.3125C26.543 10.8125 30.293 10.8125 30.293 13.3125Z" fill="url(#paint12_radial_1169_20181)"/>
<path style="mix-blend-mode:screen" d="M30.293 13.3125C30.293 15.8105 26.543 15.8105 26.543 13.3125C26.543 10.8125 30.293 10.8125 30.293 13.3125Z" fill="url(#paint13_radial_1169_20181)"/>
<defs>
<radialGradient id="paint0_radial_1169_20181" cx="0" cy="0" r="1" gradientUnits="userSpaceOnUse" gradientTransform="translate(9.16299 10.4697) rotate(97.9155) scale(5.06853 2.35941)">
<stop stop-color="#F2B03B"/>
<stop offset="1" stop-color="#F2B03B" stop-opacity="0"/>
</radialGradient>
<radialGradient id="paint1_radial_1169_20181" cx="0" cy="0" r="1" gradientUnits="userSpaceOnUse" gradientTransform="translate(5.65818 11.4093) rotate(-78.603) scale(4.43344 1.11269)">
<stop stop-color="#FFBF4A"/>
<stop offset="1" stop-color="#EAA730" stop-opacity="0"/>
</radialGradient>
<radialGradient id="paint2_radial_1169_20181" cx="0" cy="0" r="1" gradientUnits="userSpaceOnUse" gradientTransform="translate(16.3029 10.4697) rotate(97.9155) scale(5.06853 2.35941)">
<stop stop-color="#F2B03B"/>
<stop offset="1" stop-color="#F2B03B" stop-opacity="0"/>
</radialGradient>
<radialGradient id="paint3_radial_1169_20181" cx="0" cy="0" r="1" gradientUnits="userSpaceOnUse" gradientTransform="translate(12.7986 11.4089) rotate(-78.603) scale(4.43344 1.11269)">
<stop stop-color="#FFBF4A"/>
<stop offset="1" stop-color="#EAA730" stop-opacity="0"/>
</radialGradient>
<radialGradient id="paint4_radial_1169_20181" cx="0" cy="0" r="1" gradientUnits="userSpaceOnUse" gradientTransform="translate(23.39 2.61003) rotate(128.309) scale(5.44656 9.04156)">
<stop stop-color="#F2B03B"/>
<stop offset="1" stop-color="#F2B03B" stop-opacity="0"/>
</radialGradient>
<radialGradient id="paint5_radial_1169_20181" cx="0" cy="0" r="1" gradientUnits="userSpaceOnUse" gradientTransform="translate(6.44034 3.40896) rotate(-41.124) scale(5.62549 3.61104)">
<stop stop-color="#FFBF4A"/>
<stop offset="1" stop-color="#EAA730" stop-opacity="0"/>
</radialGradient>
<radialGradient id="paint6_radial_1169_20181" cx="0" cy="0" r="1" gradientUnits="userSpaceOnUse" gradientTransform="translate(23.446 10.4688) rotate(97.9155) scale(5.06853 2.35941)">
<stop stop-color="#F2B03B"/>
<stop offset="1" stop-color="#F2B03B" stop-opacity="0"/>
</radialGradient>
<radialGradient id="paint7_radial_1169_20181" cx="0" cy="0" r="1" gradientUnits="userSpaceOnUse" gradientTransform="translate(19.9418 11.4086) rotate(-78.603) scale(4.43344 1.11269)">
<stop stop-color="#FFBF4A"/>
<stop offset="1" stop-color="#EAA730" stop-opacity="0"/>
</radialGradient>
<radialGradient id="paint8_radial_1169_20181" cx="0" cy="0" r="1" gradientUnits="userSpaceOnUse" gradientTransform="translate(23.3918 19.327) rotate(118.442) scale(7.08915 10.1318)">
<stop stop-color="#F2B03B"/>
<stop offset="1" stop-color="#F2B03B" stop-opacity="0"/>
</radialGradient>
<radialGradient id="paint9_radial_1169_20181" cx="0" cy="0" r="1" gradientUnits="userSpaceOnUse" gradientTransform="translate(6.44026 20.4938) rotate(-51.858) scale(6.86133 4.31819)">
<stop stop-color="#FFBF4A"/>
<stop offset="1" stop-color="#EAA730" stop-opacity="0"/>
</radialGradient>
<radialGradient id="paint10_radial_1169_20181" cx="0" cy="0" r="1" gradientUnits="userSpaceOnUse" gradientTransform="translate(29.6329 15.0888) rotate(94.7627) scale(5.54106 1.56468)">
<stop stop-color="#F2B03B"/>
<stop offset="1" stop-color="#F2B03B" stop-opacity="0"/>
</radialGradient>
<radialGradient id="paint11_radial_1169_20181" cx="0" cy="0" r="1" gradientUnits="userSpaceOnUse" gradientTransform="translate(27.3229 16.1218) rotate(-83.1124) scale(4.81508 0.74276)">
<stop stop-color="#FFBF4A"/>
<stop offset="1" stop-color="#EAA730" stop-opacity="0"/>
</radialGradient>
<radialGradient id="paint12_radial_1169_20181" cx="0" cy="0" r="1" gradientUnits="userSpaceOnUse" gradientTransform="translate(29.976 10.7935) rotate(103.271) scale(2.56579 1.95645)">
<stop stop-color="#F2B03B"/>
<stop offset="1" stop-color="#F2B03B" stop-opacity="0"/>
</radialGradient>
<radialGradient id="paint13_radial_1169_20181" cx="0" cy="0" r="1" gradientUnits="userSpaceOnUse" gradientTransform="translate(27.0189 11.2614) rotate(-71.122) scale(2.28479 0.9063)">
<stop stop-color="#FFBF4A"/>
<stop offset="1" stop-color="#EAA730" stop-opacity="0"/>
</radialGradient>
</defs>
</svg>
