<svg width="13" height="14" viewBox="0 0 13 14" fill="none" xmlns="http://www.w3.org/2000/svg">
<path fill-rule="evenodd" clip-rule="evenodd" d="M1.83337 5.3339C1.83337 4.09623 2.32503 2.90924 3.2002 2.03407C4.07537 1.1589 5.26236 0.667236 6.50003 0.667236C7.73771 0.667236 8.9247 1.1589 9.79987 2.03407C10.675 2.90924 11.1667 4.09623 11.1667 5.3339V7.84324L12.3814 10.2726C12.4373 10.3844 12.4637 10.5086 12.4581 10.6335C12.4525 10.7584 12.415 10.8798 12.3493 10.9861C12.2835 11.0925 12.1917 11.1802 12.0825 11.2411C11.9733 11.302 11.8504 11.3339 11.7254 11.3339H9.0827C8.93441 11.9061 8.60032 12.4128 8.13288 12.7745C7.66543 13.1363 7.0911 13.3325 6.50003 13.3325C5.90897 13.3325 5.33464 13.1363 4.86719 12.7745C4.39975 12.4128 4.06566 11.9061 3.91737 11.3339H1.2747C1.14969 11.3339 1.02674 11.302 0.917546 11.2411C0.80835 11.1802 0.716527 11.0925 0.650798 10.9861C0.58507 10.8798 0.547618 10.7584 0.542001 10.6335C0.536383 10.5086 0.562786 10.3844 0.618702 10.2726L1.83337 7.84324V5.3339ZM5.34537 11.3339C5.4624 11.5366 5.63071 11.7049 5.8334 11.8219C6.03608 11.9389 6.266 12.0005 6.50003 12.0005C6.73407 12.0005 6.96399 11.9389 7.16667 11.8219C7.36936 11.7049 7.53767 11.5366 7.6547 11.3339H5.34537ZM6.50003 2.00057C5.61598 2.00057 4.76813 2.35176 4.14301 2.97688C3.51789 3.602 3.1667 4.44985 3.1667 5.3339V7.84324C3.16669 8.05013 3.11853 8.25417 3.02603 8.43924L2.24603 10.0006H10.7547L9.9747 8.43924C9.882 8.25422 9.83361 8.05018 9.83337 7.84324V5.3339C9.83337 4.44985 9.48218 3.602 8.85706 2.97688C8.23194 2.35176 7.38409 2.00057 6.50003 2.00057Z" fill="white"/>
</svg>
