<svg width="26" height="27" viewBox="0 0 26 27" fill="none" xmlns="http://www.w3.org/2000/svg">
<g clip-path="url(#clip0_1169_20252)">
<path d="M9.92041 5.03653C9.92041 4.81153 10.104 4.625 10.3376 4.625H12.0677C12.2958 4.625 12.4849 4.81153 12.4849 5.03653C12.4849 5.26152 12.2958 5.44805 12.0677 5.44805H10.3376C10.104 5.44805 9.92041 5.26696 9.92041 5.03653Z" fill="black"/>
<path d="M11.2387 2.42168C11.0773 2.26253 11.0773 1.99914 11.2387 1.84006C11.4 1.68092 11.667 1.68092 11.8284 1.84006L13.0522 3.04719C13.2135 3.20633 13.2135 3.46972 13.0522 3.6288C12.9688 3.70565 12.863 3.74955 12.7573 3.74955C12.6516 3.74955 12.5458 3.70565 12.4625 3.6288L11.2387 2.42168Z" fill="black"/>
<path d="M14.0481 2.61999V0.913479C14.0481 0.682986 14.2316 0.501953 14.4653 0.501953C14.699 0.501953 14.8825 0.682986 14.8825 0.913479V2.61999C14.8825 2.84492 14.6933 3.03151 14.4653 3.03151C14.2373 3.03151 14.0481 2.84492 14.0481 2.61999Z" fill="black"/>
<path d="M19.9532 15.3477H16.8008V26.4998H19.9532V15.3477Z" fill="#F8043F"/>
<path d="M1.97717 15.189C2.23413 14.8773 2.56779 14.6341 2.96151 14.4949C3.396 14.3421 3.85599 14.3251 4.29176 14.4375L4.32615 14.3653C4.32885 14.3605 4.33106 14.3551 4.33375 14.3503C4.33375 14.3498 4.33431 14.3492 4.33431 14.3492C4.60862 13.7325 4.34516 13.0241 3.73296 12.7341C3.11531 12.449 2.37322 12.7122 2.08205 13.3231L1.80988 13.8937C1.59993 14.3365 1.67895 14.8383 1.97723 15.189H1.97717Z" fill="white"/>
<path d="M8.01761 8.83984C7.98935 8.83984 7.96599 8.84625 7.95079 8.85163C7.92253 8.86179 7.87037 8.88755 7.84051 8.95025L5.51709 13.8113L8.98938 15.4261L11.3124 10.5653C11.3428 10.5021 11.3303 10.4459 11.32 10.418C11.3097 10.3901 11.2836 10.3392 11.2201 10.3098H11.2195L8.09969 8.85865C8.07032 8.84474 8.04213 8.8399 8.01767 8.8399L8.01761 8.83984Z" fill="#F8043F"/>
<path d="M2.68816 19.7285L0.364862 24.5892C0.335009 24.6513 0.347453 24.7081 0.357813 24.736C0.368111 24.7639 0.394224 24.8153 0.457792 24.8448L3.57817 26.2959C3.67484 26.3404 3.79112 26.2996 3.83783 26.2037L6.16076 21.3434L2.68822 19.7285H2.68816Z" fill="#F8043F"/>
<path d="M2.76515 17.632L3.92659 15.2014C3.86033 15.1923 3.79296 15.1875 3.72559 15.1875C3.56315 15.1875 3.4007 15.2154 3.24316 15.2706C2.88407 15.3976 2.59726 15.6542 2.43536 15.9929C2.27292 16.3326 2.25447 16.7141 2.38375 17.0678C2.46417 17.2875 2.59505 17.4799 2.76509 17.632H2.76515Z" fill="white"/>
<path d="M0.714177 19.0536C1.33023 19.3398 2.07281 19.0746 2.36834 18.4647L2.40095 18.3965C2.03524 18.1362 1.75528 17.7755 1.5986 17.3469C1.45657 16.9574 1.43426 16.5474 1.51579 16.1523C1.04777 16.151 0.605984 16.4105 0.397505 16.8512L0.117184 17.4262C-0.0224554 17.7188 -0.0382093 18.0515 0.0748264 18.3596C0.187249 18.6683 0.414363 18.9148 0.714238 19.0535L0.714177 19.0536Z" fill="white"/>
<path d="M8.63339 16.1695L5.1611 14.5547L3.04395 18.9841L6.51655 20.5989L8.63339 16.1695Z" fill="white"/>
<path d="M23.1948 15.3498C23.1916 15.3498 23.1888 15.3477 23.1855 15.3477H20.7876V26.4998H25.12C25.6051 26.4998 26.0001 26.1102 26.0001 25.6317V15.3477H23.2089C23.2041 15.3478 23.1995 15.3498 23.1948 15.3498Z" fill="#F8043F"/>
<path d="M11.6339 26.4998H15.9663V15.3477H10.7539V25.6317C10.7539 26.1102 11.1489 26.4998 11.634 26.4998H11.6339Z" fill="#F8043F"/>
<path d="M19.5434 11.0292C19.3131 11.0292 19.1262 10.8448 19.1262 10.6177V8.91153C19.1262 8.6843 19.3131 8.5 19.5434 8.5C19.7737 8.5 19.9606 8.68436 19.9606 8.91153V10.6177C19.9606 10.8449 19.7737 11.0292 19.5434 11.0292Z" fill="#F8043F"/>
<path d="M17.8373 11.748C17.7303 11.748 17.6238 11.7078 17.5424 11.6275L16.3195 10.4212C16.1565 10.2605 16.1565 10 16.3195 9.83933C16.4825 9.67856 16.7465 9.67856 16.9095 9.83933L18.1323 11.0456C18.2953 11.2063 18.2953 11.4668 18.1323 11.6275C18.0508 11.7078 17.9444 11.748 17.8373 11.748Z" fill="#F8043F"/>
<path d="M17.1463 13.4481H15.4172C15.1868 13.4481 15 13.2637 15 13.0365C15 12.8094 15.1869 12.625 15.4172 12.625H17.1463C17.3767 12.625 17.5635 12.8094 17.5635 13.0365C17.5635 13.2637 17.3766 13.4481 17.1463 13.4481Z" fill="#F8043F"/>
</g>
<defs>
<clipPath id="clip0_1169_20252">
<rect width="25.6462" height="26" fill="white" transform="translate(0 0.5)"/>
</clipPath>
</defs>
</svg>
