<svg width="19"
     height="18"
     viewBox="0 0 19 18"
     fill="none"
     xmlns="http://www.w3.org/2000/svg">
    <path d="M2.60001 17.7751C2.08434 17.7751 1.64292 17.5915 1.27576 17.2243C0.908589 16.8572 0.725006 16.4158 0.725006 15.9001V2.1001C0.725006 1.58443 0.908589 1.14302 1.27576 0.775848C1.64292 0.408682 2.08434 0.225098 2.60001 0.225098H9.42501V2.1001H2.60001V15.9001H16.4V9.0751H18.275V15.9001C18.275 16.4158 18.0914 16.8572 17.7243 17.2243C17.3571 17.5915 16.9157 17.7751 16.4 17.7751H2.60001ZM7.23751 12.5751L5.92501 11.2626L15.0875 2.1001H11.3V0.225098H18.275V7.2001H16.4V3.4126L7.23751 12.5751Z"
          fill="white" />
</svg>