<svg width="21" height="16" viewBox="0 0 21 16" fill="none" xmlns="http://www.w3.org/2000/svg">
<path d="M7.675 12.0001H1.5C1.21667 12.0001 0.979167 11.9043 0.7875 11.7126C0.595833 11.5209 0.5 11.2834 0.5 11.0001C0.5 10.7168 0.595833 10.4793 0.7875 10.2876C0.979167 10.0959 1.21667 10.0001 1.5 10.0001H7.675L5.8 8.12511C5.61667 7.94178 5.525 7.71261 5.525 7.43761C5.525 7.16261 5.61667 6.92511 5.8 6.72511C6 6.52511 6.2375 6.42511 6.5125 6.42511C6.7875 6.42511 7.025 6.52511 7.225 6.72511L10.8 10.3001C10.9 10.4001 10.9708 10.5084 11.0125 10.6251C11.0542 10.7418 11.075 10.8668 11.075 11.0001C11.075 11.1334 11.0542 11.2584 11.0125 11.3751C10.9708 11.4918 10.9 11.6001 10.8 11.7001L7.2 15.3001C7 15.5001 6.76667 15.5959 6.5 15.5876C6.23333 15.5793 6 15.4751 5.8 15.2751C5.61667 15.0751 5.52083 14.8418 5.5125 14.5751C5.50417 14.3084 5.6 14.0751 5.8 13.8751L7.675 12.0001ZM13.325 6.00011L15.2 7.87511C15.3833 8.05844 15.475 8.28761 15.475 8.56261C15.475 8.83761 15.3833 9.07511 15.2 9.27511C15 9.47511 14.7625 9.57511 14.4875 9.57511C14.2125 9.57511 13.975 9.47511 13.775 9.27511L10.2 5.70011C10.1 5.60011 10.0292 5.49178 9.9875 5.37511C9.94583 5.25844 9.925 5.13344 9.925 5.00011C9.925 4.86678 9.94583 4.74178 9.9875 4.62511C10.0292 4.50844 10.1 4.40011 10.2 4.30011L13.8 0.700109C14 0.500109 14.2333 0.404276 14.5 0.412609C14.7667 0.420943 15 0.525109 15.2 0.725109C15.3833 0.925109 15.4792 1.15844 15.4875 1.42511C15.4958 1.69178 15.4 1.92511 15.2 2.12511L13.325 4.00011H19.5C19.7833 4.00011 20.0208 4.09594 20.2125 4.28761C20.4042 4.47928 20.5 4.71678 20.5 5.00011C20.5 5.28344 20.4042 5.52094 20.2125 5.71261C20.0208 5.90428 19.7833 6.00011 19.5 6.00011H13.325Z" fill="#A8ADBE"/>
</svg>
