<svg width="20" height="20" viewBox="0 0 20 20" fill="none" xmlns="http://www.w3.org/2000/svg">
<mask id="mask0_727_13892" style="mask-type:alpha" maskUnits="userSpaceOnUse" x="1" y="1" width="18" height="18">
<rect x="1.66667" y="1.6665" width="16.6667" height="16.6667" fill="#D9D9D9"/>
</mask>
<g mask="url(#mask0_727_13892)">
<path d="M10.008 13.125C10.1736 13.125 10.3152 13.0662 10.4327 12.9487C10.5502 12.8312 10.609 12.6896 10.609 12.524V9.97596C10.609 9.81036 10.5502 9.6688 10.4327 9.55128C10.3152 9.43376 10.1736 9.375 10.008 9.375C9.84241 9.375 9.70086 9.43376 9.58333 9.55128C9.46581 9.6688 9.40705 9.81036 9.40705 9.97596V12.524C9.40705 12.6896 9.46581 12.8312 9.58333 12.9487C9.70086 13.0662 9.84241 13.125 10.008 13.125ZM9.99824 8.14103C10.1704 8.14103 10.3152 8.08285 10.4327 7.96651C10.5502 7.85005 10.609 7.70582 10.609 7.53381C10.609 7.3617 10.5508 7.21688 10.4345 7.09936C10.318 6.98184 10.1738 6.92308 10.0018 6.92308C9.82965 6.92308 9.68483 6.98125 9.56731 7.0976C9.44979 7.21405 9.39103 7.35828 9.39103 7.53029C9.39103 7.7024 9.4492 7.84722 9.56555 7.96474C9.682 8.08227 9.82623 8.14103 9.99824 8.14103ZM10 16.25C9.13558 16.25 8.32324 16.0857 7.56298 15.7571C6.80283 15.4283 6.14156 14.9823 5.57917 14.4189C5.01677 13.8554 4.57131 13.194 4.24279 12.4345C3.91426 11.6751 3.75 10.8636 3.75 10C3.75 9.13558 3.91432 8.32324 4.24295 7.56298C4.57169 6.80283 5.01774 6.14156 5.58109 5.57917C6.14455 5.01677 6.80604 4.57131 7.56555 4.24279C8.32495 3.91426 9.13643 3.75 10 3.75C10.8644 3.75 11.6768 3.91432 12.437 4.24295C13.1972 4.57169 13.8584 5.01774 14.4208 5.58109C14.9832 6.14455 15.4287 6.80604 15.7572 7.56555C16.0857 8.32495 16.25 9.13643 16.25 10C16.25 10.8644 16.0857 11.6768 15.7571 12.437C15.4283 13.1972 14.9823 13.8584 14.4189 14.4208C13.8554 14.9832 13.194 15.4287 12.4345 15.7572C11.6751 16.0857 10.8636 16.25 10 16.25Z" fill="#A8ADBE"/>
</g>
</svg>
