<svg width="20" height="20" viewBox="0 0 20 20" fill="none" xmlns="http://www.w3.org/2000/svg">
<mask id="mask0_977_6633" style="mask-type:alpha" maskUnits="userSpaceOnUse" x="1" y="1" width="18" height="18">
<rect x="1.66667" y="1.6665" width="16.6667" height="16.6667" fill="#D9D9D9"/>
</mask>
<g mask="url(#mask0_977_6633)">
<path d="M4.34396 15.5554C4.23212 15.5554 4.13134 15.5278 4.04159 15.4724C3.95185 15.4171 3.88207 15.3442 3.83225 15.2536C3.78014 15.1636 3.75278 15.067 3.75017 14.9638C3.74756 14.8605 3.77492 14.7586 3.83225 14.658L9.49188 4.7382C9.54921 4.6376 9.62394 4.56347 9.71608 4.51582C9.80832 4.46816 9.90296 4.44434 10 4.44434C10.097 4.44434 10.1917 4.46816 10.2839 4.51582C10.3761 4.56347 10.4508 4.6376 10.5081 4.7382L16.1678 14.658C16.2251 14.7586 16.2524 14.8605 16.2498 14.9638C16.2472 15.067 16.2199 15.1636 16.1678 15.2536C16.1156 15.3437 16.0451 15.4165 15.9562 15.4721C15.8672 15.5276 15.7683 15.5554 15.6596 15.5554H4.34396ZM9.99828 13.7129C10.1662 13.7129 10.3075 13.6552 10.4221 13.5399C10.5368 13.4245 10.5941 13.2815 10.5941 13.111C10.5941 12.9404 10.5374 12.7969 10.4238 12.6804C10.3102 12.5639 10.1695 12.5056 10.0017 12.5056C9.83381 12.5056 9.69252 12.5633 9.57787 12.6786C9.46322 12.7941 9.4059 12.937 9.4059 13.1075C9.4059 13.2781 9.46265 13.4216 9.57615 13.5381C9.68976 13.6546 9.83047 13.7129 9.99828 13.7129ZM10.0078 11.8862C10.1694 11.8862 10.3075 11.8279 10.4221 11.7114C10.5368 11.5949 10.5941 11.4546 10.5941 11.2905V9.3526C10.5941 9.18847 10.5368 9.04815 10.4221 8.93167C10.3075 8.81518 10.1694 8.75694 10.0078 8.75694C9.84626 8.75694 9.70816 8.81518 9.59351 8.93167C9.47886 9.04815 9.42153 9.18847 9.42153 9.3526V11.2905C9.42153 11.4546 9.47886 11.5949 9.59351 11.7114C9.70816 11.8279 9.84626 11.8862 10.0078 11.8862Z" fill="#F79009"/>
</g>
</svg>
