<svg viewBox="0 0 64 36"
     fill="none"
     xmlns="http://www.w3.org/2000/svg">
    <path d="M32 31.5C39.4558 31.5 45.5 25.4558 45.5 18C45.5 10.5442 39.4558 4.5 32 4.5C24.5442 4.5 18.5 10.5442 18.5 18C18.5 25.4558 24.5442 31.5 32 31.5Z"
          fill="#0052FF" />
    <path d="M32.1134 14.0404C33.7028 14.0404 34.9637 15.0208 35.4425 16.4786H38.6445C38.0645 13.3617 35.4929 11.25 32.139 11.25C28.3302 11.25 25.3555 14.1412 25.3555 18.0129C25.3555 21.8847 28.2559 24.75 32.139 24.75C35.4177 24.75 38.0405 22.6383 38.6211 19.4955H35.4422C34.9882 20.9537 33.7284 21.9596 32.1379 21.9596C29.9434 21.9596 28.4054 20.275 28.4054 18.0129C28.4064 15.725 29.9196 14.0404 32.1134 14.0404Z"
          fill="white" />
</svg>