<svg viewBox="0 0 64 36"
     fill="none"
     xmlns="http://www.w3.org/2000/svg">
    <path fill-rule="evenodd"
          clip-rule="evenodd"
          d="M26.2252 28.1635L29.7623 29.1021V27.8747L30.051 27.5859H32.0726V30.0407H29.9066L27.2353 28.8855L26.2252 28.1635Z"
          fill="#CDBDB2" />
    <path fill-rule="evenodd"
          clip-rule="evenodd"
          d="M37.7757 28.1635L34.3102 29.1021V27.8747L34.0214 27.5859H31.9999V30.0407H34.1658L36.8371 28.8855L37.7757 28.1635Z"
          fill="#CDBDB2" />
    <path fill-rule="evenodd"
          clip-rule="evenodd"
          d="M30.0509 25.4899L29.7621 27.8724L30.1231 27.5836H33.8767L34.3099 27.8724L34.0211 25.4899L33.4435 25.1289L30.5556 25.2011L30.0509 25.4899Z"
          fill="#393939" />
    <path fill-rule="evenodd"
          clip-rule="evenodd"
          d="M28.1015 9.39502L29.8342 13.4374L30.6284 25.2043H33.4441L34.3105 13.4374L35.8988 9.39502H28.1015Z"
          fill="#F89C35" />
    <path fill-rule="evenodd"
          clip-rule="evenodd"
          d="M20.5215 18.2709L18.5 24.1183L23.5532 23.8295H26.8014V21.3026L26.657 16.105L25.935 16.6826L20.5215 18.2709Z"
          fill="#F89D35" />
    <path fill-rule="evenodd"
          clip-rule="evenodd"
          d="M24.3481 18.9224L30.2676 19.0668L29.6178 22.0991L26.8028 21.3771L24.3481 18.9224Z"
          fill="#D87C30" />
    <path fill-rule="evenodd"
          clip-rule="evenodd"
          d="M24.3481 18.9956L26.8028 21.3059V23.6163L24.3481 18.9956Z"
          fill="#EA8D3A" />
    <path fill-rule="evenodd"
          clip-rule="evenodd"
          d="M26.8027 21.376L29.6906 22.098L30.6292 25.2025L29.9794 25.5634L26.8027 23.6863V21.376Z"
          fill="#F89D35" />
    <path fill-rule="evenodd"
          clip-rule="evenodd"
          d="M26.8028 23.686L26.2252 28.1616L30.051 25.4903L26.8028 23.686Z"
          fill="#EB8F35" />
    <path fill-rule="evenodd"
          clip-rule="evenodd"
          d="M30.2672 19.0649L30.6282 25.2011L29.5452 22.0608L30.2672 19.0649Z"
          fill="#EA8E3A" />
    <path fill-rule="evenodd"
          clip-rule="evenodd"
          d="M23.4818 23.7582L26.8029 23.686L26.2253 28.1616L23.4818 23.7582Z"
          fill="#D87C30" />
    <path fill-rule="evenodd"
          clip-rule="evenodd"
          d="M20.0887 30.1115L26.2248 28.1622L23.4813 23.7588L18.5003 24.1198L20.0887 30.1115Z"
          fill="#EB8F35" />
    <path fill-rule="evenodd"
          clip-rule="evenodd"
          d="M29.8344 13.4351L26.7306 16.0342L24.3481 18.9214L30.2676 19.138L29.8344 13.4351Z"
          fill="#E8821E" />
    <path fill-rule="evenodd"
          clip-rule="evenodd"
          d="M26.2252 28.1625L30.051 25.4912L29.7623 27.8015V29.1011L27.1631 28.5957L26.2252 28.1625Z"
          fill="#DFCEC3" />
    <path fill-rule="evenodd"
          clip-rule="evenodd"
          d="M37.7757 28.1625L34.022 25.4912L34.3108 27.8015V29.1011L36.9099 28.5957L37.7757 28.1625Z"
          fill="#DFCEC3" />
    <path fill-rule="evenodd"
          clip-rule="evenodd"
          d="M28.6793 20.3662L29.4734 22.0268L26.6577 21.3048L28.6793 20.3662Z"
          fill="#393939" />
    <path fill-rule="evenodd"
          clip-rule="evenodd"
          d="M20.0162 6L29.8345 13.4357L28.1739 9.39329L20.0162 6Z"
          fill="#E88F35" />
    <path fill-rule="evenodd"
          clip-rule="evenodd"
          d="M20.0161 6L18.7166 9.97088L19.4385 14.3021L18.9331 14.5909L19.6551 15.2406L19.0775 15.746L19.8717 16.468L19.3663 16.9012L20.5215 18.3452L25.9357 16.6846C28.5825 14.567 29.882 13.4841 29.8337 13.4364C29.786 13.3874 26.5139 10.9088 20.0161 6Z"
          fill="#8E5A30" />
    <path fill-rule="evenodd"
          clip-rule="evenodd"
          d="M43.4784 18.2732L45.5 24.1212L40.4468 23.8324H37.1986V21.3055L37.343 16.1079L38.0649 16.6855L43.4784 18.2732Z"
          fill="#F89D35" />
    <path fill-rule="evenodd"
          clip-rule="evenodd"
          d="M39.6525 18.9224L33.733 19.0668L34.3821 22.0991L37.1978 21.3771L39.6525 18.9224Z"
          fill="#D87C30" />
    <path fill-rule="evenodd"
          clip-rule="evenodd"
          d="M39.6523 18.9956L37.1976 21.3059V23.6163L39.6523 18.9956Z"
          fill="#EA8D3A" />
    <path fill-rule="evenodd"
          clip-rule="evenodd"
          d="M37.1979 21.376L34.31 22.098L33.3714 25.2025L34.0212 25.5634L37.1979 23.6863V21.376Z"
          fill="#F89D35" />
    <path fill-rule="evenodd"
          clip-rule="evenodd"
          d="M37.1981 23.686L37.7757 28.1616L34.022 25.5625L37.1981 23.686Z"
          fill="#EB8F35" />
    <path fill-rule="evenodd"
          clip-rule="evenodd"
          d="M33.7333 19.0649L33.3724 25.2011L34.4553 22.0608L33.7333 19.0649Z"
          fill="#EA8E3A" />
    <path fill-rule="evenodd"
          clip-rule="evenodd"
          d="M40.5187 23.7582L37.1976 23.686L37.7752 28.1616L40.5187 23.7582Z"
          fill="#D87C30" />
    <path fill-rule="evenodd"
          clip-rule="evenodd"
          d="M43.9116 30.1115L37.7754 28.1622L40.5189 23.7588L45.4999 24.1198L43.9116 30.1115Z"
          fill="#EB8F35" />
    <path fill-rule="evenodd"
          clip-rule="evenodd"
          d="M34.1655 13.4351L37.27 16.0342L39.6525 18.9214L33.733 19.138L34.1655 13.4351Z"
          fill="#E8821E" />
    <path fill-rule="evenodd"
          clip-rule="evenodd"
          d="M35.3209 20.3662L34.5267 22.0268L37.3424 21.3048L35.3209 20.3662Z"
          fill="#393939" />
    <path fill-rule="evenodd"
          clip-rule="evenodd"
          d="M43.9837 6L34.1655 13.4357L35.826 9.39329L43.9837 6Z"
          fill="#E88F35" />
    <path fill-rule="evenodd"
          clip-rule="evenodd"
          d="M43.984 6L45.2836 9.97088L44.5616 14.3021L45.067 14.5909L44.345 15.2406L44.9226 15.746L44.1284 16.468L44.6338 16.9012L43.4786 18.3452L38.0645 16.6846C35.4177 14.567 34.1181 13.4841 34.1665 13.4364C34.2142 13.3874 37.4869 10.9088 43.984 6Z"
          fill="#8E5A30" />
</svg>